<?xml version="1.0" encoding="UTF-8"?>
<svg width="20px" height="20px" viewBox="0 0 20 20" version="1.1" xmlns="http://www.w3.org/2000/svg" xmlns:xlink="http://www.w3.org/1999/xlink">
    <!-- Generator: sketchtool 53.2 (72643) - https://sketchapp.com -->
    <title>C66AF939-D66A-4927-82DD-270BAB3EA63B</title>
    <desc>Created with sketchtool.</desc>
    <g id="SignIn-SignUp" stroke="none" stroke-width="1" fill="none" fill-rule="evenodd">
        <g id="Hotfix-ExtraStep-BankTransfer" transform="translate(-367.000000, -669.000000)" fill="#FFC150" fill-rule="nonzero">
            <g id="icon-alert" transform="translate(367.000000, 669.000000)">
                <path d="M9.98785714,0 C4.47214286,0 0.000714285714,4.47071429 0.000714285714,9.985 C0.000714285714,15.5021429 4.47214286,19.9735714 9.98785714,19.9735714 C15.5035714,19.9735714 19.9735714,15.5014286 19.9735714,9.985 C19.9735714,4.47071429 15.5035714,0 9.98785714,0 Z M9.98785714,18.9507143 C5.03571429,18.9507143 1.02357143,14.9364286 1.02357143,9.98428571 C1.02357143,5.03428571 5.03571429,1.02142857 9.98785714,1.02142857 C14.9385714,1.02142857 18.9514286,5.03428571 18.9514286,9.98428571 C18.9507143,14.9364286 14.9378571,18.9507143 9.98785714,18.9507143 Z" id="Shape"></path>
                <polygon id="Path" points="11.1278571 12.2557143 11.565 3.27071429 8.43142857 3.27071429 8.86714286 12.2557143"></polygon>
                <path d="M9.99857143,13.2471429 C8.94785714,13.2471429 8.21285714,13.9821429 8.21285714,15.0514286 C8.21285714,16.0821429 8.92642857,16.8571429 9.95857143,16.8571429 L9.99857143,16.8571429 C11.0692857,16.8571429 11.7621429,16.0821429 11.7621429,15.0514286 C11.7435714,13.9821429 11.0485714,13.2471429 9.99857143,13.2471429 Z" id="Path"></path>
            </g>
        </g>
    </g>
</svg>