<svg width="13" height="13" viewBox="0 0 13 13" fill="none" xmlns="http://www.w3.org/2000/svg">
<path fill-rule="evenodd" clip-rule="evenodd" d="M8.08219 6.6758C7.98174 6.57534 7.98174 6.42466 8.08219 6.3242L11.8493 2.55708C11.9498 2.45662 12 2.30594 12 2.20548C12 2.10502 11.9498 1.95434 11.8493 1.85388L11.1461 1.15068C11.0457 1.05023 10.895 1 10.7945 1C10.6438 1 10.5434 1.05023 10.4429 1.15068L6.6758 4.91781C6.57534 5.01826 6.42466 5.01826 6.3242 4.91781L2.55708 1.15068C2.45662 1.05023 2.30594 1 2.20548 1C2.10502 1 1.95434 1.05023 1.85388 1.15068L1.15068 1.85388C1.05023 1.95434 1 2.10502 1 2.20548C1 2.30594 1.05023 2.45662 1.15068 2.55708L4.91781 6.3242C5.01826 6.42466 5.01826 6.57534 4.91781 6.6758L1.15068 10.4429C1.05023 10.5434 1 10.6941 1 10.7945C1 10.895 1.05023 11.0457 1.15068 11.1461L1.85388 11.8493C1.95434 11.9498 2.10502 12 2.20548 12C2.30594 12 2.45662 11.9498 2.55708 11.8493L6.3242 8.08219C6.42466 7.98174 6.57534 7.98174 6.6758 8.08219L10.4429 11.8493C10.5434 11.9498 10.6941 12 10.7945 12C10.895 12 11.0457 11.9498 11.1461 11.8493L11.8493 11.1461C11.9498 11.0457 12 10.895 12 10.7945C12 10.6941 11.9498 10.5434 11.8493 10.4429L8.08219 6.6758Z" fill="#A6A6A6" stroke="#979797" stroke-width="0.5"/>
</svg>
