<svg width="22" height="22" viewBox="0 0 22 22" fill="none" xmlns="http://www.w3.org/2000/svg">
<path fill-rule="evenodd" clip-rule="evenodd" d="M21 1C21 1 20.9176 3.29807 19.9626 6L16 2.0374C18.7019 1.08239 21 1 21 1Z" fill="#FF5249"/>
<path fill-rule="evenodd" clip-rule="evenodd" d="M16.9276 1L21 5.07243C20.3621 6.87918 19.3437 8.86142 17.723 10.4821C16.2295 11.9757 14.4327 13.1712 12.5542 14L8 9.44583C8.55457 8.18883 9.32852 6.84759 10.3512 5.57742C10.7092 5.13297 11.0975 4.6973 11.5179 4.27698C13.1386 2.65626 15.1208 1.63793 16.9276 1Z" fill="white"/>
<path fill-rule="evenodd" clip-rule="evenodd" d="M16.4142 5.58575C17.1953 6.36675 17.1953 7.63325 16.4142 8.41425C15.6332 9.19525 14.3672 9.19525 13.5857 8.41425C12.8047 7.63275 12.8047 6.36675 13.5857 5.58575C14.3668 4.80475 15.6332 4.80475 16.4142 5.58575Z" fill="#7BD8E8"/>
<path fill-rule="evenodd" clip-rule="evenodd" d="M15.3462 11.6212C17.5163 14.8878 13.454 16.9992 11.1782 16.9992C12.369 15.8043 12.0212 14.2599 12.0212 14.2599L11.577 13.8142C12.7833 13.2801 14.0704 12.5347 15.2894 11.5498L15.3462 11.6212Z" fill="#FF5249"/>
<path fill-rule="evenodd" clip-rule="evenodd" d="M6.71694 12.5229L6.64873 12.4544C6.44746 12.252 6.34852 11.9588 6.41925 11.6816C6.59483 10.9954 6.8542 10.2298 7.2062 9.42822L11.5767 13.8141C10.778 14.1674 10.015 14.4277 9.33125 14.6039C9.05504 14.6748 8.76283 14.5755 8.56115 14.3736L8.49294 14.3051L6.71694 12.5229Z" fill="#FF5249"/>
<path fill-rule="evenodd" clip-rule="evenodd" d="M9.39187 5.64565L9.46303 5.70269C8.48156 6.92593 7.73882 8.21762 7.20661 9.42818L6.7624 8.98241C6.7624 8.98241 5.22345 8.6334 4.03271 9.82832C4.03271 7.54452 6.13671 3.4679 9.39187 5.64565Z" fill="#FF5249"/>
<path fill-rule="evenodd" clip-rule="evenodd" d="M7.4074 13L9 14.5926C8.8856 15.0453 8.61412 15.5218 8.2037 15.9322C7.31905 16.8169 5 17 5 17C5 17 5.18312 14.681 6.06777 13.7963C6.4782 13.3859 6.95469 13.1144 7.4074 13Z" fill="#FFDD78"/>
<path fill-rule="evenodd" clip-rule="evenodd" d="M11.8537 11.8537C12.0487 11.6582 12.0487 11.3417 11.8537 11.1466C11.6582 10.9511 11.3417 10.9511 11.1462 11.1466C10.9513 11.3417 10.9513 11.6582 11.1462 11.8537C11.3417 12.0488 11.6582 12.0488 11.8537 11.8537Z" fill="black"/>
<path fill-rule="evenodd" clip-rule="evenodd" d="M17.4137 4.58628C18.1955 5.36804 18.1953 6.63356 17.4137 7.4152C16.6338 8.19508 15.3648 8.19476 14.5849 7.41528C13.805 6.63496 13.8051 5.36596 14.5848 4.58628C15.3665 3.80455 16.632 3.80459 17.4137 4.58628ZM16.8479 5.15205C16.3789 4.68297 15.6196 4.68305 15.1506 5.15205C14.6827 5.61984 14.6828 6.38132 15.1506 6.84947C15.6187 7.31722 16.3802 7.31722 16.8479 6.84939C17.317 6.38036 17.3169 5.621 16.8479 5.15205Z" fill="black"/>
<path fill-rule="evenodd" clip-rule="evenodd" d="M4.26724 10.6235C4.32077 10.6457 4.37702 10.6564 4.43276 10.6564C4.54539 10.6564 4.65604 10.6124 4.73881 10.5297C5.60783 9.66069 6.6797 9.71504 7.02985 9.76108L7.18139 9.91261C6.88316 10.6223 6.64292 11.3279 6.46672 12.0143C6.40311 12.2626 6.42458 12.5255 6.51912 12.7659C6.10251 12.9579 5.70056 13.2398 5.35058 13.5898C4.23674 14.7036 4.01056 17.4182 4.00147 17.5332C3.99152 17.6595 4.0373 17.7837 4.12683 17.8733C4.20831 17.9547 4.31852 18 4.43276 18C4.44409 18 4.45547 17.9996 4.46685 17.9987C4.58187 17.9896 7.29653 17.7634 8.41038 16.6496C8.76023 16.2997 9.0421 15.8978 9.23409 15.4813C9.48861 15.5814 9.75058 15.5937 9.98615 15.5334C10.6722 15.3572 11.3777 15.1171 12.0875 14.8188L12.239 14.9703C12.285 15.3205 12.3394 16.3924 11.4704 17.2613C11.3467 17.3851 11.3096 17.5712 11.3766 17.7328C11.4436 17.8945 11.6013 18 11.7764 18C13.489 18 15.8835 16.98 16.7653 15.3322C17.1483 14.6166 17.4091 13.4846 16.5775 12.0718C16.93 11.7738 17.2696 11.4623 17.5899 11.142C19.0187 9.71318 20.1404 7.86364 20.9238 5.64486C21.9026 2.87559 21.9962 0.546043 21.9997 0.448251C22.004 0.328173 21.9582 0.21173 21.8733 0.126746C21.7883 0.0418042 21.6723 -0.00423634 21.5518 0.000307139C21.4539 0.00381211 19.1244 0.097451 16.3553 1.0762C14.1363 1.85967 12.2868 2.98139 10.858 4.4102C10.5379 4.73037 10.2263 5.06987 9.92821 5.42258C8.51549 4.59099 7.38342 4.85174 6.66776 5.23474C5.01995 6.1166 4 8.51106 4 10.2237C4.00013 10.3987 4.10558 10.5565 4.26724 10.6235ZM7.79844 16.0376C7.20346 16.6326 5.80774 16.9464 4.92557 17.0745C5.05374 16.1923 5.36759 14.7966 5.96252 14.2017C6.29571 13.8685 6.68204 13.6159 7.07036 13.4736L8.52652 14.9298C8.38424 15.3181 8.13167 15.7044 7.79844 16.0376ZM9.39307 14.5724C9.5009 14.68 9.64595 14.7271 9.77117 14.695C10.3107 14.5565 10.8644 14.3753 11.4236 14.1548L7.8453 10.5765C7.62488 11.1356 7.44361 11.6894 7.30502 12.2292C7.27304 12.3542 7.32012 12.4992 7.42804 12.6073L8.54641 13.7257L9.39307 14.5724ZM16.0024 14.9239C15.4355 15.9831 14.008 16.7639 12.7072 17.0326C13.122 16.2521 13.2134 15.2586 13.0619 14.6561C13.032 14.5372 12.9615 14.4685 12.9379 14.4455L12.9379 14.4455L12.9379 14.4455L12.9379 14.4455C12.9337 14.4414 12.931 14.4388 12.9303 14.4376C13.9789 13.9297 14.9719 13.3204 15.8938 12.6195C16.3441 13.4423 16.3812 14.2161 16.0024 14.9239ZM17.3015 1.67421L20.3259 4.69869C20.8377 3.05106 21.0294 1.61752 21.0983 0.901863C20.3828 0.97075 18.9493 1.1624 17.3015 1.67421ZM11.4701 5.02215C12.752 3.74019 14.4065 2.71995 16.3888 1.98555L20.0146 5.61133C19.2803 7.59362 18.26 9.24805 16.978 10.53C16.5881 10.9199 16.1682 11.2966 15.7301 11.6496C14.6768 12.4977 13.5174 13.2161 12.2806 13.7879L8.2122 9.71967C8.78407 8.48272 9.50246 7.32339 10.3505 6.27022C10.7038 5.83175 11.0804 5.41185 11.4701 5.02215ZM9.38056 6.10639C8.55789 5.65607 7.78416 5.61894 7.07628 5.99774C6.017 6.56468 5.23626 7.99215 4.96746 9.29301C6.12908 8.67566 7.27399 8.92192 7.33349 8.93538C7.45918 8.96372 7.53446 9.04132 7.55629 9.06383C7.5596 9.06724 7.56168 9.06938 7.56252 9.06991C8.0704 8.02123 8.6797 7.02816 9.38056 6.10639Z" fill="black"/>
<path fill-rule="evenodd" clip-rule="evenodd" d="M9.70723 19.8787L10.8787 18.707C11.0405 18.5452 11.0404 18.2829 10.8786 18.1213C10.7168 17.9595 10.4545 17.9596 10.2928 18.1213L9.12127 19.293C8.95954 19.4548 8.95958 19.7171 9.12135 19.8787C9.2832 20.0404 9.5455 20.0404 9.70723 19.8787Z" fill="black"/>
<path fill-rule="evenodd" clip-rule="evenodd" d="M2.70695 12.8787L3.87864 11.7072C4.04041 11.5455 4.04045 11.2832 3.87876 11.1214C3.71707 10.9596 3.45486 10.9596 3.29305 11.1213L2.12136 12.2928C1.95959 12.4545 1.95955 12.7168 2.12124 12.8786C2.28289 13.0404 2.5451 13.0405 2.70695 12.8787Z" fill="black"/>
<path fill-rule="evenodd" clip-rule="evenodd" d="M6.22177 18.1335L3.13356 21.2216C2.95549 21.3997 2.95549 21.6884 3.13351 21.8664C3.31145 22.0445 3.60016 22.0446 3.77823 21.8665L6.86644 18.7783C7.04451 18.6003 7.04451 18.3116 6.86649 18.1335C6.68855 17.9555 6.39984 17.9555 6.22177 18.1335Z" fill="black"/>
<path fill-rule="evenodd" clip-rule="evenodd" d="M3.22177 18.1335L0.133559 21.2216C-0.0445121 21.3997 -0.0445121 21.6884 0.133513 21.8664C0.311448 22.0445 0.600164 22.0446 0.778235 21.8665L3.86644 18.7783C4.04451 18.6003 4.04451 18.3116 3.86649 18.1335C3.68851 17.9555 3.39979 17.9555 3.22177 18.1335Z" fill="black"/>
<path fill-rule="evenodd" clip-rule="evenodd" d="M0.778369 18.8664L3.86647 15.7782C4.04452 15.6002 4.04452 15.3115 3.86643 15.1335C3.68843 14.9555 3.39968 14.9555 3.22163 15.1335L0.133529 18.2217C-0.0445171 18.3998 -0.0445171 18.6884 0.133574 18.8665C0.31162 19.0445 0.600323 19.0445 0.778369 18.8664Z" fill="black"/>
<path fill-rule="evenodd" clip-rule="evenodd" d="M12.5 9.91421L12.9142 9.50004C13.0286 9.38566 13.0286 9.20019 12.9142 9.08579C12.7998 8.9714 12.6144 8.9714 12.5 9.08579L12.0858 9.49996C11.9714 9.61434 11.9714 9.79981 12.0858 9.91421C12.2002 10.0286 12.3856 10.0286 12.5 9.91421Z" fill="black"/>
</svg>
