<svg width="23" height="22" viewBox="0 0 23 22" fill="none" xmlns="http://www.w3.org/2000/svg">
<path fill-rule="evenodd" clip-rule="evenodd" d="M19.9585 6.6799L14.1426 6.1397L11.8323 0.767486C11.6705 0.391307 11.1379 0.391307 10.9762 0.767486L8.66593 6.13965L2.84994 6.6799C2.44266 6.71772 2.27811 7.22494 2.58539 7.49529L6.97351 11.3556L5.6893 17.0617C5.59939 17.4612 6.03028 17.7747 6.38192 17.5656L11.4042 14.5793L16.4264 17.5656C16.7781 17.7747 17.209 17.4612 17.1191 17.0617L15.8348 11.3556L20.223 7.49529C20.5304 7.2249 20.3658 6.71772 19.9585 6.6799Z" fill="#FFDC64"/>
<path fill-rule="evenodd" clip-rule="evenodd" d="M5.53657 0.633375C5.83324 1.04576 6.67059 2.81667 7.14929 3.84874C7.22456 4.011 7.02113 4.15755 6.89127 4.03464C6.06512 3.25292 4.65251 1.89643 4.35589 1.48408C4.12114 1.15778 4.19519 0.702817 4.52121 0.467979C4.84719 0.233007 5.30182 0.30707 5.53657 0.633375Z" fill="#FFF082"/>
<path fill-rule="evenodd" clip-rule="evenodd" d="M17.4346 0.633375C17.138 1.04576 16.3006 2.81667 15.8219 3.84874C15.7466 4.011 15.9501 4.15755 16.0799 4.03464C16.9061 3.25292 18.3187 1.89643 18.6153 1.48408C18.8501 1.15778 18.776 0.702817 18.45 0.467979C18.1239 0.233007 17.6693 0.30707 17.4346 0.633375Z" fill="#FFF082"/>
<path fill-rule="evenodd" clip-rule="evenodd" d="M22.1227 12.7257C21.6399 12.5682 19.6995 12.3079 18.5716 12.1651C18.3943 12.1426 18.3165 12.3811 18.473 12.4675C19.4682 13.0177 21.1889 13.9523 21.6716 14.1099C22.0536 14.2345 22.4642 14.0257 22.5887 13.6435C22.7133 13.2613 22.5046 12.8504 22.1227 12.7257Z" fill="#FFF082"/>
<path fill-rule="evenodd" clip-rule="evenodd" d="M0.848316 12.7257C1.33105 12.5682 3.27145 12.3079 4.39942 12.1651C4.57675 12.1426 4.65448 12.3811 4.49799 12.4675C3.50275 13.0177 1.78214 13.9523 1.2994 14.1099C0.917438 14.2345 0.506784 14.0257 0.382256 13.6435C0.257639 13.2613 0.46635 12.8504 0.848316 12.7257Z" fill="#FFF082"/>
<path fill-rule="evenodd" clip-rule="evenodd" d="M10.7803 20.9416C10.7803 20.4335 11.1347 18.5066 11.3488 17.3892C11.3824 17.2135 11.6331 17.2135 11.6667 17.3892C11.8808 18.5066 12.2352 20.4335 12.2352 20.9416C12.2352 21.3437 11.9095 21.6696 11.5077 21.6696C11.1059 21.6696 10.7803 21.3437 10.7803 20.9416Z" fill="#FFF082"/>
<path fill-rule="evenodd" clip-rule="evenodd" d="M12.7796 2.72106L11.944 0.767486C11.7831 0.391307 11.2534 0.391307 11.0925 0.767486L8.79461 6.13965L3.00978 6.6799C2.60468 6.71772 2.44101 7.22494 2.74665 7.49529L7.11125 11.3556L5.83393 17.0617C5.74449 17.4612 6.17308 17.7747 6.52283 17.5656L7.18772 17.1681C8.27766 10.0646 11.3419 4.85005 12.7796 2.72106Z" fill="#FFC850"/>
<path fill-rule="evenodd" clip-rule="evenodd" d="M16.1967 11.4959L20.4321 7.78642C20.6766 7.57235 20.766 7.24768 20.6655 6.93921C20.5649 6.63064 20.3011 6.42037 19.9771 6.39046L14.3635 5.87136L13.3124 3.43782C13.239 3.26803 13.0416 3.18956 12.8712 3.26276C12.7009 3.33588 12.6223 3.53281 12.6956 3.7026L13.8256 6.31865C13.8742 6.43117 13.9806 6.50826 14.103 6.51955L19.9151 7.057C19.9892 7.06387 20.0169 7.11569 20.0267 7.146C20.0366 7.17631 20.0448 7.23442 19.9888 7.28338L15.6036 11.1241C15.5113 11.205 15.4707 11.3297 15.4977 11.4492L16.7811 17.1261C16.7974 17.1986 16.7565 17.2408 16.7306 17.2595C16.7048 17.2782 16.6519 17.304 16.5879 17.266L11.5689 14.295C11.4633 14.2325 11.3317 14.2325 11.226 14.295L6.20715 17.2661C6.14321 17.3041 6.0903 17.2782 6.06437 17.2595C6.03854 17.2408 5.99762 17.1986 6.01396 17.1263L6.67648 14.1959C6.71726 14.0155 6.60364 13.8363 6.42276 13.7957C6.24171 13.755 6.06209 13.8683 6.02135 14.0486L5.35883 16.9791C5.28729 17.2955 5.40642 17.6106 5.66963 17.8012C5.81164 17.9041 5.97514 17.956 6.13959 17.9559C6.28003 17.9559 6.42115 17.9181 6.55 17.8418L11.3975 14.9722L16.245 17.8418C16.5248 18.0074 16.8621 17.9918 17.1253 17.8012C17.3886 17.6106 17.5076 17.2955 17.4361 16.979L16.1967 11.4959Z" fill="black"/>
<path fill-rule="evenodd" clip-rule="evenodd" d="M2.37635 7.74851L6.60274 11.471L6.32807 12.693C6.28737 12.874 6.40076 13.0538 6.5813 13.0946C6.60609 13.1002 6.63084 13.1029 6.65523 13.1029C6.80847 13.1029 6.9467 12.9969 6.98181 12.8407L7.30026 11.4241C7.32724 11.3041 7.28668 11.179 7.19456 11.0979L2.81868 7.24372C2.76288 7.19459 2.7711 7.13627 2.78089 7.10586C2.79076 7.07545 2.81832 7.02344 2.89226 7.01655L8.69194 6.47722C8.81404 6.46589 8.92024 6.38854 8.96875 6.27562L11.2726 0.91221C11.302 0.843815 11.3599 0.833603 11.3917 0.833603C11.4236 0.833603 11.4815 0.843815 11.5109 0.91221L12.1366 2.36894C12.2098 2.53932 12.4069 2.61802 12.5769 2.5446C12.7468 2.47119 12.8253 2.27358 12.7521 2.10319L12.1264 0.646467C11.9979 0.34749 11.7164 0.161743 11.3917 0.161743C11.067 0.161743 10.7856 0.347445 10.6571 0.646467L8.43198 5.82677L2.83034 6.34769C2.50702 6.37774 2.24384 6.58875 2.1435 6.89834C2.0432 7.20789 2.13246 7.53365 2.37635 7.74851Z" fill="black"/>
<path fill-rule="evenodd" clip-rule="evenodd" d="M7.43428 4.85294C7.35303 4.85294 7.27217 4.82314 7.20908 4.76451C6.93343 4.5083 4.50364 2.24417 4.07893 1.6549C3.74216 1.18751 3.84875 0.53362 4.3166 0.197126C4.54325 0.0340502 4.81961 -0.0310479 5.09552 0.0138473C5.37113 0.0586986 5.61281 0.208085 5.77597 0.434498C6.20064 1.02373 7.57924 4.04377 7.73504 4.38621C7.80021 4.52948 7.75509 4.69876 7.62727 4.7907C7.56928 4.83243 7.50165 4.85294 7.43428 4.85294ZM4.92668 0.660515C4.84671 0.660515 4.76894 0.685384 4.70276 0.733008C4.53069 0.856778 4.49148 1.09732 4.61538 1.26924C4.8152 1.54649 5.63272 2.35426 6.40636 3.0967C5.94702 2.12833 5.43947 1.09754 5.2396 0.82029C5.17955 0.737013 5.09072 0.682083 4.98929 0.665577C4.96836 0.662188 4.94747 0.660515 4.92668 0.660515Z" fill="black"/>
<path fill-rule="evenodd" clip-rule="evenodd" d="M15.5365 4.85294C15.4691 4.85294 15.4014 4.83239 15.3435 4.7907C15.2156 4.69875 15.1706 4.52947 15.2356 4.38628C15.3914 4.04384 16.7701 1.02371 17.1947 0.434467C17.3579 0.208091 17.5995 0.0587006 17.8752 0.0138481C18.1506 -0.0310484 18.4274 0.0340515 18.6541 0.197087C19.122 0.533591 19.2286 1.18754 18.8918 1.6549C18.4671 2.24415 16.0373 4.50829 15.7617 4.76451C15.6987 4.8231 15.6178 4.85294 15.5365 4.85294ZM17.9814 0.665419C17.88 0.681925 17.7911 0.736858 17.7311 0.82018C17.5313 1.09748 17.0238 2.12825 16.5644 3.09665C17.3379 2.35419 18.1555 1.54636 18.3554 1.2691C18.4793 1.09717 18.44 0.856626 18.268 0.732808C18.2018 0.685227 18.124 0.660358 18.0441 0.660358C18.0233 0.660358 18.0024 0.66203 17.9814 0.665419Z" fill="black"/>
<path fill-rule="evenodd" clip-rule="evenodd" d="M22.2429 12.3245C22.5106 12.4125 22.7283 12.6003 22.8558 12.8533C22.9833 13.1062 23.0055 13.394 22.9183 13.6637C22.831 13.9335 22.6447 14.1528 22.3936 14.2813C22.2435 14.3582 22.0809 14.3971 21.9173 14.3971C21.8073 14.3971 21.6969 14.3795 21.5893 14.3442C20.8926 14.1153 17.9713 12.463 17.6405 12.2754C17.5021 12.1969 17.4379 12.0309 17.4872 11.8787C17.5364 11.7266 17.6859 11.6307 17.8431 11.6494C18.22 11.6944 21.5463 12.0956 22.2429 12.3245V12.3245ZM22.0918 13.6827C22.1841 13.6354 22.2526 13.5548 22.2848 13.4555C22.3169 13.3563 22.3087 13.2505 22.2618 13.1574C22.2149 13.0644 22.1348 12.9953 22.0363 12.963C21.7086 12.8552 20.562 12.6825 19.4901 12.5371C20.441 13.0564 21.4681 13.5981 21.7959 13.7058C21.8943 13.7382 21.9994 13.73 22.0918 13.6827Z" fill="black"/>
<path fill-rule="evenodd" clip-rule="evenodd" d="M5.12762 11.6495C5.28536 11.6305 5.43431 11.7267 5.48353 11.8788C5.53279 12.0309 5.4686 12.1969 5.33032 12.2755C4.99946 12.4632 2.07814 14.1153 1.38146 14.3442C1.27391 14.3795 1.16348 14.3971 1.05353 14.3971C0.889837 14.3971 0.727295 14.3582 0.577146 14.2813C0.32607 14.1528 0.139762 13.9334 0.0524715 13.6637C-0.0348188 13.394 -0.012652 13.1062 0.114885 12.8533C0.242422 12.6003 0.460093 12.4125 0.727783 12.3246V12.3245C1.42437 12.0956 4.75065 11.6945 5.12762 11.6495ZM0.878909 13.6827C0.971174 13.7298 1.07628 13.7381 1.17476 13.7058C1.5026 13.5981 2.52983 13.0564 3.4806 12.537C2.40873 12.6824 1.26219 12.8551 0.934348 12.9629C0.835863 12.9952 0.755858 13.0643 0.708904 13.1573C0.661993 13.2504 0.65382 13.3562 0.685937 13.4554C0.718099 13.5547 0.786599 13.6353 0.878909 13.6827Z" fill="black"/>
<path fill-rule="evenodd" clip-rule="evenodd" d="M11.0786 16.4495C11.1097 16.2908 11.2461 16.1765 11.4045 16.1765C11.5629 16.1765 11.6994 16.2908 11.7304 16.4495C11.8046 16.829 12.456 20.1785 12.456 20.9255C12.456 21.518 11.9843 22 11.4045 22C10.8247 22 10.353 21.518 10.353 20.9255C10.353 20.1786 11.0043 16.829 11.0786 16.4495ZM11.0177 20.9255C11.0177 21.1434 11.1912 21.3208 11.4045 21.3208C11.6178 21.3208 11.7913 21.1434 11.7913 20.9255C11.7913 20.574 11.5992 19.4085 11.4045 18.3241C11.2098 19.4085 11.0177 20.574 11.0177 20.9255Z" fill="black"/>
</svg>
