<?xml version="1.0" encoding="UTF-8"?>
<svg width="60px" height="54px" viewBox="0 0 60 54" version="1.1" xmlns="http://www.w3.org/2000/svg" xmlns:xlink="http://www.w3.org/1999/xlink">
    <!-- Generator: Sketch 53.2 (72643) - https://sketchapp.com -->
    <title>icon-webonly-60px</title>
    <desc>Created with Sketch.</desc>
    <defs>
        <polygon id="path-1" points="0.0981714286 0.0846916427 58.6124571 0.0846916427 58.6124571 53.3714286 0.0981714286 53.3714286"></polygon>
        <path d="M52.4459429,0.113942857 C35.8410286,0.115314286 19.2361143,0.119314286 2.6312,0.125371429 L2.6312,0.125371429 C0.966171429,0.126057143 0.00834285714,1.08971429 0.00582857143,2.74811429 L0.00582857143,2.74811429 C0.00262857143,5.01405714 0.0024,7.28022857 0.00171428571,9.54628571 L0.00171428571,9.54628571 C0.00137142857,11.5179429 0.891885714,12.4162286 2.84765714,12.4163429 L2.84765714,12.4163429 C11.0548571,12.4165714 19.2621714,12.4164571 27.4693714,12.4164571 L27.4693714,12.4164571 L27.4693714,12.4194286 C35.7718857,12.4194286 44.0742857,12.4204571 52.3766857,12.4184 L52.3766857,12.4184 C54.1064,12.4181714 55.0531429,11.4632 55.0548571,9.72925714 L55.0548571,9.72925714 C55.0570286,7.40628571 55.0595429,5.08297143 55.0578286,2.75977143 L55.0578286,2.75977143 C55.0565714,1.10822857 54.0825143,0.113828571 52.4464,0.113942857 L52.4464,0.113942857 C52.4464,0.113942857 52.4460571,0.113942857 52.4459429,0.113942857 M12.4346286,10.3938286 C11.9140571,10.3856 11.6870857,10.0205714 11.5281143,9.58251429 L11.5281143,9.58251429 C10.8042286,7.58731429 10.0748571,5.59382857 9.34765714,3.59954286 L9.34765714,3.59954286 C9.3216,3.52857143 9.29291429,3.45805714 9.27154286,3.3856 L9.27154286,3.3856 C9.10788571,2.83417143 9.33337143,2.34217143 9.82297143,2.17897143 L9.82297143,2.17897143 C10.284,2.02548571 10.7476571,2.25988571 10.9464,2.79268571 L10.9464,2.79268571 C11.3835429,3.96468571 11.7993143,5.1448 12.2251429,6.32114286 L12.2251429,6.32114286 C12.2819429,6.47817143 12.3452571,6.63291429 12.4523429,6.90914286 L12.4523429,6.90914286 C12.9235429,5.62617143 13.3579429,4.45165714 13.7859429,3.27474286 L13.7859429,3.27474286 C13.9737143,2.75828571 14.0846857,2.1568 14.8019429,2.14857143 L14.8019429,2.14857143 C15.5214857,2.14034286 15.6490286,2.73954286 15.8374857,3.25451429 L15.8374857,3.25451429 C16.2742857,4.44662857 16.7081143,5.63977143 17.1734857,6.91565714 L17.1734857,6.91565714 C17.6654857,5.57565714 18.1292571,4.31234286 18.5938286,3.04937143 L18.5938286,3.04937143 C18.6461714,2.9072 18.6885714,2.75885714 18.76,2.62651429 L18.76,2.62651429 C18.9915429,2.1976 19.4545143,2.0216 19.8716571,2.21805714 L19.8716571,2.21805714 C20.3230857,2.43051429 20.5418286,2.78605714 20.3700571,3.28342857 L20.3700571,3.28342857 C20.0236571,4.28662857 19.6585143,5.2832 19.2957714,6.28057143 L19.2957714,6.28057143 C18.8877714,7.40297143 18.4669714,8.5208 18.0665143,9.64594286 L18.0665143,9.64594286 C17.9117714,10.0806857 17.6627429,10.3897143 17.1762286,10.3886857 L17.1762286,10.3886857 C16.6907429,10.3876571 16.444,10.0805714 16.288,9.64434286 L16.288,9.64434286 C15.8169143,8.32685714 15.3258286,7.0168 14.8060571,5.60491429 L14.8060571,5.60491429 C14.3026286,6.99691429 13.8332571,8.27645714 13.3787429,9.56114286 L13.3787429,9.56114286 C13.2168,10.0188571 12.9914286,10.3939429 12.4530286,10.3939429 L12.4530286,10.3939429 C12.4469714,10.3939429 12.4408,10.3939429 12.4346286,10.3938286 M24.2753143,9.65862857 C23.6827429,8.0176 23.084,6.37885714 22.4872,4.73942857 L22.4872,4.73942857 C22.3509714,4.36514286 22.2118857,3.99188571 22.0764571,3.61737143 L22.0764571,3.61737143 C21.8091429,2.87862857 21.9589714,2.38491429 22.5083429,2.18811429 L22.5083429,2.18811429 C23.0363429,1.99897143 23.4819429,2.30182857 23.7504,3.04 L23.7504,3.04 C24.1782857,4.21634286 24.6021714,5.39428571 25.0290286,6.57108571 L25.0290286,6.57108571 C25.0610286,6.65874286 25.1041143,6.74251429 25.1754286,6.90377143 L25.1754286,6.90377143 C25.6692571,5.55611429 26.1460571,4.27634286 26.6056,2.99062857 L26.6056,2.99062857 C26.7709714,2.52834286 26.9941714,2.14365714 27.5478857,2.15485714 L27.5478857,2.15485714 C28.0702857,2.16537143 28.2862857,2.5368 28.4436571,2.97725714 L28.4436571,2.97725714 C28.9082286,4.2768 29.3860571,5.57177143 29.8907429,6.95577143 L29.8907429,6.95577143 C30.3721143,5.63554286 30.8259429,4.39062857 31.2795429,3.1456 L31.2795429,3.1456 C31.3249143,3.02068571 31.3602286,2.89177143 31.4126857,2.77005714 L31.4126857,2.77005714 C31.6369143,2.24868571 32.0953143,2.02274286 32.5529143,2.20262857 L32.5529143,2.20262857 C33.0228571,2.38765714 33.2300571,2.844 33.0424,3.37348571 L33.0424,3.37348571 C32.5288,4.8224 31.9990857,6.2656 31.4744,7.71062857 L31.4744,7.71062857 C31.2347429,8.37074286 30.9854857,9.02731429 30.7528,9.68982857 L30.7528,9.68982857 C30.6054857,10.1096 30.3406857,10.3812571 29.8833143,10.3817143 L29.8833143,10.3817143 C29.4209143,10.3819429 29.1666286,10.0894857 29.0180571,9.68 L29.0180571,9.68 C28.5410286,8.36525714 28.0617143,7.05142857 27.5314286,5.59497143 L27.5314286,5.59497143 C27.1603429,6.6032 26.8363429,7.48011429 26.5150857,8.35794286 L26.5150857,8.35794286 C26.3586286,8.7856 26.2009143,9.21314286 26.0550857,9.64445714 L26.0550857,9.64445714 C25.9083429,10.0790857 25.6525714,10.3784 25.1634286,10.3922286 L25.1634286,10.3922286 C25.1528,10.3924571 25.1422857,10.3925714 25.1318857,10.3925714 L25.1318857,10.3925714 C24.6497143,10.3925714 24.4257143,10.0749714 24.2753143,9.65862857 M42.8208,6.36022857 C43.2526857,5.20617143 43.6642286,4.04445714 44.0918857,2.8888 L44.0918857,2.8888 C44.3212571,2.26914286 44.7669714,2.01828571 45.2618286,2.20651429 L45.2618286,2.20651429 C45.7700571,2.40011429 45.9449143,2.85851429 45.7206857,3.48228571 L45.7206857,3.48228571 C44.9829714,5.53428571 44.2345143,7.58262857 43.4955429,9.63417143 L43.4955429,9.63417143 C43.3412571,10.0620571 43.0969143,10.3813714 42.6059429,10.3819429 L42.6059429,10.3819429 C42.1144,10.3821714 41.8666286,10.0603429 41.7136,9.63474286 L41.7136,9.63474286 C41.2384,8.31497143 40.7598857,6.99645714 40.2469714,5.57851429 L40.2469714,5.57851429 C39.8786286,6.5784 39.5386286,7.49828571 39.2013714,8.4192 L39.2013714,8.4192 C39.0381714,8.86422857 38.8874286,9.31405714 38.7178286,9.75657143 L38.7178286,9.75657143 C38.5689143,10.1452571 38.2913143,10.3909714 37.8581714,10.3824 L37.8581714,10.3824 C37.4533714,10.3745143 37.1795429,10.1458286 37.0438857,9.77497143 L37.0438857,9.77497143 C36.2630857,7.6384 35.4824,5.50148571 34.7174857,3.3592 L34.7174857,3.3592 C34.5282286,2.82902857 34.7536,2.37645714 35.2321143,2.20182857 L35.2321143,2.20182857 C35.6944,2.03325714 36.1444571,2.25428571 36.3497143,2.79817143 L36.3497143,2.79817143 C36.8586286,4.14594286 37.3477714,5.50091429 37.8784,6.94468571 L37.8784,6.94468571 C38.3781714,5.57222857 38.8476571,4.29142857 39.3100571,3.008 L39.3100571,3.008 C39.4730286,2.55542857 39.6849143,2.15085714 40.2414857,2.15462857 L40.2414857,2.15462857 C40.7896,2.15851429 41.0066286,2.53908571 41.1697143,3.00525714 L41.1697143,3.00525714 C41.6144,4.27554286 42.0856,5.53668571 42.5502857,6.81211429 L42.5502857,6.81211429 C42.7858286,6.74182857 42.7625143,6.51554286 42.8208,6.36022857" id="path-3"></path>
        <linearGradient x1="0.000145754397%" y1="49.9999152%" x2="99.9999949%" y2="49.9999152%" id="linearGradient-5">
            <stop stop-color="#F6EF80" offset="0%"></stop>
            <stop stop-color="#EFD16E" offset="100%"></stop>
        </linearGradient>
        <polygon id="path-6" points="0 0.106445714 43.8199429 0.106445714 43.8199429 19.92416 0 19.92416"></polygon>
        <polygon id="path-8" points="0.046 0.106445714 44.3126857 0.106445714 44.3126857 19.92416 0.046 19.92416"></polygon>
    </defs>
    <g id="Page-1" stroke="none" stroke-width="1" fill="none" fill-rule="evenodd">
        <g id="icon-webonly-60px">
            <g id="Group-3" transform="translate(1.142857, 0.029600)">
                <mask id="mask-2" fill="white">
                    <use xlink:href="#path-1"></use>
                </mask>
                <g id="Clip-2"></g>
                <path d="M35.9462857,10.3166857 C35.8869714,10.1939429 35.8549714,10.1094857 35.8084571,10.0338286 C34.0848,7.23291429 32.0554286,4.67942857 29.6692571,2.41017143 C29.4132571,2.16662857 29.2849143,2.17931429 29.0365714,2.41508571 C27.5556571,3.82137143 26.2062857,5.34251429 24.9827429,6.97542857 C24.1886857,8.03497143 23.4289143,9.1184 22.7403429,10.3166857 L35.9462857,10.3166857 Z M22.7566857,43.1225143 C22.8523429,43.2974857 22.9006857,43.3964571 22.9581714,43.4899429 C24.6430857,46.2256 26.6301714,48.7165714 28.9493714,50.9444571 C29.2541714,51.2372571 29.4202286,51.2755429 29.7500571,50.9593143 C31.9188571,48.88 33.7864,46.5592 35.4139429,44.0393143 C35.6017143,43.7484571 35.7884571,43.4585143 35.8994286,43.1225143 L22.7566857,43.1225143 Z M10.7035429,43.1148571 C10.8057143,43.2576 10.8426286,43.3218286 10.8912,43.3754286 C13.7696,46.5513143 17.2258286,48.8554286 21.2776,50.2628571 C22.9529143,50.8449143 24.6784,51.2 26.4314286,51.4412571 C26.5678857,51.4601143 26.7150857,51.6195429 26.8168,51.4329143 C26.8912,51.2964571 26.7538286,51.1918857 26.6616,51.0964571 C24.4174857,48.7733714 22.5172571,46.1915429 20.8876571,43.4074286 C20.7704,43.2069714 20.6392,43.1094857 20.3940571,43.1099429 C17.2004571,43.1174857 14.0067429,43.1148571 10.7035429,43.1148571 L10.7035429,43.1148571 Z M31.6925714,1.9448 C31.8243429,2.10948571 31.8753143,2.18537143 31.9380571,2.24971429 C34.1942857,4.5624 36.1056,7.13714286 37.7371429,9.92045714 C37.9267429,10.2437714 38.1312,10.3542857 38.5022857,10.3523429 C41.528,10.3365714 44.5538286,10.3443429 47.5796571,10.3402286 C47.7011429,10.3401143 47.8458286,10.4043429 47.9766857,10.2293714 C43.6293714,5.43702857 38.2618286,2.6536 31.6925714,1.9448 L31.6925714,1.9448 Z M19.6885714,41.3821714 C19.6489143,41.2384 19.6394286,41.1435429 19.5987429,41.0648 C18.5757714,39.0875429 17.7210286,37.0393143 17.0547429,34.9162286 C16.932,34.5248 16.6803429,34.6156571 16.4363429,34.6153143 C13.0670857,34.6115429 9.69782857,34.6128 6.32857143,34.6128 L5.79177143,34.6128 C5.83714286,34.7750857 5.86137143,34.8833143 5.89737143,34.9875429 C6.62731429,37.0998857 7.6672,39.0521143 8.91554286,40.9016 C9.15325714,41.2534857 9.3992,41.3970286 9.83702857,41.3939429 C12.9205714,41.3718857 16.0044571,41.3821714 19.0881143,41.3821714 L19.6885714,41.3821714 Z M52.8882286,18.8428571 C52.8882286,18.7448 52.9033143,18.6836571 52.8860571,18.6338286 C52.1021714,16.3771429 51.0136,14.2781714 49.6417143,12.3224 C49.4678857,12.0747429 49.2626286,12.0566857 49.0074286,12.0570286 C45.8292571,12.0606857 42.6508571,12.0673143 39.4725714,12.0508571 C38.9864,12.0483429 38.9909714,12.1809143 39.1829714,12.5522286 C40.1356571,14.3930286 40.9355429,16.3008 41.5642286,18.2755429 C41.6990857,18.6992 41.8534857,18.8619429 42.3326857,18.8574857 C45.4725714,18.8291429 48.6129143,18.8428571 51.7532571,18.8428571 L52.8882286,18.8428571 Z M11.3937143,18.8336 C13.1070857,18.8336 14.8203429,18.8285714 16.5337143,18.8388571 C16.8114286,18.8405714 16.9661714,18.7949714 17.0637714,18.4875429 C17.7203429,16.4208 18.5684571,14.4304 19.5504,12.4984 C19.7236571,12.1573714 19.7083429,12.0516571 19.2928,12.0533714 C16.0756571,12.0672 12.8584,12.0673143 9.64114286,12.0638857 C9.3928,12.0635429 9.22034286,12.1205714 9.06857143,12.3374857 C7.74308571,14.2312 6.6696,16.2518857 5.90102857,18.4362286 C5.7704,18.8073143 5.86971429,18.8405714 6.19657143,18.8385143 C7.92902857,18.8281143 9.66137143,18.8336 11.3937143,18.8336 L11.3937143,18.8336 Z M38.9729143,41.3522286 C39.1282286,41.3716571 39.2013714,41.3890286 39.2746286,41.3890286 C42.5477714,41.3905143 45.8208,41.3854857 49.0938286,41.3988571 C49.4136,41.4001143 49.5649143,41.2528 49.7269714,41.0216 C50.7666286,39.5380571 51.6388571,37.9629714 52.3268571,36.2878857 C52.5468571,35.7523429 52.7961143,35.2233143 52.9048,34.6107429 L52.2970286,34.6107429 C49.0050286,34.6107429 45.7126857,34.6282286 42.4209143,34.5936 C41.8709714,34.5877714 41.6619429,34.7649143 41.5408,35.2608 C41.4245714,35.7373714 41.2180571,36.192 41.0489143,36.6554286 C40.4704,38.2409143 39.7586286,39.7686857 38.9729143,41.3522286 L38.9729143,41.3522286 Z M39.9355429,34.6252571 L18.8264,34.6252571 C18.8409143,34.7379429 18.8373714,34.8353143 18.8670857,34.9212571 C19.6020571,37.0425143 20.4874286,39.0974857 21.5441143,41.0798857 C21.6908571,41.3548571 21.8778286,41.3857143 22.1409143,41.3856 C26.9582857,41.3833143 31.7757714,41.3832 36.5931429,41.3977143 C36.912,41.3986286 37.0761143,41.2921143 37.2056,41.0190857 C37.4984,40.4016 37.8283429,39.8016 38.1177143,39.1825143 C38.8004571,37.7224 39.4278857,36.2395429 39.9355429,34.6252571 L39.9355429,34.6252571 Z M18.7782857,18.8096 C18.9014857,18.8264 18.9577143,18.8408 19.0139429,18.8408 C25.8454857,18.8421714 32.6772571,18.8390857 39.5089143,18.8510857 C39.9341714,18.8518857 39.9163429,18.7137143 39.8044571,18.3932571 C39.1016,16.3829714 38.2536,14.4381714 37.2714286,12.5482286 C37.0766857,12.1734857 36.8618286,12.0476571 36.4434286,12.0493714 C32.0666286,12.0673143 27.6882286,12.1276571 23.3138286,12.0251429 C22.0261714,11.9949714 21.3868571,12.3813714 20.908,13.5376 C20.1907429,15.2693714 19.3677714,16.9568 18.7782857,18.8096 L18.7782857,18.8096 Z M29.2979429,32.8736 L29.2979429,32.8764571 C37.6004571,32.8764571 45.9028571,32.8774857 54.2053714,32.8756571 C55.9348571,32.8753143 56.8818286,31.9203429 56.8834286,30.1864 C56.8857143,27.8633143 56.8881143,25.5401143 56.8864,23.2169143 C56.8851429,21.5652571 55.9107429,20.5709714 54.2745143,20.5712 C37.6696,20.5724571 21.0646857,20.5764571 4.45977143,20.5825143 C2.79474286,20.5832 1.83691429,21.5468571 1.8344,23.2052571 C1.83108571,25.4713143 1.83097143,27.7373714 1.83028571,30.0034286 C1.82982857,31.9750857 2.72045714,32.8733714 4.67634286,32.8734857 C12.8834286,32.8737143 21.0907429,32.8736 29.2979429,32.8736 L29.2979429,32.8736 Z M0.0981714286,31.4108571 L0.0981714286,22.1537143 C0.214628571,22.12 0.202742857,22.0145143 0.2296,21.9274286 C0.744457143,20.2512 1.84822857,19.216 3.58537143,18.9148571 C3.94605714,18.8524571 4.01668571,18.6421714 4.11017143,18.3659429 C5.84285714,13.2458286 8.84491429,9.02457143 13.0898286,5.67954286 C13.5670857,5.30354286 14.0136,5.17497143 14.5172571,5.59154286 C14.8515429,6.22537143 14.7931429,6.5096 14.2452571,6.96651429 C13.676,7.44137143 13.0942857,7.90297143 12.5473143,8.40262857 C11.9130286,8.98205714 11.2874286,9.57542857 10.7243429,10.2963429 C10.8539429,10.3177143 10.9062857,10.3336 10.9587429,10.3337143 C14.0779429,10.3378286 17.1971429,10.3337143 20.3162286,10.3529143 C20.6709714,10.3550857 20.8126857,10.1825143 20.9659429,9.92342857 C22.5872,7.18125714 24.4611429,4.62891429 26.6849143,2.34022857 C26.7666286,2.25622857 26.9234286,2.18822857 26.8466286,2.00948571 C26.7741714,2.00948571 26.6985143,2.00285714 26.6244571,2.01051429 C23.5875429,2.32365714 20.7230857,3.21302857 18.0011429,4.58377143 C17.3060571,4.93371429 17.0531429,4.87702857 16.5730286,4.31188571 C16.4256,3.69394286 16.6779429,3.32365714 17.24,3.04171429 C22.6982857,0.303771429 28.4555429,-0.621371429 34.4187429,0.639314286 C44.4373714,2.75725714 51.1265143,8.79931429 54.6029714,18.4118857 C54.7251429,18.7496 54.8963429,18.8688 55.2261714,18.9344 C56.9873143,19.2851429 58.072,20.3561143 58.5035429,22.0939429 C58.5220571,22.1681143 58.5230857,22.2427429 58.6124571,22.268 L58.6124571,31.2965714 C58.5261714,31.3202286 58.512,31.3904 58.4902857,31.4657143 C57.9950857,33.1790857 56.8833143,34.2302857 55.1178286,34.5346286 C54.7514286,34.5978286 54.6915429,34.8201143 54.6001143,35.0936 C53.0117714,39.84 50.2994286,43.824 46.4885714,47.068 C46.0312,47.4573714 45.6021714,47.5469714 45.1115429,47.1733714 C44.7579429,46.5545143 44.8123429,46.2611429 45.3357714,45.7888 C45.9285714,45.2538286 46.5174857,44.7141714 47.0931429,44.1609143 C47.4090286,43.8573714 47.6941714,43.5218286 48.0806857,43.1067429 L47.4811429,43.1067429 C44.4942857,43.1067429 41.5073143,43.1157714 38.5205714,43.096 C38.1195429,43.0933714 37.9104,43.2332571 37.7177143,43.5633143 C36.1216,46.3004571 34.2430857,48.8268571 32.0378286,51.1067429 C31.9574857,51.1899429 31.7973714,51.2573714 31.8877714,51.4432 C31.9766857,51.4386286 32.0710857,51.4387429 32.1644571,51.4285714 C35.5505143,51.0545143 38.7190857,50.0126857 41.6809143,48.3331429 C42.3820571,47.9354286 42.6678857,47.9846857 43.1556571,48.5614857 C43.3106286,49.1488 43.0841143,49.5241143 42.5588571,49.8182857 C36.6653714,53.1179429 30.3704,54.2093714 23.8049143,52.7130286 C14.0449143,50.4886857 7.51497143,44.4772571 4.11485714,35.0702857 C3.988,34.7193143 3.82468571,34.5745143 3.46274286,34.5076571 C1.91177143,34.2211429 0.890285714,33.2905143 0.324914286,31.8325714 C0.267885714,31.6854857 0.3016,31.4816 0.0981714286,31.4108571 L0.0981714286,31.4108571 Z" id="Fill-1" fill="#020303" mask="url(#mask-2)"></path>
            </g>
            <g id="Group-6" transform="translate(2.971429, 20.486743)">
                <mask id="mask-4" fill="white">
                    <use xlink:href="#path-3"></use>
                </mask>
                <g id="Clip-5"></g>
                <path d="M52.4459429,0.113942857 C35.8410286,0.115314286 19.2361143,0.119314286 2.6312,0.125371429 L2.6312,0.125371429 C0.966171429,0.126057143 0.00834285714,1.08971429 0.00582857143,2.74811429 L0.00582857143,2.74811429 C0.00262857143,5.01405714 0.0024,7.28022857 0.00171428571,9.54628571 L0.00171428571,9.54628571 C0.00137142857,11.5179429 0.891885714,12.4162286 2.84765714,12.4163429 L2.84765714,12.4163429 C11.0548571,12.4165714 19.2621714,12.4164571 27.4693714,12.4164571 L27.4693714,12.4164571 L27.4693714,12.4194286 C35.7718857,12.4194286 44.0742857,12.4204571 52.3766857,12.4184 L52.3766857,12.4184 C54.1064,12.4181714 55.0531429,11.4632 55.0548571,9.72925714 L55.0548571,9.72925714 C55.0570286,7.40628571 55.0595429,5.08297143 55.0578286,2.75977143 L55.0578286,2.75977143 C55.0565714,1.10822857 54.0825143,0.113828571 52.4464,0.113942857 L52.4464,0.113942857 C52.4464,0.113942857 52.4460571,0.113942857 52.4459429,0.113942857 M12.4346286,10.3938286 C11.9140571,10.3856 11.6870857,10.0205714 11.5281143,9.58251429 L11.5281143,9.58251429 C10.8042286,7.58731429 10.0748571,5.59382857 9.34765714,3.59954286 L9.34765714,3.59954286 C9.3216,3.52857143 9.29291429,3.45805714 9.27154286,3.3856 L9.27154286,3.3856 C9.10788571,2.83417143 9.33337143,2.34217143 9.82297143,2.17897143 L9.82297143,2.17897143 C10.284,2.02548571 10.7476571,2.25988571 10.9464,2.79268571 L10.9464,2.79268571 C11.3835429,3.96468571 11.7993143,5.1448 12.2251429,6.32114286 L12.2251429,6.32114286 C12.2819429,6.47817143 12.3452571,6.63291429 12.4523429,6.90914286 L12.4523429,6.90914286 C12.9235429,5.62617143 13.3579429,4.45165714 13.7859429,3.27474286 L13.7859429,3.27474286 C13.9737143,2.75828571 14.0846857,2.1568 14.8019429,2.14857143 L14.8019429,2.14857143 C15.5214857,2.14034286 15.6490286,2.73954286 15.8374857,3.25451429 L15.8374857,3.25451429 C16.2742857,4.44662857 16.7081143,5.63977143 17.1734857,6.91565714 L17.1734857,6.91565714 C17.6654857,5.57565714 18.1292571,4.31234286 18.5938286,3.04937143 L18.5938286,3.04937143 C18.6461714,2.9072 18.6885714,2.75885714 18.76,2.62651429 L18.76,2.62651429 C18.9915429,2.1976 19.4545143,2.0216 19.8716571,2.21805714 L19.8716571,2.21805714 C20.3230857,2.43051429 20.5418286,2.78605714 20.3700571,3.28342857 L20.3700571,3.28342857 C20.0236571,4.28662857 19.6585143,5.2832 19.2957714,6.28057143 L19.2957714,6.28057143 C18.8877714,7.40297143 18.4669714,8.5208 18.0665143,9.64594286 L18.0665143,9.64594286 C17.9117714,10.0806857 17.6627429,10.3897143 17.1762286,10.3886857 L17.1762286,10.3886857 C16.6907429,10.3876571 16.444,10.0805714 16.288,9.64434286 L16.288,9.64434286 C15.8169143,8.32685714 15.3258286,7.0168 14.8060571,5.60491429 L14.8060571,5.60491429 C14.3026286,6.99691429 13.8332571,8.27645714 13.3787429,9.56114286 L13.3787429,9.56114286 C13.2168,10.0188571 12.9914286,10.3939429 12.4530286,10.3939429 L12.4530286,10.3939429 C12.4469714,10.3939429 12.4408,10.3939429 12.4346286,10.3938286 M24.2753143,9.65862857 C23.6827429,8.0176 23.084,6.37885714 22.4872,4.73942857 L22.4872,4.73942857 C22.3509714,4.36514286 22.2118857,3.99188571 22.0764571,3.61737143 L22.0764571,3.61737143 C21.8091429,2.87862857 21.9589714,2.38491429 22.5083429,2.18811429 L22.5083429,2.18811429 C23.0363429,1.99897143 23.4819429,2.30182857 23.7504,3.04 L23.7504,3.04 C24.1782857,4.21634286 24.6021714,5.39428571 25.0290286,6.57108571 L25.0290286,6.57108571 C25.0610286,6.65874286 25.1041143,6.74251429 25.1754286,6.90377143 L25.1754286,6.90377143 C25.6692571,5.55611429 26.1460571,4.27634286 26.6056,2.99062857 L26.6056,2.99062857 C26.7709714,2.52834286 26.9941714,2.14365714 27.5478857,2.15485714 L27.5478857,2.15485714 C28.0702857,2.16537143 28.2862857,2.5368 28.4436571,2.97725714 L28.4436571,2.97725714 C28.9082286,4.2768 29.3860571,5.57177143 29.8907429,6.95577143 L29.8907429,6.95577143 C30.3721143,5.63554286 30.8259429,4.39062857 31.2795429,3.1456 L31.2795429,3.1456 C31.3249143,3.02068571 31.3602286,2.89177143 31.4126857,2.77005714 L31.4126857,2.77005714 C31.6369143,2.24868571 32.0953143,2.02274286 32.5529143,2.20262857 L32.5529143,2.20262857 C33.0228571,2.38765714 33.2300571,2.844 33.0424,3.37348571 L33.0424,3.37348571 C32.5288,4.8224 31.9990857,6.2656 31.4744,7.71062857 L31.4744,7.71062857 C31.2347429,8.37074286 30.9854857,9.02731429 30.7528,9.68982857 L30.7528,9.68982857 C30.6054857,10.1096 30.3406857,10.3812571 29.8833143,10.3817143 L29.8833143,10.3817143 C29.4209143,10.3819429 29.1666286,10.0894857 29.0180571,9.68 L29.0180571,9.68 C28.5410286,8.36525714 28.0617143,7.05142857 27.5314286,5.59497143 L27.5314286,5.59497143 C27.1603429,6.6032 26.8363429,7.48011429 26.5150857,8.35794286 L26.5150857,8.35794286 C26.3586286,8.7856 26.2009143,9.21314286 26.0550857,9.64445714 L26.0550857,9.64445714 C25.9083429,10.0790857 25.6525714,10.3784 25.1634286,10.3922286 L25.1634286,10.3922286 C25.1528,10.3924571 25.1422857,10.3925714 25.1318857,10.3925714 L25.1318857,10.3925714 C24.6497143,10.3925714 24.4257143,10.0749714 24.2753143,9.65862857 M42.8208,6.36022857 C43.2526857,5.20617143 43.6642286,4.04445714 44.0918857,2.8888 L44.0918857,2.8888 C44.3212571,2.26914286 44.7669714,2.01828571 45.2618286,2.20651429 L45.2618286,2.20651429 C45.7700571,2.40011429 45.9449143,2.85851429 45.7206857,3.48228571 L45.7206857,3.48228571 C44.9829714,5.53428571 44.2345143,7.58262857 43.4955429,9.63417143 L43.4955429,9.63417143 C43.3412571,10.0620571 43.0969143,10.3813714 42.6059429,10.3819429 L42.6059429,10.3819429 C42.1144,10.3821714 41.8666286,10.0603429 41.7136,9.63474286 L41.7136,9.63474286 C41.2384,8.31497143 40.7598857,6.99645714 40.2469714,5.57851429 L40.2469714,5.57851429 C39.8786286,6.5784 39.5386286,7.49828571 39.2013714,8.4192 L39.2013714,8.4192 C39.0381714,8.86422857 38.8874286,9.31405714 38.7178286,9.75657143 L38.7178286,9.75657143 C38.5689143,10.1452571 38.2913143,10.3909714 37.8581714,10.3824 L37.8581714,10.3824 C37.4533714,10.3745143 37.1795429,10.1458286 37.0438857,9.77497143 L37.0438857,9.77497143 C36.2630857,7.6384 35.4824,5.50148571 34.7174857,3.3592 L34.7174857,3.3592 C34.5282286,2.82902857 34.7536,2.37645714 35.2321143,2.20182857 L35.2321143,2.20182857 C35.6944,2.03325714 36.1444571,2.25428571 36.3497143,2.79817143 L36.3497143,2.79817143 C36.8586286,4.14594286 37.3477714,5.50091429 37.8784,6.94468571 L37.8784,6.94468571 C38.3781714,5.57222857 38.8476571,4.29142857 39.3100571,3.008 L39.3100571,3.008 C39.4730286,2.55542857 39.6849143,2.15085714 40.2414857,2.15462857 L40.2414857,2.15462857 C40.7896,2.15851429 41.0066286,2.53908571 41.1697143,3.00525714 L41.1697143,3.00525714 C41.6144,4.27554286 42.0856,5.53668571 42.5502857,6.81211429 L42.5502857,6.81211429 C42.7858286,6.74182857 42.7625143,6.51554286 42.8208,6.36022857" id="Fill-4" fill="url(#linearGradient-5)" mask="url(#mask-4)"></path>
            </g>
            <g id="Group-53" transform="translate(0.000000, 1.972457)">
                <path d="M40.9472914,16.4503886 C40.2445486,14.4401029 39.3965486,12.4953029 38.4142629,10.60536 C38.21952,10.2306171 38.0046629,10.1049029 37.5862629,10.1065029 C33.2094629,10.1244457 28.8310629,10.1847886 24.4566629,10.0822743 C23.1690057,10.0521029 22.5298057,10.4385029 22.0508343,11.5947314 C21.3335771,13.3265029 20.51072,15.0139314 19.92112,16.8667314 C20.0444343,16.8835314 20.1005486,16.8979314 20.1567771,16.8979314 C26.9884343,16.8993029 33.8200914,16.8962171 40.6517486,16.9082171 C41.0770057,16.9090171 41.0591771,16.7708457 40.9472914,16.4503886" id="Fill-7" fill="#CDCED2"></path>
                <path d="M22.6870286,39.1369943 C22.8336571,39.4119657 23.0207429,39.4428229 23.2838286,39.4427086 C28.1012,39.4404229 32.9185714,39.4403086 37.7360571,39.4548229 C38.0549143,39.4557371 38.2189143,39.3492229 38.3484,39.0761943 C38.6413143,38.4587086 38.9711429,37.8587086 39.2606286,37.2396229 C39.9432571,35.7795086 40.5706857,34.2966514 41.0784571,32.6823657 L19.9693143,32.6823657 C19.9838286,32.7950514 19.9801714,32.8924229 20.01,32.9783657 C20.7449714,35.0996229 21.6304571,37.1545943 22.6870286,39.1369943" id="Fill-9" fill="#CDCED2"></path>
                <path d="M53.43992,32.6679086 C50.1478057,32.6679086 46.8555771,32.68528 43.5638057,32.6507657 C43.0137486,32.6449371 42.80472,32.82208 42.6836914,33.3178514 C42.5673486,33.7944229 42.3609486,34.2491657 42.1918057,34.7125943 C41.6132914,36.29808 40.90152,37.8258514 40.1158057,39.40928 C40.2710057,39.4288229 40.3442629,39.4461943 40.4176343,39.4461943 C43.6905486,39.44768 46.9636914,39.4425371 50.23672,39.4560229 C50.5564914,39.45728 50.7078057,39.3099657 50.8698629,39.0787657 C51.9094057,37.5951086 52.7816343,36.0201371 53.4697486,34.3450514 C53.6897486,33.8093943 53.9388914,33.2803657 54.0475771,32.6679086 L53.43992,32.6679086 Z" id="Fill-11" fill="#CDCED2"></path>
                <path d="M7.33947429,16.8957029 C9.07181714,16.8851886 10.80416,16.8907886 12.5366171,16.8907886 C14.2499886,16.8907886 15.9632457,16.8856457 17.6765029,16.8960457 C17.9543314,16.89776 18.10896,16.8520457 18.2066743,16.5447314 C18.8632457,14.4779886 19.71136,12.4875886 20.6933029,10.5554743 C20.8664457,10.21456 20.8512457,10.1087314 20.4357029,10.11056 C17.2184457,10.1243886 14.0013029,10.1245029 10.78416,10.1210743 C10.5357029,10.1207314 10.3632457,10.17776 10.2114743,10.39456 C8.88587429,12.2883886 7.81250286,14.30896 7.04381714,16.4933029 C6.91330286,16.8645029 7.01261714,16.89776 7.33947429,16.8957029" id="Fill-13" fill="#9EA0A5"></path>
                <path d="M40.6154857,10.1079771 C40.1292,10.1055771 40.1337714,10.2381486 40.326,10.6093486 C41.2785714,12.4501486 42.0784571,14.3580343 42.7071429,16.3326629 C42.8418857,16.75632 42.9964,16.9190629 43.4754857,16.91472 C46.6154857,16.8863771 49.7558286,16.9000914 52.8960571,16.9000914 L54.0311429,16.9000914 C54.0311429,16.80192 54.0462286,16.7407771 54.0288571,16.6910629 C53.2450857,14.4342629 52.1564,12.3352914 50.7845143,10.37952 C50.6108,10.1318629 50.4054286,10.1138057 50.1503429,10.1141486 C46.9720571,10.1178057 43.7937714,10.1245486 40.6154857,10.1079771" id="Fill-15" fill="#CDCED2"></path>
                <path d="M20.2309943,39.4393371 L20.8314514,39.4393371 C20.7917943,39.2955657 20.7823086,39.2007086 20.7416229,39.1219657 C19.7186514,37.1447086 18.8639086,35.09648 18.1976229,32.9733943 C18.07488,32.5819657 17.8232229,32.6728229 17.5792229,32.67248 C14.2099657,32.6687086 10.8407086,32.6699657 7.47145143,32.6699657 L6.93465143,32.6699657 C6.98002286,32.8321371 7.00425143,32.94048 7.04025143,33.0447086 C7.77019429,35.1569371 8.80996571,37.1091657 10.0584229,38.9587657 C10.2960229,39.3106514 10.54208,39.4541943 10.9799086,39.4511086 C14.0634514,39.4290514 17.1473371,39.4393371 20.2309943,39.4393371" id="Fill-17" fill="#9EA0A5"></path>
                <path d="M39.6634743,41.1531771 C39.2623314,41.1505486 39.0531886,41.29032 38.8607314,41.6204914 C37.2645029,44.3576343 35.3858743,46.8840343 33.1806171,49.16392 C33.1002743,49.2470057 32.9402743,49.3145486 33.0307886,49.5003771 C33.1194743,49.4958057 33.2138743,49.49592 33.30736,49.4856343 C36.6934171,49.1116914 39.8619886,48.0698629 42.8237029,46.3902057 C43.5248457,45.9926057 43.8107886,46.0417486 44.2986743,46.6187771 C44.8885029,46.06872 45.58176,45.6640343 46.2544457,45.2305486 C45.9007314,44.6116914 45.9552457,44.3182057 46.4786743,43.8459771 C47.07136,43.3110057 47.6603886,42.7712343 48.2360457,42.2179771 C48.5518171,41.9145486 48.8370743,41.5790057 49.2234743,41.16392 L48.6239314,41.16392 C45.6371886,41.16392 42.6502171,41.1729486 39.6634743,41.1531771" id="Fill-19" fill="#CDCED2"></path>
                <path d="M21.45912,8.41009143 C21.8138629,8.41226286 21.9555771,8.23969143 22.1088343,7.98049143 C23.7300914,5.23843429 25.6040343,2.68609143 27.8278057,0.397405714 C27.9094057,0.313291429 28.06632,0.245405714 27.98952,0.0666628571 C27.9170629,0.0666628571 27.8414057,0.0600342857 27.7672343,0.0676914286 C24.7304343,0.38072 21.8659771,1.27009143 19.1440343,2.64094857 C18.4490629,2.99089143 18.1960343,2.93420571 17.71592,2.36894857 C17.03432,2.80129143 16.3952343,3.30220571 15.6601486,3.64872 C15.9944343,4.28254857 15.9360343,4.56666286 15.3882629,5.02357714 C14.8187771,5.49843429 14.2371771,5.96014857 13.6902057,6.45980571 C13.05592,7.03923429 12.43032,7.63249143 11.86712,8.35352 C11.9968343,8.37477714 12.0491771,8.39077714 12.1016343,8.39089143 C15.2208343,8.39489143 18.3400343,8.39089143 21.45912,8.41009143" id="Fill-21" fill="#9EA0A5"></path>
                <path d="M38.8799886,7.97762286 C39.0695886,8.30093714 39.2740457,8.41145143 39.6451314,8.40950857 C42.67096,8.39373714 45.6966743,8.40150857 48.7225029,8.39739429 C48.8441029,8.39728 48.9887886,8.46139429 49.1195314,8.28653714 C44.7722171,3.49419429 39.4046743,0.710765714 32.8354171,0.00196571429 C32.9671886,0.166537143 33.01816,0.242422857 33.0809029,0.30688 C35.3371314,2.61956571 37.24856,5.19430857 38.8799886,7.97762286" id="Fill-23" fill="#CDCED2"></path>
                <path d="M27.8044343,49.1536229 C25.56032,46.8305371 23.6600914,44.2487086 22.0306057,41.4645943 C21.9132343,41.2641371 21.7822629,41.1665371 21.5368914,41.1671086 C18.3432914,41.1746514 15.1496914,41.1720229 11.8463771,41.1720229 C11.9485486,41.3147657 11.9854629,41.3789943 12.0340343,41.43248 C14.9124343,44.6083657 18.3686629,46.9125943 22.4205486,48.3200229 C24.0957486,48.90208 25.8212343,49.2570514 27.5742629,49.4984229 C27.7108343,49.51728 27.85792,49.6767086 27.9596343,49.4899657 C28.0340343,49.3536229 27.8967771,49.2490514 27.8044343,49.1536229" id="Fill-25" fill="#9EA0A5"></path>
                <path d="M37.0422629,41.1796229 L23.89952,41.1796229 C23.9951771,41.3545943 24.04352,41.4535657 24.1010057,41.5470514 C25.78592,44.2827086 27.77312,46.77368 30.0922057,49.0015657 C30.3970057,49.2943657 30.5631771,49.3326514 30.8928914,49.0164229 C33.0616914,46.9371086 34.9292343,44.6163086 36.5567771,42.0964229 C36.7446629,41.80568 36.9312914,41.5156229 37.0422629,41.1796229" id="Fill-27" fill="#CDCED2"></path>
                <path d="M23.8832343,8.37382857 L37.0892914,8.37382857 C37.0298629,8.25108571 36.9978629,8.16662857 36.9513486,8.09097143 C35.2276914,5.29005714 33.19832,2.73657143 30.8122629,0.467314286 C30.5561486,0.223771429 30.4278057,0.236457143 30.1794629,0.472228571 C28.6985486,1.87851429 27.3491771,3.39965714 26.1256343,5.03257143 C25.3315771,6.09211429 24.5716914,7.17554286 23.8832343,8.37382857" id="Fill-29" fill="#CDCED2"></path>
                <path d="M40.8498514,25.4589829 C41.3496229,24.0864114 41.8191086,22.8057257 42.2813943,21.5222971 C42.4443657,21.0697257 42.6563657,20.6651543 43.2129371,20.6689257 C43.7611657,20.6726971 43.9779657,21.0533829 44.1411657,21.5195543 C44.5857371,22.7899543 45.0570514,24.0509829 45.5217371,25.3264114 C45.7571657,25.25624 45.7339657,25.02984 45.7921371,24.87464 C46.2240229,23.7204686 46.63568,22.5587543 47.0633371,21.4030971 C47.2927086,20.78344 47.7383086,20.5325829 48.2331657,20.7208114 C48.7415086,20.9142971 48.9163657,21.3728114 48.6921371,21.9965829 C47.9543086,24.0485829 47.2059657,26.0969257 46.46688,28.1484686 C46.3127086,28.5763543 46.0683657,28.8956686 45.57728,28.8961257 C45.0857371,28.8964686 44.83808,28.57464 44.6850514,28.14904 C44.2098514,26.8292686 43.7313371,25.5107543 43.2184229,24.0928114 C42.85008,25.0926971 42.5099657,26.0125829 42.1727086,26.9333829 C42.0096229,27.3785257 41.85888,27.82824 41.68928,28.2708686 C41.5402514,28.6596686 41.2627657,28.9051543 40.8296229,28.8966971 C40.4248229,28.8888114 40.1509943,28.6601257 40.0153371,28.2892686 C39.2345371,26.1525829 38.4538514,24.0157829 37.6889371,21.8734971 C37.49968,21.3432114 37.7249371,20.89064 38.2035657,20.7161257 C38.6658514,20.5475543 39.1157943,20.7685829 39.3211657,21.3125829 C39.83008,22.66024 40.3191086,24.0152114 40.8498514,25.4589829" id="Fill-31" fill="#020303"></path>
                <path d="M17.7775429,24.1191314 C17.2741143,25.5112457 16.8046286,26.7906743 16.3502286,28.0754743 C16.1864571,28.5383314 15.9576571,28.9167314 15.406,28.9080457 C14.8854286,28.8998171 14.6584571,28.5349029 14.4994857,28.0968457 C13.7756,26.1015314 13.0463429,24.1080457 12.3190286,22.1138743 C12.2930857,22.0427886 12.2644,21.9723886 12.2429143,21.8999314 C12.0793714,21.3483886 12.3047429,20.8563886 12.7943429,20.6933029 C13.2554857,20.5398171 13.7190286,20.7741029 13.9178857,21.3070171 C14.3550286,22.4789029 14.7708,23.6591314 15.1965143,24.8354743 C15.2534286,24.9925029 15.3167429,25.1472457 15.4237143,25.42336 C15.8949143,24.1405029 16.3294286,22.9658743 16.7573143,21.78896 C16.9450857,21.2726171 17.0561714,20.6711314 17.7734286,20.6629029 C18.4929714,20.6546743 18.6204,21.2538743 18.8089714,21.7688457 C19.2457714,22.9608457 19.6796,24.1541029 20.1448571,25.4298743 C20.6369714,24.0899886 21.1007429,22.8266743 21.5653143,21.5637029 C21.6176571,21.4215314 21.6600571,21.2731886 21.7314857,21.1407314 C21.9630286,20.7119314 22.426,20.5358171 22.8431429,20.7322743 C23.2944571,20.9448457 23.5133143,21.3003886 23.3415429,21.79776 C22.9950286,22.8008457 22.6298857,23.7975314 22.2672571,24.7947886 C21.8592571,25.9171886 21.4383429,27.0351314 21.038,28.16016 C20.8832571,28.5950171 20.6341143,28.9039314 20.1476,28.9029029 C19.6621143,28.9019886 19.4153714,28.5949029 19.2593714,28.15856 C18.7882857,26.8411886 18.2973143,25.5310171 17.7775429,24.1191314" id="Fill-33" fill="#020303"></path>
                <path d="M28.1468457,25.4180229 C28.6406743,24.07048 29.1174743,22.7907086 29.5771314,21.50488 C29.7423886,21.0425943 29.9655886,20.6580229 30.5194171,20.6691086 C31.0417029,20.6796229 31.2577029,21.0510514 31.4151886,21.4915086 C31.8796457,22.7911657 32.3575886,24.0861371 32.86216,25.4701371 C33.3435314,24.1497943 33.79736,22.9049943 34.25096,21.6598514 C34.2964457,21.5349371 34.3316457,21.4060229 34.3841029,21.2843086 C34.6083314,20.7630514 35.0668457,20.5369943 35.5244457,20.7169943 C35.9942743,20.9019086 36.2015886,21.3583657 36.0138171,21.8877371 C35.5002171,23.3366514 34.9705029,24.7798514 34.4458171,26.22488 C34.2062743,26.8849943 33.9570171,27.54168 33.7243314,28.2041943 C33.5769029,28.6239657 33.3121029,28.8956229 32.8547314,28.8959657 C32.3923314,28.8961943 32.1380457,28.6037371 31.9894743,28.1942514 C31.5124457,26.8795086 31.0331314,25.56568 30.5028457,24.1093371 C30.13176,25.1174514 29.80776,25.9943657 29.4865029,26.8723086 C29.3300457,27.2999657 29.1723314,27.7273943 29.0265029,28.1587086 C28.87976,28.5933371 28.6239886,28.8926514 28.1348457,28.9063657 C27.6307314,28.9205371 27.4004457,28.5982514 27.2467314,28.17288 C26.65416,26.5318514 26.0554171,24.8931086 25.4586171,23.2537943 C25.3223886,22.8793943 25.1833029,22.5061371 25.0478743,22.1316229 C24.78056,21.39288 24.9303886,20.89928 25.47976,20.7023657 C26.00776,20.5132229 26.4534743,20.81608 26.7218171,21.5541371 C27.1497029,22.7305943 27.5735886,23.9085371 28.00056,25.0853371 C28.0324457,25.1729943 28.0755314,25.2567657 28.1468457,25.4180229" id="Fill-35" fill="#020303"></path>
                <path d="M4.87853714,16.41456 L56.3608229,16.41456 C58.2818514,16.41456 59.8392229,17.9720457 59.8392229,19.8930743 L59.8392229,31.2231314 C59.8392229,33.1443886 58.2818514,34.70176 56.3608229,34.70176 L4.87853714,34.70176 C2.95739429,34.70176 1.40002286,33.1443886 1.40002286,31.2231314 L1.40002286,19.8930743 C1.40002286,17.9720457 2.95739429,16.41456 4.87853714,16.41456" id="Fill-37" fill="#5368EA"></path>
                <polygon id="Fill-39" fill="#FFFFFF" points="15.9657029 21.1404571 13.57816 21.1404571 11.9655886 27.2721143 10.2121029 21.1404571 7.80718857 21.1404571 10.7673029 30.4964571 13.1722171 30.4964571 14.7585029 24.4793143 16.37096 30.4964571 18.7494743 30.4964571 21.7539314 21.1404571 19.3129029 21.1404571 17.5249029 27.2721143"></polygon>
                <polygon id="Fill-41" fill="#FFFFFF" points="31.8044343 21.1404571 29.4167771 21.1404571 27.8050057 27.2721143 26.0516343 21.1404571 23.64672 21.1404571 26.60672 30.4964571 29.0116343 30.4964571 30.5978057 24.4793143 32.2096914 30.4964571 34.5888914 30.4964571 37.5925486 21.1404571 35.15232 21.1404571 33.3642057 27.2721143"></polygon>
                <polygon id="Fill-43" fill="#FFFFFF" points="50.9917143 21.1404571 49.2030286 27.2721143 47.6438286 21.1404571 45.2561714 21.1404571 43.6437143 27.2721143 41.8910286 21.1404571 39.4853143 21.1404571 42.4462286 30.4964571 44.8511429 30.4964571 46.4365143 24.4793143 48.0490857 30.4964571 50.4276 30.4964571 53.4320571 21.1404571"></polygon>
                <path d="M48.3381371,33.7078629 L47.5430514,33.7078629 C46.9941371,33.7078629 46.5492229,34.1528914 46.5492229,34.7016914 C46.5492229,35.2506057 46.9941371,35.6956343 47.5430514,35.6956343 L48.3381371,35.6956343 C48.8870514,35.6956343 49.3319657,35.2506057 49.3319657,34.7016914 C49.3319657,34.1528914 48.8870514,33.7078629 48.3381371,33.7078629" id="Fill-45" fill="#192F60"></path>
                <g id="Group-49" transform="translate(0.000000, 15.542857)">
                    <mask id="mask-7" fill="white">
                        <use xlink:href="#path-6"></use>
                    </mask>
                    <g id="Clip-48"></g>
                    <path d="M4.24382857,19.92416 C1.90645714,19.9216457 0.00257142857,18.0176457 -5.71428571e-05,15.6800457 L-5.71428571e-05,4.35033143 C0.00257142857,2.01284571 1.90645714,0.10896 4.24405714,0.106445714 L12.6248571,0.106445714 C13.0469143,0.106445714 13.3902286,0.44976 13.3902286,0.871702857 C13.3902286,1.29364571 13.0469143,1.63696 12.6248571,1.63696 L4.24382857,1.63696 C2.74954286,1.63890286 1.5324,2.85593143 1.53068571,4.35010286 L1.53068571,15.6802743 C1.5324,17.17456 2.74954286,18.3917029 4.24348571,18.3935314 L43.0546857,18.3935314 C43.4766286,18.3935314 43.8199429,18.7368457 43.8199429,19.1589029 C43.8199429,19.5808457 43.4766286,19.92416 43.0546857,19.92416 L4.24382857,19.92416 Z" id="Fill-47" fill="#000000" mask="url(#mask-7)"></path>
                </g>
                <g id="Group-52" transform="translate(15.657143, 15.542857)">
                    <mask id="mask-9" fill="white">
                        <use xlink:href="#path-8"></use>
                    </mask>
                    <g id="Clip-51"></g>
                    <path d="M37.1866857,19.92416 C36.7647429,19.92416 36.4214286,19.5808457 36.4214286,19.1589029 C36.4214286,18.7368457 36.7647429,18.3935314 37.1866857,18.3935314 L40.0689714,18.3935314 C41.5632571,18.3917029 42.7802857,17.17456 42.7821143,15.6806171 L42.7821143,4.35033143 C42.7783429,2.85764571 41.5613143,1.64210286 40.0693143,1.64027429 L0.811257143,1.64027429 C0.3892,1.64027429 0.046,1.29696 0.046,0.874902857 C0.046,0.45296 0.3892,0.109645714 0.811257143,0.109645714 L4.30931429,0.109645714 L4.30805714,0.106445714 L40.0689714,0.106445714 C42.4064571,0.10896 44.3102286,2.01284571 44.3127429,4.35044571 L44.3127429,15.6802743 C44.3102286,18.0176457 42.4064571,19.9216457 40.0687429,19.92416 L37.1866857,19.92416 Z" id="Fill-50" fill="#000000" mask="url(#mask-9)"></path>
                </g>
            </g>
        </g>
    </g>
</svg>