<svg width="15" height="11" viewBox="0 0 15 11" fill="none" xmlns="http://www.w3.org/2000/svg">
<path fill-rule="evenodd" clip-rule="evenodd" d="M0.169231 6.05C0.0564103 5.94 0 5.775 0 5.665C0 5.555 0.0564103 5.39 0.169231 5.28L0.958974 4.51C1.18462 4.29 1.52308 4.29 1.74872 4.51L1.80513 4.565L4.90769 7.81C5.02051 7.92 5.18974 7.92 5.30256 7.81L12.8615 0.165H12.9179C13.1436 -0.055 13.4821 -0.055 13.7077 0.165L14.4974 0.935C14.7231 1.155 14.7231 1.485 14.4974 1.705L5.4718 10.835C5.35897 10.945 5.24615 11 5.07692 11C4.90769 11 4.79487 10.945 4.68205 10.835L0.282051 6.215L0.169231 6.05Z" fill="#0577FF"/>
</svg>
