<svg xmlns="http://www.w3.org/2000/svg" width="185" height="129.961" viewBox="0 0 185 129.961">
  <g id="Group_894" data-name="Group 894" transform="translate(-1253 -717)">
    <g id="branch" transform="translate(1253 721.441)">
      <path id="Path_1037" data-name="Path 1037" d="M202.771,30h3.673v3.673h-3.673Z" transform="translate(-153.068 -22.621)" fill="#d6d3d3"/>
      <path id="Path_1038" data-name="Path 1038" d="M232.737,30h3.673v3.673h-3.673Z" transform="translate(-175.689 -22.621)" fill="#d6d3d3"/>
      <path id="Path_1039" data-name="Path 1039" d="M202.771,59.971h3.673v3.673h-3.673Z" transform="translate(-153.068 -45.242)" fill="#d6d3d3"/>
      <path id="Path_1040" data-name="Path 1040" d="M232.737,59.971h3.673v3.673h-3.673Z" transform="translate(-175.689 -45.242)" fill="#d6d3d3"/>
      <path id="Path_1041" data-name="Path 1041" d="M253.714,118.9h3.673v3.673h-3.673Z" transform="translate(-191.524 -89.73)" fill="#d6d3d3"/>
      <path id="Path_1042" data-name="Path 1042" d="M283.68,118.9h3.673v3.673H283.68Z" transform="translate(-214.145 -89.73)" fill="#d6d3d3"/>
      <path id="Path_1043" data-name="Path 1043" d="M253.714,148.871h3.673v3.673h-3.673Z" transform="translate(-191.524 -112.351)" fill="#d6d3d3"/>
      <path id="Path_1044" data-name="Path 1044" d="M283.68,148.871h3.673v3.673H283.68Z" transform="translate(-214.145 -112.351)" fill="#d6d3d3"/>
      <path id="Path_1045" data-name="Path 1045" d="M253.714,177.838h3.673v3.673h-3.673Z" transform="translate(-191.524 -134.217)" fill="#d6d3d3"/>
      <path id="Path_1046" data-name="Path 1046" d="M283.68,177.838h3.673v3.673H283.68Z" transform="translate(-214.145 -134.217)" fill="#d6d3d3"/>
      <path id="Path_1047" data-name="Path 1047" d="M253.714,206.806h3.673v3.673h-3.673Z" transform="translate(-191.524 -156.085)" fill="#d6d3d3"/>
      <path id="Path_1048" data-name="Path 1048" d="M283.68,206.806h3.673v3.673H283.68Z" transform="translate(-214.145 -156.085)" fill="#d6d3d3"/>
      <path id="Path_1049" data-name="Path 1049" d="M0,0H6.366V3.673H0Z" transform="translate(10.686 57.17) rotate(-26.796)" fill="#d6d3d3"/>
      <path id="Path_1050" data-name="Path 1050" d="M0,0H6.366V3.673H0Z" transform="translate(14 63.729) rotate(-26.796)" fill="#d6d3d3"/>
      <path id="Path_1051" data-name="Path 1051" d="M0,0H6.366V3.673H0Z" transform="translate(17.204 70.069) rotate(-26.796)" fill="#d6d3d3"/>
      <path id="Path_1052" data-name="Path 1052" d="M125.5,54.163,105.171,43.891l-12.7,26.455A61.873,61.873,0,0,0,81.9,65.832v-44H69.412V.039H41.256V66.583a61.869,61.869,0,0,0-8.329,3.738L20.6,43.881.271,54.155l14.55,30.889A62.208,62.208,0,0,0,0,125.52H3.673q0-2.338.181-4.631l19.939.105,5.884-6.119,10.1,3.108,4.382-11.268L36.23,94.138,31.462,92.4V85.656l-8.389-3.838a58.89,58.89,0,0,1,72.993-4.923L72.152,78.708,64.106,91.351l11.8,15.1,10.9,1.212,7.927,12.634,15.66-.58,2.3-9.2,6.388-2.312a58.805,58.805,0,0,1,2.6,17.323h3.673a62.208,62.208,0,0,0-14.792-40.443ZM27.789,88.014v6.963l6,2.184,6.272,9.948-2.473,6.36-9-2.768-6.358,6.613-17.978-.1A58.864,58.864,0,0,1,20.245,84.563ZM18.358,81.2c-.294.294-.582.592-.869.891L5.116,55.822l13.76-6.953,10.863,23.3A63.138,63.138,0,0,0,18.358,81.2ZM53.742,63.472a62.357,62.357,0,0,0-8.814,1.908V3.712H65.74V21.83h-12Zm24.484,1.3a63.075,63.075,0,0,0-15.547-1.935c-1.767,0-3.523.077-5.264.221V25.5H78.227ZM95.661,72.2l11.2-23.338,13.763,6.955L107.91,82.132c-.3-.313-.6-.625-.91-.933A63.151,63.151,0,0,0,95.661,72.2ZM117.9,104.723l-8.284,3-2.106,8.424-10.783.4-7.743-12.34-11.131-1.237L68.6,91.134l5.665-8.9,26.212-1.987A59.257,59.257,0,0,1,117.9,104.723Z" fill="#d6d3d3"/>
      <path id="Path_1053" data-name="Path 1053" d="M0,0H3.673V6.366H0Z" transform="translate(107.813 57.501) rotate(-63.204)" fill="#d6d3d3"/>
      <path id="Path_1054" data-name="Path 1054" d="M0,0H3.673V6.366H0Z" transform="translate(104.502 64.057) rotate(-63.204)" fill="#d6d3d3"/>
      <path id="Path_1055" data-name="Path 1055" d="M0,0H3.673V6.366H0Z" transform="translate(101.3 70.391) rotate(-63.204)" fill="#d6d3d3"/>
      <path id="Path_1056" data-name="Path 1056" d="M376.051,115.527V119.2h8.761v-8.762H381.14v2.346l-7.18-7.18-2.6,2.6,7.326,7.326Z" transform="translate(-280.336 -79.689)" fill="#d6d3d3"/>
      <path id="Path_1057" data-name="Path 1057" d="M90.955,115.527H88.317l7.326-7.326-2.6-2.6-7.18,7.18v-2.346H82.194V119.2h8.761Z" transform="translate(-62.047 -79.689)" fill="#d6d3d3"/>
      <path id="Path_1058" data-name="Path 1058" d="M179.629,306.516,164.7,305.322l-4.458,8.6,10.466,17.627,9.511-1.585-4.406-9.331,5.429-2.488Zm-8.722,12.325,3.918,8.3-2.241.374L164.443,313.8l2.4-4.623,9.557.765.833,6Z" transform="translate(-120.965 -230.453)" fill="#d6d3d3"/>
    </g>
    <g id="Group_890" data-name="Group 890" transform="translate(442 323)">
      <path id="Polygon_1" data-name="Polygon 1" d="M13.5,0l3.038,10.463L27,13.5,16.538,16.538,13.5,27,10.463,16.538,0,13.5l10.463-3.037Z" transform="translate(936 394)" fill="#556ce7"/>
      <path id="Polygon_2" data-name="Polygon 2" d="M13.5,0l3.038,10.463L27,13.5,16.538,16.538,13.5,27,10.463,16.538,0,13.5l10.463-3.037Z" transform="translate(947 434)" fill="#556ce7"/>
      <path id="Polygon_3" data-name="Polygon 3" d="M13.5,0l3.038,10.463L27,13.5,16.538,16.538,13.5,27,10.463,16.538,0,13.5l10.463-3.037Z" transform="translate(969 407)" fill="#556ce7"/>
    </g>
  </g>
</svg>
