<?xml version="1.0" encoding="UTF-8"?>
<svg width="40px" height="40px" viewBox="0 0 40 40" version="1.1" xmlns="http://www.w3.org/2000/svg">
    <!-- Generator: sketchtool 53.2 (72643) - https://sketchapp.com -->
    <title>21EDFAEB-EC63-4924-A04C-D68D16D6E82A</title>
    <desc>Created with sketchtool.</desc>
    <g id="v2.0" stroke="none" stroke-width="1" fill="none" fill-rule="evenodd">
        <g id="Reservation-Analytics" transform="translate(-809.000000, -190.000000)">
            <g id="icon-AvgReservation" transform="translate(809.000000, 190.000000)">
                <circle id="Oval-Copy-20" fill="#F3F5FF" cx="20" cy="20" r="20"></circle>
                <circle id="Oval-Copy-21" fill="#DDE2FF" cx="20" cy="20" r="15"></circle>
                <g id="Group-16-Copy-4" transform="translate(14.000000, 11.000000)" fill="#556CE7" fill-rule="nonzero">
                    <path d="M9.33328922,3.85714286 L10.027969,1.40528571 C10.1213204,1.07357143 10.0625212,0.717428571 9.86854425,0.439714286 C9.67214263,0.162642857 9.366629,0 9.04111151,0 C8.82409985,0 7.1536758,0 4.02983938,0 C3.70432189,0 3.3975959,0.163285714 3.203619,0.439714286 C3.00964209,0.716785714 2.94963049,1.07357143 3.04358805,1.40528571 L3.73705549,3.85714286 L9.33328922,3.85714286 Z" id="Path"></path>
                    <path d="M12.7743119,11.2228566 L9.79668899,4 L3.55648054,4 L0.225854337,11.2228566 C-0.268619699,12.8215411 0.0587840905,14.5474809 1.11038351,15.8814233 C2.16198292,17.2153656 4.92403135,18 6.68028995,18 C8.43452754,18 10.8381834,17.2153656 11.8897828,15.8814233 C12.9420559,14.5474809 13.2681123,12.8215411 12.7743119,11.2228566 Z M7.38143036,13.9994923 L7.38143036,14.5193772 C7.38143036,14.7847351 7.1825596,15 6.93601004,15 C6.69134253,15 6.49247177,14.7847351 6.49247177,14.5200542 L6.49247177,14.0685395 C6.13425345,14.0516162 5.78795483,13.9839228 5.49058971,13.8877983 C5.17816813,13.7876121 4.99560853,13.4396683 5.07716437,13.0998477 L5.07841907,13.0917245 C5.11229611,12.9509223 5.19824341,12.8311051 5.3174404,12.7640887 C5.43663739,12.6950415 5.57716437,12.6842105 5.70388959,12.7329497 C6.00627353,12.8493823 6.35633626,12.9306143 6.72710163,12.9306143 C7.24592221,12.9306143 7.60100376,12.7153495 7.60100376,12.322728 C7.60100376,11.9504146 7.30928482,11.7148418 6.63613551,11.4697918 C5.66436637,11.1171095 5,10.6263327 5,9.67591809 C5,8.81282789 5.56398996,8.1358944 6.53513174,7.93010662 L6.53513174,7.47859198 C6.53513174,7.21323405 6.73713927,7 6.98243413,7 C7.22835634,7 7.42973651,7.21323405 7.42973651,7.47859198 L7.42973651,7.8610594 C7.72459222,7.875275 7.97804266,7.91589101 8.19196989,7.97275343 C8.34190715,8.01201557 8.47051443,8.11423253 8.55081556,8.25706549 C8.63048934,8.40125233 8.65307403,8.5725165 8.61480552,8.7343036 L8.61417817,8.73904214 C8.58218319,8.8737519 8.5,8.98815366 8.38707654,9.05584701 C8.27415307,9.12489423 8.14052698,9.13910983 8.01756587,9.09713996 C7.79736512,9.02267727 7.51882058,8.95972246 7.17377666,8.95972246 C6.58281054,8.95972246 6.39209536,9.23455745 6.39209536,9.50939245 C6.39209536,9.83296666 6.71016311,10.0387544 7.48306148,10.3521746 C8.56398996,10.7637502 9,11.3039431 9,12.1866644 C8.99937265,13.0572009 8.42659975,13.8031816 7.38143036,13.9994923 Z" id="Shape"></path>
                </g>
            </g>
        </g>
    </g>
</svg>
