<?xml version="1.0" encoding="UTF-8"?>
<svg width="40px" height="40px" viewBox="0 0 40 40" version="1.1" xmlns="http://www.w3.org/2000/svg">
    <!-- Generator: sketchtool 53.2 (72643) - https://sketchapp.com -->
    <title>099A5B46-BA34-449B-BEF8-60F508D29BAA</title>
    <desc>Created with sketchtool.</desc>
    <g id="v2.0" stroke="none" stroke-width="1" fill="none" fill-rule="evenodd">
        <g id="Reservation-Analytics" transform="translate(-1051.000000, -190.000000)">
            <g id="icon-pendingRevenue" transform="translate(1051.000000, 190.000000)">
                <circle id="Oval-Copy-22" fill="#F3F5FF" cx="20" cy="20" r="20"></circle>
                <circle id="Oval-Copy-23" fill="#DDE2FF" cx="20" cy="20" r="15"></circle>
                <g id="Group-19-Copy-3" transform="translate(10.000000, 11.000000)" fill="#556CE7" fill-rule="nonzero">
                    <path d="M9.37481156,3 C6.06105528,3 3.375,5.68632809 3.375,9 C3.375,12.3138604 6.06105528,15 9.37481156,15 C12.6883794,15 15.375,12.3138604 15.375,9 C15.375,5.68632809 12.6883794,3 9.37481156,3 Z M9.8794598,12.4286253 L9.8794598,13.5715632 L8.78140704,13.5715632 L8.78140704,12.5072081 C8.03065327,12.4734759 7.30213568,12.2718364 6.87625628,12.0255347 L7.21262563,10.7145011 C7.68316583,10.9719212 8.34440955,11.2071045 9.07255025,11.2071045 C9.7111809,11.2071045 10.1481784,10.9609912 10.1481784,10.5122962 C10.1481784,10.0869688 9.78976131,9.81786488 8.96061558,9.53801941 C7.76155779,9.13474041 6.94371859,8.57429568 6.94371859,7.48732686 C6.94371859,6.50174315 7.63850503,5.72835202 8.83718593,5.49260341 L8.83718593,4.42862527 L9.93542714,4.42862527 L9.93542714,5.41496278 C10.6856156,5.4483181 11.1898869,5.6049185 11.5599874,5.78432112 L11.2349246,7.05031565 C10.943593,6.92688213 10.4280151,6.66946198 9.62129397,6.66946198 C8.89315327,6.66946198 8.65778894,6.98341656 8.65778894,7.29699425 C8.65778894,7.66672948 9.05012563,7.90228964 10.002701,8.26090644 C11.3357412,8.73108452 11.8735553,9.34787525 11.8735553,10.3560727 C11.8735553,11.3531518 11.1676508,12.2045604 9.8794598,12.4286253 Z" id="Shape"></path>
                    <path d="M18.6622542,13.39963 L16.7857851,13.8275737 C16.7448698,13.832914 16.7034287,13.832914 16.6625134,13.8275737 C16.5599376,13.8279013 16.4593295,13.7995688 16.3721401,13.7458011 C16.249613,13.6684709 16.1629178,13.5459364 16.1310754,13.4050815 L15.7009942,11.5379384 C15.6569535,11.3480437 15.7180718,11.1491951 15.8613264,11.0162969 C16.0045811,10.8833987 16.2082084,10.8366413 16.3955038,10.8936378 C16.5827992,10.9506344 16.7253081,11.1027256 16.7693489,11.2926203 L16.8789237,11.7641762 C18.0737337,8.63342535 17.1478568,5.09322458 14.5708902,2.93913441 C11.9939235,0.785044243 8.32965488,0.48833574 5.43657106,2.199497 L4.875,1.26456256 C8.22556248,-0.72327247 12.4813263,-0.339035503 15.4175848,2.21641304 C18.3538433,4.77186158 19.3031362,8.91762583 17.7692193,12.4865016 L18.4184502,12.3393108 C18.6144298,12.2803097 18.8271183,12.3349697 18.9698719,12.4810237 C19.1126255,12.6270777 19.1616178,12.8401484 19.0968906,13.0334363 C19.0321635,13.2267243 18.8645202,13.3679686 18.6622542,13.39963 L18.6622542,13.39963 Z" id="Path"></path>
                    <path d="M14,16.779538 C10.6801585,18.7273784 6.49131405,18.3136094 3.61230304,15.7534538 C0.733292038,13.1932982 -0.18556944,9.06504851 1.3336664,5.51602266 L0.662172012,5.67113751 C0.370571448,5.73801832 0.0802373172,5.55465312 0.0136925735,5.26157987 C-0.0528521702,4.96850662 0.129591613,4.6767062 0.421192173,4.60982537 L2.27592465,4.1825792 C2.41579348,4.14987548 2.56285974,4.17434717 2.68477808,4.25061203 C2.80589138,4.32837005 2.892276,4.45030951 2.92575792,4.59077618 L3.35085719,6.45759702 C3.41649883,6.75064332 3.23351336,7.04173204 2.94200376,7.10799088 C2.90156239,7.11332244 2.86060138,7.11332244 2.82016002,7.10799088 C2.56890686,7.10688963 2.35140823,6.93223732 2.29487812,6.68618733 L2.18928021,6.27526904 C1.01547885,9.39072465 1.92351095,12.911491 4.45533101,15.0615613 C6.98715108,17.2116316 10.5926413,17.5238352 13.453057,15.8406849 L14,16.779538 Z" id="Path"></path>
                </g>
            </g>
        </g>
    </g>
</svg>
