<?xml version="1.0" encoding="UTF-8"?>
<svg width="40px" height="40px" viewBox="0 0 40 40" version="1.1" xmlns="http://www.w3.org/2000/svg">
    <!-- Generator: sketchtool 53.2 (72643) - https://sketchapp.com -->
    <title>13775BF3-45F1-42BB-A60B-7AD591F35A36</title>
    <desc>Created with sketchtool.</desc>
    <g id="v2.0" stroke="none" stroke-width="1" fill="none" fill-rule="evenodd">
        <g id="Reservation-Analytics" transform="translate(-567.000000, -190.000000)">
            <g id="icon-booking-completed" transform="translate(567.000000, 190.000000)">
                <circle id="Oval-Copy-18" fill="#F3F5FF" cx="20" cy="20" r="20"></circle>
                <circle id="Oval-Copy-19" fill="#DDE2FF" cx="20" cy="20" r="15"></circle>
                <path d="M24.9496843,14.0503157 C22.2159301,11.3165614 17.7840699,11.3165614 15.0503157,14.0503157 C12.3165614,16.7840699 12.3165614,21.2159301 15.0503157,23.9496843 C17.7840699,26.6834386 22.2159301,26.6834386 24.9496843,23.9496843 C27.6834386,21.2159301 27.6834386,16.7840699 24.9496843,14.0503157 Z M23.8011302,18.1650246 C23.6508924,18.313989 23.4989278,18.4646655 23.34869,18.6136299 C22.6890252,19.2677031 22.0310873,19.9200641 21.3714225,20.5741374 C20.9569735,20.9833613 20.5442513,21.3942973 20.1315291,21.8035212 C19.8673178,22.0654929 19.4183313,22.0654929 19.15412,21.8035212 C19.0729571,21.7230462 18.9917942,21.6425712 18.9123581,21.5620962 C18.3407637,20.9936347 17.7691694,20.4268853 17.1975751,19.8584237 C16.9247294,19.5878908 16.943725,19.1632569 17.1975751,18.8892995 C17.4496983,18.6170543 17.9194072,18.6358889 18.1749841,18.8892995 C18.2561471,18.9697745 18.33731,19.0502494 18.4167461,19.1307244 C18.8260145,19.5365238 19.235283,19.9440354 19.6428246,20.3498348 C20.2904012,19.7077472 20.936251,19.0673718 21.5838277,18.4252841 L22.8237211,17.1959004 C23.0965668,16.9253674 23.5248308,16.944202 23.8011302,17.1959004 C24.0757027,17.4475987 24.0567071,17.911614 23.8011302,18.1650246 Z" fill="#556CE7" fill-rule="nonzero"></path>
            </g>
        </g>
    </g>
</svg>
