<?xml version="1.0" encoding="UTF-8"?>
<svg width="40px" height="40px" viewBox="0 0 40 40" version="1.1" xmlns="http://www.w3.org/2000/svg" xmlns:xlink="http://www.w3.org/1999/xlink">
    <!-- Generator: sketchtool 53.2 (72643) - https://sketchapp.com -->
    <title>EF974F33-8ED7-432C-933C-5E03A99512EF</title>
    <desc>Created with sketchtool.</desc>
    <defs>
        <polygon id="path-1" points="0 0.0893816614 7.53350588 0.0893816614 7.53350588 6.1815888 0 6.1815888"></polygon>
        <polygon id="path-3" points="0.0668705882 0.146352941 6.33919518 0.146352941 6.33919518 7.18428235 0.0668705882 7.18428235"></polygon>
        <polygon id="path-5" points="0.0477853008 0.0157019608 6.13747451 0.0157019608 6.13747451 7.52941176 0.0477853008 7.52941176"></polygon>
    </defs>
    <g id="v2.0" stroke="none" stroke-width="1" fill="none" fill-rule="evenodd">
        <g id="Reservation-Analytics" transform="translate(-327.000000, -190.000000)">
            <g id="icon-totalservices" transform="translate(327.000000, 190.000000)">
                <circle id="Oval-Copy-17" fill="#F3F5FF" cx="20" cy="20" r="20"></circle>
                <circle id="Oval-Copy-17" fill="#DDE2FF" cx="20" cy="20" r="15"></circle>
                <g transform="translate(12.000000, 12.000000)">
                    <path d="M2.12174118,4.93598431 C2.9688,6.06539608 7.7060549,7.24186667 7.7060549,7.24186667 L6.0433098,4.99872941 L5.98056471,4.93598431 L5.07076078,4.40265098 L4.97664314,4.30853333 C4.83546667,4.10461176 4.88252549,3.8379451 5.07076078,3.68108235 C5.27468235,3.53990588 5.54134902,3.58696471 5.69821176,3.7752 C5.72958431,3.80657255 5.72958431,3.8379451 5.76095686,3.86931765 L6.12174118,4.81049412 L7.8315451,7.11637647 C7.8315451,7.11637647 7.69036863,4.84186667 7.56487843,3.30461176 C7.42370196,1.76735686 6.73350588,0.998729412 6.73350588,0.998729412 C6.1060549,0.167356863 4.99232941,-0.0679372549 4.25507451,0.496768627 C3.78448627,0.826180392 3.58056471,1.40657255 3.62762353,1.97127843 C3.12566275,1.79872941 2.59232941,1.87716078 2.15311373,2.1752 C1.41585882,2.73990588 1.32174118,3.88500392 1.91781961,4.71637647 C1.99625098,4.76343529 2.05899608,4.85755294 2.12174118,4.93598431" id="Fill-1" fill="#556CE7"></path>
                    <g id="Group-5" transform="translate(0.000000, 6.755608)">
                        <mask id="mask-2" fill="white">
                            <use xlink:href="#path-1"></use>
                        </mask>
                        <g id="Clip-4"></g>
                        <path d="M4.92958431,2.18043922 L4.83546667,2.2116549 L4.06683922,2.91753725 C4.03546667,2.9489098 4.00409412,2.9489098 3.97272157,2.98043922 C3.73742745,3.0744 3.47076078,2.9489098 3.40801569,2.71361569 C3.31389804,2.47832157 3.43938824,2.2116549 3.67468235,2.14906667 C3.7060549,2.14906667 3.7688,2.11769412 3.81585882,2.11769412 L4.81978039,2.02357647 L7.48644706,1.0196549 C7.48644706,1.0196549 5.27468235,0.486321569 3.73742745,0.188282353 C2.20017255,-0.109756863 1.29036863,0.360831373 1.29036863,0.360831373 C0.317819608,0.721615686 -0.215513725,1.72553725 0.0825254902,2.60381176 C0.286447059,3.13730196 0.757035294,3.51377255 1.32174118,3.63926275 C1.02370196,4.07847843 0.960956863,4.61181176 1.11781961,5.11361569 C1.44723137,5.97636078 2.48252549,6.41573333 3.48644706,6.05479216 C3.58056471,6.02357647 3.69036863,5.96083137 3.75311373,5.91377255 C5.08644706,5.44318431 7.53350588,1.23926275 7.53350588,1.23926275 L4.92958431,2.18043922 Z" id="Fill-3" fill="#556CE7" mask="url(#mask-2)"></path>
                    </g>
                    <g id="Group-8" transform="translate(8.313725, 0.010510)">
                        <mask id="mask-4" fill="white">
                            <use xlink:href="#path-3"></use>
                        </mask>
                        <g id="Clip-7"></g>
                        <path d="M2.13745882,3.81173333 C2.16883137,3.78036078 2.16883137,3.74898824 2.20020392,3.71761569 C2.37275294,3.51369412 2.63941961,3.48232157 2.8276549,3.62349804 C3.03157647,3.79604706 3.06294902,4.06271373 2.92177255,4.25094902 L2.84334118,4.34506667 L1.93353725,4.8784 L1.87079216,4.9411451 L0.192360784,7.18428235 C0.192360784,7.18428235 4.94530196,6.05487059 5.74530196,4.9411451 C5.80804706,4.8784 5.88647843,4.76859608 5.94922353,4.70585098 C6.54530196,3.87447843 6.45118431,2.72938039 5.71392941,2.16467451 C5.30608627,1.86663529 4.77275294,1.8038902 4.27079216,1.92938039 C4.30216471,1.36467451 4.09824314,0.799968627 3.64334118,0.454870588 C2.90608627,-0.109835294 1.80804706,0.125458824 1.1649098,0.956831373 C1.1649098,0.956831373 0.459027451,1.72545882 0.333537255,3.26271373 C0.192360784,4.79996863 0.0668705882,7.07447843 0.0668705882,7.07447843 L1.77667451,4.76859608 L2.13745882,3.81173333 Z" id="Fill-6" fill="#556CE7" mask="url(#mask-4)"></path>
                    </g>
                    <g id="Group-11" transform="translate(5.176471, 8.324235)">
                        <mask id="mask-6" fill="white">
                            <use xlink:href="#path-5"></use>
                        </mask>
                        <g id="Clip-10"></g>
                        <path d="M3.03159216,0.0157019608 L3.03159216,2.91766275 L3.43943529,3.89021176 C3.43943529,3.92158431 3.47080784,3.95295686 3.47080784,4.03138824 C3.47080784,4.26668235 3.26688627,4.47060392 3.03159216,4.47060392 C2.79629804,4.47060392 2.59237647,4.26668235 2.59237647,4.03138824 C2.59237647,4.00001569 2.59237647,3.93727059 2.62374902,3.89021176 L2.82767059,2.91766275 L2.82767059,0.0784470588 C2.82767059,0.0784470588 1.55708235,1.97648627 0.757082353,3.29413333 C-0.0429176471,4.59609412 0.0512,5.63138824 0.0512,5.63138824 C0.0512,6.66668235 0.819827451,7.52942745 1.76100392,7.52942745 C2.3257098,7.52942745 2.82767059,7.23138824 3.1257098,6.72942745 C3.42374902,7.16864314 3.89433725,7.40393725 4.42767059,7.40393725 C5.36884706,7.40393725 6.13747451,6.57256471 6.13747451,5.50589804 C6.13747451,5.41178039 6.10610196,5.30197647 6.10610196,5.20785882 C6.10610196,3.79609412 3.03159216,0.0157019608 3.03159216,0.0157019608" id="Fill-9" fill="#556CE7" mask="url(#mask-6)"></path>
                    </g>
                    <path d="M15.0629333,7.10072157 C15.0629333,7.10072157 14.1531294,6.63013333 12.6158745,6.92817255 C11.0786196,7.22621176 8.8668549,7.7595451 8.8668549,7.7595451 L11.5335216,8.76346667 L12.5374431,8.85758431 C12.5688157,8.85758431 12.6315608,8.8888 12.6786196,8.8888 C12.9139137,8.95170196 13.0394039,9.21836863 12.9452863,9.45366275 C12.8825412,9.68895686 12.6158745,9.81444706 12.3805804,9.72032941 C12.3492078,9.68895686 12.3178353,9.68895686 12.2864627,9.65758431 L11.5178353,8.95170196 L11.4237176,8.92032941 L8.8041098,7.96346667 C8.8041098,7.96346667 11.2511686,12.1673882 12.584502,12.6379765 C12.6472471,12.669349 12.757051,12.7319373 12.8511686,12.7791529 C13.8550902,13.1399373 14.8903843,12.7164078 15.2197961,11.8379765 C15.3923451,11.3360157 15.3139137,10.8026824 15.0158745,10.3634667 C15.5805804,10.2221333 16.0511686,9.86150588 16.2550902,9.32817255 C16.5688157,8.46542745 16.0354824,7.47719216 15.0629333,7.10072157" id="Fill-12" fill="#556CE7"></path>
                </g>
            </g>
        </g>
    </g>
</svg>