<svg width="56" height="57" viewBox="0 0 56 57" fill="none" xmlns="http://www.w3.org/2000/svg">
<path d="M54.5 28.5C54.5 43.4368 42.6106 55.5 28 55.5C13.3894 55.5 1.5 43.4368 1.5 28.5C1.5 13.5632 13.3894 1.5 28 1.5C42.6106 1.5 54.5 13.5632 54.5 28.5Z" fill="#4051B6" stroke="#556CE7" stroke-width="3"/>
<g clip-path="url(#clip0)">
<path d="M25.8649 19.6584C25.9578 19.7371 26.0753 19.7798 26.1962 19.7798C26.2107 19.7798 26.2253 19.7792 26.2399 19.778C26.3758 19.7664 26.5015 19.7011 26.5892 19.5965L29.8601 15.6936C30.0421 15.4766 30.0135 15.1532 29.7965 14.9714C29.5796 14.7894 29.2562 14.8179 29.0743 15.035L26.1342 18.5429L24.7893 17.4039C24.5733 17.2208 24.2497 17.2477 24.0668 17.4638C23.8838 17.6799 23.9106 18.0034 24.1267 18.1863L25.8649 19.6584Z" fill="white"/>
<path d="M27.1638 24.34C28.9137 24.34 30.6635 23.6742 31.9957 22.3425C33.2856 21.0532 33.996 19.3384 33.996 17.5141C33.996 15.6899 33.2857 13.9747 31.9957 12.6842C30.5969 11.286 28.6644 10.5623 26.6945 10.7003C24.7159 10.8383 22.8982 11.8224 21.7077 13.4005C21.5372 13.6265 21.5821 13.9479 21.8081 14.1185C22.0343 14.2891 22.3557 14.2441 22.5263 14.018C23.538 12.6769 25.0833 11.8405 26.7659 11.7232C28.4395 11.6068 30.082 12.221 31.2706 13.4093C32.3669 14.5059 32.9706 15.9637 32.9706 17.5141C32.9706 19.0644 32.3669 20.5217 31.2709 21.6174C29.0062 23.8811 25.3215 23.881 23.0569 21.6174C21.5724 20.1335 21.0048 17.9553 21.5756 15.9326C21.6526 15.6601 21.494 15.3769 21.2215 15.3C20.9494 15.2231 20.6657 15.3816 20.5888 15.6541C19.9172 18.0337 20.5852 20.5966 22.332 22.3425C23.6641 23.6742 25.414 24.34 27.1638 24.34V24.34Z" fill="white"/>
<path d="M42.915 36.1102C42.7448 36.0131 42.5691 35.9133 42.3887 35.8053L41.0481 35.0014C41.6716 34.339 42.1385 33.5344 42.3224 32.7284C42.3784 32.4851 42.4071 32.2458 42.4071 32.0182V28.6248C42.4071 27.0813 41.2457 25.6881 39.4472 25.0763C37.8749 24.5417 36.3143 24.7899 35.4741 25.6867C34.6128 25.8385 33.4049 26.5214 33.4459 29.1662C33.4466 29.1895 33.4466 29.2086 33.4466 29.2236V32.0182C33.4466 32.2458 33.4753 32.4851 33.5313 32.7264C33.7146 33.533 34.1808 34.339 34.8056 35.0021L33.4876 35.7923C33.478 35.7971 33.4685 35.8032 33.4589 35.8087C33.2812 35.9153 33.1068 36.0145 32.9387 36.1102C32.4349 36.3966 31.944 36.6748 31.5653 37.0645L30.6206 36.4978C31.2447 35.8347 31.7116 35.0301 31.8955 34.2248C31.9502 33.9849 31.9782 33.7456 31.9782 33.5139V32.0059C31.9782 32.0055 31.9783 32.0052 31.9783 32.0048V30.1202C31.9783 28.5773 30.8174 27.185 29.0207 26.5731C27.4487 26.0378 25.8874 26.2854 25.0473 27.182C24.1854 27.3333 22.9771 28.0161 23.019 30.6607C23.0194 30.6846 23.0197 30.7041 23.0197 30.7188V31.3694V32.2954V33.5139C23.0197 33.7347 23.0471 33.9726 23.1024 34.2248C23.2863 35.0301 23.7532 35.8347 24.378 36.4978L23.4347 37.0645C23.0553 36.6748 22.5645 36.3959 22.06 36.1095C21.8897 36.0124 21.7141 35.9133 21.5343 35.8053L21.5206 35.7971C21.5192 35.7963 21.5179 35.7954 21.5166 35.7947L20.1935 35.002C20.8177 34.3392 21.2844 33.5347 21.4683 32.7285C21.5233 32.4903 21.5512 32.2514 21.5512 32.0184V30.5076V29.9323V28.625C21.5512 27.0817 20.3902 25.6891 18.5933 25.0771C17.021 24.5415 15.459 24.7894 14.6183 25.6867C13.757 25.8381 12.55 26.521 12.5919 29.1653C12.5923 29.1892 12.5927 29.2087 12.5927 29.2234V29.8723V30.7982V32.0184C12.5927 32.2514 12.6206 32.4903 12.6752 32.7271C12.8593 33.534 13.3262 34.3388 13.9502 35.0016L12.6091 35.8052C12.4296 35.9129 12.2541 36.0126 12.0843 36.1091C11.0125 36.7182 10 37.2935 10 38.9702V41.9821C10 42.0842 10 42.3951 10.2244 42.6155C10.4122 42.7999 10.6416 42.82 10.8158 42.82C10.8416 42.82 10.8662 42.8196 10.8893 42.8192C10.9137 42.8188 10.9393 42.8183 10.9661 42.8183H16.023C16.0233 42.8183 16.0237 42.8183 16.024 42.8183C16.0244 42.8183 16.0247 42.8183 16.0251 42.8183H17.0714H17.0717H18.115C18.1153 42.8183 18.1156 42.8183 18.1158 42.8183C18.1161 42.8183 18.1164 42.8183 18.1167 42.8183H20.4267V43.4773C20.4267 43.5798 20.4267 43.8915 20.6523 44.1123C20.8403 44.2969 21.0693 44.3174 21.2436 44.3174C21.2696 44.3174 21.2942 44.3167 21.3174 44.3167C21.3414 44.316 21.3667 44.3153 21.3933 44.3153H21.9839C22.267 44.3153 22.4966 44.0856 22.4966 43.8026C22.4966 43.5196 22.267 43.2899 21.9839 43.2899H21.4521V42.8183V41.7929V40.4653C21.4521 39.4283 21.9046 39.1303 23.0196 38.498C23.0367 38.4884 23.0538 38.4781 23.0715 38.4686C23.1426 38.4282 23.2144 38.3865 23.2882 38.3441L24.1434 38.8979L25.0246 39.4687C25.0321 39.4728 25.0396 39.4775 25.0471 39.4816C25.1087 39.5172 25.1627 39.5548 25.2153 39.5903C25.3226 39.6635 25.5277 39.8036 25.7758 39.8036C25.8784 39.8036 25.9884 39.7797 26.1019 39.7175L26.1723 39.9937L25.1729 42.1586C25.1722 42.16 25.1715 42.162 25.1709 42.1634C25.0854 42.3398 25.0991 42.5346 25.205 42.6952L25.5544 43.2899H24.3519C24.0689 43.2899 23.8392 43.5196 23.8392 43.8026C23.8392 44.0856 24.0689 44.3153 24.3519 44.3153H26.4499H26.4512H33.605C33.6317 44.3153 33.657 44.316 33.6809 44.3167C33.7042 44.3167 33.7288 44.3174 33.7547 44.3174C33.9297 44.3174 34.1594 44.2969 34.3481 44.1123C34.573 43.8915 34.573 43.5798 34.573 43.4773V42.8183H38.9699H38.9713H44.0339C44.0599 42.8183 44.0859 42.819 44.1098 42.819C44.1331 42.8196 44.1577 42.8203 44.1837 42.8203C44.358 42.8203 44.587 42.7998 44.775 42.6152C44.9999 42.3944 44.9999 42.0841 44.9999 41.9822V38.9703C45 37.2941 43.9876 36.7186 42.915 36.1102V36.1102ZM20.3013 36.2614L18.9979 37.1044C18.9441 37.1362 18.8963 37.1671 18.8538 37.1956L18.5736 36.8988C18.5689 36.8934 18.5638 36.8883 18.5589 36.8831L18.0918 36.3883C18.1421 36.3714 18.1931 36.3534 18.245 36.334C18.6417 36.1862 19.0268 35.9733 19.386 35.713L20.3013 36.2614ZM14.9254 26.6796C15.0681 26.667 15.1991 26.5953 15.2865 26.4818C15.8069 25.8066 17.0308 25.6281 18.2628 26.0477C19.3067 26.4033 20.5258 27.2916 20.5258 28.625V29.9324V29.995H20.31C19.8046 29.995 19.4783 29.7134 18.9877 29.2539C18.4354 28.7367 17.7481 28.0929 16.5546 28.0929H15.6361C14.5207 28.0929 14.3345 28.9993 14.2232 29.5408C14.0953 30.1635 14.0346 30.2856 13.6266 30.2856H13.6181V29.8724V29.2236C13.6181 29.2048 13.6177 29.1798 13.6172 29.1491C13.5926 27.589 14.0326 26.7581 14.9254 26.6796V26.6796ZM13.6747 32.4977C13.6371 32.3351 13.6181 32.1738 13.6181 32.0184V31.3109H13.6267C14.9064 31.3109 15.1153 30.2936 15.2276 29.7471C15.3569 29.1182 15.4105 29.1182 15.6362 29.1182H16.5547C17.343 29.1182 17.7805 29.5278 18.2869 30.0022C18.7964 30.4794 19.3739 31.0203 20.3101 31.0203H20.526V32.0184C20.526 32.1738 20.507 32.3351 20.469 32.4991C20.1972 33.6906 19.0873 34.9262 17.8866 35.3734C17.5785 35.4886 17.3197 35.5423 17.0721 35.5423C16.8245 35.5423 16.5657 35.4886 16.257 35.3731C15.0568 34.9262 13.9468 33.6907 13.6747 32.4977V32.4977ZM17.6213 37.3838L17.4548 38.0352H16.6856L16.5202 37.3864L17.072 36.8019L17.6213 37.3838ZM14.7579 35.7131C15.117 35.9734 15.5019 36.1862 15.8983 36.3338C15.9503 36.3533 16.0016 36.3714 16.0522 36.3885L15.2903 37.1954C15.2477 37.167 15.1996 37.136 15.1455 37.1042L13.8426 36.2616L14.7579 35.7131ZM14.7713 41.1897L15.1266 41.7929H11.0254V38.9702C11.0254 37.9316 11.4773 37.6334 12.591 37.0006C12.6789 36.9506 12.7685 36.8997 12.8598 36.847L14.598 37.9712C14.6047 37.9755 14.6114 37.9796 14.6182 37.9836C14.6797 38.0194 14.7338 38.0566 14.7862 38.0924C14.9029 38.1724 15.1054 38.3112 15.3499 38.3112C15.4521 38.3112 15.5617 38.2866 15.6754 38.2236L15.7454 38.4982L14.7464 40.6628C14.6606 40.8339 14.6701 41.028 14.7713 41.1897V41.1897ZM17.8234 41.7929H17.0723C17.0722 41.7929 17.0721 41.7929 17.072 41.7929H16.3167L15.7771 40.8767L16.6153 39.0606H17.5249L18.3632 40.8767L17.8234 41.7929ZM20.4269 40.4653V41.7929H19.0135L19.3688 41.1898C19.4699 41.0283 19.4795 40.8344 19.3938 40.6631L18.3947 38.4985L18.4654 38.222C18.5803 38.2862 18.691 38.3114 18.7943 38.3114C19.0398 38.3114 19.2432 38.1717 19.3603 38.0912C19.4123 38.0556 19.4659 38.0187 19.5267 37.9831C19.5332 37.9793 19.5396 37.9753 19.5458 37.9713L21.2841 36.8471C21.3755 36.8999 21.465 36.9508 21.5527 37.001C21.9553 37.23 22.2711 37.4146 22.5111 37.6074C21.4393 38.2156 20.4269 38.7912 20.4269 40.4653V40.4653ZM41.1555 36.2619L39.8546 37.1041C39.7999 37.1362 39.7514 37.1677 39.7083 37.1964L39.428 36.899C39.4226 36.8929 39.4157 36.886 39.4096 36.8799L38.9461 36.3884C38.9967 36.372 39.0473 36.3535 39.0992 36.3344C39.4957 36.186 39.8806 35.9734 40.2401 35.713L41.1555 36.2619ZM35.7811 26.6793C35.9239 26.667 36.0552 26.5952 36.1427 26.4817C36.6622 25.807 37.8852 25.6279 39.117 26.047C40.1615 26.4031 41.3817 27.2911 41.3817 28.6248V29.9947H41.1644C40.6592 29.9947 40.3331 29.7138 39.843 29.2544C39.2906 28.7369 38.6036 28.093 37.4087 28.093H36.4899C35.3743 28.093 35.1884 28.9994 35.0776 29.5415C34.9498 30.1636 34.8896 30.2853 34.4829 30.2853H34.472V29.2236C34.472 29.2052 34.472 29.1799 34.4713 29.1498C34.4474 27.5892 34.8876 26.7579 35.7811 26.6793V26.6793ZM34.5308 32.4981C34.4918 32.3299 34.472 32.1686 34.472 32.0182V31.3107H34.4829C35.7612 31.3107 35.9697 30.2935 36.0818 29.7473C36.211 29.1184 36.2644 29.1184 36.4899 29.1184H37.4087C38.1982 29.1184 38.6357 29.5278 39.1416 30.0023C39.6509 30.4794 40.2278 31.0201 41.1644 31.0201H41.3817V32.0182C41.3817 32.1686 41.3619 32.3299 41.3229 32.4994C41.0516 33.6909 39.9414 34.9262 38.7396 35.3739C38.4341 35.4888 38.1757 35.5421 37.9262 35.5421C37.678 35.5421 37.4203 35.4888 37.1127 35.3732C35.9109 34.9255 34.8008 33.6902 34.5308 32.4981V32.4981ZM38.4758 37.3844L38.3104 38.0352H37.5399L37.3745 37.3864L37.9262 36.802L38.4758 37.3844ZM35.6129 35.7137C35.9718 35.9734 36.3566 36.186 36.7531 36.3337C36.8051 36.3528 36.8563 36.3713 36.9069 36.3884L36.1447 37.195C36.1017 37.167 36.0538 37.1362 35.9998 37.1041L34.6982 36.2612L35.6129 35.7137ZM30.7293 37.7583L29.4284 38.6012C29.3737 38.6326 29.3252 38.6641 29.2821 38.6921L28.5192 37.8855C28.5698 37.8684 28.6204 37.8506 28.6724 37.8315C29.0695 37.6831 29.4544 37.4698 29.814 37.2087L30.7293 37.7583ZM25.3542 28.1749C25.497 28.1624 25.628 28.0907 25.7155 27.9771C26.2353 27.3025 27.4583 27.1244 28.6902 27.5438C29.734 27.8993 30.9529 28.7873 30.9529 30.1203V31.4266C30.9529 31.4269 30.9528 31.4273 30.9528 31.4275V31.4922H30.737C30.232 31.4922 29.906 31.2108 29.416 30.7515C28.8638 30.2341 28.1766 29.5901 26.9817 29.5901H26.0632C24.9475 29.5901 24.7615 30.4969 24.6504 31.0387C24.5228 31.6608 24.4624 31.7827 24.0557 31.7827H24.0452V31.3694V30.7188C24.0452 30.7 24.0448 30.675 24.0443 30.6445C24.0196 29.0843 24.4603 28.2535 25.3542 28.1749V28.1749ZM24.1032 34.0006C24.0649 33.8249 24.0451 33.6615 24.0451 33.5139V32.8081H24.0556C25.3342 32.8081 25.5428 31.7911 25.6549 31.2446C25.7839 30.6154 25.8376 30.6154 26.0632 30.6154H26.9817C27.7712 30.6154 28.2085 31.0252 28.7149 31.4997C29.224 31.9767 29.8011 32.5175 30.7371 32.5175H30.9529V33.5138C30.9529 33.669 30.9338 33.831 30.8962 33.9957C30.6241 35.1859 29.5139 36.4218 28.3149 36.8703C28.0032 36.9858 27.7441 37.0398 27.4994 37.0398C27.256 37.0398 26.9963 36.9858 26.6845 36.8703C25.4841 36.4219 24.3739 35.1859 24.1032 34.0006V34.0006ZM28.0489 38.8801L27.8835 39.5309H27.1124L26.9477 38.8821L27.4993 38.2983L28.0489 38.8801ZM25.7165 38.6914C25.6741 38.6634 25.6263 38.6326 25.5716 38.6012L24.2707 37.7583L25.1847 37.2087C25.5449 37.4698 25.9305 37.6831 26.3276 37.8321C26.3789 37.8506 26.4295 37.8684 26.4794 37.8848L25.7165 38.6914ZM28.2506 43.2899H26.7439L26.2046 42.3719L27.042 40.5563H27.9539L28.7906 42.3732L28.2506 43.2899ZM33.5478 43.2899H29.4407L29.7962 42.687C29.8953 42.5271 29.9063 42.3343 29.8229 42.1634C29.8222 42.162 29.8215 42.16 29.8208 42.1586L28.8234 39.9937L28.8938 39.7189C29.008 39.7824 29.1187 39.8077 29.2213 39.8077C29.4653 39.8077 29.6677 39.6696 29.7846 39.5903C29.8372 39.5541 29.8912 39.5172 29.9527 39.4816C29.9603 39.4775 29.9678 39.4728 29.9753 39.4687L31.7116 38.3441C31.7841 38.3865 31.8565 38.4275 31.927 38.4679C31.9454 38.4781 31.9639 38.4891 31.9823 38.4993C33.0959 39.1316 33.5478 39.4297 33.5478 40.4653V43.2899ZM35.632 41.1982L35.982 41.7929H34.5731V40.4653C34.5731 38.7912 33.5607 38.2163 32.4889 37.6072C32.4889 37.6072 32.4882 37.6072 32.4882 37.6066C32.7274 37.4145 33.0433 37.2292 33.4452 37.0016C33.5334 36.951 33.6236 36.9004 33.7152 36.8471L35.4522 37.9709C35.4584 37.9757 35.4652 37.9798 35.4721 37.9839C35.5336 38.0194 35.5876 38.0564 35.6402 38.0919C35.7482 38.1657 35.9547 38.3072 36.2049 38.3072C36.3067 38.3072 36.4161 38.2833 36.5289 38.2218L36.5993 38.498L35.6006 40.6629C35.5999 40.6636 35.5999 40.6636 35.5999 40.6643C35.5124 40.8406 35.5247 41.0361 35.632 41.1982V41.1982ZM38.6774 41.7929H37.1715L36.6321 40.8755L37.4695 39.0606H38.3808L39.2182 40.8748L38.6774 41.7929ZM43.9746 41.7929H39.8676L40.2224 41.1899C40.3181 41.0382 40.3331 40.8598 40.2634 40.6943C40.2593 40.6841 40.2545 40.6732 40.2497 40.6629L39.2503 38.498L39.3207 38.2225C39.4349 38.286 39.5456 38.3113 39.6488 38.3113C39.8936 38.3113 40.0973 38.1719 40.2142 38.0919C40.2661 38.0564 40.3201 38.0194 40.3816 37.9839C40.3885 37.9798 40.3953 37.9757 40.4021 37.9709L42.1385 36.8471C42.2301 36.9004 42.3203 36.951 42.4085 37.0016C43.5228 37.6339 43.9746 37.9319 43.9746 38.9703V41.7929Z" fill="white"/>
</g>
<defs>
<clipPath id="clip0">
<rect width="35" height="35" fill="white" transform="translate(10 10)"/>
</clipPath>
</defs>
</svg>
