<svg width="42" height="42" viewBox="0 0 42 42" fill="none" xmlns="http://www.w3.org/2000/svg">
<circle cx="21" cy="21" r="21" fill="#4051B6"/>
<g clip-path="url(#clip0)">
<path d="M30.125 12.75C30.1238 11.784 29.341 11.0012 28.375 11H14.375C13.409 11.0012 12.6262 11.784 12.625 12.75V25C12.625 25.1933 12.7817 25.35 12.975 25.35C13.1683 25.35 13.325 25.1933 13.325 25V12.75C13.325 12.1701 13.7951 11.7 14.375 11.7H28.375C28.9549 11.7 29.425 12.1701 29.425 12.75V26.4H26.975C26.009 26.4012 25.2262 27.184 25.225 28.15V30.6H18.575C18.3817 30.6 18.225 30.7567 18.225 30.95C18.225 31.1433 18.3817 31.3 18.575 31.3H25.575C25.6678 31.3 25.7568 31.2631 25.8225 31.1975L30.0225 26.9975C30.0881 26.9318 30.125 26.8428 30.125 26.75V12.75ZM26.975 27.1H28.9301L25.925 30.1051V28.15C25.925 27.5701 26.3951 27.1 26.975 27.1Z" fill="white"/>
<path d="M10.875 27.7999C10.874 28.1714 11.0217 28.5279 11.2852 28.7897L14.0852 31.5897C14.3472 31.853 14.7036 32.0007 15.075 31.9999C15.1121 31.9999 15.1496 31.9999 15.1877 31.9954C15.5971 31.9626 15.9714 31.7514 16.2111 31.4179L22.5111 22.6679C22.8099 22.2623 22.8678 21.7274 22.6625 21.2672C22.4573 20.8071 22.0207 20.4927 21.5192 20.4441C21.0177 20.3954 20.5288 20.6199 20.2389 21.032L19.7972 21.6455C19.7211 21.7469 19.7057 21.8815 19.757 21.9974C19.8083 22.1132 19.9182 22.1924 20.0444 22.2042C20.1706 22.216 20.2933 22.1587 20.3653 22.0543L20.807 21.4411C20.9508 21.2324 21.1962 21.1178 21.4486 21.1415C21.701 21.1651 21.9208 21.3233 22.0234 21.5551C22.126 21.7869 22.0953 22.0561 21.9431 22.2587L15.6431 31.0087C15.5235 31.1755 15.3366 31.2812 15.1321 31.2975C14.9274 31.3135 14.7258 31.2395 14.5801 31.0948L11.7801 28.2948C11.5068 28.0215 11.5068 27.5784 11.7801 27.305C12.057 27.0405 12.493 27.0405 12.7699 27.305L14.697 29.2318C14.7692 29.305 14.8703 29.3422 14.9728 29.3333C15.075 29.325 15.1684 29.2723 15.2283 29.1891L19.3583 23.4543C19.4344 23.353 19.4498 23.2184 19.3985 23.1025C19.3472 22.9866 19.2373 22.9075 19.1111 22.8957C18.9849 22.8839 18.8622 22.9412 18.7903 23.0455L14.9 28.446L13.2652 26.8101C12.7109 26.2819 11.8395 26.2819 11.2852 26.8101C11.0217 27.072 10.874 27.4285 10.875 27.7999Z" fill="white"/>
<path d="M15.7751 13.1006H15.0751C14.8818 13.1006 14.7251 13.2573 14.7251 13.4506C14.7251 13.6439 14.8818 13.8006 15.0751 13.8006H15.7751C15.9684 13.8006 16.1251 13.6439 16.1251 13.4506C16.1251 13.2573 15.9684 13.1006 15.7751 13.1006Z" fill="white"/>
<path d="M27.6747 13.1006H17.1747C16.9814 13.1006 16.8247 13.2573 16.8247 13.4506C16.8247 13.6439 16.9814 13.8006 17.1747 13.8006H27.6747C27.868 13.8006 28.0247 13.6439 28.0247 13.4506C28.0247 13.2573 27.868 13.1006 27.6747 13.1006Z" fill="white"/>
<path d="M15.7751 15.1992H15.0751C14.8818 15.1992 14.7251 15.3559 14.7251 15.5492C14.7251 15.7425 14.8818 15.8992 15.0751 15.8992H15.7751C15.9684 15.8992 16.1251 15.7425 16.1251 15.5492C16.1251 15.3559 15.9684 15.1992 15.7751 15.1992Z" fill="white"/>
<path d="M17.1747 15.8992H25.2247C25.418 15.8992 25.5747 15.7425 25.5747 15.5492C25.5747 15.3559 25.418 15.1992 25.2247 15.1992H17.1747C16.9814 15.1992 16.8247 15.3559 16.8247 15.5492C16.8247 15.7425 16.9814 15.8992 17.1747 15.8992Z" fill="white"/>
<path d="M15.7751 17.3008H15.0751C14.8818 17.3008 14.7251 17.4575 14.7251 17.6508C14.7251 17.8441 14.8818 18.0008 15.0751 18.0008H15.7751C15.9684 18.0008 16.1251 17.8441 16.1251 17.6508C16.1251 17.4575 15.9684 17.3008 15.7751 17.3008Z" fill="white"/>
<path d="M17.1747 18.0008H22.7747C22.968 18.0008 23.1247 17.8441 23.1247 17.6508C23.1247 17.4575 22.968 17.3008 22.7747 17.3008H17.1747C16.9814 17.3008 16.8247 17.4575 16.8247 17.6508C16.8247 17.8441 16.9814 18.0008 17.1747 18.0008Z" fill="white"/>
<path d="M28.7254 18.35C28.7254 18.1567 28.5687 18 28.3754 18C28.1821 18 28.0254 18.1567 28.0254 18.35V23.25C28.0254 23.4433 28.1821 23.6 28.3754 23.6C28.5687 23.6 28.7254 23.4433 28.7254 23.25V18.35Z" fill="white"/>
<path d="M28.3754 24.2998C28.1821 24.2998 28.0254 24.4565 28.0254 24.6498V25.3498C28.0254 25.5431 28.1821 25.6998 28.3754 25.6998C28.5687 25.6998 28.7254 25.5431 28.7254 25.3498V24.6498C28.7254 24.4565 28.5687 24.2998 28.3754 24.2998Z" fill="white"/>
</g>
<defs>
<clipPath id="clip0">
<rect width="21" height="21" fill="white" transform="translate(10 11)"/>
</clipPath>
</defs>
</svg>
