<svg width="56" height="57" viewBox="0 0 56 57" fill="none" xmlns="http://www.w3.org/2000/svg">
<path d="M54.5 28.5C54.5 43.4368 42.6106 55.5 28 55.5C13.3894 55.5 1.5 43.4368 1.5 28.5C1.5 13.5632 13.3894 1.5 28 1.5C42.6106 1.5 54.5 13.5632 54.5 28.5Z" fill="#4051B6" stroke="#556CE7" stroke-width="3"/>
<path d="M42.0362 32.0336L39.7264 27.4968C39.6163 27.2807 39.3943 27.1445 39.1517 27.1445H27.5005H15.8492C15.6066 27.1445 15.3846 27.2807 15.2745 27.4968L12.9647 32.0336C12.863 32.2336 12.8724 32.472 12.9896 32.6632C13.1068 32.8545 13.3151 32.971 13.5393 32.971H14.3442V44.3538C14.3442 44.7099 14.6329 44.9986 14.9891 44.9986H40.0098C40.366 44.9986 40.6547 44.7099 40.6547 44.3538V32.9711H41.4615C41.6858 32.9711 41.894 32.8545 42.0112 32.6633C42.1286 32.472 42.138 32.2336 42.0362 32.0336V32.0336ZM38.7564 28.4342L40.4096 31.6813H30.2056L28.5524 28.4342H38.7564ZM16.2446 28.4342H26.4486L24.7954 31.6813H14.5914L16.2446 28.4342ZM39.3651 43.7089H28.1454V40.135C28.1454 39.7789 27.8567 39.4901 27.5005 39.4901C27.1444 39.4901 26.8557 39.7789 26.8557 40.135V43.7089H15.6341V32.9711H25.1907C25.4333 32.9711 25.6553 32.835 25.7654 32.6188L26.8557 30.4773V34.3442C26.8557 34.7003 27.1444 34.9891 27.5005 34.9891C27.8567 34.9891 28.1454 34.7003 28.1454 34.3442V30.4773L29.2356 32.6188C29.3457 32.835 29.5677 32.9711 29.8103 32.9711H39.3651V43.7089Z" fill="white"/>
<path d="M21.9847 40.1797H18.3128C17.9567 40.1797 17.668 40.4685 17.668 40.8245C17.668 41.1806 17.9567 41.4694 18.3128 41.4694H21.9847C22.3409 41.4694 22.6296 41.1806 22.6296 40.8245C22.6296 40.4685 22.3409 40.1797 21.9847 40.1797Z" fill="white"/>
<path d="M27.5021 25.2497C31.1509 25.2497 34.1196 22.2773 34.1196 18.6239C34.1195 14.9715 31.1509 12 27.5021 12C23.8522 12 20.8828 14.9715 20.8828 18.6239C20.8828 22.2773 23.8522 25.2497 27.5021 25.2497ZM27.5021 13.2897C30.4398 13.2897 32.8299 15.6826 32.8299 18.6239C32.8299 21.5663 30.4398 23.9599 27.5021 23.9599C24.5634 23.9599 22.1725 21.5663 22.1725 18.6239C22.1725 15.6826 24.5633 13.2897 27.5021 13.2897V13.2897Z" fill="white"/>
<path d="M24.6107 19.5931L26.3271 21.048C26.444 21.1471 26.5919 21.2009 26.744 21.2009C26.7624 21.2009 26.7807 21.2002 26.7991 21.1986C26.9703 21.1839 27.1284 21.1016 27.2387 20.9699L30.4687 17.1094C30.6973 16.8363 30.6611 16.4296 30.388 16.201C30.1148 15.9726 29.7082 16.0087 29.4796 16.2818L26.666 19.6445L25.4447 18.6092C25.1731 18.3789 24.7661 18.4123 24.5359 18.6841C24.3055 18.9559 24.339 19.3627 24.6107 19.5931V19.5931Z" fill="white"/>
<path d="M14.8324 19.2702H17.6224C17.9785 19.2702 18.2672 18.9814 18.2672 18.6253C18.2672 18.2692 17.9785 17.9805 17.6224 17.9805H14.8324C14.4762 17.9805 14.1875 18.2692 14.1875 18.6253C14.1875 18.9814 14.4762 19.2702 14.8324 19.2702V19.2702Z" fill="white"/>
<path d="M14.5316 14.7817L17.3217 16.2532C17.4176 16.3039 17.5205 16.3278 17.622 16.3278C17.8535 16.3278 18.0774 16.2028 18.1929 15.9837C18.359 15.6687 18.2384 15.2786 17.9234 15.1125L15.1333 13.641C14.8184 13.4749 14.4282 13.5955 14.2621 13.9106C14.096 14.2256 14.2166 14.6156 14.5316 14.7817V14.7817Z" fill="white"/>
<path d="M14.2619 23.337C14.3774 23.5562 14.6013 23.6815 14.833 23.6815C14.9343 23.6815 15.0372 23.6575 15.133 23.607L17.923 22.1374C18.2381 21.9714 18.359 21.5814 18.193 21.2664C18.027 20.9512 17.637 20.8304 17.3219 20.9963L14.5319 22.4659C14.2168 22.6319 14.096 23.0219 14.2619 23.337V23.337Z" fill="white"/>
<path d="M37.3753 19.2702H40.1653C40.5215 19.2702 40.8102 18.9814 40.8102 18.6253C40.8102 18.2692 40.5215 17.9805 40.1653 17.9805H37.3753C37.0192 17.9805 36.7305 18.2692 36.7305 18.6253C36.7305 18.9814 37.0192 19.2702 37.3753 19.2702Z" fill="white"/>
<path d="M37.3759 16.3279C37.4774 16.3279 37.5803 16.3039 37.6763 16.2533L40.4663 14.7818C40.7813 14.6157 40.9019 14.2256 40.7358 13.9106C40.5696 13.5956 40.1796 13.4748 39.8646 13.6411L37.0746 15.1125C36.7596 15.2787 36.6389 15.6687 36.8051 15.9837C36.9206 16.2029 37.1444 16.3279 37.3759 16.3279Z" fill="white"/>
<path d="M37.0749 22.1375L39.8649 23.6071C39.9608 23.6576 40.0636 23.6815 40.1649 23.6815C40.3966 23.6815 40.6205 23.5563 40.736 23.337C40.902 23.0219 40.7811 22.6319 40.466 22.4659L37.676 20.9963C37.3608 20.8303 36.9709 20.9512 36.8049 21.2664C36.6389 21.5815 36.7598 21.9715 37.0749 22.1375V22.1375Z" fill="white"/>
<path d="M27.5003 36.5977C27.1442 36.5977 26.8555 36.8864 26.8555 37.2425V37.2462C26.8555 37.6023 27.1442 37.8892 27.5003 37.8892C27.8565 37.8892 28.1452 37.5987 28.1452 37.2426C28.1452 36.8865 27.8565 36.5977 27.5003 36.5977Z" fill="white"/>
</svg>
