<svg width="56" height="57" viewBox="0 0 56 57" fill="none" xmlns="http://www.w3.org/2000/svg">
<path d="M54.5 28.5C54.5 43.4368 42.6106 55.5 28 55.5C13.3894 55.5 1.5 43.4368 1.5 28.5C1.5 13.5632 13.3894 1.5 28 1.5C42.6106 1.5 54.5 13.5632 54.5 28.5Z" fill="#4051B6" stroke="#556CE7" stroke-width="3"/>
<g clip-path="url(#clip0)">
<path d="M35.9587 44.0001C31.5747 44.0001 26.917 42.5974 26.917 40.0001C26.917 39.6321 27.2063 39.3334 27.5628 39.3334C27.9193 39.3334 28.2087 39.6321 28.2087 40.0001C28.2087 41.1134 31.1562 42.6668 35.9587 42.6668C40.7611 42.6668 43.7087 41.1134 43.7087 40.0001C43.7087 39.6321 43.998 39.3334 44.3545 39.3334C44.711 39.3334 45.0003 39.6321 45.0003 40.0001C45.0003 42.5974 40.3426 44.0001 35.9587 44.0001Z" fill="white"/>
<path d="M35.9587 40.0001C31.5747 40.0001 26.917 38.5974 26.917 36.0001C26.917 35.6321 27.2063 35.3334 27.5628 35.3334C27.9193 35.3334 28.2087 35.6321 28.2087 36.0001C28.2087 37.1134 31.1562 38.6668 35.9587 38.6668C40.7611 38.6668 43.7087 37.1134 43.7087 36.0001C43.7087 35.6321 43.998 35.3334 44.3545 35.3334C44.711 35.3334 45.0003 35.6321 45.0003 36.0001C45.0003 38.5974 40.3426 40.0001 35.9587 40.0001Z" fill="white"/>
<path d="M35.9587 36C31.5747 36 26.917 34.5973 26.917 32C26.917 29.4027 31.5747 28 35.9587 28C40.3426 28 45.0003 29.4027 45.0003 32C45.0003 34.5973 40.3426 36 35.9587 36ZM35.9587 29.3333C31.1562 29.3333 28.2087 30.8867 28.2087 32C28.2087 33.1133 31.1562 34.6667 35.9587 34.6667C40.7611 34.6667 43.7087 33.1133 43.7087 32C43.7087 30.8867 40.7611 29.3333 35.9587 29.3333Z" fill="white"/>
<path d="M44.3539 40.6668C43.9973 40.6668 43.708 40.3681 43.708 40.0001V32.0001C43.708 31.6321 43.9973 31.3334 44.3539 31.3334C44.7104 31.3334 44.9997 31.6321 44.9997 32.0001V40.0001C44.9997 40.3681 44.7104 40.6668 44.3539 40.6668Z" fill="white"/>
<path d="M27.5628 40.6668C27.2063 40.6668 26.917 40.3681 26.917 40.0001V32.0001C26.917 31.6321 27.2063 31.3334 27.5628 31.3334C27.9193 31.3334 28.2087 31.6321 28.2087 32.0001V40.0001C28.2087 40.3681 27.9193 40.6668 27.5628 40.6668Z" fill="white"/>
<path d="M23.0417 28C18.6578 28 14 26.5974 14 24C14 23.632 14.2893 23.3334 14.6458 23.3334C15.0023 23.3334 15.2917 23.632 15.2917 24C15.2917 25.1134 18.2393 26.6667 23.0417 26.6667C27.8441 26.6667 30.7917 25.1134 30.7917 24C30.7917 23.632 31.081 23.3334 31.4375 23.3334C31.794 23.3334 32.0833 23.632 32.0833 24C32.0833 26.5974 27.4256 28 23.0417 28Z" fill="white"/>
<path d="M23.0417 24C18.6578 24 14 22.5974 14 20C14 19.632 14.2893 19.3334 14.6458 19.3334C15.0023 19.3334 15.2917 19.632 15.2917 20C15.2917 21.1134 18.2393 22.6667 23.0417 22.6667C27.8441 22.6667 30.7917 21.1134 30.7917 20C30.7917 19.632 31.081 19.3334 31.4375 19.3334C31.794 19.3334 32.0833 19.632 32.0833 20C32.0833 22.5974 27.4256 24 23.0417 24Z" fill="white"/>
<path d="M23.0417 36.0001C18.6578 36.0001 14 34.5974 14 32.0001C14 31.6321 14.2893 31.3334 14.6458 31.3334C15.0023 31.3334 15.2917 31.6321 15.2917 32.0001C15.2917 33.1134 18.2393 34.6668 23.0417 34.6668C23.7443 34.6668 24.3566 34.6374 24.9107 34.5774C25.2608 34.5374 25.5837 34.8041 25.6211 35.1694C25.6586 35.5348 25.4015 35.8641 25.0476 35.9028C24.4457 35.9694 23.7895 36.0001 23.0417 36.0001V36.0001Z" fill="white"/>
<path d="M23.0417 40.0001C18.6578 40.0001 14 38.5974 14 36.0001C14 35.6321 14.2893 35.3334 14.6458 35.3334C15.0023 35.3334 15.2917 35.6321 15.2917 36.0001C15.2917 37.1134 18.2393 38.6668 23.0417 38.6668C23.7443 38.6668 24.3566 38.6374 24.9107 38.5774C25.2608 38.5308 25.5837 38.8041 25.6211 39.1694C25.6586 39.5348 25.4015 39.8641 25.0476 39.9028C24.4457 39.9694 23.7895 40.0001 23.0417 40.0001V40.0001Z" fill="white"/>
<path d="M23.0417 32C18.6578 32 14 30.5974 14 28C14 27.632 14.2893 27.3334 14.6458 27.3334C15.0023 27.3334 15.2917 27.632 15.2917 28C15.2917 29.1134 18.2393 30.6667 23.0417 30.6667C23.7443 30.6667 24.3566 30.6374 24.9107 30.5774C25.2608 30.5347 25.5837 30.8027 25.6211 31.1694C25.6586 31.5347 25.4015 31.864 25.0476 31.9027C24.4457 31.9694 23.7895 32 23.0417 32V32Z" fill="white"/>
<path d="M23.0417 20C18.6578 20 14 18.5973 14 16C14 13.4027 18.6578 12 23.0417 12C27.4256 12 32.0833 13.4027 32.0833 16C32.0833 18.5973 27.4256 20 23.0417 20ZM23.0417 13.3333C18.2393 13.3333 15.2917 14.8867 15.2917 16C15.2917 17.1133 18.2393 18.6667 23.0417 18.6667C27.8441 18.6667 30.7917 17.1133 30.7917 16C30.7917 14.8867 27.8441 13.3333 23.0417 13.3333Z" fill="white"/>
<path d="M14.6458 36.6667C14.2893 36.6667 14 36.368 14 36V16C14 15.632 14.2893 15.3334 14.6458 15.3334C15.0023 15.3334 15.2917 15.632 15.2917 16V36C15.2917 36.368 15.0023 36.6667 14.6458 36.6667Z" fill="white"/>
<path d="M31.4378 24.6667C31.0813 24.6667 30.792 24.368 30.792 24V16C30.792 15.632 31.0813 15.3334 31.4378 15.3334C31.7943 15.3334 32.0837 15.632 32.0837 16V24C32.0837 24.368 31.7943 24.6667 31.4378 24.6667Z" fill="white"/>
</g>
<defs>
<clipPath id="clip0">
<rect width="31" height="32" fill="white" transform="translate(14 12)"/>
</clipPath>
</defs>
</svg>
