<svg width="18" height="18" viewBox="0 0 18 18" fill="none" xmlns="http://www.w3.org/2000/svg">
<path d="M15.3679 2.63606C11.8583 -0.873479 6.14604 -0.873479 2.6365 2.63606C0.936466 4.33676 0 6.59744 0 9.00173C0 11.406 0.936466 13.6667 2.6365 15.3667C4.39162 17.1218 6.69691 17.999 9.00216 17.999C11.3074 17.999 13.6127 17.1218 15.3678 15.3667C18.8774 11.8572 18.8774 6.14627 15.3679 2.63606ZM14.3819 14.3807C11.4155 17.3471 6.5888 17.3471 3.62247 14.3807C2.18604 12.9443 1.39459 11.0337 1.39459 9.00173C1.39459 6.96978 2.18604 5.05916 3.62247 3.62203C6.5888 0.655692 11.4155 0.656395 14.3819 3.62203C17.3475 6.58837 17.3475 11.4151 14.3819 14.3807Z" fill="#DA1919"/>
<path d="M12.0083 10.9273L10.0342 8.95604L12.0083 6.98478C12.2802 6.71284 12.2802 6.27145 12.009 5.99878C11.7363 5.72543 11.2949 5.72614 11.0223 5.99807L9.04684 7.97074L7.07139 5.99807C6.79875 5.72614 6.35736 5.72543 6.08472 5.99878C5.81279 6.27142 5.81279 6.71281 6.08543 6.98478L8.0595 8.95604L6.08543 10.9273C5.81279 11.1992 5.81279 11.6406 6.08472 11.9133C6.22071 12.05 6.3999 12.1176 6.57843 12.1176C6.75695 12.1176 6.93544 12.0493 7.07143 11.914L9.04688 9.9413L11.0223 11.914C11.1583 12.05 11.3368 12.1176 11.5153 12.1176C11.6939 12.1176 11.873 12.0493 12.009 11.9133C12.2809 11.6406 12.2809 11.1992 12.0083 10.9273Z" fill="#DA1919"/>
</svg>
