<svg width="18" height="18" viewBox="0 0 18 18" fill="none" xmlns="http://www.w3.org/2000/svg">
<path d="M9 0C4.0374 0 0 4.0374 0 9C0 13.9626 4.0374 18 9 18C13.9626 18 18 13.9626 18 9C18 4.0374 13.9626 0 9 0ZM9 16.3636C4.93964 16.3636 1.63636 13.0603 1.63636 9C1.63636 4.93969 4.93964 1.63636 9 1.63636C13.0604 1.63636 16.3636 4.93969 16.3636 9C16.3636 13.0603 13.0603 16.3636 9 16.3636Z" fill="#92CD59"/>
<path d="M12.3749 5.81774L7.74651 10.4461L5.62523 8.32476C5.30576 8.00529 4.78769 8.00523 4.46816 8.32471C4.14863 8.64423 4.14863 9.16225 4.46816 9.48178L7.16794 12.1817C7.32138 12.3351 7.52947 12.4213 7.74645 12.4213C7.74651 12.4213 7.74645 12.4213 7.74651 12.4213C7.96349 12.4213 8.17158 12.3351 8.32502 12.1817L13.532 6.97487C13.8515 6.65534 13.8515 6.13732 13.532 5.8178C13.2125 5.49827 12.6944 5.49822 12.3749 5.81774Z" fill="#92CD59"/>
</svg>
