<svg width="56" height="57" viewBox="0 0 56 57" fill="none" xmlns="http://www.w3.org/2000/svg">
<path d="M54.5 28.5C54.5 43.4368 42.6106 55.5 28 55.5C13.3894 55.5 1.5 43.4368 1.5 28.5C1.5 13.5632 13.3894 1.5 28 1.5C42.6106 1.5 54.5 13.5632 54.5 28.5Z" fill="#4051B6" stroke="#556CE7" stroke-width="3"/>
<path d="M28.1638 24.34C29.9137 24.34 31.6635 23.6742 32.9957 22.3425C34.2856 21.0532 34.996 19.3384 34.996 17.5141C34.996 15.6899 34.2857 13.9747 32.9957 12.6842C31.5969 11.286 29.6644 10.5623 27.6945 10.7003C25.7159 10.8383 23.8982 11.8224 22.7077 13.4005C22.5372 13.6265 22.5821 13.9479 22.8081 14.1185C23.0343 14.2891 23.3557 14.2441 23.5263 14.018C24.538 12.6769 26.0833 11.8405 27.7659 11.7232C29.4395 11.6068 31.082 12.221 32.2706 13.4093C33.3669 14.5059 33.9706 15.9637 33.9706 17.5141C33.9706 19.0644 33.3669 20.5217 32.2709 21.6174C30.0062 23.8811 26.3215 23.881 24.0569 21.6174C22.5724 20.1335 22.0048 17.9553 22.5756 15.9326C22.6526 15.6601 22.494 15.3769 22.2215 15.3C21.9494 15.2231 21.6657 15.3816 21.5888 15.6541C20.9172 18.0337 21.5852 20.5966 23.332 22.3425C24.6641 23.6742 26.414 24.34 28.1638 24.34V24.34Z" fill="white"/>
<path d="M43.915 36.1102C43.7448 36.0131 43.5691 35.9133 43.3887 35.8053L42.0481 35.0014C42.6716 34.339 43.1385 33.5344 43.3224 32.7284C43.3784 32.4851 43.4071 32.2458 43.4071 32.0182V28.6248C43.4071 27.0813 42.2457 25.6881 40.4472 25.0763C38.8749 24.5417 37.3143 24.7899 36.4741 25.6867C35.6128 25.8385 34.4049 26.5214 34.4459 29.1662C34.4466 29.1895 34.4466 29.2086 34.4466 29.2236V32.0182C34.4466 32.2458 34.4753 32.4851 34.5313 32.7264C34.7146 33.533 35.1808 34.339 35.8056 35.0021L34.4876 35.7923C34.478 35.7971 34.4685 35.8032 34.4589 35.8087C34.2812 35.9153 34.1068 36.0145 33.9387 36.1102C33.4349 36.3966 32.944 36.6748 32.5653 37.0645L31.6206 36.4978C32.2447 35.8347 32.7116 35.0301 32.8955 34.2248C32.9502 33.9849 32.9782 33.7456 32.9782 33.5139V32.0059C32.9782 32.0055 32.9783 32.0052 32.9783 32.0048V30.1202C32.9783 28.5773 31.8174 27.185 30.0207 26.5731C28.4487 26.0378 26.8874 26.2854 26.0473 27.182C25.1854 27.3333 23.9771 28.0161 24.019 30.6607C24.0194 30.6846 24.0197 30.7041 24.0197 30.7188V31.3694V32.2954V33.5139C24.0197 33.7347 24.0471 33.9726 24.1024 34.2248C24.2863 35.0301 24.7532 35.8347 25.378 36.4978L24.4347 37.0645C24.0553 36.6748 23.5645 36.3959 23.06 36.1095C22.8897 36.0124 22.7141 35.9133 22.5343 35.8053L22.5206 35.7971C22.5192 35.7963 22.5179 35.7954 22.5166 35.7947L21.1935 35.002C21.8177 34.3392 22.2844 33.5347 22.4683 32.7285C22.5233 32.4903 22.5512 32.2514 22.5512 32.0184V30.5076V29.9323V28.625C22.5512 27.0817 21.3902 25.6891 19.5933 25.0771C18.021 24.5415 16.459 24.7894 15.6183 25.6867C14.757 25.8381 13.55 26.521 13.5919 29.1653C13.5923 29.1892 13.5927 29.2087 13.5927 29.2234V29.8723V30.7982V32.0184C13.5927 32.2514 13.6206 32.4903 13.6752 32.7271C13.8593 33.534 14.3262 34.3388 14.9502 35.0016L13.6091 35.8052C13.4296 35.9129 13.2541 36.0126 13.0843 36.1091C12.0125 36.7182 11 37.2935 11 38.9702V41.9821C11 42.0842 11 42.3951 11.2244 42.6155C11.4122 42.7999 11.6416 42.82 11.8158 42.82C11.8416 42.82 11.8662 42.8196 11.8893 42.8192C11.9137 42.8188 11.9393 42.8183 11.9661 42.8183H17.023C17.0233 42.8183 17.0237 42.8183 17.024 42.8183C17.0244 42.8183 17.0247 42.8183 17.0251 42.8183H18.0714H18.0717H19.115C19.1153 42.8183 19.1156 42.8183 19.1158 42.8183C19.1161 42.8183 19.1164 42.8183 19.1167 42.8183H21.4267V43.4773C21.4267 43.5798 21.4267 43.8915 21.6523 44.1123C21.8403 44.2969 22.0693 44.3174 22.2436 44.3174C22.2696 44.3174 22.2942 44.3167 22.3174 44.3167C22.3414 44.316 22.3667 44.3153 22.3933 44.3153H22.9839C23.267 44.3153 23.4966 44.0856 23.4966 43.8026C23.4966 43.5196 23.267 43.2899 22.9839 43.2899H22.4521V42.8183V41.7929V40.4653C22.4521 39.4283 22.9046 39.1303 24.0196 38.498C24.0367 38.4884 24.0538 38.4781 24.0715 38.4686C24.1426 38.4282 24.2144 38.3865 24.2882 38.3441L25.1434 38.8979L26.0246 39.4687C26.0321 39.4728 26.0396 39.4775 26.0471 39.4816C26.1087 39.5172 26.1627 39.5548 26.2153 39.5903C26.3226 39.6635 26.5277 39.8036 26.7758 39.8036C26.8784 39.8036 26.9884 39.7797 27.1019 39.7175L27.1723 39.9937L26.1729 42.1586C26.1722 42.16 26.1715 42.162 26.1709 42.1634C26.0854 42.3398 26.0991 42.5346 26.205 42.6952L26.5544 43.2899H25.3519C25.0689 43.2899 24.8392 43.5196 24.8392 43.8026C24.8392 44.0856 25.0689 44.3153 25.3519 44.3153H27.4499H27.4512H34.605C34.6317 44.3153 34.657 44.316 34.6809 44.3167C34.7042 44.3167 34.7288 44.3174 34.7547 44.3174C34.9297 44.3174 35.1594 44.2969 35.3481 44.1123C35.573 43.8915 35.573 43.5798 35.573 43.4773V42.8183H39.9699H39.9713H45.0339C45.0599 42.8183 45.0859 42.819 45.1098 42.819C45.1331 42.8196 45.1577 42.8203 45.1837 42.8203C45.358 42.8203 45.587 42.7998 45.775 42.6152C45.9999 42.3944 45.9999 42.0841 45.9999 41.9822V38.9703C46 37.2941 44.9876 36.7186 43.915 36.1102V36.1102ZM21.3013 36.2614L19.9979 37.1044C19.9441 37.1362 19.8963 37.1671 19.8538 37.1956L19.5736 36.8988C19.5689 36.8934 19.5638 36.8883 19.5589 36.8831L19.0918 36.3883C19.1421 36.3714 19.1931 36.3534 19.245 36.334C19.6417 36.1862 20.0268 35.9733 20.386 35.713L21.3013 36.2614ZM15.9254 26.6796C16.0681 26.667 16.1991 26.5953 16.2865 26.4818C16.8069 25.8066 18.0308 25.6281 19.2628 26.0477C20.3067 26.4033 21.5258 27.2916 21.5258 28.625V29.9324V29.995H21.31C20.8046 29.995 20.4783 29.7134 19.9877 29.2539C19.4354 28.7367 18.7481 28.0929 17.5546 28.0929H16.6361C15.5207 28.0929 15.3345 28.9993 15.2232 29.5408C15.0953 30.1635 15.0346 30.2856 14.6266 30.2856H14.6181V29.8724V29.2236C14.6181 29.2048 14.6177 29.1798 14.6172 29.1491C14.5926 27.589 15.0326 26.7581 15.9254 26.6796V26.6796ZM14.6747 32.4977C14.6371 32.3351 14.6181 32.1738 14.6181 32.0184V31.3109H14.6267C15.9064 31.3109 16.1153 30.2936 16.2276 29.7471C16.3569 29.1182 16.4105 29.1182 16.6362 29.1182H17.5547C18.343 29.1182 18.7805 29.5278 19.2869 30.0022C19.7964 30.4794 20.3739 31.0203 21.3101 31.0203H21.526V32.0184C21.526 32.1738 21.507 32.3351 21.469 32.4991C21.1972 33.6906 20.0873 34.9262 18.8866 35.3734C18.5785 35.4886 18.3197 35.5423 18.0721 35.5423C17.8245 35.5423 17.5657 35.4886 17.257 35.3731C16.0568 34.9262 14.9468 33.6907 14.6747 32.4977V32.4977ZM18.6213 37.3838L18.4548 38.0352H17.6856L17.5202 37.3864L18.072 36.8019L18.6213 37.3838ZM15.7579 35.7131C16.117 35.9734 16.5019 36.1862 16.8983 36.3338C16.9503 36.3533 17.0016 36.3714 17.0522 36.3885L16.2903 37.1954C16.2477 37.167 16.1996 37.136 16.1455 37.1042L14.8426 36.2616L15.7579 35.7131ZM15.7713 41.1897L16.1266 41.7929H12.0254V38.9702C12.0254 37.9316 12.4773 37.6334 13.591 37.0006C13.6789 36.9506 13.7685 36.8997 13.8598 36.847L15.598 37.9712C15.6047 37.9755 15.6114 37.9796 15.6182 37.9836C15.6797 38.0194 15.7338 38.0566 15.7862 38.0924C15.9029 38.1724 16.1054 38.3112 16.3499 38.3112C16.4521 38.3112 16.5617 38.2866 16.6754 38.2236L16.7454 38.4982L15.7464 40.6628C15.6606 40.8339 15.6701 41.028 15.7713 41.1897V41.1897ZM18.8234 41.7929H18.0723C18.0722 41.7929 18.0721 41.7929 18.072 41.7929H17.3167L16.7771 40.8767L17.6153 39.0606H18.5249L19.3632 40.8767L18.8234 41.7929ZM21.4269 40.4653V41.7929H20.0135L20.3688 41.1898C20.4699 41.0283 20.4795 40.8344 20.3938 40.6631L19.3947 38.4985L19.4654 38.222C19.5803 38.2862 19.691 38.3114 19.7943 38.3114C20.0398 38.3114 20.2432 38.1717 20.3603 38.0912C20.4123 38.0556 20.4659 38.0187 20.5267 37.9831C20.5332 37.9793 20.5396 37.9753 20.5458 37.9713L22.2841 36.8471C22.3755 36.8999 22.465 36.9508 22.5527 37.001C22.9553 37.23 23.2711 37.4146 23.5111 37.6074C22.4393 38.2156 21.4269 38.7912 21.4269 40.4653V40.4653ZM42.1555 36.2619L40.8546 37.1041C40.7999 37.1362 40.7514 37.1677 40.7083 37.1964L40.428 36.899C40.4226 36.8929 40.4157 36.886 40.4096 36.8799L39.9461 36.3884C39.9967 36.372 40.0473 36.3535 40.0992 36.3344C40.4957 36.186 40.8806 35.9734 41.2401 35.713L42.1555 36.2619ZM36.7811 26.6793C36.9239 26.667 37.0552 26.5952 37.1427 26.4817C37.6622 25.807 38.8852 25.6279 40.117 26.047C41.1615 26.4031 42.3817 27.2911 42.3817 28.6248V29.9947H42.1644C41.6592 29.9947 41.3331 29.7138 40.843 29.2544C40.2906 28.7369 39.6036 28.093 38.4087 28.093H37.4899C36.3743 28.093 36.1884 28.9994 36.0776 29.5415C35.9498 30.1636 35.8896 30.2853 35.4829 30.2853H35.472V29.2236C35.472 29.2052 35.472 29.1799 35.4713 29.1498C35.4474 27.5892 35.8876 26.7579 36.7811 26.6793V26.6793ZM35.5308 32.4981C35.4918 32.3299 35.472 32.1686 35.472 32.0182V31.3107H35.4829C36.7612 31.3107 36.9697 30.2935 37.0818 29.7473C37.211 29.1184 37.2644 29.1184 37.4899 29.1184H38.4087C39.1982 29.1184 39.6357 29.5278 40.1416 30.0023C40.6509 30.4794 41.2278 31.0201 42.1644 31.0201H42.3817V32.0182C42.3817 32.1686 42.3619 32.3299 42.3229 32.4994C42.0516 33.6909 40.9414 34.9262 39.7396 35.3739C39.4341 35.4888 39.1757 35.5421 38.9262 35.5421C38.678 35.5421 38.4203 35.4888 38.1127 35.3732C36.9109 34.9255 35.8008 33.6902 35.5308 32.4981V32.4981ZM39.4758 37.3844L39.3104 38.0352H38.5399L38.3745 37.3864L38.9262 36.802L39.4758 37.3844ZM36.6129 35.7137C36.9718 35.9734 37.3566 36.186 37.7531 36.3337C37.8051 36.3528 37.8563 36.3713 37.9069 36.3884L37.1447 37.195C37.1017 37.167 37.0538 37.1362 36.9998 37.1041L35.6982 36.2612L36.6129 35.7137ZM31.7293 37.7583L30.4284 38.6012C30.3737 38.6326 30.3252 38.6641 30.2821 38.6921L29.5192 37.8855C29.5698 37.8684 29.6204 37.8506 29.6724 37.8315C30.0695 37.6831 30.4544 37.4698 30.814 37.2087L31.7293 37.7583ZM26.3542 28.1749C26.497 28.1624 26.628 28.0907 26.7155 27.9771C27.2353 27.3025 28.4583 27.1244 29.6902 27.5438C30.734 27.8993 31.9529 28.7873 31.9529 30.1203V31.4266C31.9529 31.4269 31.9528 31.4273 31.9528 31.4275V31.4922H31.737C31.232 31.4922 30.906 31.2108 30.416 30.7515C29.8638 30.2341 29.1766 29.5901 27.9817 29.5901H27.0632C25.9475 29.5901 25.7615 30.4969 25.6504 31.0387C25.5228 31.6608 25.4624 31.7827 25.0557 31.7827H25.0452V31.3694V30.7188C25.0452 30.7 25.0448 30.675 25.0443 30.6445C25.0196 29.0843 25.4603 28.2535 26.3542 28.1749V28.1749ZM25.1032 34.0006C25.0649 33.8249 25.0451 33.6615 25.0451 33.5139V32.8081H25.0556C26.3342 32.8081 26.5428 31.7911 26.6549 31.2446C26.7839 30.6154 26.8376 30.6154 27.0632 30.6154H27.9817C28.7712 30.6154 29.2085 31.0252 29.7149 31.4997C30.224 31.9767 30.8011 32.5175 31.7371 32.5175H31.9529V33.5138C31.9529 33.669 31.9338 33.831 31.8962 33.9957C31.6241 35.1859 30.5139 36.4218 29.3149 36.8703C29.0032 36.9858 28.7441 37.0398 28.4994 37.0398C28.256 37.0398 27.9963 36.9858 27.6845 36.8703C26.4841 36.4219 25.3739 35.1859 25.1032 34.0006V34.0006ZM29.0489 38.8801L28.8835 39.5309H28.1124L27.9477 38.8821L28.4993 38.2983L29.0489 38.8801ZM26.7165 38.6914C26.6741 38.6634 26.6263 38.6326 26.5716 38.6012L25.2707 37.7583L26.1847 37.2087C26.5449 37.4698 26.9305 37.6831 27.3276 37.8321C27.3789 37.8506 27.4295 37.8684 27.4794 37.8848L26.7165 38.6914ZM29.2506 43.2899H27.7439L27.2046 42.3719L28.042 40.5563H28.9539L29.7906 42.3732L29.2506 43.2899ZM34.5478 43.2899H30.4407L30.7962 42.687C30.8953 42.5271 30.9063 42.3343 30.8229 42.1634C30.8222 42.162 30.8215 42.16 30.8208 42.1586L29.8234 39.9937L29.8938 39.7189C30.008 39.7824 30.1187 39.8077 30.2213 39.8077C30.4653 39.8077 30.6677 39.6696 30.7846 39.5903C30.8372 39.5541 30.8912 39.5172 30.9527 39.4816C30.9603 39.4775 30.9678 39.4728 30.9753 39.4687L32.7116 38.3441C32.7841 38.3865 32.8565 38.4275 32.927 38.4679C32.9454 38.4781 32.9639 38.4891 32.9823 38.4993C34.0959 39.1316 34.5478 39.4297 34.5478 40.4653V43.2899ZM36.632 41.1982L36.982 41.7929H35.5731V40.4653C35.5731 38.7912 34.5607 38.2163 33.4889 37.6072C33.4889 37.6072 33.4882 37.6072 33.4882 37.6066C33.7274 37.4145 34.0433 37.2292 34.4452 37.0016C34.5334 36.951 34.6236 36.9004 34.7152 36.8471L36.4522 37.9709C36.4584 37.9757 36.4652 37.9798 36.4721 37.9839C36.5336 38.0194 36.5876 38.0564 36.6402 38.0919C36.7482 38.1657 36.9547 38.3072 37.2049 38.3072C37.3067 38.3072 37.4161 38.2833 37.5289 38.2218L37.5993 38.498L36.6006 40.6629C36.5999 40.6636 36.5999 40.6636 36.5999 40.6643C36.5124 40.8406 36.5247 41.0361 36.632 41.1982V41.1982ZM39.6774 41.7929H38.1715L37.6321 40.8755L38.4695 39.0606H39.3808L40.2182 40.8748L39.6774 41.7929ZM44.9746 41.7929H40.8676L41.2224 41.1899C41.3181 41.0382 41.3331 40.8598 41.2634 40.6943C41.2593 40.6841 41.2545 40.6732 41.2497 40.6629L40.2503 38.498L40.3207 38.2225C40.4349 38.286 40.5456 38.3113 40.6488 38.3113C40.8936 38.3113 41.0973 38.1719 41.2142 38.0919C41.2661 38.0564 41.3201 38.0194 41.3816 37.9839C41.3885 37.9798 41.3953 37.9757 41.4021 37.9709L43.1385 36.8471C43.2301 36.9004 43.3203 36.951 43.4085 37.0016C44.5228 37.6339 44.9746 37.9319 44.9746 38.9703V41.7929Z" fill="white"/>
<g clip-path="url(#clip0)">
<path d="M28.5306 16.9999L30.8901 14.6405C31.0366 14.494 31.0366 14.2564 30.8901 14.1099C30.7435 13.9634 30.5061 13.9634 30.3595 14.1099L28.0001 16.4694L25.6405 14.1099C25.4939 13.9634 25.2565 13.9634 25.1099 14.1099C24.9634 14.2564 24.9634 14.494 25.1099 14.6405L27.4695 16.9999L25.1099 19.3594C24.9634 19.5058 24.9634 19.7435 25.1099 19.8899C25.1832 19.9631 25.2793 19.9997 25.3752 19.9997C25.4712 19.9997 25.5672 19.9631 25.6405 19.8898L28.0001 17.5304L30.3595 19.8898C30.4328 19.9631 30.5288 19.9997 30.6248 19.9997C30.7207 19.9997 30.8168 19.9631 30.8901 19.8898C31.0366 19.7433 31.0366 19.5057 30.8901 19.3592L28.5306 16.9999Z" fill="white"/>
</g>
<defs>
<clipPath id="clip0">
<rect width="6" height="6" fill="white" transform="translate(25 14)"/>
</clipPath>
</defs>
</svg>
