<svg width="56" height="56" viewBox="0 0 56 56" fill="none" xmlns="http://www.w3.org/2000/svg">
<path d="M53.1988 24.0621C52.2939 23.3028 51.3569 22.5176 51.1797 21.8517C50.9874 21.135 51.4154 19.9495 51.8297 18.804C52.4286 17.1475 53.0478 15.4335 52.2518 14.0594C51.4444 12.6668 49.6338 12.3441 47.8885 12.0349C46.7031 11.825 45.4745 11.6088 44.9686 11.1006C44.4627 10.5929 44.2433 9.3657 44.0348 8.1798C43.7247 6.42996 43.4042 4.61937 42.0089 3.81653C40.6357 3.02094 38.9208 3.64109 37.2648 4.23903C36.1188 4.65382 34.9342 5.08086 34.2166 4.88865C33.5512 4.71049 32.7655 3.77482 32.0062 2.86862C30.8457 1.48779 29.6498 0.0629883 28.0011 0.0629883C26.3519 0.0629883 25.1564 1.48779 23.9996 2.8659C23.2402 3.77074 22.4546 4.70777 21.7891 4.88502C21.072 5.07632 19.8865 4.64838 18.741 4.23495C17.0836 3.63611 15.3691 3.01777 13.9969 3.8129C12.6043 4.62028 12.2811 6.43086 11.9719 8.1807C11.762 9.3666 11.5458 10.5947 11.038 11.1006C10.5299 11.6065 9.30271 11.8259 8.11726 12.0349C6.36697 12.345 4.55684 12.665 3.75354 14.0603C2.95796 15.4344 3.5772 17.1484 4.17604 18.8049C4.59084 19.9504 5.01878 21.1359 4.82611 21.8526C4.6475 22.5185 3.71184 23.3037 2.80564 24.063C1.42526 25.219 0 26.4148 0 28.0636C0 29.7128 1.42526 30.9082 2.80292 32.0651C3.70821 32.8244 4.64478 33.61 4.82203 34.2755C5.01424 34.9927 4.5863 36.1781 4.17242 37.3237C3.57357 38.9801 2.95433 40.6937 3.74992 42.0677C4.55774 43.4604 6.36788 43.7836 8.11817 44.0928C9.30362 44.3026 10.5321 44.5189 11.038 45.0266C11.544 45.5348 11.7629 46.7619 11.9719 47.9474C12.282 49.6977 12.6025 51.5078 13.9978 52.3111C15.3709 53.1067 17.0854 52.4865 18.7419 51.8886C19.8883 51.4747 21.0761 51.0477 21.79 51.2385C22.4555 51.4172 23.2411 52.3528 24.0005 53.259C25.1574 54.6367 26.3528 56.0619 28.002 56.0619C29.6507 56.0619 30.8466 54.6367 32.0035 53.259C32.7628 52.3537 33.548 51.4172 34.2139 51.2399C34.9288 51.0468 36.1152 51.4756 37.2616 51.8895C38.9181 52.4875 40.6321 53.1058 42.0061 52.312C43.3988 51.5042 43.7215 49.6941 44.0307 47.9483C44.2406 46.7629 44.4568 45.5348 44.965 45.0284C45.4727 44.5225 46.6999 44.3036 47.8858 44.0946C49.6356 43.7845 51.4462 43.4644 52.2491 42.0687C53.0446 40.6946 52.4254 38.9811 51.827 37.3246C51.4118 36.179 50.9838 34.9936 51.1769 34.2769C51.3551 33.6109 52.2912 32.8258 53.197 32.066C54.5751 30.9091 55.9999 29.7137 55.9999 28.0645C55.9999 26.4158 54.5769 25.219 53.1988 24.0621ZM52.0052 30.643C50.8787 31.5868 49.7145 32.5647 49.3849 33.7995C49.0436 35.0797 49.5708 36.5431 50.084 37.9579C50.5169 39.1574 51.0078 40.5156 50.6411 41.1421C50.2698 41.7921 48.8269 42.0437 47.5562 42.2686C46.0874 42.5283 44.5683 42.7967 43.6467 43.7188C42.7247 44.6404 42.4563 46.1586 42.1974 47.6273C41.9726 48.898 41.7183 50.3382 41.0709 50.7122C40.4453 51.0744 39.0863 50.5835 37.8877 50.1551C36.4728 49.6428 35.0095 49.1129 33.7284 49.457C32.4972 49.7856 31.5198 50.9502 30.5719 52.0763C29.7296 53.08 28.7754 54.2115 27.9925 54.2115C27.21 54.2115 26.2553 53.075 25.4135 52.0763C24.4692 50.9502 23.4918 49.7856 22.257 49.4561C21.9709 49.3822 21.6767 49.3455 21.3811 49.3477C20.2496 49.4325 19.1404 49.7054 18.0986 50.1551C16.8991 50.588 15.5396 51.079 14.914 50.7122C14.2639 50.341 14.0123 48.898 13.7879 47.6273C13.5277 46.1586 13.2598 44.6395 12.3377 43.7179C11.4157 42.7958 9.89793 42.5274 8.42915 42.2686C7.15803 42.0437 5.71826 41.7894 5.34381 41.1421C4.98206 40.5156 5.47301 39.1574 5.90548 37.9588C6.4182 36.5431 6.94632 35.0806 6.60361 33.7995C6.27495 32.5683 5.1108 31.5909 3.98474 30.643C2.98108 29.8007 1.84957 28.8465 1.84957 28.0636C1.84957 27.2812 2.98561 26.3269 3.98474 25.4846C5.1108 24.5403 6.27495 23.563 6.60451 22.3281C6.94632 21.0479 6.4191 19.5846 5.90548 18.1697C5.47301 16.9702 4.97707 15.6121 5.34381 14.9851C5.71509 14.3355 7.15803 14.0839 8.42915 13.8591C9.89793 13.5989 11.4166 13.3309 12.3386 12.4089C13.2607 11.4868 13.5286 9.96907 13.7879 8.5003C14.0123 7.22917 14.2671 5.78941 14.914 5.41496C15.5378 5.0532 16.8991 5.54416 18.0977 5.97663C19.5134 6.48844 20.9754 7.01837 22.257 6.67475C23.4878 6.34609 24.4656 5.18195 25.4135 4.05589C26.2553 3.05222 27.21 1.92072 27.9925 1.92072C28.7754 1.92072 29.7296 3.05676 30.5719 4.05589C31.5157 5.18195 32.4935 6.34609 33.7284 6.67611C35.0095 7.01747 36.4719 6.49025 37.8868 5.97663C39.0854 5.54416 40.4435 5.04822 41.0709 5.41496C41.721 5.78669 41.9726 7.22917 42.1974 8.5003C42.4572 9.96907 42.7256 11.4877 43.6476 12.4098C44.5693 13.3318 46.0874 13.6002 47.5562 13.8591C48.8269 14.0839 50.2671 14.3382 50.6411 14.9851C51.0033 15.6121 50.5124 16.9702 50.084 18.1688C49.5717 19.5846 49.0436 21.047 49.3858 22.3281C49.7145 23.5589 50.8787 24.5367 52.0052 25.4846C53.0088 26.3269 54.1403 27.2812 54.1403 28.0636C54.1403 28.8465 53.0088 29.8007 52.0052 30.643Z" fill="#9EA0A5"/>
<path d="M28.0011 8.56738C17.2332 8.56738 8.50439 17.2966 8.50439 28.0641C8.50439 38.8319 17.2332 47.5607 28.0011 47.5607C38.7685 47.5607 47.4977 38.8319 47.4977 28.0641C47.4859 17.3012 38.7639 8.57917 28.0011 8.56738ZM28.0011 45.7039C18.2586 45.7039 10.3612 37.8065 10.3612 28.0641C10.3612 18.3221 18.2586 10.4242 28.0011 10.4242C37.743 10.4242 45.6409 18.3221 45.6409 28.0641C45.63 37.802 37.7385 45.6935 28.0011 45.7039Z" fill="#9EA0A5"/>
<path d="M18.9883 35.7632L35.6997 19.0518L37.013 20.3646L20.3011 37.0765L18.9883 35.7632Z" fill="#9EA0A5"/>
<path d="M33.5716 29.9209C31.5203 29.9209 29.8579 31.5837 29.8579 33.6345C29.8579 35.6858 31.5203 37.3482 33.5716 37.3482C35.6224 37.3482 37.2852 35.6858 37.2852 33.6345C37.2852 31.5837 35.6224 29.9209 33.5716 29.9209ZM33.5716 35.4914C32.5461 35.4914 31.7147 34.66 31.7147 33.6345C31.7147 32.6091 32.5461 31.7777 33.5716 31.7777C34.597 31.7777 35.4284 32.6091 35.4284 33.6345C35.4284 34.66 34.597 35.4914 33.5716 35.4914Z" fill="#9EA0A5"/>
<path d="M22.4304 26.2071C24.4813 26.2071 26.1441 24.5447 26.1441 22.4934C26.1441 20.4426 24.4813 18.7798 22.4304 18.7798C20.3791 18.7798 18.7168 20.4426 18.7168 22.4934C18.7168 24.5447 20.3791 26.2071 22.4304 26.2071ZM22.4304 20.6366C23.4559 20.6366 24.2873 21.468 24.2873 22.4934C24.2873 23.5189 23.4559 24.3503 22.4304 24.3503C21.405 24.3503 20.5736 23.5189 20.5736 22.4934C20.5736 21.468 21.405 20.6366 22.4304 20.6366Z" fill="#9EA0A5"/>
</svg>
