<svg width="16" height="16" viewBox="0 0 16 16" fill="none" xmlns="http://www.w3.org/2000/svg">
<path d="M14.4852 12.5958C14.4854 12.5219 14.471 12.4487 14.4427 12.3804C14.4144 12.3121 14.3729 12.2501 14.3205 12.198L13.392 11.2695L13.0384 11.6231L13.9669 12.5516C13.9786 12.5633 13.9852 12.5792 13.9852 12.5958C13.9852 12.6124 13.9786 12.6282 13.9669 12.64L12.6411 13.9658C12.6353 13.9716 12.6284 13.9762 12.6208 13.9794C12.6133 13.9825 12.6051 13.9841 12.5969 13.9841C12.5887 13.9841 12.5806 13.9825 12.573 13.9794C12.5654 13.9762 12.5585 13.9716 12.5527 13.9658L11.6242 13.0373C11.5834 12.9965 11.5298 12.9711 11.4724 12.9653C11.4151 12.9595 11.3575 12.9738 11.3094 13.0056C11.0949 13.1477 10.8715 13.2758 10.6406 13.3892L10.8609 13.838C11.0489 13.7458 11.2338 13.6436 11.4128 13.533L12.1992 14.3194C12.3048 14.4247 12.4478 14.4838 12.597 14.4838C12.7461 14.4838 12.8891 14.4247 12.9947 14.3194L14.3205 12.9936C14.3729 12.9414 14.4144 12.8794 14.4427 12.8112C14.471 12.7429 14.4854 12.6697 14.4852 12.5958Z" fill="#979797"/>
<path d="M8.26416 3.00781L8.23828 3.50713C8.96171 3.54551 9.6652 3.75783 10.2891 4.12607C10.9129 4.49431 11.4388 5.00761 11.822 5.62241L12.2462 5.35769C11.8203 4.67463 11.236 4.10436 10.5428 3.69528C9.84961 3.2862 9.06795 3.05037 8.26416 3.00781Z" fill="#979797"/>
<path d="M4.34766 4.58687L4.71287 4.92837C5.50612 4.07566 6.60057 3.5658 7.76372 3.50712L7.73784 3.00781C6.44535 3.07293 5.22917 3.6394 4.34766 4.58687Z" fill="#979797"/>
<path d="M1.68008 12.9942L3.00593 14.32C3.11151 14.4253 3.25455 14.4844 3.40368 14.4844C3.5528 14.4844 3.69584 14.4253 3.80143 14.32L4.58774 13.5336C5.17813 13.8993 5.82387 14.167 6.49986 14.3262V15.4377C6.50004 15.5868 6.55936 15.7298 6.66481 15.8352C6.77026 15.9407 6.91323 16 7.06236 16.0002H8.93736C9.08649 16 9.22947 15.9407 9.33492 15.8352C9.44037 15.7298 9.49969 15.5868 9.49986 15.4377V14.3262C9.78544 14.2586 10.0661 14.1717 10.3399 14.0661L10.1598 13.5997C9.84834 13.7198 9.52732 13.8136 9.20014 13.8801C9.14361 13.8916 9.09279 13.9223 9.05629 13.9669C9.01978 14.0116 8.99985 14.0675 8.99986 14.1252V15.4377C8.99986 15.4543 8.99328 15.4702 8.98156 15.4819C8.96984 15.4936 8.95394 15.5002 8.93736 15.5002H7.06236C7.04579 15.5002 7.02989 15.4936 7.01817 15.4819C7.00645 15.4702 6.99986 15.4543 6.99986 15.4377V14.1252C6.99986 14.0675 6.97992 14.0116 6.94342 13.967C6.90692 13.9223 6.8561 13.8917 6.79958 13.8802C6.04691 13.7279 5.33091 13.4311 4.69121 13.0063C4.64313 12.9744 4.58552 12.9602 4.52814 12.966C4.47076 12.9717 4.41714 12.9972 4.37636 13.0379L3.4479 13.9665C3.44209 13.9723 3.4352 13.9769 3.42762 13.98C3.42003 13.9832 3.4119 13.9848 3.40369 13.9848C3.39548 13.9848 3.38735 13.9832 3.37977 13.98C3.37218 13.9769 3.36529 13.9723 3.35949 13.9665L2.03365 12.6406C2.02784 12.6348 2.02323 12.6279 2.02009 12.6203C2.01695 12.6127 2.01533 12.6046 2.01533 12.5964C2.01533 12.5882 2.01695 12.5801 2.02009 12.5725C2.02323 12.5649 2.02784 12.558 2.03365 12.5522L2.96218 11.6237C3.00296 11.5829 3.02839 11.5293 3.03416 11.4719C3.03992 11.4145 3.02568 11.3569 2.99383 11.3088C2.75513 10.9485 2.55614 10.5633 2.40033 10.1602L1.93393 10.3402C2.07802 10.7132 2.2563 11.0721 2.46649 11.4123L1.68008 12.1987C1.57477 12.3042 1.51562 12.4473 1.51562 12.5964C1.51563 12.7455 1.57477 12.8886 1.68008 12.9942Z" fill="#979797"/>
<path d="M2.71972 5.14794C2.80387 4.99253 2.89609 4.83891 2.99384 4.69134C3.02569 4.64327 3.03994 4.58566 3.03417 4.52828C3.0284 4.4709 3.00297 4.41728 2.96219 4.3765L2.03366 3.44797C2.02195 3.43625 2.01537 3.42036 2.01537 3.4038C2.01537 3.38723 2.02195 3.37134 2.03366 3.35963L3.35947 2.03378C3.36527 2.02797 3.37216 2.02337 3.37975 2.02023C3.38733 2.01708 3.39546 2.01547 3.40367 2.01547C3.41188 2.01547 3.42001 2.01708 3.4276 2.02023C3.43518 2.02337 3.44207 2.02797 3.44787 2.03378L4.37637 2.96231C4.41715 3.00309 4.47077 3.02852 4.52815 3.03429C4.58553 3.04006 4.64314 3.02582 4.69122 2.99397C5.33092 2.56913 6.04692 2.27236 6.79959 2.12006C6.85612 2.10859 6.90695 2.07792 6.94345 2.03326C6.97995 1.9886 6.99989 1.93268 6.99987 1.875V0.5625C6.99987 0.545924 7.00646 0.530027 7.01818 0.518306C7.0299 0.506585 7.0458 0.5 7.06237 0.5H8.93738C8.95395 0.5 8.96985 0.506585 8.98157 0.518306C8.99329 0.530027 8.99988 0.545924 8.99988 0.5625V1.875C8.99988 1.93267 9.01982 1.98857 9.05632 2.03322C9.09282 2.07787 9.14364 2.10853 9.20016 2.12C9.95283 2.27229 10.6688 2.56907 11.3085 2.99391C11.3566 3.02575 11.4142 3.04 11.4716 3.03423C11.529 3.02846 11.5826 3.00303 11.6234 2.96225L12.5518 2.03372C12.5576 2.02791 12.5645 2.02331 12.5721 2.02016C12.5797 2.01702 12.5878 2.0154 12.596 2.0154C12.6043 2.0154 12.6124 2.01702 12.62 2.02016C12.6276 2.02331 12.6344 2.02791 12.6403 2.03372L13.9661 3.35956C13.9778 3.37128 13.9843 3.38717 13.9843 3.40373C13.9843 3.4203 13.9778 3.43619 13.9661 3.44791L13.0376 4.37644C12.9968 4.41721 12.9714 4.47083 12.9656 4.52821C12.9598 4.58559 12.9741 4.6432 13.0059 4.69128C13.2057 4.99292 13.3777 5.31201 13.52 5.64466L13.9798 5.44819C13.8526 5.15068 13.7033 4.8631 13.5333 4.58784L14.3196 3.80147C14.3718 3.74924 14.4133 3.68723 14.4415 3.61898C14.4698 3.55073 14.4843 3.47759 14.4843 3.40372C14.4843 3.32985 14.4698 3.2567 14.4415 3.18846C14.4133 3.12021 14.3718 3.0582 14.3196 3.00597L12.9938 1.68022C12.8882 1.5749 12.7452 1.51576 12.5961 1.51576C12.4469 1.51576 12.3039 1.5749 12.1983 1.68022L11.412 2.46656C10.8216 2.10084 10.1759 1.83318 9.49988 1.67397V0.5625C9.4997 0.413369 9.44038 0.270396 9.33493 0.164944C9.22948 0.0594927 9.08651 0.000173682 8.93738 0L7.06237 0C6.91324 0.000173682 6.77027 0.0594927 6.66482 0.164944C6.55937 0.270396 6.50005 0.413369 6.49987 0.5625V1.67397C5.82388 1.83318 5.17814 2.10084 4.58775 2.46656L3.80141 1.68022C3.69582 1.5749 3.55278 1.51576 3.40366 1.51576C3.25453 1.51576 3.11149 1.5749 3.00591 1.68022L1.68009 3.00606C1.57477 3.11164 1.51562 3.25467 1.51562 3.4038C1.51562 3.55292 1.57477 3.69596 1.68009 3.80153L2.4665 4.58791C2.40119 4.69362 2.33878 4.80141 2.28003 4.90997L2.71972 5.14794Z" fill="#979797"/>
<path d="M3 9.25H0V9.75H3V9.25Z" fill="#979797"/>
<path d="M3.82241 5.98902L6.08269 5.30502C6.09624 5.30092 6.10942 5.29569 6.12209 5.2894C6.20983 5.24573 6.31114 5.23798 6.4045 5.26777L7.14047 5.62652L7.35953 5.17705L6.60953 4.81143C6.60125 4.80738 6.59275 4.8038 6.58406 4.80071C6.36693 4.72357 6.12819 4.73479 5.91925 4.83196L3.713 5.49974H2.5V5.99974H3.75C3.77453 5.99975 3.79893 5.99614 3.82241 5.98902Z" fill="#979797"/>
<path d="M2 5.5H0V6H2V5.5Z" fill="#979797"/>
<path d="M9.08289 11.2459L8.87098 11.1235C8.68226 11.0144 8.45953 10.98 8.24667 11.027C8.21948 10.9107 8.16874 10.8013 8.09757 10.7054C8.02641 10.6095 7.93633 10.5293 7.83292 10.4696L7.62098 10.3473C7.43036 10.2371 7.20511 10.2031 6.99045 10.2521C6.96099 10.1409 6.90982 10.0366 6.83988 9.94517C6.76994 9.85378 6.68261 9.77714 6.58292 9.71965L6.37098 9.5973C6.18036 9.4871 5.9551 9.45309 5.74045 9.50212C5.71099 9.39087 5.65982 9.28655 5.58988 9.19517C5.51994 9.10378 5.43261 9.02714 5.33292 8.96965L5.12098 8.8473C4.91993 8.73156 4.68119 8.70028 4.45711 8.76032C4.23303 8.82037 4.04191 8.96683 3.92567 9.16758L3.42192 10.0401C3.36446 10.1397 3.32717 10.2495 3.31217 10.3634C3.29717 10.4774 3.30476 10.5931 3.3345 10.7041C3.36424 10.8151 3.41556 10.9192 3.48551 11.0103C3.55546 11.1015 3.64268 11.178 3.7422 11.2354L3.95414 11.3578C4.08663 11.4345 4.23705 11.4749 4.39017 11.4748C4.45547 11.4748 4.52057 11.4675 4.58426 11.4531L4.58451 11.4541C4.61398 11.5652 4.66519 11.6694 4.73517 11.7606C4.80514 11.8518 4.89251 11.9282 4.9922 11.9854L5.20414 12.1077C5.33663 12.1845 5.48705 12.2249 5.64017 12.2248C5.70547 12.2248 5.77057 12.2175 5.83426 12.2031L5.83451 12.2041C5.86398 12.3152 5.91519 12.4194 5.98517 12.5106C6.05514 12.6017 6.14251 12.6782 6.2422 12.7354L6.45414 12.8577C6.58663 12.9345 6.73705 12.9748 6.89017 12.9748C6.95348 12.9747 7.01661 12.9679 7.07845 12.9543C7.10562 13.0706 7.15636 13.18 7.22753 13.2759C7.2987 13.3718 7.38878 13.452 7.4922 13.5116L7.70414 13.634C7.90513 13.7499 8.1439 13.7812 8.368 13.7212C8.59211 13.6612 8.78323 13.5147 8.89939 13.3138L9.0851 12.9921C9.31349 13.0246 9.54549 12.9662 9.73129 12.8295L11.7106 11.4569L11.4257 11.046L9.44285 12.421C9.44029 12.4228 9.43779 12.4246 9.43532 12.4265C9.42316 12.4356 9.41045 12.4439 9.39726 12.4515L9.40314 12.4413C9.51892 12.2403 9.55023 12.0015 9.4902 11.7774C9.43016 11.5533 9.28367 11.3622 9.08289 11.2459ZM4.67185 10.7901C4.6517 10.825 4.63395 10.8611 4.61873 10.8983C4.55987 10.9431 4.48912 10.9694 4.41534 10.9741C4.34157 10.9788 4.26804 10.9617 4.20398 10.9248L3.99204 10.8024C3.90592 10.7527 3.84308 10.6708 3.81735 10.5747C3.79161 10.4787 3.80509 10.3763 3.85482 10.2902L4.35854 9.41762C4.40831 9.33152 4.49023 9.26871 4.58628 9.24298C4.68234 9.21725 4.78468 9.23071 4.87082 9.2804L5.08276 9.40271C5.14898 9.44106 5.20191 9.49871 5.23446 9.56796C5.26702 9.63721 5.27766 9.71475 5.26495 9.79021C5.23143 9.82993 5.2015 9.87254 5.17551 9.91755L4.67185 10.7901ZM5.92185 11.5401C5.9017 11.575 5.88395 11.6111 5.86873 11.6483C5.80987 11.6931 5.73912 11.7194 5.66534 11.7241C5.59157 11.7288 5.51804 11.7117 5.45398 11.6748L5.24204 11.5524C5.17579 11.5141 5.12282 11.4565 5.09023 11.3872C5.05763 11.318 5.04697 11.2404 5.05967 11.1649C5.09327 11.1251 5.12326 11.0825 5.14929 11.0374L5.65304 10.1648C5.67311 10.1301 5.69078 10.094 5.70592 10.0568C5.77154 10.007 5.85166 9.98005 5.93404 9.98005C5.99966 9.98004 6.06411 9.99736 6.12089 10.0302L6.33282 10.1526C6.39904 10.1909 6.45196 10.2486 6.48452 10.3178C6.51708 10.3871 6.52772 10.4646 6.51501 10.5401C6.48149 10.5798 6.45156 10.6224 6.42557 10.6674L5.92185 11.5401ZM7.17185 12.3164C7.15908 12.3385 7.14738 12.361 7.13673 12.3838C7.07775 12.4346 7.00444 12.4658 6.92693 12.4732C6.84942 12.4805 6.77155 12.4636 6.70407 12.4248L6.49214 12.3024C6.42588 12.2641 6.37291 12.2065 6.34032 12.1372C6.30773 12.068 6.29706 11.9904 6.30976 11.9149C6.34336 11.8751 6.37335 11.8325 6.39939 11.7874L6.90314 10.9148C6.9232 10.8801 6.94087 10.844 6.95601 10.8068C7.02164 10.757 7.10175 10.73 7.18414 10.7301C7.24975 10.73 7.3142 10.7474 7.37098 10.7802L7.58292 10.9026C7.65454 10.944 7.71045 11.008 7.74198 11.0846C7.7735 11.1611 7.77888 11.2459 7.75726 11.3258C7.72691 11.3628 7.69963 11.4023 7.6757 11.4437L7.17185 12.3164ZM8.97007 12.1912L8.46635 13.0638C8.41654 13.1499 8.33463 13.2127 8.23859 13.2384C8.14256 13.2641 8.04023 13.2507 7.95407 13.2011L7.74214 13.0788C7.67051 13.0373 7.6146 12.9733 7.58307 12.8968C7.55155 12.8202 7.54618 12.7354 7.56779 12.6555C7.59816 12.6185 7.62545 12.5791 7.64939 12.5376L8.15314 11.665C8.16593 11.6429 8.17763 11.6205 8.18823 11.5977C8.2472 11.5469 8.3205 11.5156 8.39802 11.5082C8.47553 11.5009 8.55341 11.5178 8.62089 11.5566L8.83285 11.6791C8.91887 11.7289 8.98162 11.8107 9.00734 11.9067C9.03306 12.0028 9.01966 12.105 8.97007 12.1912Z" fill="#979797"/>
<path d="M15.9984 10.2501V9.75008H15.7484C15.7266 9.75008 15.7049 9.75293 15.6839 9.75855L12.8755 10.5075C12.6602 10.5651 12.4319 10.5491 12.2268 10.462C12.0218 10.3749 11.8517 10.2217 11.7437 10.0269L10.9669 8.62868C10.9496 8.59747 10.9257 8.57034 10.897 8.54911C10.8683 8.52787 10.8354 8.51304 10.8005 8.50559C10.7656 8.49814 10.7295 8.49826 10.6946 8.50594C10.6597 8.51361 10.6269 8.52867 10.5984 8.55009L10.5484 8.58759C10.3433 8.74151 10.087 8.81076 9.83231 8.78102C9.57765 8.75128 9.34415 8.62483 9.18009 8.42781L8.69037 7.84009C8.65429 7.79679 8.60465 7.76696 8.54949 7.75542C8.49433 7.74388 8.4369 7.75132 8.38649 7.77652L7.38649 8.27652C7.38384 8.27784 7.38121 8.27924 7.37859 8.28065C6.76409 8.61587 6.08284 8.51384 5.59043 8.02952L8.10971 5.98174L10.2297 5.52078C10.236 5.5194 10.2422 5.51765 10.2485 5.51593C10.3078 5.49807 10.3707 5.49522 10.4314 5.50764C10.4921 5.52005 10.5488 5.54734 10.5963 5.58706C10.5985 5.58884 10.6006 5.59062 10.6029 5.59231L12.3448 6.94743C12.3766 6.9721 12.4137 6.98877 12.4533 6.99601C12.4928 7.00326 12.5335 7.00087 12.5719 6.98906L13.8219 6.60446L13.6748 6.12656L12.5492 6.4729L10.9129 5.20009C10.8034 5.1096 10.6735 5.04719 10.5345 5.01827C10.3954 4.98936 10.2514 4.99482 10.1149 5.03418L7.94524 5.50606C7.90693 5.51439 7.87111 5.53161 7.84068 5.55634L5.07268 7.80634C5.02155 7.84795 4.98892 7.90807 4.98189 7.97362C4.97487 8.03917 4.99402 8.10484 5.03518 8.15634L5.05324 8.17896C5.36999 8.57487 5.77824 8.83643 6.23409 8.93521C6.69537 9.03521 7.17246 8.96149 7.61415 8.72177L8.43315 8.31224L8.79615 8.74784C9.01769 9.01389 9.32447 9.19508 9.66442 9.26067C10.0044 9.32626 10.3565 9.27221 10.6612 9.10768L11.3067 10.2697C11.4687 10.5621 11.7237 10.7918 12.0314 10.9225C12.339 11.0531 12.6815 11.0771 13.0043 10.9907L15.7812 10.2501H15.9984Z" fill="#979797"/>
<path d="M15.9993 5.5H15.7493C15.7244 5.49999 15.6996 5.50372 15.6758 5.51106L14.1758 5.97259L14.3228 6.4505L15.7868 6H15.9993V5.5Z" fill="#979797"/>
</svg>
