<svg width="38" height="39" viewBox="0 0 38 39" fill="none" xmlns="http://www.w3.org/2000/svg">
<ellipse cx="19" cy="19.5" rx="19" ry="19.5" fill="#4051B6"/>
<path d="M27.9996 17.5938C27.6764 17.3226 27.3418 17.0422 27.2785 16.8044C27.2098 16.5484 27.3626 16.125 27.5106 15.7159C27.7245 15.1243 27.9457 14.5122 27.6613 14.0214C27.373 13.5241 26.7264 13.4088 26.103 13.2984C25.6797 13.2234 25.2409 13.1462 25.0602 12.9647C24.8795 12.7834 24.8012 12.3451 24.7267 11.9216C24.616 11.2966 24.5015 10.65 24.0032 10.3633C23.5128 10.0791 22.9003 10.3006 22.3089 10.5141C21.8996 10.6623 21.4765 10.8148 21.2202 10.7462C20.9826 10.6825 20.702 10.3484 20.4308 10.0247C20.0163 9.53156 19.5892 9.02271 19.0004 9.02271C18.4114 9.02271 17.9844 9.53156 17.5713 10.0237C17.3001 10.3469 17.0195 10.6816 16.7818 10.7449C16.5257 10.8132 16.1023 10.6603 15.6932 10.5127C15.1013 10.2988 14.489 10.078 13.9989 10.362C13.5015 10.6503 13.3861 11.2969 13.2757 11.9219C13.2007 12.3454 13.1235 12.784 12.9422 12.9647C12.7607 13.1454 12.3224 13.2237 11.899 13.2984C11.2739 13.4091 10.6274 13.5234 10.3406 14.0218C10.0564 14.5125 10.2776 15.1246 10.4914 15.7162C10.6396 16.1254 10.7924 16.5487 10.7236 16.8047C10.6598 17.0425 10.3257 17.323 10.002 17.5941C9.50902 18.007 9 18.4341 9 19.0229C9 19.6119 9.50902 20.0389 10.001 20.452C10.3244 20.7232 10.6589 21.0038 10.7222 21.2415C10.7908 21.4976 10.638 21.921 10.4901 22.3301C10.2763 22.9217 10.0551 23.5337 10.3393 24.0244C10.6278 24.5218 11.2742 24.6372 11.8993 24.7476C12.3227 24.8226 12.7615 24.8998 12.9422 25.0811C13.1228 25.2626 13.201 25.7009 13.2757 26.1243C13.3864 26.7494 13.5009 27.3959 13.9992 27.6828C14.4896 27.9669 15.1019 27.7454 15.6935 27.5319C16.103 27.384 16.5272 27.2315 16.7822 27.2997C17.0198 27.3635 17.3004 27.6976 17.5716 28.0213C17.9848 28.5133 18.4117 29.0223 19.0007 29.0223C19.5895 29.0223 20.0166 28.5133 20.4298 28.0213C20.701 27.698 20.9814 27.3635 21.2193 27.3002C21.4746 27.2312 21.8983 27.3844 22.3077 27.5322C22.8993 27.7457 23.5115 27.9666 24.0022 27.6831C24.4996 27.3946 24.6148 26.7481 24.7253 26.1246C24.8002 25.7012 24.8774 25.2626 25.0589 25.0818C25.2403 24.9011 25.6785 24.8229 26.1021 24.7483C26.727 24.6375 27.3736 24.5232 27.6604 24.0247C27.9445 23.534 27.7234 22.922 27.5096 22.3304C27.3613 21.9213 27.2085 21.4979 27.2775 21.242C27.3411 21.0041 27.6754 20.7237 27.9989 20.4524C28.4911 20.0392 29 19.6122 29 19.0232C29 18.4344 28.4917 18.007 27.9996 17.5938ZM27.5733 19.9441C27.1709 20.2812 26.7552 20.6305 26.6375 21.0715C26.5156 21.5287 26.7039 22.0513 26.8871 22.5566C27.0417 22.985 27.2171 23.4701 27.0861 23.6938C26.9535 23.926 26.4382 24.0158 25.9844 24.0961C25.4598 24.1889 24.9173 24.2847 24.5881 24.6141C24.2588 24.9432 24.163 25.4854 24.0705 26.01C23.9902 26.4638 23.8994 26.9782 23.6682 27.1117C23.4448 27.2411 22.9594 27.0657 22.5313 26.9127C22.026 26.7298 21.5034 26.5405 21.0459 26.6634C20.6061 26.7808 20.2571 27.1967 19.9185 27.5989C19.6177 27.9573 19.2769 28.3614 18.9973 28.3614C18.7179 28.3614 18.3769 27.9556 18.0762 27.5989C17.739 27.1967 17.3899 26.7808 16.9489 26.6631C16.8468 26.6367 16.7417 26.6236 16.6361 26.6244C16.232 26.6547 15.8358 26.7521 15.4638 26.9127C15.0354 27.0674 14.5499 27.2427 14.3264 27.1117C14.0943 26.9791 14.0044 26.4638 13.9243 26.01C13.8313 25.4854 13.7356 24.9429 13.4063 24.6137C13.077 24.2844 12.535 24.1886 12.0104 24.0961C11.5564 24.0158 11.0422 23.925 10.9085 23.6938C10.7793 23.4701 10.9546 22.985 11.1091 22.5569C11.2922 22.0513 11.4808 21.529 11.3584 21.0715C11.2411 20.6317 10.8253 20.2827 10.4231 19.9441C10.0647 19.6433 9.66056 19.3025 9.66056 19.0229C9.66056 18.7435 10.0663 18.4027 10.4231 18.1019C10.8253 17.7646 11.2411 17.4156 11.3588 16.9745C11.4808 16.5173 11.2925 15.9947 11.1091 15.4894C10.9546 15.061 10.7775 14.576 10.9085 14.352C11.0411 14.12 11.5564 14.0302 12.0104 13.9499C12.535 13.8569 13.0773 13.7613 13.4067 13.432C13.736 13.1026 13.8317 12.5606 13.9243 12.036C14.0044 11.5821 14.0954 11.0679 14.3264 10.9341C14.5492 10.8049 15.0354 10.9803 15.4635 11.1347C15.9691 11.3175 16.4912 11.5068 16.9489 11.3841C17.3885 11.2667 17.7377 10.8509 18.0762 10.4487C18.3769 10.0903 18.7179 9.68618 18.9973 9.68618C19.2769 9.68618 19.6177 10.0919 19.9185 10.4487C20.2556 10.8509 20.6048 11.2667 21.0459 11.3845C21.5034 11.5064 22.0257 11.3182 22.531 11.1347C22.9591 10.9803 23.4441 10.8031 23.6682 10.9341C23.9004 11.0669 23.9902 11.5821 24.0705 12.036C24.1633 12.5606 24.2591 13.103 24.5884 13.4323C24.9176 13.7616 25.4598 13.8574 25.9844 13.9499C26.4382 14.0302 26.9525 14.121 27.0861 14.352C27.2155 14.576 27.0401 15.061 26.8871 15.4891C26.7042 15.9947 26.5156 16.517 26.6378 16.9745C26.7552 17.4141 27.1709 17.7633 27.5733 18.1019C27.9317 18.4027 28.3358 18.7435 28.3358 19.0229C28.3358 19.3025 27.9317 19.6433 27.5733 19.9441Z" fill="white"/>
<path d="M19.0007 12.0596C15.155 12.0596 12.0376 15.1772 12.0376 19.0227C12.0376 22.8683 15.155 25.9858 19.0007 25.9858C22.8462 25.9858 25.9638 22.8683 25.9638 19.0227C25.9596 15.1788 22.8446 12.0638 19.0007 12.0596ZM19.0007 25.3226C15.5212 25.3226 12.7007 22.5021 12.7007 19.0227C12.7007 15.5434 15.5212 12.7227 19.0007 12.7227C22.48 12.7227 25.3006 15.5434 25.3006 19.0227C25.2967 22.5005 22.4784 25.3189 19.0007 25.3226Z" fill="white"/>
<path d="M15.7817 21.7727L21.7501 15.8043L22.2191 16.2732L16.2506 22.2417L15.7817 21.7727Z" fill="white"/>
<path d="M20.9896 19.686C20.257 19.686 19.6633 20.2798 19.6633 21.0123C19.6633 21.7449 20.257 22.3386 20.9896 22.3386C21.7221 22.3386 22.3159 21.7449 22.3159 21.0123C22.3159 20.2798 21.7221 19.686 20.9896 19.686ZM20.9896 21.6754C20.6234 21.6754 20.3265 21.3785 20.3265 21.0123C20.3265 20.6461 20.6234 20.3491 20.9896 20.3491C21.3559 20.3491 21.6528 20.6461 21.6528 21.0123C21.6528 21.3785 21.3559 21.6754 20.9896 21.6754Z" fill="white"/>
<path d="M17.0114 18.3598C17.7438 18.3598 18.3377 17.7661 18.3377 17.0335C18.3377 16.301 17.7438 15.7072 17.0114 15.7072C16.2788 15.7072 15.6851 16.301 15.6851 17.0335C15.6851 17.7661 16.2788 18.3598 17.0114 18.3598ZM17.0114 16.3703C17.3776 16.3703 17.6745 16.6672 17.6745 17.0335C17.6745 17.3997 17.3776 17.6966 17.0114 17.6966C16.6451 17.6966 16.3482 17.3997 16.3482 17.0335C16.3482 16.6672 16.6451 16.3703 17.0114 16.3703Z" fill="white"/>
</svg>

