<svg width="18" height="18" viewBox="0 0 18 18" fill="none" xmlns="http://www.w3.org/2000/svg">
<path d="M16.5938 9C16.5938 8.92541 16.5641 8.85387 16.5114 8.80113C16.4586 8.74838 16.3871 8.71875 16.3125 8.71875H11.8125V1.6875C11.8125 1.61291 11.7829 1.54137 11.7301 1.48863C11.6774 1.43588 11.6058 1.40625 11.5312 1.40625H4.21875C4.14416 1.40625 4.07262 1.43588 4.01988 1.48863C3.96713 1.54137 3.9375 1.61291 3.9375 1.6875V8.71875H1.6875C1.61291 8.71875 1.54137 8.74838 1.48863 8.80113C1.43588 8.85387 1.40625 8.92541 1.40625 9V16.0312H0.5625V16.5938H17.4375V16.0312H16.5938V9ZM11.8125 9.28125H13.5V10.2898L13.4176 10.2074C13.3649 10.1547 13.2933 10.1251 13.2188 10.1251C13.1442 10.1251 13.0726 10.1547 13.0199 10.2074L12.6562 10.5711L12.2926 10.2074C12.2399 10.1547 12.1683 10.1251 12.0938 10.1251C12.0192 10.1251 11.9476 10.1547 11.8949 10.2074L11.8125 10.2898V9.28125ZM8.71875 1.96875V2.97731L8.63634 2.89491C8.5836 2.84218 8.51208 2.81256 8.4375 2.81256C8.36292 2.81256 8.2914 2.84218 8.23866 2.89491L7.875 3.25856L7.51134 2.89491C7.4586 2.84218 7.38708 2.81256 7.3125 2.81256C7.23792 2.81256 7.1664 2.84218 7.11366 2.89491L7.03125 2.97731V1.96875H8.71875ZM4.5 1.96875H6.46875V3.65625C6.46876 3.71187 6.48526 3.76623 6.51617 3.81247C6.54707 3.85871 6.59099 3.89475 6.64238 3.91603C6.69376 3.93732 6.7503 3.94289 6.80485 3.93204C6.8594 3.92119 6.90951 3.89442 6.94884 3.85509L7.3125 3.49144L7.67616 3.85509C7.7289 3.90782 7.80042 3.93744 7.875 3.93744C7.94958 3.93744 8.0211 3.90782 8.07384 3.85509L8.4375 3.49144L8.80116 3.85509C8.84049 3.89442 8.8906 3.92119 8.94515 3.93204C8.9997 3.94289 9.05624 3.93732 9.10762 3.91603C9.15901 3.89475 9.20293 3.85871 9.23383 3.81247C9.26474 3.76623 9.28124 3.71187 9.28125 3.65625V1.96875H11.25V8.71875H4.5V1.96875ZM4.5 9.28125H6.1875V10.2898L6.10509 10.2074C6.05235 10.1547 5.98083 10.1251 5.90625 10.1251C5.83167 10.1251 5.76015 10.1547 5.70741 10.2074L5.34375 10.5711L4.98009 10.2074C4.92735 10.1547 4.85583 10.1251 4.78125 10.1251C4.70667 10.1251 4.63515 10.1547 4.58241 10.2074L4.5 10.2898V9.28125ZM1.96875 9.28125H3.9375V10.9688C3.93751 11.0244 3.95401 11.0787 3.98492 11.125C4.01582 11.1712 4.05974 11.2073 4.11113 11.2285C4.16251 11.2498 4.21905 11.2554 4.2736 11.2445C4.32815 11.2337 4.37826 11.2069 4.41759 11.1676L4.78125 10.8039L5.14491 11.1676C5.19765 11.2203 5.26917 11.2499 5.34375 11.2499C5.41833 11.2499 5.48985 11.2203 5.54259 11.1676L5.90625 10.8039L6.26991 11.1676C6.30924 11.2069 6.35935 11.2337 6.4139 11.2445C6.46845 11.2554 6.52499 11.2498 6.57637 11.2285C6.62776 11.2073 6.67168 11.1712 6.70258 11.125C6.73349 11.0787 6.74999 11.0244 6.75 10.9688V9.28125H8.71875V16.0312H1.96875V9.28125ZM9.28125 16.0312V9.28125H11.25V10.9688C11.25 11.0244 11.2665 11.0787 11.2974 11.125C11.3283 11.1712 11.3722 11.2073 11.4236 11.2285C11.475 11.2498 11.5316 11.2554 11.5861 11.2445C11.6407 11.2337 11.6908 11.2069 11.7301 11.1676L12.0938 10.8039L12.4574 11.1676C12.5101 11.2203 12.5817 11.2499 12.6562 11.2499C12.7308 11.2499 12.8024 11.2203 12.8551 11.1676L13.2188 10.8039L13.5824 11.1676C13.6217 11.2069 13.6718 11.2337 13.7264 11.2445C13.7809 11.2554 13.8375 11.2498 13.8889 11.2285C13.9403 11.2073 13.9842 11.1712 14.0151 11.125C14.046 11.0787 14.0625 11.0244 14.0625 10.9688V9.28125H16.0312V16.0312H9.28125Z" fill="#979797"/>
<path d="M2.53125 11.5312H3.9375V12.0938H2.53125V11.5312Z" fill="#979797"/>
<path d="M2.53125 12.6562H4.5V13.2188H2.53125V12.6562Z" fill="#979797"/>
<path d="M9.84375 11.5312H11.5312V12.0938H9.84375V11.5312Z" fill="#979797"/>
<path d="M9.84375 12.6562H12.375V13.2188H9.84375V12.6562Z" fill="#979797"/>
<path d="M5.0625 4.21875H5.90625V4.78125H5.0625V4.21875Z" fill="#979797"/>
<path d="M5.0625 5.34375H7.59375V5.90625H5.0625V5.34375Z" fill="#979797"/>
<path d="M7.875 13.7812H6.75C6.67541 13.7812 6.60387 13.8109 6.55113 13.8636C6.49838 13.9164 6.46875 13.9879 6.46875 14.0625V15.1875C6.46875 15.2621 6.49838 15.3336 6.55113 15.3864C6.60387 15.4391 6.67541 15.4688 6.75 15.4688H7.875C7.94959 15.4688 8.02113 15.4391 8.07387 15.3864C8.12662 15.3336 8.15625 15.2621 8.15625 15.1875V14.0625C8.15625 13.9879 8.12662 13.9164 8.07387 13.8636C8.02113 13.8109 7.94959 13.7812 7.875 13.7812ZM7.59375 14.9062H7.03125V14.3438H7.59375V14.9062Z" fill="#979797"/>
<path d="M15.1875 13.7812H14.0625C13.9879 13.7812 13.9164 13.8109 13.8636 13.8636C13.8109 13.9164 13.7812 13.9879 13.7812 14.0625V15.1875C13.7812 15.2621 13.8109 15.3336 13.8636 15.3864C13.9164 15.4391 13.9879 15.4688 14.0625 15.4688H15.1875C15.2621 15.4688 15.3336 15.4391 15.3864 15.3864C15.4391 15.3336 15.4688 15.2621 15.4688 15.1875V14.0625C15.4688 13.9879 15.4391 13.9164 15.3864 13.8636C15.3336 13.8109 15.2621 13.7812 15.1875 13.7812ZM14.9062 14.9062H14.3438V14.3438H14.9062V14.9062Z" fill="#979797"/>
<path d="M9.28125 8.15625H10.4062C10.4808 8.15625 10.5524 8.12662 10.6051 8.07387C10.6579 8.02113 10.6875 7.94959 10.6875 7.875V6.75C10.6875 6.67541 10.6579 6.60387 10.6051 6.55113C10.5524 6.49838 10.4808 6.46875 10.4062 6.46875H9.28125C9.20666 6.46875 9.13512 6.49838 9.08238 6.55113C9.02963 6.60387 9 6.67541 9 6.75V7.875C9 7.94959 9.02963 8.02113 9.08238 8.07387C9.13512 8.12662 9.20666 8.15625 9.28125 8.15625ZM9.5625 7.03125H10.125V7.59375H9.5625V7.03125Z" fill="#979797"/>
</svg>
