<svg width="18" height="18" viewBox="0 0 18 18" fill="none" xmlns="http://www.w3.org/2000/svg">
<g clip-path="url(#clip0)">
<path d="M17.6801 3.40455C17.4469 3.12885 17.1203 2.96045 16.7604 2.9304L4.08461 1.87199C3.72468 1.84193 3.37474 1.95383 3.09901 2.18702C2.82441 2.4193 2.65626 2.74424 2.62525 3.10238L2.37022 5.49496H1.35193C0.606478 5.49496 0 6.10144 0 6.84689V14.7817C0 15.5271 0.606478 16.1336 1.35193 16.1336H14.0719C14.8174 16.1336 15.4238 15.5271 15.4238 14.7817V13.4945L15.8752 13.5322C15.9133 13.5354 15.9511 13.537 15.9887 13.537C16.6836 13.537 17.2761 13.0023 17.335 12.2975L17.9952 4.39018C18.0252 4.03029 17.9133 3.68028 17.6801 3.40455ZM1.35193 6.19809H14.0719C14.4296 6.19809 14.7207 6.48914 14.7207 6.84689V7.56991H0.703122V6.84689C0.703122 6.48914 0.99418 6.19809 1.35193 6.19809ZM0.703122 8.27304H14.7207V9.73163H0.703122V8.27304ZM14.0719 15.4305H1.35193C0.99418 15.4305 0.703122 15.1394 0.703122 14.7817V10.4347H14.7207V14.7817C14.7207 15.1394 14.4296 15.4305 14.0719 15.4305ZM17.2945 4.33165L16.6343 12.2389C16.6045 12.5954 16.2901 12.8614 15.9337 12.8315L15.4238 12.7889V6.84689C15.4238 6.10144 14.8174 5.49496 14.0719 5.49496H3.07735L3.32482 3.17325C3.3251 3.17058 3.32535 3.16795 3.32556 3.16524C3.35533 2.80872 3.66949 2.5428 4.02611 2.57268L16.7019 3.63109C16.8747 3.64551 17.0314 3.72633 17.1433 3.85866C17.2552 3.99099 17.3089 4.15893 17.2945 4.33165Z" fill="#979797"/>
<path d="M13.2507 11.4805H9.86719C9.67302 11.4805 9.51562 11.6379 9.51562 11.832V14.0395C9.51562 14.2336 9.67302 14.391 9.86719 14.391H13.2507C13.4449 14.391 13.6023 14.2336 13.6023 14.0395V11.832C13.6023 11.6379 13.4449 11.4805 13.2507 11.4805ZM12.8991 13.6879H10.2188V12.1836H12.8991V13.6879Z" fill="#979797"/>
</g>
<defs>
<clipPath id="clip0">
<rect width="18" height="18" fill="white"/>
</clipPath>
</defs>
</svg>
