<svg width="58" height="58" viewBox="0 0 58 58" fill="none" xmlns="http://www.w3.org/2000/svg">
<path d="M3.625 51.6562C3.62783 54.1576 5.65489 56.1847 8.15625 56.1875H41.6875C48.6941 56.1882 54.3745 50.5088 54.3752 43.5023C54.3757 38.6013 51.5532 34.1384 47.125 32.0383V13.5938C47.125 13.3534 47.0295 13.1228 46.8596 12.9529L35.9846 2.07792C35.8147 1.908 35.5841 1.8125 35.3438 1.8125H8.15625C5.65489 1.81533 3.62783 3.84239 3.625 6.34375V51.6562ZM52.5625 43.5C52.5625 49.5061 47.6936 54.375 41.6875 54.375C35.6814 54.375 30.8125 49.5061 30.8125 43.5C30.8125 37.4939 35.6814 32.625 41.6875 32.625C47.6908 32.6318 52.5557 37.4967 52.5625 43.5ZM36.25 4.90655L44.031 12.6875H38.9688C37.4679 12.6858 36.2517 11.4696 36.25 9.96875V4.90655ZM5.4375 6.34375C5.4392 4.843 6.6555 3.6267 8.15625 3.625H34.4375V9.96875C34.4403 12.4701 36.4674 14.4972 38.9688 14.5H45.3125V31.3411C38.5989 29.3379 31.5326 33.1564 29.5294 39.8699C27.8724 45.4233 30.1896 51.3934 35.159 54.375H8.15625C6.6555 54.3733 5.4392 53.157 5.4375 51.6562V6.34375Z" fill="#9EA0A5"/>
<path d="M18.125 19.0312C18.125 19.5317 18.5308 19.9375 19.0312 19.9375H40.7812C41.2817 19.9375 41.6875 19.5317 41.6875 19.0312C41.6875 18.5308 41.2817 18.125 40.7812 18.125H19.0312C18.5308 18.125 18.125 18.5308 18.125 19.0312Z" fill="#9EA0A5"/>
<path d="M9.96875 25.375H28.0938C28.5942 25.375 29 24.9692 29 24.4688C29 23.9683 28.5942 23.5625 28.0938 23.5625H9.96875C9.46827 23.5625 9.0625 23.9683 9.0625 24.4688C9.0625 24.9692 9.46827 25.375 9.96875 25.375Z" fill="#9EA0A5"/>
<path d="M31.7188 29H24.4688C23.9683 29 23.5625 29.4058 23.5625 29.9062C23.5625 30.4067 23.9683 30.8125 24.4688 30.8125H31.7188C32.2192 30.8125 32.625 30.4067 32.625 29.9062C32.625 29.4058 32.2192 29 31.7188 29Z" fill="#9EA0A5"/>
<path d="M9.96875 36.25H26.2812C26.7817 36.25 27.1875 35.8442 27.1875 35.3438C27.1875 34.8433 26.7817 34.4375 26.2812 34.4375H9.96875C9.46827 34.4375 9.0625 34.8433 9.0625 35.3438C9.0625 35.8442 9.46827 36.25 9.96875 36.25Z" fill="#9EA0A5"/>
<path d="M9.96875 19.9375H15.4062C15.9067 19.9375 16.3125 19.5317 16.3125 19.0312C16.3125 18.5308 15.9067 18.125 15.4062 18.125H9.96875C9.46827 18.125 9.0625 18.5308 9.0625 19.0312C9.0625 19.5317 9.46827 19.9375 9.96875 19.9375Z" fill="#9EA0A5"/>
<path d="M40.7812 23.5625H31.7188C31.2183 23.5625 30.8125 23.9683 30.8125 24.4688C30.8125 24.9692 31.2183 25.375 31.7188 25.375H40.7812C41.2817 25.375 41.6875 24.9692 41.6875 24.4688C41.6875 23.9683 41.2817 23.5625 40.7812 23.5625Z" fill="#9EA0A5"/>
<path d="M9.96875 30.8125H20.8438C21.3442 30.8125 21.75 30.4067 21.75 29.9062C21.75 29.4058 21.3442 29 20.8438 29H9.96875C9.46827 29 9.0625 29.4058 9.0625 29.9062C9.0625 30.4067 9.46827 30.8125 9.96875 30.8125Z" fill="#9EA0A5"/>
<path d="M24.4688 45.3125H20.8438C20.3433 45.3125 19.9375 45.7183 19.9375 46.2188C19.9375 46.7192 20.3433 47.125 20.8438 47.125H24.4688C24.9692 47.125 25.375 46.7192 25.375 46.2188C25.375 45.7183 24.9692 45.3125 24.4688 45.3125Z" fill="#9EA0A5"/>
<path d="M9.96875 47.125H17.2188C17.7192 47.125 18.125 46.7192 18.125 46.2188C18.125 45.7183 17.7192 45.3125 17.2188 45.3125H9.96875C9.46827 45.3125 9.0625 45.7183 9.0625 46.2188C9.0625 46.7192 9.46827 47.125 9.96875 47.125Z" fill="#9EA0A5"/>
<path d="M9.96875 41.6875H15.4062C15.9067 41.6875 16.3125 41.2817 16.3125 40.7812C16.3125 40.2808 15.9067 39.875 15.4062 39.875H9.96875C9.46827 39.875 9.0625 40.2808 9.0625 40.7812C9.0625 41.2817 9.46827 41.6875 9.96875 41.6875Z" fill="#9EA0A5"/>
<path d="M9.96875 14.5H20.8438C21.3442 14.5 21.75 14.0942 21.75 13.5938C21.75 13.0933 21.3442 12.6875 20.8438 12.6875H9.96875C9.46827 12.6875 9.0625 13.0933 9.0625 13.5938C9.0625 14.0942 9.46827 14.5 9.96875 14.5Z" fill="#9EA0A5"/>
<path d="M24.4688 39.875H19.0312C18.5308 39.875 18.125 40.2808 18.125 40.7812C18.125 41.2817 18.5308 41.6875 19.0312 41.6875H24.4688C24.9692 41.6875 25.375 41.2817 25.375 40.7812C25.375 40.2808 24.9692 39.875 24.4688 39.875Z" fill="#9EA0A5"/>
<path d="M36.5762 37.3664C36.1916 37.6867 36.1396 38.2582 36.46 38.6427C36.46 38.6427 36.46 38.6428 36.4601 38.6428C36.4601 38.6428 39.8963 42.7718 40.988 44.0762C41.098 44.2078 41.2775 44.3608 41.5919 44.4014C41.6236 44.4054 41.6556 44.4063 41.6876 44.4063H48.0313C48.5318 44.4063 48.9376 44.0006 48.9376 43.5001C48.9376 42.9996 48.5318 42.5938 48.0313 42.5938H42.112L37.8527 37.4824C37.5323 37.0979 36.9608 37.0459 36.5762 37.3664Z" fill="#9EA0A5"/>
</svg>
