<svg width="39" height="39" viewBox="0 0 39 39" fill="none" xmlns="http://www.w3.org/2000/svg">
<circle cx="19.5" cy="19.5" r="19.5" fill="#4051B6"/>
<path d="M11.8481 19.7453C11.6515 19.7453 11.4922 19.9047 11.4922 20.1012V21.5248C11.4922 21.7214 11.6515 21.8808 11.8481 21.8808C12.0446 21.8808 12.204 21.7214 12.204 21.5248V20.1012C12.204 19.9047 12.0446 19.7453 11.8481 19.7453Z" fill="white"/>
<path d="M13.2702 20.4568C13.0737 20.4568 12.9143 20.6161 12.9143 20.8127V22.2363C12.9143 22.4329 13.0737 22.5922 13.2702 22.5922C13.4668 22.5922 13.6261 22.4329 13.6261 22.2363V20.8127C13.6261 20.6161 13.4668 20.4568 13.2702 20.4568Z" fill="white"/>
<path d="M26.2531 22.3671C26.0872 22.2616 25.8672 22.3107 25.7618 22.4766C25.6606 22.6358 25.7012 22.8464 25.8544 22.9565C26.8327 23.6152 27.0918 24.9422 26.4331 25.9205C25.7744 26.8988 24.4474 27.1579 23.4691 26.4992C22.4908 25.8405 22.2317 24.5134 22.8904 23.5352C23.287 22.9461 23.9506 22.5927 24.6607 22.5924C24.8573 22.5924 25.0166 22.433 25.0166 22.2365C25.0166 22.0399 24.8573 21.8806 24.6607 21.8806C23.0882 21.8809 21.8137 23.1559 21.814 24.7284C21.8143 26.3009 23.0893 27.5754 24.6618 27.5751C26.2343 27.5748 27.5088 26.2998 27.5085 24.7273C27.5084 23.7808 27.0378 22.8962 26.2531 22.3671Z" fill="white"/>
<path d="M28.7632 23.5458C28.4184 22.3512 27.5699 21.3663 26.4395 20.8485V12.9829C26.4395 12.857 26.3731 12.7405 26.2648 12.6764L18.4347 8.04961C18.323 7.98354 18.1841 7.98354 18.0724 8.04961L10.2424 12.6764C10.2349 12.6807 10.2296 12.6871 10.2224 12.6921C10.2153 12.6971 10.2086 12.7028 10.2014 12.7085C10.1705 12.7328 10.144 12.7622 10.1228 12.7953C10.1228 12.7978 10.1185 12.7992 10.1171 12.8017V12.8042C10.097 12.8404 10.0834 12.8798 10.0769 12.9206C10.0769 12.9313 10.0737 12.9412 10.0726 12.9519C10.0715 12.9626 10.0676 12.9722 10.0676 12.9829V22.2366C10.0676 22.3624 10.134 22.4789 10.2424 22.543L18.0724 27.1698C18.0818 27.1744 18.0914 27.1784 18.1012 27.1819C18.1109 27.1868 18.1209 27.191 18.1311 27.1947C18.2095 27.2275 18.2977 27.2275 18.376 27.1947C18.3863 27.191 18.3964 27.1868 18.4063 27.1819C18.4155 27.1777 18.4255 27.1752 18.4347 27.1698L20.5599 25.9138C21.2138 28.1791 23.5803 29.4854 25.8456 28.8314C28.1109 28.1775 29.4171 25.811 28.7632 23.5458ZM18.2536 8.76926L20.1043 9.86297L17.3602 11.4845C17.1909 11.5846 17.1347 11.803 17.2348 11.9723C17.3348 12.1416 17.5532 12.1978 17.7225 12.0977L20.8044 10.278L22.6551 11.3717L15.5248 15.5839L13.6741 14.4902L16.6555 12.7284C16.8249 12.6284 16.881 12.41 16.781 12.2406C16.6809 12.0713 16.4625 12.0151 16.2932 12.1152L12.9743 14.0766L11.1233 12.9829L18.2536 8.76926ZM15.1689 16.2007V18.5771L13.3303 17.4905V15.1141L15.1689 16.2007ZM20.5297 23.6277C20.435 23.9867 20.3877 24.3566 20.389 24.7279C20.3891 24.8769 20.3969 25.0257 20.4125 25.1739L18.6095 26.2398V25.0838C18.6095 24.8873 18.4501 24.7279 18.2536 24.7279C18.057 24.7279 17.8977 24.8873 17.8977 25.0838V26.2398L10.7794 22.0337V13.6068L12.6184 14.6934V17.6934C12.6183 17.8193 12.6847 17.936 12.7932 18.0002L15.3436 19.5074C15.3985 19.5397 15.4611 19.5568 15.5248 19.5569C15.7214 19.5569 15.8807 19.3975 15.8807 19.201V16.621L17.8977 17.8129V23.6602C17.8977 23.8567 18.057 24.0161 18.2536 24.0161C18.4501 24.0161 18.6095 23.8567 18.6095 23.6602V17.8129L25.06 14.0011C25.2292 13.9011 25.2853 13.6828 25.1853 13.5135C25.0852 13.3443 24.8669 13.2882 24.6977 13.3883L18.2536 17.1965L16.2249 15.9974L23.3552 11.7838L25.7277 13.1858V20.5994C23.456 20.0002 21.1288 21.356 20.5297 23.6277ZM24.66 28.287C22.6943 28.287 21.1008 26.6936 21.1008 24.7279C21.1008 22.7623 22.6943 21.1688 24.66 21.1688C26.6256 21.1688 28.2191 22.7623 28.2191 24.7279C28.2169 26.6927 26.6247 28.2848 24.66 28.287Z" fill="white"/>
<path d="M25.9711 23.7644C25.8332 23.6311 25.6145 23.6311 25.4766 23.7644L24.1266 25.1143L23.8444 24.8321C23.703 24.6955 23.4777 24.6994 23.3411 24.8408C23.2079 24.9787 23.2079 25.1974 23.3411 25.3353L23.875 25.8692C24.014 26.0082 24.2393 26.0082 24.3783 25.8692L25.9799 24.2676C26.1164 24.1262 26.1125 23.9009 25.9711 23.7644Z" fill="white"/>
</svg>