<svg width="16" height="16" viewBox="0 0 16 16" fill="none" xmlns="http://www.w3.org/2000/svg">
<path d="M14.9529 2.50787H11.7277C10.9912 1.20975 9.59616 0.332031 8 0.332031C6.40384 0.332031 5.00884 1.20975 4.27228 2.50787H1.04709C0.469719 2.50787 0 2.97853 0 3.55703V13.0825C0 13.661 0.469719 14.1317 1.04709 14.1317H6.20347V15.0442H3.51197C3.33938 15.0442 3.19947 15.1842 3.19947 15.3567C3.19947 15.5293 3.33938 15.6692 3.51197 15.6692H12.488C12.6606 15.6692 12.8005 15.5293 12.8005 15.3567C12.8005 15.1842 12.6606 15.0442 12.488 15.0442H9.79653V14.1317H14.9529C15.5303 14.1317 16 13.661 16 13.0825V3.55703C16 2.97853 15.5303 2.50787 14.9529 2.50787ZM8 0.957031C10.0169 0.957031 11.6577 2.59787 11.6577 4.61472C11.6577 6.29919 10.5176 7.75894 8.88525 8.16459C8.82303 8.18006 8.76709 8.21428 8.725 8.26262L8 9.09484L7.27503 8.26262C7.23294 8.21428 7.17697 8.18006 7.11478 8.16459C5.48241 7.75897 4.34234 6.29922 4.34234 4.61472C4.34231 2.59787 5.98312 0.957031 8 0.957031ZM9.17153 15.0443H6.82844V14.1317H9.17153V15.0443ZM14.9529 13.5067H1.04709C0.814344 13.5067 0.625 13.3164 0.625 13.0825V11.5446H10.2914C10.464 11.5446 10.6039 11.4047 10.6039 11.2321C10.6039 11.0596 10.464 10.9196 10.2914 10.9196H0.625V3.55703C0.625 3.32319 0.814344 3.13291 1.04709 3.13291H3.98163C3.81072 3.59488 3.71731 4.09409 3.71731 4.61475C3.71731 6.5535 5.00741 8.23803 6.86713 8.74591L7.76438 9.77584C7.82372 9.844 7.90966 9.88309 8 9.88309C8.09034 9.88309 8.17628 9.844 8.23563 9.77584L9.13284 8.74591C10.9926 8.23803 12.2827 6.5535 12.2827 4.61475C12.2827 4.09409 12.1892 3.59488 12.0183 3.13291H14.9529C15.1856 3.13291 15.375 3.32319 15.375 3.55703V10.9196H13.1168C12.9442 10.9196 12.8043 11.0596 12.8043 11.2321C12.8043 11.4047 12.9442 11.5446 13.1168 11.5446H15.375V13.0825C15.375 13.3164 15.1857 13.5067 14.9529 13.5067Z" fill="#979797"/>
<path d="M8.5425 12.2148H7.45703C7.28444 12.2148 7.14453 12.3548 7.14453 12.5273C7.14453 12.6999 7.28444 12.8398 7.45703 12.8398H8.5425C8.71509 12.8398 8.855 12.6999 8.855 12.5273C8.855 12.3548 8.71509 12.2148 8.5425 12.2148Z" fill="#979797"/>
<path d="M7.99875 7.63266C8.54301 7.63266 8.98579 7.18988 8.98579 6.64563V5.62766C8.98579 5.08341 8.54301 4.64062 7.99875 4.64062C7.45447 4.64062 7.01172 5.08341 7.01172 5.62766V6.64563C7.01172 7.18988 7.45447 7.63266 7.99875 7.63266ZM7.63672 5.62766C7.63672 5.42803 7.79913 5.26563 7.99875 5.26563C8.19838 5.26563 8.36079 5.42803 8.36079 5.62766V6.64563C8.36079 6.84525 8.19838 7.00766 7.99875 7.00766C7.79913 7.00766 7.63672 6.84525 7.63672 6.64563V5.62766Z" fill="#979797"/>
<path d="M7.99875 3.93106C8.54301 3.93106 8.98579 3.48828 8.98579 2.94403C8.98579 2.39978 8.54301 1.95703 7.99875 1.95703C7.45447 1.95703 7.01172 2.39981 7.01172 2.94406C7.01172 3.48831 7.45447 3.93106 7.99875 3.93106ZM7.99875 2.58203C8.19838 2.58203 8.36079 2.74444 8.36079 2.94406C8.36079 3.14369 8.19838 3.30609 7.99875 3.30609C7.79913 3.30609 7.63672 3.14369 7.63672 2.94406C7.63672 2.74444 7.79913 2.58203 7.99875 2.58203Z" fill="#979797"/>
<path d="M11.9992 11.1109C11.9481 10.9881 11.8212 10.9092 11.6883 10.9188C11.5609 10.928 11.4498 11.0167 11.412 11.1386C11.3739 11.2615 11.4179 11.4003 11.5204 11.4784C11.6261 11.5589 11.7735 11.5633 11.8842 11.4902C12.0074 11.4089 12.0549 11.2466 11.9992 11.1109Z" fill="#979797"/>
</svg>
