<svg width="39" height="39" viewBox="0 0 39 39" fill="none" xmlns="http://www.w3.org/2000/svg">
    <path d="M38.2124 5.66262L33.3374 0.787617C33.223 0.673423 33.0679 0.609315 32.9062 0.609375H9.75C9.58838 0.609375 9.43339 0.673577 9.31911 0.787857C9.20483 0.902137 9.14062 1.05713 9.14062 1.21875V18.9668C7.01923 19.2339 5.04504 20.1929 3.52371 21.6953C3.50391 21.7113 3.4841 21.728 3.46506 21.7463C3.44601 21.7646 3.43002 21.7852 3.41402 21.805C1.61695 23.6263 0.609375 26.082 0.609375 28.6406C0.609375 31.1993 1.61695 33.655 3.41402 35.4763C3.43002 35.4961 3.44678 35.5159 3.46506 35.5349C3.48334 35.554 3.50391 35.57 3.52371 35.586C5.1458 37.1878 7.27926 38.1687 9.55119 38.3571C9.61517 38.3791 9.68234 38.3905 9.75 38.3906H37.7812C37.9429 38.3906 38.0979 38.3264 38.2121 38.2121C38.3264 38.0979 38.3906 37.9429 38.3906 37.7812V6.09375C38.3907 5.9321 38.3266 5.77703 38.2124 5.66262ZM33.5156 2.68963L36.3104 5.48438H33.5156V2.68963ZM10.3594 35.9531C10.1978 35.9531 10.0428 36.0173 9.92848 36.1316C9.8142 36.2459 9.75 36.4009 9.75 36.5625V37.1498C7.9121 37.0195 6.16637 36.2953 4.77598 35.0863L5.18883 34.6734C5.24544 34.6168 5.29036 34.5496 5.321 34.4756C5.35164 34.4017 5.36741 34.3224 5.36741 34.2423C5.36741 34.1622 5.35164 34.083 5.321 34.009C5.29036 33.935 5.24544 33.8678 5.18883 33.8112C5.13221 33.7546 5.065 33.7096 4.99102 33.679C4.91705 33.6484 4.83776 33.6326 4.75769 33.6326C4.67763 33.6326 4.59834 33.6484 4.52437 33.679C4.45039 33.7096 4.38318 33.7546 4.32656 33.8112L3.91447 34.224C2.70496 32.8339 1.98043 31.0881 1.85021 29.25H2.4375C2.59912 29.25 2.75411 29.1858 2.86839 29.0715C2.98267 28.9572 3.04687 28.8022 3.04687 28.6406C3.04687 28.479 2.98267 28.324 2.86839 28.2097C2.75411 28.0955 2.59912 28.0312 2.4375 28.0312H1.85021C1.98043 26.1932 2.70496 24.4474 3.91447 23.0572L4.32656 23.4701C4.38318 23.5267 4.45039 23.5716 4.52437 23.6022C4.59834 23.6329 4.67763 23.6487 4.75769 23.6487C4.83776 23.6487 4.91705 23.6329 4.99102 23.6022C5.065 23.5716 5.13221 23.5267 5.18883 23.4701C5.24544 23.4135 5.29036 23.3462 5.321 23.2723C5.35164 23.1983 5.36741 23.119 5.36741 23.0389C5.36741 22.9589 5.35164 22.8796 5.321 22.8056C5.29036 22.7316 5.24544 22.6644 5.18883 22.6078L4.77598 22.195C6.16637 20.986 7.9121 20.2618 9.75 20.1315V20.7188C9.75 20.8804 9.8142 21.0354 9.92848 21.1496C10.0428 21.2639 10.1978 21.3281 10.3594 21.3281C10.521 21.3281 10.676 21.2639 10.7903 21.1496C10.9045 21.0354 10.9687 20.8804 10.9687 20.7188V20.1315C12.8066 20.2618 14.5524 20.986 15.9428 22.195L15.5299 22.6078C15.4156 22.7222 15.3513 22.8772 15.3513 23.0389C15.3513 23.2007 15.4156 23.3557 15.5299 23.4701C15.6443 23.5844 15.7993 23.6487 15.9611 23.6487C16.1228 23.6487 16.2778 23.5844 16.3922 23.4701L16.8043 23.0572C18.0138 24.4474 18.7383 26.1932 18.8685 28.0312H18.2812C18.1196 28.0312 17.9646 28.0955 17.8504 28.2097C17.7361 28.324 17.6719 28.479 17.6719 28.6406C17.6719 28.8022 17.7361 28.9572 17.8504 29.0715C17.9646 29.1858 18.1196 29.25 18.2812 29.25H18.8685C18.7383 31.0881 18.0138 32.8339 16.8043 34.224L16.3922 33.8112C16.3356 33.7546 16.2684 33.7096 16.1944 33.679C16.1204 33.6484 16.0411 33.6326 15.9611 33.6326C15.881 33.6326 15.8017 33.6484 15.7277 33.679C15.6538 33.7096 15.5865 33.7546 15.5299 33.8112C15.4733 33.8678 15.4284 33.935 15.3978 34.009C15.3671 34.083 15.3513 34.1622 15.3513 34.2423C15.3513 34.3224 15.3671 34.4017 15.3978 34.4756C15.4284 34.5496 15.4733 34.6168 15.5299 34.6734L15.9428 35.0863C14.5524 36.2953 12.8066 37.0195 10.9687 37.1498V36.5625C10.9687 36.4009 10.9045 36.2459 10.7903 36.1316C10.676 36.0173 10.521 35.9531 10.3594 35.9531ZM37.1719 37.1719H15.0752C15.85 36.7412 16.5631 36.2077 17.195 35.586C17.2148 35.57 17.2346 35.5532 17.2537 35.5349C17.2727 35.5167 17.2887 35.4961 17.3047 35.4763C19.1018 33.655 20.1094 31.1993 20.1094 28.6406C20.1094 26.082 19.1018 23.6263 17.3047 21.805C17.2887 21.7852 17.272 21.7654 17.2537 21.7463C17.2354 21.7273 17.2148 21.7113 17.195 21.6953C15.3746 19.8968 12.9183 18.889 10.3594 18.8906V1.82812H32.2969V6.09375C32.2969 6.25537 32.3611 6.41036 32.4754 6.52464C32.5896 6.63892 32.7446 6.70312 32.9062 6.70312H37.1719V37.1719Z" fill="#9EA0A5"/>
    <path d="M34.125 9.75H22.5469C22.3853 9.75 22.2303 9.8142 22.116 9.92848C22.0017 10.0428 21.9375 10.1978 21.9375 10.3594C21.9375 10.521 22.0017 10.676 22.116 10.7903C22.2303 10.9045 22.3853 10.9688 22.5469 10.9688H34.125C34.2866 10.9688 34.4416 10.9045 34.5559 10.7903C34.6702 10.676 34.7344 10.521 34.7344 10.3594C34.7344 10.1978 34.6702 10.0428 34.5559 9.92848C34.4416 9.8142 34.2866 9.75 34.125 9.75Z" fill="#9EA0A5"/>
    <path d="M34.125 11.5781H22.5469C22.3853 11.5781 22.2303 11.6423 22.116 11.7566C22.0017 11.8709 21.9375 12.0259 21.9375 12.1875C21.9375 12.3491 22.0017 12.5041 22.116 12.6184C22.2303 12.7327 22.3853 12.7969 22.5469 12.7969H34.125C34.2866 12.7969 34.4416 12.7327 34.5559 12.6184C34.6702 12.5041 34.7344 12.3491 34.7344 12.1875C34.7344 12.0259 34.6702 11.8709 34.5559 11.7566C34.4416 11.6423 34.2866 11.5781 34.125 11.5781Z" fill="#9EA0A5"/>
    <path d="M34.125 14.0156H13.4062C13.2446 14.0156 13.0896 14.0798 12.9754 14.1941C12.8611 14.3084 12.7969 14.4634 12.7969 14.625C12.7969 14.7866 12.8611 14.9416 12.9754 15.0559C13.0896 15.1702 13.2446 15.2344 13.4062 15.2344H34.125C34.2866 15.2344 34.4416 15.1702 34.5559 15.0559C34.6702 14.9416 34.7344 14.7866 34.7344 14.625C34.7344 14.4634 34.6702 14.3084 34.5559 14.1941C34.4416 14.0798 34.2866 14.0156 34.125 14.0156Z" fill="#9EA0A5"/>
    <path d="M29.8594 16.4531C29.8594 16.2915 29.7952 16.1365 29.6809 16.0222C29.5666 15.908 29.4116 15.8438 29.25 15.8438H13.4062C13.2446 15.8438 13.0896 15.908 12.9754 16.0222C12.8611 16.1365 12.7969 16.2915 12.7969 16.4531C12.7969 16.6147 12.8611 16.7697 12.9754 16.884C13.0896 16.9983 13.2446 17.0625 13.4062 17.0625H29.25C29.4116 17.0625 29.5666 16.9983 29.6809 16.884C29.7952 16.7697 29.8594 16.6147 29.8594 16.4531Z" fill="#9EA0A5"/>
    <path d="M34.125 18.2812H21.9375C21.7759 18.2812 21.6209 18.3455 21.5066 18.4597C21.3923 18.574 21.3281 18.729 21.3281 18.8906C21.3281 19.0522 21.3923 19.2072 21.5066 19.3215C21.6209 19.4358 21.7759 19.5 21.9375 19.5H34.125C34.2866 19.5 34.4416 19.4358 34.5559 19.3215C34.6702 19.2072 34.7344 19.0522 34.7344 18.8906C34.7344 18.729 34.6702 18.574 34.5559 18.4597C34.4416 18.3455 34.2866 18.2812 34.125 18.2812Z" fill="#9EA0A5"/>
    <path d="M21.9375 21.3281H31.6875C31.8491 21.3281 32.0041 21.2639 32.1184 21.1496C32.2327 21.0354 32.2969 20.8804 32.2969 20.7188C32.2969 20.5571 32.2327 20.4021 32.1184 20.2879C32.0041 20.1736 31.8491 20.1094 31.6875 20.1094H21.9375C21.7759 20.1094 21.6209 20.1736 21.5066 20.2879C21.3923 20.4021 21.3281 20.5571 21.3281 20.7188C21.3281 20.8804 21.3923 21.0354 21.5066 21.1496C21.6209 21.2639 21.7759 21.3281 21.9375 21.3281Z" fill="#9EA0A5"/>
    <path d="M34.125 22.5469H21.9375C21.7759 22.5469 21.6209 22.6111 21.5066 22.7254C21.3923 22.8396 21.3281 22.9946 21.3281 23.1562C21.3281 23.3179 21.3923 23.4729 21.5066 23.5871C21.6209 23.7014 21.7759 23.7656 21.9375 23.7656H34.125C34.2866 23.7656 34.4416 23.7014 34.5559 23.5871C34.6702 23.4729 34.7344 23.3179 34.7344 23.1562C34.7344 22.9946 34.6702 22.8396 34.5559 22.7254C34.4416 22.6111 34.2866 22.5469 34.125 22.5469Z" fill="#9EA0A5"/>
    <path d="M21.9375 25.5938H31.6875C31.8491 25.5938 32.0041 25.5295 32.1184 25.4153C32.2327 25.301 32.2969 25.146 32.2969 24.9844C32.2969 24.8228 32.2327 24.6678 32.1184 24.5535C32.0041 24.4392 31.8491 24.375 31.6875 24.375H21.9375C21.7759 24.375 21.6209 24.4392 21.5066 24.5535C21.3923 24.6678 21.3281 24.8228 21.3281 24.9844C21.3281 25.146 21.3923 25.301 21.5066 25.4153C21.6209 25.5295 21.7759 25.5938 21.9375 25.5938Z" fill="#9EA0A5"/>
    <path d="M34.125 26.8125H21.9375C21.7759 26.8125 21.6209 26.8767 21.5066 26.991C21.3923 27.1053 21.3281 27.2603 21.3281 27.4219C21.3281 27.5835 21.3923 27.7385 21.5066 27.8528C21.6209 27.967 21.7759 28.0312 21.9375 28.0312H34.125C34.2866 28.0312 34.4416 27.967 34.5559 27.8528C34.6702 27.7385 34.7344 27.5835 34.7344 27.4219C34.7344 27.2603 34.6702 27.1053 34.5559 26.991C34.4416 26.8767 34.2866 26.8125 34.125 26.8125Z" fill="#9EA0A5"/>
    <path d="M21.9375 29.8594H31.6875C31.8491 29.8594 32.0041 29.7952 32.1184 29.6809C32.2327 29.5666 32.2969 29.4116 32.2969 29.25C32.2969 29.0884 32.2327 28.9334 32.1184 28.8191C32.0041 28.7048 31.8491 28.6406 31.6875 28.6406H21.9375C21.7759 28.6406 21.6209 28.7048 21.5066 28.8191C21.3923 28.9334 21.3281 29.0884 21.3281 29.25C21.3281 29.4116 21.3923 29.5666 21.5066 29.6809C21.6209 29.7952 21.7759 29.8594 21.9375 29.8594Z" fill="#9EA0A5"/>
    <path d="M34.125 31.0781H21.9375C21.7759 31.0781 21.6209 31.1423 21.5066 31.2566C21.3923 31.3709 21.3281 31.5259 21.3281 31.6875C21.3281 31.8491 21.3923 32.0041 21.5066 32.1184C21.6209 32.2327 21.7759 32.2969 21.9375 32.2969H34.125C34.2866 32.2969 34.4416 32.2327 34.5559 32.1184C34.6702 32.0041 34.7344 31.8491 34.7344 31.6875C34.7344 31.5259 34.6702 31.3709 34.5559 31.2566C34.4416 31.1423 34.2866 31.0781 34.125 31.0781Z" fill="#9EA0A5"/>
    <path d="M31.6875 32.9062H21.9375C21.7759 32.9062 21.6209 32.9705 21.5066 33.0847C21.3923 33.199 21.3281 33.354 21.3281 33.5156C21.3281 33.6772 21.3923 33.8322 21.5066 33.9465C21.6209 34.0608 21.7759 34.125 21.9375 34.125H31.6875C31.8491 34.125 32.0041 34.0608 32.1184 33.9465C32.2327 33.8322 32.2969 33.6772 32.2969 33.5156C32.2969 33.354 32.2327 33.199 32.1184 33.0847C32.0041 32.9705 31.8491 32.9062 31.6875 32.9062Z" fill="#9EA0A5"/>
    <path d="M20.7188 4.26562H13.4062C13.2446 4.26562 13.0896 4.32983 12.9754 4.44411C12.8611 4.55839 12.7969 4.71338 12.7969 4.875V12.1875C12.7969 12.3491 12.8611 12.5041 12.9754 12.6184C13.0896 12.7327 13.2446 12.7969 13.4062 12.7969H20.7188C20.8804 12.7969 21.0354 12.7327 21.1496 12.6184C21.2639 12.5041 21.3281 12.3491 21.3281 12.1875V4.875C21.3281 4.71338 21.2639 4.55839 21.1496 4.44411C21.0354 4.32983 20.8804 4.26562 20.7188 4.26562ZM16.4531 5.48438H17.6719V7.92188H16.4531V5.48438ZM20.1094 11.5781H14.0156V5.48438H15.2344V8.53125C15.2344 8.69287 15.2986 8.84786 15.4129 8.96214C15.5271 9.07642 15.6821 9.14062 15.8438 9.14062H18.2812C18.4429 9.14062 18.5979 9.07642 18.7121 8.96214C18.8264 8.84786 18.8906 8.69287 18.8906 8.53125V5.48438H20.1094V11.5781Z" fill="#9EA0A5"/>
    <path d="M10.9692 26.9173V23.1562C10.9692 22.9946 10.905 22.8396 10.7907 22.7254C10.6764 22.6111 10.5214 22.5469 10.3598 22.5469C10.1982 22.5469 10.0432 22.6111 9.92888 22.7254C9.8146 22.8396 9.7504 22.9946 9.7504 23.1562V26.9173C9.45919 27.0202 9.19879 27.1952 8.99351 27.4259C8.78822 27.6567 8.64475 27.9357 8.57648 28.2369C8.5082 28.5381 8.51735 28.8517 8.60308 29.1484C8.6888 29.4451 8.8483 29.7153 9.0667 29.9337C9.28509 30.1521 9.55525 30.3116 9.85197 30.3973C10.1487 30.483 10.4623 30.4922 10.7635 30.4239C11.0647 30.3556 11.3437 30.2122 11.5745 30.0069C11.8052 29.8016 11.9802 29.5412 12.0831 29.25H14.016C14.1776 29.25 14.3326 29.1858 14.4469 29.0715C14.5612 28.9572 14.6254 28.8022 14.6254 28.6406C14.6254 28.479 14.5612 28.324 14.4469 28.2097C14.3326 28.0954 14.1776 28.0312 14.016 28.0312H12.0831C11.9916 27.7746 11.8442 27.5415 11.6516 27.3488C11.4589 27.1562 11.2258 27.0088 10.9692 26.9173ZM10.3598 29.25C10.2393 29.25 10.1214 29.2143 10.0212 29.1473C9.92102 29.0803 9.84291 28.9852 9.79679 28.8738C9.75067 28.7625 9.7386 28.6399 9.76211 28.5217C9.78562 28.4035 9.84366 28.2949 9.92888 28.2097C10.0141 28.1245 10.1227 28.0665 10.2409 28.043C10.3591 28.0194 10.4816 28.0315 10.593 28.0776C10.7043 28.1238 10.7995 28.2019 10.8665 28.3021C10.9334 28.4023 10.9692 28.5201 10.9692 28.6406C10.969 28.8022 10.9047 28.9571 10.7905 29.0713C10.6762 29.1856 10.5213 29.2498 10.3598 29.25Z" fill="#9EA0A5"/>
</svg>
