<svg width="38" height="39" viewBox="0 0 38 39" fill="none" xmlns="http://www.w3.org/2000/svg">
<ellipse cx="19" cy="19.5" rx="19" ry="19.5" fill="#4051B6"/>
<path d="M19.2341 19.8238C19.2008 19.8166 19.1667 19.8153 19.1329 19.8203C18.7949 19.781 18.5398 19.4949 18.5393 19.1547C18.5393 18.9917 18.4071 18.8595 18.244 18.8595C18.081 18.8595 17.9488 18.9917 17.9488 19.1547C17.9496 19.7229 18.3296 20.2205 18.8775 20.3709V20.6661C18.8775 20.8292 19.0097 20.9614 19.1727 20.9614C19.3358 20.9614 19.468 20.8292 19.468 20.6661V20.3888C20.1003 20.2564 20.5301 19.6675 20.4636 19.025C20.397 18.3824 19.8556 17.8941 19.2096 17.894C18.8394 17.894 18.5393 17.5938 18.5393 17.2236C18.5393 16.8534 18.8394 16.5532 19.2096 16.5532C19.5799 16.5532 19.88 16.8534 19.88 17.2236C19.88 17.3867 20.0122 17.5189 20.1753 17.5189C20.3383 17.5189 20.4705 17.3867 20.4705 17.2236C20.4696 16.627 20.0517 16.1125 19.468 15.9894V15.7207C19.468 15.5576 19.3358 15.4254 19.1727 15.4254C19.0097 15.4254 18.8775 15.5576 18.8775 15.7207V16.0074C18.2682 16.1738 17.8761 16.7653 17.96 17.3913C18.0439 18.0172 18.578 18.4845 19.2096 18.4843C19.575 18.4843 19.8729 18.7768 19.8796 19.142C19.8864 19.5072 19.5992 19.8105 19.2341 19.8238Z" fill="white"/>
<path d="M14.928 18.2118C14.928 20.5764 16.8448 22.4932 19.2094 22.4932C21.574 22.4932 23.4909 20.5764 23.4909 18.2118C23.4909 15.8472 21.574 13.9304 19.2094 13.9304C16.846 13.933 14.9307 15.8483 14.928 18.2118ZM19.2094 14.5209C21.2479 14.5209 22.9004 16.1733 22.9004 18.2118C22.9004 20.2503 21.2479 21.9027 19.2094 21.9027C17.1709 21.9027 15.5185 20.2503 15.5185 18.2118C15.5208 16.1743 17.1719 14.5232 19.2094 14.5209Z" fill="white"/>
<path d="M24.9475 23.2209L22.6346 24.3137C22.3153 23.7197 21.7028 23.3417 21.0286 23.3227L18.8935 23.264C18.5555 23.2544 18.2237 23.1687 17.9232 23.0135L17.7059 22.9009C16.5935 22.321 15.2676 22.3225 14.1564 22.9046L14.1699 22.4124C14.1744 22.2494 14.046 22.1136 13.8829 22.1091L11.5416 22.0447C11.3786 22.0402 11.2429 22.1687 11.2385 22.3317L11.097 27.4695C11.0926 27.6325 11.221 27.7683 11.3841 27.7728L13.7253 27.8373H13.7334C13.8934 27.8373 14.0243 27.71 14.0287 27.5501L14.0354 27.3043L14.6437 26.9786C14.8824 26.8502 15.1615 26.8196 15.4223 26.8934L19.0544 27.9128C19.0608 27.9147 19.0671 27.9161 19.0736 27.9176C19.3361 27.9725 19.6037 28 19.8718 27.9999C20.4399 28.0002 21.0012 27.8778 21.5175 27.6408C21.5302 27.635 21.5424 27.6282 21.5541 27.6206L26.8204 24.2142C26.9515 24.1293 26.9939 23.957 26.9171 23.8209C26.5261 23.1272 25.659 22.863 24.9475 23.2209ZM11.6955 27.1907L11.8206 22.6431L13.5715 22.6913L13.4464 27.239L11.6955 27.1907ZM21.2515 27.1134C20.6101 27.4029 19.8938 27.4828 19.2044 27.3419L15.582 26.3251C15.1743 26.2099 14.7379 26.2576 14.365 26.4582L14.0542 26.6247L14.1374 23.6011C15.1223 22.946 16.3855 22.8787 17.4344 23.4252L17.6517 23.5378C18.0314 23.7339 18.4502 23.842 18.8774 23.8544L21.0126 23.9131C21.6124 23.9304 22.1217 24.3574 22.2434 24.945L19.0629 24.8572C18.8999 24.8527 18.7642 24.9813 18.7596 25.1442C18.7551 25.3073 18.8837 25.4431 19.0466 25.4476L22.5565 25.5442H22.5647C22.7246 25.544 22.8554 25.4167 22.8597 25.257C22.8633 25.1287 22.8538 25.0002 22.8311 24.8739L25.2034 23.753C25.2057 23.752 25.208 23.7509 25.2103 23.7497C25.5468 23.5795 25.9536 23.6364 26.2304 23.8926L21.2515 27.1134Z" fill="white"/>
<path d="M19.5053 13.1001V10.2953C19.5053 10.1322 19.3731 10 19.21 10C19.047 10 18.9148 10.1322 18.9148 10.2953V13.1001C18.9148 13.2632 19.047 13.3954 19.21 13.3954C19.3731 13.3954 19.5053 13.2632 19.5053 13.1001Z" fill="white"/>
<path d="M21.7204 13.1001V11.7714C21.7204 11.6084 21.5882 11.4762 21.4251 11.4762C21.2621 11.4762 21.1299 11.6084 21.1299 11.7714V13.1001C21.1299 13.2631 21.2621 13.3953 21.4251 13.3953C21.5882 13.3953 21.7204 13.2631 21.7204 13.1001Z" fill="white"/>
<path d="M17.2907 13.1001V11.7714C17.2907 11.6084 17.1585 11.4762 16.9954 11.4762C16.8324 11.4762 16.7002 11.6084 16.7002 11.7714V13.1001C16.7002 13.2631 16.8324 13.3953 16.9954 13.3953C17.1585 13.3953 17.2907 13.2631 17.2907 13.1001Z" fill="white"/>
</svg>