<svg width="38" height="39" viewBox="0 0 38 39" fill="none" xmlns="http://www.w3.org/2000/svg">
<ellipse cx="19" cy="19.5" rx="19" ry="19.5" fill="#4051B6"/>
<g clip-path="url(#clip0)">
<path d="M22.7502 28.0001C20.2047 28.0001 17.5002 27.2111 17.5002 25.7501C17.5002 25.5431 17.6682 25.3751 17.8752 25.3751C18.0822 25.3751 18.2502 25.5431 18.2502 25.7501C18.2502 26.3764 19.9617 27.2501 22.7502 27.2501C25.5387 27.2501 27.2502 26.3764 27.2502 25.7501C27.2502 25.5431 27.4182 25.3751 27.6252 25.3751C27.8322 25.3751 28.0002 25.5431 28.0002 25.7501C28.0002 27.2111 25.2957 28.0001 22.7502 28.0001Z" fill="white"/>
<path d="M22.7502 25.7501C20.2047 25.7501 17.5002 24.9611 17.5002 23.5001C17.5002 23.2931 17.6682 23.1251 17.8752 23.1251C18.0822 23.1251 18.2502 23.2931 18.2502 23.5001C18.2502 24.1264 19.9617 25.0001 22.7502 25.0001C25.5387 25.0001 27.2502 24.1264 27.2502 23.5001C27.2502 23.2931 27.4182 23.1251 27.6252 23.1251C27.8322 23.1251 28.0002 23.2931 28.0002 23.5001C28.0002 24.9611 25.2957 25.7501 22.7502 25.7501Z" fill="white"/>
<path d="M22.7502 23.5C20.2047 23.5 17.5002 22.711 17.5002 21.25C17.5002 19.789 20.2047 19 22.7502 19C25.2957 19 28.0002 19.789 28.0002 21.25C28.0002 22.711 25.2957 23.5 22.7502 23.5ZM22.7502 19.75C19.9617 19.75 18.2502 20.6237 18.2502 21.25C18.2502 21.8763 19.9617 22.75 22.7502 22.75C25.5387 22.75 27.2502 21.8763 27.2502 21.25C27.2502 20.6237 25.5387 19.75 22.7502 19.75Z" fill="white"/>
<path d="M27.6248 26.1251C27.4178 26.1251 27.2498 25.9571 27.2498 25.7501V21.2501C27.2498 21.0431 27.4178 20.8751 27.6248 20.8751C27.8318 20.8751 27.9998 21.0431 27.9998 21.2501V25.7501C27.9998 25.9571 27.8318 26.1251 27.6248 26.1251Z" fill="white"/>
<path d="M17.8752 26.1251C17.6682 26.1251 17.5002 25.9571 17.5002 25.7501V21.2501C17.5002 21.0431 17.6682 20.8751 17.8752 20.8751C18.0822 20.8751 18.2502 21.0431 18.2502 21.2501V25.7501C18.2502 25.9571 18.0822 26.1251 17.8752 26.1251Z" fill="white"/>
<path d="M15.25 19.0001C12.7045 19.0001 10 18.2111 10 16.7501C10 16.5431 10.168 16.3751 10.375 16.3751C10.582 16.3751 10.75 16.5431 10.75 16.7501C10.75 17.3764 12.4615 18.2501 15.25 18.2501C18.0385 18.2501 19.75 17.3764 19.75 16.7501C19.75 16.5431 19.918 16.3751 20.125 16.3751C20.332 16.3751 20.5 16.5431 20.5 16.7501C20.5 18.2111 17.7955 19.0001 15.25 19.0001Z" fill="white"/>
<path d="M15.25 16.7501C12.7045 16.7501 10 15.9611 10 14.5001C10 14.2931 10.168 14.1251 10.375 14.1251C10.582 14.1251 10.75 14.2931 10.75 14.5001C10.75 15.1264 12.4615 16.0001 15.25 16.0001C18.0385 16.0001 19.75 15.1264 19.75 14.5001C19.75 14.2931 19.918 14.1251 20.125 14.1251C20.332 14.1251 20.5 14.2931 20.5 14.5001C20.5 15.9611 17.7955 16.7501 15.25 16.7501Z" fill="white"/>
<path d="M15.25 23.5001C12.7045 23.5001 10 22.7111 10 21.2501C10 21.0431 10.168 20.8751 10.375 20.8751C10.582 20.8751 10.75 21.0431 10.75 21.2501C10.75 21.8764 12.4615 22.7501 15.25 22.7501C15.658 22.7501 16.0135 22.7336 16.3353 22.6999C16.5385 22.6774 16.726 22.8274 16.7478 23.0329C16.7695 23.2384 16.6203 23.4236 16.4148 23.4454C16.0653 23.4829 15.6843 23.5001 15.25 23.5001Z" fill="white"/>
<path d="M15.25 25.7501C12.7045 25.7501 10 24.9611 10 23.5001C10 23.2931 10.168 23.1251 10.375 23.1251C10.582 23.1251 10.75 23.2931 10.75 23.5001C10.75 24.1264 12.4615 25.0001 15.25 25.0001C15.658 25.0001 16.0135 24.9836 16.3353 24.9499C16.5385 24.9236 16.726 25.0774 16.7478 25.2829C16.7695 25.4884 16.6203 25.6736 16.4148 25.6954C16.0653 25.7329 15.6843 25.7501 15.25 25.7501Z" fill="white"/>
<path d="M15.25 21.2501C12.7045 21.2501 10 20.4611 10 19.0001C10 18.7931 10.168 18.6251 10.375 18.6251C10.582 18.6251 10.75 18.7931 10.75 19.0001C10.75 19.6264 12.4615 20.5001 15.25 20.5001C15.658 20.5001 16.0135 20.4836 16.3353 20.4499C16.5385 20.4259 16.726 20.5766 16.7478 20.7829C16.7695 20.9884 16.6203 21.1736 16.4148 21.1954C16.0653 21.2329 15.6843 21.2501 15.25 21.2501Z" fill="white"/>
<path d="M15.25 14.5C12.7045 14.5 10 13.711 10 12.25C10 10.789 12.7045 10 15.25 10C17.7955 10 20.5 10.789 20.5 12.25C20.5 13.711 17.7955 14.5 15.25 14.5ZM15.25 10.75C12.4615 10.75 10.75 11.6237 10.75 12.25C10.75 12.8763 12.4615 13.75 15.25 13.75C18.0385 13.75 19.75 12.8763 19.75 12.25C19.75 11.6237 18.0385 10.75 15.25 10.75Z" fill="white"/>
<path d="M10.375 23.8751C10.168 23.8751 10 23.7071 10 23.5001V12.2501C10 12.0431 10.168 11.8751 10.375 11.8751C10.582 11.8751 10.75 12.0431 10.75 12.2501V23.5001C10.75 23.7071 10.582 23.8751 10.375 23.8751Z" fill="white"/>
<path d="M20.1252 17.1251C19.9182 17.1251 19.7502 16.9571 19.7502 16.7501V12.2501C19.7502 12.0431 19.9182 11.8751 20.1252 11.8751C20.3322 11.8751 20.5002 12.0431 20.5002 12.2501V16.7501C20.5002 16.9571 20.3322 17.1251 20.1252 17.1251Z" fill="white"/>
</g>
<defs>
<clipPath id="clip0">
<rect width="18" height="18" fill="white" transform="translate(10 10)"/>
</clipPath>
</defs>
</svg>