<svg width="18" height="18" viewBox="0 0 18 18" fill="none" xmlns="http://www.w3.org/2000/svg">
<path d="M16.626 7.87615H15.7502C15.7004 7.69558 15.593 7.53616 15.4445 7.42199C15.296 7.30782 15.1143 7.24511 14.927 7.24334H13.9922V4.95734C13.9932 4.91458 13.9829 4.8723 13.9622 4.83485C13.9416 4.7974 13.9113 4.76612 13.8746 4.74422L7.28005 0.935327C7.24289 0.913724 7.20066 0.902344 7.15767 0.902344C7.11468 0.902344 7.07246 0.913724 7.0353 0.935327L0.438751 4.74422C0.401426 4.76586 0.370464 4.79695 0.348985 4.83437C0.327506 4.87178 0.31627 4.9142 0.316408 4.95734V12.5752C0.316409 12.6184 0.32778 12.6608 0.349379 12.6982C0.370979 12.7356 0.402044 12.7667 0.439454 12.7883L7.03667 16.5972C7.07408 16.6188 7.11651 16.6302 7.15971 16.6302C7.20403 16.6302 7.24761 16.6188 7.28628 16.5972L10.7578 14.5948V16.0423C10.7575 16.1801 10.7844 16.3166 10.8372 16.444C10.89 16.5713 10.9674 16.6869 11.0652 16.784C11.1629 16.8812 11.2789 16.958 11.4066 17.01C11.5342 17.0621 11.6709 17.0882 11.8087 17.0871H16.626C16.7641 17.0884 16.9012 17.0623 17.0292 17.0104C17.1573 16.9585 17.2738 16.8818 17.3721 16.7847C17.4704 16.6876 17.5486 16.572 17.602 16.4446C17.6555 16.3172 17.6832 16.1805 17.6836 16.0423V8.93724C17.6834 8.65647 17.5721 8.3872 17.3738 8.18834C17.1756 7.98948 16.9067 7.87723 16.626 7.87615ZM14.9357 7.73553C15.0305 7.73553 15.1214 7.77316 15.1883 7.84016C15.2553 7.90715 15.293 7.99801 15.293 8.09275V8.11659C15.293 8.21133 15.2553 8.30219 15.1883 8.36918C15.1214 8.43617 15.0305 8.47381 14.9357 8.47381H13.5057C13.4109 8.47381 13.3201 8.43617 13.2531 8.36918C13.1861 8.30219 13.1484 8.21133 13.1484 8.11659V8.09275C13.1484 7.99801 13.1861 7.90715 13.2531 7.84016C13.3201 7.77316 13.4109 7.73553 13.5057 7.73553H14.9357ZM7.15971 1.43261L9.90099 3.01528L3.79638 6.53976L1.05515 4.9571L7.15971 1.43261ZM6.92578 15.9578L0.808595 12.4331V5.38305L6.92578 8.90778V15.9578ZM7.15971 8.48154L4.28857 6.82389L10.3932 3.29944L13.2645 4.9571L7.15971 8.48154ZM10.7578 8.93724V14.0265L7.41797 15.9578V8.90778L13.5 5.38305V7.24334H13.5076C13.3203 7.2451 13.1386 7.30781 12.9901 7.42198C12.8416 7.53615 12.7343 7.69558 12.6844 7.87615H11.8087C11.5286 7.87751 11.2606 7.99007 11.0635 8.18906C10.8664 8.38805 10.7565 8.65718 10.7578 8.93724ZM17.1914 16.0423C17.1911 16.1159 17.1761 16.1886 17.1474 16.2564C17.1187 16.3241 17.0769 16.3855 17.0243 16.4369C16.9716 16.4883 16.9093 16.5287 16.841 16.5559C16.7726 16.583 16.6995 16.5963 16.626 16.5949H11.8087C11.7355 16.5961 11.6628 16.5827 11.5948 16.5555C11.5269 16.5282 11.4651 16.4877 11.413 16.4362C11.361 16.3847 11.3198 16.3233 11.2918 16.2557C11.2638 16.1881 11.2496 16.1155 11.25 16.0423V8.93724C11.2493 8.86318 11.2631 8.78971 11.2908 8.72102C11.3185 8.65233 11.3595 8.58977 11.4114 8.53693C11.4632 8.48409 11.525 8.442 11.5932 8.41307C11.6614 8.38414 11.7346 8.36894 11.8087 8.36834H12.694C12.7468 8.54254 12.8546 8.69493 13.0013 8.80268C13.148 8.91043 13.3256 8.96774 13.5076 8.966H14.927C15.109 8.96774 15.2867 8.91044 15.4334 8.80269C15.58 8.69493 15.6878 8.54254 15.7406 8.36834H16.626C16.7762 8.36929 16.92 8.42964 17.026 8.53622C17.1319 8.6428 17.1914 8.78697 17.1914 8.93724V16.0423Z" fill="#979797"/>
<path d="M12.092 11.4258H12.3496C12.4148 11.4258 12.4774 11.3999 12.5236 11.3537C12.5697 11.3076 12.5956 11.245 12.5956 11.1797C12.5956 11.1144 12.5697 11.0518 12.5236 11.0057C12.4774 10.9595 12.4148 10.9336 12.3496 10.9336H12.3399V10.2656H13.0186C13.0341 10.3151 13.0653 10.3582 13.1076 10.3882C13.1498 10.4182 13.2008 10.4335 13.2526 10.4318C13.3179 10.432 13.3807 10.4062 13.4271 10.3602C13.4735 10.3142 13.4997 10.2516 13.5 10.1863V10.0207C13.4995 9.95503 13.473 9.89223 13.4264 9.84594C13.3799 9.79964 13.3169 9.77359 13.2512 9.77344H12.092C12.0597 9.7736 12.0277 9.78013 11.998 9.79265C11.9682 9.80517 11.9412 9.82344 11.9185 9.84641C11.8959 9.86937 11.8779 9.89658 11.8657 9.92649C11.8536 9.9564 11.8474 9.98841 11.8477 10.0207V11.18C11.8475 11.2122 11.8536 11.2441 11.8658 11.2739C11.878 11.3037 11.896 11.3308 11.9187 11.3537C11.9414 11.3765 11.9684 11.3947 11.9981 11.407C12.0279 11.4194 12.0598 11.4258 12.092 11.4258Z" fill="#979797"/>
<path d="M12.0938 13.6758H13.2539C13.3192 13.6758 13.3818 13.6499 13.4279 13.6037C13.4741 13.5576 13.5 13.495 13.5 13.4297V12.2695C13.5 12.2043 13.4741 12.1417 13.4279 12.0955C13.3818 12.0494 13.3192 12.0234 13.2539 12.0234H12.0938C12.0285 12.0234 11.9659 12.0494 11.9197 12.0955C11.8736 12.1417 11.8477 12.2043 11.8477 12.2695V13.4297C11.8477 13.495 11.8736 13.5576 11.9197 13.6037C11.9659 13.6499 12.0285 13.6758 12.0938 13.6758ZM12.3398 12.5156H13.0078V13.1836H12.3398V12.5156Z" fill="#979797"/>
<path d="M12.3496 15.4336H12.3399V14.7656H13.0053C13.0066 14.8303 13.0332 14.892 13.0794 14.9373C13.1256 14.9827 13.1877 15.0081 13.2524 15.0082C13.3172 15.0082 13.3793 14.9829 13.4256 14.9377C13.4719 14.8924 13.4986 14.8308 13.5 14.7661V14.529C13.4998 14.4625 13.4737 14.3986 13.4273 14.3509C13.3809 14.3033 13.3178 14.2755 13.2513 14.2734H12.092C12.0259 14.2757 11.9634 14.3036 11.9177 14.3514C11.8721 14.3992 11.8469 14.4629 11.8477 14.529V15.6883C11.8476 15.72 11.854 15.7515 11.8663 15.7808C11.8787 15.8101 11.8968 15.8366 11.9196 15.8587C11.9424 15.8809 11.9694 15.8982 11.999 15.9097C12.0286 15.9213 12.0602 15.9267 12.092 15.9258H12.3496C12.4149 15.9258 12.4775 15.8999 12.5236 15.8537C12.5698 15.8076 12.5957 15.745 12.5957 15.6797C12.5957 15.6144 12.5698 15.5518 12.5236 15.5057C12.4775 15.4595 12.4149 15.4336 12.3496 15.4336Z" fill="#979797"/>
<path d="M13.8171 10.0761L13.0964 10.7968L12.8772 10.5775C12.8543 10.5547 12.8272 10.5365 12.7973 10.5242C12.7675 10.5118 12.7355 10.5054 12.7031 10.5054C12.6708 10.5054 12.6388 10.5118 12.609 10.5242C12.5791 10.5365 12.552 10.5547 12.5291 10.5775C12.5063 10.6004 12.4881 10.6275 12.4758 10.6574C12.4634 10.6872 12.457 10.7192 12.457 10.7516C12.457 10.7839 12.4634 10.8159 12.4758 10.8457C12.4881 10.8756 12.5063 10.9027 12.5291 10.9256L12.9224 11.3188C12.9453 11.3417 12.9724 11.3598 13.0022 11.3722C13.0321 11.3846 13.0641 11.3909 13.0964 11.3909C13.1288 11.3909 13.1608 11.3846 13.1906 11.3722C13.2205 11.3598 13.2476 11.3417 13.2705 11.3188L14.1653 10.424C14.2114 10.3779 14.2373 10.3153 14.2373 10.25C14.2373 10.1847 14.2114 10.1221 14.1653 10.076C14.1191 10.0298 14.0565 10.0039 13.9912 10.0039C13.926 10.0039 13.8634 10.0298 13.8172 10.076L13.8171 10.0761Z" fill="#979797"/>
<path d="M13.8171 14.6191L13.0964 15.3398L12.8772 15.1205C12.8543 15.0976 12.8272 15.0795 12.7973 15.0671C12.7675 15.0548 12.7355 15.0484 12.7031 15.0484C12.6708 15.0484 12.6388 15.0548 12.609 15.0671C12.5791 15.0795 12.552 15.0976 12.5291 15.1205C12.5063 15.1434 12.4881 15.1705 12.4758 15.2003C12.4634 15.2302 12.457 15.2622 12.457 15.2945C12.457 15.3268 12.4634 15.3588 12.4758 15.3887C12.4881 15.4186 12.5063 15.4457 12.5291 15.4685L12.9224 15.8618C12.9453 15.8847 12.9724 15.9028 13.0022 15.9152C13.0321 15.9275 13.0641 15.9339 13.0964 15.9339C13.1288 15.9339 13.1608 15.9275 13.1906 15.9152C13.2205 15.9028 13.2476 15.8847 13.2705 15.8618L14.1653 14.967C14.2114 14.9209 14.2373 14.8583 14.2373 14.793C14.2373 14.7277 14.2114 14.6651 14.1653 14.619C14.1191 14.5728 14.0565 14.5469 13.9912 14.5469C13.926 14.5469 13.8634 14.5728 13.8172 14.619L13.8171 14.6191Z" fill="#979797"/>
<path d="M16.3426 10.3711H14.7969C14.7316 10.3711 14.669 10.397 14.6229 10.4432C14.5767 10.4893 14.5508 10.5519 14.5508 10.6172C14.5508 10.6825 14.5767 10.7451 14.6229 10.7912C14.669 10.8374 14.7316 10.8633 14.7969 10.8633H16.3426C16.4078 10.8633 16.4704 10.8374 16.5166 10.7912C16.5627 10.7451 16.5886 10.6825 16.5886 10.6172C16.5886 10.5519 16.5627 10.4893 16.5166 10.4432C16.4704 10.397 16.4078 10.3711 16.3426 10.3711Z" fill="#979797"/>
<path d="M16.3426 12.6211H14.7969C14.7316 12.6211 14.669 12.647 14.6229 12.6932C14.5767 12.7393 14.5508 12.8019 14.5508 12.8672C14.5508 12.9325 14.5767 12.9951 14.6229 13.0412C14.669 13.0874 14.7316 13.1133 14.7969 13.1133H16.3426C16.4078 13.1133 16.4704 13.0874 16.5166 13.0412C16.5627 12.9951 16.5886 12.9325 16.5886 12.8672C16.5886 12.8019 16.5627 12.7393 16.5166 12.6932C16.4704 12.647 16.4078 12.6211 16.3426 12.6211Z" fill="#979797"/>
<path d="M16.3426 14.8711H14.7969C14.7316 14.8711 14.669 14.897 14.6229 14.9432C14.5767 14.9893 14.5508 15.0519 14.5508 15.1172C14.5508 15.1825 14.5767 15.2451 14.6229 15.2912C14.669 15.3374 14.7316 15.3633 14.7969 15.3633H16.3426C16.4078 15.3633 16.4704 15.3374 16.5166 15.2912C16.5627 15.2451 16.5886 15.1825 16.5886 15.1172C16.5886 15.0519 16.5627 14.9893 16.5166 14.9432C16.4704 14.897 16.4078 14.8711 16.3426 14.8711Z" fill="#979797"/>
</svg>
