<svg width="17" height="17" viewBox="0 0 17 17" fill="none" xmlns="http://www.w3.org/2000/svg">
<g clip-path="url(#clip0)">
<path d="M16.1496 7.30497C15.8749 7.07446 15.5905 6.83611 15.5367 6.63395C15.4783 6.41638 15.6082 6.05651 15.734 5.70875C15.9158 5.2059 16.1038 4.68557 15.8621 4.26845C15.6171 3.84569 15.0674 3.74771 14.5376 3.65386C14.1777 3.59014 13.8048 3.5245 13.6512 3.37023C13.4976 3.2161 13.431 2.84357 13.3677 2.48356C13.2736 1.95236 13.1763 1.40272 12.7527 1.159C12.3358 0.917482 11.8152 1.10574 11.3125 1.28726C10.9646 1.41318 10.605 1.54281 10.3872 1.48446C10.1852 1.43038 9.94668 1.14634 9.71617 0.871242C9.36387 0.452061 9.00084 0.0195312 8.50033 0.0195312C7.99968 0.0195312 7.63678 0.452061 7.28558 0.870417C7.05507 1.1451 6.81658 1.42955 6.61456 1.48336C6.39685 1.54144 6.03698 1.41153 5.68922 1.28602C5.1861 1.10423 4.66563 0.916518 4.24906 1.1579C3.8263 1.40299 3.72818 1.95264 3.63433 2.48384C3.57061 2.84384 3.50497 3.21665 3.35084 3.37023C3.19657 3.52381 2.82404 3.59042 2.46417 3.65386C1.93283 3.74799 1.38333 3.84514 1.13947 4.26873C0.897951 4.68585 1.08594 5.20618 1.26773 5.70903C1.39365 6.05679 1.52356 6.41665 1.46507 6.63423C1.41085 6.83639 1.12681 7.07474 0.851712 7.30525C0.432668 7.65617 0 8.0192 0 8.51972C0 9.02037 0.432668 9.38326 0.850886 9.73446C1.12571 9.96497 1.41002 10.2035 1.46383 10.4055C1.52218 10.6232 1.39227 10.9831 1.26663 11.3308C1.08483 11.8337 0.89685 12.3539 1.13837 12.771C1.3836 13.1937 1.93311 13.2919 2.46444 13.3857C2.82431 13.4494 3.19726 13.5151 3.35084 13.6692C3.50442 13.8235 3.57089 14.196 3.63433 14.5559C3.72846 15.0872 3.82575 15.6367 4.24934 15.8806C4.66618 16.1221 5.18665 15.9338 5.6895 15.7523C6.03753 15.6267 6.39809 15.497 6.61484 15.555C6.81686 15.6092 7.05535 15.8932 7.28586 16.1683C7.63705 16.5865 7.99995 17.0192 8.5006 17.0192C9.00111 17.0192 9.36415 16.5865 9.71535 16.1683C9.94585 15.8935 10.1842 15.6092 10.3864 15.5554C10.6034 15.4968 10.9635 15.6269 11.3116 15.7526C11.8144 15.9341 12.3347 16.1218 12.7519 15.8808C13.1746 15.6356 13.2726 15.0861 13.3665 14.5561C13.4302 14.1963 13.4958 13.8235 13.6501 13.6698C13.8042 13.5162 14.1768 13.4497 14.5368 13.3863C15.068 13.2921 15.6176 13.195 15.8613 12.7713C16.1028 12.3541 15.9149 11.8339 15.7332 11.3311C15.6071 10.9833 15.4772 10.6235 15.5359 10.4059C15.5899 10.2037 15.8741 9.96538 16.1491 9.73474C16.5674 9.38354 17 9.02064 17 8.51999C17 8.01948 16.568 7.65617 16.1496 7.30497ZM15.7873 9.30276C15.4453 9.58927 15.0919 9.88611 14.9919 10.261C14.8882 10.6496 15.0483 11.0938 15.2041 11.5233C15.3355 11.8875 15.4845 12.2998 15.3732 12.49C15.2605 12.6873 14.8224 12.7637 14.4367 12.8319C13.9908 12.9108 13.5297 12.9923 13.2499 13.2722C12.97 13.552 12.8885 14.0128 12.8099 14.4587C12.7417 14.8445 12.6645 15.2817 12.468 15.3952C12.278 15.5052 11.8655 15.3561 11.5016 15.2261C11.0721 15.0706 10.6279 14.9097 10.239 15.0141C9.86521 15.1139 9.56851 15.4674 9.28075 15.8093C9.02506 16.114 8.73538 16.4575 8.49771 16.4575C8.26018 16.4575 7.97036 16.1125 7.71481 15.8093C7.42815 15.4674 7.13145 15.1139 6.75658 15.0139C6.66974 14.9914 6.58043 14.9803 6.49071 14.981C6.14721 15.0067 5.81046 15.0895 5.49422 15.2261C5.13009 15.3575 4.71737 15.5065 4.52746 15.3952C4.33012 15.2825 4.25374 14.8445 4.18562 14.4587C4.10663 14.0128 4.0253 13.5517 3.74538 13.2719C3.46547 12.992 3.00473 12.9105 2.55885 12.8319C2.17297 12.7637 1.7359 12.6865 1.62223 12.49C1.51241 12.2998 1.66145 11.8875 1.79274 11.5236C1.94838 11.0938 2.10871 10.6499 2.00467 10.261C1.90489 9.88722 1.55149 9.59051 1.20965 9.30276C0.904969 9.04706 0.561477 8.75738 0.561477 8.51972C0.561477 8.28219 0.906345 7.99251 1.20965 7.73681C1.55149 7.45016 1.90489 7.15345 2.00494 6.77859C2.10871 6.38996 1.94866 5.94573 1.79274 5.51623C1.66145 5.15209 1.5109 4.73979 1.62223 4.54947C1.73494 4.35226 2.17297 4.27589 2.55885 4.20763C3.00473 4.12863 3.46575 4.0473 3.74566 3.76739C4.02557 3.48748 4.1069 3.02674 4.18562 2.58086C4.25374 2.19498 4.33108 1.75791 4.52746 1.64424C4.71682 1.53442 5.13009 1.68346 5.49395 1.81474C5.92372 1.97011 6.36754 2.13099 6.75658 2.02667C7.13021 1.9269 7.42705 1.5735 7.71481 1.23166C7.97036 0.926977 8.26018 0.583485 8.49771 0.583485C8.73538 0.583485 9.02506 0.928353 9.28075 1.23166C9.56727 1.5735 9.86411 1.9269 10.239 2.02709C10.6279 2.13071 11.0718 1.97066 11.5013 1.81474C11.8652 1.68346 12.2775 1.5329 12.468 1.64424C12.6653 1.75708 12.7417 2.19498 12.8099 2.58086C12.8888 3.02674 12.9703 3.48775 13.2502 3.76767C13.53 4.04758 13.9908 4.12905 14.4367 4.20763C14.8224 4.27589 15.2597 4.35309 15.3732 4.54947C15.4831 4.73979 15.3341 5.15209 15.2041 5.51595C15.0486 5.94573 14.8882 6.38968 14.9921 6.77859C15.0919 7.15222 15.4453 7.44906 15.7873 7.73681C16.092 7.99251 16.4355 8.28219 16.4355 8.51972C16.4355 8.75738 16.092 9.04706 15.7873 9.30276Z" fill="#979797"/>
<path d="M8.50066 2.60156C5.23185 2.60156 2.58203 5.25152 2.58203 8.52019C2.58203 11.789 5.23185 14.4388 8.50066 14.4388C11.7693 14.4388 14.4193 11.789 14.4193 8.52019C14.4157 5.25289 11.768 2.60514 8.50066 2.60156ZM8.50066 13.8751C5.54314 13.8751 3.14571 11.4777 3.14571 8.52019C3.14571 5.5628 5.54314 3.16524 8.50066 3.16524C11.4581 3.16524 13.8556 5.5628 13.8556 8.52019C13.8523 11.4763 11.4567 13.872 8.50066 13.8751Z" fill="#979797"/>
<path d="M5.76562 10.8583L10.8387 5.78516L11.2374 6.1837L6.16416 11.2569L5.76562 10.8583Z" fill="#979797"/>
<path d="M10.1899 9.08203C9.56714 9.08203 9.0625 9.58681 9.0625 10.2094C9.0625 10.8321 9.56714 11.3368 10.1899 11.3368C10.8124 11.3368 11.3172 10.8321 11.3172 10.2094C11.3172 9.58681 10.8124 9.08203 10.1899 9.08203ZM10.1899 10.7731C9.87857 10.7731 9.62618 10.5207 9.62618 10.2094C9.62618 9.8981 9.87857 9.64571 10.1899 9.64571C10.5011 9.64571 10.7535 9.8981 10.7535 10.2094C10.7535 10.5207 10.5011 10.7731 10.1899 10.7731Z" fill="#979797"/>
<path d="M6.81095 7.95394C7.43353 7.95394 7.93831 7.44929 7.93831 6.82658C7.93831 6.204 7.43353 5.69922 6.81095 5.69922C6.18824 5.69922 5.68359 6.204 5.68359 6.82658C5.68359 7.44929 6.18824 7.95394 6.81095 7.95394ZM6.81095 6.2629C7.12224 6.2629 7.37463 6.51529 7.37463 6.82658C7.37463 7.13787 7.12224 7.39026 6.81095 7.39026C6.49966 7.39026 6.24727 7.13787 6.24727 6.82658C6.24727 6.51529 6.49966 6.2629 6.81095 6.2629Z" fill="#979797"/>
</g>
<defs>
<clipPath id="clip0">
<rect width="17" height="17" fill="white"/>
</clipPath>
</defs>
</svg>
