<svg width="57" height="57" viewBox="0 0 57 57" fill="none" xmlns="http://www.w3.org/2000/svg">
<circle cx="28.5" cy="28.5" r="27" fill="#4051B6" stroke="#556CE7" stroke-width="3"/>
<path d="M17.4773 30.457C17.1684 30.457 16.918 30.7075 16.918 31.0163V33.2535C16.918 33.5623 17.1684 33.8128 17.4773 33.8128C17.7861 33.8128 18.0365 33.5623 18.0365 33.2535V31.0163C18.0365 30.7075 17.7861 30.457 17.4773 30.457Z" fill="white"/>
<path d="M19.7116 31.5742C19.4028 31.5742 19.1523 31.8246 19.1523 32.1335V34.3707C19.1523 34.6795 19.4028 34.9299 19.7116 34.9299C20.0205 34.9299 20.2709 34.6795 20.2709 34.3707V32.1335C20.2709 31.8246 20.0205 31.5742 19.7116 31.5742Z" fill="white"/>
<path d="M40.1124 34.577C39.8517 34.4114 39.5061 34.4885 39.3404 34.7492C39.1814 34.9994 39.2453 35.3302 39.486 35.5032C41.0234 36.5383 41.4305 38.6237 40.3954 40.161C39.3603 41.6983 37.275 42.1055 35.7377 41.0704C34.2003 40.0353 33.7932 37.9499 34.8283 36.4126C35.4515 35.4869 36.4943 34.9316 37.6102 34.9311C37.919 34.9311 38.1695 34.6807 38.1695 34.3718C38.1695 34.0629 37.919 33.8125 37.6102 33.8125C35.1391 33.813 33.1362 35.8166 33.1367 38.2876C33.1372 40.7587 35.1408 42.7616 37.6119 42.7611C40.0829 42.7606 42.0858 40.757 42.0853 38.286C42.085 36.7986 41.3457 35.4086 40.1124 34.577Z" fill="white"/>
<path d="M44.0584 36.429C43.5166 34.5518 42.1832 33.0041 40.4069 32.1904V19.8302C40.407 19.6324 40.3025 19.4493 40.1323 19.3486L27.828 12.0779C27.6524 11.974 27.4342 11.974 27.2586 12.0779L14.9543 19.3486C14.9426 19.3553 14.9342 19.3654 14.923 19.3732C14.9118 19.381 14.9012 19.39 14.89 19.3989C14.8414 19.4372 14.7997 19.4833 14.7664 19.5354C14.7664 19.5393 14.7597 19.5416 14.7574 19.5455V19.5494C14.7259 19.6062 14.7045 19.6681 14.6942 19.7323C14.6942 19.7491 14.6892 19.7647 14.6875 19.7815C14.6858 19.7983 14.6797 19.8134 14.6797 19.8302V34.3716C14.6796 34.5694 14.7841 34.7525 14.9543 34.8532L27.2586 42.1239C27.2734 42.1311 27.2885 42.1374 27.3039 42.1429C27.3192 42.1506 27.3349 42.1573 27.3509 42.1631C27.474 42.2145 27.6126 42.2145 27.7357 42.1631C27.7519 42.1573 27.7678 42.1506 27.7832 42.1429C27.7978 42.1362 27.8134 42.1323 27.828 42.1239L31.1675 40.1502C32.1951 43.7099 35.9138 45.7626 39.4736 44.735C43.0333 43.7075 45.0861 39.9887 44.0584 36.429ZM27.5433 13.2087L30.4516 14.9274L26.1395 17.4755C25.8734 17.6328 25.7851 17.976 25.9423 18.2421C26.0996 18.5081 26.4428 18.5964 26.7088 18.4392L31.5517 15.5796L34.46 17.2983L23.2552 23.9174L20.347 22.1987L25.0321 19.4303C25.2982 19.273 25.3865 18.9298 25.2293 18.6638C25.072 18.3977 24.7288 18.3094 24.4627 18.4666L19.2474 21.5488L16.3385 19.8302L27.5433 13.2087ZM22.696 24.8867V28.621L19.8067 26.9135V23.1792L22.696 24.8867ZM31.12 36.5578C30.9713 37.1219 30.8969 37.7032 30.899 38.2866C30.8992 38.5207 30.9115 38.7546 30.9359 38.9874L28.1026 40.6625V38.8459C28.1026 38.5371 27.8522 38.2866 27.5433 38.2866C27.2344 38.2866 26.984 38.5371 26.984 38.8459V40.6625L15.7983 34.0528V20.8106L18.6881 22.5181V27.2323C18.6879 27.4303 18.7923 27.6137 18.9627 27.7144L22.9706 30.083C23.0568 30.1338 23.1551 30.1606 23.2552 30.1608C23.5641 30.1608 23.8145 29.9103 23.8145 29.6015V25.5472L26.984 27.4202V36.6088C26.984 36.9177 27.2344 37.1681 27.5433 37.1681C27.8522 37.1681 28.1026 36.9177 28.1026 36.6088V27.4202L38.2391 21.4303C38.5051 21.273 38.5932 20.93 38.436 20.664C38.2788 20.3981 37.9357 20.31 37.6698 20.4672L27.5433 26.4516L24.3554 24.5673L35.5601 17.9459L39.2883 20.1489V31.7989C35.7186 30.8574 32.0615 32.988 31.12 36.5578ZM37.6105 43.8795C34.5216 43.8795 32.0176 41.3755 32.0176 38.2866C32.0176 35.1978 34.5216 32.6938 37.6105 32.6938C40.6994 32.6938 43.2034 35.1978 43.2034 38.2866C43.2 41.3741 40.698 43.8761 37.6105 43.8795Z" fill="white"/>
<path d="M39.6688 36.7742C39.4521 36.5648 39.1084 36.5648 38.8917 36.7742L36.7703 38.8956L36.3268 38.4521C36.1046 38.2375 35.7506 38.2436 35.5359 38.4658C35.3266 38.6825 35.3266 39.0262 35.5359 39.2429L36.3749 40.0819C36.5933 40.3002 36.9473 40.3002 37.1657 40.0819L39.6825 37.5651C39.8971 37.3429 39.891 36.9888 39.6688 36.7742Z" fill="white"/>
</svg>
