<svg width="22" height="22" viewBox="0 0 22 22" fill="none" xmlns="http://www.w3.org/2000/svg">
<circle cx="11" cy="11" r="10.25" fill="#4051B6" stroke="#556CE7" stroke-width="1.5"/>
<g clip-path="url(#clip0)">
<path d="M6.62769 11.7114C6.51538 11.7114 6.42432 11.8025 6.42432 11.9148V12.7283C6.42432 12.8406 6.51538 12.9317 6.62769 12.9317C6.74001 12.9317 6.83107 12.8406 6.83107 12.7283V11.9148C6.83107 11.8025 6.74001 11.7114 6.62769 11.7114Z" fill="white"/>
<path d="M7.44019 12.1182C7.32788 12.1182 7.23682 12.2092 7.23682 12.3215V13.1351C7.23682 13.2474 7.32788 13.3384 7.44019 13.3384C7.55251 13.3384 7.64357 13.2474 7.64357 13.1351V12.3215C7.64357 12.2092 7.55251 12.1182 7.44019 12.1182Z" fill="white"/>
<path d="M14.8589 13.2101C14.7641 13.1499 14.6384 13.1779 14.5782 13.2727C14.5203 13.3637 14.5436 13.484 14.6311 13.5469C15.1901 13.9233 15.3382 14.6817 14.9618 15.2407C14.5854 15.7997 13.8271 15.9478 13.2681 15.5714C12.709 15.195 12.561 14.4366 12.9374 13.8776C13.164 13.541 13.5432 13.3391 13.949 13.3389C14.0613 13.3389 14.1524 13.2478 14.1524 13.1355C14.1524 13.0232 14.0613 12.9321 13.949 12.9321C13.0504 12.9323 12.3221 13.6609 12.3223 14.5595C12.3224 15.458 13.051 16.1863 13.9496 16.1862C14.8482 16.186 15.5765 15.4574 15.5763 14.5588C15.5762 14.018 15.3073 13.5125 14.8589 13.2101Z" fill="white"/>
<path d="M16.293 13.8833C16.096 13.2007 15.6111 12.6379 14.9652 12.342V7.84733C14.9652 7.77541 14.9273 7.70883 14.8654 7.67222L10.3911 5.02831C10.3272 4.99056 10.2479 4.99056 10.184 5.02831L5.70972 7.67222C5.70545 7.67466 5.7024 7.67832 5.69833 7.68117C5.69426 7.68402 5.6904 7.68727 5.68633 7.69052C5.66866 7.70443 5.65349 7.72121 5.64139 7.74015C5.64139 7.74157 5.63895 7.74238 5.63813 7.74381V7.74523C5.62667 7.7659 5.61889 7.7884 5.61515 7.81174C5.61515 7.81784 5.61332 7.82353 5.61271 7.82963C5.6121 7.83573 5.60986 7.84123 5.60986 7.84733V13.1351C5.60984 13.2071 5.64782 13.2736 5.70972 13.3102L10.184 15.9542C10.1894 15.9567 10.1949 15.9591 10.2005 15.9611C10.206 15.9638 10.2118 15.9663 10.2176 15.9684C10.2623 15.9871 10.3127 15.9871 10.3575 15.9684C10.3634 15.9663 10.3692 15.9638 10.3748 15.9611C10.3801 15.9586 10.3858 15.9572 10.3911 15.9542L11.6054 15.2364C11.9791 16.5309 13.3314 17.2773 14.6258 16.9036C15.9203 16.53 16.6667 15.1777 16.293 13.8833ZM10.2875 5.43954L11.3451 6.06452L9.77707 6.99111C9.68031 7.04828 9.6482 7.17308 9.70538 7.26984C9.76255 7.36659 9.88735 7.3987 9.9841 7.34153L11.7451 6.30166L12.8027 6.92664L8.72825 9.33361L7.67069 8.70863L9.37438 7.70191C9.47114 7.64474 9.50324 7.51994 9.44607 7.42318C9.38889 7.32643 9.2641 7.29432 9.16734 7.35149L7.27085 8.47231L6.21308 7.84733L10.2875 5.43954ZM8.52487 9.68606V11.044L7.47422 10.4231V9.06515L8.52487 9.68606ZM11.5882 13.9301C11.5341 14.1352 11.507 14.3466 11.5078 14.5588C11.5079 14.6439 11.5123 14.729 11.5212 14.8136L10.4909 15.4227V14.7622C10.4909 14.6498 10.3999 14.5588 10.2875 14.5588C10.1752 14.5588 10.0842 14.6498 10.0842 14.7622V15.4227L6.01662 13.0192V8.20385L7.06747 8.82476V10.539C7.06739 10.611 7.10535 10.6777 7.16733 10.7143L8.62473 11.5756C8.6561 11.5941 8.69184 11.6039 8.72825 11.6039C8.84056 11.6039 8.93163 11.5128 8.93163 11.4005V9.92625L10.0842 10.6074V13.9486C10.0842 14.061 10.1752 14.152 10.2875 14.152C10.3999 14.152 10.4909 14.061 10.4909 13.9486V10.6074L14.1769 8.42919C14.2736 8.37202 14.3057 8.24727 14.2485 8.15056C14.1913 8.05386 14.0666 8.0218 13.9699 8.07897L10.2875 10.2551L9.12829 9.56993L13.2028 7.16215L14.5585 7.96325V12.1996C13.2604 11.8572 11.9305 12.632 11.5882 13.9301ZM13.9483 16.5926C12.8251 16.5926 11.9146 15.682 11.9146 14.5588C11.9146 13.4356 12.8251 12.525 13.9483 12.525C15.0716 12.525 15.9821 13.4356 15.9821 14.5588C15.9809 15.6815 15.0711 16.5913 13.9483 16.5926Z" fill="white"/>
<path d="M14.6981 14.0083C14.6193 13.9321 14.4944 13.9321 14.4156 14.0083L13.6441 14.7797L13.4829 14.6184C13.4021 14.5404 13.2733 14.5426 13.1953 14.6234C13.1191 14.7022 13.1191 14.8272 13.1953 14.906L13.5004 15.211C13.5798 15.2904 13.7085 15.2904 13.7879 15.211L14.7031 14.2959C14.7812 14.2151 14.7789 14.0863 14.6981 14.0083Z" fill="white"/>
</g>
<defs>
<clipPath id="clip0">
<rect width="12" height="12" fill="white" transform="translate(5 5)"/>
</clipPath>
</defs>
</svg>
