<svg width="57" height="57" viewBox="0 0 57 57" fill="none" xmlns="http://www.w3.org/2000/svg">
<circle cx="28.5" cy="28.5" r="27" fill="#4051B6" stroke="#556CE7" stroke-width="3"/>
<g clip-path="url(#clip0)">
<path d="M19.9876 37.3249C19.9005 37.2377 19.7795 37.1876 19.6562 37.1876C19.533 37.1876 19.412 37.2377 19.3248 37.3249C19.2377 37.4122 19.1875 37.5331 19.1875 37.6563C19.1875 37.7796 19.2376 37.9006 19.3248 37.9877C19.412 38.0749 19.533 38.1251 19.6562 38.1251C19.7795 38.1251 19.9005 38.0749 19.9876 37.9877C20.0748 37.9006 20.125 37.7796 20.125 37.6563C20.125 37.5331 20.0748 37.4121 19.9876 37.3249Z" fill="white"/>
<path d="M38.0091 24.5753C37.922 24.488 37.8015 24.4379 37.6777 24.4379C37.5545 24.4379 37.4335 24.488 37.3463 24.5753C37.2592 24.6625 37.209 24.7834 37.209 24.9067C37.209 25.03 37.2591 25.1509 37.3463 25.238C37.4335 25.3252 37.5545 25.3754 37.6777 25.3754C37.8015 25.3754 37.922 25.3253 38.0091 25.238C38.0967 25.1509 38.1469 25.03 38.1469 24.9067C38.1469 24.7834 38.0967 24.6625 38.0091 24.5753Z" fill="white"/>
<path d="M39.8631 16.1373C39.7751 16.0494 39.6559 16 39.5315 16L28.0006 16.0006C27.7417 16.0006 27.5319 16.2105 27.5319 16.4694V17.8098L23.0886 19.0004C22.8385 19.0675 22.6901 19.3245 22.7572 19.5745L25.06 28.1687L23.0679 30.1608C22.8143 29.7906 22.3886 29.5471 21.907 29.5471H17.4072C16.6318 29.5471 16.001 30.178 16.001 30.9533V38.5938C16.001 39.3692 16.6318 40 17.4072 40H21.9071C22.5658 40 23.12 39.5446 23.2719 38.9322L23.8292 39.4182C24.2595 39.7934 24.8107 40 25.3816 40H39.5316C39.7905 40 40.0004 39.7901 40.0004 39.5313V16.4688C40.0003 16.3444 39.951 16.2252 39.8631 16.1373ZM22.3757 38.5938C22.3757 38.8522 22.1655 39.0625 21.907 39.0625H17.4071C17.1487 39.0625 16.9384 38.8523 16.9384 38.5938V30.9534C16.9384 30.6949 17.1487 30.4846 17.4071 30.4846H19.1883V35.8844C19.1883 36.1432 19.3982 36.3531 19.6571 36.3531C19.9159 36.3531 20.1258 36.1432 20.1258 35.8844V30.4846H21.907C22.1655 30.4846 22.3758 30.6949 22.3758 30.9534V38.5938H22.3757ZM23.784 19.7846L27.5319 18.7804V20.5173L27.2177 20.6015C27.0976 20.6337 26.9952 20.7122 26.9331 20.8199C26.8709 20.9276 26.854 21.0555 26.8862 21.1756C27.0664 21.8478 26.666 22.5413 25.9938 22.7214C25.8736 22.7537 25.771 22.8323 25.7089 22.9402C25.6468 23.0481 25.6301 23.1762 25.6626 23.2964L27.4897 30.0623H26.5489L26.0641 28.1655C26.0487 28.1051 26.0217 28.0495 25.9855 28.0011L23.784 19.7846ZM27.5319 22.667V26.6223L26.6769 23.4566C27.034 23.2722 27.3263 22.9963 27.5319 22.667ZM34.2661 39.0625H25.3815C25.0372 39.0625 24.7047 38.9379 24.4452 38.7116L23.3132 37.7244V31.2413L25.3597 29.1948L25.7309 30.647C25.7839 30.8545 25.9708 30.9996 26.185 30.9996L35.4008 31.0002C35.7627 31.0002 36.0571 31.2946 36.0571 31.6564C36.0571 32.0183 35.7627 32.3127 35.4008 32.3127H30.6786C30.4198 32.3127 30.2099 32.5226 30.2099 32.7814C30.2099 33.0403 30.4198 33.2502 30.6786 33.2502H36.868C37.2299 33.2502 37.5242 33.5446 37.5242 33.9064C37.5242 34.2683 37.2299 34.5627 36.868 34.5627H30.6786C30.4198 34.5627 30.2099 34.7726 30.2099 35.0314C30.2099 35.2903 30.4198 35.5002 30.6786 35.5002H35.865C36.2269 35.5002 36.5213 35.7946 36.5213 36.1564C36.5213 36.5183 36.2269 36.8127 35.865 36.8127H30.6786C30.4198 36.8127 30.2099 37.0226 30.2099 37.2814C30.2099 37.5403 30.4198 37.7502 30.6786 37.7502H34.2661C34.628 37.7502 34.9224 38.0446 34.9224 38.4064C34.9223 38.7681 34.6279 39.0625 34.2661 39.0625ZM39.0629 39.0625H39.0628H35.7179C35.8088 38.8622 35.8598 38.6402 35.8598 38.4062C35.8598 38.1723 35.8088 37.9503 35.7179 37.75H35.865C36.7438 37.75 37.4587 37.0351 37.4587 36.1563C37.4587 35.9 37.3975 35.6578 37.2895 35.443C37.9644 35.2577 38.4617 34.6391 38.4617 33.9063C38.4617 33.5508 38.3446 33.2222 38.1471 32.9569V27.016C38.1471 26.7571 37.9372 26.5472 37.6783 26.5472C37.4195 26.5472 37.2096 26.7571 37.2096 27.016V32.35C37.0994 32.3258 36.9852 32.3127 36.8679 32.3127H36.8525C36.9434 32.1124 36.9945 31.8903 36.9945 31.6564C36.9945 30.7776 36.2795 30.0627 35.4008 30.0627H34.6472C35.4474 29.7196 36.0093 28.9243 36.0093 28C36.0093 26.763 35.003 25.7567 33.766 25.7567C32.5291 25.7567 31.5227 26.763 31.5227 28C31.5227 28.9243 32.0847 29.7196 32.8847 30.0627H30.3224V21.1498C31.1598 20.9673 31.8205 20.3066 32.003 19.4692H35.529C35.7114 20.3066 36.3722 20.9673 37.2095 21.1498V22.6072C37.2095 22.866 37.4194 23.0759 37.6783 23.0759C37.9371 23.0759 38.147 22.866 38.147 22.6072V20.7313C38.147 20.4725 37.9371 20.2626 37.6783 20.2626C36.9823 20.2626 36.4162 19.6964 36.4162 19.0005C36.4162 18.7416 36.2063 18.5317 35.9475 18.5317H31.5845C31.3257 18.5317 31.1158 18.7416 31.1158 19.0005C31.1158 19.6964 30.5496 20.2626 29.8537 20.2626C29.5949 20.2626 29.385 20.4725 29.385 20.7313V30.0627H28.4694V16.938L39.0629 16.9375V39.0625ZM33.7661 29.3058C33.046 29.3058 32.4603 28.72 32.4603 28C32.4603 27.28 33.0461 26.6942 33.7661 26.6942C34.4861 26.6942 35.0719 27.28 35.0719 28C35.0719 28.72 34.4861 29.3058 33.7661 29.3058Z" fill="white"/>
</g>
<defs>
<clipPath id="clip0">
<rect width="24" height="24" fill="white" transform="translate(16 16)"/>
</clipPath>
</defs>
</svg>
