<svg width="60" height="54" viewBox="0 0 60 54" fill="none" xmlns="http://www.w3.org/2000/svg">
<path d="M56.1562 27C56.1562 26.7431 56.0542 26.4967 55.8725 26.315C55.6908 26.1333 55.4444 26.0312 55.1875 26.0312H39.6875V1.8125C39.6875 1.55557 39.5854 1.30917 39.4038 1.12749C39.2221 0.945815 38.9757 0.84375 38.7188 0.84375H13.5312C13.2743 0.84375 13.0279 0.945815 12.8462 1.12749C12.6646 1.30917 12.5625 1.55557 12.5625 1.8125V26.0312H4.8125C4.55557 26.0312 4.30917 26.1333 4.12749 26.315C3.94581 26.4967 3.84375 26.7431 3.84375 27V51.2188H0.9375V53.1562H59.0625V51.2188H56.1562V27ZM39.6875 27.9688H45.5V31.4427L45.2162 31.1588C45.0345 30.9772 44.7881 30.8752 44.5312 30.8752C44.2744 30.8752 44.028 30.9772 43.8463 31.1588L42.5938 32.4114L41.3412 31.1588C41.1595 30.9772 40.9131 30.8752 40.6562 30.8752C40.3994 30.8752 40.153 30.9772 39.9713 31.1588L39.6875 31.4427V27.9688ZM29.0312 2.78125V6.25519L28.7474 5.97134C28.5657 5.78973 28.3194 5.68771 28.0625 5.68771C27.8056 5.68771 27.5593 5.78973 27.3776 5.97134L26.125 7.22394L24.8724 5.97134C24.6907 5.78973 24.4444 5.68771 24.1875 5.68771C23.9306 5.68771 23.6843 5.78973 23.5026 5.97134L23.2188 6.25519V2.78125H29.0312ZM14.5 2.78125H21.2812V8.59375C21.2813 8.78532 21.3381 8.97258 21.4446 9.13185C21.551 9.29112 21.7023 9.41526 21.8793 9.48856C22.0563 9.56187 22.251 9.58105 22.4389 9.54369C22.6268 9.50633 22.7994 9.4141 22.9349 9.27866L24.1875 8.02606L25.4401 9.27866C25.6218 9.46027 25.8681 9.56229 26.125 9.56229C26.3819 9.56229 26.6282 9.46027 26.8099 9.27866L28.0625 8.02606L29.3151 9.27866C29.4506 9.4141 29.6232 9.50633 29.8111 9.54369C29.999 9.58105 30.1937 9.56187 30.3707 9.48856C30.5477 9.41526 30.699 9.29112 30.8054 9.13185C30.9119 8.97258 30.9687 8.78532 30.9688 8.59375V2.78125H37.75V26.0312H14.5V2.78125ZM14.5 27.9688H20.3125V31.4427L20.0287 31.1588C19.847 30.9772 19.6006 30.8752 19.3438 30.8752C19.0869 30.8752 18.8405 30.9772 18.6588 31.1588L17.4062 32.4114L16.1537 31.1588C15.972 30.9772 15.7256 30.8752 15.4688 30.8752C15.2119 30.8752 14.9655 30.9772 14.7838 31.1588L14.5 31.4427V27.9688ZM5.78125 27.9688H12.5625V33.7812C12.5625 33.9728 12.6194 34.1601 12.7258 34.3194C12.8323 34.4786 12.9836 34.6028 13.1606 34.6761C13.3375 34.7494 13.5323 34.7686 13.7202 34.7312C13.9081 34.6938 14.0807 34.6016 14.2162 34.4662L15.4688 33.2136L16.7213 34.4662C16.903 34.6478 17.1494 34.7498 17.4062 34.7498C17.6631 34.7498 17.9095 34.6478 18.0912 34.4662L19.3438 33.2136L20.5963 34.4662C20.7318 34.6016 20.9044 34.6938 21.0923 34.7312C21.2802 34.7686 21.475 34.7494 21.6519 34.6761C21.8289 34.6028 21.9802 34.4786 22.0867 34.3194C22.1931 34.1601 22.25 33.9728 22.25 33.7812V27.9688H29.0312V51.2188H5.78125V27.9688ZM30.9688 51.2188V27.9688H37.75V33.7812C37.75 33.9728 37.8069 34.1601 37.9133 34.3194C38.0198 34.4786 38.1711 34.6028 38.3481 34.6761C38.525 34.7494 38.7198 34.7686 38.9077 34.7312C39.0956 34.6938 39.2682 34.6016 39.4037 34.4662L40.6562 33.2136L41.9088 34.4662C42.0905 34.6478 42.3369 34.7498 42.5938 34.7498C42.8506 34.7498 43.097 34.6478 43.2787 34.4662L44.5312 33.2136L45.7838 34.4662C45.9193 34.6016 46.0919 34.6938 46.2798 34.7312C46.4677 34.7686 46.6625 34.7494 46.8394 34.6761C47.0164 34.6028 47.1677 34.4786 47.2742 34.3194C47.3806 34.1601 47.4375 33.9728 47.4375 33.7812V27.9688H54.2188V51.2188H30.9688Z" fill="#9EA0A5"/>
<path d="M7.71875 35.7188H12.5625V37.6562H7.71875V35.7188Z" fill="#9EA0A5"/>
<path d="M7.71875 39.5938H14.5V41.5312H7.71875V39.5938Z" fill="#9EA0A5"/>
<path d="M32.9062 35.7188H38.7188V37.6562H32.9062V35.7188Z" fill="#9EA0A5"/>
<path d="M32.9062 39.5938H41.625V41.5312H32.9062V39.5938Z" fill="#9EA0A5"/>
<path d="M16.4375 10.5312H19.3438V12.4688H16.4375V10.5312Z" fill="#9EA0A5"/>
<path d="M16.4375 14.4062H25.1562V16.3438H16.4375V14.4062Z" fill="#9EA0A5"/>
<path d="M26.125 43.4688H22.25C21.9931 43.4688 21.7467 43.5708 21.565 43.7525C21.3833 43.9342 21.2812 44.1806 21.2812 44.4375V48.3125C21.2812 48.5694 21.3833 48.8158 21.565 48.9975C21.7467 49.1792 21.9931 49.2812 22.25 49.2812H26.125C26.3819 49.2812 26.6283 49.1792 26.81 48.9975C26.9917 48.8158 27.0938 48.5694 27.0938 48.3125V44.4375C27.0938 44.1806 26.9917 43.9342 26.81 43.7525C26.6283 43.5708 26.3819 43.4688 26.125 43.4688ZM25.1562 47.3438H23.2188V45.4062H25.1562V47.3438Z" fill="#9EA0A5"/>
<path d="M51.3125 43.4688H47.4375C47.1806 43.4688 46.9342 43.5708 46.7525 43.7525C46.5708 43.9342 46.4688 44.1806 46.4688 44.4375V48.3125C46.4688 48.5694 46.5708 48.8158 46.7525 48.9975C46.9342 49.1792 47.1806 49.2812 47.4375 49.2812H51.3125C51.5694 49.2812 51.8158 49.1792 51.9975 48.9975C52.1792 48.8158 52.2812 48.5694 52.2812 48.3125V44.4375C52.2812 44.1806 52.1792 43.9342 51.9975 43.7525C51.8158 43.5708 51.5694 43.4688 51.3125 43.4688ZM50.3438 47.3438H48.4062V45.4062H50.3438V47.3438Z" fill="#9EA0A5"/>
<path d="M30.9688 24.0938H34.8438C35.1007 24.0938 35.3471 23.9917 35.5288 23.81C35.7104 23.6283 35.8125 23.3819 35.8125 23.125V19.25C35.8125 18.9931 35.7104 18.7467 35.5288 18.565C35.3471 18.3833 35.1007 18.2812 34.8438 18.2812H30.9688C30.7118 18.2812 30.4654 18.3833 30.2837 18.565C30.1021 18.7467 30 18.9931 30 19.25V23.125C30 23.3819 30.1021 23.6283 30.2837 23.81C30.4654 23.9917 30.7118 24.0938 30.9688 24.0938ZM31.9375 20.2188H33.875V22.1562H31.9375V20.2188Z" fill="#9EA0A5"/>
</svg>
