<svg width="65" height="53" viewBox="0 0 65 53" fill="none" xmlns="http://www.w3.org/2000/svg">
<svg width="65" height="53" viewBox="0 0 65 53" fill="none" xmlns="http://www.w3.org/2000/svg">
<path d="M63.8449 6.29327C63.0027 5.29771 61.8233 4.68961 60.5236 4.58106L14.75 0.759026C13.4502 0.650482 12.1866 1.05457 11.1909 1.89665C10.1992 2.73542 9.59203 3.90885 9.48006 5.20211L8.55914 13.842H4.88196C2.19006 13.842 0 16.0321 0 18.724V47.3774C0 50.0693 2.19006 52.2594 4.88196 52.2594H50.8151C53.5071 52.2594 55.6972 50.0693 55.6972 47.3774V42.7293L57.3271 42.8654C57.4646 42.8768 57.6013 42.8825 57.7369 42.8825C60.2465 42.8825 62.3859 40.9517 62.5984 38.4066L64.9827 9.85252C65.0911 8.5529 64.6871 7.28896 63.8449 6.29327ZM4.88196 16.3811H50.8151C52.1069 16.3811 53.1581 17.4321 53.1581 18.724V21.3349H2.53905V18.724C2.53905 17.4321 3.59009 16.3811 4.88196 16.3811ZM2.53905 23.8739H53.1581V29.1411H2.53905V23.8739ZM50.8151 49.7203H4.88196C3.59009 49.7203 2.53905 48.6693 2.53905 47.3774V31.6801H53.1581V47.3774C53.1581 48.6693 52.1069 49.7203 50.8151 49.7203ZM62.4524 9.64114L60.0681 38.1952C59.9606 39.4826 58.8255 40.443 57.5384 40.3351L55.6972 40.1814V18.724C55.6972 16.0321 53.5071 13.842 50.8151 13.842H11.1127L12.0063 5.45805C12.0073 5.4484 12.0082 5.43888 12.009 5.42911C12.1165 4.14168 13.2509 3.18141 14.5387 3.28932L60.3125 7.11136C60.9362 7.16341 61.5023 7.45527 61.9064 7.93312C62.3105 8.41097 62.5045 9.01742 62.4524 9.64114Z" fill="#9EA0A5"/>
<path d="M47.8452 35.4536H35.627C34.9258 35.4536 34.3574 36.022 34.3574 36.7231V44.6944C34.3574 45.3956 34.9258 45.9639 35.627 45.9639H47.8452C48.5463 45.9639 49.1147 45.3956 49.1147 44.6944V36.7231C49.1147 36.022 48.5463 35.4536 47.8452 35.4536ZM46.5756 43.4249H36.8965V37.9927H46.5756V43.4249Z" fill="#9EA0A5"/>
</svg>
</svg>
