<svg width="57" height="57" viewBox="0 0 57 57" fill="none" xmlns="http://www.w3.org/2000/svg">
<circle cx="28.5" cy="28.5" r="27" fill="#4051B6" stroke="#556CE7" stroke-width="3"/>
<g clip-path="url(#clip0)">
<path d="M28.6717 24.34C30.3716 24.34 32.0714 23.6742 33.3655 22.3425C34.6186 21.0532 35.3087 19.3384 35.3087 17.5141C35.3087 15.6899 34.6187 13.9747 33.3655 12.6842C32.0067 11.286 30.1294 10.5623 28.2158 10.7003C26.2937 10.8383 24.528 11.8224 23.3715 13.4005C23.2059 13.6265 23.2496 13.9479 23.4691 14.1185C23.6888 14.2891 24.001 14.2441 24.1667 14.018C25.1496 12.6769 26.6507 11.8405 28.2852 11.7232C29.911 11.6068 31.5066 12.221 32.6612 13.4093C33.7262 14.5059 34.3126 15.9637 34.3126 17.5141C34.3126 19.0644 33.7262 20.5217 32.6614 21.6174C30.4615 23.8811 26.8821 23.881 24.6821 21.6174C23.2401 20.1335 22.6887 17.9553 23.2432 15.9326C23.3179 15.6601 23.164 15.3769 22.8992 15.3C22.6349 15.2231 22.3593 15.3816 22.2846 15.6541C21.6322 18.0337 22.2811 20.5966 23.978 22.3425C25.272 23.6742 26.9719 24.34 28.6717 24.34V24.34Z" fill="white"/>
<path d="M43.9746 36.1102C43.8093 36.0131 43.6386 35.9133 43.4633 35.8053L42.1611 35.0014C42.7667 34.339 43.2202 33.5344 43.3989 32.7284C43.4533 32.4851 43.4812 32.2458 43.4812 32.0182V28.6248C43.4812 27.0813 42.353 25.6881 40.6058 25.0763C39.0785 24.5417 37.5624 24.7899 36.7463 25.6867C35.9096 25.8385 34.7362 26.5214 34.776 29.1662C34.7767 29.1895 34.7767 29.2086 34.7767 29.2236V32.0182C34.7767 32.2458 34.8046 32.4851 34.859 32.7264C35.037 33.533 35.4899 34.339 36.0968 35.0021L34.8165 35.7923C34.8072 35.7971 34.7979 35.8032 34.7886 35.8087C34.616 35.9153 34.4466 36.0145 34.2833 36.1102C33.7939 36.3966 33.3171 36.6748 32.9492 37.0645L32.0314 36.4978C32.6377 35.8347 33.0913 35.0301 33.2699 34.2248C33.323 33.9849 33.3503 33.7456 33.3503 33.5139V32.0059C33.3503 32.0055 33.3503 32.0052 33.3503 32.0048V30.1202C33.3503 28.5773 32.2226 27.185 30.4773 26.5731C28.9502 26.0378 27.4335 26.2854 26.6173 27.182C25.7801 27.3333 24.6064 28.0161 24.647 30.6607C24.6474 30.6846 24.6477 30.7041 24.6477 30.7188V31.3694V32.2954V33.5139C24.6477 33.7347 24.6743 33.9726 24.7281 34.2248C24.9067 35.0301 25.3603 35.8347 25.9672 36.4978L25.0508 37.0645C24.6823 36.6748 24.2055 36.3959 23.7154 36.1095C23.55 36.0124 23.3794 35.9133 23.2047 35.8053L23.1914 35.7971C23.1901 35.7963 23.1889 35.7954 23.1875 35.7947L21.9022 35.002C22.5086 34.3392 22.962 33.5347 23.1406 32.7285C23.1941 32.4903 23.2212 32.2514 23.2212 32.0184V30.5076V29.9323V28.625C23.2212 27.0817 22.0934 25.6891 20.3478 25.0771C18.8204 24.5415 17.3031 24.7894 16.4863 25.6867C15.6497 25.8381 14.4772 26.521 14.5179 29.1653C14.5183 29.1892 14.5186 29.2087 14.5186 29.2234V29.8723V30.7982V32.0184C14.5186 32.2514 14.5457 32.4903 14.5988 32.7271C14.7776 33.534 15.2311 34.3388 15.8374 35.0016L14.5345 35.8052C14.3601 35.9129 14.1897 36.0126 14.0247 36.1091C12.9835 36.7182 12 37.2935 12 38.9702V41.9821C12 42.0842 12 42.3951 12.218 42.6155C12.4004 42.7999 12.6233 42.82 12.7925 42.82C12.8176 42.82 12.8415 42.8196 12.8639 42.8192C12.8876 42.8188 12.9124 42.8183 12.9385 42.8183H17.8509C17.8513 42.8183 17.8516 42.8183 17.8519 42.8183C17.8523 42.8183 17.8526 42.8183 17.8529 42.8183H18.8694H18.8697H19.8832C19.8834 42.8183 19.8837 42.8183 19.8839 42.8183C19.8842 42.8183 19.8845 42.8183 19.8847 42.8183H22.1288V43.4773C22.1288 43.5798 22.1288 43.8915 22.348 44.1123C22.5306 44.2969 22.753 44.3174 22.9224 44.3174C22.9476 44.3174 22.9715 44.3167 22.9941 44.3167C23.0173 44.316 23.0419 44.3153 23.0678 44.3153H23.6415C23.9165 44.3153 24.1396 44.0856 24.1396 43.8026C24.1396 43.5196 23.9165 43.2899 23.6415 43.2899H23.1249V42.8183V41.7929V40.4653C23.1249 39.4283 23.5645 39.1303 24.6476 38.498C24.6642 38.4884 24.6808 38.4781 24.6981 38.4686C24.7671 38.4282 24.8369 38.3865 24.9086 38.3441L25.7393 38.8979L26.5953 39.4687C26.6026 39.4728 26.6099 39.4775 26.6172 39.4816C26.677 39.5172 26.7294 39.5548 26.7806 39.5903C26.8848 39.6635 27.084 39.8036 27.3251 39.8036C27.4247 39.8036 27.5316 39.7797 27.6419 39.7175L27.7103 39.9937L26.7394 42.1586C26.7387 42.16 26.7381 42.162 26.7374 42.1634C26.6544 42.3398 26.6677 42.5346 26.7706 42.6952L27.1099 43.2899H25.9419C25.6669 43.2899 25.4438 43.5196 25.4438 43.8026C25.4438 44.0856 25.6669 44.3153 25.9419 44.3153H27.9799H27.9812H34.9306C34.9565 44.3153 34.9811 44.316 35.0043 44.3167C35.0269 44.3167 35.0508 44.3174 35.076 44.3174C35.246 44.3174 35.4692 44.2969 35.6524 44.1123C35.8709 43.8915 35.8709 43.5798 35.8709 43.4773V42.8183H40.1422H40.1435H45.0615C45.0868 42.8183 45.112 42.819 45.1353 42.819C45.1578 42.8196 45.1817 42.8203 45.207 42.8203C45.3763 42.8203 45.5988 42.7998 45.7814 42.6152C45.9999 42.3944 45.9999 42.0841 45.9999 41.9822V38.9703C46 37.2941 45.0165 36.7186 43.9746 36.1102V36.1102ZM22.007 36.2614L20.7409 37.1044C20.6886 37.1362 20.6421 37.1671 20.6009 37.1956L20.3287 36.8988C20.3241 36.8934 20.3191 36.8883 20.3143 36.8831L19.8606 36.3883C19.9095 36.3714 19.9591 36.3534 20.0095 36.334C20.3947 36.1862 20.7689 35.9733 21.1178 35.713L22.007 36.2614ZM16.7846 26.6796C16.9233 26.667 17.0505 26.5953 17.1355 26.4818C17.641 25.8066 18.8299 25.6281 20.0267 26.0477C21.0408 26.4033 22.2251 27.2916 22.2251 28.625V29.9324V29.995H22.0154C21.5245 29.995 21.2075 29.7134 20.7309 29.2539C20.1944 28.7367 19.5268 28.0929 18.3673 28.0929H17.4751C16.3916 28.0929 16.2106 28.9993 16.1026 29.5408C15.9783 30.1635 15.9194 30.2856 15.523 30.2856H15.5147V29.8724V29.2236C15.5147 29.2048 15.5144 29.1798 15.5138 29.1491C15.4899 27.589 15.9174 26.7581 16.7846 26.6796V26.6796ZM15.5697 32.4977C15.5332 32.3351 15.5148 32.1738 15.5148 32.0184V31.3109H15.5231C16.7662 31.3109 16.9692 30.2936 17.0783 29.7471C17.2039 29.1182 17.2559 29.1182 17.4751 29.1182H18.3674C19.1332 29.1182 19.5582 29.5278 20.0501 30.0022C20.5451 30.4794 21.1061 31.0203 22.0155 31.0203H22.2252V32.0184C22.2252 32.1738 22.2068 32.3351 22.1699 32.4991C21.9059 33.6906 20.8276 34.9262 19.6612 35.3734C19.362 35.4886 19.1106 35.5423 18.8701 35.5423C18.6295 35.5423 18.3781 35.4886 18.0782 35.3731C16.9123 34.9262 15.834 33.6907 15.5697 32.4977V32.4977ZM19.4036 37.3838L19.2418 38.0352H18.4946L18.3339 37.3864L18.8699 36.8019L19.4036 37.3838ZM16.6219 35.7131C16.9708 35.9734 17.3447 36.1862 17.7297 36.3338C17.7803 36.3533 17.8301 36.3714 17.8793 36.3885L17.1392 37.1954C17.0977 37.167 17.051 37.136 16.9985 37.1042L15.7328 36.2616L16.6219 35.7131ZM16.635 41.1897L16.9801 41.7929H12.9961V38.9702C12.9961 37.9316 13.4351 37.6334 14.5169 37.0006C14.6024 36.9506 14.6894 36.8997 14.7781 36.847L16.4666 37.9712C16.4731 37.9755 16.4796 37.9796 16.4863 37.9836C16.546 38.0194 16.5986 38.0566 16.6494 38.0924C16.7628 38.1724 16.9596 38.3112 17.1971 38.3112C17.2964 38.3112 17.4028 38.2866 17.5132 38.2236L17.5812 38.4982L16.6108 40.6628C16.5274 40.8339 16.5367 41.028 16.635 41.1897V41.1897ZM19.5999 41.7929H18.8702C18.8701 41.7929 18.8701 41.7929 18.8699 41.7929H18.1362L17.612 40.8767L18.4263 39.0606H19.3099L20.1242 40.8767L19.5999 41.7929ZM22.1289 40.4653V41.7929H20.7559L21.1011 41.1898C21.1993 41.0283 21.2086 40.8344 21.1254 40.6631L20.1549 38.4985L20.2236 38.222C20.3351 38.2862 20.4427 38.3114 20.543 38.3114C20.7815 38.3114 20.9791 38.1717 21.0929 38.0912C21.1433 38.0556 21.1955 38.0187 21.2545 37.9831C21.2608 37.9793 21.267 37.9753 21.2731 37.9713L22.9617 36.8471C23.0505 36.8999 23.1374 36.9508 23.2226 37.001C23.6137 37.23 23.9205 37.4146 24.1536 37.6074C23.1124 38.2156 22.1289 38.7912 22.1289 40.4653V40.4653ZM42.2653 36.2619L41.0016 37.1041C40.9485 37.1362 40.9013 37.1677 40.8595 37.1964L40.5872 36.899C40.5819 36.8929 40.5753 36.886 40.5693 36.8799L40.1191 36.3884C40.1682 36.372 40.2173 36.3535 40.2678 36.3344C40.653 36.186 41.0268 35.9734 41.3761 35.713L42.2653 36.2619ZM37.0445 26.6793C37.1832 26.667 37.3107 26.5952 37.3957 26.4817C37.9004 25.807 39.0884 25.6279 40.2851 26.047C41.2998 26.4031 42.4851 27.2911 42.4851 28.6248V29.9947H42.2739C41.7832 29.9947 41.4664 29.7138 40.9903 29.2544C40.4537 28.7369 39.7864 28.093 38.6256 28.093H37.7331C36.6493 28.093 36.4687 28.9994 36.3611 29.5415C36.237 30.1636 36.1785 30.2853 35.7834 30.2853H35.7728V29.2236C35.7728 29.2052 35.7728 29.1799 35.7721 29.1498C35.7489 27.5892 36.1765 26.7579 37.0445 26.6793V26.6793ZM35.8299 32.4981C35.792 32.3299 35.7728 32.1686 35.7728 32.0182V31.3107H35.7834C37.0252 31.3107 37.2277 30.2935 37.3366 29.7473C37.4621 29.1184 37.5139 29.1184 37.7331 29.1184H38.6256C39.3926 29.1184 39.8176 29.5278 40.309 30.0023C40.8037 30.4794 41.3642 31.0201 42.2739 31.0201H42.4851V32.0182C42.4851 32.1686 42.4659 32.3299 42.428 32.4994C42.1644 33.6909 41.0859 34.9262 39.9185 35.3739C39.6217 35.4888 39.3707 35.5421 39.1283 35.5421C38.8872 35.5421 38.6369 35.4888 38.338 35.3732C37.1706 34.9255 36.0922 33.6902 35.8299 32.4981V32.4981ZM39.6622 37.3844L39.5015 38.0352H38.7531L38.5924 37.3864L39.1283 36.802L39.6622 37.3844ZM36.8811 35.7137C37.2297 35.9734 37.6036 36.186 37.9887 36.3337C38.0392 36.3528 38.089 36.3713 38.1382 36.3884L37.3977 37.195C37.3559 37.167 37.3094 37.1362 37.257 37.1041L35.9926 36.2612L36.8811 35.7137ZM32.137 37.7583L30.8733 38.6012C30.8202 38.6326 30.773 38.6641 30.7312 38.6921L29.9901 37.8855C30.0393 37.8684 30.0884 37.8506 30.1389 37.8315C30.5247 37.6831 30.8986 37.4698 31.2479 37.2087L32.137 37.7583ZM26.9155 28.1749C27.0542 28.1624 27.1815 28.0907 27.2665 27.9771C27.7714 27.3025 28.9595 27.1244 30.1562 27.5438C31.1702 27.8993 32.3542 28.7873 32.3542 30.1203V31.4266C32.3542 31.4269 32.3542 31.4273 32.3542 31.4275V31.4922H32.1445C31.6539 31.4922 31.3373 31.2108 30.8612 30.7515C30.3248 30.2341 29.6572 29.5901 28.4965 29.5901H27.6043C26.5205 29.5901 26.3398 30.4969 26.2319 31.0387C26.1079 31.6608 26.0492 31.7827 25.6541 31.7827H25.6439V31.3694V30.7188C25.6439 30.7 25.6436 30.675 25.643 30.6445C25.619 29.0843 26.0471 28.2535 26.9155 28.1749V28.1749ZM25.7003 34.0006C25.6631 33.8249 25.6438 33.6615 25.6438 33.5139V32.8081H25.6541C26.8961 32.8081 27.0987 31.7911 27.2076 31.2446C27.3329 30.6154 27.3851 30.6154 27.6043 30.6154H28.4965C29.2635 30.6154 29.6883 31.0252 30.1802 31.4997C30.6748 31.9767 31.2354 32.5175 32.1446 32.5175H32.3542V33.5138C32.3542 33.669 32.3357 33.831 32.2991 33.9957C32.0348 35.1859 30.9564 36.4218 29.7916 36.8703C29.4888 36.9858 29.2371 37.0398 28.9994 37.0398C28.763 37.0398 28.5107 36.9858 28.2078 36.8703C27.0417 36.4219 25.9632 35.1859 25.7003 34.0006V34.0006ZM29.5332 38.8801L29.3725 39.5309H28.6235L28.4634 38.8821L28.9993 38.2983L29.5332 38.8801ZM27.2675 38.6914C27.2263 38.6634 27.1798 38.6326 27.1267 38.6012L25.863 37.7583L26.7508 37.2087C27.1008 37.4698 27.4753 37.6831 27.8611 37.8321C27.9109 37.8506 27.9601 37.8684 28.0086 37.8848L27.2675 38.6914ZM29.7291 43.2899H28.2655L27.7416 42.3719L28.5551 40.5563H29.4409L30.2538 42.3732L29.7291 43.2899ZM34.875 43.2899H30.8853L31.2306 42.687C31.3269 42.5271 31.3375 42.3343 31.2565 42.1634C31.2558 42.162 31.2552 42.16 31.2545 42.1586L30.2856 39.9937L30.354 39.7189C30.4649 39.7824 30.5725 39.8077 30.6721 39.8077C30.9092 39.8077 31.1057 39.6696 31.2193 39.5903C31.2704 39.5541 31.3229 39.5172 31.3827 39.4816C31.39 39.4775 31.3973 39.4728 31.4046 39.4687L33.0913 38.3441C33.1617 38.3865 33.2321 38.4275 33.3005 38.4679C33.3184 38.4781 33.3363 38.4891 33.3543 38.4993C34.436 39.1316 34.875 39.4297 34.875 40.4653V43.2899ZM36.8997 41.1982L37.2397 41.7929H35.8711V40.4653C35.8711 38.7912 34.8876 38.2163 33.8463 37.6072C33.8463 37.6072 33.8457 37.6072 33.8457 37.6066C34.0781 37.4145 34.3849 37.2292 34.7754 37.0016C34.861 36.951 34.9487 36.9004 35.0377 36.8471L36.725 37.9709C36.731 37.9757 36.7377 37.9798 36.7443 37.9839C36.8041 38.0194 36.8565 38.0564 36.9077 38.0919C37.0126 38.1657 37.2131 38.3072 37.4562 38.3072C37.5551 38.3072 37.6614 38.2833 37.7709 38.2218L37.8393 38.498L36.8691 40.6629C36.8685 40.6636 36.8685 40.6636 36.8685 40.6643C36.7835 40.8406 36.7954 41.0361 36.8997 41.1982V41.1982ZM39.8581 41.7929H38.3952L37.8712 40.8755L38.6847 39.0606H39.5699L40.3834 40.8748L39.8581 41.7929ZM45.0039 41.7929H41.0142L41.3589 41.1899C41.4518 41.0382 41.4664 40.8598 41.3987 40.6943C41.3947 40.6841 41.3901 40.6732 41.3854 40.6629L40.4146 38.498L40.483 38.2225C40.5939 38.286 40.7014 38.3113 40.8017 38.3113C41.0395 38.3113 41.2373 38.1719 41.3509 38.0919C41.4014 38.0564 41.4538 38.0194 41.5136 37.9839C41.5202 37.9798 41.5269 37.9757 41.5335 37.9709L43.2202 36.8471C43.3092 36.9004 43.3969 36.951 43.4825 37.0016C44.565 37.6339 45.0039 37.9319 45.0039 38.9703V41.7929Z" fill="white"/>
<g clip-path="url(#clip1)">
<path d="M31.6891 19.2064C31.5714 19.1163 31.405 19.1414 31.3174 19.2626C31.2693 19.3292 31.2178 19.3946 31.1643 19.4569C31.0671 19.57 31.0774 19.7428 31.1873 19.8428C31.2379 19.8888 31.3006 19.9114 31.3632 19.9114C31.4366 19.9114 31.5098 19.8802 31.5623 19.8191C31.6256 19.7453 31.6866 19.6679 31.7437 19.589C31.8312 19.4678 31.8068 19.2965 31.6891 19.2064Z" fill="white"/>
<path d="M32.1357 17.9204C31.9925 17.8883 31.8509 17.9818 31.8197 18.1294C31.8025 18.2106 31.7818 18.2919 31.758 18.3711C31.7147 18.5154 31.7932 18.6685 31.9334 18.7131C31.9595 18.7214 31.9859 18.7253 32.0119 18.7253C32.1253 18.7253 32.2303 18.65 32.2656 18.5325C32.2938 18.4385 32.3184 18.342 32.3388 18.2457C32.37 18.0982 32.2791 17.9525 32.1357 17.9204Z" fill="white"/>
<path d="M30.4124 20.0816C30.3419 20.1221 30.2689 20.16 30.1954 20.1942C30.0617 20.2563 30.0023 20.4183 30.0627 20.5559C30.107 20.657 30.2037 20.7169 30.3049 20.7169C30.3415 20.7169 30.3786 20.7091 30.4141 20.6926C30.5012 20.6521 30.5878 20.6071 30.6714 20.5591C30.7995 20.4855 30.8454 20.3189 30.7739 20.187C30.7024 20.0552 30.5405 20.008 30.4124 20.0816Z" fill="white"/>
<path d="M28.7354 15.3125V17.3867L27.7614 18.3894C27.6577 18.4962 27.6577 18.6693 27.7614 18.7761C27.8133 18.8295 27.8812 18.8562 27.9492 18.8562C28.0172 18.8562 28.0852 18.8295 28.1371 18.7761L29.1889 17.6933C29.2387 17.6421 29.2667 17.5725 29.2667 17.5V15.3125C29.2667 15.1615 29.1478 15.0391 29.001 15.0391C28.8543 15.0391 28.7354 15.1615 28.7354 15.3125Z" fill="white"/>
<path d="M32.1359 14.5879C31.9892 14.5879 31.8703 14.7103 31.8703 14.8613V15.6206C31.252 14.6225 30.1723 14 29.0016 14C28.0934 14 27.2396 14.3641 26.5974 15.0251C25.9552 15.6862 25.6016 16.5651 25.6016 17.5C25.6016 18.4349 25.9552 19.3138 26.5974 19.9749C27.2396 20.6359 28.0934 21 29.0016 21C29.0038 21 29.006 20.9997 29.0082 20.9997C29.0104 20.9997 29.0126 21 29.0148 21C29.1106 21 29.2072 20.9958 29.3022 20.9877C29.4484 20.9751 29.557 20.8429 29.5448 20.6924C29.5325 20.5419 29.4042 20.43 29.2579 20.4427C29.1776 20.4496 29.0958 20.4531 29.0148 20.4531C29.0126 20.4531 29.0104 20.4534 29.0082 20.4535C29.006 20.4534 29.0038 20.4531 29.0016 20.4531C27.4197 20.4531 26.1328 19.1284 26.1328 17.5C26.1328 15.8716 27.4197 14.5469 29.0016 14.5469C30.021 14.5469 30.9586 15.1062 31.471 15.9961H30.7406C30.5939 15.9961 30.475 16.1185 30.475 16.2695C30.475 16.4206 30.5939 16.543 30.7406 16.543H31.5516C31.7133 16.543 31.8647 16.4962 31.9935 16.4151C32.0018 16.4102 32.0098 16.405 32.0174 16.3993C32.2486 16.2428 32.4016 15.9735 32.4016 15.668V14.8613C32.4016 14.7103 32.2826 14.5879 32.1359 14.5879Z" fill="white"/>
</g>
</g>
<defs>
<clipPath id="clip0">
<rect width="34" height="35" fill="white" transform="translate(12 10)"/>
</clipPath>
<clipPath id="clip1">
<rect width="6.8" height="7" fill="white" transform="translate(25.6016 14)"/>
</clipPath>
</defs>
</svg>
