<svg width="57" height="57" viewBox="0 0 57 57" fill="none" xmlns="http://www.w3.org/2000/svg">
<circle cx="28.5" cy="28.5" r="27" fill="#4051B6" stroke="#556CE7" stroke-width="3"/>
<path d="M43.0945 32.0336L40.8547 27.4968C40.748 27.2807 40.5327 27.1445 40.2975 27.1445H28.9993H17.7011C17.4658 27.1445 17.2505 27.2807 17.1438 27.4968L14.904 32.0336C14.8053 32.2336 14.8144 32.472 14.9281 32.6632C15.0418 32.8545 15.2437 32.971 15.4612 32.971H16.2417V44.3538C16.2417 44.7099 16.5217 44.9986 16.867 44.9986H41.1296C41.4749 44.9986 41.7549 44.7099 41.7549 44.3538V32.9711H42.5372C42.7547 32.9711 42.9567 32.8545 43.0703 32.6633C43.1841 32.472 43.1932 32.2336 43.0945 32.0336V32.0336ZM39.9141 28.4342L41.5172 31.6813H31.6224L30.0193 28.4342H39.9141ZM18.0845 28.4342H27.9793L26.3761 31.6813H16.4813L18.0845 28.4342ZM40.5044 43.7089H29.6246V40.135C29.6246 39.7789 29.3447 39.4901 28.9993 39.4901C28.654 39.4901 28.374 39.7789 28.374 40.135V43.7089H17.4925V32.9711H26.7595C26.9948 32.9711 27.2101 32.835 27.3168 32.6188L28.374 30.4773V34.3442C28.374 34.7003 28.654 34.9891 28.9993 34.9891C29.3447 34.9891 29.6246 34.7003 29.6246 34.3442V30.4773L30.6819 32.6188C30.7886 32.835 31.0039 32.9711 31.2391 32.9711H40.5044V43.7089Z" fill="white"/>
<path d="M23.6508 40.1797H20.0902C19.7448 40.1797 19.4648 40.4685 19.4648 40.8245C19.4648 41.1806 19.7448 41.4694 20.0902 41.4694H23.6508C23.9962 41.4694 24.2761 41.1806 24.2761 40.8245C24.2761 40.4685 23.9962 40.1797 23.6508 40.1797Z" fill="white"/>
<path d="M29.0007 25.2497C32.539 25.2497 35.4177 22.2773 35.4177 18.6239C35.4176 14.9715 32.539 12 29.0007 12C25.4615 12 22.582 14.9715 22.582 18.6239C22.582 22.2773 25.4614 25.2497 29.0007 25.2497ZM29.0007 13.2897C31.8495 13.2897 34.167 15.6826 34.167 18.6239C34.167 21.5663 31.8495 23.9599 29.0007 23.9599C26.1511 23.9599 23.8327 21.5663 23.8327 18.6239C23.8327 15.6826 26.151 13.2897 29.0007 13.2897V13.2897Z" fill="white"/>
<path d="M16.7152 19.2702H19.4206C19.766 19.2702 20.0459 18.9814 20.0459 18.6253C20.0459 18.2692 19.766 17.9805 19.4206 17.9805H16.7152C16.3698 17.9805 16.0898 18.2692 16.0898 18.6253C16.0898 18.9814 16.3698 19.2702 16.7152 19.2702V19.2702Z" fill="white"/>
<path d="M16.4236 14.7817L19.129 16.2532C19.2221 16.3039 19.3218 16.3278 19.4202 16.3278C19.6447 16.3278 19.8618 16.2028 19.9739 15.9837C20.135 15.6687 20.018 15.2786 19.7125 15.1125L17.007 13.641C16.7016 13.4749 16.3233 13.5955 16.1622 13.9106C16.0011 14.2256 16.1181 14.6156 16.4236 14.7817V14.7817Z" fill="white"/>
<path d="M16.162 23.337C16.274 23.5562 16.4911 23.6815 16.7158 23.6815C16.814 23.6815 16.9138 23.6575 17.0067 23.607L19.7121 22.1374C20.0177 21.9714 20.1349 21.5814 19.974 21.2664C19.813 20.9512 19.4348 20.8304 19.1293 20.9963L16.4238 22.4659C16.1183 22.6319 16.0011 23.0219 16.162 23.337V23.337Z" fill="white"/>
<path d="M38.5745 19.2702H41.28C41.6254 19.2702 41.9053 18.9814 41.9053 18.6253C41.9053 18.2692 41.6254 17.9805 41.28 17.9805H38.5745C38.2292 17.9805 37.9492 18.2692 37.9492 18.6253C37.9492 18.9814 38.2292 19.2702 38.5745 19.2702Z" fill="white"/>
<path d="M38.579 16.3279C38.6774 16.3279 38.7772 16.3039 38.8702 16.2533L41.5757 14.7818C41.8812 14.6157 41.9982 14.2256 41.8371 13.9106C41.676 13.5956 41.2978 13.4748 40.9923 13.6411L38.2868 15.1125C37.9814 15.2787 37.8644 15.6687 38.0255 15.9837C38.1375 16.2029 38.3545 16.3279 38.579 16.3279Z" fill="white"/>
<path d="M38.2871 22.1375L40.9926 23.6071C41.0856 23.6576 41.1853 23.6815 41.2835 23.6815C41.5082 23.6815 41.7253 23.5563 41.8373 23.337C41.9982 23.0219 41.881 22.6319 41.5755 22.4659L38.87 20.9963C38.5644 20.8303 38.1863 20.9512 38.0253 21.2664C37.8644 21.5815 37.9816 21.9715 38.2871 22.1375V22.1375Z" fill="white"/>
<path d="M29.0003 36.5977C28.655 36.5977 28.375 36.8864 28.375 37.2425V37.2462C28.375 37.6023 28.655 37.8892 29.0003 37.8892C29.3457 37.8892 29.6256 37.5987 29.6256 37.2426C29.6256 36.8865 29.3457 36.5977 29.0003 36.5977Z" fill="white"/>
<path d="M32.269 20.2064C32.1478 20.1163 31.9765 20.1414 31.8864 20.2626C31.8368 20.3292 31.7838 20.3946 31.7287 20.4569C31.6287 20.57 31.6393 20.7428 31.7525 20.8428C31.8045 20.8888 31.8691 20.9114 31.9335 20.9114C32.0091 20.9114 32.0844 20.8802 32.1384 20.8191C32.2036 20.7453 32.2665 20.6679 32.3252 20.589C32.4153 20.4678 32.3902 20.2965 32.269 20.2064Z" fill="white"/>
<path d="M32.7253 18.9204C32.5779 18.8883 32.4321 18.9818 32.4 19.1294C32.3823 19.2106 32.361 19.2919 32.3365 19.3711C32.2919 19.5154 32.3727 19.6685 32.517 19.7131C32.5439 19.7214 32.5711 19.7253 32.5978 19.7253C32.7146 19.7253 32.8227 19.65 32.859 19.5325C32.888 19.4385 32.9134 19.342 32.9344 19.2457C32.9665 19.0982 32.8729 18.9525 32.7253 18.9204Z" fill="white"/>
<path d="M30.9508 21.0816C30.8782 21.1221 30.803 21.16 30.7274 21.1942C30.5897 21.2563 30.5286 21.4183 30.5907 21.5559C30.6364 21.657 30.7359 21.7169 30.8401 21.7169C30.8777 21.7169 30.9159 21.7091 30.9525 21.6926C31.0422 21.6521 31.1313 21.6071 31.2174 21.5591C31.3492 21.4855 31.3964 21.3189 31.3228 21.187C31.2492 21.0552 31.0826 21.008 30.9508 21.0816Z" fill="white"/>
<path d="M29.2273 16.3125V18.3867L28.2246 19.3894C28.1178 19.4962 28.1178 19.6693 28.2246 19.7761C28.278 19.8295 28.348 19.8562 28.418 19.8562C28.4879 19.8562 28.5579 19.8295 28.6113 19.7761L29.6941 18.6933C29.7454 18.6421 29.7742 18.5725 29.7742 18.5V16.3125C29.7742 16.1615 29.6518 16.0391 29.5007 16.0391C29.3497 16.0391 29.2273 16.1615 29.2273 16.3125Z" fill="white"/>
<path d="M32.7266 15.5879C32.5755 15.5879 32.4531 15.7103 32.4531 15.8613V16.6206C31.8167 15.6225 30.7052 15 29.5 15C28.5651 15 27.6862 15.3641 27.0251 16.0251C26.3641 16.6862 26 17.5651 26 18.5C26 19.4349 26.3641 20.3138 27.0251 20.9749C27.6862 21.6359 28.5651 22 29.5 22C29.5023 22 29.5045 21.9997 29.5068 21.9997C29.5091 21.9997 29.5114 22 29.5137 22C29.6122 22 29.7117 21.9958 29.8095 21.9877C29.96 21.9751 30.0718 21.8429 30.0592 21.6924C30.0465 21.5419 29.9145 21.43 29.7639 21.4427C29.6812 21.4496 29.5971 21.4531 29.5137 21.4531C29.5114 21.4531 29.5091 21.4534 29.5068 21.4535C29.5045 21.4534 29.5023 21.4531 29.5 21.4531C27.8716 21.4531 26.5469 20.1284 26.5469 18.5C26.5469 16.8716 27.8716 15.5469 29.5 15.5469C30.5494 15.5469 31.5146 16.1062 32.0421 16.9961H31.2902C31.1392 16.9961 31.0168 17.1185 31.0168 17.2695C31.0168 17.4206 31.1392 17.543 31.2902 17.543H32.125C32.2915 17.543 32.4473 17.4962 32.58 17.4151C32.5885 17.4102 32.5967 17.405 32.6045 17.3993C32.8425 17.2428 33 16.9735 33 16.668V15.8613C33 15.7103 32.8776 15.5879 32.7266 15.5879Z" fill="white"/>
</svg>
