<svg width="56" height="57" viewBox="0 0 56 57" fill="none" xmlns="http://www.w3.org/2000/svg">
<path d="M54.5 28.5C54.5 43.4368 42.6106 55.5 28 55.5C13.3894 55.5 1.5 43.4368 1.5 28.5C1.5 13.5632 13.3894 1.5 28 1.5C42.6106 1.5 54.5 13.5632 54.5 28.5Z" fill="#4051B6" stroke="#556CE7" stroke-width="3"/>
<g clip-path="url(#clip0)">
<path d="M27.8766 28.8271C27.823 28.8155 27.7679 28.8134 27.7136 28.8215C27.1689 28.7581 26.758 28.2973 26.7571 27.7491C26.7571 27.4864 26.5441 27.2735 26.2814 27.2735C26.0187 27.2735 25.8057 27.4864 25.8057 27.7491C25.8071 28.6645 26.4194 29.4663 27.302 29.7086V30.1842C27.302 30.4469 27.515 30.6599 27.7777 30.6599C28.0404 30.6599 28.2533 30.4469 28.2533 30.1842V29.7374C29.2721 29.5241 29.9645 28.5753 29.8574 27.5401C29.7501 26.5049 28.8779 25.7182 27.8371 25.718C27.2407 25.718 26.7571 25.2344 26.7571 24.6379C26.7571 24.0415 27.2407 23.5579 27.8371 23.5579C28.4336 23.5579 28.9172 24.0415 28.9172 24.6379C28.9172 24.9006 29.1302 25.1136 29.3928 25.1136C29.6555 25.1136 29.8685 24.9006 29.8685 24.6379C29.8671 23.6768 29.1938 22.8478 28.2533 22.6495V22.2165C28.2533 21.9538 28.0404 21.7408 27.7777 21.7408C27.515 21.7408 27.302 21.9538 27.302 22.2165V22.6785C26.3204 22.9465 25.6887 23.8995 25.8238 24.908C25.959 25.9166 26.8196 26.6693 27.8371 26.6691C28.4257 26.6691 28.9058 27.1404 28.9165 27.7287C28.9274 28.317 28.4647 28.8057 27.8766 28.8271V28.8271Z" fill="white"/>
<path d="M20.9395 26.2301C20.9395 30.0397 24.0277 33.128 27.8373 33.128C31.647 33.128 34.7352 30.0397 34.7352 26.2301C34.7352 22.4204 31.647 19.3322 27.8373 19.3322C24.0295 19.3364 20.9439 22.4223 20.9395 26.2301ZM27.8373 20.2836C31.1216 20.2836 33.7838 22.9458 33.7838 26.2301C33.7838 29.5144 31.1216 32.1766 27.8373 32.1766C24.5531 32.1766 21.8908 29.5144 21.8908 26.2301C21.8945 22.9475 24.5547 20.2873 27.8373 20.2836Z" fill="white"/>
<path d="M37.0824 34.3006L33.3561 36.0612C32.8416 35.1042 31.8547 34.4952 30.7687 34.4646L27.3288 34.37C26.7841 34.3545 26.2497 34.2165 25.7654 33.9664L25.4154 33.785C23.6232 32.8508 21.487 32.8531 19.6967 33.791L19.7185 32.998C19.7257 32.7353 19.5188 32.5165 19.2561 32.5093L15.4841 32.4055C15.2214 32.3983 15.0028 32.6053 14.9956 32.868L14.7678 41.1455C14.7606 41.4082 14.9675 41.627 15.2302 41.6342L19.0022 41.738H19.0152C19.2731 41.738 19.484 41.5329 19.4909 41.2753L19.5018 40.8793L20.4818 40.3546C20.8664 40.1477 21.3161 40.0984 21.7362 40.2174L27.588 41.8597C27.5982 41.8628 27.6084 41.8651 27.6189 41.8674C28.0418 41.9559 28.4729 42.0003 28.9049 42C29.8201 42.0005 30.7245 41.8033 31.5563 41.4214C31.5767 41.4122 31.5965 41.4012 31.6153 41.3889L40.0998 35.9009C40.3111 35.7641 40.3794 35.4865 40.2556 35.2673C39.6257 34.1496 38.2286 33.7239 37.0824 34.3006V34.3006ZM15.7319 40.6963L15.9335 33.3697L18.7544 33.4472L18.5528 40.7741L15.7319 40.6963ZM31.1277 40.5718C30.0944 41.0382 28.9403 41.1669 27.8296 40.94L21.9936 39.3018C21.3367 39.1162 20.6337 39.1931 20.0328 39.5162L19.532 39.7844L19.666 34.9131C21.2529 33.8577 23.288 33.7492 24.978 34.6297L25.328 34.8111C25.9398 35.127 26.6146 35.3012 27.3028 35.3212L30.7429 35.4157C31.7091 35.4436 32.5297 36.1316 32.7257 37.0783L27.6017 36.9368C27.339 36.9296 27.1204 37.1368 27.113 37.3993C27.1058 37.662 27.313 37.8808 27.5755 37.888L33.2302 38.0436H33.2435C33.5011 38.0433 33.7117 37.8383 33.7187 37.5809C33.7245 37.3742 33.7092 37.1672 33.6727 36.9638L37.4947 35.1579C37.4984 35.1563 37.5021 35.1544 37.5058 35.1525C38.0479 34.8782 38.7034 34.97 39.1493 35.3827L31.1277 40.5718Z" fill="white"/>
<path d="M28.3146 17.9947V13.4757C28.3146 13.213 28.1017 13 27.839 13C27.5763 13 27.3633 13.213 27.3633 13.4757V17.9947C27.3633 18.2574 27.5763 18.4704 27.839 18.4704C28.1017 18.4704 28.3146 18.2574 28.3146 17.9947Z" fill="white"/>
<path d="M31.883 17.9948V15.8542C31.883 15.5915 31.67 15.3785 31.4073 15.3785C31.1446 15.3785 30.9316 15.5915 30.9316 15.8542V17.9948C30.9316 18.2575 31.1446 18.4705 31.4073 18.4705C31.67 18.4705 31.883 18.2575 31.883 17.9948Z" fill="white"/>
<path d="M24.7463 17.9948V15.8542C24.7463 15.5915 24.5333 15.3785 24.2706 15.3785C24.0079 15.3785 23.7949 15.5915 23.7949 15.8542V17.9948C23.7949 18.2575 24.0079 18.4705 24.2706 18.4705C24.5333 18.4705 24.7463 18.2575 24.7463 17.9948Z" fill="white"/>
</g>
<defs>
<clipPath id="clip0">
<rect width="29" height="29" fill="white" transform="translate(13 13)"/>
</clipPath>
</defs>
</svg>
