<svg width="56" height="57" viewBox="0 0 56 57" fill="none" xmlns="http://www.w3.org/2000/svg">
<path d="M54.5 28.5C54.5 43.4368 42.6106 55.5 28 55.5C13.3894 55.5 1.5 43.4368 1.5 28.5C1.5 13.5632 13.3894 1.5 28 1.5C42.6106 1.5 54.5 13.5632 54.5 28.5Z" fill="#4051B6" stroke="#556CE7" stroke-width="3"/>
<path d="M28.2932 25.7654C25.1338 25.7654 22.5635 28.3358 22.5635 31.4952C22.5635 34.6546 25.1338 37.2249 28.2932 37.2249C31.4526 37.2249 34.0229 34.6546 34.0229 31.4952C34.0229 28.3358 31.4526 25.7654 28.2932 25.7654V25.7654ZM28.2932 36.3434C25.6199 36.3434 23.445 34.1685 23.445 31.4952C23.445 28.8219 25.6199 26.6469 28.2932 26.6469C30.9665 26.6469 33.1414 28.8219 33.1414 31.4952C33.1414 34.1685 30.9665 36.3434 28.2932 36.3434Z" fill="white"/>
<path d="M41.0225 24.0027L40.7408 21.7486C40.6495 21.0187 39.981 20.5018 39.2459 20.6031L38.6078 20.6944L38.1934 19.0368C38.0164 18.3285 37.2929 17.8854 36.5625 18.0819L15.444 24.0044C14.7458 24.0393 14.1885 24.6182 14.1885 25.3249V37.6659C14.1885 38.3949 14.7817 38.9881 15.5107 38.9881H41.0741C41.8032 38.9881 42.3964 38.3949 42.3964 37.6659V25.3249C42.3964 24.6421 41.8677 24.0027 41.0225 24.0027V24.0027ZM39.3684 21.476C39.613 21.4425 39.8357 21.6151 39.866 21.858L40.1341 24.0027H21.7044L39.3684 21.476ZM36.7961 18.9319C37.0345 18.8679 37.2784 19.0112 37.3383 19.2506L37.7306 20.8199L22.0826 23.0582L36.7961 18.9319ZM41.5149 37.6659C41.5149 37.9089 41.3171 38.1066 41.0741 38.1066H15.5107C15.2677 38.1066 15.07 37.9089 15.07 37.6659V25.3249C15.07 25.0822 15.2672 24.8847 15.5098 24.8842C15.6494 24.884 13.3118 24.8842 41.0741 24.8842C41.3171 24.8842 41.5149 25.0819 41.5149 25.3249V37.6659Z" fill="white"/>
<path d="M40.1929 27.0877C39.7069 27.0877 39.3114 26.6922 39.3114 26.2062C39.3114 25.9628 39.1141 25.7654 38.8707 25.7654H33.1409C32.8975 25.7654 32.7002 25.9628 32.7002 26.2062C32.7002 26.4496 32.8975 26.6469 33.1409 26.6469H38.4857C38.6455 27.2656 39.1336 27.7536 39.7522 27.9134V35.0769C39.1335 35.2367 38.6455 35.7248 38.4857 36.3433H33.1409C32.8975 36.3433 32.7002 36.5407 32.7002 36.7841C32.7002 37.0275 32.8975 37.2248 33.1409 37.2248H38.8707C39.1141 37.2248 39.3114 37.0275 39.3114 36.7841C39.3114 36.2981 39.7069 35.9026 40.1929 35.9026C40.4363 35.9026 40.6337 35.7052 40.6337 35.4618V27.5284C40.6337 27.285 40.4363 27.0877 40.1929 27.0877Z" fill="white"/>
<path d="M23.4449 36.3434H18.1001C17.9403 35.7247 17.4522 35.2367 16.8336 35.077V27.9134C17.4523 27.7536 17.9403 27.2655 18.1001 26.6469H23.4449C23.6883 26.6469 23.8856 26.4496 23.8856 26.2062C23.8856 25.9628 23.6883 25.7654 23.4449 25.7654H17.7151C17.4717 25.7654 17.2744 25.9628 17.2744 26.2062C17.2744 26.6922 16.8789 27.0877 16.3929 27.0877C16.1495 27.0877 15.9521 27.285 15.9521 27.5284V35.4619C15.9521 35.7053 16.1495 35.9026 16.3929 35.9026C16.8789 35.9026 17.2744 36.2981 17.2744 36.7841C17.2744 37.0275 17.4717 37.2249 17.7151 37.2249H23.4449C23.6883 37.2249 23.8856 37.0275 23.8856 36.7841C23.8856 36.5407 23.6883 36.3434 23.4449 36.3434Z" fill="white"/>
<path d="M18.1553 31.4946C18.1553 32.2237 18.7485 32.8169 19.4775 32.8169C20.2066 32.8169 20.7998 32.2237 20.7998 31.4946C20.7998 30.7656 20.2066 30.1724 19.4775 30.1724C18.7485 30.1724 18.1553 30.7656 18.1553 31.4946ZM19.9183 31.4946C19.9183 31.7376 19.7205 31.9354 19.4775 31.9354C19.2345 31.9354 19.0368 31.7376 19.0368 31.4946C19.0368 31.2516 19.2345 31.0539 19.4775 31.0539C19.7205 31.0539 19.9183 31.2516 19.9183 31.4946Z" fill="white"/>
<path d="M38.4306 31.4946C38.4306 30.7656 37.8374 30.1724 37.1084 30.1724C36.3793 30.1724 35.7861 30.7656 35.7861 31.4946C35.7861 32.2237 36.3793 32.8169 37.1084 32.8169C37.8374 32.8169 38.4306 32.2237 38.4306 31.4946ZM36.6676 31.4946C36.6676 31.2516 36.8654 31.0539 37.1084 31.0539C37.3514 31.0539 37.5491 31.2516 37.5491 31.4946C37.5491 31.7376 37.3514 31.9354 37.1084 31.9354C36.8654 31.9354 36.6676 31.7376 36.6676 31.4946Z" fill="white"/>
<g clip-path="url(#clip0)">
<path d="M27.7563 31.4309L25.9379 29.6124C25.8879 29.5624 25.8603 29.4956 25.8602 29.4244C25.8602 29.3531 25.8878 29.2863 25.9379 29.2363L26.0972 29.077C26.1473 29.0268 26.2141 28.9993 26.2854 28.9993C26.3566 28.9993 26.4234 29.0268 26.4735 29.077L28.2918 30.8953L30.1103 29.077C30.1603 29.0268 30.2271 28.9993 30.2984 28.9993C30.3696 28.9993 30.4364 29.0268 30.4864 29.077L30.6458 29.2363C30.7496 29.34 30.7496 29.5088 30.6458 29.6124L28.8274 31.4309L30.6458 33.2493C30.6959 33.2994 30.7234 33.3662 30.7234 33.4374C30.7234 33.5086 30.6959 33.5754 30.6458 33.6255L30.4864 33.7848C30.4364 33.8349 30.3696 33.8624 30.2984 33.8624C30.2272 33.8624 30.1603 33.8349 30.1103 33.7848L28.2919 31.9664L26.4735 33.7848C26.4234 33.8349 26.3566 33.8624 26.2855 33.8624H26.2854C26.2142 33.8624 26.1474 33.8349 26.0973 33.7848L25.9379 33.6255C25.8879 33.5754 25.8603 33.5086 25.8603 33.4374C25.8603 33.3662 25.8879 33.2994 25.9379 33.2493L27.7563 31.4309Z" fill="white"/>
</g>
<defs>
<clipPath id="clip0">
<rect width="4.86343" height="4.86343" fill="white" transform="matrix(-1 0 0 1 30.7236 28.9985)"/>
</clipPath>
</defs>
</svg>
