<svg width="57" height="57" viewBox="0 0 57 57" fill="none" xmlns="http://www.w3.org/2000/svg">
<circle cx="28.5" cy="28.5" r="27" fill="#4051B6" stroke="#556CE7" stroke-width="3"/>
<g clip-path="url(#clip0)">
<path d="M32.4375 22.875H24.5625C23.6321 22.875 22.875 22.1179 22.875 21.1875C22.875 20.2571 23.6321 19.5 24.5625 19.5H32.4375C33.3679 19.5 34.125 20.2571 34.125 21.1875C34.125 22.1179 33.3679 22.875 32.4375 22.875ZM24.5625 20.625C24.252 20.625 24 20.8781 24 21.1875C24 21.4969 24.252 21.75 24.5625 21.75H32.4375C32.748 21.75 33 21.4969 33 21.1875C33 20.8781 32.748 20.625 32.4375 20.625H24.5625Z" fill="white"/>
<path d="M31.3127 20.625C31.1474 20.625 30.9842 20.553 30.8729 20.4135C30.6794 20.1705 30.7187 19.8173 30.9606 19.6226L34.0814 17.1263C34.3705 16.8956 34.2929 16.5885 34.2614 16.4996C34.231 16.413 34.1005 16.125 33.7304 16.125H23.2701C22.9 16.125 22.7695 16.413 22.7391 16.5008C22.7076 16.5896 22.6289 16.8968 22.9191 17.1274L26.0399 19.6238C26.2817 19.8184 26.3211 20.1716 26.1276 20.4146C25.9341 20.6565 25.5797 20.6959 25.3367 20.5024L22.216 18.006C21.6479 17.5515 21.4364 16.8146 21.6771 16.1284C21.9179 15.4433 22.5434 15 23.2701 15H33.7315C34.4582 15 35.0837 15.4433 35.3245 16.1284C35.5652 16.8146 35.3537 17.5515 34.7856 18.006L31.6649 20.5024C31.5602 20.5845 31.4365 20.625 31.3127 20.625V20.625Z" fill="white"/>
<path d="M29.0625 35.8125H26.25C25.9395 35.8125 25.6875 35.5605 25.6875 35.25C25.6875 34.9395 25.9395 34.6875 26.25 34.6875H29.0625C29.6824 34.6875 30.1875 34.1835 30.1875 33.5625C30.1875 32.9415 29.6824 32.4375 29.0625 32.4375H27.9375C26.6966 32.4375 25.6875 31.4284 25.6875 30.1875C25.6875 28.9466 26.6966 27.9375 27.9375 27.9375H30.75C31.0605 27.9375 31.3125 28.1895 31.3125 28.5C31.3125 28.8105 31.0605 29.0625 30.75 29.0625H27.9375C27.3176 29.0625 26.8125 29.5665 26.8125 30.1875C26.8125 30.8085 27.3176 31.3125 27.9375 31.3125H29.0625C30.3034 31.3125 31.3125 32.3216 31.3125 33.5625C31.3125 34.8034 30.3034 35.8125 29.0625 35.8125Z" fill="white"/>
<path d="M28.5 37.5C28.1895 37.5 27.9375 37.248 27.9375 36.9375V35.25C27.9375 34.9395 28.1895 34.6875 28.5 34.6875C28.8105 34.6875 29.0625 34.9395 29.0625 35.25V36.9375C29.0625 37.248 28.8105 37.5 28.5 37.5Z" fill="white"/>
<path d="M28.5 29.0625C28.1895 29.0625 27.9375 28.8105 27.9375 28.5V26.8125C27.9375 26.502 28.1895 26.25 28.5 26.25C28.8105 26.25 29.0625 26.502 29.0625 26.8125V28.5C29.0625 28.8105 28.8105 29.0625 28.5 29.0625Z" fill="white"/>
<path d="M32.4375 42H24.5625C20.2886 42 18.375 38.3269 18.375 34.6875C18.375 29.4641 21.1324 24.0562 24.9304 21.8265C25.017 21.7759 25.1149 21.75 25.215 21.75H31.785C31.8851 21.75 31.983 21.7759 32.0696 21.8265C35.8676 24.0562 38.625 29.4641 38.625 34.6875C38.625 38.3269 36.7114 42 32.4375 42ZM25.3703 22.875C21.9615 24.9607 19.5 29.8984 19.5 34.6875C19.5 37.5416 20.8264 40.875 24.5625 40.875H32.4375C36.1736 40.875 37.5 37.5416 37.5 34.6875C37.5 29.8984 35.0385 24.9607 31.6297 22.875H25.3703Z" fill="white"/>
</g>
<defs>
<clipPath id="clip0">
<rect width="27" height="27" fill="white" transform="translate(15 15)"/>
</clipPath>
</defs>
</svg>
