<svg width="22" height="22" viewBox="0 0 22 22" fill="none" xmlns="http://www.w3.org/2000/svg">
<circle cx="11" cy="11" r="10.25" fill="#4051B6" stroke="#556CE7" stroke-width="1.5"/>
<g clip-path="url(#clip0)">
<path d="M16.4498 10.7258C16.272 10.5767 16.088 10.4224 16.0531 10.2916C16.0154 10.1509 16.0995 9.918 16.1808 9.69298C16.2985 9.3676 16.4201 9.03092 16.2637 8.76102C16.1052 8.48747 15.7495 8.42407 15.4067 8.36334C15.1738 8.32211 14.9325 8.27964 14.8331 8.17982C14.7337 8.08009 14.6907 7.83904 14.6497 7.60609C14.5888 7.26237 14.5258 6.90672 14.2517 6.74902C13.982 6.59275 13.6452 6.71456 13.3199 6.83201C13.0948 6.91349 12.8621 6.99737 12.7211 6.95962C12.5904 6.92462 12.4361 6.74083 12.2869 6.56283C12.059 6.29159 11.8241 6.01172 11.5002 6.01172C11.1763 6.01172 10.9414 6.29159 10.7142 6.56229C10.565 6.74003 10.4107 6.92409 10.28 6.9589C10.1391 6.99648 9.90628 6.91242 9.68126 6.83121C9.35571 6.71358 9.01894 6.59212 8.74939 6.74831C8.47584 6.9069 8.41235 7.26255 8.35162 7.60627C8.3104 7.83922 8.26792 8.08044 8.16819 8.17982C8.06837 8.27919 7.82732 8.32229 7.59446 8.36334C7.25066 8.42425 6.89509 8.48712 6.7373 8.7612C6.58103 9.0311 6.70266 9.36778 6.82029 9.69316C6.90177 9.91818 6.98583 10.151 6.94799 10.2918C6.9129 10.4226 6.72911 10.5769 6.55111 10.726C6.27996 10.9531 6 11.188 6 11.5118C6 11.8358 6.27996 12.0706 6.55057 12.2979C6.7284 12.447 6.91237 12.6013 6.94719 12.732C6.98494 12.8729 6.90088 13.1058 6.81958 13.3308C6.70195 13.6562 6.58031 13.9928 6.73659 14.2627C6.89527 14.5362 7.25083 14.5997 7.59464 14.6604C7.8275 14.7017 8.06881 14.7441 8.16819 14.8439C8.26756 14.9437 8.31057 15.1847 8.35162 15.4176C8.41253 15.7614 8.47549 16.117 8.74957 16.2747C9.01929 16.431 9.35607 16.3092 9.68144 16.1918C9.90664 16.1105 10.1399 16.0266 10.2802 16.0641C10.4109 16.0991 10.5652 16.2829 10.7144 16.4609C10.9416 16.7316 11.1764 17.0115 11.5004 17.0115C11.8243 17.0115 12.0592 16.7316 12.2864 16.4609C12.4356 16.2831 12.5898 16.0991 12.7206 16.0643C12.861 16.0264 13.0941 16.1106 13.3192 16.1919C13.6446 16.3094 13.9813 16.4308 14.2512 16.2749C14.5248 16.1162 14.5882 15.7607 14.6489 15.4178C14.6901 15.1849 14.7326 14.9437 14.8324 14.8442C14.9321 14.7448 15.1732 14.7018 15.4061 14.6608C15.7499 14.5999 16.1055 14.537 16.2632 14.2628C16.4195 13.9929 16.2978 13.6563 16.1803 13.331C16.0987 13.1059 16.0147 12.8731 16.0526 12.7323C16.0876 12.6015 16.2715 12.4473 16.4494 12.298C16.7201 12.0708 17 11.836 17 11.512C17 11.1882 16.7205 10.9531 16.4498 10.7258ZM16.2153 12.0185C15.994 12.2039 15.7654 12.396 15.7006 12.6385C15.6336 12.89 15.7371 13.1774 15.8379 13.4554C15.923 13.691 16.0194 13.9578 15.9474 14.0808C15.8744 14.2085 15.591 14.2579 15.3414 14.3021C15.0529 14.3531 14.7545 14.4058 14.5735 14.587C14.3923 14.768 14.3396 15.0662 14.2888 15.3547C14.2446 15.6043 14.1947 15.8872 14.0675 15.9607C13.9446 16.0318 13.6777 15.9354 13.4422 15.8512C13.1643 15.7506 12.8769 15.6465 12.6252 15.7141C12.3834 15.7787 12.1914 16.0074 12.0052 16.2286C11.8397 16.4258 11.6523 16.648 11.4985 16.648C11.3448 16.648 11.1573 16.4248 10.9919 16.2286C10.8065 16.0074 10.6145 15.7787 10.3719 15.7139C10.3157 15.6994 10.2579 15.6922 10.1999 15.6926C9.97761 15.7093 9.75971 15.7629 9.55508 15.8512C9.31947 15.9363 9.05242 16.0327 8.92953 15.9607C8.80184 15.8877 8.75242 15.6043 8.70834 15.3547C8.65723 15.0662 8.6046 14.7678 8.42348 14.5868C8.24236 14.4057 7.94424 14.3529 7.65573 14.3021C7.40604 14.2579 7.12323 14.208 7.04968 14.0808C6.97862 13.9578 7.07506 13.691 7.16001 13.4555C7.26072 13.1774 7.36446 12.8902 7.29714 12.6385C7.23258 12.3967 7.00391 12.2047 6.78272 12.0185C6.58557 11.8531 6.36331 11.6656 6.36331 11.5118C6.36331 11.3581 6.58646 11.1707 6.78272 11.0053C7.00391 10.8198 7.23258 10.6278 7.29732 10.3852C7.36446 10.1338 7.2609 9.84632 7.16001 9.5684C7.07506 9.33279 6.97764 9.06601 7.04968 8.94285C7.12261 8.81525 7.40604 8.76583 7.65573 8.72166C7.94424 8.67055 8.24254 8.61792 8.42366 8.4368C8.60478 8.25568 8.65741 7.95756 8.70834 7.66905C8.75242 7.41936 8.80246 7.13655 8.92953 7.063C9.05206 6.99194 9.31947 7.08838 9.55491 7.17333C9.833 7.27386 10.1202 7.37796 10.3719 7.31046C10.6137 7.2459 10.8057 7.01723 10.9919 6.79604C11.1573 6.59889 11.3448 6.37663 11.4985 6.37663C11.6523 6.37663 11.8397 6.59978 12.0052 6.79604C12.1906 7.01723 12.3827 7.2459 12.6252 7.31073C12.8769 7.37778 13.1641 7.27422 13.442 7.17333C13.6775 7.08838 13.9443 6.99096 14.0675 7.063C14.1952 7.13602 14.2446 7.41936 14.2888 7.66905C14.3398 7.95756 14.3925 8.25586 14.5736 8.43698C14.7547 8.6181 15.0529 8.67082 15.3414 8.72166C15.591 8.76583 15.8739 8.81579 15.9474 8.94285C16.0185 9.06601 15.9221 9.33279 15.8379 9.56823C15.7373 9.84632 15.6336 10.1336 15.7008 10.3852C15.7654 10.627 15.994 10.8191 16.2153 11.0053C16.4124 11.1707 16.6347 11.3581 16.6347 11.5118C16.6347 11.6656 16.4124 11.8531 16.2153 12.0185Z" fill="white"/>
<path d="M11.5006 7.68311C9.38548 7.68311 7.6709 9.39778 7.6709 11.5128C7.6709 13.6279 9.38548 15.3425 11.5006 15.3425C13.6156 15.3425 15.3303 13.6279 15.3303 11.5128C15.328 9.39867 13.6147 7.68542 11.5006 7.68311ZM11.5006 14.9778C9.58691 14.9778 8.03563 13.4265 8.03563 11.5128C8.03563 9.5992 9.58691 8.04784 11.5006 8.04784C13.4142 8.04784 14.9656 9.5992 14.9656 11.5128C14.9634 13.4256 13.4133 14.9757 11.5006 14.9778Z" fill="white"/>
<path d="M9.72949 13.0248L13.0121 9.74219L13.2701 10.0001L9.98737 13.2828L9.72949 13.0248Z" fill="white"/>
<path d="M12.5937 11.877C12.1908 11.877 11.8643 12.2036 11.8643 12.6064C11.8643 13.0094 12.1908 13.3359 12.5937 13.3359C12.9966 13.3359 13.3232 13.0094 13.3232 12.6064C13.3232 12.2036 12.9966 11.877 12.5937 11.877ZM12.5937 12.9712C12.3923 12.9712 12.229 12.8078 12.229 12.6064C12.229 12.405 12.3923 12.2417 12.5937 12.2417C12.7951 12.2417 12.9585 12.405 12.9585 12.6064C12.9585 12.8078 12.7951 12.9712 12.5937 12.9712Z" fill="white"/>
<path d="M10.4062 11.1484C10.8091 11.1484 11.1357 10.8219 11.1357 10.4189C11.1357 10.0161 10.8091 9.68945 10.4062 9.68945C10.0033 9.68945 9.67676 10.0161 9.67676 10.4189C9.67676 10.8219 10.0033 11.1484 10.4062 11.1484ZM10.4062 10.0542C10.6076 10.0542 10.771 10.2175 10.771 10.4189C10.771 10.6203 10.6076 10.7837 10.4062 10.7837C10.2048 10.7837 10.0415 10.6203 10.0415 10.4189C10.0415 10.2175 10.2048 10.0542 10.4062 10.0542Z" fill="white"/>
</g>
<defs>
<clipPath id="clip0">
<rect width="11" height="11" fill="white" transform="translate(6 6)"/>
</clipPath>
</defs>
</svg>
