<svg width="57" height="57" viewBox="0 0 57 57" fill="none" xmlns="http://www.w3.org/2000/svg">
<circle cx="28.5" cy="28.5" r="27" fill="#4051B6" stroke="#556CE7" stroke-width="3"/>
<g clip-path="url(#clip0)">
<path d="M44.85 34.2501L42.5048 31.905C42.3047 31.7049 41.9804 31.7049 41.7804 31.905C41.5804 32.105 41.5804 32.4293 41.7804 32.6293L42.107 32.9558L34.2338 40.8292L31.4251 38.0205L39.2984 30.1472L40.1011 30.9499C40.3012 31.1499 40.6254 31.1499 40.8255 30.9499C41.0255 30.7499 41.0255 30.4255 40.8255 30.2256L39.6635 29.0636C38.7429 28.1196 38.1379 27.044 37.2858 26.0348C38.2594 24.7273 37.229 22.8129 35.6073 22.8924C35.6609 21.7537 34.6878 20.7754 33.5453 20.8295C33.5989 19.6912 32.6221 18.7112 31.4818 18.767C31.5702 16.8881 29.2218 16.043 27.9998 17.4L27.8792 17.2794C27.1108 16.511 25.8605 16.511 25.0922 17.2794C24.6839 17.6877 24.4925 18.2321 24.5182 18.768C23.3776 18.7134 22.4006 19.6873 22.4547 20.8307C22.0003 20.8091 21.5402 20.9441 21.1618 21.2345C20.4655 20.9889 19.7042 21.078 19.0299 21.4933C18.1986 22.0053 17.6784 22.8959 17.6657 23.8242L17.0855 28.3147L11.15 34.2501C10.95 34.4502 10.95 34.7745 11.15 34.9744L19.7476 43.5721C19.8476 43.6721 19.9787 43.7221 20.1098 43.7221C20.2408 43.7221 20.3719 43.6721 20.4719 43.5721L25.6613 38.3827C25.8613 38.1827 25.8613 37.8584 25.6613 37.6584L24.7894 36.7866C25.7682 35.8079 26.7499 35.3121 27.9999 34.7474C29.2402 35.3078 30.2402 35.8166 31.2103 36.7866L30.3385 37.6584C30.2425 37.7544 30.1885 37.8847 30.1885 38.0206C30.1885 38.1564 30.2425 38.2867 30.3385 38.3827L35.5279 43.5721C35.6279 43.6721 35.759 43.7221 35.8901 43.7221C36.0211 43.7221 36.1523 43.6721 36.2523 43.5721L44.8499 34.9745C44.946 34.8785 44.9999 34.7482 44.9999 34.6124C44.9999 34.4765 44.946 34.3462 44.85 34.2501V34.2501ZM35.7016 23.9145C36.3647 23.9153 36.8365 24.6368 36.5671 25.2443C36.1555 24.8243 35.7367 24.4113 35.3209 23.9954C35.4478 23.9684 35.5747 23.9415 35.7016 23.9145V23.9145ZM33.6387 21.8515C34.3079 21.8523 34.7729 22.5714 34.5044 23.1809C34.064 22.7506 33.5664 22.3623 33.0098 22.0933C33.1895 21.935 33.3991 21.8544 33.6387 21.8515V21.8515ZM19.7492 25.6506L19.6286 25.53C19.2596 25.1611 19.2596 24.5607 19.6286 24.1917C19.8131 24.0073 20.0554 23.915 20.2977 23.915C20.54 23.915 20.7824 24.0073 20.9668 24.1917L21.0874 24.3122L20.4182 24.9814L19.7492 25.6506ZM25.8166 18.0037C26.0011 17.8192 26.2434 17.727 26.4857 17.727C26.728 17.727 26.9704 17.8192 27.1548 18.0037L27.2754 18.1243L25.9371 19.4626L25.8165 19.342C25.4476 18.9731 25.4476 18.3727 25.8166 18.0037V18.0037ZM23.4767 20.7356C23.4767 20.4828 23.5751 20.2451 23.7539 20.0664C23.9384 19.882 24.1807 19.7897 24.4231 19.7897C24.6654 19.7897 24.9077 19.882 25.0922 20.0664L25.2128 20.187L24.5437 20.8562L23.8745 21.5253L23.7539 21.4047C23.5751 21.226 23.4767 20.9883 23.4767 20.7356ZM22.3603 21.8523C22.6026 21.8523 22.8451 21.9446 23.0295 22.1291L23.1501 22.2497L21.8117 23.588L21.6911 23.4674C21.3222 23.0984 21.3222 22.4981 21.6911 22.1291C21.8757 21.9445 22.118 21.8523 22.3603 21.8523ZM19.5671 22.3654C19.7628 22.245 20.1027 22.0903 20.5067 22.1305C20.4186 22.3761 20.3805 22.6357 20.3928 22.8934C19.7348 22.8618 19.0835 23.1751 18.6982 23.7099C18.7512 23.1813 19.0799 22.6655 19.5671 22.3654V22.3654ZM20.1098 42.4855L12.2366 34.6123L13.1686 33.6802L21.0418 41.5535L20.1098 42.4855ZM30.2826 34.654C29.9214 34.4295 29.538 34.24 29.1401 34.0894C29.6502 33.7222 30.081 33.2692 30.5236 32.8267C30.7236 32.6267 30.7236 32.3024 30.5236 32.1024C30.3235 31.9024 29.9992 31.9024 29.7992 32.1024C29.1779 32.7237 28.571 33.3249 27.7721 33.722C26.3723 34.422 25.1918 34.9357 24.0653 36.0621L19.7102 31.7071C19.5102 31.5071 19.1859 31.5071 18.9859 31.7071C18.7859 31.9071 18.7859 32.2315 18.9859 32.4314L24.5749 38.0204L21.7663 40.8291L13.8929 32.9559L16.7015 30.1473L17.2087 30.6545C17.4087 30.8545 17.733 30.8545 17.933 30.6545C18.133 30.4544 18.133 30.1301 17.933 29.9301L17.4258 29.423L17.9332 28.9157C18.0132 28.8356 18.0645 28.7313 18.079 28.6191L18.4696 25.5965C18.6561 26.0621 19.0406 26.3909 19.386 26.7362C19.5863 26.9366 19.9153 26.9334 20.1113 26.7373L28.8451 18.0034C29.6985 17.15 31.0399 18.4859 30.1836 19.342C30.0836 19.442 30.0336 19.5731 30.0336 19.7042C30.0336 19.8353 30.0836 19.9664 30.1836 20.0664C30.3837 20.2664 30.708 20.2664 30.908 20.0664C31.7713 19.203 33.1093 20.5414 32.2461 21.4045C32.1461 21.5045 32.0961 21.6356 32.0961 21.7666C32.0961 21.6483 28.0273 21.7035 27.6982 21.7035C25.4683 21.7035 25.0981 25.0059 27.3017 25.4359L29.8413 26.1881C30.238 26.3054 30.6024 26.5223 30.8954 26.8154L32.9908 28.9107L31.5122 30.3893C31.3121 30.5894 31.3121 30.9136 31.5122 31.1137C31.7122 31.3137 32.0365 31.3137 32.2365 31.1137L34.0773 29.2729C34.1734 29.1769 34.2274 29.0466 34.2274 28.9107C34.2274 28.7749 34.1734 28.6446 34.0774 28.5486L31.6199 26.0911C31.2064 25.6776 30.6919 25.3715 30.1322 25.2059L27.5675 24.4463C26.6226 24.1666 26.5339 22.728 27.6982 22.728H31.3374C32.326 22.728 33.1715 23.2945 33.847 23.9702C33.847 23.9702 36.0685 26.2007 36.2188 26.3689C37.0943 27.3425 37.6544 28.503 38.5742 29.4227L31.9348 36.0621C31.4188 35.5463 30.9072 35.0419 30.2826 34.654V34.654ZM35.8902 42.4855L34.9582 41.5536L42.8314 33.6803L43.7635 34.6124L35.8902 42.4855Z" fill="white"/>
<path d="M28.0005 14.3528C28.2834 14.3528 28.5127 14.1234 28.5127 13.8406V12.7934C28.5127 12.5106 28.2834 12.2812 28.0005 12.2812C27.7176 12.2812 27.4883 12.5106 27.4883 12.7934V13.8406C27.4883 14.1234 27.7176 14.3528 28.0005 14.3528Z" fill="white"/>
<path d="M25.1112 14.5441C25.1953 14.7365 25.3833 14.8512 25.5807 14.8512C25.6492 14.8512 25.7188 14.8374 25.7856 14.8082C26.0448 14.6948 26.163 14.3928 26.0496 14.1337L25.63 13.1743C25.5167 12.9151 25.2147 12.7968 24.9555 12.9103C24.6963 13.0236 24.5781 13.3256 24.6915 13.5848L25.1112 14.5441Z" fill="white"/>
<path d="M23.2145 16.1383C23.3131 16.2294 23.4378 16.2744 23.5622 16.2744C23.7 16.2744 23.8374 16.2191 23.9384 16.11C24.1304 15.9023 24.1177 15.5782 23.91 15.3861L23.1412 14.6752C22.9335 14.4831 22.6095 14.4959 22.4174 14.7035C22.2253 14.9112 22.238 15.2353 22.4457 15.4274L23.2145 16.1383Z" fill="white"/>
<path d="M30.2134 14.8081C30.2801 14.8373 30.3497 14.8511 30.4183 14.8511C30.6157 14.8511 30.8037 14.7364 30.8879 14.544L31.3075 13.5846C31.4208 13.3255 31.3026 13.0235 31.0434 12.9102C30.7844 12.797 30.4822 12.915 30.3689 13.1743L29.9493 14.1336C29.836 14.3928 29.9542 14.6947 30.2134 14.8081V14.8081Z" fill="white"/>
<path d="M32.4382 16.2744C32.5625 16.2744 32.6872 16.2294 32.7858 16.1383L33.5547 15.4274C33.7623 15.2353 33.7751 14.9113 33.583 14.7035C33.3909 14.4959 33.0669 14.4831 32.8592 14.6752L32.0903 15.3861C31.8826 15.5782 31.8698 15.9022 32.0619 16.11C32.1629 16.2191 32.3003 16.2744 32.4382 16.2744V16.2744Z" fill="white"/>
<path d="M21.9014 38.635C22.2115 38.5617 22.4035 38.2508 22.3302 37.9406C22.2569 37.6305 21.946 37.4385 21.6358 37.5118C21.3257 37.5851 21.1337 37.896 21.207 38.2062C21.2803 38.5163 21.5912 38.7083 21.9014 38.635Z" fill="white"/>
</g>
<defs>
<clipPath id="clip0">
<rect width="34" height="34" fill="white" transform="translate(11 11)"/>
</clipPath>
</defs>
</svg>
