<svg width="42" height="42" viewBox="0 0 42 42" fill="none" xmlns="http://www.w3.org/2000/svg">
<circle cx="21" cy="21" r="21" fill="#4051B6"/>
<g clip-path="url(#clip0)">
<path d="M30.8995 19.4536C30.544 19.1553 30.1759 18.8468 30.1063 18.5852C30.0308 18.3037 30.1989 17.838 30.3617 17.3879C30.5969 16.7372 30.8402 16.0638 30.5275 15.524C30.2103 14.9769 29.499 14.8501 28.8133 14.7286C28.3476 14.6462 27.865 14.5612 27.6662 14.3616C27.4675 14.1621 27.3813 13.68 27.2994 13.2141C27.1776 12.5267 27.0517 11.8154 26.5035 11.5C25.964 11.1874 25.2903 11.4311 24.6397 11.666C24.1895 11.8289 23.7242 11.9967 23.4422 11.9212C23.1808 11.8512 22.8722 11.4836 22.5739 11.1276C22.118 10.5851 21.6481 10.0254 21.0004 10.0254C20.3525 10.0254 19.8829 10.5851 19.4284 11.1265C19.1301 11.482 18.8215 11.8501 18.56 11.9198C18.2783 11.9949 17.8126 11.8268 17.3625 11.6644C16.7114 11.4291 16.0379 11.1862 15.4988 11.4986C14.9517 11.8158 14.8247 12.5271 14.7032 13.2145C14.6208 13.6804 14.5358 14.1628 14.3364 14.3616C14.1367 14.5603 13.6546 14.6465 13.1889 14.7286C12.5013 14.8505 11.7902 14.9762 11.4746 15.5244C11.1621 16.0642 11.4053 16.7375 11.6406 17.3883C11.8035 17.8383 11.9717 18.304 11.896 18.5856C11.8258 18.8472 11.4582 19.1557 11.1022 19.454C10.5599 19.9081 10 20.3779 10 21.0256C10 21.6735 10.5599 22.1432 11.1011 22.5977C11.4568 22.896 11.8247 23.2046 11.8944 23.466C11.9699 23.7478 11.8018 24.2135 11.6392 24.6635C11.4039 25.3143 11.1606 25.9875 11.4732 26.5273C11.7905 27.0744 12.5017 27.2013 13.1893 27.3228C13.655 27.4053 14.1376 27.4902 14.3364 27.6897C14.5351 27.8893 14.6211 28.3714 14.7032 28.8371C14.8251 29.5247 14.951 30.2359 15.4991 30.5514C16.0386 30.864 16.7121 30.6204 17.3629 30.3855C17.8133 30.2229 18.2799 30.0551 18.5604 30.1301C18.8218 30.2002 19.1304 30.5678 19.4288 30.9238C19.8832 31.4651 20.3529 32.025 21.0008 32.025C21.6485 32.025 22.1183 31.4651 22.5728 30.9238C22.8711 30.5682 23.1796 30.2002 23.4412 30.1306C23.722 30.0547 24.1881 30.2232 24.6385 30.3858C25.2892 30.6207 25.9626 30.8636 26.5024 30.5518C27.0495 30.2344 27.1763 29.5233 27.2978 28.8375C27.3802 28.3718 27.4652 27.8893 27.6648 27.6904C27.8643 27.4916 28.3464 27.4056 28.8123 27.3235C29.4997 27.2017 30.211 27.076 30.5264 26.5276C30.839 25.9878 30.5957 25.3146 30.3606 24.6639C30.1975 24.2138 30.0294 23.7481 30.1052 23.4666C30.1752 23.2049 30.543 22.8965 30.8988 22.598C31.4402 22.1435 32 21.6739 32 21.026C32 20.3783 31.4409 19.9081 30.8995 19.4536ZM30.4306 22.039C29.988 22.4098 29.5307 22.7939 29.4012 23.279C29.2671 23.782 29.4742 24.3568 29.6758 24.9127C29.8459 25.3839 30.0388 25.9175 29.8947 26.1636C29.7489 26.419 29.182 26.5178 28.6828 26.6062C28.1058 26.7082 27.509 26.8136 27.1469 27.1759C26.7847 27.5379 26.6793 28.1344 26.5776 28.7114C26.4892 29.2106 26.3893 29.7764 26.135 29.9233C25.8892 30.0656 25.3553 29.8727 24.8844 29.7044C24.3286 29.5032 23.7537 29.295 23.2504 29.4302C22.7667 29.5593 22.3828 30.0168 22.0104 30.4592C21.6795 30.8535 21.3046 31.298 20.997 31.298C20.6897 31.298 20.3146 30.8515 19.9839 30.4592C19.6129 30.0168 19.2289 29.5593 18.7438 29.4298C18.6314 29.4008 18.5159 29.3864 18.3997 29.3873C17.9552 29.4206 17.5194 29.5278 17.1102 29.7044C16.6389 29.8745 16.1048 30.0674 15.8591 29.9233C15.6037 29.7775 15.5048 29.2106 15.4167 28.7114C15.3145 28.1344 15.2092 27.5376 14.847 27.1755C14.4847 26.8133 13.8885 26.7078 13.3115 26.6062C12.8121 26.5178 12.2465 26.4179 12.0994 26.1636C11.9572 25.9175 12.1501 25.3839 12.32 24.913C12.5214 24.3568 12.7289 23.7823 12.5943 23.279C12.4652 22.7953 12.0078 22.4114 11.5654 22.039C11.1711 21.7081 10.7266 21.3332 10.7266 21.0256C10.7266 20.7182 11.1729 20.3434 11.5654 20.0125C12.0078 19.6415 12.4652 19.2575 12.5946 18.7724C12.7289 18.2695 12.5218 17.6946 12.32 17.1388C12.1501 16.6675 11.9553 16.134 12.0994 15.8877C12.2452 15.6325 12.8121 15.5336 13.3115 15.4453C13.8885 15.3431 14.4851 15.2378 14.8473 14.8756C15.2096 14.5133 15.3148 13.9171 15.4167 13.34C15.5048 12.8407 15.6049 12.2751 15.8591 12.128C16.1041 11.9858 16.6389 12.1787 17.1098 12.3486C17.666 12.5497 18.2403 12.7579 18.7438 12.6229C19.2273 12.4938 19.6115 12.0364 19.9839 11.594C20.3146 11.1997 20.6897 10.7552 20.997 10.7552C21.3046 10.7552 21.6795 11.2015 22.0104 11.594C22.3812 12.0364 22.7653 12.4938 23.2504 12.6234C23.7537 12.7575 24.3283 12.5504 24.8841 12.3486C25.355 12.1787 25.8885 11.9839 26.135 12.128C26.3904 12.274 26.4892 12.8407 26.5776 13.34C26.6796 13.9171 26.785 14.5137 27.1473 14.8759C27.5093 15.2382 28.1058 15.3436 28.6828 15.4453C29.182 15.5336 29.7478 15.6335 29.8947 15.8877C30.037 16.134 29.8441 16.6675 29.6758 17.1384C29.4746 17.6946 29.2671 18.2691 29.4016 18.7724C29.5307 19.2559 29.988 19.6401 30.4306 20.0125C30.8249 20.3434 31.2694 20.7182 31.2694 21.0256C31.2694 21.3332 30.8249 21.7081 30.4306 22.039Z" fill="white"/>
<path d="M21.0002 13.3652C16.77 13.3652 13.3408 16.7946 13.3408 21.0246C13.3408 25.2549 16.77 28.684 21.0002 28.684C25.2303 28.684 28.6596 25.2549 28.6596 21.0246C28.655 16.7964 25.2285 13.3699 21.0002 13.3652ZM21.0002 27.9546C17.1728 27.9546 14.0703 24.852 14.0703 21.0246C14.0703 17.1974 17.1728 14.0947 21.0002 14.0947C24.8274 14.0947 27.9302 17.1974 27.9302 21.0246C27.9259 24.8502 24.8257 27.9505 21.0002 27.9546Z" fill="white"/>
<path d="M17.4595 24.0496L24.0247 17.4844L24.5406 18.0001L17.9752 24.5655L17.4595 24.0496Z" fill="white"/>
<path d="M23.1889 21.7549C22.383 21.7549 21.73 22.4081 21.73 23.2138C21.73 24.0197 22.383 24.6728 23.1889 24.6728C23.9946 24.6728 24.6478 24.0197 24.6478 23.2138C24.6478 22.4081 23.9946 21.7549 23.1889 21.7549ZM23.1889 23.9433C22.7861 23.9433 22.4594 23.6167 22.4594 23.2138C22.4594 22.811 22.7861 22.4844 23.1889 22.4844C23.5918 22.4844 23.9184 22.811 23.9184 23.2138C23.9184 23.6167 23.5918 23.9433 23.1889 23.9433Z" fill="white"/>
<path d="M18.812 20.2958C19.6177 20.2958 20.2709 19.6427 20.2709 18.8369C20.2709 18.0312 19.6177 17.3779 18.812 17.3779C18.0061 17.3779 17.353 18.0312 17.353 18.8369C17.353 19.6427 18.0061 20.2958 18.812 20.2958ZM18.812 18.1074C19.2148 18.1074 19.5414 18.434 19.5414 18.8369C19.5414 19.2397 19.2148 19.5663 18.812 19.5663C18.4091 19.5663 18.0825 19.2397 18.0825 18.8369C18.0825 18.434 18.4091 18.1074 18.812 18.1074Z" fill="white"/>
</g>
<defs>
<clipPath id="clip0">
<rect width="22" height="22" fill="white" transform="translate(10 10)"/>
</clipPath>
</defs>
</svg>
