<?xml version="1.0" encoding="UTF-8"?>
<svg width="13px" height="20px" viewBox="0 0 13 20" version="1.1" xmlns="http://www.w3.org/2000/svg">
    <!-- Generator: sketchtool 53.2 (72643) - https://sketchapp.com -->
    <title>6A71F4DF-E87C-4384-85C4-FE85F439A97E</title>
    <desc>Created with sketchtool.</desc>
    <g id="Components" stroke="none" stroke-width="1" fill="none" fill-rule="evenodd">
        <g id="1.0-Storefront-Customization-Cosmetic-1" transform="translate(-499.000000, -180.000000)" fill="#9EA0A5" fill-rule="nonzero">
            <g id="icon-mobile-inactive" transform="translate(499.000000, 180.000000)">
                <path d="M10.9454545,19.32 C11.9127273,19.32 12.7272727,18.5309091 12.7272727,17.5381818 L12.7272727,1.80727273 C12.7272727,0.84 11.9381818,0.0254545455 10.9454545,0.0254545455 L1.78181818,0.0254545455 C0.814545455,0.0254545455 0,0.814545455 0,1.80727273 L0,17.5636364 C0,18.5309091 0.789090909,19.3454545 1.78181818,19.3454545 L10.9454545,19.3454545 L10.9454545,19.32 Z M1.01818182,1.80727273 C1.01818182,1.4 1.34909091,1.04363636 1.78181818,1.04363636 L10.9454545,1.04363636 C11.3527273,1.04363636 11.7090909,1.37454545 11.7090909,1.80727273 L11.7090909,2.29090909 L1.01818182,2.29090909 L1.01818182,1.80727273 Z M1.01818182,3.30909091 L11.7090909,3.30909091 L11.7090909,15.0181818 L1.01818182,15.0181818 L1.01818182,3.30909091 Z M1.01818182,17.5381818 L1.01818182,16.0363636 L11.7090909,16.0363636 L11.7090909,17.5381818 C11.7090909,17.9454545 11.3781818,18.3018182 10.9454545,18.3018182 L1.78181818,18.3018182 C1.34909091,18.3018182 1.01818182,17.9709091 1.01818182,17.5381818 Z" id="Shape"></path>
                <circle id="Oval" cx="6.36363636" cy="17.1818182" r="1"></circle>
            </g>
        </g>
    </g>
</svg>
