<?xml version="1.0" encoding="UTF-8"?>
<svg width="22px" height="20px" viewBox="0 0 22 20" version="1.1" xmlns="http://www.w3.org/2000/svg">
    <!-- Generator: sketchtool 53.2 (72643) - https://sketchapp.com -->
    <title>256FD855-EFB9-4022-9BEB-B6368774AF58</title>
    <desc>Created with sketchtool.</desc>
    <g id="Components" stroke="none" stroke-width="1" fill="none" fill-rule="evenodd">
        <g id="1.0-Storefront-Customization-Cosmetic-1" transform="translate(-464.000000, -180.000000)" fill="#9EA0A5">
            <g id="icon-website-inactive" transform="translate(465.000000, 181.000000)">
                <g id="web-programming" fill-rule="nonzero">
                    <path d="M18.2911051,18 L2.28032345,18 C1.02303742,18 0,16.9855898 0,15.7384876 L0,2.26151243 C0,1.01459811 1.02303742,0 2.28032345,0 L18.2911051,0 C19.5483911,0 20.5714286,1.01459811 20.5714286,2.26151243 L20.5714286,15.7384876 C20.5714286,16.9855898 19.5483911,18 18.2911051,18 Z M2.28032345,0.673642001 C1.39753203,0.673642001 0.679245283,1.38600341 0.679245283,2.26151243 L0.679245283,15.7384876 C0.679245283,16.6139966 1.39753203,17.326358 2.28032345,17.326358 L18.2911051,17.326358 C19.1738965,17.326358 19.8921833,16.6139966 19.8921833,15.7384876 L19.8921833,2.26151243 C19.8921833,1.38600341 19.1738965,0.673642001 18.2911051,0.673642001 L2.28032345,0.673642001 Z" id="Shape" stroke="#979797" stroke-width="0.3"></path>
                    <path d="M20.2318059,5.14285714 L0.339622642,5.14285714 C0.15199627,5.14285714 0,4.95105227 0,4.71428571 C0,4.47775824 0.15199627,4.28571429 0.339622642,4.28571429 L20.2318059,4.28571429 C20.4194323,4.28571429 20.5714286,4.47775824 20.5714286,4.71428571 C20.5714286,4.95105227 20.4194323,5.14285714 20.2318059,5.14285714 Z" id="Path"></path>
                </g>
                <circle id="Oval-Copy-2" cx="11.3684211" cy="2.84210526" r="1"></circle>
                <circle id="Oval-Copy-3" cx="3.78947368" cy="2.84210526" r="1"></circle>
                <circle id="Oval-Copy-4" cx="7.57894737" cy="2.84210526" r="1"></circle>
            </g>
        </g>
    </g>
</svg>
