<svg xmlns="http://www.w3.org/2000/svg" width="22.791" height="21.238" viewBox="0 0 22.791 21.238">
  <g id="box" transform="translate(-9 -25.635)">
    <path id="Path_4935" data-name="Path 4935" d="M30.4,34.786H29.254a1.132,1.132,0,0,0-1.08-.83H26.947v-3a.316.316,0,0,0-.154-.28l-8.654-5a.32.32,0,0,0-.321,0l-8.657,5a.322.322,0,0,0-.161.28v10a.323.323,0,0,0,.161.28l8.657,5a.323.323,0,0,0,.161.043.34.34,0,0,0,.166-.043L22.7,43.6v1.9a1.368,1.368,0,0,0,1.379,1.371H30.4A1.375,1.375,0,0,0,31.791,45.5V36.178A1.393,1.393,0,0,0,30.4,34.786ZM28.185,34.6a.469.469,0,0,1,.469.469V35.1a.469.469,0,0,1-.469.469H26.308a.469.469,0,0,1-.469-.469V35.07a.469.469,0,0,1,.469-.469ZM17.98,26.33l3.6,2.077-8.011,4.625-3.6-2.077Zm-.307,19.061L9.646,40.766V31.514l8.028,4.625Zm.307-9.811L14.213,33.4l8.011-4.625,3.768,2.175Zm4.722.6v6.679l-4.383,2.534V36.139L26.3,31.514v2.441h.01a1.132,1.132,0,0,0-1.08.83H24.081A1.386,1.386,0,0,0,22.7,36.178ZM31.145,45.5a.729.729,0,0,1-.742.725H24.081a.721.721,0,0,1-.733-.725V36.178a.739.739,0,0,1,.733-.747h1.162a1.1,1.1,0,0,0,1.068.784h1.863a1.1,1.1,0,0,0,1.068-.784H30.4a.747.747,0,0,1,.742.747Z" transform="translate(0 0)" fill="#556ce7"/>
    <path id="Path_4936" data-name="Path 4936" d="M337.32,280.168h.338a.323.323,0,1,0,0-.646h-.013v-.877h.891a.311.311,0,0,0,.307.218.324.324,0,0,0,.325-.322v-.217a.327.327,0,0,0-.326-.324H337.32a.322.322,0,0,0-.321.324v1.521a.321.321,0,0,0,.321.323Z" transform="translate(-312.868 -240.723)" fill="#556ce7"/>
    <path id="Path_4937" data-name="Path 4937" d="M337.323,344.168h1.522a.323.323,0,0,0,.323-.323v-1.522a.323.323,0,0,0-.323-.323h-1.522a.323.323,0,0,0-.323.323v1.522A.323.323,0,0,0,337.323,344.168Zm.323-1.522h.877v.877h-.877Z" transform="translate(-312.868 -301.771)" fill="#556ce7"/>
    <path id="Path_4938" data-name="Path 4938" d="M337.658,407.522h-.013v-.877h.873a.325.325,0,1,0,.649,0v-.311a.337.337,0,0,0-.326-.335H337.32a.332.332,0,0,0-.321.335v1.521a.311.311,0,0,0,.321.312h.338a.323.323,0,1,0,0-.646Z" transform="translate(-312.867 -362.818)" fill="#556ce7"/>
    <path id="Path_4939" data-name="Path 4939" d="M356.139,284.633l-.946.946-.288-.288a.323.323,0,1,0-.457.457l.516.516a.323.323,0,0,0,.457,0l1.174-1.174a.323.323,0,1,0-.457-.457Z" transform="translate(-329.422 -246.96)" fill="#556ce7"/>
    <path id="Path_4940" data-name="Path 4940" d="M356.139,413.882l-.946.946-.288-.288a.323.323,0,0,0-.457.457l.516.516a.323.323,0,0,0,.457,0l1.174-1.174a.323.323,0,1,0-.457-.457Z" transform="translate(-329.422 -370.246)" fill="#556ce7"/>
    <path id="Path_4941" data-name="Path 4941" d="M416.242,295h-2.028a.323.323,0,1,0,0,.646h2.028a.323.323,0,0,0,0-.646Z" transform="translate(-386.211 -256.939)" fill="#556ce7"/>
    <path id="Path_4942" data-name="Path 4942" d="M416.242,359h-2.028a.323.323,0,1,0,0,.646h2.028a.323.323,0,0,0,0-.646Z" transform="translate(-386.211 -317.986)" fill="#556ce7"/>
    <path id="Path_4943" data-name="Path 4943" d="M416.242,423h-2.028a.323.323,0,1,0,0,.646h2.028a.323.323,0,0,0,0-.646Z" transform="translate(-386.211 -379.034)" fill="#556ce7"/>
  </g>
</svg>
