<?xml version="1.0" encoding="UTF-8"?>
<svg width="20px" height="20px" viewBox="0 0 20 20" version="1.1" xmlns="http://www.w3.org/2000/svg">
    <!-- Generator: sketchtool 53.2 (72643) - https://sketchapp.com -->
    <title>FD10C9C2-6BBB-4EB4-933A-3C1240208E77</title>
    <desc>Created with sketchtool.</desc>
    <g id="Bank-Transfer" stroke="none" stroke-width="1" fill="none" fill-rule="evenodd">
        <g id="Setting-SelfDelivery-BankTransfer-1" transform="translate(-922.000000, -1830.000000)" fill="#9EA0A5" fill-rule="nonzero">
            <g id="Group-3" transform="translate(922.000000, 1830.000000)">
                <g id="icon-success-inactive">
                    <path d="M9.94678571,0 C4.46214286,0 0,4.46214286 0,9.94678571 C0,15.4314286 4.46214286,19.8935714 9.94678571,19.8935714 C15.4314286,19.8935714 19.8935714,15.4314286 19.8935714,9.94678571 C19.8932143,4.46214286 15.4314286,0 9.94678571,0 Z M9.94678571,18.2903571 C5.34607143,18.2903571 1.60321429,14.5475 1.60321429,9.94642857 C1.60321429,5.34571429 5.34607143,1.60285714 9.94678571,1.60285714 C14.5475,1.60285714 18.2903571,5.34607143 18.2903571,9.94678571 C18.2903571,14.5475 14.5475,18.2903571 9.94678571,18.2903571 Z" id="Shape"></path>
                    <path d="M13.1175,6.775 L8.47464286,11.4182143 L6.77571429,9.71928571 C6.46285714,9.40607143 5.95535714,9.40607143 5.6425,9.71928571 C5.32928571,10.0321429 5.32928571,10.5396429 5.6425,10.8525 L7.90821429,13.1182143 C8.06464286,13.2746429 8.27,13.3532143 8.475,13.3532143 C8.68,13.3532143 8.885,13.275 9.04142857,13.1182143 L14.2510714,7.90857143 C14.5639286,7.59535714 14.5639286,7.08821429 14.2510714,6.775 C13.9378571,6.46214286 13.4307143,6.46214286 13.1175,6.775 Z" id="Path"></path>
                </g>
            </g>
        </g>
    </g>
</svg>
