<?xml version="1.0" encoding="UTF-8"?>
<svg width="22px" height="16px" viewBox="0 0 22 16" version="1.1" xmlns="http://www.w3.org/2000/svg">
    <!-- Generator: sketchtool 53.2 (72643) - https://sketchapp.com -->
    <title>E9592C1A-EB48-4DA3-9D4C-08D22F621943</title>
    <desc>Created with sketchtool.</desc>
    <g id="Bank-Transfer" stroke="none" stroke-width="1" fill="none" fill-rule="evenodd" opacity="0.7">
        <g id="Setting-SelfDelivery-BankTransfer-1" transform="translate(-617.000000, -1648.000000)" fill="#9EA0A5">
            <g id="icon-credit-card" transform="translate(617.000000, 1648.000000)">
                <path d="M19.3018868,0 L2.69811321,0 C1.21,0 0,1.31492958 0,2.92957746 L0,13.0704225 C0,14.6861972 1.21,16 2.69811321,16 L19.3018868,16 C20.79,16 22,14.6850704 22,13.0704225 L22,2.92957746 C22,1.31380282 20.79,0 19.3018868,0 Z M20.754717,13.0704225 C20.754717,13.9402817 20.1019811,14.6478873 19.3018868,14.6478873 L2.69811321,14.6478873 C1.89801887,14.6478873 1.24528302,13.9402817 1.24528302,13.0704225 L1.24528302,2.92957746 C1.24528302,2.05971831 1.89801887,1.35211268 2.69811321,1.35211268 L19.3018868,1.35211268 C20.1019811,1.35211268 20.754717,2.05971831 20.754717,2.92957746 L20.754717,13.0704225 Z M12.5576415,3.94366197 C12.0200943,3.94366197 11.4887736,4.07887324 10.9958491,4.32225352 C10.5216038,4.08450704 9.99858491,3.94366197 9.44235849,3.94366197 C7.38245283,3.94366197 5.70650943,5.76338028 5.70650943,8 C5.70650943,10.2366197 7.38141509,12.056338 9.44235849,12.056338 C9.99858491,12.056338 10.5216038,11.915493 10.9958491,11.6777465 C11.4877358,11.9222535 12.0200943,12.056338 12.5576415,12.056338 C14.6175472,12.056338 16.2934906,10.2366197 16.2934906,8 C16.2934906,5.76338028 14.6175472,3.94366197 12.5576415,3.94366197 Z M9.44235849,10.7042254 C8.06943396,10.7042254 6.95179245,9.49070423 6.95179245,8 C6.95179245,6.50929577 8.06943396,5.29577465 9.44235849,5.29577465 C10.815283,5.29577465 11.9329245,6.50929577 11.9329245,8 C11.9329245,9.49070423 10.815283,10.7042254 9.44235849,10.7042254 Z M12.5576415,10.7042254 C12.4507547,10.7042254 12.3469811,10.6738028 12.2411321,10.6591549 C12.8170755,9.94478873 13.1782075,9.02197183 13.1782075,8 C13.1782075,6.97802817 12.8170755,6.05521127 12.2411321,5.34084507 C12.3469811,5.32619718 12.4507547,5.29577465 12.5576415,5.29577465 C13.930566,5.29577465 15.0482075,6.50929577 15.0482075,8 C15.0482075,9.49070423 13.930566,10.7042254 12.5576415,10.7042254 Z" id="Shape" fill-rule="nonzero"></path>
                <ellipse id="Oval" cx="9.53333333" cy="8" rx="2.93333333" ry="2.90909091"></ellipse>
            </g>
        </g>
    </g>
</svg>
