<?xml version="1.0" encoding="UTF-8"?>
<svg width="21px" height="24px" viewBox="0 0 21 24" version="1.1" xmlns="http://www.w3.org/2000/svg">
    <!-- Generator: sketchtool 53.2 (72643) - https://sketchapp.com -->
    <title>EA6557E3-733D-4A72-835C-CD192B92CF60</title>
    <desc>Created with sketchtool.</desc>
    <g id="Bank-Transfer" stroke="none" stroke-width="1" fill="none" fill-rule="evenodd" opacity="0.7">
        <g id="Setting-SelfDelivery-BankTransfer-1" transform="translate(-618.000000, -1808.000000)" fill="#9EA0A5" fill-rule="nonzero">
            <g id="icon-bank-transfer" transform="translate(618.000000, 1808.000000)">
                <path d="M5.35096154,9.53043478 C5.53269231,9.53043478 5.65384615,9.3773913 5.65384615,9.14782609 L5.65384615,8.3826087 C5.65384615,8.15304348 5.53269231,8 5.35096154,8 L3.53365385,8 C3.35192308,8 3.23076923,8.15304348 3.23076923,8.3826087 L3.23076923,9.14782609 C3.23076923,9.3773913 3.35192308,9.53043478 3.53365385,9.53043478 L3.83653846,9.53043478 L3.83653846,15.2695652 L3.53365385,15.2695652 C3.35192308,15.2695652 3.23076923,15.4226087 3.23076923,15.6521739 L3.23076923,16.4173913 C3.23076923,16.6469565 3.35192308,16.8 3.53365385,16.8 L5.35096154,16.8 C5.53269231,16.8 5.65384615,16.6469565 5.65384615,16.4173913 L5.65384615,15.6521739 C5.65384615,15.4226087 5.53269231,15.2695652 5.35096154,15.2695652 L5.04807692,15.2695652 L5.04807692,9.53043478 L5.35096154,9.53043478 Z" id="Path"></path>
                <path d="M17.4663462,9.53043478 C17.6480769,9.53043478 17.7692308,9.3773913 17.7692308,9.14782609 L17.7692308,8.3826087 C17.7692308,8.15304348 17.6480769,8 17.4663462,8 L15.6490385,8 C15.4673077,8 15.3461538,8.15304348 15.3461538,8.3826087 L15.3461538,9.14782609 C15.3461538,9.3773913 15.4673077,9.53043478 15.6490385,9.53043478 L15.9519231,9.53043478 L15.9519231,15.2695652 L15.6490385,15.2695652 C15.4673077,15.2695652 15.3461538,15.4226087 15.3461538,15.6521739 L15.3461538,16.4173913 C15.3461538,16.6469565 15.4673077,16.8 15.6490385,16.8 L17.4663462,16.8 C17.6480769,16.8 17.7692308,16.6469565 17.7692308,16.4173913 L17.7692308,15.6521739 C17.7692308,15.4226087 17.6480769,15.2695652 17.4663462,15.2695652 L17.1634615,15.2695652 L17.1634615,9.53043478 L17.4663462,9.53043478 Z" id="Path"></path>
                <path d="M10.5,0 L0,5.68421053 L0,7.2 L21,7.2 L21,5.68421053 L10.5,0 Z M10.5,4.92631579 C9.675,4.92631579 9,4.24421053 9,3.41052632 C9,2.57684211 9.675,1.89473684 10.5,1.89473684 C11.325,1.89473684 12,2.57684211 12,3.41052632 C12,4.24421053 11.325,4.92631579 10.5,4.92631579 Z" id="Shape"></path>
                <path d="M5.61346154,19.2 L0,19.2 L0,20.8 L6.46153846,20.8 C6.09807692,20.32 5.81538462,19.76 5.61346154,19.2 Z" id="Path"></path>
                <path d="M15.3865385,19.2 C15.1846154,19.76 14.9019231,20.32 14.5384615,20.8 L21,20.8 L21,19.2 L15.3865385,19.2 Z" id="Path"></path>
                <path d="M4.72852875,17.2 C4.72852875,17.08 4.72852875,16.92 4.76773712,16.8 L0.807692308,16.8 L0.807692308,18.4 L4.84615385,18.4 C4.76773712,18 4.72852875,17.6 4.72852875,17.2 Z" id="Path"></path>
                <path d="M16.2322629,16.8 C16.2322629,16.92 16.2714712,17.08 16.2714712,17.2 C16.2714712,17.6 16.2322629,18 16.1538462,18.4 L20.1923077,18.4 L20.1923077,16.8 L16.2322629,16.8 Z" id="Path"></path>
                <path d="M13.4278846,8 L11.6105769,8 C11.4288462,8 11.3076923,8.16842105 11.3076923,8.42105263 L11.3076923,9.26315789 C11.3076923,9.51578947 11.4288462,9.68421053 11.6105769,9.68421053 L11.9134615,9.68421053 L11.9134615,12.8842105 C12.3375,13.0526316 12.7615385,13.3052632 13.125,13.6 L13.125,9.68421053 L13.4278846,9.68421053 C13.6096154,9.68421053 13.7307692,9.51578947 13.7307692,9.26315789 L13.7307692,8.42105263 C13.7307692,8.16842105 13.6096154,8 13.4278846,8 Z" id="Path"></path>
                <path d="M9.38942308,8 L7.57211538,8 C7.39038462,8 7.26923077,8.16842105 7.26923077,8.42105263 L7.26923077,9.26315789 C7.26923077,9.51578947 7.39038462,9.68421053 7.57211538,9.68421053 L7.875,9.68421053 L7.875,13.6 C8.23846154,13.3052632 8.6625,13.0526316 9.08653846,12.8842105 L9.08653846,9.68421053 L9.38942308,9.68421053 C9.57115385,9.68421053 9.69230769,9.51578947 9.69230769,9.26315789 L9.69230769,8.42105263 C9.69230769,8.16842105 9.57115385,8 9.38942308,8 Z" id="Path"></path>
                <path d="M10.2980769,12 C7.05488166,12 4.44230769,14.5876923 4.44230769,17.8 C4.44230769,21.0123077 7.05488166,23.6 10.2980769,23.6 C13.5412722,23.6 16.1538462,21.0123077 16.1538462,17.8 C16.1538462,14.5876923 13.5412722,12 10.2980769,12 Z M10.2980769,22.7714286 C7.51468531,22.7714286 5.27884615,20.5568831 5.27884615,17.8 C5.27884615,15.0431169 7.51468531,12.8285714 10.2980769,12.8285714 C13.0814685,12.8285714 15.3173077,15.0431169 15.3173077,17.8 C15.3173077,20.5568831 13.0814685,22.7714286 10.2980769,22.7714286 Z" id="Shape"></path>
                <polygon id="Path" points="13.7307692 15.6 11.2400086 14.4 11.2400086 15.3 7.26923077 15.3 7.26923077 15.9 11.2400086 15.9 11.2400086 16.8"></polygon>
                <polygon id="Path" points="13.7307692 19.3 9.75999141 19.3 9.75999141 18.4 7.26923077 19.6 9.75999141 20.8 9.75999141 19.9 13.7307692 19.9"></polygon>
            </g>
        </g>
    </g>
</svg>
