<?xml version="1.0" encoding="UTF-8"?>
<svg width="22px" height="17px" viewBox="0 0 22 17" version="1.1" xmlns="http://www.w3.org/2000/svg">
    <!-- Generator: sketchtool 53.2 (72643) - https://sketchapp.com -->
    <title>CEA5FAF2-00FB-4511-BA7B-5335647C99D9</title>
    <desc>Created with sketchtool.</desc>
    <g id="Bank-Transfer" stroke="none" stroke-width="1" fill="none" fill-rule="evenodd" opacity="0.7">
        <g id="Setting-SelfDelivery-BankTransfer-1" transform="translate(-617.000000, -1566.000000)" fill="#9EA0A5" fill-rule="nonzero">
            <g id="icon-local-ATM" transform="translate(617.000000, 1566.000000)">
                <path d="M2.12571429,17 L19.8171429,17 C21.0057143,17 21.92,16.0042857 21.92,14.7657143 L21.92,2.23428571 C21.92,0.971428571 20.9828571,0 19.8171429,0 L2.12571429,0 C0.937142857,0 0.0228571429,0.995714286 0.0228571429,2.23428571 L0.0228571429,14.7657143 C0.0228571429,16.0042857 0.96,17 2.12571429,17 Z M19.8171429,16.1014286 L2.12571429,16.1014286 C1.41714286,16.1014286 0.868571429,15.5185714 0.868571429,14.7657143 L0.868571429,7.60142857 L21.0742857,7.60142857 L21.0742857,14.7657143 C21.0742857,15.5185714 20.5257143,16.1014286 19.8171429,16.1014286 Z M2.12571429,0.898571429 L19.8171429,0.898571429 C20.5257143,0.898571429 21.0742857,1.48142857 21.0742857,2.23428571 L21.0742857,4.03142857 L0.868571429,4.03142857 L0.868571429,2.23428571 C0.868571429,1.48142857 1.41714286,0.898571429 2.12571429,0.898571429 Z" id="Shape"></path>
                <rect id="Rectangle" x="2.74285714" y="10.4428571" width="6.85714286" height="1"></rect>
            </g>
        </g>
    </g>
</svg>
