<?xml version="1.0" encoding="UTF-8"?>
<svg width="22px" height="17px" viewBox="0 0 22 17" version="1.1" xmlns="http://www.w3.org/2000/svg" xmlns:xlink="http://www.w3.org/1999/xlink">
    <!-- Generator: sketchtool 53.2 (72643) - https://sketchapp.com -->
    <title>B80ACF65-30D9-4376-9A5E-0B025A2BDBAB</title>
    <desc>Created with sketchtool.</desc>
    <defs>
        <polygon id="path-1" points="0.183333333 0.615714815 19.9833333 0.615714815 19.9833333 14.7823815 0.183333333 14.7823815"></polygon>
    </defs>
    <g id="Bank-Transfer" stroke="none" stroke-width="1" fill="none" fill-rule="evenodd" opacity="0.7">
        <g id="Setting-SelfDelivery-BankTransfer-1" transform="translate(-617.000000, -1730.000000)">
            <g id="icon-COD" transform="translate(617.000000, 1730.000000)">
                <path d="M20.5128489,16.2495444 C20.5128489,15.9589704 20.2928489,15.7212852 20.02396,15.7212852 L1.30953778,15.7212852 C1.04064889,15.7212852 0.820648889,15.4379519 0.820648889,15.0916556 L0.820648889,3.56471111 C0.820648889,3.21841481 0.636093333,2.93508148 0.410226667,2.93508148 C0.184604444,2.93508148 4.88888889e-05,3.21841481 4.88888889e-05,3.56471111 L4.88888889e-05,15.0913407 L4.88888889e-05,16.2495444 C4.88888889e-05,16.5401185 0.184604444,16.7778037 0.410226667,16.7778037 L1.30953778,16.7778037 L20.02396,16.7778037 C20.2928489,16.7778037 20.5128489,16.5401185 20.5128489,16.2495444" id="Fill-1" fill="#9EA0A5"></path>
                <path d="M15.5054289,7.62547593 C15.5054289,9.45958704 14.7464289,11.0566426 13.6197844,11.9182907 L18.10974,11.9182907 C18.10974,11.1252722 18.60914,10.4824204 19.2246511,10.4824204 L19.2246511,4.76853148 C18.60914,4.76853148 18.10974,4.12536481 18.10974,3.3323463 L13.6197844,3.3323463 C14.7464289,4.19399444 15.5054289,5.79167963 15.5054289,7.62547593" id="Fill-3" fill="#9EA0A5"></path>
                <path d="M12.2224911,8.88152407 L12.2224911,9.02035741 C12.2224911,9.44378333 12.0455133,9.70602407 11.7101356,9.70602407 C11.40458,9.70602407 11.1972911,9.4132463 11.1972911,9.02035741 L11.1972911,8.76756111 C11.1972911,8.65202407 11.1180911,8.55159815 11.0203133,8.55159815 L10.6296911,8.55159815 C10.5319133,8.55159815 10.4527133,8.65202407 10.4527133,8.76756111 L10.4527133,9.02035741 C10.4527133,9.85241296 10.8313578,10.3457278 11.3806244,10.4842463 L11.3806244,10.95395 C11.3806244,11.0776722 11.4537133,11.169913 11.5451356,11.169913 L11.89298,11.169913 C11.9846467,11.169913 12.0574911,11.0776722 12.0574911,10.95395 L12.0574911,10.4763759 C12.6131133,10.3378574 12.9790467,9.83698704 12.9790467,9.02067222 C12.9790467,8.3041537 12.8998467,7.98020926 12.4361356,7.6027463 L11.6424244,6.95580185 C11.3376022,6.70930185 11.2092689,6.60132037 11.2092689,6.29311667 L11.2092689,6.21598704 C11.2092689,5.7922463 11.3864911,5.53032037 11.7218689,5.53032037 C12.0574911,5.53032037 12.2347133,5.82309815 12.2347133,6.21598704 L12.2347133,6.29941296 C12.2347133,6.41495 12.3139133,6.51506111 12.4114467,6.51506111 L12.8018244,6.51506111 C12.8998467,6.51506111 12.9790467,6.41495 12.9790467,6.29941296 L12.9790467,6.21598704 C12.9790467,5.38361667 12.6004022,4.89817222 12.0574911,4.75996852 L12.0574911,4.29750556 C12.0574911,4.17409815 11.9844022,4.08154259 11.89298,4.08154259 L11.5451356,4.08154259 C11.4534689,4.08154259 11.3806244,4.17409815 11.3806244,4.29750556 L11.3806244,4.75996852 C10.8066689,4.90572778 10.4527133,5.44500556 10.4527133,6.26163519 C10.4527133,6.70080185 10.5382689,7.17806111 10.9103133,7.48689444 L11.78298,8.20341296 C12.0394022,8.41906111 12.2224911,8.52704259 12.2224911,8.88152407" id="Fill-5" fill="#9EA0A5"></path>
                <path d="M4.20715778,4.7685 L4.20715778,10.4823889 C4.82291333,10.4823889 5.32231333,11.1252407 5.32231333,11.9182593 L9.81202444,11.9182593 C8.68562444,11.0569259 7.92638,9.45924074 7.92638,7.62544444 C7.92638,5.79164815 8.68562444,4.19396296 9.81202444,3.33262963 L5.32231333,3.33262963 C5.32231333,4.12564815 4.82291333,4.7685 4.20715778,4.7685" id="Fill-7" fill="#9EA0A5"></path>
                <g id="Group-11" transform="translate(1.466667, 0.092619)">
                    <mask id="mask-2" fill="white">
                        <use xlink:href="#path-1"></use>
                    </mask>
                    <g id="Clip-10"></g>
                    <path d="M1.01022337,1.53079534 C0.945017182,1.53079534 0.89209622,1.59912135 0.89209622,1.68330876 L0.89209622,13.7147875 C0.89209622,13.7989749 0.945017182,13.867301 1.01022337,13.867301 L19.1564433,13.867301 C19.2214132,13.867301 19.2745704,13.7989749 19.2745704,13.7147875 L19.2745704,1.68330876 C19.2745704,1.59912135 19.2214132,1.53079534 19.1564433,1.53079534 L1.01022337,1.53079534 Z M19.1564433,14.7823815 L1.01022337,14.7823815 C0.554252577,14.7823815 0.183333333,14.3034893 0.183333333,13.7147875 L0.183333333,1.68330876 C0.183333333,1.09460696 0.554252577,0.615714815 1.01022337,0.615714815 L19.1564433,0.615714815 C19.6121778,0.615714815 19.9833333,1.09460696 19.9833333,1.68330876 L19.9833333,13.7147875 C19.9833333,14.3034893 19.6121778,14.7823815 19.1564433,14.7823815 L19.1564433,14.7823815 Z" id="Fill-9" fill="#9EA0A5" mask="url(#mask-2)"></path>
                </g>
            </g>
        </g>
    </g>
</svg>