<svg width="105" height="26" viewBox="0 0 105 26" fill="none" xmlns="http://www.w3.org/2000/svg">
<path fill-rule="evenodd" clip-rule="evenodd" d="M81.2776 11.4539C80.963 13.5515 79.3851 13.5515 77.8588 13.5515H76.9904L77.5996 9.63522C77.6364 9.3986 77.8373 9.22421 78.0735 9.22421H78.4716C79.5103 9.22421 80.4917 9.22421 80.9977 9.8251C81.3004 10.1846 81.3919 10.7175 81.2776 11.4539ZM80.6133 5.98157H74.8573C74.4638 5.98157 74.1288 6.27229 74.0675 6.66702L71.7402 21.6506C71.6941 21.9461 71.9192 22.2134 72.2141 22.2134H75.1672C75.4427 22.2134 75.6773 22.0099 75.72 21.7336L76.3802 17.4859C76.4415 17.0912 76.7765 16.8005 77.1699 16.8005H78.9913C82.7826 16.8005 84.9706 14.9376 85.5425 11.2459C85.7999 9.63128 85.5529 8.36254 84.8081 7.47433C83.9896 6.49789 82.5389 5.98157 80.6133 5.98157Z" fill="#2790C3"/>
<path fill-rule="evenodd" clip-rule="evenodd" d="M40.2252 11.4539C39.9106 13.5515 38.3326 13.5515 36.8066 13.5515H35.9382L36.5472 9.63522C36.5842 9.3986 36.7852 9.22421 37.0211 9.22421H37.4192C38.4581 9.22421 39.4395 9.22421 39.9453 9.8251C40.2482 10.1846 40.3398 10.7175 40.2252 11.4539ZM39.5611 5.98157H33.8051C33.4117 5.98157 33.0767 6.27229 33.0154 6.66702L30.6877 21.6506C30.6419 21.9461 30.867 22.2134 31.1616 22.2134H33.9099C34.3034 22.2134 34.6386 21.9227 34.6999 21.5283L35.328 17.4859C35.3891 17.0912 35.7243 16.8005 36.1178 16.8005H37.9392C41.7302 16.8005 43.9184 14.9376 44.4904 11.2459C44.7477 9.63128 44.5007 8.36254 43.7559 7.47433C42.9372 6.49789 41.4865 5.98157 39.5611 5.98157Z" fill="#27346A"/>
<path fill-rule="evenodd" clip-rule="evenodd" d="M52.9235 16.833C52.6573 18.4319 51.4071 19.5053 49.8125 19.5053C49.0132 19.5053 48.3732 19.2442 47.9619 18.7499C47.5542 18.2599 47.4008 17.5618 47.5299 16.7844C47.7782 15.2 49.0484 14.092 50.6186 14.092C51.4014 14.092 52.0367 14.3557 52.4563 14.8544C52.8785 15.3568 53.0443 16.0596 52.9235 16.833ZM56.7644 11.3869H54.0084C53.7722 11.3869 53.5712 11.5611 53.5345 11.7982L53.4132 12.5806L53.2204 12.2969C52.6236 11.4174 51.2935 11.1235 49.9651 11.1235C46.9202 11.1235 44.3191 13.4662 43.8129 16.7519C43.5493 18.3909 43.9233 19.9572 44.8388 21.0505C45.6798 22.0551 46.8801 22.4732 48.3101 22.4732C50.7645 22.4732 52.1257 20.8725 52.1257 20.8725L52.0025 21.6501C51.9565 21.9458 52.1816 22.2135 52.4765 22.2135H54.9585C55.352 22.2135 55.687 21.923 55.7483 21.5283L57.2383 11.9498C57.2844 11.654 57.0593 11.3869 56.7644 11.3869Z" fill="#27346A"/>
<path fill-rule="evenodd" clip-rule="evenodd" d="M93.9756 16.833C93.7094 18.4319 92.4595 19.5053 90.865 19.5053C90.0654 19.5053 89.4256 19.2442 89.0141 18.7499C88.6064 18.2599 88.453 17.5618 88.5823 16.7844C88.8304 15.2 90.1005 14.092 91.671 14.092C92.4535 14.092 93.0891 14.3557 93.5084 14.8544C93.9306 15.3568 94.0964 16.0596 93.9756 16.833ZM97.8166 11.3869H95.0606C94.8244 11.3869 94.6234 11.5611 94.5866 11.7982L94.4653 12.5806L94.2729 12.2969C93.6758 11.4174 92.3457 11.1235 91.0173 11.1235C87.9726 11.1235 85.3713 13.4662 84.865 16.7519C84.6017 18.3909 84.9757 19.9572 85.891 21.0505C86.7322 22.0551 87.9323 22.4732 89.3623 22.4732C91.8167 22.4732 93.1779 20.8725 93.1779 20.8725L93.055 21.6501C93.0087 21.9458 93.2337 22.2135 93.5289 22.2135H96.0107C96.4042 22.2135 96.7392 21.923 96.8007 21.5283L98.2905 11.9498C98.3365 11.654 98.1115 11.3869 97.8166 11.3869Z" fill="#2790C3"/>
<mask id="mask0_5019_15801" style="mask-type:alpha" maskUnits="userSpaceOnUse" x="0" y="0" width="105" height="26">
<path d="M0.0155182 26H104.678V0.215576H0.0155182V26Z" fill="white"/>
</mask>
<g mask="url(#mask0_5019_15801)">
<path fill-rule="evenodd" clip-rule="evenodd" d="M71.4435 11.387H68.6732C68.4083 11.387 68.1605 11.5204 68.0117 11.7428L64.1905 17.4568L62.5708 11.9661C62.4697 11.6225 62.1582 11.387 61.8049 11.387H59.0817C58.7529 11.387 58.5214 11.7152 58.6275 12.0312L61.6779 21.1212L58.8088 25.2313C58.5835 25.5538 58.8109 26 59.2002 26H61.9678C62.2302 26 62.4756 25.8695 62.6252 25.6505L71.8379 12.1517C72.0583 11.8287 71.8307 11.387 71.4435 11.387Z" fill="#27346A"/>
<path fill-rule="evenodd" clip-rule="evenodd" d="M101.065 6.3931L98.7028 21.6506C98.6571 21.9464 98.8821 22.2134 99.1768 22.2134H101.553C101.946 22.2134 102.281 21.9227 102.343 21.5283L104.672 6.54464C104.718 6.24892 104.493 5.98157 104.198 5.98157H101.539C101.303 5.98157 101.102 6.15621 101.065 6.3931Z" fill="#2790C3"/>
<path fill-rule="evenodd" clip-rule="evenodd" d="M10.9041 24.9377L11.6778 19.9567L11.7277 19.6807C11.765 19.4406 11.886 19.2211 12.0684 19.063C12.2508 18.9049 12.4833 18.8177 12.7231 18.8177H13.3375C14.3616 18.8177 15.3025 18.7066 16.1341 18.4876C17.0214 18.2541 17.8107 17.8904 18.4796 17.4074C19.1889 16.8953 19.7847 16.2332 20.2506 15.4401C20.7421 14.6033 21.103 13.5959 21.3233 12.4461C21.5181 11.4308 21.5546 10.5219 21.4323 9.74422C21.3027 8.92273 20.9909 8.22178 20.5059 7.66028C20.2118 7.32018 19.8354 7.02552 19.3874 6.78443L19.3767 6.77865L19.3765 6.76552C19.533 5.75204 19.527 4.90665 19.3586 4.17891C19.1895 3.4496 18.847 2.79329 18.3107 2.17297C17.1997 0.887678 15.1788 0.23584 12.3046 0.23584H4.41082C4.14696 0.23584 3.89087 0.331698 3.69013 0.50582C3.48939 0.679941 3.35642 0.92182 3.31503 1.18655L0.0281897 22.3471C-0.00181772 22.5402 0.0527647 22.7363 0.177968 22.8845C0.303171 23.0334 0.485285 23.1187 0.677746 23.1187H5.5749L5.5705 23.1424L5.23421 25.3075C5.20834 25.4758 5.25594 25.6465 5.36485 25.7757C5.47376 25.9052 5.63233 25.9798 5.79996 25.9798H9.90735C10.1378 25.9798 10.3611 25.896 10.5362 25.7439C10.7113 25.5919 10.8277 25.381 10.8637 25.1501L10.9041 24.9377Z" fill="#27346A"/>
<path fill-rule="evenodd" clip-rule="evenodd" d="M8.09009 6.79305C8.14209 6.45768 8.35395 6.18323 8.63928 6.0443C8.76914 5.98127 8.914 5.94608 9.06585 5.94608H15.2533C15.9864 5.94608 16.6699 5.99493 17.2949 6.09709C17.4734 6.12624 17.6469 6.15986 17.8158 6.19794C17.9848 6.23602 18.1485 6.2783 18.3071 6.32558C18.3865 6.34895 18.4644 6.37364 18.5412 6.39964C18.848 6.50311 19.1336 6.62497 19.3964 6.76626C19.7063 4.76059 19.3943 3.39572 18.3257 2.15954C17.1492 0.798606 15.0239 0.215576 12.3046 0.215576H4.41082C3.85517 0.215576 3.38204 0.626061 3.29538 1.18335L0.00853262 22.3439C-0.0563972 22.7615 0.261526 23.1389 0.677749 23.1389H5.55085L8.09009 6.79305Z" fill="#27346A"/>
</g>
<path fill-rule="evenodd" clip-rule="evenodd" d="M19.3964 6.76624C19.3729 6.91935 19.3467 7.07508 19.3157 7.23555C18.275 12.6617 14.7135 14.5376 10.1647 14.5376H7.84849C7.29283 14.5376 6.82358 14.9484 6.73692 15.5056L5.21456 25.3045C5.15791 25.6695 5.436 25.9999 5.79997 25.9999H9.90762C10.3937 25.9999 10.8076 25.6409 10.8834 25.1532L10.9237 24.9413L11.6975 19.9598L11.7474 19.6846C11.8232 19.1969 12.2371 18.8379 12.7231 18.8379H13.3375C17.3169 18.8379 20.4327 17.1964 21.3433 12.4497C21.7235 10.4664 21.5269 8.81078 20.5209 7.64682C20.2167 7.2949 19.838 7.00365 19.3964 6.76624Z" fill="#2790C3"/>
<path fill-rule="evenodd" clip-rule="evenodd" d="M18.3071 6.32554C18.1485 6.27827 17.9848 6.23598 17.8158 6.1979C17.6469 6.15982 17.4733 6.12621 17.2949 6.09706C16.6699 5.99489 15.9864 5.94604 15.2533 5.94604H9.06584C8.914 5.94604 8.76913 5.98124 8.63927 6.04427C8.35394 6.1832 8.14208 6.45764 8.09009 6.79301L6.77493 15.2585L6.73691 15.5056C6.82357 14.9483 7.29282 14.5376 7.84847 14.5376H10.1647C14.7134 14.5376 18.275 12.6617 19.3157 7.23554C19.3467 7.07508 19.3729 6.91934 19.3964 6.76623C19.1336 6.62493 18.848 6.50308 18.5412 6.3996C18.4644 6.3736 18.3865 6.34891 18.3071 6.32554Z" fill="#1F264F"/>
</svg>
