<?xml version="1.0" encoding="utf-8"?>
<!-- Generator: Adobe Illustrator 24.0.3, SVG Export Plug-In . SVG Version: 6.00 Build 0)  -->
<svg version="1.1" id="Layer_1" xmlns="http://www.w3.org/2000/svg" x="0px" y="0px"
     viewBox="0 0 30 30" style="enable-background:new 0 0 30 30;" xml:space="preserve">
<style type="text/css">
	.st0{fill:#201F57;stroke:#D3D3D3;stroke-miterlimit:10;}
	.st1{fill:#F8961D;}
	.st2{fill:url(#SVGID_1_);}
	.st3{fill:#F26A21;}
	.st4{fill:#FFFFFF;}
</style>
<circle class="st0" cx="15" cy="15" r="14.4"/>
<g>
	<circle class="st1" cx="10.9" cy="11" r="1.4"/>
	<g>
		<g>
			
				<linearGradient id="SVGID_1_" gradientUnits="userSpaceOnUse" x1="3.6679" y1="17.2722" x2="26.1501" y2="17.2722" gradientTransform="matrix(1 0 0 -1 0 32)">
				<stop  offset="0" style="stop-color:#F8961D"/>
				<stop  offset="0.2305" style="stop-color:#F7921E"/>
				<stop  offset="0.529" style="stop-color:#F6871F"/>
				<stop  offset="0.8635" style="stop-color:#F47421"/>
				<stop  offset="1" style="stop-color:#F26A21"/>
			</linearGradient>
			<path class="st2" d="M9.6,12.4c0,0,1.9,4.4,6.4,4.6c0,0,5.7,0.5,7.8-6.3c0,0,0.3-1.3,1.5-1c0,0,0.9,0.3,0.8,1.5
				c0,0-1.7,8.4-10,8.6c0,0-6.2,0.2-9.2-7.4H4.6c0,0-1-0.1-1-1.5c0,0,0-0.9,0.9-1.2h6.3c0,0,1,0.2,1.1,1.3s-0.6,1.4-0.9,1.4
				S9.6,12.4,9.6,12.4z"/>
			<circle class="st1" cx="13.4" cy="21.9" r="1.6"/>
			<circle class="st3" cx="19" cy="21.9" r="1.6"/>
		</g>
		<circle class="st1" cx="4.8" cy="11" r="1.4"/>
	</g>
	<path class="st4" d="M14,20.8c-0.1-0.1-0.3-0.1-0.5-0.1c-0.7,0-1.2,0.5-1.2,1.2V22c0-0.1,0-0.2,0-0.3c0-0.6,0.5-1.1,1.1-1.1
		C13.6,20.6,13.8,20.7,14,20.8z"/>
	<path class="st4" d="M19.6,20.8c-0.1-0.1-0.3-0.1-0.5-0.1c-0.7,0-1.2,0.5-1.2,1.2V22c0-0.1,0-0.2,0-0.3c0-0.6,0.5-1.1,1.1-1.1
		C19.2,20.6,19.4,20.7,19.6,20.8z"/>
	<path class="st4" d="M11.1,10.4c-0.1-0.1-0.3-0.2-0.5-0.2H5.2c-0.2,0-0.4,0.1-0.5,0.2c-0.1,0.1-0.2,0.3-0.2,0.5
		c0,0.1,0,0.3,0.1,0.4c-0.1-0.1-0.2-0.3-0.2-0.5s0.1-0.4,0.2-0.5s0.3-0.2,0.5-0.2h5.4C10.7,10.1,11,10.2,11.1,10.4z"/>
	<path class="st4" d="M16.7,19.3c-0.2,0-0.3,0-0.5,0c-3.2,0-5.9-1.8-7.3-4.4C10.5,17.4,13.4,19.2,16.7,19.3z"/>
</g>
</svg>
