<?xml version="1.0" encoding="UTF-8"?>
<svg width="30px" height="18px" viewBox="0 0 30 18" version="1.1" xmlns="http://www.w3.org/2000/svg">
    <!-- Generator: Sketch 53.2 (72643) - https://sketchapp.com -->
    <title>icon-self-delivery</title>
    <desc>Created with Sketch.</desc>
    <g id="Setting" stroke="none" stroke-width="1" fill="none" fill-rule="evenodd">
        <g id="Setting-SelfDelivery-BankTransfer-1" transform="translate(-613.000000, -1110.000000)" fill="#556CE7" fill-rule="nonzero">
            <g id="Group-35" transform="translate(613.000000, 1107.000000)">
                <g id="icon-self-delivery" transform="translate(0.000000, 3.000000)">
                    <path d="M11.1158824,12.2226863 C9.73112745,12.2226863 8.61205882,13.3457255 8.61205882,14.7305294 C8.61205882,16.1112157 9.73112745,17.2343529 11.1158824,17.2343529 C12.5006373,17.2343529 13.6197059,16.1112157 13.6197059,14.7305294 C13.6196569,13.3457255 12.5006373,12.2226863 11.1158824,12.2226863 Z M11.1158824,15.9824412 C10.4234804,15.9824412 9.86392157,15.4188137 9.86392157,14.7304314 C9.86392157,14.0381275 10.4234804,13.4785196 11.1158824,13.4785196 C11.8082353,13.4785196 12.3677941,14.0381275 12.3677941,14.7304314 C12.3677451,15.4188137 11.8082353,15.9824412 11.1158824,15.9824412 Z M30,10.3702843 L30,13.0438627 C30,13.7107745 29.4593627,14.2514608 28.7923529,14.2514608 L27.5001961,14.2514608 C27.2667157,12.6493039 25.8860294,11.4175392 24.2194608,11.4175392 C22.5570098,11.4175392 21.1762255,12.6493529 20.9427451,14.2514608 L14.3933824,14.2514608 C14.159902,12.6493039 12.7791667,11.4175392 11.1166667,11.4175392 C9.45416667,11.4175392 8.07343137,12.6493529 7.84,14.2514608 L6.22176471,14.2514608 C5.55480392,14.2514608 5.01416667,13.7108235 5.01416667,13.0438627 L5.01416667,10.3702843 L30,10.3702843 L30,10.3702843 Z M24.2226961,12.2226863 C22.8379412,12.2226863 21.7148529,13.3457255 21.7148529,14.7305294 C21.7148529,16.1112157 22.8379902,17.2343529 24.2226961,17.2343529 C25.6033824,17.2343529 26.7264706,16.1112157 26.7264706,14.7305294 C26.7264706,13.3457255 25.6033824,12.2226863 24.2226961,12.2226863 Z M24.2226961,15.9824412 C23.5302941,15.9824412 22.9707843,15.4188137 22.9707843,14.7304314 C22.9707843,14.0381275 23.5302941,13.4785196 24.2226961,13.4785196 C24.9110294,13.4785196 25.4746078,14.0381275 25.4746078,14.7304314 C25.4746078,15.4188137 24.9110294,15.9824412 24.2226961,15.9824412 Z M29.5241667,7.67793137 L24.7782353,2.9842549 C24.4763235,2.68636275 24.0697549,2.51729412 23.6470588,2.51729412 L21.2519608,2.51729412 L21.2519608,1.61959804 C21.2519608,0.951411765 20.712549,0.412 20.0443627,0.412 L6.22093137,0.412 C5.55671569,0.412 5.01333333,0.951460784 5.01333333,1.61959804 L5.01333333,1.80881373 L0.112745098,2.37361765 L8.79637255,3.50440196 L0,4.37822549 L8.76539216,5.62445098 L0,6.38445098 L5.01362745,7.33003922 L5.01328431,9.70273529 L29.9991667,9.70273529 L29.9991667,8.82111765 C29.9991667,8.39038235 29.8260784,7.97984314 29.5241667,7.67793137 Z M27.455098,7.83489216 L22.8621078,7.83489216 C22.757451,7.83489216 22.6728922,7.75038235 22.6728922,7.64572549 L22.6728922,4.09930392 C22.6728922,3.99464706 22.757451,3.91008824 22.8621078,3.91008824 L23.7356373,3.91008824 C23.7839216,3.91008824 23.8322549,3.93023529 23.8684804,3.96244118 L27.5839706,7.50886275 C27.7086765,7.62557843 27.6241176,7.83489216 27.455098,7.83489216 Z" id="Shape"></path>
                </g>
            </g>
        </g>
    </g>
</svg>
