<svg width="22" height="22" viewBox="0 0 22 22" fill="none" xmlns="http://www.w3.org/2000/svg">
<path fill-rule="evenodd" clip-rule="evenodd" d="M18.5725 8.66242L19.9763 8.90056C20.5737 9.00084 21.0082 9.51473 20.9999 10.1205V11.8795C20.9999 12.4853 20.5654 12.9992 19.9679 13.0994L18.5641 13.3334C18.4221 13.8013 18.2299 14.2567 18.0001 14.6954L18.8273 15.8569C19.1783 16.3499 19.1198 17.0226 18.6936 17.4487L17.4486 18.6938C17.2147 18.9277 16.9055 19.0572 16.5754 19.0572C16.3164 19.0572 16.0657 18.9779 15.8568 18.8274L14.6995 18.0002C14.265 18.23 13.8096 18.418 13.3375 18.5642L13.0994 19.968C12.9991 20.5655 12.4852 21 11.8794 21H10.1163C9.5105 21 8.99661 20.5655 8.89634 19.968L8.66237 18.5642C8.20698 18.4222 7.76411 18.2425 7.34214 18.0211L6.16813 18.8567C5.95924 19.0071 5.71274 19.0865 5.4537 19.0865C5.12364 19.0865 4.81448 18.957 4.58051 18.723L3.33548 17.478C2.90515 17.0518 2.85083 16.3792 3.20178 15.8862L4.02484 14.7414C3.79088 14.3069 3.59869 13.8515 3.45246 13.3835L2.03196 13.1412C1.43451 13.0409 1 12.5271 1 11.9212V10.1623C1 9.55651 1.43451 9.04261 2.03196 8.94234L3.41904 8.70838C3.56109 8.23626 3.74492 7.78087 3.97471 7.34218L3.13911 6.16816C2.78817 5.67516 2.84666 5.00251 3.27281 4.57635L4.52202 3.33131C4.75181 3.09735 5.06515 2.96783 5.39521 2.96783C5.65424 2.96783 5.90492 3.04721 6.11382 3.19762L7.26276 4.02486C7.69727 3.79089 8.15266 3.5987 8.62059 3.45248L8.86292 2.03196C8.96319 1.43451 9.47708 1 10.0829 1H11.8418C12.4476 1 12.9615 1.43451 13.0618 2.03196L13.2957 3.41905C13.7845 3.56528 14.2567 3.76165 14.7079 3.99979L15.8694 3.17255C16.0782 3.02214 16.3247 2.94276 16.5838 2.94276C16.9138 2.94276 17.223 3.07228 17.457 3.30625L18.702 4.55128C19.1323 4.97744 19.1866 5.65009 18.8357 6.1431L18.0085 7.3004C18.2383 7.73491 18.4263 8.19031 18.5725 8.66242ZM19.7883 11.9881C19.8426 11.9797 19.8802 11.9338 19.8802 11.8795H19.8844V10.1205C19.8844 10.0662 19.8468 10.0203 19.7925 10.0119L18.0377 9.71527C17.8205 9.68185 17.6408 9.51891 17.5865 9.30165C17.4277 8.68749 17.1854 8.09839 16.8595 7.55108C16.7467 7.35889 16.7551 7.11657 16.8846 6.93691L17.9165 5.48715C17.9458 5.4412 17.9416 5.3827 17.904 5.3451L16.659 4.10006C16.6297 4.07082 16.5963 4.06664 16.5796 4.06664C16.5587 4.06664 16.5378 4.07499 16.5169 4.08753L15.0755 5.12367C14.8917 5.25319 14.6536 5.26154 14.4614 5.14874C13.9015 4.81868 13.2999 4.57217 12.669 4.41341C12.4518 4.3591 12.2888 4.17944 12.2512 3.95801L11.9588 2.21579C11.9504 2.16148 11.9045 2.12388 11.8502 2.12388H10.0912C10.0369 2.12388 9.99096 2.16148 9.98261 2.21579L9.6818 3.98308C9.64419 4.20033 9.48125 4.37581 9.26818 4.4343C8.65402 4.59306 8.06493 4.84374 7.52179 5.16963C7.32961 5.28243 7.08728 5.27408 6.90345 5.14456L5.46206 4.11677C5.44535 4.10424 5.42446 4.09588 5.39939 4.09588C5.3785 4.09588 5.34925 4.10006 5.32001 4.12931L4.07498 5.37435C4.03737 5.41195 4.0332 5.47462 4.06244 5.5164L5.10275 6.97869C5.23227 7.15835 5.2448 7.39649 5.132 7.58868C4.8103 8.13599 4.57215 8.72927 4.41757 9.34343C4.36326 9.56069 4.1836 9.72363 3.96217 9.76123L2.21996 10.0537C2.16565 10.062 2.12805 10.108 2.12805 10.1623V11.9212C2.12805 11.9756 2.16565 12.0215 2.21996 12.0299L3.98724 12.3307C4.20449 12.3683 4.37997 12.5312 4.43846 12.7443C4.59722 13.3585 4.8479 13.9476 5.17378 14.4907C5.28658 14.6829 5.27823 14.9252 5.14871 15.109L4.12093 16.5504C4.09169 16.5964 4.09587 16.6549 4.13347 16.6925L5.3785 17.9375C5.40774 17.9668 5.44117 17.971 5.45788 17.971C5.47877 17.971 5.49966 17.9626 5.52055 17.9501L6.98283 16.9098C7.07893 16.8387 7.19591 16.8053 7.30872 16.8053C7.40481 16.8053 7.50508 16.8304 7.59282 16.8805C8.13177 17.1897 8.70833 17.4278 9.30578 17.5824C9.51886 17.6367 9.6818 17.8122 9.7194 18.0336L10.0119 19.7884C10.0202 19.8427 10.0662 19.8803 10.1205 19.8803H11.8794C11.9337 19.8803 11.9797 19.8427 11.988 19.7884L12.2847 18.0336C12.3181 17.8164 12.481 17.6367 12.6983 17.5824C13.3124 17.4236 13.9015 17.1813 14.4488 16.8554C14.641 16.7426 14.8834 16.751 15.063 16.8805L16.5128 17.9125C16.5295 17.925 16.5504 17.9334 16.5754 17.9334C16.5963 17.9334 16.6256 17.9292 16.6548 17.8999L17.8998 16.6549C17.9374 16.6173 17.9416 16.5546 17.9124 16.5128L16.8804 15.0589C16.7509 14.8751 16.7425 14.6369 16.8553 14.4447C17.1812 13.8974 17.4235 13.3083 17.5823 12.6942C17.6366 12.4811 17.8121 12.3182 18.0335 12.2806L19.7883 11.9881Z" fill="#556CE7"/>
<path d="M19.9763 8.90056L19.9679 8.94986L19.968 8.94987L19.9763 8.90056ZM18.5725 8.66242L18.5247 8.67721L18.5338 8.70657L18.5641 8.71171L18.5725 8.66242ZM20.9999 10.1205L20.9499 10.1198V10.1205H20.9999ZM19.9679 13.0994L19.9761 13.1488L19.9762 13.1487L19.9679 13.0994ZM18.5641 13.3334L18.5559 13.2841L18.5253 13.2892L18.5163 13.3189L18.5641 13.3334ZM18.0001 14.6954L17.9558 14.6722L17.9416 14.6994L17.9594 14.7244L18.0001 14.6954ZM18.8273 15.8569L18.8681 15.8279L18.8681 15.8279L18.8273 15.8569ZM18.6936 17.4487L18.729 17.4841L18.6936 17.4487ZM17.4486 18.6938L17.4133 18.6584L17.4486 18.6938ZM15.8568 18.8274L15.886 18.7869L15.8859 18.7868L15.8568 18.8274ZM14.6995 18.0002L14.7286 17.9595L14.7035 17.9416L14.6761 17.956L14.6995 18.0002ZM13.3375 18.5642L13.3227 18.5165L13.2934 18.5256L13.2882 18.5559L13.3375 18.5642ZM13.0994 19.968L13.0501 19.9597L13.0501 19.9598L13.0994 19.968ZM8.89634 19.968L8.84702 19.9763L8.84703 19.9763L8.89634 19.968ZM8.66237 18.5642L8.71169 18.556L8.70663 18.5257L8.67726 18.5165L8.66237 18.5642ZM7.34214 18.0211L7.36537 17.9768L7.33817 17.9626L7.31315 17.9804L7.34214 18.0211ZM6.16813 18.8567L6.13914 18.816L6.13892 18.8161L6.16813 18.8567ZM4.58051 18.723L4.54515 18.7584L4.58051 18.723ZM3.33548 17.478L3.37083 17.4426L3.37066 17.4424L3.33548 17.478ZM3.20178 15.8862L3.16119 15.857L3.16105 15.8572L3.20178 15.8862ZM4.02484 14.7414L4.06544 14.7706L4.08368 14.7452L4.06886 14.7177L4.02484 14.7414ZM3.45246 13.3835L3.50019 13.3686L3.49105 13.3394L3.46087 13.3343L3.45246 13.3835ZM2.03196 13.1412L2.04036 13.0919L2.04023 13.0919L2.03196 13.1412ZM2.03196 8.94234L2.04023 8.99165L2.04027 8.99165L2.03196 8.94234ZM3.41904 8.70838L3.42735 8.75768L3.45797 8.75252L3.46692 8.72278L3.41904 8.70838ZM3.97471 7.34218L4.019 7.36538L4.03324 7.33819L4.01544 7.31318L3.97471 7.34218ZM3.13911 6.16816L3.17985 6.13917L3.17985 6.13917L3.13911 6.16816ZM3.27281 4.57635L3.23751 4.54094L3.23745 4.541L3.27281 4.57635ZM4.52202 3.33131L4.55732 3.36673L4.55769 3.36635L4.52202 3.33131ZM6.11382 3.19762L6.14303 3.15704L6.11382 3.19762ZM7.26276 4.02486L7.23354 4.06544L7.25892 4.08371L7.28646 4.06888L7.26276 4.02486ZM8.62059 3.45248L8.63551 3.5002L8.66473 3.49107L8.66988 3.46088L8.62059 3.45248ZM8.86292 2.03196L8.9122 2.04037L8.91223 2.04024L8.86292 2.03196ZM13.0618 2.03196L13.0125 2.04024L13.0125 2.04028L13.0618 2.03196ZM13.2957 3.41905L13.2464 3.42737L13.2516 3.45804L13.2814 3.46695L13.2957 3.41905ZM14.7079 3.99979L14.6845 4.04401L14.7118 4.05839L14.7369 4.04052L14.7079 3.99979ZM15.8694 3.17255L15.8984 3.21328L15.8986 3.21313L15.8694 3.17255ZM17.457 3.30625L17.4216 3.3416V3.3416L17.457 3.30625ZM18.702 4.55128L18.6666 4.58664L18.6668 4.58681L18.702 4.55128ZM18.8357 6.1431L18.8764 6.17217L18.8764 6.17209L18.8357 6.1431ZM18.0085 7.3004L17.9678 7.27132L17.9498 7.29646L17.9643 7.32377L18.0085 7.3004ZM19.8802 11.8795V11.8295H19.8302V11.8795H19.8802ZM19.7883 11.9881L19.7807 11.9387L19.7801 11.9388L19.7883 11.9881ZM19.8844 11.8795V11.9295H19.9344V11.8795H19.8844ZM19.7925 10.0119L19.7841 10.0612L19.7848 10.0613L19.7925 10.0119ZM18.0377 9.71527L18.046 9.66597L18.0453 9.66585L18.0377 9.71527ZM17.5865 9.30165L17.635 9.28952L17.6349 9.28914L17.5865 9.30165ZM16.8595 7.55108L16.8164 7.57639L16.8166 7.57666L16.8595 7.55108ZM16.8846 6.93691L16.9252 6.96615L16.9253 6.96591L16.8846 6.93691ZM17.9165 5.48715L17.9573 5.51619L17.9587 5.514L17.9165 5.48715ZM17.904 5.3451L17.9394 5.30975L17.904 5.3451ZM16.659 4.10006L16.6236 4.13542V4.13542L16.659 4.10006ZM16.5169 4.08753L16.4911 4.04451L16.4877 4.04693L16.5169 4.08753ZM15.0755 5.12367L15.1043 5.16454L15.1047 5.16427L15.0755 5.12367ZM14.4614 5.14874L14.436 5.19181L14.4361 5.19186L14.4614 5.14874ZM12.669 4.41341L12.6812 4.36492L12.6812 4.3649L12.669 4.41341ZM12.2512 3.95801L12.2019 3.96629L12.2019 3.96638L12.2512 3.95801ZM11.9588 2.21579L11.9094 2.2234L11.9095 2.22407L11.9588 2.21579ZM9.98261 2.21579L10.0319 2.22418L10.032 2.22339L9.98261 2.21579ZM9.6818 3.98308L9.73106 3.99161L9.73109 3.99147L9.6818 3.98308ZM9.26818 4.4343L9.28069 4.48272L9.28141 4.48252L9.26818 4.4343ZM7.52179 5.16963L7.5471 5.21275L7.54752 5.2125L7.52179 5.16963ZM6.90345 5.14456L6.87442 5.18527L6.87466 5.18543L6.90345 5.14456ZM5.46206 4.11677L5.43205 4.15679L5.43303 4.15749L5.46206 4.11677ZM5.32001 4.12931L5.35536 4.16466V4.16466L5.32001 4.12931ZM4.07498 5.37435L4.03962 5.33899H4.03962L4.07498 5.37435ZM4.06244 5.5164L4.02148 5.54507L4.0217 5.54538L4.06244 5.5164ZM5.10275 6.97869L5.06201 7.00768L5.0622 7.00793L5.10275 6.97869ZM5.132 7.58868L5.17511 7.61401L5.17512 7.61399L5.132 7.58868ZM4.41757 9.34343L4.36908 9.33123L4.36906 9.3313L4.41757 9.34343ZM3.96217 9.76123L3.97045 9.81054L3.97054 9.81052L3.96217 9.76123ZM2.21996 10.0537L2.22757 10.1031L2.22824 10.103L2.21996 10.0537ZM2.21996 12.0299L2.22835 11.9806L2.22757 11.9805L2.21996 12.0299ZM3.98724 12.3307L3.99577 12.2814L3.99563 12.2814L3.98724 12.3307ZM4.43846 12.7443L4.48687 12.7318L4.48668 12.7311L4.43846 12.7443ZM5.17378 14.4907L5.2169 14.4654L5.21665 14.465L5.17378 14.4907ZM5.14871 15.109L5.18942 15.1381L5.18959 15.1378L5.14871 15.109ZM4.12093 16.5504L4.08017 16.5214L4.07875 16.5236L4.12093 16.5504ZM4.13347 16.6925L4.09811 16.7279L4.09811 16.7279L4.13347 16.6925ZM5.3785 17.9375L5.41386 17.9022H5.41385L5.3785 17.9375ZM5.52055 17.9501L5.54635 17.9931L5.54953 17.9908L5.52055 17.9501ZM6.98283 16.9098L7.01182 16.9505L7.01255 16.95L6.98283 16.9098ZM7.59282 16.8805L7.6177 16.8371L7.61762 16.8371L7.59282 16.8805ZM9.30578 17.5824L9.29325 17.6308L9.29343 17.6309L9.30578 17.5824ZM9.7194 18.0336L9.76872 18.0254L9.76869 18.0253L9.7194 18.0336ZM10.0119 19.7884L10.0613 19.7808L10.0612 19.7802L10.0119 19.7884ZM11.988 19.7884L11.9387 19.7801L11.9386 19.7808L11.988 19.7884ZM12.2847 18.0336L12.334 18.042L12.3341 18.0412L12.2847 18.0336ZM12.6983 17.5824L12.7104 17.6309L12.7108 17.6308L12.6983 17.5824ZM14.4488 16.8554L14.4235 16.8123L14.4233 16.8125L14.4488 16.8554ZM15.063 16.8805L15.0338 16.9211L15.034 16.9212L15.063 16.8805ZM16.5128 17.9125L16.5428 17.8725L16.5417 17.8717L16.5128 17.9125ZM16.6548 17.8999L16.6195 17.8646L16.6548 17.8999ZM17.8998 16.6549L17.9352 16.6903L17.9352 16.6903L17.8998 16.6549ZM17.9124 16.5128L17.9533 16.4842L17.9531 16.4839L17.9124 16.5128ZM16.8804 15.0589L16.8395 15.0877L16.8396 15.0879L16.8804 15.0589ZM16.8553 14.4447L16.8124 14.4192L16.8122 14.4194L16.8553 14.4447ZM17.5823 12.6942L17.6307 12.7067L17.6308 12.7065L17.5823 12.6942ZM18.0335 12.2806L18.0253 12.2312L18.0252 12.2313L18.0335 12.2806ZM19.9846 8.85127L18.5809 8.61312L18.5641 8.71171L19.9679 8.94986L19.9846 8.85127ZM21.0499 10.1212C21.0586 9.4904 20.606 8.95555 19.9846 8.85125L19.968 8.94987C20.5414 9.04612 20.9579 9.53906 20.9499 10.1198L21.0499 10.1212ZM21.0499 11.8795V10.1205H20.9499V11.8795H21.0499ZM19.9762 13.1487C20.5978 13.0444 21.0499 12.5097 21.0499 11.8795H20.9499C20.9499 12.4609 20.533 12.9539 19.9597 13.0501L19.9762 13.1487ZM18.5724 13.3827L19.9761 13.1488L19.9597 13.0501L18.5559 13.2841L18.5724 13.3827ZM18.0444 14.7186C18.2755 14.2775 18.4689 13.8192 18.612 13.3479L18.5163 13.3189C18.3753 13.7835 18.1843 14.236 17.9558 14.6722L18.0444 14.7186ZM18.8681 15.8279L18.0408 14.6664L17.9594 14.7244L18.7866 15.8859L18.8681 15.8279ZM18.729 17.4841C19.1723 17.0407 19.2332 16.3409 18.8681 15.8279L18.7866 15.8859C19.1233 16.3589 19.0673 17.0044 18.6583 17.4134L18.729 17.4841ZM17.484 18.7291L18.729 17.4841L18.6583 17.4134L17.4133 18.6584L17.484 18.7291ZM16.5754 19.1072C16.9189 19.1072 17.2408 18.9723 17.484 18.7291L17.4133 18.6584C17.1886 18.8831 16.8921 19.0072 16.5754 19.0072V19.1072ZM15.8276 18.868C16.0452 19.0247 16.3061 19.1072 16.5754 19.1072V19.0072C16.3266 19.0072 16.0862 18.931 15.886 18.7869L15.8276 18.868ZM14.6704 18.0409L15.8277 18.8681L15.8859 18.7868L14.7286 17.9595L14.6704 18.0409ZM13.3523 18.612C13.8273 18.4649 14.2856 18.2757 14.7229 18.0444L14.6761 17.956C14.2444 18.1843 13.7919 18.3711 13.3227 18.5165L13.3523 18.612ZM13.1487 19.9764L13.3868 18.5726L13.2882 18.5559L13.0501 19.9597L13.1487 19.9764ZM11.8794 21.05C12.5096 21.05 13.0444 20.5979 13.1487 19.9763L13.0501 19.9598C12.9538 20.5331 12.4608 20.95 11.8794 20.95V21.05ZM10.1163 21.05H11.8794V20.95H10.1163V21.05ZM8.84703 19.9763C8.95134 20.5979 9.4861 21.05 10.1163 21.05V20.95C9.5349 20.95 9.04188 20.5331 8.94565 19.9598L8.84703 19.9763ZM8.61305 18.5725L8.84702 19.9763L8.94566 19.9598L8.71169 18.556L8.61305 18.5725ZM7.31891 18.0654C7.74377 18.2883 8.18945 18.4691 8.64748 18.612L8.67726 18.5165C8.2245 18.3753 7.78446 18.1967 7.36537 17.9768L7.31891 18.0654ZM6.19713 18.8974L7.37113 18.0618L7.31315 17.9804L6.13914 18.816L6.19713 18.8974ZM5.4537 19.1365C5.72317 19.1365 5.9799 19.0538 6.19735 18.8973L6.13892 18.8161C5.93857 18.9604 5.7023 19.0365 5.4537 19.0365V19.1365ZM4.54515 18.7584C4.78838 19.0016 5.11021 19.1365 5.4537 19.1365V19.0365C5.13707 19.0365 4.84057 18.9124 4.61586 18.6876L4.54515 18.7584ZM3.30012 17.5133L4.54515 18.7584L4.61586 18.6876L3.37083 17.4426L3.30012 17.5133ZM3.16105 15.8572C2.79604 16.3699 2.85237 17.0699 3.3003 17.5135L3.37066 17.4424C2.95793 17.0337 2.90563 16.3884 3.24252 15.9151L3.16105 15.8572ZM3.98424 14.7122L3.16119 15.857L3.24238 15.9153L4.06544 14.7706L3.98424 14.7122ZM3.40474 13.3985C3.55193 13.8695 3.74536 14.3278 3.98082 14.7651L4.06886 14.7177C3.83639 14.2859 3.64545 13.8335 3.50019 13.3686L3.40474 13.3985ZM2.02355 13.1905L3.44405 13.4328L3.46087 13.3343L2.04036 13.0919L2.02355 13.1905ZM0.95 11.9212C0.95 12.5515 1.40213 13.0862 2.02368 13.1905L2.04023 13.0919C1.46689 12.9957 1.05 12.5027 1.05 11.9212H0.95ZM0.95 10.1623V11.9212H1.05V10.1623H0.95ZM2.02368 8.89303C1.40213 8.99735 0.95 9.53211 0.95 10.1623H1.05C1.05 9.58091 1.46689 9.08788 2.04023 8.99165L2.02368 8.89303ZM3.41072 8.65907L2.02364 8.89304L2.04027 8.99165L3.42735 8.75768L3.41072 8.65907ZM3.93041 7.31898C3.6991 7.76058 3.51409 8.21893 3.37116 8.69397L3.46692 8.72278C3.60809 8.2536 3.79074 7.80115 4.019 7.36538L3.93041 7.31898ZM3.09838 6.19716L3.93397 7.37117L4.01544 7.31318L3.17985 6.13917L3.09838 6.19716ZM3.23745 4.541C2.79412 4.98433 2.73321 5.68418 3.09838 6.19716L3.17985 6.13917C2.84312 5.66614 2.89919 5.02068 3.30816 4.61171L3.23745 4.541ZM4.48672 3.2959L3.23751 4.54094L3.3081 4.61177L4.55731 3.36673L4.48672 3.2959ZM5.39521 2.91783C5.05198 2.91783 4.72571 3.05256 4.48635 3.29628L4.55769 3.36635C4.7779 3.14213 5.07832 3.01783 5.39521 3.01783V2.91783ZM6.14303 3.15704C5.92544 3.00038 5.6645 2.91783 5.39521 2.91783V3.01783C5.64399 3.01783 5.8844 3.09405 6.0846 3.2382L6.14303 3.15704ZM7.29197 3.98428L6.14303 3.15704L6.0846 3.2382L7.23354 4.06544L7.29197 3.98428ZM8.60568 3.40475C8.13467 3.55194 7.67633 3.74538 7.23905 3.98084L7.28646 4.06888C7.7182 3.83641 8.17066 3.64547 8.63551 3.5002L8.60568 3.40475ZM8.81363 2.02355L8.57131 3.44407L8.66988 3.46088L8.9122 2.04037L8.81363 2.02355ZM10.0829 0.95C9.45267 0.95 8.91792 1.40213 8.81361 2.02369L8.91223 2.04024C9.00845 1.46689 9.50148 1.05 10.0829 1.05V0.95ZM11.8418 0.95H10.0829V1.05H11.8418V0.95ZM13.1111 2.02369C13.0068 1.40213 12.472 0.95 11.8418 0.95V1.05C12.4232 1.05 12.9162 1.46689 13.0125 2.04024L13.1111 2.02369ZM13.345 3.41074L13.1111 2.02365L13.0125 2.04028L13.2464 3.42737L13.345 3.41074ZM14.7312 3.95557C14.2773 3.71601 13.8022 3.51837 13.3101 3.37115L13.2814 3.46695C13.7669 3.61219 14.236 3.80729 14.6845 4.04401L14.7312 3.95557ZM15.8403 3.13182L14.6789 3.95906L14.7369 4.04052L15.8984 3.21328L15.8403 3.13182ZM16.5838 2.89276C16.3143 2.89276 16.0576 2.97541 15.8401 3.13197L15.8986 3.21313C16.0989 3.06888 16.3352 2.99276 16.5838 2.99276V2.89276ZM17.4923 3.27089C17.2491 3.02767 16.9273 2.89276 16.5838 2.89276V2.99276C16.9004 2.99276 17.1969 3.11689 17.4216 3.3416L17.4923 3.27089ZM18.7374 4.51593L17.4923 3.27089L17.4216 3.3416L18.6667 4.58664L18.7374 4.51593ZM18.8764 6.17209C19.2414 5.65934 19.1851 4.95934 18.7372 4.51576L18.6668 4.58681C19.0796 4.99554 19.1319 5.64085 18.795 6.1141L18.8764 6.17209ZM18.0491 7.32947L18.8764 6.17217L18.795 6.11402L17.9678 7.27132L18.0491 7.32947ZM18.6203 8.64763C18.4731 8.17262 18.2839 7.71434 18.0527 7.27702L17.9643 7.32377C18.1926 7.75548 18.3794 8.208 18.5247 8.67721L18.6203 8.64763ZM19.8302 11.8795C19.8302 11.9101 19.8096 11.9342 19.7807 11.9387L19.7959 12.0375C19.8756 12.0252 19.9302 11.9574 19.9302 11.8795H19.8302ZM19.8844 11.8295H19.8802V11.9295H19.8844V11.8295ZM19.8344 10.1205V11.8795H19.9344V10.1205H19.8344ZM19.7848 10.0613C19.8138 10.0658 19.8344 10.0899 19.8344 10.1205H19.9344C19.9344 10.0426 19.8798 9.97475 19.8001 9.96249L19.7848 10.0613ZM18.0294 9.76457L19.7841 10.0612L19.8008 9.96261L18.046 9.66597L18.0294 9.76457ZM17.538 9.31378C17.5972 9.55047 17.7929 9.72819 18.0301 9.76469L18.0453 9.66585C17.8481 9.6355 17.6845 9.48734 17.635 9.28952L17.538 9.31378ZM16.8166 7.57666C17.1399 8.11977 17.3805 8.70444 17.5381 9.31416L17.6349 9.28914C17.475 8.67053 17.2309 8.07702 16.9025 7.5255L16.8166 7.57666ZM16.844 6.90767C16.7026 7.1039 16.6939 7.36766 16.8164 7.57639L16.9026 7.52577C16.7995 7.35012 16.8076 7.12923 16.9252 6.96615L16.844 6.90767ZM17.8758 5.45816L16.8439 6.90792L16.9253 6.96591L17.9573 5.51615L17.8758 5.45816ZM17.8687 5.38046C17.8881 5.39993 17.8923 5.4322 17.8744 5.46031L17.9587 5.514C17.9993 5.45019 17.9951 5.36548 17.9394 5.30975L17.8687 5.38046ZM16.6236 4.13542L17.8687 5.38046L17.9394 5.30975L16.6943 4.06471L16.6236 4.13542ZM16.5796 4.11664C16.5886 4.11664 16.6071 4.11886 16.6236 4.13542L16.6943 4.06471C16.6524 4.02278 16.604 4.01664 16.5796 4.01664V4.11664ZM16.5427 4.1304C16.5602 4.11988 16.5718 4.11664 16.5796 4.11664V4.01664C16.5456 4.01664 16.5155 4.0301 16.4912 4.04465L16.5427 4.1304ZM15.1047 5.16427L16.5461 4.12813L16.4877 4.04693L15.0464 5.08307L15.1047 5.16427ZM14.4361 5.19186C14.645 5.3145 14.9043 5.30546 15.1043 5.16454L15.0467 5.08279C14.8791 5.20091 14.6621 5.20858 14.4867 5.10562L14.4361 5.19186ZM12.6568 4.4619C13.2831 4.6195 13.8803 4.86419 14.436 5.19181L14.4868 5.10566C13.9228 4.77316 13.3167 4.52485 12.6812 4.36492L12.6568 4.4619ZM12.2019 3.96638C12.2428 4.20689 12.4199 4.40267 12.6569 4.46192L12.6812 4.3649C12.4836 4.31553 12.3349 4.152 12.3005 3.94964L12.2019 3.96638ZM11.9095 2.22407L12.2019 3.96629L12.3005 3.94973L12.0081 2.20752L11.9095 2.22407ZM11.8502 2.17388C11.8808 2.17388 11.9049 2.19448 11.9094 2.2234L12.0082 2.20819C11.9959 2.12848 11.9281 2.07388 11.8502 2.07388V2.17388ZM10.0912 2.17388H11.8502V2.07388H10.0912V2.17388ZM10.032 2.22339C10.0365 2.19448 10.0606 2.17388 10.0912 2.17388V2.07388C10.0133 2.07388 9.94545 2.12848 9.93319 2.20819L10.032 2.22339ZM9.73109 3.99147L10.0319 2.22418L9.93332 2.2074L9.6325 3.97469L9.73109 3.99147ZM9.28141 4.48252C9.51267 4.41904 9.69007 4.22847 9.73106 3.99161L9.63253 3.97455C9.59832 4.1722 9.44984 4.33258 9.25494 4.38609L9.28141 4.48252ZM7.54752 5.2125C8.0867 4.88899 8.67136 4.64023 9.28069 4.48271L9.25566 4.38589C8.63668 4.5459 8.04315 4.7985 7.49607 5.12675L7.54752 5.2125ZM6.87466 5.18543C7.07469 5.32637 7.33818 5.33537 7.5471 5.21275L7.49648 5.12651C7.32103 5.22949 7.09987 5.22178 6.93225 5.10368L6.87466 5.18543ZM5.43303 4.15749L6.87443 5.18527L6.93248 5.10385L5.49109 4.07606L5.43303 4.15749ZM5.39939 4.14588C5.41261 4.14588 5.42314 4.15009 5.43206 4.15677L5.49206 4.07677C5.46755 4.05839 5.4363 4.04588 5.39939 4.04588V4.14588ZM5.35536 4.16466C5.36468 4.15535 5.37282 4.15108 5.37919 4.14888C5.3858 4.14659 5.39237 4.14588 5.39939 4.14588V4.04588C5.36983 4.04588 5.32609 4.05252 5.28465 4.09395L5.35536 4.16466ZM4.11033 5.4097L5.35536 4.16466L5.28465 4.09395L4.03962 5.33899L4.11033 5.4097ZM4.1034 5.48773C4.08778 5.4654 4.09025 5.42979 4.11033 5.4097L4.03962 5.33899C3.9845 5.39411 3.97862 5.48384 4.02148 5.54507L4.1034 5.48773ZM5.1435 6.94971L4.10318 5.48741L4.0217 5.54538L5.06201 7.00768L5.1435 6.94971ZM5.17512 7.61399C5.29805 7.40456 5.28431 7.14503 5.14331 6.94945L5.0622 7.00793C5.18023 7.17166 5.19156 7.38842 5.08888 7.56337L5.17512 7.61399ZM4.46606 9.35563C4.61954 8.74585 4.85593 8.15702 5.17511 7.61401L5.08889 7.56334C4.76466 8.11496 4.52477 8.71269 4.36908 9.33123L4.46606 9.35563ZM3.97054 9.81052C4.21105 9.76968 4.40683 9.59255 4.46608 9.35556L4.36906 9.3313C4.31968 9.52882 4.15616 9.67757 3.9538 9.71193L3.97054 9.81052ZM2.22824 10.103L3.97045 9.81054L3.95389 9.71192L2.21169 10.0044L2.22824 10.103ZM2.17805 10.1623C2.17805 10.1316 2.19865 10.1076 2.22757 10.1031L2.21236 10.0043C2.13265 10.0165 2.07805 10.0844 2.07805 10.1623H2.17805ZM2.17805 11.9212V10.1623H2.07805V11.9212H2.17805ZM2.22757 11.9805C2.19865 11.976 2.17805 11.9519 2.17805 11.9212H2.07805C2.07805 11.9992 2.13265 12.067 2.21236 12.0793L2.22757 11.9805ZM3.99563 12.2814L2.22835 11.9806L2.21157 12.0792L3.97885 12.38L3.99563 12.2814ZM4.48668 12.7311C4.42319 12.4998 4.23263 12.3224 3.99577 12.2814L3.97871 12.38C4.17636 12.4142 4.33674 12.5626 4.39024 12.7575L4.48668 12.7311ZM5.21665 14.465C4.89314 13.9258 4.64438 13.3411 4.48687 12.7318L4.39005 12.7568C4.55006 13.3758 4.80265 13.9693 5.1309 14.5164L5.21665 14.465ZM5.18959 15.1378C5.33052 14.9378 5.33953 14.6743 5.2169 14.4654L5.13066 14.516C5.23364 14.6915 5.22593 14.9126 5.10784 15.0802L5.18959 15.1378ZM4.16164 16.5795L5.18942 15.1381L5.108 15.08L4.08022 16.5214L4.16164 16.5795ZM4.16882 16.6571C4.14935 16.6377 4.14523 16.6054 4.16312 16.5773L4.07875 16.5236C4.03815 16.5874 4.04238 16.6721 4.09811 16.7279L4.16882 16.6571ZM5.41385 17.9022L4.16882 16.6571L4.09811 16.7279L5.34314 17.9729L5.41385 17.9022ZM5.45788 17.921C5.44887 17.921 5.43042 17.9187 5.41386 17.9022L5.34314 17.9729C5.38507 18.0148 5.43346 18.021 5.45788 18.021V17.921ZM5.49483 17.9072C5.47729 17.9177 5.46567 17.921 5.45788 17.921V18.021C5.49188 18.021 5.52203 18.0075 5.54627 17.9929L5.49483 17.9072ZM6.95385 16.869L5.49156 17.9093L5.54953 17.9908L7.01182 16.9505L6.95385 16.869ZM7.30872 16.7553C7.18639 16.7553 7.05872 16.7915 6.95311 16.8695L7.01255 16.95C7.09914 16.886 7.20543 16.8553 7.30872 16.8553V16.7553ZM7.61762 16.8371C7.52207 16.7825 7.4132 16.7553 7.30872 16.7553V16.8553C7.39641 16.8553 7.48809 16.8783 7.56801 16.9239L7.61762 16.8371ZM9.3183 17.534C8.72535 17.3806 8.15293 17.1442 7.6177 16.8371L7.56794 16.9239C8.11062 17.2352 8.69131 17.4751 9.29325 17.6308L9.3183 17.534ZM9.76869 18.0253C9.72779 17.7844 9.55043 17.5932 9.31813 17.534L9.29343 17.6309C9.48728 17.6803 9.6358 17.84 9.6701 18.042L9.76869 18.0253ZM10.0612 19.7802L9.76872 18.0254L9.67008 18.0419L9.96253 19.7966L10.0612 19.7802ZM10.1205 19.8303C10.0898 19.8303 10.0657 19.8097 10.0613 19.7808L9.96244 19.796C9.9747 19.8757 10.0425 19.9303 10.1205 19.9303V19.8303ZM11.8794 19.8303H10.1205V19.9303H11.8794V19.8303ZM11.9386 19.7808C11.9342 19.8097 11.9101 19.8303 11.8794 19.8303V19.9303C11.9574 19.9303 12.0252 19.8757 12.0374 19.796L11.9386 19.7808ZM12.2354 18.0253L11.9387 19.7801L12.0373 19.7967L12.334 18.042L12.2354 18.0253ZM12.6862 17.5339C12.4495 17.5931 12.2717 17.7888 12.2352 18.026L12.3341 18.0412C12.3644 17.844 12.5126 17.6804 12.7104 17.6309L12.6862 17.5339ZM14.4233 16.8125C13.8802 17.1359 13.2955 17.3764 12.6858 17.534L12.7108 17.6308C13.3294 17.4709 13.9229 17.2268 14.4744 16.8984L14.4233 16.8125ZM15.0922 16.84C14.896 16.6985 14.6323 16.6898 14.4235 16.8123L14.4742 16.8986C14.6498 16.7955 14.8707 16.8035 15.0338 16.9211L15.0922 16.84ZM16.5417 17.8717L15.092 16.8398L15.034 16.9212L16.4838 17.9532L16.5417 17.8717ZM16.5754 17.8834C16.5622 17.8834 16.5517 17.8792 16.5428 17.8725L16.4828 17.9525C16.5073 17.9709 16.5385 17.9834 16.5754 17.9834V17.8834ZM16.6195 17.8646C16.6101 17.8739 16.602 17.8782 16.5956 17.8804C16.589 17.8827 16.5824 17.8834 16.5754 17.8834V17.9834C16.605 17.9834 16.6487 17.9767 16.6902 17.9353L16.6195 17.8646ZM17.8645 16.6195L16.6195 17.8646L16.6902 17.9353L17.9352 16.6903L17.8645 16.6195ZM17.8714 16.5415C17.887 16.5638 17.8846 16.5995 17.8645 16.6195L17.9352 16.6903C17.9903 16.6351 17.9962 16.5454 17.9533 16.4842L17.8714 16.5415ZM16.8396 15.0879L17.8716 16.5418L17.9531 16.4839L16.9212 15.03L16.8396 15.0879ZM16.8122 14.4194C16.6896 14.6284 16.6986 14.8877 16.8395 15.0877L16.9213 15.0301C16.8032 14.8625 16.7955 14.6455 16.8985 14.4701L16.8122 14.4194ZM17.5339 12.6817C17.3763 13.2914 17.1358 13.8761 16.8124 14.4192L16.8983 14.4703C17.2267 13.9188 17.4708 13.3253 17.6307 12.7067L17.5339 12.6817ZM18.0252 12.2313C17.7843 12.2722 17.5931 12.4495 17.5339 12.6818L17.6308 12.7065C17.6802 12.5127 17.8399 12.3642 18.0419 12.3298L18.0252 12.2313ZM19.7801 11.9388L18.0253 12.2312L18.0418 12.3299L19.7965 12.0374L19.7801 11.9388Z" fill="#979797"/>
<path fill-rule="evenodd" clip-rule="evenodd" d="M6.71429 11C6.71429 8.63519 8.63518 6.71429 11 6.71429C13.3648 6.71429 15.2857 8.63519 15.2857 11C15.2857 13.3648 13.3648 15.2857 11 15.2857C8.63518 15.2857 6.71429 13.3648 6.71429 11ZM7.83446 11C7.83446 12.7467 9.25335 14.1655 11 14.1655C12.7466 14.1655 14.1655 12.7467 14.1655 11C14.1655 9.25336 12.7466 7.83447 11 7.83447C9.25335 7.83447 7.83446 9.25336 7.83446 11Z" fill="#556CE7"/>
<path d="M11 6.66429C8.60757 6.66429 6.66429 8.60758 6.66429 11H6.76429C6.76429 8.6628 8.6628 6.76429 11 6.76429V6.66429ZM15.3357 11C15.3357 8.60758 13.3924 6.66429 11 6.66429V6.76429C13.3372 6.76429 15.2357 8.6628 15.2357 11H15.3357ZM11 15.3357C13.3924 15.3357 15.3357 13.3924 15.3357 11H15.2357C15.2357 13.3372 13.3372 15.2357 11 15.2357V15.3357ZM6.66429 11C6.66429 13.3924 8.60757 15.3357 11 15.3357V15.2357C8.6628 15.2357 6.76429 13.3372 6.76429 11H6.66429ZM11 14.1155C9.28097 14.1155 7.88446 12.719 7.88446 11H7.78446C7.78446 12.7743 9.22574 14.2155 11 14.2155V14.1155ZM14.1155 11C14.1155 12.719 12.719 14.1155 11 14.1155V14.2155C12.7743 14.2155 14.2155 12.7743 14.2155 11H14.1155ZM11 7.88447C12.719 7.88447 14.1155 9.28098 14.1155 11H14.2155C14.2155 9.22575 12.7743 7.78447 11 7.78447V7.88447ZM7.88446 11C7.88446 9.28098 9.28097 7.88447 11 7.88447V7.78447C9.22574 7.78447 7.78446 9.22575 7.78446 11H7.88446Z" fill="#979797"/>
</svg>
