<svg width="21" height="22" viewBox="0 0 21 22" fill="none" xmlns="http://www.w3.org/2000/svg">
<path fill-rule="evenodd" clip-rule="evenodd" d="M18.7391 20.2203H19.5982C19.8145 20.2203 19.9899 20.3949 19.9899 20.6102C19.9899 20.8255 19.8145 21 19.5982 21H1.39171C1.17537 21 1 20.8255 1 20.6102C1 20.3949 1.17537 20.2203 1.39171 20.2203H2.29718V16.7039C2.29718 16.1261 2.76954 15.6559 3.35017 15.6559H5.27051C5.8511 15.6559 6.3235 16.126 6.3235 16.7039V20.2203H8.505V13.4304C8.505 12.8526 8.97736 12.3824 9.55799 12.3824H11.4783C12.0589 12.3824 12.5313 12.8525 12.5313 13.4304V20.2203H14.7128V7.80552C14.7128 7.22771 15.1851 6.75757 15.7658 6.75757H17.6861C18.2667 6.75757 18.7391 7.22767 18.7391 7.80552V20.2203ZM3.08055 20.2203H5.54001V16.7039C5.54001 16.5559 5.41909 16.4356 5.27043 16.4356H3.35013C3.20147 16.4356 3.08055 16.5559 3.08055 16.7039V20.2203ZM11.7478 20.2203H9.28837V13.4304C9.28837 13.2825 9.40929 13.1621 9.55795 13.1621H11.4783C11.6269 13.1621 11.7478 13.2825 11.7478 13.4304V20.2203ZM15.4962 20.2203H17.9556V7.80552C17.9556 7.65758 17.8347 7.53724 17.6861 7.53724H15.7658C15.6171 7.53724 15.4962 7.65758 15.4962 7.80552V20.2203Z" fill="#9EA0A5"/>
<path d="M18.7391 20.2203H18.4891V20.4703H18.7391V20.2203ZM2.29718 20.2203V20.4703H2.54718V20.2203H2.29718ZM6.3235 20.2203H6.0735V20.4703H6.3235V20.2203ZM8.505 20.2203V20.4703H8.755V20.2203H8.505ZM12.5313 20.2203H12.2813V20.4703H12.5313V20.2203ZM14.7128 20.2203V20.4703H14.9628V20.2203H14.7128ZM5.54001 20.2203V20.4703H5.79001V20.2203H5.54001ZM3.08055 20.2203H2.83055V20.4703H3.08055V20.2203ZM9.28837 20.2203H9.03837V20.4703H9.28837V20.2203ZM11.7478 20.2203V20.4703H11.9978V20.2203H11.7478ZM17.9556 20.2203V20.4703H18.2056V20.2203H17.9556ZM15.4962 20.2203H15.2462V20.4703H15.4962V20.2203ZM19.5982 19.9703H18.7391V20.4703H19.5982V19.9703ZM20.2399 20.6102C20.2399 20.2557 19.9515 19.9703 19.5982 19.9703V20.4703C19.6776 20.4703 19.7399 20.5341 19.7399 20.6102H20.2399ZM19.5982 21.25C19.9515 21.25 20.2399 20.9647 20.2399 20.6102H19.7399C19.7399 20.6863 19.6776 20.75 19.5982 20.75V21.25ZM1.39171 21.25H19.5982V20.75H1.39171V21.25ZM0.75 20.6102C0.75 20.9647 1.03843 21.25 1.39171 21.25V20.75C1.31231 20.75 1.25 20.6863 1.25 20.6102H0.75ZM1.39171 19.9703C1.03843 19.9703 0.75 20.2557 0.75 20.6102H1.25C1.25 20.5341 1.31231 20.4703 1.39171 20.4703V19.9703ZM2.29718 19.9703H1.39171V20.4703H2.29718V19.9703ZM2.04718 16.7039V20.2203H2.54718V16.7039H2.04718ZM3.35017 15.4059C2.63259 15.4059 2.04718 15.9869 2.04718 16.7039H2.54718C2.54718 16.2652 2.90648 15.9059 3.35017 15.9059V15.4059ZM5.27051 15.4059H3.35017V15.9059H5.27051V15.4059ZM6.5735 16.7039C6.5735 15.9868 5.98803 15.4059 5.27051 15.4059V15.9059C5.71417 15.9059 6.0735 16.2652 6.0735 16.7039H6.5735ZM6.5735 20.2203V16.7039H6.0735V20.2203H6.5735ZM8.505 19.9703H6.3235V20.4703H8.505V19.9703ZM8.255 13.4304V20.2203H8.755V13.4304H8.255ZM9.55799 12.1324C8.84041 12.1324 8.255 12.7134 8.255 13.4304H8.755C8.755 12.9918 9.1143 12.6324 9.55799 12.6324V12.1324ZM11.4783 12.1324H9.55799V12.6324H11.4783V12.1324ZM12.7813 13.4304C12.7813 12.7133 12.1959 12.1324 11.4783 12.1324V12.6324C11.922 12.6324 12.2813 12.9917 12.2813 13.4304H12.7813ZM12.7813 20.2203V13.4304H12.2813V20.2203H12.7813ZM14.7128 19.9703H12.5313V20.4703H14.7128V19.9703ZM14.4628 7.80552V20.2203H14.9628V7.80552H14.4628ZM15.7658 6.50757C15.0482 6.50757 14.4628 7.08851 14.4628 7.80552H14.9628C14.9628 7.3669 15.3221 7.00757 15.7658 7.00757V6.50757ZM17.6861 6.50757H15.7658V7.00757H17.6861V6.50757ZM18.9891 7.80552C18.9891 7.08846 18.4036 6.50757 17.6861 6.50757V7.00757C18.1297 7.00757 18.4891 7.36687 18.4891 7.80552H18.9891ZM18.9891 20.2203V7.80552H18.4891V20.2203H18.9891ZM5.54001 19.9703H3.08055V20.4703H5.54001V19.9703ZM5.29001 16.7039V20.2203H5.79001V16.7039H5.29001ZM5.27043 16.6856C5.28215 16.6856 5.29001 16.6951 5.29001 16.7039H5.79001C5.79001 16.4167 5.55603 16.1856 5.27043 16.1856V16.6856ZM3.35013 16.6856H5.27043V16.1856H3.35013V16.6856ZM3.33055 16.7039C3.33055 16.6951 3.33841 16.6856 3.35013 16.6856V16.1856C3.06453 16.1856 2.83055 16.4167 2.83055 16.7039H3.33055ZM3.33055 20.2203V16.7039H2.83055V20.2203H3.33055ZM9.28837 20.4703H11.7478V19.9703H9.28837V20.4703ZM9.03837 13.4304V20.2203H9.53837V13.4304H9.03837ZM9.55795 12.9121C9.27235 12.9121 9.03837 13.1433 9.03837 13.4304H9.53837C9.53837 13.4217 9.54623 13.4121 9.55795 13.4121V12.9121ZM11.4783 12.9121H9.55795V13.4121H11.4783V12.9121ZM11.9978 13.4304C11.9978 13.1432 11.7638 12.9121 11.4783 12.9121V13.4121C11.49 13.4121 11.4978 13.4217 11.4978 13.4304H11.9978ZM11.9978 20.2203V13.4304H11.4978V20.2203H11.9978ZM17.9556 19.9703H15.4962V20.4703H17.9556V19.9703ZM17.7056 7.80552V20.2203H18.2056V7.80552H17.7056ZM17.6861 7.78724C17.6978 7.78724 17.7056 7.79678 17.7056 7.80552H18.2056C18.2056 7.51838 17.9717 7.28724 17.6861 7.28724V7.78724ZM15.7658 7.78724H17.6861V7.28724H15.7658V7.78724ZM15.7462 7.80552C15.7462 7.79678 15.7541 7.78724 15.7658 7.78724V7.28724C15.4802 7.28724 15.2462 7.51838 15.2462 7.80552H15.7462ZM15.7462 20.2203V7.80552H15.2462V20.2203H15.7462Z" fill="#9EA0A5"/>
<path d="M18.6759 1.41204C18.6813 1.30511 18.6438 1.19638 18.5624 1.11473C18.481 1.03307 18.3726 0.995416 18.2659 1.00094C18.2597 1.00067 18.2534 1 18.247 1H15.8833C15.6675 1 15.4926 1.17542 15.4926 1.39182C15.4926 1.60823 15.6675 1.78365 15.8833 1.78365H17.3428L13.4805 5.65714L12.0239 4.19642C11.9507 4.12296 11.8513 4.08166 11.7477 4.08166C11.6441 4.08166 11.5447 4.12296 11.4714 4.19642L4.4478 11.2402C4.29523 11.3933 4.29523 11.6414 4.4478 11.7944C4.5241 11.8708 4.62409 11.9091 4.72407 11.9091C4.82405 11.9091 4.92407 11.8708 5.00033 11.7943L11.7477 5.02756L13.2042 6.48828C13.3568 6.64129 13.6042 6.64129 13.7568 6.48828L17.8954 2.33781V3.66256C17.8954 3.87897 18.0703 4.05439 18.2861 4.05439C18.5019 4.05439 18.6768 3.87897 18.6768 3.66256V1.43101C18.6768 1.42462 18.6761 1.41839 18.6759 1.41204Z" fill="#9EA0A5" stroke="#9EA0A5" stroke-width="0.5"/>
<path d="M3.42418 13.2222C3.64733 13.2222 3.82822 13.0413 3.82822 12.8182C3.82822 12.595 3.64733 12.4141 3.42418 12.4141C3.20104 12.4141 3.02014 12.595 3.02014 12.8182C3.02014 13.0413 3.20104 13.2222 3.42418 13.2222Z" fill="#9EA0A5" stroke="#9EA0A5" stroke-width="0.5"/>
</svg>
