<svg width="20" height="20" viewBox="0 0 20 20" fill="none" xmlns="http://www.w3.org/2000/svg">
<path fill-rule="evenodd" clip-rule="evenodd" d="M11.2548 1.17414C10.8616 1.18444 10.4875 1.34555 10.2098 1.62411L1.44976 10.3842C0.850077 10.9853 0.850077 11.9584 1.44976 12.5595L7.44053 18.5502C8.04164 19.1499 9.01472 19.1499 9.61582 18.5502L18.3759 9.79018C18.6545 9.51246 18.8156 9.1382 18.8259 8.74494L18.9995 2.47255C19.0103 2.07897 18.8588 1.69825 18.5804 1.41981C18.302 1.14138 17.9213 0.989748 17.5277 1.00054L11.2548 1.17414ZM8.14768 17.8431L2.15689 11.8523C1.94712 11.642 1.94712 11.3016 2.15689 11.0913L10.917 2.33125C11.0141 2.23382 11.1449 2.17745 11.2824 2.17381L17.5554 2.00021C17.6742 1.99701 17.7892 2.04285 17.8733 2.12696C17.9573 2.21107 18.0031 2.32605 17.9998 2.44492L17.8262 8.7173C17.8226 8.8549 17.7662 8.98584 17.6688 9.08303L8.9087 17.8431C8.69841 18.0529 8.35797 18.0529 8.14768 17.8431ZM15.9251 4.07409C16.4887 4.63773 16.6573 5.4854 16.3523 6.22184C16.0473 6.95827 15.3286 7.43844 14.5315 7.43844C13.7344 7.43844 13.0158 6.95827 12.7108 6.22184C12.4057 5.4854 12.5743 4.63773 13.138 4.07409C13.9081 3.30562 15.155 3.30562 15.9251 4.07409H15.9251ZM14.9796 6.54929C14.5421 6.73051 14.0385 6.63034 13.7037 6.2955C13.2472 5.83798 13.2472 5.09732 13.7037 4.6398C14.0385 4.30496 14.5421 4.2048 14.9796 4.38601C15.417 4.56722 15.7023 4.99412 15.7023 5.46765C15.7023 5.94118 15.417 6.36808 14.9796 6.54929ZM4.37359 10.5353C4.21739 10.6916 4.21739 10.9448 4.37359 11.101L8.89908 15.6265C9.05548 15.7816 9.3078 15.781 9.46352 15.6253C9.61925 15.4696 9.61979 15.2172 9.46475 15.0608L4.93926 10.5353C4.78305 10.3791 4.5298 10.3791 4.37359 10.5353ZM10.5961 13.9295L6.07066 9.40398C5.91561 9.24757 5.91616 8.99526 6.07189 8.83953C6.22761 8.6838 6.47992 8.68325 6.63633 8.83829L11.1618 13.3638C11.2636 13.4647 11.3036 13.6123 11.2667 13.7508C11.2299 13.8893 11.1217 13.9975 10.9832 14.0344C10.8447 14.0713 10.697 14.0313 10.5961 13.9295Z" fill="#556CE7"/>
<path d="M10.2098 1.62411L10.2807 1.69471L10.2806 1.69482L10.2098 1.62411ZM11.2548 1.17414L11.2576 1.2741L11.2574 1.2741L11.2548 1.17414ZM1.44976 10.3842L1.37896 10.3136L1.37905 10.3135L1.44976 10.3842ZM1.44976 12.5595L1.37905 12.6302L1.37896 12.6301L1.44976 12.5595ZM7.44053 18.5502L7.36991 18.621L7.36982 18.621L7.44053 18.5502ZM9.61582 18.5502L9.68654 18.621L9.68645 18.621L9.61582 18.5502ZM18.3759 9.79018L18.3052 9.71947L18.3053 9.71935L18.3759 9.79018ZM18.8259 8.74494L18.7259 8.74234L18.7259 8.74217L18.8259 8.74494ZM18.9995 2.47255L19.0994 2.47531L19.0994 2.47532L18.9995 2.47255ZM18.5804 1.41981L18.5097 1.49052L18.5804 1.41981ZM17.5277 1.00054L17.525 0.900577L17.525 0.900577L17.5277 1.00054ZM2.15689 11.8523L2.08618 11.923L2.08609 11.9229L2.15689 11.8523ZM8.14768 17.8431L8.07705 17.9139L8.07697 17.9138L8.14768 17.8431ZM2.15689 11.0913L2.08609 11.0207L2.08618 11.0206L2.15689 11.0913ZM10.917 2.33125L10.9878 2.40184L10.9877 2.40196L10.917 2.33125ZM11.2824 2.17381L11.2852 2.27377L11.2851 2.27377L11.2824 2.17381ZM17.5554 2.00021L17.5526 1.90024L17.5527 1.90024L17.5554 2.00021ZM17.8733 2.12696L17.8025 2.19765V2.19765L17.8733 2.12696ZM17.9998 2.44492L18.0998 2.44766L18.0998 2.44768L17.9998 2.44492ZM17.8262 8.7173L17.7262 8.71468L17.7262 8.71454L17.8262 8.7173ZM17.6688 9.08303L17.598 9.01232L17.5981 9.01221L17.6688 9.08303ZM8.9087 17.8431L8.97941 17.9138L8.97933 17.9139L8.9087 17.8431ZM15.9251 4.07409V3.97409H15.9665L15.9958 4.00338L15.9251 4.07409ZM12.7108 6.22184L12.8032 6.18357L12.7108 6.22184ZM13.138 4.07409L13.0673 4.00338L13.0673 4.0033L13.138 4.07409ZM15.9251 4.07409V4.17409H15.8837L15.8544 4.14488L15.9251 4.07409ZM13.7037 6.2955L13.633 6.36621L13.6329 6.36613L13.7037 6.2955ZM14.9796 6.54929L14.9413 6.45691L14.9796 6.54929ZM13.7037 4.6398L13.6329 4.56917L13.633 4.56909L13.7037 4.6398ZM14.9796 4.38601L15.0178 4.29362H15.0178L14.9796 4.38601ZM4.37359 11.101L4.30288 11.1717L4.30287 11.1717L4.37359 11.101ZM4.37359 10.5353L4.30287 10.4646L4.30288 10.4646L4.37359 10.5353ZM8.89908 15.6265L8.82868 15.6975L8.82837 15.6972L8.89908 15.6265ZM9.46475 15.0608L9.53546 14.9901L9.53577 14.9904L9.46475 15.0608ZM4.93926 10.5353L5.00997 10.4646L5.00997 10.4646L4.93926 10.5353ZM6.07066 9.40398L5.99995 9.47469L5.99964 9.47438L6.07066 9.40398ZM10.5961 13.9295L10.6669 13.8588L10.6672 13.8591L10.5961 13.9295ZM6.07189 8.83953L6.1426 8.91024V8.91024L6.07189 8.83953ZM6.63633 8.83829L6.70673 8.76727L6.70704 8.76758L6.63633 8.83829ZM11.1618 13.3638L11.0914 13.4348L11.0911 13.4345L11.1618 13.3638ZM11.2667 13.7508L11.1701 13.7251L11.2667 13.7508ZM10.9832 14.0344L11.0089 14.131L10.9832 14.0344ZM10.139 1.55352C10.4348 1.25678 10.8333 1.08515 11.2522 1.07417L11.2574 1.2741C10.8899 1.28373 10.5402 1.43433 10.2807 1.69471L10.139 1.55352ZM1.37905 10.3135L10.1391 1.5534L10.2806 1.69482L1.52047 10.4549L1.37905 10.3135ZM1.37896 12.6301C0.740341 11.99 0.740341 10.9537 1.37896 10.3136L1.52055 10.4548C0.959812 11.0169 0.959812 11.9268 1.52055 12.4888L1.37896 12.6301ZM7.36982 18.621L1.37905 12.6302L1.52047 12.4888L7.51124 18.4795L7.36982 18.621ZM9.68645 18.621C9.04631 19.2597 8.01005 19.2597 7.36991 18.621L7.51116 18.4794C8.07323 19.0402 8.98312 19.0402 9.5452 18.4794L9.68645 18.621ZM18.4466 9.86089L9.68653 18.621L9.54511 18.4795L18.3052 9.71947L18.4466 9.86089ZM18.9258 8.74754C18.9149 9.16647 18.7433 9.56516 18.4465 9.861L18.3053 9.71935C18.5657 9.45976 18.7163 9.10993 18.7259 8.74234L18.9258 8.74754ZM19.0994 2.47532L18.9258 8.74771L18.7259 8.74217L18.8995 2.46978L19.0994 2.47532ZM18.6511 1.34911C18.9489 1.64698 19.1111 2.05426 19.0994 2.47531L18.8995 2.46979C18.9096 2.10367 18.7686 1.74953 18.5097 1.49052L18.6511 1.34911ZM17.525 0.900577C17.9461 0.889033 18.3533 1.05124 18.6511 1.34911L18.5097 1.49052C18.2507 1.23151 17.8966 1.09046 17.5305 1.1005L17.525 0.900577ZM11.252 1.07418L17.525 0.900577L17.5305 1.1005L11.2576 1.2741L11.252 1.07418ZM2.2276 11.7816L8.21839 17.7724L8.07697 17.9138L2.08618 11.923L2.2276 11.7816ZM2.22769 11.1619C2.05686 11.3332 2.05686 11.6104 2.22769 11.7817L2.08609 11.9229C1.83739 11.6736 1.83739 11.27 2.08609 11.0207L2.22769 11.1619ZM10.9877 2.40196L2.2276 11.162L2.08618 11.0206L10.8463 2.26054L10.9877 2.40196ZM11.2851 2.27377C11.1732 2.27673 11.0668 2.32258 10.9878 2.40184L10.8462 2.26067C10.9614 2.14505 11.1166 2.07816 11.2798 2.07384L11.2851 2.27377ZM17.5581 2.10017L11.2852 2.27377L11.2797 2.07384L17.5526 1.90024L17.5581 2.10017ZM17.8025 2.19765C17.7379 2.13297 17.6495 2.09772 17.5581 2.10017L17.5527 1.90024C17.699 1.89631 17.8405 1.95274 17.944 2.05627L17.8025 2.19765ZM17.8998 2.44217C17.9024 2.35076 17.8672 2.26233 17.8025 2.19765L17.944 2.05627C18.0475 2.15981 18.1038 2.30134 18.0998 2.44766L17.8998 2.44217ZM17.7262 8.71454L17.8998 2.44215L18.0998 2.44768L17.9262 8.72007L17.7262 8.71454ZM17.5981 9.01221C17.6774 8.93315 17.7233 8.82662 17.7262 8.71468L17.9262 8.71992C17.9219 8.88318 17.855 9.03853 17.7394 9.15384L17.5981 9.01221ZM8.83799 17.7724L17.598 9.01232L17.7395 9.15374L8.97941 17.9138L8.83799 17.7724ZM8.21831 17.7723C8.38957 17.9432 8.66681 17.9432 8.83807 17.7723L8.97933 17.9139C8.73 18.1626 8.32638 18.1626 8.07705 17.9139L8.21831 17.7723ZM16.2599 6.18357C16.5495 5.4845 16.3894 4.67984 15.8544 4.1448L15.9958 4.00338C16.588 4.59562 16.7652 5.4863 16.4447 6.2601L16.2599 6.18357ZM14.5315 7.33844C15.2882 7.33844 15.9704 6.88263 16.2599 6.18357L16.4447 6.2601C16.1242 7.03391 15.3691 7.53844 14.5315 7.53844V7.33844ZM12.8032 6.18357C13.0927 6.88263 13.7749 7.33844 14.5315 7.33844V7.53844C13.694 7.53844 12.9389 7.03391 12.6184 6.2601L12.8032 6.18357ZM13.2087 4.1448C12.6736 4.67984 12.5136 5.4845 12.8032 6.18357L12.6184 6.2601C12.2979 5.4863 12.475 4.59562 13.0673 4.00338L13.2087 4.1448ZM15.8544 4.14488C15.1234 3.41536 13.9397 3.41536 13.2086 4.14488L13.0673 4.0033C13.8765 3.19589 15.1866 3.19589 15.9957 4.0033L15.8544 4.14488ZM15.9251 4.17409H15.9251V3.97409H15.9251V4.17409ZM13.7744 6.22479C14.0806 6.53103 14.5412 6.62264 14.9413 6.45691L15.0178 6.64168C14.543 6.83837 13.9964 6.72965 13.633 6.36621L13.7744 6.22479ZM13.7745 4.71043C13.357 5.12892 13.357 5.80638 13.7745 6.22487L13.6329 6.36613C13.1375 5.86957 13.1375 5.06573 13.6329 4.56917L13.7745 4.71043ZM14.9413 4.47839C14.5412 4.31266 14.0806 4.40427 13.7744 4.71051L13.633 4.56909C13.9964 4.20565 14.543 4.09693 15.0178 4.29362L14.9413 4.47839ZM15.6023 5.46765C15.6023 5.03457 15.3414 4.64413 14.9413 4.47839L15.0178 4.29362C15.4927 4.49031 15.8023 4.95367 15.8023 5.46765H15.6023ZM14.9413 6.45691C15.3414 6.29117 15.6023 5.90073 15.6023 5.46765H15.8023C15.8023 5.98163 15.4927 6.44499 15.0178 6.64168L14.9413 6.45691ZM4.30287 11.1717C4.10762 10.9765 4.10762 10.6599 4.30287 10.4646L4.4443 10.6061C4.32715 10.7232 4.32715 10.9132 4.4443 11.0303L4.30287 11.1717ZM8.82837 15.6972L4.30288 11.1717L4.4443 11.0303L8.96979 15.5558L8.82837 15.6972ZM9.53423 15.696C9.33958 15.8907 9.02419 15.8913 8.82868 15.6975L8.96948 15.5555C9.08678 15.6718 9.27602 15.6714 9.39281 15.5546L9.53423 15.696ZM9.53577 14.9904C9.72958 15.1859 9.72889 15.5013 9.53423 15.696L9.39281 15.5546C9.5096 15.4378 9.51001 15.2485 9.39373 15.1312L9.53577 14.9904ZM5.00997 10.4646L9.53546 14.9901L9.39404 15.1315L4.86855 10.6061L5.00997 10.4646ZM4.30288 10.4646C4.49814 10.2694 4.81471 10.2694 5.00997 10.4646L4.86855 10.6061C4.7514 10.4889 4.56145 10.4889 4.4443 10.6061L4.30288 10.4646ZM6.14137 9.33326L10.6669 13.8588L10.5254 14.0002L5.99995 9.47469L6.14137 9.33326ZM6.1426 8.91024C6.02581 9.02704 6.02539 9.21627 6.14168 9.33357L5.99964 9.47438C5.80583 9.27887 5.80652 8.96348 6.00118 8.76882L6.1426 8.91024ZM6.56593 8.90931C6.44863 8.79303 6.25939 8.79345 6.1426 8.91024L6.00118 8.76882C6.19583 8.57416 6.51122 8.57347 6.70673 8.76727L6.56593 8.90931ZM11.0911 13.4345L6.56562 8.909L6.70704 8.76758L11.2325 13.2931L11.0911 13.4345ZM11.1701 13.7251C11.1978 13.6212 11.1678 13.5105 11.0914 13.4348L11.2322 13.2928C11.3595 13.4189 11.4095 13.6034 11.3634 13.7766L11.1701 13.7251ZM10.9574 13.9377C11.0613 13.9101 11.1424 13.829 11.1701 13.7251L11.3634 13.7766C11.3173 13.9497 11.182 14.0849 11.0089 14.131L10.9574 13.9377ZM10.6672 13.8591C10.7428 13.9354 10.8536 13.9654 10.9574 13.9377L11.0089 14.131C10.8358 14.1771 10.6513 14.1271 10.5251 13.9999L10.6672 13.8591Z" fill="#556CE7"/>
</svg>
