<svg width="18" height="22" viewBox="0 0 18 22" fill="none" xmlns="http://www.w3.org/2000/svg">
<path fill-rule="evenodd" clip-rule="evenodd" d="M4.58861 1H16.2914C16.948 1 17.4854 1.53749 17.4854 2.19398V17.5988C17.4854 18.2543 16.9468 18.7928 16.2914 18.7928H15.6229V17.8376H16.2914C16.4239 17.8376 16.5302 17.7314 16.5302 17.5988V2.19412C16.5302 2.06247 16.4228 1.95543 16.2914 1.95543H4.58861C4.45832 1.95543 4.34993 2.06396 4.34993 2.19412V2.67503H3.39463V2.19412C3.39449 1.5364 3.9309 1 4.58861 1ZM12.0785 17.1697C12.6512 17.1697 12.6511 16.304 12.0785 16.304H7.98859C7.41601 16.304 7.41587 17.1697 7.98859 17.1697H12.0785ZM12.0785 7.02201C12.6514 7.02201 12.6511 6.15634 12.0785 6.15634H4.01209C3.43978 6.15634 3.43965 7.02201 4.01209 7.02201H12.0785ZM12.0785 9.56882C12.6514 9.56882 12.6511 8.70316 12.0785 8.70316H4.01209C3.43978 8.70316 3.43965 9.56882 4.01209 9.56882H12.0785ZM12.0785 12.1156C12.6514 12.1156 12.6511 11.25 12.0785 11.25H4.01209C3.43978 11.25 3.43965 12.1156 4.01209 12.1156H12.0785ZM12.0785 14.6623C12.6514 14.6623 12.6511 13.7967 12.0785 13.7967H4.01209C3.43978 13.7967 3.43965 14.6623 4.01209 14.6623H12.0785ZM2.19398 3.20694C1.53627 3.20694 1 3.74335 1 4.40106V16.7796C1.00775 17.1663 1.12757 17.3925 1.37048 17.615C2.45634 18.6413 3.54233 19.6677 4.62819 20.694C4.88538 20.9304 5.07537 20.9951 5.42205 21C8.247 21 11.0719 21 13.8969 21C14.5522 21 15.0909 20.4614 15.0909 19.8059V4.40106C15.0909 3.74443 14.5534 3.20694 13.8969 3.20694H2.19398ZM1.95516 16.3224H4.71523C5.37173 16.3224 5.90935 16.8598 5.90935 17.5165V20.0444H13.8969C14.0292 20.0444 14.1357 19.9382 14.1357 19.8056V4.40106C14.1357 4.26941 14.0281 4.16224 13.8969 4.16224H2.19398C2.06369 4.16224 1.95516 4.27077 1.95516 4.40106V16.3224Z" fill="#556CE7"/>
<path d="M15.6229 18.7928H15.5729V18.8428H15.6229V18.7928ZM15.6229 17.8376V17.7876H15.5729V17.8376H15.6229ZM4.34993 2.67503V2.72503H4.39993V2.67503H4.34993ZM3.39463 2.67503H3.34463V2.72503H3.39463V2.67503ZM3.39463 2.19412H3.44463V2.19411L3.39463 2.19412ZM1 16.7796H0.94999L0.95001 16.7806L1 16.7796ZM1.37048 17.615L1.40482 17.5786L1.40425 17.5781L1.37048 17.615ZM4.62819 20.694L4.59384 20.7303L4.59436 20.7308L4.62819 20.694ZM5.42205 21L5.42134 21.05H5.42205V21ZM1.95516 16.3224H1.90516V16.3724H1.95516V16.3224ZM5.90935 20.0444H5.85935V20.0944H5.90935V20.0444ZM4.58861 1.05H16.2914V0.95H4.58861V1.05ZM16.2914 1.05C16.9204 1.05 17.4354 1.5651 17.4354 2.19398H17.5354C17.5354 1.50988 16.9756 0.95 16.2914 0.95V1.05ZM17.4354 2.19398V17.5988H17.5354V2.19398H17.4354ZM17.4354 17.5988C17.4354 18.2267 16.9192 18.7428 16.2914 18.7428V18.8428C16.9744 18.8428 17.5354 18.282 17.5354 17.5988H17.4354ZM16.2914 18.7428H15.6229V18.8428H16.2914V18.7428ZM15.6729 18.7928V17.8376H15.5729V18.7928H15.6729ZM15.6229 17.8876H16.2914V17.7876H15.6229V17.8876ZM16.2914 17.8876C16.4515 17.8876 16.5802 17.759 16.5802 17.5988H16.4802C16.4802 17.7038 16.3963 17.7876 16.2914 17.7876V17.8876ZM16.5802 17.5988V2.19412H16.4802V17.5988H16.5802ZM16.5802 2.19412C16.5802 2.03478 16.4503 1.90543 16.2914 1.90543V2.00543C16.3952 2.00543 16.4802 2.09016 16.4802 2.19412H16.5802ZM16.2914 1.90543H4.58861V2.00543H16.2914V1.90543ZM4.58861 1.90543C4.43069 1.90543 4.29993 2.03637 4.29993 2.19412H4.39993C4.39993 2.09156 4.48595 2.00543 4.58861 2.00543V1.90543ZM4.29993 2.19412V2.67503H4.39993V2.19412H4.29993ZM4.34993 2.62503H3.39463V2.72503H4.34993V2.62503ZM3.44463 2.67503V2.19412H3.34463V2.67503H3.44463ZM3.44463 2.19411C3.4445 1.56402 3.95851 1.05 4.58861 1.05V0.95C3.90328 0.95 3.34449 1.50879 3.34463 2.19413L3.44463 2.19411ZM12.0785 17.2197C12.2354 17.2197 12.3567 17.1599 12.4381 17.0675C12.5188 16.9761 12.558 16.8556 12.558 16.7369C12.558 16.6181 12.5188 16.4977 12.4381 16.4062C12.3566 16.3138 12.2354 16.254 12.0785 16.254V16.354C12.208 16.354 12.3014 16.4025 12.3631 16.4724C12.4256 16.5432 12.458 16.6392 12.458 16.7369C12.458 16.8345 12.4257 16.9305 12.3631 17.0014C12.3015 17.0713 12.208 17.1197 12.0785 17.1197V17.2197ZM12.0785 16.254H7.98859V16.354H12.0785V16.254ZM7.98859 16.254C7.83174 16.254 7.71049 16.3138 7.629 16.4062C7.54834 16.4977 7.50911 16.6181 7.5091 16.7369C7.50909 16.8556 7.5483 16.9761 7.62896 17.0675C7.71045 17.1599 7.83171 17.2197 7.98859 17.2197V17.1197C7.85911 17.1197 7.76562 17.0713 7.70395 17.0014C7.64145 16.9305 7.6091 16.8345 7.6091 16.7369C7.60911 16.6392 7.64148 16.5432 7.70399 16.4724C7.76567 16.4025 7.85915 16.354 7.98859 16.354V16.254ZM7.98859 17.2197H12.0785V17.1197H7.98859V17.2197ZM12.0785 7.07201C12.2354 7.07201 12.3567 7.01222 12.4382 6.91982C12.5189 6.82837 12.5581 6.70792 12.5581 6.58916C12.558 6.4704 12.5188 6.34996 12.4381 6.25852C12.3566 6.16613 12.2354 6.10634 12.0785 6.10634V6.20634C12.208 6.20634 12.3014 6.25475 12.3631 6.32468C12.4257 6.39555 12.458 6.49152 12.4581 6.58918C12.4581 6.68684 12.4257 6.7828 12.3632 6.85367C12.3015 6.92359 12.208 6.97201 12.0785 6.97201V7.07201ZM12.0785 6.10634H4.01209V6.20634H12.0785V6.10634ZM4.01209 6.10634C3.8553 6.10634 3.7341 6.16614 3.65264 6.25853C3.57203 6.34997 3.53282 6.47042 3.53281 6.58917C3.5328 6.70792 3.57199 6.82836 3.6526 6.91981C3.73406 7.01221 3.85527 7.07201 4.01209 7.07201V6.97201C3.88269 6.97201 3.78925 6.9236 3.72762 6.85368C3.66514 6.78281 3.6328 6.68684 3.63281 6.58918C3.63282 6.49151 3.66517 6.39553 3.72765 6.32466C3.7893 6.25474 3.88273 6.20634 4.01209 6.20634V6.10634ZM4.01209 7.07201H12.0785V6.97201H4.01209V7.07201ZM12.0785 9.61882C12.2354 9.61882 12.3567 9.55903 12.4382 9.46664C12.5189 9.37519 12.5581 9.25474 12.5581 9.13598C12.558 9.01722 12.5188 8.89678 12.4381 8.80534C12.3566 8.71295 12.2354 8.65316 12.0785 8.65316V8.75316C12.208 8.75316 12.3014 8.80157 12.3631 8.87149C12.4257 8.94237 12.458 9.03834 12.4581 9.136C12.4581 9.23366 12.4257 9.32962 12.3632 9.40049C12.3015 9.47041 12.208 9.51882 12.0785 9.51882V9.61882ZM12.0785 8.65316H4.01209V8.75316H12.0785V8.65316ZM4.01209 8.65316C3.8553 8.65316 3.7341 8.71296 3.65264 8.80535C3.57203 8.89679 3.53282 9.01724 3.53281 9.13599C3.5328 9.25474 3.57199 9.37518 3.6526 9.46663C3.73406 9.55902 3.85527 9.61882 4.01209 9.61882V9.51882C3.88269 9.51882 3.78925 9.47042 3.72762 9.4005C3.66514 9.32963 3.6328 9.23366 3.63281 9.13599C3.63282 9.03833 3.66517 8.94235 3.72765 8.87148C3.7893 8.80156 3.88273 8.75316 4.01209 8.75316V8.65316ZM4.01209 9.61882H12.0785V9.51882H4.01209V9.61882ZM12.0785 12.1656C12.2354 12.1656 12.3567 12.1059 12.4382 12.0135C12.5189 11.922 12.5581 11.8016 12.5581 11.6828C12.558 11.564 12.5188 11.4436 12.4381 11.3522C12.3566 11.2598 12.2354 11.2 12.0785 11.2V11.3C12.208 11.3 12.3014 11.3484 12.3631 11.4183C12.4257 11.4892 12.458 11.5852 12.4581 11.6828C12.4581 11.7805 12.4257 11.8764 12.3632 11.9473C12.3015 12.0172 12.208 12.0656 12.0785 12.0656V12.1656ZM12.0785 11.2H4.01209V11.3H12.0785V11.2ZM4.01209 11.2C3.8553 11.2 3.7341 11.2598 3.65264 11.3522C3.57203 11.4436 3.53282 11.5641 3.53281 11.6828C3.5328 11.8016 3.57199 11.922 3.6526 12.0134C3.73406 12.1058 3.85527 12.1656 4.01209 12.1656V12.0656C3.88269 12.0656 3.78925 12.0172 3.72762 11.9473C3.66514 11.8765 3.6328 11.7805 3.63281 11.6828C3.63282 11.5851 3.66517 11.4892 3.72765 11.4183C3.7893 11.3484 3.88273 11.3 4.01209 11.3V11.2ZM4.01209 12.1656H12.0785V12.0656H4.01209V12.1656ZM12.0785 14.7123C12.2354 14.7123 12.3567 14.6525 12.4382 14.5601C12.5189 14.4687 12.5581 14.3482 12.5581 14.2295C12.558 14.1107 12.5188 13.9903 12.4381 13.8988C12.3566 13.8065 12.2354 13.7467 12.0785 13.7467V13.8467C12.208 13.8467 12.3014 13.8951 12.3631 13.965C12.4257 14.0359 12.458 14.1318 12.4581 14.2295C12.4581 14.3272 12.4257 14.4231 12.3632 14.494C12.3015 14.5639 12.208 14.6123 12.0785 14.6123V14.7123ZM12.0785 13.7467H4.01209V13.8467H12.0785V13.7467ZM4.01209 13.7467C3.8553 13.7467 3.7341 13.8065 3.65264 13.8989C3.57203 13.9903 3.53282 14.1107 3.53281 14.2295C3.5328 14.3482 3.57199 14.4687 3.6526 14.5601C3.73406 14.6525 3.85527 14.7123 4.01209 14.7123V14.6123C3.88269 14.6123 3.78925 14.5639 3.72762 14.494C3.66514 14.4231 3.6328 14.3272 3.63281 14.2295C3.63282 14.1318 3.66517 14.0359 3.72765 13.965C3.7893 13.8951 3.88273 13.8467 4.01209 13.8467V13.7467ZM4.01209 14.7123H12.0785V14.6123H4.01209V14.7123ZM2.19398 3.15694C1.50864 3.15694 0.95 3.71574 0.95 4.40106H1.05C1.05 3.77095 1.56389 3.25694 2.19398 3.25694V3.15694ZM0.95 4.40106V16.7796H1.05V4.40106H0.95ZM0.95001 16.7806C0.953988 16.9791 0.986806 17.1394 1.05166 17.2798C1.11652 17.4203 1.21197 17.5376 1.3367 17.6519L1.40425 17.5781C1.28607 17.4699 1.20017 17.3629 1.14245 17.2379C1.08473 17.113 1.05376 16.9669 1.04999 16.7786L0.95001 16.7806ZM1.33613 17.6513C1.87906 18.1645 2.42203 18.6776 2.96499 19.1908C3.50795 19.704 4.05092 20.2172 4.59385 20.7303L4.66254 20.6577C4.11961 20.1445 3.57664 19.6313 3.03368 19.1181C2.49071 18.605 1.94775 18.0918 1.40482 17.5786L1.33613 17.6513ZM4.59436 20.7308C4.72583 20.8516 4.843 20.9312 4.97393 20.9806C5.10458 21.0298 5.24526 21.0475 5.42134 21.05L5.42276 20.95C5.25217 20.9476 5.12451 20.9305 5.00919 20.887C4.89416 20.8437 4.78774 20.7727 4.66203 20.6572L4.59436 20.7308ZM5.42205 21.05C5.42757 21.05 5.43308 21.05 5.4386 21.05C5.44412 21.05 5.44964 21.05 5.45515 21.05C5.46067 21.05 5.46619 21.05 5.47171 21.05C5.47722 21.05 5.48274 21.05 5.48826 21.05C5.49378 21.05 5.49929 21.05 5.50481 21.05C5.51033 21.05 5.51585 21.05 5.52136 21.05C5.52688 21.05 5.5324 21.05 5.53792 21.05C5.54343 21.05 5.54895 21.05 5.55447 21.05C5.55999 21.05 5.5655 21.05 5.57102 21.05C5.57654 21.05 5.58206 21.05 5.58757 21.05C5.59309 21.05 5.59861 21.05 5.60413 21.05C5.60964 21.05 5.61516 21.05 5.62068 21.05C5.6262 21.05 5.63171 21.05 5.63723 21.05C5.64275 21.05 5.64827 21.05 5.65378 21.05C5.6593 21.05 5.66482 21.05 5.67034 21.05C5.67585 21.05 5.68137 21.05 5.68689 21.05C5.69241 21.05 5.69792 21.05 5.70344 21.05C5.70896 21.05 5.71448 21.05 5.71999 21.05C5.72551 21.05 5.73103 21.05 5.73655 21.05C5.74206 21.05 5.74758 21.05 5.7531 21.05C5.75862 21.05 5.76413 21.05 5.76965 21.05C5.77517 21.05 5.78068 21.05 5.7862 21.05C5.79172 21.05 5.79724 21.05 5.80275 21.05C5.80827 21.05 5.81379 21.05 5.81931 21.05C5.82482 21.05 5.83034 21.05 5.83586 21.05C5.84138 21.05 5.84689 21.05 5.85241 21.05C5.85793 21.05 5.86345 21.05 5.86896 21.05C5.87448 21.05 5.88 21.05 5.88552 21.05C5.89103 21.05 5.89655 21.05 5.90207 21.05C5.90759 21.05 5.9131 21.05 5.91862 21.05C5.92414 21.05 5.92966 21.05 5.93517 21.05C5.94069 21.05 5.94621 21.05 5.95173 21.05C5.95724 21.05 5.96276 21.05 5.96828 21.05C5.9738 21.05 5.97931 21.05 5.98483 21.05C5.99035 21.05 5.99587 21.05 6.00138 21.05C6.0069 21.05 6.01242 21.05 6.01794 21.05C6.02345 21.05 6.02897 21.05 6.03449 21.05C6.04001 21.05 6.04552 21.05 6.05104 21.05C6.05656 21.05 6.06208 21.05 6.06759 21.05C6.07311 21.05 6.07863 21.05 6.08415 21.05C6.08966 21.05 6.09518 21.05 6.1007 21.05C6.10622 21.05 6.11173 21.05 6.11725 21.05C6.12277 21.05 6.12829 21.05 6.1338 21.05C6.13932 21.05 6.14484 21.05 6.15036 21.05C6.15587 21.05 6.16139 21.05 6.16691 21.05C6.17243 21.05 6.17794 21.05 6.18346 21.05C6.18898 21.05 6.1945 21.05 6.20001 21.05C6.20553 21.05 6.21105 21.05 6.21657 21.05C6.22208 21.05 6.2276 21.05 6.23312 21.05C6.23864 21.05 6.24415 21.05 6.24967 21.05C6.25519 21.05 6.26071 21.05 6.26622 21.05C6.27174 21.05 6.27726 21.05 6.28278 21.05C6.28829 21.05 6.29381 21.05 6.29933 21.05C6.30485 21.05 6.31036 21.05 6.31588 21.05C6.3214 21.05 6.32692 21.05 6.33243 21.05C6.33795 21.05 6.34347 21.05 6.34899 21.05C6.3545 21.05 6.36002 21.05 6.36554 21.05C6.37106 21.05 6.37657 21.05 6.38209 21.05C6.38761 21.05 6.39313 21.05 6.39864 21.05C6.40416 21.05 6.40968 21.05 6.41519 21.05C6.42071 21.05 6.42623 21.05 6.43175 21.05C6.43726 21.05 6.44278 21.05 6.4483 21.05C6.45382 21.05 6.45933 21.05 6.46485 21.05C6.47037 21.05 6.47589 21.05 6.4814 21.05C6.48692 21.05 6.49244 21.05 6.49796 21.05C6.50347 21.05 6.50899 21.05 6.51451 21.05C6.52003 21.05 6.52554 21.05 6.53106 21.05C6.53658 21.05 6.5421 21.05 6.54761 21.05C6.55313 21.05 6.55865 21.05 6.56417 21.05C6.56968 21.05 6.5752 21.05 6.58072 21.05C6.58624 21.05 6.59175 21.05 6.59727 21.05C6.60279 21.05 6.60831 21.05 6.61382 21.05C6.61934 21.05 6.62486 21.05 6.63038 21.05C6.63589 21.05 6.64141 21.05 6.64693 21.05C6.65245 21.05 6.65796 21.05 6.66348 21.05C6.669 21.05 6.67452 21.05 6.68003 21.05C6.68555 21.05 6.69107 21.05 6.69659 21.05C6.7021 21.05 6.70762 21.05 6.71314 21.05C6.71866 21.05 6.72417 21.05 6.72969 21.05C6.73521 21.05 6.74073 21.05 6.74624 21.05C6.75176 21.05 6.75728 21.05 6.7628 21.05C6.76831 21.05 6.77383 21.05 6.77935 21.05C6.78487 21.05 6.79038 21.05 6.7959 21.05C6.80142 21.05 6.80694 21.05 6.81245 21.05C6.81797 21.05 6.82349 21.05 6.82901 21.05C6.83452 21.05 6.84004 21.05 6.84556 21.05C6.85108 21.05 6.85659 21.05 6.86211 21.05C6.86763 21.05 6.87315 21.05 6.87866 21.05C6.88418 21.05 6.8897 21.05 6.89522 21.05C6.90073 21.05 6.90625 21.05 6.91177 21.05C6.91729 21.05 6.9228 21.05 6.92832 21.05C6.93384 21.05 6.93936 21.05 6.94487 21.05C6.95039 21.05 6.95591 21.05 6.96143 21.05C6.96694 21.05 6.97246 21.05 6.97798 21.05C6.9835 21.05 6.98901 21.05 6.99453 21.05C7.00005 21.05 7.00557 21.05 7.01108 21.05C7.0166 21.05 7.02212 21.05 7.02764 21.05C7.03315 21.05 7.03867 21.05 7.04419 21.05C7.04971 21.05 7.05522 21.05 7.06074 21.05C7.06626 21.05 7.07177 21.05 7.07729 21.05C7.08281 21.05 7.08833 21.05 7.09384 21.05C7.09936 21.05 7.10488 21.05 7.1104 21.05C7.11591 21.05 7.12143 21.05 7.12695 21.05C7.13247 21.05 7.13798 21.05 7.1435 21.05C7.14902 21.05 7.15454 21.05 7.16005 21.05C7.16557 21.05 7.17109 21.05 7.17661 21.05C7.18212 21.05 7.18764 21.05 7.19316 21.05C7.19868 21.05 7.20419 21.05 7.20971 21.05C7.21523 21.05 7.22075 21.05 7.22626 21.05C7.23178 21.05 7.2373 21.05 7.24282 21.05C7.24833 21.05 7.25385 21.05 7.25937 21.05C7.26489 21.05 7.2704 21.05 7.27592 21.05C7.28144 21.05 7.28696 21.05 7.29247 21.05C7.29799 21.05 7.30351 21.05 7.30903 21.05C7.31454 21.05 7.32006 21.05 7.32558 21.05C7.3311 21.05 7.33661 21.05 7.34213 21.05C7.34765 21.05 7.35317 21.05 7.35868 21.05C7.3642 21.05 7.36972 21.05 7.37524 21.05C7.38075 21.05 7.38627 21.05 7.39179 21.05C7.39731 21.05 7.40282 21.05 7.40834 21.05C7.41386 21.05 7.41938 21.05 7.42489 21.05C7.43041 21.05 7.43593 21.05 7.44145 21.05C7.44696 21.05 7.45248 21.05 7.458 21.05C7.46352 21.05 7.46903 21.05 7.47455 21.05C7.48007 21.05 7.48559 21.05 7.4911 21.05C7.49662 21.05 7.50214 21.05 7.50766 21.05C7.51317 21.05 7.51869 21.05 7.52421 21.05C7.52973 21.05 7.53524 21.05 7.54076 21.05C7.54628 21.05 7.5518 21.05 7.55731 21.05C7.56283 21.05 7.56835 21.05 7.57387 21.05C7.57938 21.05 7.5849 21.05 7.59042 21.05C7.59594 21.05 7.60145 21.05 7.60697 21.05C7.61249 21.05 7.61801 21.05 7.62352 21.05C7.62904 21.05 7.63456 21.05 7.64008 21.05C7.64559 21.05 7.65111 21.05 7.65663 21.05C7.66215 21.05 7.66766 21.05 7.67318 21.05C7.6787 21.05 7.68422 21.05 7.68973 21.05C7.69525 21.05 7.70077 21.05 7.70628 21.05C7.7118 21.05 7.71732 21.05 7.72284 21.05C7.72835 21.05 7.73387 21.05 7.73939 21.05C7.74491 21.05 7.75042 21.05 7.75594 21.05C7.76146 21.05 7.76698 21.05 7.77249 21.05C7.77801 21.05 7.78353 21.05 7.78905 21.05C7.79456 21.05 7.80008 21.05 7.8056 21.05C7.81112 21.05 7.81663 21.05 7.82215 21.05C7.82767 21.05 7.83319 21.05 7.8387 21.05C7.84422 21.05 7.84974 21.05 7.85526 21.05C7.86077 21.05 7.86629 21.05 7.87181 21.05C7.87733 21.05 7.88284 21.05 7.88836 21.05C7.89388 21.05 7.8994 21.05 7.90491 21.05C7.91043 21.05 7.91595 21.05 7.92147 21.05C7.92698 21.05 7.9325 21.05 7.93802 21.05C7.94354 21.05 7.94905 21.05 7.95457 21.05C7.96009 21.05 7.96561 21.05 7.97112 21.05C7.97664 21.05 7.98216 21.05 7.98768 21.05C7.99319 21.05 7.99871 21.05 8.00423 21.05C8.00975 21.05 8.01526 21.05 8.02078 21.05C8.0263 21.05 8.03182 21.05 8.03733 21.05C8.04285 21.05 8.04837 21.05 8.05389 21.05C8.0594 21.05 8.06492 21.05 8.07044 21.05C8.07596 21.05 8.08147 21.05 8.08699 21.05C8.09251 21.05 8.09803 21.05 8.10354 21.05C8.10906 21.05 8.11458 21.05 8.1201 21.05C8.12561 21.05 8.13113 21.05 8.13665 21.05C8.14217 21.05 8.14768 21.05 8.1532 21.05C8.15872 21.05 8.16424 21.05 8.16975 21.05C8.17527 21.05 8.18079 21.05 8.18631 21.05C8.19182 21.05 8.19734 21.05 8.20286 21.05C8.20838 21.05 8.21389 21.05 8.21941 21.05C8.22493 21.05 8.23045 21.05 8.23596 21.05C8.24148 21.05 8.247 21.05 8.25252 21.05C8.25803 21.05 8.26355 21.05 8.26907 21.05C8.27459 21.05 8.2801 21.05 8.28562 21.05C8.29114 21.05 8.29666 21.05 8.30217 21.05C8.30769 21.05 8.31321 21.05 8.31873 21.05C8.32424 21.05 8.32976 21.05 8.33528 21.05C8.3408 21.05 8.34631 21.05 8.35183 21.05C8.35735 21.05 8.36286 21.05 8.36838 21.05C8.3739 21.05 8.37942 21.05 8.38493 21.05C8.39045 21.05 8.39597 21.05 8.40149 21.05C8.407 21.05 8.41252 21.05 8.41804 21.05C8.42356 21.05 8.42907 21.05 8.43459 21.05C8.44011 21.05 8.44563 21.05 8.45114 21.05C8.45666 21.05 8.46218 21.05 8.4677 21.05C8.47321 21.05 8.47873 21.05 8.48425 21.05C8.48977 21.05 8.49528 21.05 8.5008 21.05C8.50632 21.05 8.51184 21.05 8.51735 21.05C8.52287 21.05 8.52839 21.05 8.53391 21.05C8.53942 21.05 8.54494 21.05 8.55046 21.05C8.55598 21.05 8.56149 21.05 8.56701 21.05C8.57253 21.05 8.57805 21.05 8.58356 21.05C8.58908 21.05 8.5946 21.05 8.60012 21.05C8.60563 21.05 8.61115 21.05 8.61667 21.05C8.62219 21.05 8.6277 21.05 8.63322 21.05C8.63874 21.05 8.64426 21.05 8.64977 21.05C8.65529 21.05 8.66081 21.05 8.66633 21.05C8.67184 21.05 8.67736 21.05 8.68288 21.05C8.6884 21.05 8.69391 21.05 8.69943 21.05C8.70495 21.05 8.71047 21.05 8.71598 21.05C8.7215 21.05 8.72702 21.05 8.73254 21.05C8.73805 21.05 8.74357 21.05 8.74909 21.05C8.75461 21.05 8.76012 21.05 8.76564 21.05C8.77116 21.05 8.77668 21.05 8.78219 21.05C8.78771 21.05 8.79323 21.05 8.79875 21.05C8.80426 21.05 8.80978 21.05 8.8153 21.05C8.82082 21.05 8.82633 21.05 8.83185 21.05C8.83737 21.05 8.84289 21.05 8.8484 21.05C8.85392 21.05 8.85944 21.05 8.86496 21.05C8.87047 21.05 8.87599 21.05 8.88151 21.05C8.88703 21.05 8.89254 21.05 8.89806 21.05C8.90358 21.05 8.9091 21.05 8.91461 21.05C8.92013 21.05 8.92565 21.05 8.93117 21.05C8.93668 21.05 8.9422 21.05 8.94772 21.05C8.95324 21.05 8.95875 21.05 8.96427 21.05C8.96979 21.05 8.97531 21.05 8.98082 21.05C8.98634 21.05 8.99186 21.05 8.99738 21.05C9.00289 21.05 9.00841 21.05 9.01393 21.05C9.01944 21.05 9.02496 21.05 9.03048 21.05C9.036 21.05 9.04151 21.05 9.04703 21.05C9.05255 21.05 9.05807 21.05 9.06358 21.05C9.0691 21.05 9.07462 21.05 9.08014 21.05C9.08565 21.05 9.09117 21.05 9.09669 21.05C9.10221 21.05 9.10772 21.05 9.11324 21.05C9.11876 21.05 9.12428 21.05 9.12979 21.05C9.13531 21.05 9.14083 21.05 9.14635 21.05C9.15186 21.05 9.15738 21.05 9.1629 21.05C9.16842 21.05 9.17393 21.05 9.17945 21.05C9.18497 21.05 9.19049 21.05 9.196 21.05C9.20152 21.05 9.20704 21.05 9.21256 21.05C9.21807 21.05 9.22359 21.05 9.22911 21.05C9.23463 21.05 9.24014 21.05 9.24566 21.05C9.25118 21.05 9.2567 21.05 9.26221 21.05C9.26773 21.05 9.27325 21.05 9.27877 21.05C9.28428 21.05 9.2898 21.05 9.29532 21.05C9.30084 21.05 9.30635 21.05 9.31187 21.05C9.31739 21.05 9.32291 21.05 9.32842 21.05C9.33394 21.05 9.33946 21.05 9.34498 21.05C9.35049 21.05 9.35601 21.05 9.36153 21.05C9.36705 21.05 9.37256 21.05 9.37808 21.05C9.3836 21.05 9.38912 21.05 9.39463 21.05C9.40015 21.05 9.40567 21.05 9.41119 21.05C9.4167 21.05 9.42222 21.05 9.42774 21.05C9.43326 21.05 9.43877 21.05 9.44429 21.05C9.44981 21.05 9.45533 21.05 9.46084 21.05C9.46636 21.05 9.47188 21.05 9.4774 21.05C9.48291 21.05 9.48843 21.05 9.49395 21.05C9.49946 21.05 9.50498 21.05 9.5105 21.05C9.51602 21.05 9.52153 21.05 9.52705 21.05C9.53257 21.05 9.53809 21.05 9.5436 21.05C9.54912 21.05 9.55464 21.05 9.56016 21.05C9.56567 21.05 9.57119 21.05 9.57671 21.05C9.58223 21.05 9.58774 21.05 9.59326 21.05C9.59878 21.05 9.6043 21.05 9.60981 21.05C9.61533 21.05 9.62085 21.05 9.62637 21.05C9.63188 21.05 9.6374 21.05 9.64292 21.05C9.64844 21.05 9.65395 21.05 9.65947 21.05C9.66499 21.05 9.67051 21.05 9.67602 21.05C9.68154 21.05 9.68706 21.05 9.69258 21.05C9.69809 21.05 9.70361 21.05 9.70913 21.05C9.71465 21.05 9.72016 21.05 9.72568 21.05C9.7312 21.05 9.73672 21.05 9.74223 21.05C9.74775 21.05 9.75327 21.05 9.75879 21.05C9.7643 21.05 9.76982 21.05 9.77534 21.05C9.78086 21.05 9.78637 21.05 9.79189 21.05C9.79741 21.05 9.80293 21.05 9.80844 21.05C9.81396 21.05 9.81948 21.05 9.825 21.05C9.83051 21.05 9.83603 21.05 9.84155 21.05C9.84707 21.05 9.85258 21.05 9.8581 21.05C9.86362 21.05 9.86914 21.05 9.87465 21.05C9.88017 21.05 9.88569 21.05 9.89121 21.05C9.89672 21.05 9.90224 21.05 9.90776 21.05C9.91328 21.05 9.91879 21.05 9.92431 21.05C9.92983 21.05 9.93535 21.05 9.94086 21.05C9.94638 21.05 9.9519 21.05 9.95742 21.05C9.96293 21.05 9.96845 21.05 9.97397 21.05C9.97949 21.05 9.985 21.05 9.99052 21.05C9.99604 21.05 10.0016 21.05 10.0071 21.05C10.0126 21.05 10.0181 21.05 10.0236 21.05C10.0291 21.05 10.0347 21.05 10.0402 21.05C10.0457 21.05 10.0512 21.05 10.0567 21.05C10.0622 21.05 10.0678 21.05 10.0733 21.05C10.0788 21.05 10.0843 21.05 10.0898 21.05C10.0954 21.05 10.1009 21.05 10.1064 21.05C10.1119 21.05 10.1174 21.05 10.1229 21.05C10.1285 21.05 10.134 21.05 10.1395 21.05C10.145 21.05 10.1505 21.05 10.156 21.05C10.1616 21.05 10.1671 21.05 10.1726 21.05C10.1781 21.05 10.1836 21.05 10.1891 21.05C10.1947 21.05 10.2002 21.05 10.2057 21.05C10.2112 21.05 10.2167 21.05 10.2223 21.05C10.2278 21.05 10.2333 21.05 10.2388 21.05C10.2443 21.05 10.2498 21.05 10.2554 21.05C10.2609 21.05 10.2664 21.05 10.2719 21.05C10.2774 21.05 10.2829 21.05 10.2885 21.05C10.294 21.05 10.2995 21.05 10.305 21.05C10.3105 21.05 10.3161 21.05 10.3216 21.05C10.3271 21.05 10.3326 21.05 10.3381 21.05C10.3436 21.05 10.3492 21.05 10.3547 21.05C10.3602 21.05 10.3657 21.05 10.3712 21.05C10.3767 21.05 10.3823 21.05 10.3878 21.05C10.3933 21.05 10.3988 21.05 10.4043 21.05C10.4098 21.05 10.4154 21.05 10.4209 21.05C10.4264 21.05 10.4319 21.05 10.4374 21.05C10.443 21.05 10.4485 21.05 10.454 21.05C10.4595 21.05 10.465 21.05 10.4705 21.05C10.4761 21.05 10.4816 21.05 10.4871 21.05C10.4926 21.05 10.4981 21.05 10.5036 21.05C10.5092 21.05 10.5147 21.05 10.5202 21.05C10.5257 21.05 10.5312 21.05 10.5368 21.05C10.5423 21.05 10.5478 21.05 10.5533 21.05C10.5588 21.05 10.5643 21.05 10.5699 21.05C10.5754 21.05 10.5809 21.05 10.5864 21.05C10.5919 21.05 10.5974 21.05 10.603 21.05C10.6085 21.05 10.614 21.05 10.6195 21.05C10.625 21.05 10.6305 21.05 10.6361 21.05C10.6416 21.05 10.6471 21.05 10.6526 21.05C10.6581 21.05 10.6637 21.05 10.6692 21.05C10.6747 21.05 10.6802 21.05 10.6857 21.05C10.6912 21.05 10.6968 21.05 10.7023 21.05C10.7078 21.05 10.7133 21.05 10.7188 21.05C10.7243 21.05 10.7299 21.05 10.7354 21.05C10.7409 21.05 10.7464 21.05 10.7519 21.05C10.7575 21.05 10.763 21.05 10.7685 21.05C10.774 21.05 10.7795 21.05 10.785 21.05C10.7906 21.05 10.7961 21.05 10.8016 21.05C10.8071 21.05 10.8126 21.05 10.8181 21.05C10.8237 21.05 10.8292 21.05 10.8347 21.05C10.8402 21.05 10.8457 21.05 10.8512 21.05C10.8568 21.05 10.8623 21.05 10.8678 21.05C10.8733 21.05 10.8788 21.05 10.8844 21.05C10.8899 21.05 10.8954 21.05 10.9009 21.05C10.9064 21.05 10.9119 21.05 10.9175 21.05C10.923 21.05 10.9285 21.05 10.934 21.05C10.9395 21.05 10.945 21.05 10.9506 21.05C10.9561 21.05 10.9616 21.05 10.9671 21.05C10.9726 21.05 10.9781 21.05 10.9837 21.05C10.9892 21.05 10.9947 21.05 11.0002 21.05C11.0057 21.05 11.0113 21.05 11.0168 21.05C11.0223 21.05 11.0278 21.05 11.0333 21.05C11.0388 21.05 11.0444 21.05 11.0499 21.05C11.0554 21.05 11.0609 21.05 11.0664 21.05C11.0719 21.05 11.0775 21.05 11.083 21.05C11.0885 21.05 11.094 21.05 11.0995 21.05C11.1051 21.05 11.1106 21.05 11.1161 21.05C11.1216 21.05 11.1271 21.05 11.1326 21.05C11.1382 21.05 11.1437 21.05 11.1492 21.05C11.1547 21.05 11.1602 21.05 11.1657 21.05C11.1713 21.05 11.1768 21.05 11.1823 21.05C11.1878 21.05 11.1933 21.05 11.1988 21.05C11.2044 21.05 11.2099 21.05 11.2154 21.05C11.2209 21.05 11.2264 21.05 11.232 21.05C11.2375 21.05 11.243 21.05 11.2485 21.05C11.254 21.05 11.2595 21.05 11.2651 21.05C11.2706 21.05 11.2761 21.05 11.2816 21.05C11.2871 21.05 11.2926 21.05 11.2982 21.05C11.3037 21.05 11.3092 21.05 11.3147 21.05C11.3202 21.05 11.3258 21.05 11.3313 21.05C11.3368 21.05 11.3423 21.05 11.3478 21.05C11.3533 21.05 11.3589 21.05 11.3644 21.05C11.3699 21.05 11.3754 21.05 11.3809 21.05C11.3864 21.05 11.392 21.05 11.3975 21.05C11.403 21.05 11.4085 21.05 11.414 21.05C11.4195 21.05 11.4251 21.05 11.4306 21.05C11.4361 21.05 11.4416 21.05 11.4471 21.05C11.4527 21.05 11.4582 21.05 11.4637 21.05C11.4692 21.05 11.4747 21.05 11.4802 21.05C11.4858 21.05 11.4913 21.05 11.4968 21.05C11.5023 21.05 11.5078 21.05 11.5133 21.05C11.5189 21.05 11.5244 21.05 11.5299 21.05C11.5354 21.05 11.5409 21.05 11.5464 21.05C11.552 21.05 11.5575 21.05 11.563 21.05C11.5685 21.05 11.574 21.05 11.5796 21.05C11.5851 21.05 11.5906 21.05 11.5961 21.05C11.6016 21.05 11.6071 21.05 11.6127 21.05C11.6182 21.05 11.6237 21.05 11.6292 21.05C11.6347 21.05 11.6402 21.05 11.6458 21.05C11.6513 21.05 11.6568 21.05 11.6623 21.05C11.6678 21.05 11.6734 21.05 11.6789 21.05C11.6844 21.05 11.6899 21.05 11.6954 21.05C11.7009 21.05 11.7065 21.05 11.712 21.05C11.7175 21.05 11.723 21.05 11.7285 21.05C11.734 21.05 11.7396 21.05 11.7451 21.05C11.7506 21.05 11.7561 21.05 11.7616 21.05C11.7671 21.05 11.7727 21.05 11.7782 21.05C11.7837 21.05 11.7892 21.05 11.7947 21.05C11.8003 21.05 11.8058 21.05 11.8113 21.05C11.8168 21.05 11.8223 21.05 11.8278 21.05C11.8334 21.05 11.8389 21.05 11.8444 21.05C11.8499 21.05 11.8554 21.05 11.8609 21.05C11.8665 21.05 11.872 21.05 11.8775 21.05C11.883 21.05 11.8885 21.05 11.8941 21.05C11.8996 21.05 11.9051 21.05 11.9106 21.05C11.9161 21.05 11.9216 21.05 11.9272 21.05C11.9327 21.05 11.9382 21.05 11.9437 21.05C11.9492 21.05 11.9547 21.05 11.9603 21.05C11.9658 21.05 11.9713 21.05 11.9768 21.05C11.9823 21.05 11.9878 21.05 11.9934 21.05C11.9989 21.05 12.0044 21.05 12.0099 21.05C12.0154 21.05 12.021 21.05 12.0265 21.05C12.032 21.05 12.0375 21.05 12.043 21.05C12.0485 21.05 12.0541 21.05 12.0596 21.05C12.0651 21.05 12.0706 21.05 12.0761 21.05C12.0816 21.05 12.0872 21.05 12.0927 21.05C12.0982 21.05 12.1037 21.05 12.1092 21.05C12.1147 21.05 12.1203 21.05 12.1258 21.05C12.1313 21.05 12.1368 21.05 12.1423 21.05C12.1479 21.05 12.1534 21.05 12.1589 21.05C12.1644 21.05 12.1699 21.05 12.1754 21.05C12.181 21.05 12.1865 21.05 12.192 21.05C12.1975 21.05 12.203 21.05 12.2085 21.05C12.2141 21.05 12.2196 21.05 12.2251 21.05C12.2306 21.05 12.2361 21.05 12.2417 21.05C12.2472 21.05 12.2527 21.05 12.2582 21.05C12.2637 21.05 12.2692 21.05 12.2748 21.05C12.2803 21.05 12.2858 21.05 12.2913 21.05C12.2968 21.05 12.3023 21.05 12.3079 21.05C12.3134 21.05 12.3189 21.05 12.3244 21.05C12.3299 21.05 12.3354 21.05 12.341 21.05C12.3465 21.05 12.352 21.05 12.3575 21.05C12.363 21.05 12.3686 21.05 12.3741 21.05C12.3796 21.05 12.3851 21.05 12.3906 21.05C12.3961 21.05 12.4017 21.05 12.4072 21.05C12.4127 21.05 12.4182 21.05 12.4237 21.05C12.4292 21.05 12.4348 21.05 12.4403 21.05C12.4458 21.05 12.4513 21.05 12.4568 21.05C12.4624 21.05 12.4679 21.05 12.4734 21.05C12.4789 21.05 12.4844 21.05 12.4899 21.05C12.4955 21.05 12.501 21.05 12.5065 21.05C12.512 21.05 12.5175 21.05 12.523 21.05C12.5286 21.05 12.5341 21.05 12.5396 21.05C12.5451 21.05 12.5506 21.05 12.5561 21.05C12.5617 21.05 12.5672 21.05 12.5727 21.05C12.5782 21.05 12.5837 21.05 12.5893 21.05C12.5948 21.05 12.6003 21.05 12.6058 21.05C12.6113 21.05 12.6168 21.05 12.6224 21.05C12.6279 21.05 12.6334 21.05 12.6389 21.05C12.6444 21.05 12.6499 21.05 12.6555 21.05C12.661 21.05 12.6665 21.05 12.672 21.05C12.6775 21.05 12.6831 21.05 12.6886 21.05C12.6941 21.05 12.6996 21.05 12.7051 21.05C12.7106 21.05 12.7162 21.05 12.7217 21.05C12.7272 21.05 12.7327 21.05 12.7382 21.05C12.7437 21.05 12.7493 21.05 12.7548 21.05C12.7603 21.05 12.7658 21.05 12.7713 21.05C12.7768 21.05 12.7824 21.05 12.7879 21.05C12.7934 21.05 12.7989 21.05 12.8044 21.05C12.81 21.05 12.8155 21.05 12.821 21.05C12.8265 21.05 12.832 21.05 12.8375 21.05C12.8431 21.05 12.8486 21.05 12.8541 21.05C12.8596 21.05 12.8651 21.05 12.8706 21.05C12.8762 21.05 12.8817 21.05 12.8872 21.05C12.8927 21.05 12.8982 21.05 12.9037 21.05C12.9093 21.05 12.9148 21.05 12.9203 21.05C12.9258 21.05 12.9313 21.05 12.9369 21.05C12.9424 21.05 12.9479 21.05 12.9534 21.05C12.9589 21.05 12.9644 21.05 12.97 21.05C12.9755 21.05 12.981 21.05 12.9865 21.05C12.992 21.05 12.9975 21.05 13.0031 21.05C13.0086 21.05 13.0141 21.05 13.0196 21.05C13.0251 21.05 13.0307 21.05 13.0362 21.05C13.0417 21.05 13.0472 21.05 13.0527 21.05C13.0582 21.05 13.0638 21.05 13.0693 21.05C13.0748 21.05 13.0803 21.05 13.0858 21.05C13.0913 21.05 13.0969 21.05 13.1024 21.05C13.1079 21.05 13.1134 21.05 13.1189 21.05C13.1244 21.05 13.13 21.05 13.1355 21.05C13.141 21.05 13.1465 21.05 13.152 21.05C13.1576 21.05 13.1631 21.05 13.1686 21.05C13.1741 21.05 13.1796 21.05 13.1851 21.05C13.1907 21.05 13.1962 21.05 13.2017 21.05C13.2072 21.05 13.2127 21.05 13.2182 21.05C13.2238 21.05 13.2293 21.05 13.2348 21.05C13.2403 21.05 13.2458 21.05 13.2514 21.05C13.2569 21.05 13.2624 21.05 13.2679 21.05C13.2734 21.05 13.2789 21.05 13.2845 21.05C13.29 21.05 13.2955 21.05 13.301 21.05C13.3065 21.05 13.312 21.05 13.3176 21.05C13.3231 21.05 13.3286 21.05 13.3341 21.05C13.3396 21.05 13.3451 21.05 13.3507 21.05C13.3562 21.05 13.3617 21.05 13.3672 21.05C13.3727 21.05 13.3783 21.05 13.3838 21.05C13.3893 21.05 13.3948 21.05 13.4003 21.05C13.4058 21.05 13.4114 21.05 13.4169 21.05C13.4224 21.05 13.4279 21.05 13.4334 21.05C13.4389 21.05 13.4445 21.05 13.45 21.05C13.4555 21.05 13.461 21.05 13.4665 21.05C13.472 21.05 13.4776 21.05 13.4831 21.05C13.4886 21.05 13.4941 21.05 13.4996 21.05C13.5052 21.05 13.5107 21.05 13.5162 21.05C13.5217 21.05 13.5272 21.05 13.5327 21.05C13.5383 21.05 13.5438 21.05 13.5493 21.05C13.5548 21.05 13.5603 21.05 13.5658 21.05C13.5714 21.05 13.5769 21.05 13.5824 21.05C13.5879 21.05 13.5934 21.05 13.599 21.05C13.6045 21.05 13.61 21.05 13.6155 21.05C13.621 21.05 13.6265 21.05 13.6321 21.05C13.6376 21.05 13.6431 21.05 13.6486 21.05C13.6541 21.05 13.6596 21.05 13.6652 21.05C13.6707 21.05 13.6762 21.05 13.6817 21.05C13.6872 21.05 13.6927 21.05 13.6983 21.05C13.7038 21.05 13.7093 21.05 13.7148 21.05C13.7203 21.05 13.7259 21.05 13.7314 21.05C13.7369 21.05 13.7424 21.05 13.7479 21.05C13.7534 21.05 13.759 21.05 13.7645 21.05C13.77 21.05 13.7755 21.05 13.781 21.05C13.7865 21.05 13.7921 21.05 13.7976 21.05C13.8031 21.05 13.8086 21.05 13.8141 21.05C13.8197 21.05 13.8252 21.05 13.8307 21.05C13.8362 21.05 13.8417 21.05 13.8472 21.05C13.8528 21.05 13.8583 21.05 13.8638 21.05C13.8693 21.05 13.8748 21.05 13.8803 21.05C13.8859 21.05 13.8914 21.05 13.8969 21.05V20.95C13.8914 20.95 13.8859 20.95 13.8803 20.95C13.8748 20.95 13.8693 20.95 13.8638 20.95C13.8583 20.95 13.8528 20.95 13.8472 20.95C13.8417 20.95 13.8362 20.95 13.8307 20.95C13.8252 20.95 13.8197 20.95 13.8141 20.95C13.8086 20.95 13.8031 20.95 13.7976 20.95C13.7921 20.95 13.7865 20.95 13.781 20.95C13.7755 20.95 13.77 20.95 13.7645 20.95C13.759 20.95 13.7534 20.95 13.7479 20.95C13.7424 20.95 13.7369 20.95 13.7314 20.95C13.7259 20.95 13.7203 20.95 13.7148 20.95C13.7093 20.95 13.7038 20.95 13.6983 20.95C13.6927 20.95 13.6872 20.95 13.6817 20.95C13.6762 20.95 13.6707 20.95 13.6652 20.95C13.6596 20.95 13.6541 20.95 13.6486 20.95C13.6431 20.95 13.6376 20.95 13.6321 20.95C13.6265 20.95 13.621 20.95 13.6155 20.95C13.61 20.95 13.6045 20.95 13.599 20.95C13.5934 20.95 13.5879 20.95 13.5824 20.95C13.5769 20.95 13.5714 20.95 13.5658 20.95C13.5603 20.95 13.5548 20.95 13.5493 20.95C13.5438 20.95 13.5383 20.95 13.5327 20.95C13.5272 20.95 13.5217 20.95 13.5162 20.95C13.5107 20.95 13.5052 20.95 13.4996 20.95C13.4941 20.95 13.4886 20.95 13.4831 20.95C13.4776 20.95 13.472 20.95 13.4665 20.95C13.461 20.95 13.4555 20.95 13.45 20.95C13.4445 20.95 13.4389 20.95 13.4334 20.95C13.4279 20.95 13.4224 20.95 13.4169 20.95C13.4114 20.95 13.4058 20.95 13.4003 20.95C13.3948 20.95 13.3893 20.95 13.3838 20.95C13.3783 20.95 13.3727 20.95 13.3672 20.95C13.3617 20.95 13.3562 20.95 13.3507 20.95C13.3451 20.95 13.3396 20.95 13.3341 20.95C13.3286 20.95 13.3231 20.95 13.3176 20.95C13.312 20.95 13.3065 20.95 13.301 20.95C13.2955 20.95 13.29 20.95 13.2845 20.95C13.2789 20.95 13.2734 20.95 13.2679 20.95C13.2624 20.95 13.2569 20.95 13.2514 20.95C13.2458 20.95 13.2403 20.95 13.2348 20.95C13.2293 20.95 13.2238 20.95 13.2182 20.95C13.2127 20.95 13.2072 20.95 13.2017 20.95C13.1962 20.95 13.1907 20.95 13.1851 20.95C13.1796 20.95 13.1741 20.95 13.1686 20.95C13.1631 20.95 13.1576 20.95 13.152 20.95C13.1465 20.95 13.141 20.95 13.1355 20.95C13.13 20.95 13.1244 20.95 13.1189 20.95C13.1134 20.95 13.1079 20.95 13.1024 20.95C13.0969 20.95 13.0913 20.95 13.0858 20.95C13.0803 20.95 13.0748 20.95 13.0693 20.95C13.0638 20.95 13.0582 20.95 13.0527 20.95C13.0472 20.95 13.0417 20.95 13.0362 20.95C13.0307 20.95 13.0251 20.95 13.0196 20.95C13.0141 20.95 13.0086 20.95 13.0031 20.95C12.9975 20.95 12.992 20.95 12.9865 20.95C12.981 20.95 12.9755 20.95 12.97 20.95C12.9644 20.95 12.9589 20.95 12.9534 20.95C12.9479 20.95 12.9424 20.95 12.9369 20.95C12.9313 20.95 12.9258 20.95 12.9203 20.95C12.9148 20.95 12.9093 20.95 12.9037 20.95C12.8982 20.95 12.8927 20.95 12.8872 20.95C12.8817 20.95 12.8762 20.95 12.8706 20.95C12.8651 20.95 12.8596 20.95 12.8541 20.95C12.8486 20.95 12.8431 20.95 12.8375 20.95C12.832 20.95 12.8265 20.95 12.821 20.95C12.8155 20.95 12.81 20.95 12.8044 20.95C12.7989 20.95 12.7934 20.95 12.7879 20.95C12.7824 20.95 12.7768 20.95 12.7713 20.95C12.7658 20.95 12.7603 20.95 12.7548 20.95C12.7493 20.95 12.7437 20.95 12.7382 20.95C12.7327 20.95 12.7272 20.95 12.7217 20.95C12.7162 20.95 12.7106 20.95 12.7051 20.95C12.6996 20.95 12.6941 20.95 12.6886 20.95C12.6831 20.95 12.6775 20.95 12.672 20.95C12.6665 20.95 12.661 20.95 12.6555 20.95C12.6499 20.95 12.6444 20.95 12.6389 20.95C12.6334 20.95 12.6279 20.95 12.6224 20.95C12.6168 20.95 12.6113 20.95 12.6058 20.95C12.6003 20.95 12.5948 20.95 12.5893 20.95C12.5837 20.95 12.5782 20.95 12.5727 20.95C12.5672 20.95 12.5617 20.95 12.5561 20.95C12.5506 20.95 12.5451 20.95 12.5396 20.95C12.5341 20.95 12.5286 20.95 12.523 20.95C12.5175 20.95 12.512 20.95 12.5065 20.95C12.501 20.95 12.4955 20.95 12.4899 20.95C12.4844 20.95 12.4789 20.95 12.4734 20.95C12.4679 20.95 12.4624 20.95 12.4568 20.95C12.4513 20.95 12.4458 20.95 12.4403 20.95C12.4348 20.95 12.4292 20.95 12.4237 20.95C12.4182 20.95 12.4127 20.95 12.4072 20.95C12.4017 20.95 12.3961 20.95 12.3906 20.95C12.3851 20.95 12.3796 20.95 12.3741 20.95C12.3686 20.95 12.363 20.95 12.3575 20.95C12.352 20.95 12.3465 20.95 12.341 20.95C12.3354 20.95 12.3299 20.95 12.3244 20.95C12.3189 20.95 12.3134 20.95 12.3079 20.95C12.3023 20.95 12.2968 20.95 12.2913 20.95C12.2858 20.95 12.2803 20.95 12.2748 20.95C12.2692 20.95 12.2637 20.95 12.2582 20.95C12.2527 20.95 12.2472 20.95 12.2417 20.95C12.2361 20.95 12.2306 20.95 12.2251 20.95C12.2196 20.95 12.2141 20.95 12.2085 20.95C12.203 20.95 12.1975 20.95 12.192 20.95C12.1865 20.95 12.181 20.95 12.1754 20.95C12.1699 20.95 12.1644 20.95 12.1589 20.95C12.1534 20.95 12.1479 20.95 12.1423 20.95C12.1368 20.95 12.1313 20.95 12.1258 20.95C12.1203 20.95 12.1147 20.95 12.1092 20.95C12.1037 20.95 12.0982 20.95 12.0927 20.95C12.0872 20.95 12.0816 20.95 12.0761 20.95C12.0706 20.95 12.0651 20.95 12.0596 20.95C12.0541 20.95 12.0485 20.95 12.043 20.95C12.0375 20.95 12.032 20.95 12.0265 20.95C12.021 20.95 12.0154 20.95 12.0099 20.95C12.0044 20.95 11.9989 20.95 11.9934 20.95C11.9878 20.95 11.9823 20.95 11.9768 20.95C11.9713 20.95 11.9658 20.95 11.9603 20.95C11.9547 20.95 11.9492 20.95 11.9437 20.95C11.9382 20.95 11.9327 20.95 11.9272 20.95C11.9216 20.95 11.9161 20.95 11.9106 20.95C11.9051 20.95 11.8996 20.95 11.8941 20.95C11.8885 20.95 11.883 20.95 11.8775 20.95C11.872 20.95 11.8665 20.95 11.8609 20.95C11.8554 20.95 11.8499 20.95 11.8444 20.95C11.8389 20.95 11.8334 20.95 11.8278 20.95C11.8223 20.95 11.8168 20.95 11.8113 20.95C11.8058 20.95 11.8003 20.95 11.7947 20.95C11.7892 20.95 11.7837 20.95 11.7782 20.95C11.7727 20.95 11.7671 20.95 11.7616 20.95C11.7561 20.95 11.7506 20.95 11.7451 20.95C11.7396 20.95 11.734 20.95 11.7285 20.95C11.723 20.95 11.7175 20.95 11.712 20.95C11.7065 20.95 11.7009 20.95 11.6954 20.95C11.6899 20.95 11.6844 20.95 11.6789 20.95C11.6734 20.95 11.6678 20.95 11.6623 20.95C11.6568 20.95 11.6513 20.95 11.6458 20.95C11.6402 20.95 11.6347 20.95 11.6292 20.95C11.6237 20.95 11.6182 20.95 11.6127 20.95C11.6071 20.95 11.6016 20.95 11.5961 20.95C11.5906 20.95 11.5851 20.95 11.5796 20.95C11.574 20.95 11.5685 20.95 11.563 20.95C11.5575 20.95 11.552 20.95 11.5464 20.95C11.5409 20.95 11.5354 20.95 11.5299 20.95C11.5244 20.95 11.5189 20.95 11.5133 20.95C11.5078 20.95 11.5023 20.95 11.4968 20.95C11.4913 20.95 11.4858 20.95 11.4802 20.95C11.4747 20.95 11.4692 20.95 11.4637 20.95C11.4582 20.95 11.4527 20.95 11.4471 20.95C11.4416 20.95 11.4361 20.95 11.4306 20.95C11.4251 20.95 11.4195 20.95 11.414 20.95C11.4085 20.95 11.403 20.95 11.3975 20.95C11.392 20.95 11.3864 20.95 11.3809 20.95C11.3754 20.95 11.3699 20.95 11.3644 20.95C11.3589 20.95 11.3533 20.95 11.3478 20.95C11.3423 20.95 11.3368 20.95 11.3313 20.95C11.3258 20.95 11.3202 20.95 11.3147 20.95C11.3092 20.95 11.3037 20.95 11.2982 20.95C11.2926 20.95 11.2871 20.95 11.2816 20.95C11.2761 20.95 11.2706 20.95 11.2651 20.95C11.2595 20.95 11.254 20.95 11.2485 20.95C11.243 20.95 11.2375 20.95 11.232 20.95C11.2264 20.95 11.2209 20.95 11.2154 20.95C11.2099 20.95 11.2044 20.95 11.1988 20.95C11.1933 20.95 11.1878 20.95 11.1823 20.95C11.1768 20.95 11.1713 20.95 11.1657 20.95C11.1602 20.95 11.1547 20.95 11.1492 20.95C11.1437 20.95 11.1382 20.95 11.1326 20.95C11.1271 20.95 11.1216 20.95 11.1161 20.95C11.1106 20.95 11.1051 20.95 11.0995 20.95C11.094 20.95 11.0885 20.95 11.083 20.95C11.0775 20.95 11.0719 20.95 11.0664 20.95C11.0609 20.95 11.0554 20.95 11.0499 20.95C11.0444 20.95 11.0388 20.95 11.0333 20.95C11.0278 20.95 11.0223 20.95 11.0168 20.95C11.0113 20.95 11.0057 20.95 11.0002 20.95C10.9947 20.95 10.9892 20.95 10.9837 20.95C10.9781 20.95 10.9726 20.95 10.9671 20.95C10.9616 20.95 10.9561 20.95 10.9506 20.95C10.945 20.95 10.9395 20.95 10.934 20.95C10.9285 20.95 10.923 20.95 10.9175 20.95C10.9119 20.95 10.9064 20.95 10.9009 20.95C10.8954 20.95 10.8899 20.95 10.8844 20.95C10.8788 20.95 10.8733 20.95 10.8678 20.95C10.8623 20.95 10.8568 20.95 10.8512 20.95C10.8457 20.95 10.8402 20.95 10.8347 20.95C10.8292 20.95 10.8237 20.95 10.8181 20.95C10.8126 20.95 10.8071 20.95 10.8016 20.95C10.7961 20.95 10.7906 20.95 10.785 20.95C10.7795 20.95 10.774 20.95 10.7685 20.95C10.763 20.95 10.7575 20.95 10.7519 20.95C10.7464 20.95 10.7409 20.95 10.7354 20.95C10.7299 20.95 10.7243 20.95 10.7188 20.95C10.7133 20.95 10.7078 20.95 10.7023 20.95C10.6968 20.95 10.6912 20.95 10.6857 20.95C10.6802 20.95 10.6747 20.95 10.6692 20.95C10.6637 20.95 10.6581 20.95 10.6526 20.95C10.6471 20.95 10.6416 20.95 10.6361 20.95C10.6305 20.95 10.625 20.95 10.6195 20.95C10.614 20.95 10.6085 20.95 10.603 20.95C10.5974 20.95 10.5919 20.95 10.5864 20.95C10.5809 20.95 10.5754 20.95 10.5699 20.95C10.5643 20.95 10.5588 20.95 10.5533 20.95C10.5478 20.95 10.5423 20.95 10.5368 20.95C10.5312 20.95 10.5257 20.95 10.5202 20.95C10.5147 20.95 10.5092 20.95 10.5036 20.95C10.4981 20.95 10.4926 20.95 10.4871 20.95C10.4816 20.95 10.4761 20.95 10.4705 20.95C10.465 20.95 10.4595 20.95 10.454 20.95C10.4485 20.95 10.443 20.95 10.4374 20.95C10.4319 20.95 10.4264 20.95 10.4209 20.95C10.4154 20.95 10.4098 20.95 10.4043 20.95C10.3988 20.95 10.3933 20.95 10.3878 20.95C10.3823 20.95 10.3767 20.95 10.3712 20.95C10.3657 20.95 10.3602 20.95 10.3547 20.95C10.3492 20.95 10.3436 20.95 10.3381 20.95C10.3326 20.95 10.3271 20.95 10.3216 20.95C10.3161 20.95 10.3105 20.95 10.305 20.95C10.2995 20.95 10.294 20.95 10.2885 20.95C10.2829 20.95 10.2774 20.95 10.2719 20.95C10.2664 20.95 10.2609 20.95 10.2554 20.95C10.2498 20.95 10.2443 20.95 10.2388 20.95C10.2333 20.95 10.2278 20.95 10.2223 20.95C10.2167 20.95 10.2112 20.95 10.2057 20.95C10.2002 20.95 10.1947 20.95 10.1891 20.95C10.1836 20.95 10.1781 20.95 10.1726 20.95C10.1671 20.95 10.1616 20.95 10.156 20.95C10.1505 20.95 10.145 20.95 10.1395 20.95C10.134 20.95 10.1285 20.95 10.1229 20.95C10.1174 20.95 10.1119 20.95 10.1064 20.95C10.1009 20.95 10.0954 20.95 10.0898 20.95C10.0843 20.95 10.0788 20.95 10.0733 20.95C10.0678 20.95 10.0622 20.95 10.0567 20.95C10.0512 20.95 10.0457 20.95 10.0402 20.95C10.0347 20.95 10.0291 20.95 10.0236 20.95C10.0181 20.95 10.0126 20.95 10.0071 20.95C10.0016 20.95 9.99604 20.95 9.99052 20.95C9.985 20.95 9.97949 20.95 9.97397 20.95C9.96845 20.95 9.96293 20.95 9.95742 20.95C9.9519 20.95 9.94638 20.95 9.94086 20.95C9.93535 20.95 9.92983 20.95 9.92431 20.95C9.91879 20.95 9.91328 20.95 9.90776 20.95C9.90224 20.95 9.89672 20.95 9.89121 20.95C9.88569 20.95 9.88017 20.95 9.87465 20.95C9.86914 20.95 9.86362 20.95 9.8581 20.95C9.85258 20.95 9.84707 20.95 9.84155 20.95C9.83603 20.95 9.83051 20.95 9.825 20.95C9.81948 20.95 9.81396 20.95 9.80844 20.95C9.80293 20.95 9.79741 20.95 9.79189 20.95C9.78637 20.95 9.78086 20.95 9.77534 20.95C9.76982 20.95 9.7643 20.95 9.75879 20.95C9.75327 20.95 9.74775 20.95 9.74223 20.95C9.73672 20.95 9.7312 20.95 9.72568 20.95C9.72016 20.95 9.71465 20.95 9.70913 20.95C9.70361 20.95 9.69809 20.95 9.69258 20.95C9.68706 20.95 9.68154 20.95 9.67602 20.95C9.67051 20.95 9.66499 20.95 9.65947 20.95C9.65395 20.95 9.64844 20.95 9.64292 20.95C9.6374 20.95 9.63188 20.95 9.62637 20.95C9.62085 20.95 9.61533 20.95 9.60981 20.95C9.6043 20.95 9.59878 20.95 9.59326 20.95C9.58774 20.95 9.58223 20.95 9.57671 20.95C9.57119 20.95 9.56567 20.95 9.56016 20.95C9.55464 20.95 9.54912 20.95 9.5436 20.95C9.53809 20.95 9.53257 20.95 9.52705 20.95C9.52153 20.95 9.51602 20.95 9.5105 20.95C9.50498 20.95 9.49946 20.95 9.49395 20.95C9.48843 20.95 9.48291 20.95 9.4774 20.95C9.47188 20.95 9.46636 20.95 9.46084 20.95C9.45533 20.95 9.44981 20.95 9.44429 20.95C9.43877 20.95 9.43326 20.95 9.42774 20.95C9.42222 20.95 9.4167 20.95 9.41119 20.95C9.40567 20.95 9.40015 20.95 9.39463 20.95C9.38912 20.95 9.3836 20.95 9.37808 20.95C9.37256 20.95 9.36705 20.95 9.36153 20.95C9.35601 20.95 9.35049 20.95 9.34498 20.95C9.33946 20.95 9.33394 20.95 9.32842 20.95C9.32291 20.95 9.31739 20.95 9.31187 20.95C9.30635 20.95 9.30084 20.95 9.29532 20.95C9.2898 20.95 9.28428 20.95 9.27877 20.95C9.27325 20.95 9.26773 20.95 9.26221 20.95C9.2567 20.95 9.25118 20.95 9.24566 20.95C9.24014 20.95 9.23463 20.95 9.22911 20.95C9.22359 20.95 9.21807 20.95 9.21256 20.95C9.20704 20.95 9.20152 20.95 9.196 20.95C9.19049 20.95 9.18497 20.95 9.17945 20.95C9.17393 20.95 9.16842 20.95 9.1629 20.95C9.15738 20.95 9.15186 20.95 9.14635 20.95C9.14083 20.95 9.13531 20.95 9.12979 20.95C9.12428 20.95 9.11876 20.95 9.11324 20.95C9.10772 20.95 9.10221 20.95 9.09669 20.95C9.09117 20.95 9.08565 20.95 9.08014 20.95C9.07462 20.95 9.0691 20.95 9.06358 20.95C9.05807 20.95 9.05255 20.95 9.04703 20.95C9.04151 20.95 9.036 20.95 9.03048 20.95C9.02496 20.95 9.01944 20.95 9.01393 20.95C9.00841 20.95 9.00289 20.95 8.99738 20.95C8.99186 20.95 8.98634 20.95 8.98082 20.95C8.97531 20.95 8.96979 20.95 8.96427 20.95C8.95875 20.95 8.95324 20.95 8.94772 20.95C8.9422 20.95 8.93668 20.95 8.93117 20.95C8.92565 20.95 8.92013 20.95 8.91461 20.95C8.9091 20.95 8.90358 20.95 8.89806 20.95C8.89254 20.95 8.88703 20.95 8.88151 20.95C8.87599 20.95 8.87047 20.95 8.86496 20.95C8.85944 20.95 8.85392 20.95 8.8484 20.95C8.84289 20.95 8.83737 20.95 8.83185 20.95C8.82633 20.95 8.82082 20.95 8.8153 20.95C8.80978 20.95 8.80426 20.95 8.79875 20.95C8.79323 20.95 8.78771 20.95 8.78219 20.95C8.77668 20.95 8.77116 20.95 8.76564 20.95C8.76012 20.95 8.75461 20.95 8.74909 20.95C8.74357 20.95 8.73805 20.95 8.73254 20.95C8.72702 20.95 8.7215 20.95 8.71598 20.95C8.71047 20.95 8.70495 20.95 8.69943 20.95C8.69391 20.95 8.6884 20.95 8.68288 20.95C8.67736 20.95 8.67184 20.95 8.66633 20.95C8.66081 20.95 8.65529 20.95 8.64977 20.95C8.64426 20.95 8.63874 20.95 8.63322 20.95C8.6277 20.95 8.62219 20.95 8.61667 20.95C8.61115 20.95 8.60563 20.95 8.60012 20.95C8.5946 20.95 8.58908 20.95 8.58356 20.95C8.57805 20.95 8.57253 20.95 8.56701 20.95C8.56149 20.95 8.55598 20.95 8.55046 20.95C8.54494 20.95 8.53942 20.95 8.53391 20.95C8.52839 20.95 8.52287 20.95 8.51735 20.95C8.51184 20.95 8.50632 20.95 8.5008 20.95C8.49528 20.95 8.48977 20.95 8.48425 20.95C8.47873 20.95 8.47321 20.95 8.4677 20.95C8.46218 20.95 8.45666 20.95 8.45114 20.95C8.44563 20.95 8.44011 20.95 8.43459 20.95C8.42907 20.95 8.42356 20.95 8.41804 20.95C8.41252 20.95 8.407 20.95 8.40149 20.95C8.39597 20.95 8.39045 20.95 8.38493 20.95C8.37942 20.95 8.3739 20.95 8.36838 20.95C8.36286 20.95 8.35735 20.95 8.35183 20.95C8.34631 20.95 8.3408 20.95 8.33528 20.95C8.32976 20.95 8.32424 20.95 8.31873 20.95C8.31321 20.95 8.30769 20.95 8.30217 20.95C8.29666 20.95 8.29114 20.95 8.28562 20.95C8.2801 20.95 8.27459 20.95 8.26907 20.95C8.26355 20.95 8.25803 20.95 8.25252 20.95C8.247 20.95 8.24148 20.95 8.23596 20.95C8.23045 20.95 8.22493 20.95 8.21941 20.95C8.21389 20.95 8.20838 20.95 8.20286 20.95C8.19734 20.95 8.19182 20.95 8.18631 20.95C8.18079 20.95 8.17527 20.95 8.16975 20.95C8.16424 20.95 8.15872 20.95 8.1532 20.95C8.14768 20.95 8.14217 20.95 8.13665 20.95C8.13113 20.95 8.12561 20.95 8.1201 20.95C8.11458 20.95 8.10906 20.95 8.10354 20.95C8.09803 20.95 8.09251 20.95 8.08699 20.95C8.08147 20.95 8.07596 20.95 8.07044 20.95C8.06492 20.95 8.0594 20.95 8.05389 20.95C8.04837 20.95 8.04285 20.95 8.03733 20.95C8.03182 20.95 8.0263 20.95 8.02078 20.95C8.01526 20.95 8.00975 20.95 8.00423 20.95C7.99871 20.95 7.99319 20.95 7.98768 20.95C7.98216 20.95 7.97664 20.95 7.97112 20.95C7.96561 20.95 7.96009 20.95 7.95457 20.95C7.94905 20.95 7.94354 20.95 7.93802 20.95C7.9325 20.95 7.92698 20.95 7.92147 20.95C7.91595 20.95 7.91043 20.95 7.90491 20.95C7.8994 20.95 7.89388 20.95 7.88836 20.95C7.88284 20.95 7.87733 20.95 7.87181 20.95C7.86629 20.95 7.86077 20.95 7.85526 20.95C7.84974 20.95 7.84422 20.95 7.8387 20.95C7.83319 20.95 7.82767 20.95 7.82215 20.95C7.81663 20.95 7.81112 20.95 7.8056 20.95C7.80008 20.95 7.79456 20.95 7.78905 20.95C7.78353 20.95 7.77801 20.95 7.77249 20.95C7.76698 20.95 7.76146 20.95 7.75594 20.95C7.75042 20.95 7.74491 20.95 7.73939 20.95C7.73387 20.95 7.72835 20.95 7.72284 20.95C7.71732 20.95 7.7118 20.95 7.70628 20.95C7.70077 20.95 7.69525 20.95 7.68973 20.95C7.68422 20.95 7.6787 20.95 7.67318 20.95C7.66766 20.95 7.66215 20.95 7.65663 20.95C7.65111 20.95 7.64559 20.95 7.64008 20.95C7.63456 20.95 7.62904 20.95 7.62352 20.95C7.61801 20.95 7.61249 20.95 7.60697 20.95C7.60145 20.95 7.59594 20.95 7.59042 20.95C7.5849 20.95 7.57938 20.95 7.57387 20.95C7.56835 20.95 7.56283 20.95 7.55731 20.95C7.5518 20.95 7.54628 20.95 7.54076 20.95C7.53524 20.95 7.52973 20.95 7.52421 20.95C7.51869 20.95 7.51317 20.95 7.50766 20.95C7.50214 20.95 7.49662 20.95 7.4911 20.95C7.48559 20.95 7.48007 20.95 7.47455 20.95C7.46903 20.95 7.46352 20.95 7.458 20.95C7.45248 20.95 7.44696 20.95 7.44145 20.95C7.43593 20.95 7.43041 20.95 7.42489 20.95C7.41938 20.95 7.41386 20.95 7.40834 20.95C7.40282 20.95 7.39731 20.95 7.39179 20.95C7.38627 20.95 7.38075 20.95 7.37524 20.95C7.36972 20.95 7.3642 20.95 7.35868 20.95C7.35317 20.95 7.34765 20.95 7.34213 20.95C7.33661 20.95 7.3311 20.95 7.32558 20.95C7.32006 20.95 7.31454 20.95 7.30903 20.95C7.30351 20.95 7.29799 20.95 7.29247 20.95C7.28696 20.95 7.28144 20.95 7.27592 20.95C7.2704 20.95 7.26489 20.95 7.25937 20.95C7.25385 20.95 7.24833 20.95 7.24282 20.95C7.2373 20.95 7.23178 20.95 7.22626 20.95C7.22075 20.95 7.21523 20.95 7.20971 20.95C7.20419 20.95 7.19868 20.95 7.19316 20.95C7.18764 20.95 7.18212 20.95 7.17661 20.95C7.17109 20.95 7.16557 20.95 7.16005 20.95C7.15454 20.95 7.14902 20.95 7.1435 20.95C7.13798 20.95 7.13247 20.95 7.12695 20.95C7.12143 20.95 7.11591 20.95 7.1104 20.95C7.10488 20.95 7.09936 20.95 7.09384 20.95C7.08833 20.95 7.08281 20.95 7.07729 20.95C7.07177 20.95 7.06626 20.95 7.06074 20.95C7.05522 20.95 7.04971 20.95 7.04419 20.95C7.03867 20.95 7.03315 20.95 7.02764 20.95C7.02212 20.95 7.0166 20.95 7.01108 20.95C7.00557 20.95 7.00005 20.95 6.99453 20.95C6.98901 20.95 6.9835 20.95 6.97798 20.95C6.97246 20.95 6.96694 20.95 6.96143 20.95C6.95591 20.95 6.95039 20.95 6.94487 20.95C6.93936 20.95 6.93384 20.95 6.92832 20.95C6.9228 20.95 6.91729 20.95 6.91177 20.95C6.90625 20.95 6.90073 20.95 6.89522 20.95C6.8897 20.95 6.88418 20.95 6.87866 20.95C6.87315 20.95 6.86763 20.95 6.86211 20.95C6.85659 20.95 6.85108 20.95 6.84556 20.95C6.84004 20.95 6.83452 20.95 6.82901 20.95C6.82349 20.95 6.81797 20.95 6.81245 20.95C6.80694 20.95 6.80142 20.95 6.7959 20.95C6.79038 20.95 6.78487 20.95 6.77935 20.95C6.77383 20.95 6.76831 20.95 6.7628 20.95C6.75728 20.95 6.75176 20.95 6.74624 20.95C6.74073 20.95 6.73521 20.95 6.72969 20.95C6.72417 20.95 6.71866 20.95 6.71314 20.95C6.70762 20.95 6.7021 20.95 6.69659 20.95C6.69107 20.95 6.68555 20.95 6.68003 20.95C6.67452 20.95 6.669 20.95 6.66348 20.95C6.65796 20.95 6.65245 20.95 6.64693 20.95C6.64141 20.95 6.63589 20.95 6.63038 20.95C6.62486 20.95 6.61934 20.95 6.61382 20.95C6.60831 20.95 6.60279 20.95 6.59727 20.95C6.59175 20.95 6.58624 20.95 6.58072 20.95C6.5752 20.95 6.56968 20.95 6.56417 20.95C6.55865 20.95 6.55313 20.95 6.54761 20.95C6.5421 20.95 6.53658 20.95 6.53106 20.95C6.52554 20.95 6.52003 20.95 6.51451 20.95C6.50899 20.95 6.50347 20.95 6.49796 20.95C6.49244 20.95 6.48692 20.95 6.4814 20.95C6.47589 20.95 6.47037 20.95 6.46485 20.95C6.45933 20.95 6.45382 20.95 6.4483 20.95C6.44278 20.95 6.43726 20.95 6.43175 20.95C6.42623 20.95 6.42071 20.95 6.41519 20.95C6.40968 20.95 6.40416 20.95 6.39864 20.95C6.39313 20.95 6.38761 20.95 6.38209 20.95C6.37657 20.95 6.37106 20.95 6.36554 20.95C6.36002 20.95 6.3545 20.95 6.34899 20.95C6.34347 20.95 6.33795 20.95 6.33243 20.95C6.32692 20.95 6.3214 20.95 6.31588 20.95C6.31036 20.95 6.30485 20.95 6.29933 20.95C6.29381 20.95 6.28829 20.95 6.28278 20.95C6.27726 20.95 6.27174 20.95 6.26622 20.95C6.26071 20.95 6.25519 20.95 6.24967 20.95C6.24415 20.95 6.23864 20.95 6.23312 20.95C6.2276 20.95 6.22208 20.95 6.21657 20.95C6.21105 20.95 6.20553 20.95 6.20001 20.95C6.1945 20.95 6.18898 20.95 6.18346 20.95C6.17794 20.95 6.17243 20.95 6.16691 20.95C6.16139 20.95 6.15587 20.95 6.15036 20.95C6.14484 20.95 6.13932 20.95 6.1338 20.95C6.12829 20.95 6.12277 20.95 6.11725 20.95C6.11173 20.95 6.10622 20.95 6.1007 20.95C6.09518 20.95 6.08966 20.95 6.08415 20.95C6.07863 20.95 6.07311 20.95 6.06759 20.95C6.06208 20.95 6.05656 20.95 6.05104 20.95C6.04552 20.95 6.04001 20.95 6.03449 20.95C6.02897 20.95 6.02345 20.95 6.01794 20.95C6.01242 20.95 6.0069 20.95 6.00138 20.95C5.99587 20.95 5.99035 20.95 5.98483 20.95C5.97931 20.95 5.9738 20.95 5.96828 20.95C5.96276 20.95 5.95724 20.95 5.95173 20.95C5.94621 20.95 5.94069 20.95 5.93517 20.95C5.92966 20.95 5.92414 20.95 5.91862 20.95C5.9131 20.95 5.90759 20.95 5.90207 20.95C5.89655 20.95 5.89103 20.95 5.88552 20.95C5.88 20.95 5.87448 20.95 5.86896 20.95C5.86345 20.95 5.85793 20.95 5.85241 20.95C5.84689 20.95 5.84138 20.95 5.83586 20.95C5.83034 20.95 5.82482 20.95 5.81931 20.95C5.81379 20.95 5.80827 20.95 5.80275 20.95C5.79724 20.95 5.79172 20.95 5.7862 20.95C5.78068 20.95 5.77517 20.95 5.76965 20.95C5.76413 20.95 5.75862 20.95 5.7531 20.95C5.74758 20.95 5.74206 20.95 5.73655 20.95C5.73103 20.95 5.72551 20.95 5.71999 20.95C5.71448 20.95 5.70896 20.95 5.70344 20.95C5.69792 20.95 5.69241 20.95 5.68689 20.95C5.68137 20.95 5.67585 20.95 5.67034 20.95C5.66482 20.95 5.6593 20.95 5.65378 20.95C5.64827 20.95 5.64275 20.95 5.63723 20.95C5.63171 20.95 5.6262 20.95 5.62068 20.95C5.61516 20.95 5.60964 20.95 5.60413 20.95C5.59861 20.95 5.59309 20.95 5.58757 20.95C5.58206 20.95 5.57654 20.95 5.57102 20.95C5.5655 20.95 5.55999 20.95 5.55447 20.95C5.54895 20.95 5.54343 20.95 5.53792 20.95C5.5324 20.95 5.52688 20.95 5.52136 20.95C5.51585 20.95 5.51033 20.95 5.50481 20.95C5.49929 20.95 5.49378 20.95 5.48826 20.95C5.48274 20.95 5.47722 20.95 5.47171 20.95C5.46619 20.95 5.46067 20.95 5.45515 20.95C5.44964 20.95 5.44412 20.95 5.4386 20.95C5.43308 20.95 5.42757 20.95 5.42205 20.95V21.05ZM13.8969 21.05C14.5798 21.05 15.1409 20.489 15.1409 19.8059H15.0409C15.0409 20.4338 14.5246 20.95 13.8969 20.95V21.05ZM15.1409 19.8059V4.40106H15.0409V19.8059H15.1409ZM15.1409 4.40106C15.1409 3.71682 14.581 3.15694 13.8969 3.15694V3.25694C14.5258 3.25694 15.0409 3.77204 15.0409 4.40106H15.1409ZM13.8969 3.15694H2.19398V3.25694H13.8969V3.15694ZM1.95516 16.3724H4.71523V16.2724H1.95516V16.3724ZM4.71523 16.3724C5.34412 16.3724 5.85935 16.8874 5.85935 17.5165H5.95935C5.95935 16.8321 5.39933 16.2724 4.71523 16.2724V16.3724ZM5.85935 17.5165V20.0444H5.95935V17.5165H5.85935ZM5.90935 20.0944H13.8969V19.9944H5.90935V20.0944ZM13.8969 20.0944C14.0568 20.0944 14.1857 19.9659 14.1857 19.8056H14.0857C14.0857 19.9106 14.0016 19.9944 13.8969 19.9944V20.0944ZM14.1857 19.8056V4.40106H14.0857V19.8056H14.1857ZM14.1857 4.40106C14.1857 4.24174 14.0557 4.11224 13.8969 4.11224V4.21224C14.0006 4.21224 14.0857 4.29708 14.0857 4.40106H14.1857ZM13.8969 4.11224H2.19398V4.21224H13.8969V4.11224ZM2.19398 4.11224C2.03608 4.11224 1.90516 4.24316 1.90516 4.40106H2.00516C2.00516 4.29839 2.09131 4.21224 2.19398 4.21224V4.11224ZM1.90516 4.40106V16.3224H2.00516V4.40106H1.90516Z" fill="#556CE7"/>
</svg>
