<svg width="21" height="20" viewBox="0 0 21 20" fill="none" xmlns="http://www.w3.org/2000/svg">
<path d="M17.1237 9.94812C16.8108 9.94812 16.5685 10.1892 16.5685 10.5035V18.0903H12.6309V14.9923C12.6309 14.7017 12.3886 14.4476 12.0957 14.4476H9.24869C8.93552 14.4476 8.68329 14.7017 8.68329 14.9923V18.0903H4.75569V10.7554C4.75569 10.4626 4.5136 10.2194 4.20043 10.2194C3.90772 10.2194 3.66541 10.4626 3.66541 10.7554V18.6458C3.66541 18.9385 3.90772 19.1818 4.20043 19.1818H9.24869C9.54141 19.1818 9.78372 18.9385 9.78372 18.6458V15.5477H11.5404V18.6458C11.5404 18.9385 11.7827 19.1818 12.0957 19.1818H17.1237C17.4165 19.1818 17.6587 18.9385 17.6587 18.6458V10.5036C17.6587 10.1893 17.4165 9.94812 17.1237 9.94812Z" fill="#9EA0A5" stroke="#9EA0A5" stroke-width="0.2"/>
<path d="M20.1664 10.3466L15.7716 5.92848V2.91605C15.7716 2.60246 15.5184 2.36028 15.2045 2.36028C14.9107 2.36028 14.6677 2.60249 14.6677 2.91605V4.82343L11.0425 1.17302C10.9314 1.06056 10.7994 1 10.6679 1C10.516 1 10.3842 1.06271 10.2729 1.17302L1.16927 10.286C0.950865 10.5044 0.936403 10.8548 1.16927 11.0559C1.3717 11.2894 1.72039 11.2743 1.9388 11.0559L10.6679 2.33863L19.3766 11.1381C19.4673 11.2289 19.5993 11.2808 19.7715 11.2808C19.9234 11.2808 20.0549 11.2289 20.1664 11.1381C20.3691 10.9348 20.3842 10.5672 20.1664 10.3466Z" fill="#9EA0A5" stroke="#9EA0A5" stroke-width="0.2"/>
</svg>
