<svg width="18" height="21" viewBox="0 0 18 21" fill="none" xmlns="http://www.w3.org/2000/svg">
<path fill-rule="evenodd" clip-rule="evenodd" d="M4.24841 10.4411C4.24841 7.61432 6.55788 5.30485 9.38467 5.30485C12.2115 5.30485 14.5209 7.61432 14.5209 10.4411C14.5209 11.8822 13.8928 13.2679 12.8212 14.2471L12.7657 14.3025C11.9759 15.0924 12.0407 16.7544 12.045 16.865C12.0451 16.8682 12.0452 16.8701 12.0452 16.8707C12.0452 16.963 12.0082 17.0554 11.9528 17.1109C11.8974 17.1663 11.8235 17.2032 11.7311 17.2032H7.01978C6.94587 17.2032 6.85349 17.1663 6.79807 17.1109C6.72416 17.0369 6.70569 16.963 6.70569 16.8707C6.72416 16.8522 6.79807 15.1155 5.98513 14.3025C4.89506 13.3418 4.24841 11.9192 4.24841 10.4411ZM12.2854 13.8961C12.2854 13.8776 12.3223 13.8406 12.3408 13.8222C13.32 12.9723 13.8743 11.7344 13.8743 10.4226C13.8743 7.9284 11.8604 5.91455 9.3662 5.91455C6.87197 5.91455 4.85811 7.9284 4.85811 10.4226C4.85811 11.7344 5.43086 12.9723 6.41008 13.8222C7.18606 14.6166 7.31539 15.9469 7.33386 16.5566H11.417C11.4355 15.9469 11.5648 14.6721 12.2854 13.8961Z" fill="#9EA0A5"/>
<path d="M12.8212 14.2471L12.6523 14.0624L12.6444 14.0703L12.8212 14.2471ZM12.7657 14.3025L12.589 14.1258L12.589 14.1258L12.7657 14.3025ZM12.045 16.865L12.2948 16.8553L12.2948 16.8553L12.045 16.865ZM6.79807 17.1109L6.97484 16.9341L6.97484 16.9341L6.79807 17.1109ZM6.70569 16.8707L6.52891 16.6939L6.45569 16.7671V16.8707H6.70569ZM5.98513 14.3025L6.16191 14.1258L6.15634 14.1202L6.15043 14.115L5.98513 14.3025ZM12.3408 13.8222L12.1769 13.6334L12.1703 13.6392L12.164 13.6454L12.3408 13.8222ZM12.2854 13.8961L12.4686 14.0662L12.5354 13.9942V13.8961H12.2854ZM6.41008 13.8222L6.58892 13.6475L6.58172 13.6401L6.57394 13.6334L6.41008 13.8222ZM7.33386 16.5566L7.08398 16.5642L7.09132 16.8066H7.33386V16.5566ZM11.417 16.5566V16.8066H11.6595L11.6669 16.5642L11.417 16.5566ZM9.38467 5.05485C6.41981 5.05485 3.99841 7.47625 3.99841 10.4411H4.49841C4.49841 7.75239 6.69595 5.55485 9.38467 5.55485V5.05485ZM14.7709 10.4411C14.7709 7.47625 12.3495 5.05485 9.38467 5.05485V5.55485C12.0734 5.55485 14.2709 7.75239 14.2709 10.4411H14.7709ZM12.9898 14.4317C14.1115 13.4066 14.7709 11.9547 14.7709 10.4411H14.2709C14.2709 11.8097 13.674 13.1291 12.6525 14.0626L12.9898 14.4317ZM12.9425 14.4793L12.9979 14.4239L12.6444 14.0703L12.589 14.1258L12.9425 14.4793ZM12.2948 16.8553C12.2929 16.8059 12.2762 16.3814 12.3546 15.8768C12.4344 15.3625 12.6056 14.8162 12.9425 14.4793L12.589 14.1258C12.136 14.5787 11.9446 15.2583 11.8605 15.8001C11.7749 16.3517 11.7928 16.8135 11.7952 16.8747L12.2948 16.8553ZM12.2952 16.8707C12.2952 16.8664 12.2951 16.8629 12.2951 16.8626C12.295 16.8615 12.295 16.8605 12.295 16.8598C12.2949 16.8584 12.2948 16.8567 12.2948 16.8553L11.7952 16.8747C11.7952 16.8765 11.7953 16.8774 11.7953 16.8779C11.7953 16.8782 11.7953 16.8779 11.7953 16.8774C11.7953 16.8771 11.7952 16.8765 11.7952 16.8757C11.7952 16.875 11.7952 16.8731 11.7952 16.8707H12.2952ZM12.1296 17.2876C12.2373 17.1799 12.2952 17.0213 12.2952 16.8707H11.7952C11.7952 16.8843 11.7923 16.8999 11.7868 16.914C11.781 16.9288 11.7754 16.9347 11.776 16.9341L12.1296 17.2876ZM11.7311 17.4532C11.8967 17.4532 12.0324 17.3848 12.1296 17.2876L11.776 16.9341C11.768 16.9421 11.7611 16.9464 11.7556 16.9488C11.7505 16.951 11.7431 16.9532 11.7311 16.9532V17.4532ZM7.01978 17.4532H11.7311V16.9532H7.01978V17.4532ZM6.62129 17.2876C6.72413 17.3905 6.88033 17.4532 7.01978 17.4532V16.9532C7.02165 16.9532 7.01994 16.9534 7.01486 16.9523C7.00997 16.9512 7.00382 16.9494 6.99718 16.9467C6.99055 16.9439 6.98479 16.9409 6.98036 16.938C6.97582 16.9351 6.97424 16.9335 6.97484 16.9341L6.62129 17.2876ZM6.45569 16.8707C6.45569 17.0088 6.48776 17.1541 6.62129 17.2876L6.97484 16.9341C6.9675 16.9267 6.96399 16.9219 6.96243 16.9195C6.961 16.9172 6.96038 16.9158 6.95991 16.9145C6.95889 16.9116 6.95569 16.901 6.95569 16.8707H6.45569ZM5.80836 14.4793C6.1562 14.8272 6.33116 15.3971 6.40996 15.9217C6.44846 16.1779 6.46224 16.411 6.46525 16.5804C6.46676 16.665 6.46556 16.7324 6.46361 16.7775C6.46262 16.8005 6.46151 16.8156 6.46075 16.8235C6.46031 16.828 6.46031 16.8267 6.46111 16.822C6.46141 16.8202 6.46278 16.8121 6.46581 16.8013C6.46727 16.7961 6.47049 16.7851 6.47621 16.7717C6.4795 16.764 6.49446 16.7283 6.52891 16.6939L6.88246 17.0474C6.9172 17.0127 6.93246 16.9765 6.93605 16.9681C6.94207 16.954 6.9456 16.9422 6.94738 16.9358C6.95103 16.9227 6.95304 16.9116 6.954 16.906C6.95611 16.8936 6.95747 16.8814 6.95839 16.872C6.96034 16.8519 6.96193 16.8271 6.96314 16.7992C6.96559 16.7426 6.96684 16.6649 6.96517 16.5715C6.96184 16.3846 6.94675 16.1292 6.90442 15.8474C6.82156 15.2958 6.627 14.5908 6.16191 14.1258L5.80836 14.4793ZM3.99841 10.4411C3.99841 11.9908 4.67579 13.4818 5.81983 14.4901L6.15043 14.115C5.11434 13.2018 4.49841 11.8476 4.49841 10.4411H3.99841ZM12.164 13.6454C12.1559 13.6535 12.134 13.6751 12.1141 13.6991C12.1043 13.7109 12.0896 13.7294 12.0762 13.7521C12.0679 13.7662 12.0354 13.821 12.0354 13.8961H12.5354C12.5354 13.9334 12.5265 13.9615 12.5213 13.9755C12.5157 13.9906 12.5098 14.0013 12.5067 14.0065C12.5007 14.0165 12.4965 14.0212 12.4982 14.0192C12.5013 14.0154 12.5072 14.0093 12.5176 13.9989L12.164 13.6454ZM13.6243 10.4226C13.6243 11.6638 13.1001 12.8322 12.1769 13.6334L12.5047 14.011C13.54 13.1124 14.1243 11.805 14.1243 10.4226H13.6243ZM9.3662 6.16455C11.7224 6.16455 13.6243 8.06648 13.6243 10.4226H14.1243C14.1243 7.79033 11.9985 5.66455 9.3662 5.66455V6.16455ZM5.10811 10.4226C5.10811 8.06648 7.01004 6.16455 9.3662 6.16455V5.66455C6.7339 5.66455 4.60811 7.79033 4.60811 10.4226H5.10811ZM6.57394 13.6334C5.64899 12.8306 5.10811 11.6614 5.10811 10.4226H4.60811C4.60811 11.8074 5.21274 13.114 6.24621 14.011L6.57394 13.6334ZM7.58375 16.549C7.57419 16.2337 7.53602 15.7285 7.39804 15.196C7.26068 14.6658 7.01918 14.088 6.58892 13.6475L6.23123 13.9969C6.57696 14.3508 6.78811 14.8354 6.91403 15.3214C7.03932 15.805 7.07506 16.2698 7.08398 16.5642L7.58375 16.549ZM11.417 16.3066H7.33386V16.8066H11.417V16.3066ZM12.1022 13.726C11.7023 14.1566 11.4757 14.7141 11.3456 15.2272C11.2149 15.7428 11.1767 16.2334 11.1671 16.549L11.6669 16.5642C11.6758 16.27 11.7115 15.8184 11.8302 15.3501C11.9496 14.8794 12.1479 14.4116 12.4686 14.0662L12.1022 13.726Z" fill="#9EA0A5"/>
<path d="M9.36621 6.61663C9.19993 6.61663 9.05212 6.76444 9.05212 6.93072C9.05212 7.097 9.19993 7.24481 9.36621 7.24481C11.2323 7.24481 12.7288 8.75982 12.7288 10.6074C12.7288 10.7737 12.8766 10.9215 13.0429 10.9215C13.2092 10.9215 13.357 10.7737 13.357 10.6074C13.3754 8.40878 11.5833 6.61663 9.36621 6.61663Z" fill="#9EA0A5"/>
<path fill-rule="evenodd" clip-rule="evenodd" d="M7.31541 17.5543H11.417C11.842 17.5543 12.193 17.9053 12.193 18.3303C12.193 18.7552 11.842 19.0878 11.3986 19.1062H7.31541C6.89047 19.1062 6.53943 18.7552 6.53943 18.3303C6.53943 17.9053 6.89047 17.5543 7.31541 17.5543ZM7.31541 18.4596H11.417C11.4909 18.4596 11.5464 18.4042 11.5464 18.3118C11.5464 18.2194 11.4725 18.164 11.3986 18.164H7.31541C7.22303 18.164 7.1676 18.2194 7.1676 18.3118C7.1676 18.4042 7.24151 18.4596 7.31541 18.4596Z" fill="#9EA0A5"/>
<path fill-rule="evenodd" clip-rule="evenodd" d="M7.92515 19.4203H10.8074C11.2323 19.4203 11.5834 19.7529 11.5834 20.1963C11.5834 20.6212 11.2323 20.9723 10.8074 20.9723H7.92515C7.50021 20.9723 7.14917 20.6212 7.14917 20.1963C7.14917 19.7714 7.50021 19.4203 7.92515 19.4203ZM7.92515 20.3256H10.8074C10.8813 20.3256 10.9552 20.2702 10.9552 20.1778C10.9552 20.0854 10.8813 20.03 10.8074 20.03H7.92515C7.83277 20.03 7.77735 20.0854 7.77735 20.1778C7.77735 20.2702 7.85125 20.3256 7.92515 20.3256Z" fill="#9EA0A5"/>
<path d="M9.36621 3.77136C9.55097 3.77136 9.6803 3.62356 9.6803 3.45727V1.31409C9.6803 1.14781 9.53249 1 9.36621 1C9.19993 1 9.05212 1.14781 9.05212 1.31409V3.45727C9.05212 3.62356 9.19993 3.77136 9.36621 3.77136Z" fill="#9EA0A5" stroke="#9EA0A5" stroke-width="0.5"/>
<path d="M14.5948 2.58892C14.447 2.47806 14.2623 2.53349 14.1699 2.66282L12.9874 4.43649C12.8766 4.5843 12.9135 4.78753 13.0613 4.87991C13.1168 4.91686 13.1722 4.93534 13.2276 4.93534C13.3385 4.93534 13.4308 4.87991 13.4863 4.78753L14.6687 3.01386C14.7796 2.88453 14.7426 2.6813 14.5948 2.58892Z" fill="#9EA0A5" stroke="#9EA0A5" stroke-width="0.5"/>
<path d="M5.6157 4.86143C5.67112 4.86143 5.72655 4.84296 5.78198 4.80601C5.92979 4.71363 5.96674 4.51039 5.87436 4.36259L4.72886 2.57044C4.63648 2.42263 4.43325 2.38568 4.28544 2.47806C4.13764 2.57044 4.10069 2.77367 4.19306 2.92148L5.33856 4.71363C5.41246 4.82448 5.50484 4.86143 5.6157 4.86143Z" fill="#9EA0A5" stroke="#9EA0A5" stroke-width="0.5"/>
<path d="M3.38005 6.81986L1.514 5.80369C1.36619 5.72979 1.16296 5.78522 1.08906 5.93303C0.996679 6.08083 1.05211 6.28406 1.21839 6.35797L3.08444 7.37413C3.13987 7.39261 3.17682 7.41109 3.23224 7.41109C3.3431 7.41109 3.45395 7.35566 3.50938 7.2448C3.58328 7.097 3.52786 6.89376 3.38005 6.81986Z" fill="#9EA0A5" stroke="#9EA0A5" stroke-width="0.5"/>
<path d="M17.6618 5.93303C17.5879 5.78522 17.3847 5.72979 17.2369 5.80369L15.3524 6.81986C15.2045 6.89376 15.1491 7.097 15.223 7.2448C15.2784 7.35566 15.3893 7.41109 15.5002 7.41109C15.5556 7.41109 15.611 7.39261 15.648 7.37413L17.5325 6.35797C17.6803 6.28406 17.7357 6.08083 17.6618 5.93303Z" fill="#9EA0A5" stroke="#9EA0A5" stroke-width="0.5"/>
</svg>
