<svg width="18" height="21" viewBox="0 0 18 21" fill="none" xmlns="http://www.w3.org/2000/svg">
<path fill-rule="evenodd" clip-rule="evenodd" d="M4.24845 10.4411C4.24845 7.61432 6.55792 5.30485 9.38471 5.30485C12.2115 5.30485 14.521 7.61432 14.521 10.4411C14.521 11.8822 13.8928 13.2679 12.8212 14.2471L12.7658 14.3025C11.9759 15.0924 12.0407 16.7544 12.045 16.865C12.0451 16.8682 12.0452 16.8701 12.0452 16.8707C12.0452 16.963 12.0083 17.0554 11.9528 17.1109C11.8974 17.1663 11.8235 17.2032 11.7311 17.2032H7.01981C6.94591 17.2032 6.85353 17.1663 6.7981 17.1109C6.7242 17.0369 6.70573 16.963 6.70573 16.8707C6.7242 16.8522 6.7981 15.1155 5.98517 14.3025C4.8951 13.3418 4.24845 11.9192 4.24845 10.4411ZM12.2854 13.8961C12.2854 13.8776 12.3224 13.8406 12.3408 13.8222C13.32 12.9723 13.8743 11.7344 13.8743 10.4226C13.8743 7.9284 11.8605 5.91455 9.36623 5.91455C6.87201 5.91455 4.85815 7.9284 4.85815 10.4226C4.85815 11.7344 5.4309 12.9723 6.41011 13.8222C7.1861 14.6166 7.31543 15.9469 7.3339 16.5566H11.417C11.4355 15.9469 11.5648 14.6721 12.2854 13.8961Z" fill="#556CE7"/>
<path d="M12.8212 14.2471L12.6524 14.0624L12.6444 14.0703L12.8212 14.2471ZM12.7658 14.3025L12.589 14.1258L12.589 14.1258L12.7658 14.3025ZM12.045 16.865L12.2948 16.8553L12.2948 16.8553L12.045 16.865ZM6.7981 17.1109L6.97488 16.9341L6.97488 16.9341L6.7981 17.1109ZM6.70573 16.8707L6.52895 16.6939L6.45573 16.7671V16.8707H6.70573ZM5.98517 14.3025L6.16195 14.1258L6.15638 14.1202L6.15047 14.115L5.98517 14.3025ZM12.3408 13.8222L12.177 13.6334L12.1703 13.6392L12.1641 13.6454L12.3408 13.8222ZM12.2854 13.8961L12.4686 14.0662L12.5354 13.9942V13.8961H12.2854ZM6.41011 13.8222L6.58896 13.6475L6.58176 13.6401L6.57398 13.6334L6.41011 13.8222ZM7.3339 16.5566L7.08402 16.5642L7.09136 16.8066H7.3339V16.5566ZM11.417 16.5566V16.8066H11.6596L11.6669 16.5642L11.417 16.5566ZM9.38471 5.05485C6.41985 5.05485 3.99845 7.47625 3.99845 10.4411H4.49845C4.49845 7.75239 6.69599 5.55485 9.38471 5.55485V5.05485ZM14.771 10.4411C14.771 7.47625 12.3496 5.05485 9.38471 5.05485V5.55485C12.0734 5.55485 14.271 7.75239 14.271 10.4411H14.771ZM12.9898 14.4317C14.1116 13.4066 14.771 11.9547 14.771 10.4411H14.271C14.271 11.8097 13.674 13.1291 12.6526 14.0626L12.9898 14.4317ZM12.9425 14.4793L12.998 14.4239L12.6444 14.0703L12.589 14.1258L12.9425 14.4793ZM12.2948 16.8553C12.2929 16.8059 12.2763 16.3814 12.3546 15.8768C12.4345 15.3625 12.6056 14.8162 12.9425 14.4793L12.589 14.1258C12.136 14.5787 11.9447 15.2583 11.8605 15.8001C11.7749 16.3517 11.7928 16.8135 11.7952 16.8747L12.2948 16.8553ZM12.2952 16.8707C12.2952 16.8664 12.2951 16.8629 12.2951 16.8626C12.2951 16.8615 12.295 16.8605 12.295 16.8598C12.295 16.8584 12.2949 16.8567 12.2948 16.8553L11.7952 16.8747C11.7953 16.8765 11.7953 16.8774 11.7953 16.8779C11.7953 16.8782 11.7953 16.8779 11.7953 16.8774C11.7953 16.8771 11.7953 16.8765 11.7953 16.8757C11.7953 16.875 11.7952 16.8731 11.7952 16.8707H12.2952ZM12.1296 17.2876C12.2373 17.1799 12.2952 17.0213 12.2952 16.8707H11.7952C11.7952 16.8843 11.7923 16.8999 11.7868 16.914C11.7811 16.9288 11.7754 16.9347 11.7761 16.9341L12.1296 17.2876ZM11.7311 17.4532C11.8968 17.4532 12.0325 17.3848 12.1296 17.2876L11.7761 16.9341C11.7681 16.9421 11.7612 16.9464 11.7556 16.9488C11.7505 16.951 11.7431 16.9532 11.7311 16.9532V17.4532ZM7.01981 17.4532H11.7311V16.9532H7.01981V17.4532ZM6.62133 17.2876C6.72417 17.3905 6.88036 17.4532 7.01981 17.4532V16.9532C7.02168 16.9532 7.01998 16.9534 7.0149 16.9523C7.01 16.9512 7.00386 16.9494 6.99722 16.9467C6.99058 16.9439 6.98483 16.9409 6.9804 16.938C6.97586 16.9351 6.97428 16.9335 6.97488 16.9341L6.62133 17.2876ZM6.45573 16.8707C6.45573 17.0088 6.4878 17.1541 6.62133 17.2876L6.97488 16.9341C6.96754 16.9267 6.96403 16.9219 6.96247 16.9195C6.96103 16.9172 6.96042 16.9158 6.95995 16.9145C6.95893 16.9116 6.95573 16.901 6.95573 16.8707H6.45573ZM5.8084 14.4793C6.15624 14.8272 6.3312 15.3971 6.41 15.9217C6.4485 16.1779 6.46227 16.411 6.46529 16.5804C6.4668 16.665 6.4656 16.7324 6.46365 16.7775C6.46265 16.8005 6.46155 16.8156 6.46079 16.8235C6.46035 16.828 6.46035 16.8267 6.46115 16.822C6.46145 16.8202 6.46282 16.8121 6.46585 16.8013C6.46731 16.7961 6.47053 16.7851 6.47625 16.7717C6.47954 16.764 6.4945 16.7283 6.52895 16.6939L6.8825 17.0474C6.91724 17.0127 6.93249 16.9765 6.93609 16.9681C6.94211 16.954 6.94564 16.9422 6.94741 16.9358C6.95106 16.9227 6.95308 16.9116 6.95404 16.906C6.95615 16.8936 6.95751 16.8814 6.95843 16.872C6.96038 16.8519 6.96197 16.8271 6.96318 16.7992C6.96563 16.7426 6.96688 16.6649 6.96521 16.5715C6.96188 16.3846 6.94679 16.1292 6.90445 15.8474C6.82159 15.2958 6.62704 14.5908 6.16195 14.1258L5.8084 14.4793ZM3.99845 10.4411C3.99845 11.9908 4.67583 13.4818 5.81987 14.4901L6.15047 14.115C5.11438 13.2018 4.49845 11.8476 4.49845 10.4411H3.99845ZM12.1641 13.6454C12.1559 13.6535 12.1341 13.6751 12.1141 13.6991C12.1043 13.7109 12.0897 13.7294 12.0762 13.7521C12.0679 13.7662 12.0354 13.821 12.0354 13.8961H12.5354C12.5354 13.9334 12.5265 13.9615 12.5214 13.9755C12.5157 13.9906 12.5098 14.0013 12.5067 14.0065C12.5008 14.0165 12.4965 14.0212 12.4982 14.0192C12.5014 14.0154 12.5072 14.0093 12.5176 13.9989L12.1641 13.6454ZM13.6243 10.4226C13.6243 11.6638 13.1001 12.8322 12.177 13.6334L12.5047 14.011C13.54 13.1124 14.1243 11.805 14.1243 10.4226H13.6243ZM9.36623 6.16455C11.7224 6.16455 13.6243 8.06648 13.6243 10.4226H14.1243C14.1243 7.79033 11.9985 5.66455 9.36623 5.66455V6.16455ZM5.10815 10.4226C5.10815 8.06648 7.01008 6.16455 9.36623 6.16455V5.66455C6.73394 5.66455 4.60815 7.79033 4.60815 10.4226H5.10815ZM6.57398 13.6334C5.64902 12.8306 5.10815 11.6614 5.10815 10.4226H4.60815C4.60815 11.8074 5.21277 13.114 6.24625 14.011L6.57398 13.6334ZM7.58379 16.549C7.57423 16.2337 7.53606 15.7285 7.39808 15.196C7.26072 14.6658 7.01922 14.088 6.58896 13.6475L6.23127 13.9969C6.57699 14.3508 6.78815 14.8354 6.91406 15.3214C7.03936 15.805 7.0751 16.2698 7.08402 16.5642L7.58379 16.549ZM11.417 16.3066H7.3339V16.8066H11.417V16.3066ZM12.1022 13.726C11.7023 14.1566 11.4757 14.7141 11.3456 15.2272C11.2149 15.7428 11.1767 16.2334 11.1672 16.549L11.6669 16.5642C11.6758 16.27 11.7116 15.8184 11.8303 15.3501C11.9496 14.8794 12.1479 14.4116 12.4686 14.0662L12.1022 13.726Z" fill="#556CE7"/>
<path d="M9.36623 6.61663C9.19995 6.61663 9.05215 6.76444 9.05215 6.93072C9.05215 7.097 9.19995 7.24481 9.36623 7.24481C11.2323 7.24481 12.7288 8.75982 12.7288 10.6074C12.7288 10.7737 12.8766 10.9215 13.0429 10.9215C13.2092 10.9215 13.357 10.7737 13.357 10.6074C13.3755 8.40878 11.5833 6.61663 9.36623 6.61663Z" fill="#556CE7"/>
<path fill-rule="evenodd" clip-rule="evenodd" d="M7.31543 17.5543H11.417C11.842 17.5543 12.193 17.9053 12.193 18.3303C12.193 18.7552 11.842 19.0878 11.3986 19.1062H7.31543C6.89048 19.1062 6.53944 18.7552 6.53944 18.3303C6.53944 17.9053 6.89048 17.5543 7.31543 17.5543ZM7.31543 18.4596H11.417C11.4909 18.4596 11.5464 18.4042 11.5464 18.3118C11.5464 18.2194 11.4725 18.164 11.3986 18.164H7.31543C7.22305 18.164 7.16762 18.2194 7.16762 18.3118C7.16762 18.4042 7.24152 18.4596 7.31543 18.4596Z" fill="#556CE7"/>
<path fill-rule="evenodd" clip-rule="evenodd" d="M7.92513 19.4203H10.8073C11.2323 19.4203 11.5833 19.7529 11.5833 20.1963C11.5833 20.6212 11.2323 20.9723 10.8073 20.9723H7.92513C7.50019 20.9723 7.14915 20.6212 7.14915 20.1963C7.14915 19.7714 7.50019 19.4203 7.92513 19.4203ZM7.92513 20.3256H10.8073C10.8812 20.3256 10.9552 20.2702 10.9552 20.1778C10.9552 20.0854 10.8812 20.03 10.8073 20.03H7.92513C7.83275 20.03 7.77732 20.0854 7.77732 20.1778C7.77732 20.2702 7.85123 20.3256 7.92513 20.3256Z" fill="#556CE7"/>
<path d="M9.36623 3.77136C9.55099 3.77136 9.68032 3.62356 9.68032 3.45727V1.31409C9.68032 1.14781 9.53252 1 9.36623 1C9.19995 1 9.05215 1.14781 9.05215 1.31409V3.45727C9.05215 3.62356 9.19995 3.77136 9.36623 3.77136Z" fill="#556CE7" stroke="#556CE7" stroke-width="0.5"/>
<path d="M14.5949 2.58892C14.4471 2.47806 14.2623 2.53349 14.1699 2.66282L12.9875 4.43649C12.8766 4.5843 12.9136 4.78753 13.0614 4.87991C13.1168 4.91686 13.1722 4.93534 13.2277 4.93534C13.3385 4.93534 13.4309 4.87991 13.4863 4.78753L14.6688 3.01386C14.7796 2.88453 14.7427 2.6813 14.5949 2.58892Z" fill="#556CE7" stroke="#556CE7" stroke-width="0.5"/>
<path d="M5.61566 4.86143C5.67109 4.86143 5.72651 4.84296 5.78194 4.80601C5.92975 4.71363 5.9667 4.51039 5.87432 4.36259L4.72882 2.57044C4.63644 2.42263 4.43321 2.38568 4.28541 2.47806C4.1376 2.57044 4.10065 2.77367 4.19303 2.92148L5.33852 4.71363C5.41243 4.82448 5.5048 4.86143 5.61566 4.86143Z" fill="#556CE7" stroke="#556CE7" stroke-width="0.5"/>
<path d="M3.38009 6.81986L1.51404 5.80369C1.36623 5.72979 1.163 5.78522 1.0891 5.93303C0.996717 6.08083 1.05214 6.28406 1.21843 6.35797L3.08448 7.37413C3.1399 7.39261 3.17686 7.41109 3.23228 7.41109C3.34314 7.41109 3.45399 7.35566 3.50942 7.2448C3.58332 7.097 3.52789 6.89376 3.38009 6.81986Z" fill="#556CE7" stroke="#556CE7" stroke-width="0.5"/>
<path d="M17.6619 5.93303C17.5879 5.78522 17.3847 5.72979 17.2369 5.80369L15.3524 6.81986C15.2046 6.89376 15.1491 7.097 15.2231 7.2448C15.2785 7.35566 15.3893 7.41109 15.5002 7.41109C15.5556 7.41109 15.611 7.39261 15.648 7.37413L17.5325 6.35797C17.6803 6.28406 17.7358 6.08083 17.6619 5.93303Z" fill="#556CE7" stroke="#556CE7" stroke-width="0.5"/>
</svg>
