<svg width="20" height="20" viewBox="0 0 20 20" fill="none" xmlns="http://www.w3.org/2000/svg">
<path fill-rule="evenodd" clip-rule="evenodd" d="M11.2548 1.17414C10.8616 1.18444 10.4875 1.34555 10.2098 1.62411L1.44974 10.3842C0.850061 10.9853 0.850061 11.9584 1.44974 12.5595L7.44052 18.5502C8.04163 19.1499 9.0147 19.1499 9.61581 18.5502L18.3759 9.79018C18.6545 9.51246 18.8156 9.1382 18.8259 8.74494L18.9995 2.47255C19.0103 2.07897 18.8588 1.69825 18.5804 1.41981C18.302 1.14138 17.9213 0.989748 17.5277 1.00054L11.2548 1.17414ZM8.14767 17.8431L2.15687 11.8523C1.94711 11.642 1.94711 11.3016 2.15687 11.0913L10.917 2.33125C11.0141 2.23382 11.1449 2.17745 11.2824 2.17381L17.5554 2.00021C17.6742 1.99701 17.7892 2.04285 17.8732 2.12696C17.9573 2.21107 18.0031 2.32605 17.9998 2.44492L17.8262 8.7173C17.8226 8.8549 17.7662 8.98584 17.6687 9.08303L8.90868 17.8431C8.69839 18.0529 8.35796 18.0529 8.14767 17.8431ZM15.9251 4.07409C16.4887 4.63773 16.6573 5.4854 16.3523 6.22184C16.0473 6.95827 15.3286 7.43844 14.5315 7.43844C13.7344 7.43844 13.0158 6.95827 12.7107 6.22184C12.4057 5.4854 12.5743 4.63773 13.138 4.07409C13.9081 3.30562 15.1549 3.30562 15.9251 4.07409H15.9251ZM14.9795 6.54929C14.5421 6.73051 14.0385 6.63034 13.7037 6.2955C13.2472 5.83798 13.2472 5.09732 13.7037 4.6398C14.0385 4.30496 14.5421 4.2048 14.9795 4.38601C15.417 4.56722 15.7023 4.99412 15.7023 5.46765C15.7023 5.94118 15.417 6.36808 14.9795 6.54929ZM4.37357 10.5353C4.21737 10.6916 4.21737 10.9448 4.37357 11.101L8.89906 15.6265C9.05547 15.7816 9.30778 15.781 9.46351 15.6253C9.61923 15.4696 9.61978 15.2172 9.46474 15.0608L4.93925 10.5353C4.78304 10.3791 4.52978 10.3791 4.37357 10.5353ZM10.5961 13.9295L6.07064 9.40398C5.9156 9.24757 5.91615 8.99526 6.07187 8.83953C6.2276 8.6838 6.47991 8.68325 6.63632 8.83829L11.1618 13.3638C11.2636 13.4647 11.3036 13.6123 11.2667 13.7508C11.2298 13.8893 11.1217 13.9975 10.9832 14.0344C10.8447 14.0713 10.697 14.0313 10.5961 13.9295Z" fill="#9EA0A5"/>
<path d="M10.2098 1.62411L10.2807 1.69471L10.2805 1.69482L10.2098 1.62411ZM11.2548 1.17414L11.2575 1.2741L11.2574 1.2741L11.2548 1.17414ZM1.44974 10.3842L1.37895 10.3136L1.37903 10.3135L1.44974 10.3842ZM1.44974 12.5595L1.37903 12.6302L1.37895 12.6301L1.44974 12.5595ZM7.44052 18.5502L7.36989 18.621L7.36981 18.621L7.44052 18.5502ZM9.61581 18.5502L9.68652 18.621L9.68644 18.621L9.61581 18.5502ZM18.3759 9.79018L18.3052 9.71947L18.3053 9.71935L18.3759 9.79018ZM18.8259 8.74494L18.7259 8.74234L18.7259 8.74217L18.8259 8.74494ZM18.9995 2.47255L19.0994 2.47531L19.0994 2.47532L18.9995 2.47255ZM18.5804 1.41981L18.5097 1.49052L18.5804 1.41981ZM17.5277 1.00054L17.525 0.900577L17.525 0.900577L17.5277 1.00054ZM2.15687 11.8523L2.08616 11.923L2.08607 11.9229L2.15687 11.8523ZM8.14767 17.8431L8.07704 17.9139L8.07696 17.9138L8.14767 17.8431ZM2.15687 11.0913L2.08607 11.0207L2.08616 11.0206L2.15687 11.0913ZM10.917 2.33125L10.9878 2.40184L10.9877 2.40196L10.917 2.33125ZM11.2824 2.17381L11.2852 2.27377L11.2851 2.27377L11.2824 2.17381ZM17.5554 2.00021L17.5526 1.90024L17.5527 1.90024L17.5554 2.00021ZM17.8732 2.12696L17.8025 2.19765V2.19765L17.8732 2.12696ZM17.9998 2.44492L18.0997 2.44766L18.0997 2.44768L17.9998 2.44492ZM17.8262 8.7173L17.7262 8.71468L17.7262 8.71454L17.8262 8.7173ZM17.6687 9.08303L17.598 9.01232L17.5981 9.01221L17.6687 9.08303ZM8.90868 17.8431L8.97939 17.9138L8.97931 17.9139L8.90868 17.8431ZM15.9251 4.07409V3.97409H15.9665L15.9958 4.00338L15.9251 4.07409ZM12.7107 6.22184L12.8031 6.18357L12.7107 6.22184ZM13.138 4.07409L13.0673 4.00338L13.0673 4.0033L13.138 4.07409ZM15.9251 4.07409V4.17409H15.8837L15.8544 4.14488L15.9251 4.07409ZM13.7037 6.2955L13.6329 6.36621L13.6329 6.36613L13.7037 6.2955ZM14.9795 6.54929L14.9413 6.45691L14.9795 6.54929ZM13.7037 4.6398L13.6329 4.56917L13.6329 4.56909L13.7037 4.6398ZM14.9795 4.38601L15.0178 4.29362H15.0178L14.9795 4.38601ZM4.37357 11.101L4.30286 11.1717L4.30286 11.1717L4.37357 11.101ZM4.37357 10.5353L4.30286 10.4646L4.30286 10.4646L4.37357 10.5353ZM8.89906 15.6265L8.82866 15.6975L8.82835 15.6972L8.89906 15.6265ZM9.46474 15.0608L9.53545 14.9901L9.53576 14.9904L9.46474 15.0608ZM4.93925 10.5353L5.00996 10.4646L5.00996 10.4646L4.93925 10.5353ZM6.07064 9.40398L5.99993 9.47469L5.99962 9.47438L6.07064 9.40398ZM10.5961 13.9295L10.6668 13.8588L10.6672 13.8591L10.5961 13.9295ZM6.07187 8.83953L6.14258 8.91024V8.91024L6.07187 8.83953ZM6.63632 8.83829L6.70672 8.76727L6.70703 8.76758L6.63632 8.83829ZM11.1618 13.3638L11.0914 13.4348L11.0911 13.4345L11.1618 13.3638ZM11.2667 13.7508L11.1701 13.7251L11.2667 13.7508ZM10.9832 14.0344L11.0089 14.131L10.9832 14.0344ZM10.139 1.55352C10.4348 1.25678 10.8333 1.08515 11.2522 1.07417L11.2574 1.2741C10.8899 1.28373 10.5402 1.43433 10.2807 1.69471L10.139 1.55352ZM1.37903 10.3135L10.1391 1.5534L10.2805 1.69482L1.52045 10.4549L1.37903 10.3135ZM1.37895 12.6301C0.740326 11.99 0.740326 10.9537 1.37895 10.3136L1.52054 10.4548C0.959797 11.0169 0.959797 11.9268 1.52054 12.4888L1.37895 12.6301ZM7.36981 18.621L1.37903 12.6302L1.52045 12.4888L7.51123 18.4795L7.36981 18.621ZM9.68644 18.621C9.04629 19.2597 8.01003 19.2597 7.36989 18.621L7.51114 18.4794C8.07322 19.0402 8.98311 19.0402 9.54518 18.4794L9.68644 18.621ZM18.4466 9.86089L9.68652 18.621L9.5451 18.4795L18.3052 9.71947L18.4466 9.86089ZM18.9258 8.74754C18.9149 9.16647 18.7433 9.56516 18.4465 9.861L18.3053 9.71935C18.5657 9.45976 18.7163 9.10993 18.7259 8.74234L18.9258 8.74754ZM19.0994 2.47532L18.9258 8.74771L18.7259 8.74217L18.8995 2.46978L19.0994 2.47532ZM18.6511 1.34911C18.9489 1.64698 19.111 2.05426 19.0994 2.47531L18.8995 2.46979C18.9096 2.10367 18.7686 1.74953 18.5097 1.49052L18.6511 1.34911ZM17.525 0.900577C17.946 0.889033 18.3533 1.05124 18.6511 1.34911L18.5097 1.49052C18.2507 1.23151 17.8966 1.09046 17.5305 1.1005L17.525 0.900577ZM11.252 1.07418L17.525 0.900577L17.5305 1.1005L11.2575 1.2741L11.252 1.07418ZM2.22758 11.7816L8.21838 17.7724L8.07696 17.9138L2.08616 11.923L2.22758 11.7816ZM2.22767 11.1619C2.05684 11.3332 2.05684 11.6104 2.22767 11.7817L2.08607 11.9229C1.83737 11.6736 1.83737 11.27 2.08607 11.0207L2.22767 11.1619ZM10.9877 2.40196L2.22758 11.162L2.08616 11.0206L10.8463 2.26054L10.9877 2.40196ZM11.2851 2.27377C11.1732 2.27673 11.0668 2.32258 10.9878 2.40184L10.8461 2.26067C10.9614 2.14505 11.1166 2.07816 11.2798 2.07384L11.2851 2.27377ZM17.5581 2.10017L11.2852 2.27377L11.2796 2.07384L17.5526 1.90024L17.5581 2.10017ZM17.8025 2.19765C17.7379 2.13297 17.6495 2.09772 17.558 2.10017L17.5527 1.90024C17.699 1.89631 17.8405 1.95274 17.944 2.05627L17.8025 2.19765ZM17.8998 2.44217C17.9023 2.35076 17.8671 2.26233 17.8025 2.19765L17.944 2.05627C18.0474 2.15981 18.1038 2.30134 18.0997 2.44766L17.8998 2.44217ZM17.7262 8.71454L17.8998 2.44215L18.0997 2.44768L17.9261 8.72007L17.7262 8.71454ZM17.5981 9.01221C17.6774 8.93315 17.7233 8.82662 17.7262 8.71468L17.9262 8.71992C17.9219 8.88318 17.855 9.03853 17.7393 9.15384L17.5981 9.01221ZM8.83797 17.7724L17.598 9.01232L17.7395 9.15374L8.97939 17.9138L8.83797 17.7724ZM8.2183 17.7723C8.38955 17.9432 8.6668 17.9432 8.83805 17.7723L8.97931 17.9139C8.72999 18.1626 8.32636 18.1626 8.07704 17.9139L8.2183 17.7723ZM16.2599 6.18357C16.5495 5.4845 16.3894 4.67984 15.8544 4.1448L15.9958 4.00338C16.588 4.59562 16.7652 5.4863 16.4447 6.2601L16.2599 6.18357ZM14.5315 7.33844C15.2882 7.33844 15.9703 6.88263 16.2599 6.18357L16.4447 6.2601C16.1242 7.03391 15.3691 7.53844 14.5315 7.53844V7.33844ZM12.8031 6.18357C13.0927 6.88263 13.7749 7.33844 14.5315 7.33844V7.53844C13.694 7.53844 12.9389 7.03391 12.6184 6.2601L12.8031 6.18357ZM13.2087 4.1448C12.6736 4.67984 12.5136 5.4845 12.8031 6.18357L12.6184 6.2601C12.2978 5.4863 12.475 4.59562 13.0673 4.00338L13.2087 4.1448ZM15.8544 4.14488C15.1233 3.41536 13.9397 3.41536 13.2086 4.14488L13.0673 4.0033C13.8765 3.19589 15.1865 3.19589 15.9957 4.0033L15.8544 4.14488ZM15.9251 4.17409H15.9251V3.97409H15.9251V4.17409ZM13.7744 6.22479C14.0806 6.53103 14.5412 6.62264 14.9413 6.45691L15.0178 6.64168C14.543 6.83837 13.9964 6.72965 13.6329 6.36621L13.7744 6.22479ZM13.7744 4.71043C13.3569 5.12892 13.3569 5.80638 13.7744 6.22487L13.6329 6.36613C13.1375 5.86957 13.1375 5.06573 13.6329 4.56917L13.7744 4.71043ZM14.9413 4.47839C14.5412 4.31266 14.0806 4.40427 13.7744 4.71051L13.6329 4.56909C13.9964 4.20565 14.543 4.09693 15.0178 4.29362L14.9413 4.47839ZM15.6023 5.46765C15.6023 5.03457 15.3414 4.64413 14.9413 4.47839L15.0178 4.29362C15.4927 4.49031 15.8023 4.95367 15.8023 5.46765H15.6023ZM14.9413 6.45691C15.3414 6.29117 15.6023 5.90073 15.6023 5.46765H15.8023C15.8023 5.98163 15.4927 6.44499 15.0178 6.64168L14.9413 6.45691ZM4.30286 11.1717C4.10761 10.9765 4.10761 10.6599 4.30286 10.4646L4.44429 10.6061C4.32713 10.7232 4.32713 10.9132 4.44429 11.0303L4.30286 11.1717ZM8.82835 15.6972L4.30286 11.1717L4.44428 11.0303L8.96977 15.5558L8.82835 15.6972ZM9.53422 15.696C9.33956 15.8907 9.02417 15.8913 8.82866 15.6975L8.96946 15.5555C9.08677 15.6718 9.276 15.6714 9.39279 15.5546L9.53422 15.696ZM9.53576 14.9904C9.72956 15.1859 9.72887 15.5013 9.53422 15.696L9.39279 15.5546C9.50959 15.4378 9.51 15.2485 9.39372 15.1312L9.53576 14.9904ZM5.00996 10.4646L9.53545 14.9901L9.39402 15.1315L4.86854 10.6061L5.00996 10.4646ZM4.30286 10.4646C4.49812 10.2694 4.8147 10.2694 5.00996 10.4646L4.86854 10.6061C4.75138 10.4889 4.56144 10.4889 4.44428 10.6061L4.30286 10.4646ZM6.14135 9.33326L10.6668 13.8588L10.5254 14.0002L5.99993 9.47469L6.14135 9.33326ZM6.14258 8.91024C6.02579 9.02704 6.02538 9.21627 6.14166 9.33357L5.99962 9.47438C5.80582 9.27887 5.8065 8.96348 6.00116 8.76882L6.14258 8.91024ZM6.56592 8.90931C6.44861 8.79303 6.25938 8.79345 6.14258 8.91024L6.00116 8.76882C6.19582 8.57416 6.51121 8.57347 6.70672 8.76727L6.56592 8.90931ZM11.0911 13.4345L6.56561 8.909L6.70703 8.76758L11.2325 13.2931L11.0911 13.4345ZM11.1701 13.7251C11.1978 13.6212 11.1677 13.5105 11.0914 13.4348L11.2322 13.2928C11.3594 13.4189 11.4095 13.6034 11.3634 13.7766L11.1701 13.7251ZM10.9574 13.9377C11.0613 13.9101 11.1424 13.829 11.1701 13.7251L11.3634 13.7766C11.3172 13.9497 11.182 14.0849 11.0089 14.131L10.9574 13.9377ZM10.6672 13.8591C10.7428 13.9354 10.8536 13.9654 10.9574 13.9377L11.0089 14.131C10.8358 14.1771 10.6512 14.1271 10.5251 13.9999L10.6672 13.8591Z" fill="#979797"/>
</svg>
