<?xml version="1.0" encoding="utf-8"?>
<!-- Generator: Adobe Illustrator 24.0.1, SVG Export Plug-In . SVG Version: 6.00 Build 0)  -->
<svg version="1.1" id="Layer_1" xmlns="http://www.w3.org/2000/svg" xmlns:xlink="http://www.w3.org/1999/xlink" x="0px" y="0px"
	 viewBox="0 0 50 50" style="enable-background:new 0 0 50 50;" xml:space="preserve">
<style type="text/css">
	.st0{fill:#FFFFFF;}
	.st1{fill:#00AAF0;}
</style>
<g id="Group_738" transform="translate(-1693 -904)">
	<g id="Group_923">
		<g transform="matrix(1, 0, 0, 1, 1693, 904)">
			<circle id="Ellipse_34-2" class="st0" cx="25" cy="25" r="25"/>
		</g>
		<circle id="Ellipse_35" class="st1" cx="1718" cy="929" r="21"/>
		<g id="TIKI" transform="translate(1701.307 914.43)">
			<path id="Path_175" class="st0" d="M12.97,24.1L12.97,24.1c-0.7,0-1.27-0.57-1.27-1.27c0,0,0,0,0,0V12.75
				c0-0.7,0.57-1.27,1.27-1.27c0,0,0,0,0,0l0,0c0.7,0,1.27,0.57,1.27,1.27c0,0,0,0,0,0v10.08C14.24,23.53,13.68,24.1,12.97,24.1
				C12.97,24.1,12.97,24.1,12.97,24.1z"/>
			<path id="Path_176" class="st0" d="M27.78,24.1L27.78,24.1c-0.7,0-1.27-0.57-1.27-1.27c0,0,0,0,0,0V12.75
				c0-0.7,0.57-1.27,1.27-1.27c0,0,0,0,0,0l0,0c0.7,0,1.27,0.57,1.27,1.27c0,0,0,0,0,0v10.08C29.05,23.54,28.49,24.1,27.78,24.1z"/>
			<g id="Group_732" transform="translate(6.82 3.525)">
				<path id="Path_177" class="st0" d="M10.4,20.58L10.4,20.58c-0.7,0-1.27-0.57-1.27-1.27c0,0,0,0,0,0V9.22
					c0-0.7,0.57-1.27,1.27-1.27c0,0,0,0,0,0l0,0c0.7,0,1.27,0.57,1.27,1.27c0,0,0,0,0,0v10.08C11.67,20.01,11.1,20.58,10.4,20.58z"
					/>
				<path id="Path_178" class="st0" d="M9.83,16.42L9.83,16.42c-0.5-0.49-0.5-1.3,0-1.8c0,0,0,0,0,0l6.29-6.29
					c0.49-0.5,1.3-0.5,1.8,0c0,0,0,0,0,0l0,0c0.5,0.49,0.5,1.3,0,1.8c0,0,0,0,0,0l-6.29,6.29C11.14,16.92,10.33,16.92,9.83,16.42
					C9.83,16.42,9.83,16.42,9.83,16.42z"/>
				<path id="Path_179" class="st0" d="M11.43,13L11.43,13c0.51-0.48,1.31-0.46,1.79,0.04c0,0,0.01,0.01,0.01,0.01l5.17,5.47
					c0.48,0.51,0.46,1.31-0.04,1.79c0,0-0.01,0.01-0.01,0.01l0,0c-0.51,0.48-1.31,0.46-1.79-0.04c0,0-0.01-0.01-0.01-0.01
					l-5.17-5.47C10.89,14.29,10.91,13.49,11.43,13C11.42,13,11.43,13,11.43,13z"/>
			</g>
			<g id="Group_733" transform="translate(0 3.591)">
				<path id="Path_180" class="st0" d="M6.73,20.52L6.73,20.52c-0.7,0-1.27-0.57-1.27-1.27c0,0,0,0,0,0v-9.02
					c0-0.7,0.57-1.27,1.27-1.27c0,0,0,0,0,0l0,0C7.43,8.95,8,9.52,8,10.22c0,0,0,0,0,0v9.02C8,19.95,7.43,20.51,6.73,20.52z"/>
				<path id="Path_181" class="st0" d="M9.9,10.42H3.5c-0.66,0-1.2-0.54-1.2-1.2l0,0l0,0c0-0.66,0.54-1.2,1.2-1.2h0h6.4
					c0.66,0,1.2,0.54,1.2,1.2l0,0l0,0C11.1,9.88,10.56,10.42,9.9,10.42L9.9,10.42z"/>
			</g>
			<g id="Group_734" transform="translate(3.816 0)">
				<circle id="Ellipse_36" class="st0" cx="9.16" cy="7.46" r="3.03"/>
				<path id="Path_182" class="st1" d="M11.52,7.75c0,1.31-1.06,2.37-2.36,2.37S6.79,9.07,6.79,7.76c0,0,0,0,0-0.01
					c0-0.25,0.04-0.5,0.12-0.74h4.5C11.48,7.26,11.52,7.5,11.52,7.75z"/>
			</g>
			<g id="Group_735" transform="translate(11.223 0)">
				<circle id="Ellipse_37" class="st0" cx="16.56" cy="7.46" r="3.03"/>
				<path id="Path_183" class="st1" d="M18.93,7.75c0,1.31-1.06,2.37-2.37,2.37c-1.31,0-2.37-1.06-2.37-2.37
					c0-0.25,0.04-0.5,0.12-0.74h4.5C18.89,7.26,18.93,7.5,18.93,7.75z"/>
			</g>
		</g>
	</g>
</g>
</svg>
