<?xml version="1.0" encoding="UTF-8"?>
<svg width="24px" height="16px" viewBox="0 0 24 16" version="1.1" xmlns="http://www.w3.org/2000/svg" xmlns:xlink="http://www.w3.org/1999/xlink">
    <!-- Generator: Sketch 53.2 (72643) - https://sketchapp.com -->
    <title>icon-customers-2</title>
    <desc>Created with Sketch.</desc>
    <g id="All-v.2" stroke="none" stroke-width="1" fill="none" fill-rule="evenodd">
        <g id="icon-customers-2" transform="translate(1.000000, 1.000000)" fill="#9EA0A5" fill-rule="nonzero" stroke="#9EA0A5" stroke-width="0.4">
            <path d="M11.0890664,0 C9.69177633,1.79594337e-10 8.43207347,0.819847637 7.89735894,2.07724688 C7.36264442,3.33464612 7.6582219,4.78197183 8.64626323,5.74433411 C9.63430455,6.70669639 11.1202304,6.99457302 12.4111516,6.47372676 C13.7020728,5.95288049 14.5437626,4.72588387 14.5437399,3.36488703 C14.5415749,1.5073641 12.9961233,0.00207862714 11.0890664,0 Z M11.0890664,6.07385204 C9.55304982,6.07385204 8.30786234,4.86100709 8.30786234,3.36488703 C8.30786234,1.86876696 9.55304982,0.655922012 11.0890664,0.655922012 C12.625083,0.655922012 13.8702705,1.86876696 13.8702705,3.36488703 C13.8685385,4.86030775 12.624365,6.07216502 11.0890664,6.07385204 Z" id="Shape"></path>
            <path d="M17.6762144,2.32642128 C16.2473185,2.32642128 15.0889695,3.45468329 15.0889695,4.84646501 C15.0889695,6.23824674 16.2473185,7.36650875 17.6762144,7.36650875 C19.1051103,7.36650875 20.2634593,6.23824674 20.2634593,4.84646501 C20.2617276,3.45538256 19.1043924,2.32810803 17.6762144,2.32642128 L17.6762144,2.32642128 Z M17.6762144,6.71096939 C16.6192654,6.71096939 15.7624389,5.87639814 15.7624389,4.84690233 C15.7624389,3.81740653 16.6192654,2.98283528 17.6762144,2.98283528 C18.7331634,2.98283528 19.5899899,3.81740653 19.5899899,4.84690233 C19.5886603,5.87586123 18.7326122,6.70967432 17.6762144,6.71096939 Z" id="Shape"></path>
            <path d="M4.45236234,2.32642128 C3.02346644,2.32642128 1.86511744,3.45468329 1.86511744,4.84646501 C1.86511744,6.23824674 3.02346644,7.36650875 4.45236234,7.36650875 C5.88125824,7.36650875 7.03960724,6.23824674 7.03960724,4.84646501 C7.03787551,3.45538256 5.88054032,2.32810803 4.45236234,2.32642128 Z M4.45236234,6.71096939 C3.39541331,6.71096939 2.53858683,5.87639814 2.53858683,4.84690233 C2.53858683,3.81740653 3.39541331,2.98283528 4.45236234,2.98283528 C5.50931137,2.98283528 6.36613785,3.81740653 6.36613785,4.84690233 C6.36480825,5.87586123 5.50876014,6.70967432 4.45236234,6.71096939 Z" id="Shape"></path>
            <path d="M9.5904715e-08,12.4399417 C9.5904715e-08,12.6210846 0.150761354,12.76793 0.33673479,12.76793 L5.12397969,12.76793 C5.07546092,13.0674379 5.0510668,13.3701832 5.0510205,13.6733965 C5.0510205,13.8545395 5.20178176,14.0013848 5.3877552,14.0013848 L16.612245,14.0013848 C16.7982184,14.0013848 16.9489797,13.8545395 16.9489797,13.6733965 C16.9489188,13.3702744 16.9245247,13.067621 16.8760205,12.7682034 L21.6632654,12.7682034 C21.8492388,12.7682034 22.0000001,12.621358 22.0000001,12.440215 C22.000419,10.7726999 21.0049084,9.25728284 19.4502955,8.55892451 C17.8956827,7.86056617 16.0660101,8.10686324 14.7641327,9.18974125 C12.5754853,7.44195959 9.42451486,7.44195959 7.23586744,9.18974125 C5.93404275,8.10684618 4.10440924,7.86050015 2.54979947,8.55879838 C0.995189697,9.25709661 -0.000356759489,10.7724545 9.59047154e-08,12.4399417 L9.5904715e-08,12.4399417 Z M21.3113776,12.1119534 L16.7294287,12.1119534 C16.4605519,11.1805177 15.9565544,10.329465 15.2633981,9.63640671 C16.3278922,8.79085427 17.7844979,8.58635981 19.0508168,9.10468688 C20.3171357,9.62301394 21.1865262,10.7795804 21.3113776,12.1119534 Z M16.2649032,13.3454082 L5.73509703,13.3454082 C5.91153623,10.6394071 8.21624189,8.53260981 11.0000001,8.53260981 C13.7837583,8.53260981 16.088464,10.6394071 16.2649032,13.3454082 L16.2649032,13.3454082 Z M4.38810214,8.82184767 C5.24416993,8.81990465 6.0742926,9.10796418 6.7362654,9.63668003 C6.04327914,10.3297026 5.539403,11.1806519 5.27057152,12.1119534 L0.688622545,12.1119534 C0.865136715,10.2495997 2.46795669,8.82414322 4.38810214,8.82184767 Z" id="Shape"></path>
        </g>
    </g>
</svg>