<?xml version="1.0" encoding="UTF-8"?>
<svg width="23px" height="22px" viewBox="0 0 23 22" version="1.1" xmlns="http://www.w3.org/2000/svg">
    <!-- Generator: sketchtool 53.2 (72643) - https://sketchapp.com -->
    <title>30911100-62D3-4589-98D1-327196F0D4B6</title>
    <desc>Created with sketchtool.</desc>
    <g id="Page-1" stroke="none" stroke-width="1" fill="none" fill-rule="evenodd">
        <g id="LiveChat-2-v1.0" transform="translate(-29.000000, -143.000000)" fill="#9EA0A5" fill-rule="nonzero" stroke="#9EA0A5" stroke-width="0.5">
            <g id="icon-livechat" transform="translate(30.000000, 144.000000)">
                <path d="M3.57142857,8.38035714 L8.21428571,8.38035714 C8.41178571,8.38035714 8.57142857,8.22035714 8.57142857,8.02321429 C8.57142857,7.82607143 8.41178571,7.66607143 8.21428571,7.66607143 L3.57142857,7.66607143 C3.37392857,7.66607143 3.21428571,7.82607143 3.21428571,8.02321429 C3.21428571,8.22035714 3.37392857,8.38035714 3.57142857,8.38035714 Z" id="Path"></path>
                <path d="M12.8571429,9.80892857 L3.57142857,9.80892857 C3.37392857,9.80892857 3.21428571,9.96892857 3.21428571,10.1660714 C3.21428571,10.3632143 3.37392857,10.5232143 3.57142857,10.5232143 L12.8571429,10.5232143 C13.0546429,10.5232143 13.2142857,10.3632143 13.2142857,10.1660714 C13.2142857,9.96892857 13.0546429,9.80892857 12.8571429,9.80892857 Z" id="Path"></path>
                <path d="M19.3114286,0.191071429 L7.11785714,0.166071429 C5.95,0.166071429 5,1.11607143 5,2.28392857 L5,4.11392857 L2.11785714,4.12 C0.95,4.12 0,5.07 0,6.23785714 L0,13.7882143 C0,14.9560714 0.95,15.9057143 2.11785714,15.9057143 L4.28571429,15.9057143 L4.28571429,19.4771429 C4.28571429,19.6246429 4.37642857,19.7571429 4.51428571,19.8103571 C4.55607143,19.8264286 4.59964286,19.8342857 4.64285714,19.8342857 C4.74142857,19.8342857 4.83821429,19.7932143 4.90714286,19.7175 L8.37285714,15.905 L14.3107143,15.8807143 C15.4785714,15.8807143 16.4285714,14.9307143 16.4285714,13.7632143 L16.4285714,13.7228571 L18.3071429,15.7892857 C18.3760714,15.865 18.4728571,15.9060714 18.5714286,15.9060714 C18.6146429,15.9060714 18.6582143,15.8982143 18.7,15.8821429 C18.8378571,15.8289286 18.9285714,15.6964286 18.9285714,15.5489286 L18.9285714,11.9775 L19.3107143,11.9775 C20.4785714,11.9775 21.4285714,11.0275 21.4285714,9.86 L21.4285714,2.30892857 C21.4285714,1.14142857 20.4789286,0.191428571 19.3114286,0.191071429 Z M15.7142857,13.7628571 C15.7142857,14.5367857 15.0846429,15.1660714 14.3092857,15.1660714 L8.21285714,15.1910714 C8.11285714,15.1914286 8.01714286,15.2339286 7.95,15.3078571 L5,18.5532143 L5,15.5482143 C5,15.3510714 4.84035714,15.1910714 4.64285714,15.1910714 L2.11785714,15.1910714 C1.34392857,15.1910714 0.714285714,14.5614286 0.714285714,13.7878571 L0.714285714,6.2375 C0.714285714,5.46357143 1.34392857,4.83392857 2.11857143,4.83392857 L5.35714286,4.82714286 C5.35714286,4.82714286 5.35714286,4.82714286 5.35714286,4.82714286 C5.3575,4.82714286 5.3575,4.82714286 5.35785714,4.82714286 L14.3107143,4.80857143 C15.0846429,4.80857143 15.7142857,5.43821429 15.7142857,6.21214286 L15.7142857,12.7982143 L15.7142857,13.7628571 Z M20.7142857,9.85928571 C20.7142857,10.6332143 20.0846429,11.2625 19.3107143,11.2625 L18.5714286,11.2625 C18.3739286,11.2625 18.2142857,11.4225 18.2142857,11.6196429 L18.2142857,14.6246429 L16.4285714,12.6603571 L16.4285714,6.2125 C16.4285714,5.04464286 15.4785714,4.09464286 14.31,4.09464286 L5.71428571,4.11214286 L5.71428571,2.28357143 C5.71428571,1.50964286 6.34392857,0.88 7.11714286,0.88 L19.3103571,0.905 C19.3107143,0.905 19.3107143,0.905 19.3110714,0.905 C20.085,0.905 20.7146429,1.53464286 20.7146429,2.30857143 L20.7146429,9.85928571 L20.7142857,9.85928571 Z" id="Shape"></path>
            </g>
        </g>
    </g>
</svg>
