<?xml version="1.0" encoding="UTF-8"?>
<svg width="525px" height="449px" viewBox="0 0 525 449" version="1.1" xmlns="http://www.w3.org/2000/svg" xmlns:xlink="http://www.w3.org/1999/xlink">
    <!-- Generator: sketchtool 53.2 (72643) - https://sketchapp.com -->
    <title>DC28C7D2-826E-4F6F-9004-50B26E1EC3B2</title>
    <desc>Created with sketchtool.</desc>
    <defs>
        <polygon id="path-1" points="0.999908257 0.580307487 184.722213 0.580307487 184.722213 338.101604 0.999908257 338.101604"></polygon>
        <polygon id="path-3" points="0 448.796791 524.182397 448.796791 524.182397 0.931283422 0 0.931283422"></polygon>
        <path d="M0.568348624,23.1822193 C0.568348624,35.3959893 10.4771216,45.2971925 22.6990252,45.2971925 L22.6990252,45.2971925 C34.922133,45.2971925 44.8297018,35.3959893 44.8297018,23.1822193 L44.8297018,23.1822193 C44.8297018,10.9696524 34.922133,1.0684492 22.6990252,1.0684492 L22.6990252,1.0684492 C10.4771216,1.0684492 0.568348624,10.9696524 0.568348624,23.1822193 L0.568348624,23.1822193 Z" id="path-5"></path>
        <path d="M0.568348624,23.1822193 C0.568348624,35.3959893 10.4771216,45.2971925 22.6990252,45.2971925 L22.6990252,45.2971925 C34.922133,45.2971925 44.8297018,35.3959893 44.8297018,23.1822193 L44.8297018,23.1822193 C44.8297018,10.9696524 34.922133,1.0684492 22.6990252,1.0684492 L22.6990252,1.0684492 C10.4771216,1.0684492 0.568348624,10.9696524 0.568348624,23.1822193" id="path-7"></path>
        <path d="M0.134862385,22.5264706 C0.134862385,34.7390374 10.0436353,44.6402406 22.265539,44.6402406 L22.265539,44.6402406 C34.4874427,44.6402406 44.3962156,34.7390374 44.3962156,22.5264706 L44.3962156,22.5264706 C44.3962156,10.3139037 34.4874427,0.411497326 22.265539,0.411497326 L22.265539,0.411497326 C10.0436353,0.411497326 0.134862385,10.3139037 0.134862385,22.5264706 L0.134862385,22.5264706 Z" id="path-9"></path>
        <path d="M0.134862385,22.5264706 C0.134862385,34.7390374 10.0436353,44.6402406 22.265539,44.6402406 L22.265539,44.6402406 C34.4874427,44.6402406 44.3962156,34.7390374 44.3962156,22.5264706 L44.3962156,22.5264706 C44.3962156,10.3139037 34.4874427,0.411497326 22.265539,0.411497326 L22.265539,0.411497326 C10.0436353,0.411497326 0.134862385,10.3139037 0.134862385,22.5264706" id="path-11"></path>
        <polygon id="path-13" points="0 0.0687032086 75.0572993 0.0687032086 75.0572993 26.7799332 0 26.7799332"></polygon>
    </defs>
    <g id="Communications-v.1" stroke="none" stroke-width="1" fill="none" fill-rule="evenodd" opacity="0.6">
        <g id="Communication-1" transform="translate(-715.000000, -161.000000)">
            <g id="illustration-communication" transform="translate(715.000000, 160.000000)">
                <g id="Group-58" transform="translate(0.000000, 0.271925)">
                    <g id="Group-3" transform="translate(169.782110, 110.695187)">
                        <mask id="mask-2" fill="white">
                            <use xlink:href="#path-1"></use>
                        </mask>
                        <g id="Clip-2"></g>
                        <path d="M173.21195,338.101965 L12.5089679,338.101965 C6.15357798,338.101965 0.999908257,332.953436 0.999908257,326.600495 L0.999908257,12.0817781 C0.999908257,5.73004011 6.15357798,0.580307487 12.5089679,0.580307487 L173.21195,0.580307487 C179.567339,0.580307487 184.722213,5.73004011 184.722213,12.0817781 L184.722213,326.600495 C184.722213,332.953436 179.567339,338.101965 173.21195,338.101965" id="Fill-1" fill="#405DCA" mask="url(#mask-2)"></path>
                    </g>
                    <mask id="mask-4" fill="white">
                        <use xlink:href="#path-3"></use>
                    </mask>
                    <g id="Clip-5"></g>
                    <polygon id="Fill-4" fill="#F4F7FA" mask="url(#mask-4)" points="174.395126 409.373663 354.503842 409.373663 354.503842 142.161497 174.395126 142.161497"></polygon>
                    <path d="M271.427167,427.320361 C271.427167,432.168088 267.49328,436.097767 262.64305,436.097767 C257.791617,436.097767 253.858933,432.168088 253.858933,427.320361 C253.858933,422.473837 257.791617,418.542955 262.64305,418.542955 C267.49328,418.542955 271.427167,422.473837 271.427167,427.320361" id="Fill-6" fill="#8692CE" mask="url(#mask-4)"></path>
                    <path d="M277.775814,127.205615 L247.508842,127.205615 C246.31555,127.205615 245.347431,126.238235 245.347431,125.045856 C245.347431,123.852273 246.31555,122.884893 247.508842,122.884893 L277.775814,122.884893 C278.97031,122.884893 279.938429,123.852273 279.938429,125.045856 C279.938429,126.238235 278.97031,127.205615 277.775814,127.205615" id="Fill-7" fill="#8692CE" mask="url(#mask-4)"></path>
                    <path d="M342.99406,111.275976 L335.003463,111.275976 C341.361261,111.275976 346.513727,116.424505 346.513727,122.777447 L346.513727,437.296163 C346.513727,443.647901 341.361261,448.797634 335.003463,448.797634 L342.99406,448.797634 C349.34945,448.797634 354.504323,443.647901 354.504323,437.296163 L354.504323,122.777447 C354.504323,116.424505 349.34945,111.275976 342.99406,111.275976" id="Fill-8" fill="#3E51B4" mask="url(#mask-4)"></path>
                    <path d="M471.405327,109.493543 C471.541393,108.699425 471.618458,107.88365 471.618458,107.051029 C471.618458,99.1591845 465.214903,92.7617246 457.318228,92.7617246 C452.594432,92.7617246 448.407678,95.0502273 445.803148,98.5780348 C444.17035,86.0815107 433.481302,76.4305749 420.529696,76.4305749 C409.507104,76.4305749 400.118515,83.4200134 396.560315,93.2057086 C395.424822,92.9157353 394.236347,92.7617246 393.011749,92.7617246 C385.11387,92.7617246 378.711519,99.1591845 378.711519,107.051029 C378.711519,107.88365 378.786175,108.699425 378.923446,109.493543 L471.405327,109.493543 Z" id="Fill-9" fill="#D5DBFE" mask="url(#mask-4)"></path>
                    <path d="M479.346313,148.088984 C479.278882,147.70516 479.242758,147.311711 479.242758,146.908636 C479.242758,143.090856 482.339776,139.995 486.159272,139.995 C488.444708,139.995 490.468847,141.103155 491.72957,142.809305 C492.519478,136.764385 497.688802,132.095936 503.955086,132.095936 C509.285763,132.095936 513.827735,135.478155 515.548435,140.210374 C516.097517,140.070802 516.673091,139.995 517.265522,139.995 C521.085017,139.995 524.182036,143.090856 524.182036,146.908636 C524.182036,147.311711 524.145912,147.70516 524.078481,148.088984 L479.346313,148.088984 Z" id="Fill-10" fill="#D5DBFE" mask="url(#mask-4)"></path>
                    <path d="M471.405327,108.290334 C471.541393,107.496217 471.618458,106.680441 471.618458,105.847821 C471.618458,97.9559759 465.214903,91.558516 457.318228,91.558516 C452.594432,91.558516 448.407678,93.8470187 445.803148,97.3748262 C444.17035,84.8783021 433.481302,75.2273663 420.529696,75.2273663 C409.507104,75.2273663 400.118515,82.2168048 396.560315,92.0025 C395.424822,91.7125267 394.236347,91.558516 393.011749,91.558516 C385.11387,91.558516 378.711519,97.9559759 378.711519,105.847821 C378.711519,106.680441 378.786175,107.496217 378.923446,108.290334 L471.405327,108.290334 Z" id="Fill-11" fill="#D5DBFE" mask="url(#mask-4)"></path>
                    <path d="M479.346313,146.885775 C479.278882,146.501952 479.242758,146.108503 479.242758,145.705428 C479.242758,141.887647 482.339776,138.791791 486.159272,138.791791 C488.444708,138.791791 490.468847,139.899947 491.72957,141.606096 C492.519478,135.561176 497.688802,130.892727 503.955086,130.892727 C509.285763,130.892727 513.827735,134.274947 515.548435,139.007166 C516.097517,138.867594 516.673091,138.791791 517.265522,138.791791 C521.085017,138.791791 524.182036,141.887647 524.182036,145.705428 C524.182036,146.108503 524.145912,146.501952 524.078481,146.885775 L479.346313,146.885775 Z" id="Fill-12" fill="#D5DBFE" mask="url(#mask-4)"></path>
                    <path d="M471.405327,107.087126 C471.541393,106.293008 471.618458,105.477233 471.618458,104.644612 C471.618458,96.7527674 465.214903,90.3553075 457.318228,90.3553075 C452.594432,90.3553075 448.407678,92.6438102 445.803148,96.1716176 C444.17035,83.6750936 433.481302,74.0241578 420.529696,74.0241578 C409.507104,74.0241578 400.118515,81.0135963 396.560315,90.7992914 C395.424822,90.5093182 394.236347,90.3553075 393.011749,90.3553075 C385.11387,90.3553075 378.711519,96.7527674 378.711519,104.644612 C378.711519,105.477233 378.786175,106.293008 378.923446,107.087126 L471.405327,107.087126 Z" id="Fill-13" fill="#D5DBFE" mask="url(#mask-4)"></path>
                    <path d="M0.171347477,255.389559 C0.0605676606,254.748249 -0.000842889908,254.090094 -0.000842889908,253.416297 C-0.000842889908,247.041698 5.17209289,241.872714 11.5527695,241.872714 C15.3686525,241.872714 18.7510493,243.722045 20.8546617,246.571243 C22.1743865,236.47512 30.8091915,228.678329 41.2730677,228.678329 C50.1775975,228.678329 57.7624025,234.324987 60.6378612,242.230067 C61.5554071,241.996644 62.5150975,241.872714 63.5060952,241.872714 C69.8855677,241.872714 75.0572993,247.041698 75.0572993,253.416297 C75.0572993,254.090094 74.9970929,254.748249 74.8863131,255.389559 L0.171347477,255.389559 Z" id="Fill-14" fill="#D5DBFE" mask="url(#mask-4)"></path>
                    <path d="M479.346313,145.682567 C479.278882,145.298743 479.242758,144.905294 479.242758,144.502219 C479.242758,140.684439 482.339776,137.588583 486.159272,137.588583 C488.444708,137.588583 490.468847,138.696738 491.72957,140.402888 C492.519478,134.357968 497.688802,129.689519 503.955086,129.689519 C509.285763,129.689519 513.827735,133.071738 515.548435,137.803957 C516.097517,137.664385 516.673091,137.588583 517.265522,137.588583 C521.085017,137.588583 524.182036,140.684439 524.182036,144.502219 C524.182036,144.905294 524.145912,145.298743 524.078481,145.682567 L479.346313,145.682567 Z" id="Fill-15" fill="#D5DBFE" mask="url(#mask-4)"></path>
                    <polygon id="Fill-16" fill="#7598FB" mask="url(#mask-4)" points="257.595585 396.778476 362.783429 396.778476 362.783429 375.124332 257.595585 375.124332"></polygon>
                    <polygon id="Fill-17" fill="#FFFFFF" mask="url(#mask-4)" points="251.850688 393.787299 360.289679 393.787299 360.289679 372.976604 251.850688 372.976604"></polygon>
                    <path d="M272.078601,381.518543 C272.019599,381.336858 271.851021,381.212928 271.65836,381.212928 L267.25125,381.212928 L265.890585,377.025762 C265.831583,376.842874 265.6618,376.720147 265.470344,376.720147 C265.280092,376.720147 265.11031,376.842874 265.050103,377.025762 L263.689438,381.212928 L259.282328,381.212928 C259.090872,381.212928 258.921089,381.336858 258.862087,381.518543 C258.804289,381.699024 258.866904,381.898757 259.022236,382.010655 L262.587661,384.59996 L261.225791,388.787126 C261.166789,388.967607 261.231812,389.16734 261.38594,389.279238 C261.541273,389.39234 261.750791,389.39234 261.906124,389.279238 L265.470344,386.69234 L269.035768,389.279238 C269.112833,389.335789 269.204346,389.364666 269.294656,389.364666 C269.38617,389.364666 269.477683,389.335789 269.554748,389.279238 C269.708876,389.16734 269.773899,388.967607 269.714897,388.787126 L268.353028,384.59996 L271.918452,382.010655 C272.07258,381.898757 272.137603,381.699024 272.078601,381.518543" id="Fill-18" fill="#FBA50C" mask="url(#mask-4)"></path>
                    <path d="M292.37828,381.518543 C292.319278,381.336858 292.1507,381.212928 291.958039,381.212928 L287.550929,381.212928 L286.18906,377.025762 C286.131261,376.842874 285.961479,376.720147 285.770023,376.720147 C285.578567,376.720147 285.408784,376.842874 285.349782,377.025762 L283.987913,381.212928 L279.582007,381.212928 C279.39055,381.212928 279.220768,381.336858 279.161766,381.518543 C279.102764,381.699024 279.166583,381.898757 279.321915,382.010655 L282.887339,384.59996 L281.52547,388.787126 C281.466468,388.967607 281.531491,389.16734 281.685619,389.279238 C281.840952,389.39234 282.05047,389.39234 282.205803,389.279238 L285.770023,386.69234 L289.335447,389.279238 C289.412511,389.335789 289.504025,389.364666 289.594335,389.364666 C289.685849,389.364666 289.777362,389.335789 289.853222,389.279238 C290.008555,389.16734 290.073578,388.967607 290.014576,388.787126 L288.652706,384.59996 L292.218131,382.010655 C292.372259,381.898757 292.437282,381.699024 292.37828,381.518543" id="Fill-19" fill="#FBA50C" mask="url(#mask-4)"></path>
                    <path d="M312.677959,381.518543 C312.618956,381.336858 312.450378,381.212928 312.257718,381.212928 L307.850608,381.212928 L306.488739,377.025762 C306.43094,376.842874 306.261158,376.720147 306.069702,376.720147 C305.878245,376.720147 305.708463,376.842874 305.649461,377.025762 L304.287592,381.212928 L299.881686,381.212928 C299.690229,381.212928 299.520447,381.336858 299.460241,381.518543 C299.402443,381.699024 299.466261,381.898757 299.621594,382.010655 L303.187018,384.59996 L301.825149,388.787126 C301.764943,388.967607 301.829966,389.16734 301.985298,389.279238 C302.140631,389.39234 302.348945,389.39234 302.505482,389.279238 L306.069702,386.69234 L309.635126,389.279238 C309.71219,389.335789 309.8025,389.364666 309.894014,389.364666 C309.985528,389.364666 310.075837,389.335789 310.152901,389.279238 C310.308234,389.16734 310.373257,388.967607 310.314255,388.787126 L308.952385,384.59996 L312.51781,382.010655 C312.671938,381.898757 312.736961,381.699024 312.677959,381.518543" id="Fill-20" fill="#FBA50C" mask="url(#mask-4)"></path>
                    <path d="M332.977638,381.518543 C332.918635,381.336858 332.750057,381.212928 332.557397,381.212928 L328.150287,381.212928 L326.788417,377.025762 C326.730619,376.842874 326.560837,376.720147 326.369381,376.720147 C326.177924,376.720147 326.008142,376.842874 325.94914,377.025762 L324.587271,381.212928 L320.180161,381.212928 C319.989908,381.212928 319.820126,381.336858 319.75992,381.518543 C319.702122,381.699024 319.76594,381.898757 319.921273,382.010655 L323.485493,384.59996 L322.123624,388.787126 C322.064622,388.967607 322.129644,389.16734 322.284977,389.279238 C322.44031,389.39234 322.648624,389.39234 322.803956,389.279238 L326.369381,386.69234 L329.934805,389.279238 C330.011869,389.335789 330.102179,389.364666 330.192489,389.364666 C330.285206,389.364666 330.375516,389.335789 330.45258,389.279238 C330.607913,389.16734 330.672936,388.967607 330.613933,388.787126 L329.252064,384.59996 L332.817489,382.010655 C332.971617,381.898757 333.03664,381.699024 332.977638,381.518543" id="Fill-21" fill="#405DCA" mask="url(#mask-4)"></path>
                    <path d="M353.277317,381.518543 C353.21711,381.336858 353.048532,381.212928 352.857076,381.212928 L348.449966,381.212928 L347.088096,377.025762 C347.030298,376.842874 346.860516,376.720147 346.66906,376.720147 C346.477603,376.720147 346.307821,376.842874 346.248819,377.025762 L344.88695,381.212928 L340.479839,381.212928 C340.288383,381.212928 340.118601,381.336858 340.059599,381.518543 C340.0018,381.699024 340.065619,381.898757 340.219748,382.010655 L343.785172,384.59996 L342.423303,388.787126 C342.3643,388.967607 342.429323,389.16734 342.584656,389.279238 C342.739989,389.39234 342.948303,389.39234 343.103635,389.279238 L346.66906,386.69234 L350.234484,389.279238 C350.311548,389.335789 350.401858,389.364666 350.492167,389.364666 C350.584885,389.364666 350.675195,389.335789 350.752259,389.279238 C350.907592,389.16734 350.972615,388.967607 350.912408,388.787126 L349.551743,384.59996 L353.115963,382.010655 C353.271296,381.898757 353.336319,381.699024 353.277317,381.518543" id="Fill-22" fill="#405DCA" mask="url(#mask-4)"></path>
                    <path d="M125.237305,324.695094 C123.142122,324.695094 121.4443,322.99857 121.4443,320.90619 C121.4443,318.811404 123.142122,317.11488 125.237305,317.11488 C127.332489,317.11488 129.03031,318.811404 129.03031,320.90619 C129.03031,322.99857 127.332489,324.695094 125.237305,324.695094 Z" id="Stroke-23" stroke="#7598FB" stroke-width="0.829" mask="url(#mask-4)"></path>
                    <path d="M147.893463,356.346217 L135.794381,356.346217" id="Stroke-24" stroke="#7598FB" stroke-width="0.829" mask="url(#mask-4)"></path>
                    <path d="M141.84344,362.391738 L141.84344,350.301898" id="Stroke-25" stroke="#7598FB" stroke-width="0.829" mask="url(#mask-4)"></path>
                    <path d="M139.234094,176.189318 C141.328073,176.189318 143.027099,177.885842 143.027099,179.979425 C143.027099,182.073008 141.328073,183.770735 139.234094,183.770735 C137.138911,183.770735 135.441089,182.073008 135.441089,179.979425 C135.441089,177.885842 137.138911,176.189318 139.234094,176.189318 Z" id="Stroke-26" stroke="#7598FB" stroke-width="0.829" mask="url(#mask-4)"></path>
                    <path d="M116.577936,144.538075 L128.677018,144.538075" id="Stroke-27" stroke="#7598FB" stroke-width="0.829" mask="url(#mask-4)"></path>
                    <path d="M122.626755,138.492674 L122.626755,150.582513" id="Stroke-28" stroke="#7598FB" stroke-width="0.829" mask="url(#mask-4)"></path>
                    <path d="M117.157603,339.332126 C117.157603,340.472767 116.231628,341.398035 115.090115,341.398035 C113.947397,341.398035 113.021422,340.472767 113.021422,339.332126 C113.021422,338.190281 113.947397,337.265013 115.090115,337.265013 C116.231628,337.265013 117.157603,338.190281 117.157603,339.332126" id="Fill-29" fill="#2741B6" mask="url(#mask-4)"></path>
                    <path d="M158.315556,144.538075 C158.315556,145.678717 157.388377,146.605187 156.246864,146.605187 C155.104146,146.605187 154.178171,145.678717 154.178171,144.538075 C154.178171,143.397433 155.104146,142.470963 156.246864,142.470963 C157.388377,142.470963 158.315556,143.397433 158.315556,144.538075" id="Fill-30" fill="#2741B6" mask="url(#mask-4)"></path>
                    <path d="M241.826078,0.932125668 L189.422408,0.932125668 C186.734794,0.932125668 184.555321,3.10993316 184.555321,5.79429144 L184.555321,43.2561898 C184.555321,45.9417513 186.734794,48.1195588 189.422408,48.1195588 L214.422523,48.1195588 L225.933991,68.6306551 C226.384335,69.4343984 227.61375,69.0698262 227.553544,68.1505749 L226.242248,48.1195588 L241.826078,48.1195588 C244.513693,48.1195588 246.693165,45.9417513 246.693165,43.2561898 L246.693165,5.79429144 C246.693165,3.10993316 244.513693,0.932125668 241.826078,0.932125668" id="Fill-31" fill="#D5DBFE" mask="url(#mask-4)"></path>
                    <path d="M227.990281,18.6160428 L227.990281,32.0871658 C227.990281,32.9318182 227.303928,33.6200535 226.457425,33.6200535 L204.789134,33.6200535 C203.952265,33.6200535 203.264708,32.9318182 203.264708,32.0871658 L203.264708,18.6160428 C203.264708,18.5185829 203.274341,18.4127005 203.291198,18.3248663 L214.323423,24.5322193 C215.133802,24.9906417 216.121187,24.9906417 216.931565,24.5322193 L227.955361,18.3248663 C227.981852,18.4223262 227.990281,18.5185829 227.990281,18.6160428" id="Fill-32" fill="#FBA50C" mask="url(#mask-4)"></path>
                    <path d="M227.955,16.302393 L216.932408,22.509746 C216.120826,22.9669652 215.134644,22.9669652 214.324266,22.509746 L203.292041,16.302393 C203.299266,16.2759225 203.299266,16.2494519 203.308899,16.2314037 C203.388372,15.9149599 203.564174,15.6322059 203.811021,15.4300668 C204.041009,15.2267246 204.331204,15.1039973 204.649094,15.0859492 C204.692443,15.0775267 204.745424,15.0691043 204.789977,15.0691043 L226.457064,15.0691043 C227.206032,15.0691043 227.82375,15.5973128 227.955,16.302393" id="Fill-33" fill="#FBA50C" mask="url(#mask-4)"></path>
                    <path d="M199.280608,15.2272059 C199.268567,15.2512701 199.268567,15.2861631 199.256525,15.3210561 L199.221606,15.2981952 C199.245688,15.274131 199.256525,15.2512701 199.280608,15.2272059" id="Fill-34" fill="#804ECE" mask="url(#mask-4)"></path>
                    <path d="M334.479306,304.846845 C334.479306,320.795374 321.540946,333.72385 305.580224,333.72385 C289.619501,333.72385 276.681141,320.795374 276.681141,304.846845 C276.681141,288.898316 289.619501,275.96984 305.580224,275.96984 C321.540946,275.96984 334.479306,288.898316 334.479306,304.846845" id="Fill-35" fill="#D5DBFE" mask="url(#mask-4)"></path>
                    <polygon id="Fill-36" fill="#FBA50C" mask="url(#mask-4)" points="291.13297 297.725053 291.13297 315.294305 301.927982 306.50607"></polygon>
                    <polygon id="Fill-37" fill="#FBA50C" mask="url(#mask-4)" points="309.573595 306.505949 320.369811 315.294184 320.369811 297.724933"></polygon>
                    <polygon id="Fill-38" fill="#FBA50C" mask="url(#mask-4)" points="305.750728 309.612634 302.71512 307.148463 292.026072 315.838035 319.476588 315.838035 308.792357 307.148463"></polygon>
                    <polygon id="Fill-39" fill="#FBA50C" mask="url(#mask-4)" points="303.106101 306.192273 303.495034 306.50631 305.750367 308.341203 308.006904 306.50631 308.39945 306.192273 308.7932 305.873422 319.477431 297.179037 292.025711 297.179037 302.714759 305.873422"></polygon>
                    <path d="M256.889364,217.812754 C256.889364,233.761283 243.951003,246.689759 227.990281,246.689759 C212.029558,246.689759 199.091198,233.761283 199.091198,217.812754 C199.091198,201.864225 212.029558,188.935749 227.990281,188.935749 C243.951003,188.935749 256.889364,201.864225 256.889364,217.812754" id="Fill-40" fill="#D5DBFE" mask="url(#mask-4)"></path>
                    <path d="M228.174994,226.493783 L236.341393,232.844318 L236.341393,226.493783 L238.475109,226.493783 C240.9809,226.493783 243.012265,224.463971 243.012265,221.960094 L243.012265,209.266243 C243.012265,206.762366 240.9809,204.73135 238.475109,204.73135 L216.694834,204.73135 C214.190247,204.73135 212.157678,206.762366 212.157678,209.266243 L212.157678,221.960094 C212.157678,224.463971 213.279925,226.493783 214.663469,226.493783 L228.174994,226.493783 Z" id="Fill-41" fill="#556DE6" mask="url(#mask-4)"></path>
                    <path d="M237.135396,215.816511 C237.135396,217.174933 236.151623,218.222928 234.812632,218.222928 C233.474845,218.222928 232.499501,217.174933 232.499501,215.816511 C232.499501,214.425602 233.474845,213.37881 234.812632,213.37881 C236.151623,213.37881 237.135396,214.425602 237.135396,215.816511" id="Fill-42" fill="#F7F7F7" mask="url(#mask-4)"></path>
                    <path d="M229.902317,215.816511 C229.902317,217.174933 228.918544,218.222928 227.579553,218.222928 C226.241766,218.222928 225.267626,217.174933 225.267626,215.816511 C225.267626,214.425602 226.241766,213.37881 227.579553,213.37881 C228.918544,213.37881 229.902317,214.425602 229.902317,215.816511" id="Fill-43" fill="#F7F7F7" mask="url(#mask-4)"></path>
                    <path d="M222.670562,215.816511 C222.670562,217.174933 221.686789,218.222928 220.346594,218.222928 C219.008807,218.222928 218.034667,217.174933 218.034667,215.816511 C218.034667,214.425602 219.008807,213.37881 220.346594,213.37881 C221.686789,213.37881 222.670562,214.425602 222.670562,215.816511" id="Fill-44" fill="#F7F7F7" mask="url(#mask-4)"></path>
                    <path d="M91.6663245,167.252246 C91.6663245,178.119626 82.8509002,186.929519 71.974008,186.929519 C61.09832,186.929519 52.2828956,178.119626 52.2828956,167.252246 C52.2828956,156.384866 61.09832,147.574973 71.974008,147.574973 C82.8509002,147.574973 91.6663245,156.384866 91.6663245,167.252246" id="Fill-45" fill="#D5DBFE" mask="url(#mask-4)"></path>
                    <path d="M72.1004415,174.370428 L77.664719,178.698369 L77.664719,174.370428 L79.1193062,174.370428 C80.8255562,174.370428 82.2103039,172.987941 82.2103039,171.282995 L82.2103039,162.631925 C82.2103039,160.924572 80.8255562,159.542086 79.1193062,159.542086 L64.277219,159.542086 C62.570969,159.542086 61.1874255,160.924572 61.1874255,162.631925 L61.1874255,171.282995 C61.1874255,172.987941 61.9496388,174.370428 62.8936755,174.370428 L72.1004415,174.370428 Z" id="Fill-46" fill="#556DE6" mask="url(#mask-4)"></path>
                    <path d="M78.2057339,167.094746 C78.2057339,168.021217 77.5350344,168.734719 76.6235092,168.734719 C75.7119839,168.734719 75.047305,168.021217 75.047305,167.094746 C75.047305,166.147821 75.7119839,165.434318 76.6235092,165.434318 C77.5350344,165.434318 78.2057339,166.147821 78.2057339,167.094746" id="Fill-47" fill="#F7F7F7" mask="url(#mask-4)"></path>
                    <path d="M73.2774771,167.094746 C73.2774771,168.021217 72.6067775,168.734719 71.6952523,168.734719 C70.7837271,168.734719 70.1190482,168.021217 70.1190482,167.094746 C70.1190482,166.147821 70.7837271,165.434318 71.6952523,165.434318 C72.6067775,165.434318 73.2774771,166.147821 73.2774771,167.094746" id="Fill-48" fill="#F7F7F7" mask="url(#mask-4)"></path>
                    <path d="M68.3492202,167.094746 C68.3492202,168.021217 67.6785206,168.734719 66.7669954,168.734719 C65.8554702,168.734719 65.1907913,168.021217 65.1907913,167.094746 C65.1907913,166.147821 65.8554702,165.434318 66.7669954,165.434318 C67.6785206,165.434318 68.3492202,166.147821 68.3492202,167.094746" id="Fill-49" fill="#F7F7F7" mask="url(#mask-4)"></path>
                    <path d="M283.625952,363.075521 C283.625952,363.075521 265.430367,348.823516 265.430367,328.183676 C265.430367,316.369372 265.106456,299.561751 264.831915,287.349184 C264.635642,278.631939 257.50961,271.670174 248.783291,271.670174 L60.6647133,271.670174 C51.7999197,271.670174 44.6124771,278.852126 44.6124771,287.710147 L44.6124771,346.959746 C44.6124771,355.847848 51.8456766,363.041832 60.7393693,362.999719 L242.990229,362.145441 C250.11867,362.110548 256.946078,359.266163 261.98656,354.229532 C261.98656,354.229532 267.889197,362.583409 283.625952,363.075521" id="Fill-50" fill="#7689F4" mask="url(#mask-4)"></path>
                    <path d="M283.624868,357.824479 C283.624868,357.824479 265.429283,343.572473 265.429283,322.933837 C265.429283,311.118329 265.106577,294.310709 264.832036,282.098142 C264.634558,273.380896 257.508526,266.419131 248.782208,266.419131 L60.6648337,266.419131 C51.798836,266.419131 44.6125975,273.601083 44.6125975,282.459104 L44.6125975,341.708703 C44.6125975,350.596805 51.845797,357.790789 60.7394897,357.748676 L242.99035,356.894398 C250.11879,356.859505 256.946198,354.01512 261.985476,348.978489 C261.985476,348.978489 267.888114,357.332366 283.624868,357.824479" id="Fill-51" fill="#AFBBFE" mask="url(#mask-4)"></path>
                    <path d="M117.960757,311.952152 C117.960757,325.982767 106.579335,337.355495 92.5391972,337.355495 C78.4990596,337.355495 67.1164335,325.982767 67.1164335,311.952152 C67.1164335,297.923944 78.4990596,286.550013 92.5391972,286.550013 C106.579335,286.550013 117.960757,297.923944 117.960757,311.952152" id="Fill-52" fill="#FFFFFF" mask="url(#mask-4)"></path>
                    <path d="M233.244255,293.727754 L136.805608,293.727754 C134.510539,293.727754 132.632099,291.850749 132.632099,289.557433 C132.632099,287.265321 134.510539,285.388316 136.805608,285.388316 L233.244255,285.388316 C235.539323,285.388316 237.417764,287.265321 237.417764,289.557433 C237.417764,291.850749 235.539323,293.727754 233.244255,293.727754" id="Fill-53" fill="#FFFFFF" mask="url(#mask-4)"></path>
                    <path d="M233.244255,309.016925 L136.805608,309.016925 C134.510539,309.016925 132.632099,307.13992 132.632099,304.846604 C132.632099,302.553289 134.510539,300.676283 136.805608,300.676283 L233.244255,300.676283 C235.539323,300.676283 237.417764,302.553289 237.417764,304.846604 C237.417764,307.13992 235.539323,309.016925 233.244255,309.016925" id="Fill-54" fill="#FFFFFF" mask="url(#mask-4)"></path>
                    <path d="M233.244255,324.305013 L136.805608,324.305013 C134.510539,324.305013 132.632099,322.428008 132.632099,320.134693 C132.632099,317.84258 134.510539,315.965575 136.805608,315.965575 L233.244255,315.965575 C235.539323,315.965575 237.417764,317.84258 237.417764,320.134693 C237.417764,322.428008 235.539323,324.305013 233.244255,324.305013" id="Fill-55" fill="#FFFFFF" mask="url(#mask-4)"></path>
                    <path d="M185.340172,339.594184 L135.677099,339.594184 C134.002156,339.594184 132.633062,338.224933 132.633062,336.552473 L132.633062,334.296457 C132.633062,332.622794 134.002156,331.253543 135.677099,331.253543 L185.340172,331.253543 C187.015115,331.253543 188.383005,332.622794 188.383005,334.296457 L188.383005,336.552473 C188.383005,338.224933 187.015115,339.594184 185.340172,339.594184" id="Fill-56" fill="#FFFFFF" mask="url(#mask-4)"></path>
                    <path d="M119.106124,311.952152 C119.106124,326.614452 107.210539,338.498543 92.5394381,338.498543 C77.8659289,338.498543 65.9715482,326.614452 65.9715482,311.952152 C65.9715482,297.291056 77.8659289,285.406965 92.5394381,285.406965 C107.210539,285.406965 119.106124,297.291056 119.106124,311.952152" id="Fill-57" fill="#FAFAFA" mask="url(#mask-4)"></path>
                </g>
                <g id="Group-65" transform="translate(69.839450, 289.041979)">
                    <g id="Group-61">
                        <mask id="mask-6" fill="white">
                            <use xlink:href="#path-5"></use>
                        </mask>
                        <g id="Clip-60"></g>
                        <path d="M38.1931479,41.4804947 C38.1931479,34.103623 32.2086296,28.1236765 24.8261181,28.1236765 L21.0078268,28.1236765 C13.6265195,28.1236765 7.64200115,34.103623 7.64200115,41.4804947 L7.64200115,45.2970722 L38.1931479,45.2970722 L38.1931479,41.4804947 Z" id="Fill-59" fill="#AFBBFE" mask="url(#mask-6)"></path>
                    </g>
                    <g id="Group-64">
                        <mask id="mask-8" fill="white">
                            <use xlink:href="#path-7"></use>
                        </mask>
                        <g id="Clip-63"></g>
                        <path d="M22.9169725,10.4308556 C27.1362385,10.4308556 30.5559633,13.8479679 30.5559633,18.0640107 C30.5559633,22.2788503 27.1362385,25.6959626 22.9169725,25.6959626 C18.6989106,25.6959626 15.2791858,22.2788503 15.2791858,18.0640107 C15.2791858,13.8479679 18.6989106,10.4308556 22.9169725,10.4308556" id="Fill-62" fill="#AFBBFE" mask="url(#mask-8)"></path>
                    </g>
                </g>
                <g id="Group-82" transform="translate(260.091743, 163.908289)">
                    <path d="M0.484180046,97.4908155 C0.484180046,97.4908155 18.6797649,83.2388102 18.6797649,62.6001738 C18.6797649,50.7846658 19.0024713,33.9770455 19.2782167,21.7644786 C19.4744897,13.0484358 26.6005218,6.08667112 35.3268406,6.08667112 L223.445419,6.08667112 C232.310212,6.08667112 239.496451,13.2674198 239.496451,22.1254412 L239.496451,81.3750401 C239.496451,90.2631417 232.264455,97.4571257 223.370763,97.4150134 L41.1199025,96.5607353 C33.9914622,96.5258422 27.1640539,93.6826604 22.1235722,88.6448262 C22.1235722,88.6448262 16.2209346,96.9999064 0.484180046,97.4908155" id="Fill-66" fill="#7689F4"></path>
                    <path d="M0.484180046,91.8648529 C0.484180046,91.8648529 18.6797649,77.6128476 18.6797649,56.9742112 C18.6797649,45.1587032 19.0024713,28.3510829 19.2782167,16.138516 C19.4744897,7.42247326 26.6005218,0.460708556 35.3268406,0.460708556 L223.445419,0.460708556 C232.310212,0.460708556 239.496451,7.64145722 239.496451,16.4994786 L239.496451,75.7490775 C239.496451,84.6371791 232.264455,91.8311631 223.370763,91.790254 L41.1199025,90.9347727 C33.9914622,90.8998797 27.1640539,88.0566979 22.1235722,83.0188636 C22.1235722,83.0188636 16.2209346,91.3739439 0.484180046,91.8648529" id="Fill-68" fill="#556DE6"></path>
                    <path d="M96.3323222,45.9937299 C96.3323222,60.0231417 84.9509002,71.395869 70.9107626,71.395869 C56.870625,71.395869 45.4879989,60.0231417 45.4879989,45.9937299 C45.4879989,31.9643182 56.870625,20.5915909 70.9107626,20.5915909 C84.9509002,20.5915909 96.3323222,31.9643182 96.3323222,45.9937299" id="Fill-70" fill="#FFFFFF"></path>
                    <path d="M214.024077,27.7681283 L117.58543,27.7681283 C115.290361,27.7681283 113.413125,25.891123 113.413125,23.5990107 C113.413125,21.3056952 115.290361,19.4286898 117.58543,19.4286898 L214.024077,19.4286898 C216.319146,19.4286898 218.197586,21.3056952 218.197586,23.5990107 C218.197586,25.891123 216.319146,27.7681283 214.024077,27.7681283" id="Fill-72" fill="#FFFFFF"></path>
                    <path d="M214.024077,43.0572995 L117.58543,43.0572995 C115.290361,43.0572995 113.413125,41.1802941 113.413125,38.8869786 C113.413125,36.5936631 115.290361,34.717861 117.58543,34.717861 L214.024077,34.717861 C216.319146,34.717861 218.197586,36.5936631 218.197586,38.8869786 C218.197586,41.1802941 216.319146,43.0572995 214.024077,43.0572995" id="Fill-74" fill="#FFFFFF"></path>
                    <path d="M214.024077,58.3453877 L117.58543,58.3453877 C115.290361,58.3453877 113.413125,56.4683824 113.413125,54.1762701 C113.413125,51.8829545 115.290361,50.0059492 117.58543,50.0059492 L214.024077,50.0059492 C216.319146,50.0059492 218.197586,51.8829545 218.197586,54.1762701 C218.197586,56.4683824 216.319146,58.3453877 214.024077,58.3453877" id="Fill-76" fill="#FFFFFF"></path>
                    <path d="M166.119994,73.6345588 L116.456921,73.6345588 C114.781978,73.6345588 113.414088,72.2653075 113.414088,70.5928476 L113.414088,68.3368316 C113.414088,66.6631684 114.781978,65.2951203 116.456921,65.2951203 L166.119994,65.2951203 C167.794937,65.2951203 169.164031,66.6631684 169.164031,68.3368316 L169.164031,70.5928476 C169.164031,72.2653075 167.794937,73.6345588 166.119994,73.6345588" id="Fill-78" fill="#FFFFFF"></path>
                    <path d="M96.997844,45.3874332 C96.997844,60.0485294 85.1034633,71.9326203 70.4311583,71.9326203 C55.7588532,71.9326203 43.8644725,60.0485294 43.8644725,45.3874332 C43.8644725,30.7251337 55.7588532,18.8410428 70.4311583,18.8410428 C85.1034633,18.8410428 96.997844,30.7251337 96.997844,45.3874332" id="Fill-80" fill="#FAFAFA"></path>
                </g>
                <g id="Group-89" transform="translate(308.256881, 186.769251)">
                    <g id="Group-85">
                        <mask id="mask-10" fill="white">
                            <use xlink:href="#path-9"></use>
                        </mask>
                        <g id="Clip-84"></g>
                        <path d="M37.75918,40.8236631 C37.75918,33.4479947 31.7746617,27.4680481 24.3933544,27.4680481 L20.5750631,27.4680481 C13.1925516,27.4680481 7.20803326,33.4479947 7.20803326,40.8236631 L7.20803326,44.6402406 L37.75918,44.6402406 L37.75918,40.8236631 Z" id="Fill-83" fill="#AFBBFE" mask="url(#mask-10)"></path>
                    </g>
                    <g id="Group-88">
                        <mask id="mask-12" fill="white">
                            <use xlink:href="#path-11"></use>
                        </mask>
                        <g id="Clip-87"></g>
                        <path d="M22.4842087,9.77522727 C26.7022706,9.77522727 30.1219954,13.1923396 30.1219954,17.4071791 C30.1219954,21.6220187 26.7022706,25.039131 22.4842087,25.039131 C18.2661468,25.039131 14.846422,21.6220187 14.846422,17.4071791 C14.846422,13.1923396 18.2661468,9.77522727 22.4842087,9.77522727" id="Fill-86" fill="#AFBBFE" mask="url(#mask-12)"></path>
                    </g>
                </g>
                <g id="Group-109" transform="translate(0.000000, 71.261230)">
                    <path d="M471.405327,33.6914037 C471.541393,32.8972861 471.618458,32.0815107 471.618458,31.2488904 C471.618458,23.3570455 465.214903,16.9595856 457.318228,16.9595856 C452.594432,16.9595856 448.407678,19.2480882 445.803148,22.7758957 C444.17035,10.2793717 433.481302,0.628435829 420.529696,0.628435829 C409.507104,0.628435829 400.118515,7.61787433 396.560315,17.4035695 C395.424822,17.1135963 394.236347,16.9595856 393.011749,16.9595856 C385.11387,16.9595856 378.711519,23.3570455 378.711519,31.2488904 C378.711519,32.0815107 378.786175,32.8972861 378.923446,33.6914037 L471.405327,33.6914037 Z" id="Fill-90" fill="#D5DBFE"></path>
                    <path d="M479.346313,72.2868449 C479.278882,71.9030214 479.242758,71.5095722 479.242758,71.1064973 C479.242758,67.2887166 482.339776,64.192861 486.159272,64.192861 C488.444708,64.192861 490.468847,65.301016 491.72957,67.0071658 C492.519478,60.962246 497.688802,56.2937968 503.955086,56.2937968 C509.285763,56.2937968 513.827735,59.676016 515.548435,64.4082353 C516.097517,64.2686631 516.673091,64.192861 517.265522,64.192861 C521.085017,64.192861 524.182036,67.2887166 524.182036,71.1064973 C524.182036,71.5095722 524.145912,71.9030214 524.078481,72.2868449 L479.346313,72.2868449 Z" id="Fill-92" fill="#D5DBFE"></path>
                    <path d="M471.405327,34.8946123 C471.541393,34.1004947 471.618458,33.2847193 471.618458,32.4520989 C471.618458,24.560254 465.214903,18.1627941 457.318228,18.1627941 C452.594432,18.1627941 448.407678,20.4512968 445.803148,23.9791043 C444.17035,11.4825802 433.481302,1.83164439 420.529696,1.83164439 C409.507104,1.83164439 400.118515,8.82108289 396.560315,18.6067781 C395.424822,18.3168048 394.236347,18.1627941 393.011749,18.1627941 C385.11387,18.1627941 378.711519,24.560254 378.711519,32.4520989 C378.711519,33.2847193 378.786175,34.1004947 378.923446,34.8946123 L471.405327,34.8946123 Z" id="Fill-94" fill="#D5DBFE"></path>
                    <g id="Group-98" transform="translate(0.000000, 156.417112)">
                        <mask id="mask-14" fill="white">
                            <use xlink:href="#path-13"></use>
                        </mask>
                        <g id="Clip-97"></g>
                        <path d="M0.171347477,26.7799332 C0.0605676606,26.138623 -0.000842889908,25.4804679 -0.000842889908,24.8066711 C-0.000842889908,18.4320722 5.17209289,13.2630882 11.5527695,13.2630882 C15.3686525,13.2630882 18.7510493,15.1124198 20.8546617,17.9616176 C22.1743865,7.86549465 30.8091915,0.0687032086 41.2730677,0.0687032086 C50.1775975,0.0687032086 57.7624025,5.71536096 60.6378612,13.6204412 C61.5554071,13.3870187 62.5150975,13.2630882 63.5060952,13.2630882 C69.8855677,13.2630882 75.0572993,18.4320722 75.0572993,24.8066711 C75.0572993,25.4804679 74.9970929,26.138623 74.8863131,26.7799332 L0.171347477,26.7799332 Z" id="Fill-96" fill="#D5DBFE" mask="url(#mask-14)"></path>
                    </g>
                    <path d="M479.346313,73.4900535 C479.278882,73.1062299 479.242758,72.7127807 479.242758,72.3097059 C479.242758,68.4919251 482.339776,65.3960695 486.159272,65.3960695 C488.444708,65.3960695 490.468847,66.5042246 491.72957,68.2103743 C492.519478,62.1654545 497.688802,57.4970053 503.955086,57.4970053 C509.285763,57.4970053 513.827735,60.8792246 515.548435,65.6114439 C516.097517,65.4718717 516.673091,65.3960695 517.265522,65.3960695 C521.085017,65.3960695 524.182036,68.4919251 524.182036,72.3097059 C524.182036,72.7127807 524.145912,73.1062299 524.078481,73.4900535 L479.346313,73.4900535 Z" id="Fill-99" fill="#D5DBFE"></path>
                    <path d="M383.409908,251.610762 C383.409908,253.704345 381.712087,255.400869 379.616904,255.400869 C377.52172,255.400869 375.822695,253.704345 375.822695,251.610762 C375.822695,249.518382 377.52172,247.820655 379.616904,247.820655 C381.712087,247.820655 383.409908,249.518382 383.409908,251.610762 Z" id="Stroke-101" stroke="#7598FB" stroke-width="0.829"></path>
                    <path d="M415.08535,228.972995 L415.08535,241.062834" id="Stroke-103" stroke="#7598FB" stroke-width="0.829"></path>
                    <path d="M421.135373,235.017313 L409.03629,235.017313" id="Stroke-105" stroke="#7598FB" stroke-width="0.829"></path>
                    <path d="M388.606204,217.279372 C388.606204,218.420013 387.680229,219.345281 386.537511,219.345281 C385.395998,219.345281 384.470023,218.420013 384.470023,217.279372 C384.470023,216.137527 385.395998,215.212259 386.537511,215.212259 C387.680229,215.212259 388.606204,216.137527 388.606204,217.279372" id="Fill-107" fill="#2741B6"></path>
                </g>
            </g>
        </g>
    </g>
</svg>