<svg width="26" height="26" viewBox="0 0 26 26" fill="none" xmlns="http://www.w3.org/2000/svg">
<g clip-path="url(#clip0)">
<path d="M23.7496 25.3185H2.25033C1.43846 25.3185 0.710671 24.8991 0.303542 24.1967C-0.0952553 23.5086 -0.101352 22.697 0.286777 21.9698L11.0365 1.83322C11.4214 1.11214 12.1555 0.681641 13 0.681641C13.8445 0.681641 14.5785 1.11214 14.9635 1.83322L25.7132 21.9697C26.1014 22.6969 26.0953 23.5087 25.6964 24.1967C25.2893 24.8991 24.5616 25.3185 23.7496 25.3185Z" fill="#FF4C04"/>
<path d="M25.7132 21.9697L14.9635 1.83322C14.5785 1.11214 13.8445 0.681641 13 0.681641V25.3185H23.7497C24.5616 25.3185 25.2894 24.8991 25.6964 24.1967C26.0952 23.5087 26.1014 22.6969 25.7132 21.9697Z" fill="#E10000"/>
<path d="M13 22.0172C11.8795 22.0172 10.9679 21.1057 10.9679 19.9852C10.9679 18.8647 11.8795 17.9531 13 17.9531C14.1205 17.9531 15.0321 18.8647 15.0321 19.9852C15.0321 21.1057 14.1205 22.0172 13 22.0172Z" fill="#FFF3F3"/>
<path d="M13 15.9215C11.8795 15.9215 10.9679 15.0099 10.9679 13.8894V9.49498C10.9679 8.37449 11.8795 7.46289 13 7.46289C14.1205 7.46289 15.0321 8.37449 15.0321 9.49498V13.8894C15.0321 15.0099 14.1205 15.9215 13 15.9215Z" fill="#FFF3F3"/>
<path d="M13.0001 7.46289H13V15.9215H13.0001C14.1206 15.9215 15.0321 15.0099 15.0321 13.8894V9.49498C15.0321 8.37454 14.1205 7.46289 13.0001 7.46289Z" fill="#DAD0CB"/>
<path d="M13.0001 17.9531H13V22.0172H13.0001C14.1205 22.0172 15.0321 21.1057 15.0321 19.9852C15.0321 18.8647 14.1205 17.9531 13.0001 17.9531Z" fill="#DAD0CB"/>
</g>
<defs>
<clipPath id="clip0">
<rect width="26" height="26" fill="white"/>
</clipPath>
</defs>
</svg>
