<svg width="578" height="513" viewBox="0 0 578 513" fill="none" xmlns="http://www.w3.org/2000/svg">
<path d="M445.904 377.67H121.256C115.177 377.67 110.172 372.664 110.172 366.586V48.91C110.172 42.8318 115.177 37.8262 121.256 37.8262H445.904C451.982 37.8262 456.987 42.8318 456.987 48.91V366.586C456.809 372.664 451.982 377.67 445.904 377.67Z" fill="#A4DDF4"/>
<path d="M181.143 56.5978C181.143 59.9944 178.461 62.6759 175.065 62.6759C171.668 62.6759 168.986 59.9944 168.986 56.5978C168.986 53.2011 171.668 50.5195 175.065 50.5195C178.461 50.5195 181.143 53.2011 181.143 56.5978Z" fill="url(#paint0_radial)"/>
<path d="M181.143 56.5978C181.143 59.9944 178.461 62.6759 175.065 62.6759C171.668 62.6759 168.986 59.9944 168.986 56.5978C168.986 53.2011 171.668 50.5195 175.065 50.5195C178.461 50.5195 181.143 53.2011 181.143 56.5978Z" stroke="url(#paint1_linear)" stroke-width="0.25" stroke-miterlimit="10"/>
<path d="M141.635 56.5978C141.635 59.9944 138.953 62.6759 135.557 62.6759C132.16 62.6759 129.479 59.9944 129.479 56.5978C129.479 53.2011 132.16 50.5195 135.557 50.5195C138.953 50.5195 141.635 53.2011 141.635 56.5978Z" fill="url(#paint2_radial)"/>
<path d="M141.635 56.5978C141.635 59.9944 138.953 62.6759 135.557 62.6759C132.16 62.6759 129.479 59.9944 129.479 56.5978C129.479 53.2011 132.16 50.5195 135.557 50.5195C138.953 50.5195 141.635 53.2011 141.635 56.5978Z" stroke="url(#paint3_linear)" stroke-width="0.25" stroke-miterlimit="10"/>
<path d="M161.479 56.5978C161.479 59.9944 158.797 62.6759 155.4 62.6759C152.004 62.6759 149.322 59.9944 149.322 56.5978C149.322 53.2011 152.004 50.5195 155.4 50.5195C158.618 50.5195 161.479 53.2011 161.479 56.5978Z" fill="url(#paint4_radial)"/>
<path d="M161.479 56.5978C161.479 59.9944 158.797 62.6759 155.4 62.6759C152.004 62.6759 149.322 59.9944 149.322 56.5978C149.322 53.2011 152.004 50.5195 155.4 50.5195C158.618 50.5195 161.479 53.2011 161.479 56.5978Z" stroke="url(#paint5_linear)" stroke-width="0.25" stroke-miterlimit="10"/>
<path d="M489.703 227.679H299.491C295.736 227.679 292.697 224.64 292.697 220.886V174.942C292.697 171.188 295.736 168.148 299.491 168.148H489.703C493.457 168.148 496.496 171.188 496.496 174.942V220.886C496.496 224.461 493.457 227.679 489.703 227.679Z" fill="#E8F2F7"/>
<path d="M489.703 227.679H299.491C295.736 227.679 292.697 224.64 292.697 220.886V174.942C292.697 171.188 295.736 168.148 299.491 168.148H489.703C493.457 168.148 496.496 171.188 496.496 174.942V220.886C496.496 224.461 493.457 227.679 489.703 227.679Z" stroke="url(#paint6_linear)" stroke-width="0.5" stroke-miterlimit="10"/>
<path d="M473.971 192.82H399.423C396.921 192.82 394.775 190.674 394.775 188.171C394.775 185.669 396.921 183.523 399.423 183.523H473.792C476.295 183.523 478.44 185.669 478.44 188.171C478.44 190.674 476.474 192.82 473.971 192.82Z" fill="#556CE7"/>
<path d="M473.971 192.82H399.423C396.921 192.82 394.775 190.674 394.775 188.171C394.775 185.669 396.921 183.523 399.423 183.523H473.792C476.295 183.523 478.44 185.669 478.44 188.171C478.44 190.674 476.474 192.82 473.971 192.82Z" stroke="#F0F7FA" stroke-width="0.25" stroke-miterlimit="10"/>
<path d="M443.937 212.128H399.423C396.921 212.128 394.775 209.983 394.775 207.48C394.775 204.977 396.921 202.832 399.423 202.832H443.937C446.44 202.832 448.585 204.977 448.585 207.48C448.585 209.983 446.44 212.128 443.937 212.128Z" fill="url(#paint7_linear)"/>
<path d="M443.937 212.128H399.423C396.921 212.128 394.775 209.983 394.775 207.48C394.775 204.977 396.921 202.832 399.423 202.832H443.937C446.44 202.832 448.585 204.977 448.585 207.48C448.585 209.983 446.44 212.128 443.937 212.128Z" stroke="#F0F7FA" stroke-width="0.25" stroke-miterlimit="10"/>
<path d="M546.909 429.156H303.424C297.524 429.156 292.697 424.329 292.697 418.43V259.324C292.697 253.424 297.524 248.598 303.424 248.598H546.909C552.809 248.598 557.636 253.424 557.636 259.324V418.43C557.636 424.329 552.809 429.156 546.909 429.156Z" fill="#F0F7FA"/>
<path d="M546.909 429.156H303.424C297.524 429.156 292.697 424.329 292.697 418.43V259.324C292.697 253.424 297.524 248.598 303.424 248.598H546.909C552.809 248.598 557.636 253.424 557.636 259.324V418.43C557.636 424.329 552.809 429.156 546.909 429.156Z" stroke="url(#paint8_linear)" stroke-width="0.5" stroke-miterlimit="10"/>
<path d="M501.325 329.939C518.307 329.939 532.073 316.172 532.073 299.19C532.073 282.208 518.307 268.441 501.325 268.441C484.343 268.441 470.576 282.208 470.576 299.19C470.576 316.172 484.343 329.939 501.325 329.939Z" fill="url(#paint9_radial)"/>
<path d="M517.483 325.369C531.96 316.49 536.499 297.557 527.621 283.08C518.743 268.603 499.809 264.064 485.332 272.942C470.855 281.82 466.316 300.754 475.194 315.231C484.073 329.708 503.006 334.247 517.483 325.369Z" stroke="url(#paint10_linear)" stroke-miterlimit="10"/>
<path d="M501.325 297.222C505.437 297.222 508.833 293.825 508.833 289.713C508.833 285.602 505.437 282.205 501.325 282.205C497.213 282.205 493.816 285.602 493.816 289.713C493.816 293.825 497.213 297.222 501.325 297.222Z" fill="url(#paint11_radial)"/>
<path d="M501.324 300.977C496.319 300.977 486.486 303.479 486.486 308.485V312.239H516.341V308.485C516.162 303.479 506.151 300.977 501.324 300.977Z" fill="url(#paint12_radial)"/>
<path d="M435.713 293.11H334.171C327.378 293.11 321.836 287.568 321.836 280.775C321.836 273.981 327.378 268.439 334.171 268.439H435.713C442.506 268.439 448.048 273.981 448.048 280.775C448.048 287.568 442.506 293.11 435.713 293.11Z" fill="white"/>
<path d="M435.713 293.11H334.171C327.378 293.11 321.836 287.568 321.836 280.775C321.836 273.981 327.378 268.439 334.171 268.439H435.713C442.506 268.439 448.048 273.981 448.048 280.775C448.048 287.568 442.506 293.11 435.713 293.11Z" stroke="url(#paint13_linear)" stroke-width="0.5" stroke-miterlimit="10"/>
<path d="M353.48 279.345V282.205L350.619 281.848L352.407 283.993L350.083 285.423L348.832 282.742L347.58 285.423L345.256 283.993L347.044 281.848L344.184 282.205V279.345L347.044 279.702L345.256 277.557L347.58 276.127L348.832 278.809L350.083 276.127L352.407 277.557L350.619 279.702L353.48 279.345Z" fill="#92CD59"/>
<path d="M353.48 279.345V282.205L350.619 281.848L352.407 283.993L350.083 285.423L348.832 282.742L347.58 285.423L345.256 283.993L347.044 281.848L344.184 282.205V279.345L347.044 279.702L345.256 277.557L347.58 276.127L348.832 278.809L350.083 276.127L352.407 277.557L350.619 279.702L353.48 279.345Z" stroke="#92CD59" stroke-width="0.25" stroke-miterlimit="10"/>
<path d="M377.612 279.345V282.205L374.752 281.848L376.54 283.993L374.216 285.423L372.964 282.742L371.713 285.423L369.389 283.993L371.177 281.848L368.316 282.205V279.345L371.177 279.702L369.389 277.557L371.713 276.127L372.964 278.809L374.216 276.127L376.54 277.557L374.752 279.702L377.612 279.345Z" fill="#92CD59"/>
<path d="M377.612 279.345V282.205L374.752 281.848L376.54 283.993L374.216 285.423L372.964 282.742L371.713 285.423L369.389 283.993L371.177 281.848L368.316 282.205V279.345L371.177 279.702L369.389 277.557L371.713 276.127L372.964 278.809L374.216 276.127L376.54 277.557L374.752 279.702L377.612 279.345Z" stroke="#92CD59" stroke-width="0.25" stroke-miterlimit="10"/>
<path d="M401.927 279.345V282.205L399.067 281.848L400.854 283.993L398.53 285.423L397.279 282.742L396.027 285.423L393.703 283.993L395.491 281.848L392.631 282.205V279.345L395.491 279.702L393.703 277.557L396.027 276.127L397.279 278.809L398.53 276.127L400.854 277.557L399.067 279.702L401.927 279.345Z" fill="#92CD59"/>
<path d="M401.927 279.345V282.205L399.067 281.848L400.854 283.993L398.53 285.423L397.279 282.742L396.027 285.423L393.703 283.993L395.491 281.848L392.631 282.205V279.345L395.491 279.702L393.703 277.557L396.027 276.127L397.279 278.809L398.53 276.127L400.854 277.557L399.067 279.702L401.927 279.345Z" stroke="#92CD59" stroke-width="0.25" stroke-miterlimit="10"/>
<path d="M426.06 279.345V282.205L423.199 281.848L424.987 283.993L422.663 285.423L421.412 282.742L420.16 285.423L417.836 283.993L419.624 281.848L416.764 282.205V279.345L419.624 279.702L417.836 277.557L420.16 276.127L421.412 278.809L422.663 276.127L424.987 277.557L423.199 279.702L426.06 279.345Z" fill="#92CD59"/>
<path d="M426.06 279.345V282.205L423.199 281.848L424.987 283.993L422.663 285.423L421.412 282.742L420.16 285.423L417.836 283.993L419.624 281.848L416.764 282.205V279.345L419.624 279.702L417.836 277.557L420.16 276.127L421.412 278.809L422.663 276.127L424.987 277.557L423.199 279.702L426.06 279.345Z" stroke="#92CD59" stroke-width="0.25" stroke-miterlimit="10"/>
<path d="M435.713 329.76H334.171C327.378 329.76 321.836 324.218 321.836 317.425C321.836 310.632 327.378 305.09 334.171 305.09H435.713C442.506 305.09 448.048 310.632 448.048 317.425C448.048 324.218 442.506 329.76 435.713 329.76Z" fill="white"/>
<path d="M435.713 329.76H334.171C327.378 329.76 321.836 324.218 321.836 317.425C321.836 310.632 327.378 305.09 334.171 305.09H435.713C442.506 305.09 448.048 310.632 448.048 317.425C448.048 324.218 442.506 329.76 435.713 329.76Z" stroke="url(#paint14_linear)" stroke-width="0.5" stroke-miterlimit="10"/>
<path d="M353.478 315.993V318.854L350.617 318.496L352.405 320.641L350.081 322.072L348.83 319.39L347.578 322.072L345.254 320.641L347.042 318.496L344.182 318.854V315.993L347.042 316.351L345.254 314.206L347.578 312.775L348.83 315.457L350.081 312.775L352.405 314.206L350.617 316.351L353.478 315.993Z" fill="#92CD59"/>
<path d="M377.612 315.993V318.854L374.752 318.496L376.54 320.641L374.216 322.072L372.964 319.39L371.713 322.072L369.389 320.641L371.177 318.496L368.316 318.854V315.993L371.177 316.351L369.389 314.206L371.713 312.775L372.964 315.457L374.216 312.775L376.54 314.206L374.752 316.351L377.612 315.993Z" fill="#92CD59"/>
<path d="M401.925 315.993V318.854L399.065 318.496L400.852 320.641L398.528 322.072L397.277 319.39L396.026 322.072L393.701 320.641L395.489 318.496L392.629 318.854V315.993L395.489 316.351L393.701 314.206L396.026 312.775L397.277 315.457L398.528 312.775L400.852 314.206L399.065 316.351L401.925 315.993Z" fill="#92CD59"/>
<path d="M426.06 315.993V318.854L423.199 318.496L424.987 320.641L422.663 322.072L421.412 319.39L420.16 322.072L417.836 320.641L419.624 318.496L416.764 318.854V315.993L419.624 316.351L417.836 314.206L420.16 312.775L421.412 315.457L422.663 312.775L424.987 314.206L423.199 316.351L426.06 315.993Z" fill="#92CD59"/>
<path d="M447.692 407.167H402.463C398.53 407.167 395.312 403.95 395.312 400.017V354.788C395.312 350.855 398.53 347.637 402.463 347.637H447.692C451.625 347.637 454.843 350.855 454.843 354.788V400.017C454.843 403.95 451.804 407.167 447.692 407.167Z" fill="#556CE7"/>
<path d="M425.882 365.157C425.524 364.799 424.809 364.799 424.451 365.157L414.977 374.989H422.127V389.291C422.127 389.827 422.485 390.185 423.021 390.185H426.954C427.491 390.185 427.848 389.827 427.848 389.291V374.989H434.999L425.882 365.157Z" fill="url(#paint15_linear)"/>
<path d="M519.556 407.167H474.327C470.394 407.167 467.176 403.95 467.176 400.017V354.788C467.176 350.855 470.394 347.637 474.327 347.637H519.556C523.489 347.637 526.706 350.855 526.706 354.788V400.017C526.706 403.95 523.489 407.167 519.556 407.167Z" fill="#92CD59"/>
<path d="M496.137 389.825C496.494 390.182 497.209 390.182 497.567 389.825L507.042 379.992H499.891V365.691C499.891 365.154 499.533 364.797 498.997 364.797H495.064C494.528 364.797 494.17 365.154 494.17 365.691V379.992H487.02L496.137 389.825Z" fill="url(#paint16_linear)"/>
<path d="M372.429 463.481H334.351C328.452 463.481 323.625 458.654 323.625 452.755V358.543C323.625 352.643 328.452 347.816 334.351 347.816H372.429C378.329 347.816 383.156 352.643 383.156 358.543V452.755C383.156 458.654 378.329 463.481 372.429 463.481Z" fill="#4051B6"/>
<path d="M372.429 463.481H334.351C328.452 463.481 323.625 458.654 323.625 452.755V358.543C323.625 352.643 328.452 347.816 334.351 347.816H372.429C378.329 347.816 383.156 352.643 383.156 358.543V452.755C383.156 458.654 378.329 463.481 372.429 463.481Z" stroke="#556CE7" stroke-width="0.5" stroke-miterlimit="10"/>
<path d="M353.302 449.896C351.157 449.896 349.369 448.645 349.369 447.215V367.125C349.369 365.516 351.157 363.729 353.302 363.729C355.447 363.729 357.235 365.516 357.235 367.125V447.215C357.235 448.645 355.447 449.896 353.302 449.896Z" fill="white"/>
<path d="M353.302 449.896C351.157 449.896 349.369 448.645 349.369 447.215V367.125C349.369 365.516 351.157 363.729 353.302 363.729C355.447 363.729 357.235 365.516 357.235 367.125V447.215C357.235 448.645 355.447 449.896 353.302 449.896Z" fill="#CCCCCC"/>
<path d="M353.303 418.076V446.143" stroke="white" stroke-width="5" stroke-miterlimit="10" stroke-linecap="round"/>
<path d="M353.303 433.27C361.695 433.27 368.498 426.467 368.498 418.074C368.498 409.682 361.695 402.879 353.303 402.879C344.911 402.879 338.107 409.682 338.107 418.074C338.107 426.467 344.911 433.27 353.303 433.27Z" fill="#92CD59"/>
<path d="M359.078 432.173C366.839 428.978 370.54 420.097 367.345 412.337C364.15 404.577 355.269 400.876 347.508 404.071C339.748 407.265 336.047 416.146 339.242 423.907C342.437 431.667 351.318 435.368 359.078 432.173Z" stroke="#92CD59" stroke-width="0.5" stroke-miterlimit="10"/>
<path d="M360.146 420.548C360.146 421.71 359.726 422.718 358.886 423.572C358.06 424.412 356.856 424.951 355.274 425.189V427.52H352.754V425.273C351.704 425.203 350.71 425.028 349.772 424.748C348.834 424.454 348.057 424.097 347.441 423.677L348.806 420.611C349.464 421.045 350.227 421.395 351.095 421.661C351.963 421.927 352.817 422.06 353.657 422.06C355.253 422.06 356.051 421.661 356.051 420.863C356.051 420.443 355.82 420.135 355.358 419.939C354.91 419.729 354.182 419.512 353.174 419.288C352.068 419.05 351.144 418.798 350.402 418.532C349.66 418.252 349.023 417.811 348.491 417.209C347.959 416.607 347.693 415.795 347.693 414.773C347.693 413.569 348.127 412.54 348.995 411.686C349.863 410.818 351.116 410.286 352.754 410.09V407.78H355.274V410.048C356.072 410.118 356.835 410.258 357.563 410.468C358.305 410.678 358.963 410.951 359.537 411.287L358.256 414.374C356.856 413.618 355.498 413.24 354.182 413.24C353.356 413.24 352.754 413.366 352.376 413.618C351.998 413.856 351.809 414.171 351.809 414.563C351.809 414.955 352.033 415.249 352.481 415.445C352.929 415.641 353.65 415.844 354.644 416.054C355.764 416.292 356.688 416.551 357.416 416.831C358.158 417.097 358.795 417.531 359.327 418.133C359.873 418.721 360.146 419.526 360.146 420.548Z" fill="white"/>
<path d="M142.886 463.479H262.663C268.562 463.479 273.389 458.652 273.389 452.753V332.976C273.389 327.077 268.562 322.25 262.663 322.25H142.886C136.987 322.25 132.16 327.077 132.16 332.976V452.753C132.16 458.652 136.987 463.479 142.886 463.479Z" fill="#F0F7FA"/>
<path d="M202.957 437.916C226.949 437.916 246.398 418.467 246.398 394.475C246.398 370.483 226.949 351.033 202.957 351.033C178.965 351.033 159.516 370.483 159.516 394.475C159.516 418.467 178.965 437.916 202.957 437.916Z" fill="url(#paint17_linear)"/>
<path d="M202.957 344.418V394.653H253.192C253.192 366.764 230.666 344.418 202.957 344.418Z" fill="url(#paint18_linear)"/>
<path d="M542.797 78.5879C559.065 78.5879 572.294 91.8169 572.294 108.085" stroke="url(#paint19_linear)" stroke-width="10" stroke-miterlimit="10"/>
<path d="M45.9926 377.67C34.3725 389.111 15.7803 389.111 4.16016 377.67" stroke="#92CD59" stroke-width="10" stroke-miterlimit="10"/>
<path d="M31.333 42.296C31.333 26.0279 44.562 12.7988 60.8302 12.7988" stroke="url(#paint20_linear)" stroke-width="10" stroke-miterlimit="10"/>
<path d="M440.184 512.999C440.184 496.731 453.413 483.502 469.681 483.502" stroke="#556CE7" stroke-width="10" stroke-miterlimit="10"/>
<path d="M531.713 211.057V180.487C531.713 175.481 535.646 171.548 540.651 171.548H563.355C568.361 171.548 572.294 167.615 572.294 162.61V143.66" stroke="#4051B6" stroke-miterlimit="10" stroke-dasharray="4 4"/>
<path d="M80.3164 433.088V479.39C80.3164 495.121 93.1879 507.993 108.92 507.993H308.249" stroke="#4051B6" stroke-miterlimit="10" stroke-dasharray="4 4"/>
<path d="M414.975 1H253.188" stroke="#4051B6" stroke-miterlimit="10" stroke-dasharray="4 4"/>
<path d="M267.487 306.339H79.4204C75.4874 306.339 72.2695 303.121 72.2695 299.188V175.479C72.2695 171.546 75.4874 168.328 79.4204 168.328H267.666C271.599 168.328 274.817 171.546 274.817 175.479V299.188C274.638 303.121 271.42 306.339 267.487 306.339Z" fill="url(#paint21_linear)"/>
<path d="M267.487 306.339H79.4204C75.4874 306.339 72.2695 303.121 72.2695 299.188V175.479C72.2695 171.546 75.4874 168.328 79.4204 168.328H267.666C271.599 168.328 274.817 171.546 274.817 175.479V299.188C274.638 303.121 271.42 306.339 267.487 306.339Z" stroke="url(#paint22_linear)" stroke-width="0.5" stroke-miterlimit="10"/>
<path d="M84.9629 181.021V279.167" stroke="#E8F2F7" stroke-width="0.25" stroke-miterlimit="10"/>
<path d="M109.277 181.021V279.167" stroke="#E8F2F7" stroke-width="0.25" stroke-miterlimit="10"/>
<path d="M133.41 181.021V279.167" stroke="#E8F2F7" stroke-width="0.25" stroke-miterlimit="10"/>
<path d="M157.721 181.021V279.167" stroke="#E8F2F7" stroke-width="0.25" stroke-miterlimit="10"/>
<path d="M181.855 181.021V279.167" stroke="#E8F2F7" stroke-width="0.25" stroke-miterlimit="10"/>
<path d="M206.172 181.021V279.167" stroke="#E8F2F7" stroke-width="0.25" stroke-miterlimit="10"/>
<path d="M230.482 181.021V279.167" stroke="#E8F2F7" stroke-width="0.25" stroke-miterlimit="10"/>
<path d="M254.615 181.021V279.167" stroke="#E8F2F7" stroke-width="0.25" stroke-miterlimit="10"/>
<path d="M84.9629 286.854V270.05L129.834 232.15C132.516 230.005 136.091 229.469 139.309 230.899L168.628 244.307C171.488 245.558 174.885 245.379 177.566 243.413L261.767 182.988V287.212C261.767 290.251 259.443 292.575 256.404 292.575H90.1472C87.4657 292.217 84.9629 289.714 84.9629 286.854Z" fill="url(#paint23_linear)"/>
<path d="M84.9629 286.854V270.05L129.834 232.15C132.516 230.005 136.091 229.469 139.309 230.899L168.628 244.307C171.488 245.558 174.885 245.379 177.566 243.413L261.767 182.988V287.212C261.767 290.251 259.443 292.575 256.404 292.575H90.1472C87.4657 292.217 84.9629 289.714 84.9629 286.854Z" stroke="url(#paint24_linear)" stroke-width="0.5" stroke-miterlimit="10"/>
<path d="M84.9629 286.854V279.167L121.432 257C123.399 255.748 125.901 255.391 128.225 255.927L163.086 264.329C165.231 264.865 167.555 264.508 169.521 263.435L244.784 220.709L261.767 225V287.033C261.767 290.072 259.443 292.396 256.404 292.396H90.1472C87.4657 292.217 84.9629 289.715 84.9629 286.854Z" fill="url(#paint25_linear)"/>
<path d="M84.9629 286.854V279.167L121.432 257C123.399 255.748 125.901 255.391 128.225 255.927L163.086 264.329C165.231 264.865 167.555 264.508 169.521 263.435L244.784 220.709L261.767 225V287.033C261.767 290.072 259.443 292.396 256.404 292.396H90.1472C87.4657 292.217 84.9629 289.715 84.9629 286.854Z" stroke="url(#paint26_linear)" stroke-width="0.5" stroke-miterlimit="10"/>
<path d="M88.7179 236.978H55.8241C51.176 236.978 47.4219 233.223 47.4219 228.575V195.682C47.4219 191.033 51.176 187.279 55.8241 187.279H88.7179C93.366 187.279 97.1201 191.033 97.1201 195.682V228.575C97.1201 233.223 93.366 236.978 88.7179 236.978Z" fill="url(#paint27_linear)"/>
<path d="M88.7179 236.978H55.8241C51.176 236.978 47.4219 233.223 47.4219 228.575V195.682C47.4219 191.033 51.176 187.279 55.8241 187.279H88.7179C93.366 187.279 97.1201 191.033 97.1201 195.682V228.575C97.1201 233.223 93.366 236.978 88.7179 236.978Z" stroke="url(#paint28_linear)" stroke-miterlimit="10"/>
<path d="M72.9871 199.614C72.6295 199.256 71.9145 199.256 71.5569 199.614L62.082 209.446H69.2329V223.748C69.2329 224.284 69.5904 224.642 70.1267 224.642H74.0597C74.596 224.642 74.9536 224.284 74.9536 223.748V209.446H82.1044L72.9871 199.614Z" fill="url(#paint29_linear)"/>
<path d="M141.814 75.0098C138.596 75.0098 135.914 75.0098 133.411 75.0098C130.909 75.0098 128.406 75.0098 126.082 75.0098C123.758 75.0098 121.434 75.0098 118.752 75.0098C116.071 75.0098 113.389 75.0098 110.35 75.0098C108.026 77.6913 105.881 80.0153 103.735 82.1606C101.769 84.3059 99.8024 86.4511 98.0147 88.4176C96.227 90.3841 94.4393 92.3505 92.6516 94.317C90.8639 96.2835 88.8974 98.4288 86.931 100.574C84.9645 102.719 82.8192 105.222 80.3164 107.725C83.3555 107.725 85.8583 107.725 88.3611 107.725C90.8639 107.725 93.1879 107.725 95.3332 107.725C97.6572 107.725 99.8025 107.725 101.948 107.725C104.272 107.725 106.417 107.725 108.92 107.725C111.423 107.725 114.104 107.725 116.964 107.725C118.931 105.043 120.719 102.719 122.328 100.574C123.937 98.4288 125.545 96.2835 126.976 94.317C128.406 92.3505 129.836 90.3841 131.445 88.4176C132.875 86.4511 134.484 84.3059 136.093 82.1606C138.059 80.0153 139.847 77.5126 141.814 75.0098Z" fill="url(#paint30_linear)"/>
<path d="M173.276 75.0098C170.058 75.0098 167.376 75.0098 164.873 75.0098C162.371 75.0098 159.868 75.0098 157.544 75.0098C155.22 75.0098 152.896 75.0098 150.214 75.0098C147.711 75.0098 144.851 75.0098 141.812 75.0098C139.845 77.6913 138.058 80.0153 136.449 82.1606C134.84 84.3059 133.231 86.4511 131.801 88.4176C130.371 90.3841 128.94 92.3505 127.331 94.317C125.901 96.2835 124.292 98.4288 122.683 100.574C121.075 102.719 119.287 105.222 117.32 107.725C120.359 107.725 122.862 107.725 125.365 107.725C127.868 107.725 130.192 107.725 132.337 107.725C134.661 107.725 136.806 107.725 138.952 107.725C141.276 107.725 143.421 107.725 145.924 107.725C148.426 107.725 151.108 107.725 153.968 107.725C155.577 105.043 156.829 102.719 158.08 100.574C159.331 98.4288 160.583 96.2835 161.655 94.317C162.728 92.3505 163.979 90.3841 165.052 88.4176C166.125 86.4511 167.376 84.3059 168.628 82.1606C170.415 80.0153 171.845 77.5126 173.276 75.0098Z" fill="#92CD59"/>
<path d="M204.742 75.0098C201.525 75.0098 198.843 75.0098 196.34 75.0098C193.837 75.0098 191.335 75.0098 189.011 75.0098C186.687 75.0098 184.363 75.0098 181.681 75.0098C179.178 75.0098 176.318 75.0098 173.279 75.0098C171.67 77.6913 170.418 80.0153 169.167 82.1606C167.916 84.3059 166.664 86.4511 165.592 88.4176C164.519 90.3841 163.268 92.3505 162.195 94.317C161.122 96.2835 159.871 98.4288 158.62 100.574C157.368 102.719 155.938 105.222 154.508 107.725C157.547 107.725 160.05 107.725 162.552 107.725C165.055 107.725 167.379 107.725 169.525 107.725C171.67 107.725 173.994 107.725 176.139 107.725C178.463 107.725 180.608 107.725 183.111 107.725C185.614 107.725 188.295 107.725 191.156 107.725C192.586 104.507 193.659 101.647 194.731 98.9651C195.804 96.2835 196.876 93.7807 197.949 91.4567C199.022 89.1327 199.916 86.4511 201.167 83.9483C202.24 81.088 203.491 78.2276 204.742 75.0098Z" fill="url(#paint31_linear)"/>
<path d="M236.384 75.0098C233.166 75.0098 230.485 75.0098 227.982 75.0098C225.479 75.0098 222.976 75.0098 220.652 75.0098C218.328 75.0098 216.004 75.0098 213.323 75.0098C210.641 75.0098 207.96 75.0098 204.921 75.0098C203.49 78.2276 202.418 81.088 201.345 83.7696C200.273 86.4511 199.2 88.9539 198.127 91.2779C197.055 93.6019 196.161 96.2835 194.909 98.7863C193.837 101.468 192.585 104.328 191.334 107.546C194.373 107.546 196.876 107.546 199.379 107.546C201.881 107.546 204.205 107.546 206.351 107.546C208.675 107.546 210.82 107.546 212.965 107.546C215.289 107.546 217.435 107.546 219.937 107.546C222.44 107.546 225.122 107.546 227.982 107.546C228.876 104.328 229.591 101.468 230.127 98.7863C230.842 96.1047 231.379 93.6019 232.094 91.2779C232.809 88.9539 233.345 86.2723 234.06 83.7696C234.775 81.088 235.49 78.2276 236.384 75.0098Z" fill="#92CD59"/>
<path d="M267.847 75.0098C264.629 75.0098 261.948 75.0098 259.445 75.0098C256.942 75.0098 254.439 75.0098 252.115 75.0098C249.791 75.0098 247.467 75.0098 244.786 75.0098C242.104 75.0098 239.423 75.0098 236.384 75.0098C235.49 78.2276 234.775 81.088 234.238 83.7696C233.523 86.4511 232.987 88.9539 232.272 91.2779C231.557 93.6019 231.02 96.2835 230.305 98.7863C229.59 101.468 228.875 104.328 228.16 107.546C231.199 107.546 233.702 107.546 236.205 107.546C238.708 107.546 241.032 107.546 243.177 107.546C245.501 107.546 247.646 107.546 249.791 107.546C251.937 107.546 254.261 107.546 256.764 107.546C259.266 107.546 261.948 107.546 264.808 107.546C265.166 104.328 265.344 101.468 265.523 98.7863C265.702 96.1047 265.881 93.6019 266.238 91.2779C266.417 88.7751 266.596 86.2723 266.953 83.7696C267.311 81.088 267.49 78.2276 267.847 75.0098Z" fill="url(#paint32_linear)"/>
<path d="M299.31 75.0098C296.092 75.0098 293.411 75.0098 290.908 75.0098C288.405 75.0098 285.903 75.0098 283.579 75.0098C281.255 75.0098 278.93 75.0098 276.249 75.0098C273.746 75.0098 270.886 75.0098 267.847 75.0098C267.489 78.2276 267.31 81.088 267.132 83.7696C266.953 86.4511 266.774 88.9539 266.417 91.2779C266.238 93.7807 266.059 96.2835 265.701 98.7863C265.523 101.468 265.165 104.328 264.986 107.546C268.025 107.546 270.528 107.546 273.031 107.546C275.534 107.546 277.858 107.546 280.003 107.546C282.327 107.546 284.472 107.546 286.618 107.546C288.763 107.546 291.087 107.546 293.59 107.546C296.092 107.546 298.774 107.546 301.634 107.546C301.277 104.328 301.098 101.468 300.919 98.7863C300.74 96.1047 300.562 93.6019 300.204 91.2779C300.025 88.7751 299.847 86.2723 299.489 83.7696C299.847 81.088 299.668 78.2276 299.31 75.0098Z" fill="#92CD59"/>
<path d="M330.776 75.0098C327.558 75.0098 324.877 75.0098 322.374 75.0098C319.871 75.0098 317.368 75.0098 315.044 75.0098C312.72 75.0098 310.396 75.0098 307.715 75.0098C305.033 75.0098 302.352 75.0098 299.312 75.0098C299.67 78.2276 299.849 81.088 300.028 83.7696C300.206 86.4511 300.385 88.9539 300.743 91.2779C300.921 93.7807 301.1 96.2835 301.458 98.7863C301.637 101.468 301.994 104.328 302.173 107.546C305.212 107.546 307.715 107.546 310.218 107.546C312.72 107.546 315.044 107.546 317.19 107.546C319.514 107.546 321.659 107.546 323.804 107.546C326.128 107.546 328.273 107.546 330.776 107.546C333.279 107.546 335.961 107.546 338.821 107.546C337.927 104.328 337.212 101.468 336.676 98.7863C335.961 96.1047 335.424 93.6019 334.709 91.2779C334.173 88.7751 333.458 86.2723 332.743 83.7696C332.385 81.088 331.67 78.2276 330.776 75.0098Z" fill="url(#paint33_linear)"/>
<path d="M362.417 75.0098C359.199 75.0098 356.517 75.0098 354.015 75.0098C351.512 75.0098 349.009 75.0098 346.685 75.0098C344.361 75.0098 342.037 75.0098 339.355 75.0098C336.853 75.0098 333.992 75.0098 330.953 75.0098C331.847 78.2276 332.562 81.088 333.098 83.7696C333.813 86.4511 334.35 88.9539 335.065 91.2779C335.601 93.7807 336.316 96.2835 337.031 98.7863C337.746 101.468 338.461 104.328 339.177 107.546C342.216 107.546 344.718 107.546 347.221 107.546C349.724 107.546 352.048 107.546 354.193 107.546C356.517 107.546 358.663 107.546 360.808 107.546C362.953 107.546 365.277 107.546 367.78 107.546C370.283 107.546 372.964 107.546 375.825 107.546C374.394 104.328 373.322 101.468 372.249 98.7863C371.176 96.1047 370.104 93.6019 369.031 91.2779C367.959 88.9539 367.065 86.2723 365.813 83.7696C364.92 81.088 363.668 78.2276 362.417 75.0098Z" fill="#92CD59"/>
<path d="M393.882 75.0098C390.664 75.0098 387.982 75.0098 385.479 75.0098C382.977 75.0098 380.474 75.0098 378.15 75.0098C375.826 75.0098 373.502 75.0098 370.82 75.0098C368.317 75.0098 365.457 75.0098 362.418 75.0098C363.848 78.2276 364.921 81.088 365.993 83.7696C367.066 86.4511 368.139 88.9539 369.211 91.2779C370.284 93.6019 371.178 96.2835 372.429 98.7863C373.502 101.468 374.753 104.328 376.005 107.546C379.044 107.546 381.547 107.546 384.049 107.546C386.552 107.546 388.876 107.546 391.021 107.546C393.167 107.546 395.491 107.546 397.636 107.546C399.96 107.546 402.105 107.546 404.608 107.546C407.111 107.546 409.792 107.546 412.653 107.546C411.044 104.865 409.792 102.54 408.541 100.395C407.289 98.25 406.038 96.1047 404.965 94.1383C403.893 92.1718 402.641 90.2053 401.569 88.2388C400.496 86.2723 399.245 84.1271 397.993 81.9818C396.742 80.0154 395.312 77.5126 393.882 75.0098Z" fill="url(#paint34_linear)"/>
<path d="M425.345 75.0098C422.127 75.0098 419.445 75.0098 416.942 75.0098C414.439 75.0098 411.937 75.0098 409.613 75.0098C407.289 75.0098 404.965 75.0098 402.283 75.0098C399.78 75.0098 396.92 75.0098 393.881 75.0098C395.49 77.6913 396.741 80.0153 397.993 82.1606C399.244 84.3059 400.495 86.4511 401.568 88.4176C402.641 90.3841 403.892 92.3505 404.965 94.317C406.037 96.2835 407.289 98.4288 408.54 100.574C409.791 102.719 411.222 105.222 412.652 107.725C415.691 107.725 418.194 107.725 420.697 107.725C423.199 107.725 425.523 107.725 427.669 107.725C429.993 107.725 432.138 107.725 434.283 107.725C436.607 107.725 438.752 107.725 441.255 107.725C443.758 107.725 446.44 107.725 449.3 107.725C447.333 105.043 445.546 102.719 443.937 100.574C442.328 98.4288 440.719 96.2835 439.289 94.317C437.858 92.3505 436.428 90.3841 434.819 88.4176C433.389 86.4511 431.78 84.3059 430.171 82.1606C429.099 80.0153 427.311 77.5126 425.345 75.0098Z" fill="#92CD59"/>
<path d="M456.807 75.0098C453.589 75.0098 450.908 75.0098 448.405 75.0098C445.902 75.0098 443.4 75.0098 441.076 75.0098C438.752 75.0098 436.428 75.0098 433.746 75.0098C431.243 75.0098 428.383 75.0098 425.344 75.0098C427.31 77.6913 429.098 80.0153 430.707 82.1606C432.316 84.3059 433.925 86.4511 435.355 88.4176C436.785 90.3841 438.215 92.3505 439.824 94.317C441.254 96.2835 442.863 98.4288 444.472 100.574C446.081 102.719 447.869 105.222 449.835 107.725C452.874 107.725 455.377 107.725 457.88 107.725C460.383 107.725 462.707 107.725 464.852 107.725C466.997 107.725 469.321 107.725 471.467 107.725C473.791 107.725 475.936 107.725 478.439 107.725C480.941 107.725 483.623 107.725 486.483 107.725C484.159 105.043 482.014 102.719 479.869 100.574C477.902 98.4288 475.936 96.2835 474.148 94.317C472.36 92.3505 470.573 90.3841 468.785 88.4176C466.997 86.4511 465.031 84.3059 463.064 82.1606C461.455 80.0153 459.31 77.5126 456.807 75.0098Z" fill="url(#paint35_linear)"/>
<path d="M117.322 107.727H80.3164V126.676C80.3164 136.866 88.5398 145.09 98.7298 145.09C108.92 145.09 117.143 136.866 117.143 126.676V107.727H117.322Z" fill="url(#paint36_linear)"/>
<path d="M154.326 107.727H117.32V126.676C117.32 136.866 125.544 145.09 135.734 145.09C145.924 145.09 154.147 136.866 154.147 126.676V107.727H154.326Z" fill="#83C642"/>
<path d="M191.156 107.727H154.15V126.676C154.15 136.866 162.374 145.09 172.564 145.09C182.754 145.09 190.977 136.866 190.977 126.676V107.727H191.156Z" fill="url(#paint37_linear)"/>
<path d="M228.16 107.727H191.154V126.676C191.154 136.866 199.378 145.09 209.568 145.09C219.758 145.09 227.981 136.866 227.981 126.676V107.727H228.16Z" fill="#83C642"/>
<path d="M265.166 107.727H228.16V126.676C228.16 136.866 236.384 145.09 246.573 145.09C256.763 145.09 264.987 136.866 264.987 126.676V107.727H265.166Z" fill="url(#paint38_linear)"/>
<path d="M301.992 107.727H264.986V126.676C264.986 136.866 273.21 145.09 283.4 145.09C293.59 145.09 301.813 136.866 301.813 126.676V107.727H301.992Z" fill="#83C642"/>
<path d="M339 107.727H301.994V126.676C301.994 136.866 310.218 145.09 320.408 145.09C330.597 145.09 338.821 136.866 338.821 126.676V107.727H339Z" fill="url(#paint39_linear)"/>
<path d="M376.004 107.727H338.998V126.676C338.998 136.866 347.221 145.09 357.411 145.09C367.601 145.09 375.825 136.866 375.825 126.676V107.727H376.004Z" fill="#83C642"/>
<path d="M412.832 107.727H375.826V126.676C375.826 136.866 384.05 145.09 394.24 145.09C404.429 145.09 412.653 136.866 412.653 126.676V107.727H412.832Z" fill="url(#paint40_linear)"/>
<path d="M449.836 107.727H412.83V126.676C412.83 136.866 421.054 145.09 431.243 145.09C441.433 145.09 449.657 136.866 449.657 126.676V107.727H449.836Z" fill="#83C642"/>
<path d="M486.84 107.727H449.834V126.676C449.834 136.866 458.057 145.09 468.247 145.09C478.437 145.09 486.661 136.866 486.661 126.676V107.727H486.84Z" fill="url(#paint41_linear)"/>
<defs>
<radialGradient id="paint0_radial" cx="0" cy="0" r="1" gradientUnits="userSpaceOnUse" gradientTransform="translate(177.094 54.7973) scale(6.01475)">
<stop stop-color="#FFA728"/>
<stop offset="0.7442" stop-color="#FF9728"/>
<stop offset="1" stop-color="#FF9028"/>
</radialGradient>
<linearGradient id="paint1_linear" x1="179.524" y1="52.112" x2="170.701" y2="60.9342" gradientUnits="userSpaceOnUse">
<stop stop-color="#FFBB59"/>
<stop offset="0.3225" stop-color="#F6AB4B"/>
<stop offset="0.9528" stop-color="#E08026"/>
<stop offset="1" stop-color="#DE7D23"/>
</linearGradient>
<radialGradient id="paint2_radial" cx="0" cy="0" r="1" gradientUnits="userSpaceOnUse" gradientTransform="translate(137.619 54.7333) scale(6.01475)">
<stop stop-color="#FF496E"/>
<stop offset="0.3514" stop-color="#EF4065"/>
<stop offset="1" stop-color="#C72B4F"/>
</radialGradient>
<linearGradient id="paint3_linear" x1="138.176" y1="50.8227" x2="133.1" y2="62.2233" gradientUnits="userSpaceOnUse">
<stop stop-color="#FF738F"/>
<stop offset="0.2101" stop-color="#EF6885"/>
<stop offset="0.62" stop-color="#C44A6B"/>
<stop offset="1" stop-color="#982B4F"/>
</linearGradient>
<radialGradient id="paint4_radial" cx="0" cy="0" r="1" gradientUnits="userSpaceOnUse" gradientTransform="translate(157.293 54.7333) scale(6.01472)">
<stop stop-color="#00C8E0"/>
<stop offset="0.7178" stop-color="#00B8D9"/>
<stop offset="1" stop-color="#00B0D6"/>
</radialGradient>
<linearGradient id="paint5_linear" x1="159.13" y1="51.5407" x2="151.621" y2="61.5053" gradientUnits="userSpaceOnUse">
<stop stop-color="#43CFE0"/>
<stop offset="0.302" stop-color="#33C2D7"/>
<stop offset="0.8922" stop-color="#08A0BF"/>
<stop offset="1" stop-color="#0099BA"/>
</linearGradient>
<linearGradient id="paint6_linear" x1="482.159" y1="147.243" x2="306.993" y2="248.375" gradientUnits="userSpaceOnUse">
<stop stop-color="#FFEDDB"/>
<stop offset="1" stop-color="#E3C09D"/>
</linearGradient>
<linearGradient id="paint7_linear" x1="394.902" y1="207.452" x2="448.587" y2="207.452" gradientUnits="userSpaceOnUse">
<stop stop-color="#556CE7"/>
<stop offset="0.2558" stop-color="#556CE7"/>
<stop offset="1" stop-color="#556CE7"/>
</linearGradient>
<linearGradient id="paint8_linear" x1="501.008" y1="217.476" x2="349.257" y2="460.329" gradientUnits="userSpaceOnUse">
<stop stop-color="#F1EFF6"/>
<stop offset="0.2547" stop-color="#E7DFF6"/>
<stop offset="0.752" stop-color="#CCB4F6"/>
<stop offset="1" stop-color="#BD9DF6"/>
</linearGradient>
<radialGradient id="paint9_radial" cx="0" cy="0" r="1" gradientUnits="userSpaceOnUse" gradientTransform="translate(514.117 289.686) scale(30.6896)">
<stop stop-color="#556CE7"/>
<stop offset="0.3514" stop-color="#556CE7"/>
<stop offset="1" stop-color="#4051B6"/>
</radialGradient>
<linearGradient id="paint10_linear" x1="505.433" y1="267.791" x2="497.208" y2="330.424" gradientUnits="userSpaceOnUse">
<stop stop-color="#556CE7"/>
<stop offset="0.2573" stop-color="#556CE7"/>
<stop offset="0.7599" stop-color="#4051B6"/>
<stop offset="1" stop-color="#4051B6"/>
</linearGradient>
<radialGradient id="paint11_radial" cx="0" cy="0" r="1" gradientUnits="userSpaceOnUse" gradientTransform="translate(503.731 287.682) scale(7.44725)">
<stop stop-color="white"/>
<stop offset="0.3379" stop-color="#EFEFEF"/>
<stop offset="0.9985" stop-color="#C4C4C4"/>
<stop offset="1" stop-color="#C4C4C4"/>
</radialGradient>
<radialGradient id="paint12_radial" cx="0" cy="0" r="1" gradientUnits="userSpaceOnUse" gradientTransform="translate(506.934 305.715) scale(11.2483)">
<stop stop-color="white"/>
<stop offset="0.3379" stop-color="#EFEFEF"/>
<stop offset="0.9985" stop-color="#C4C4C4"/>
<stop offset="1" stop-color="#C4C4C4"/>
</radialGradient>
<linearGradient id="paint13_linear" x1="321.429" y1="280.783" x2="448.58" y2="280.783" gradientUnits="userSpaceOnUse">
<stop offset="0.003793" stop-color="#D4D4D4"/>
<stop offset="0.4556" stop-color="#E9E9E9"/>
<stop offset="1" stop-color="white"/>
</linearGradient>
<linearGradient id="paint14_linear" x1="321.429" y1="317.422" x2="448.58" y2="317.422" gradientUnits="userSpaceOnUse">
<stop offset="0.003793" stop-color="#D4D4D4"/>
<stop offset="0.4556" stop-color="#E9E9E9"/>
<stop offset="1" stop-color="white"/>
</linearGradient>
<linearGradient id="paint15_linear" x1="415.023" y1="377.445" x2="435.242" y2="377.445" gradientUnits="userSpaceOnUse">
<stop stop-color="white"/>
<stop offset="0.3379" stop-color="#EFEFEF"/>
<stop offset="0.9985" stop-color="#C4C4C4"/>
<stop offset="1" stop-color="#C4C4C4"/>
</linearGradient>
<linearGradient id="paint16_linear" x1="507.015" y1="377.443" x2="486.795" y2="377.443" gradientUnits="userSpaceOnUse">
<stop stop-color="white"/>
<stop offset="0.3379" stop-color="#EFEFEF"/>
<stop offset="0.9985" stop-color="#C4C4C4"/>
<stop offset="1" stop-color="#C4C4C4"/>
</linearGradient>
<linearGradient id="paint17_linear" x1="159.611" y1="394.546" x2="246.324" y2="394.546" gradientUnits="userSpaceOnUse">
<stop stop-color="#4051B6"/>
<stop offset="0.4614" stop-color="#556CE7"/>
<stop offset="1" stop-color="#556CE7"/>
</linearGradient>
<linearGradient id="paint18_linear" x1="238.47" y1="356.595" x2="206.024" y2="396.661" gradientUnits="userSpaceOnUse">
<stop stop-color="#556CE7"/>
<stop offset="0.3514" stop-color="#556CE7"/>
<stop offset="1" stop-color="#4051B6"/>
</linearGradient>
<linearGradient id="paint19_linear" x1="542.876" y1="88.9563" x2="581.341" y2="88.9563" gradientUnits="userSpaceOnUse">
<stop stop-color="#556CE7"/>
<stop offset="0.4614" stop-color="#556CE7"/>
<stop offset="1" stop-color="#556CE7"/>
</linearGradient>
<linearGradient id="paint20_linear" x1="41.5599" y1="42.3398" x2="41.5599" y2="3.87512" gradientUnits="userSpaceOnUse">
<stop stop-color="#4051B6"/>
<stop offset="0.4614" stop-color="#4051B6"/>
<stop offset="1" stop-color="#4051B6"/>
</linearGradient>
<linearGradient id="paint21_linear" x1="278.722" y1="167.324" x2="71.1714" y2="305.46" gradientUnits="userSpaceOnUse">
<stop stop-color="#556CE7"/>
<stop offset="1" stop-color="#556CE7"/>
</linearGradient>
<linearGradient id="paint22_linear" x1="275.101" y1="237.406" x2="71.7448" y2="237.406" gradientUnits="userSpaceOnUse">
<stop stop-color="#F1EFF6"/>
<stop offset="0.2547" stop-color="#E7DFF6"/>
<stop offset="0.752" stop-color="#CCB4F6"/>
<stop offset="1" stop-color="#BD9DF6"/>
</linearGradient>
<linearGradient id="paint23_linear" x1="281.034" y1="209.354" x2="101.927" y2="317.68" gradientUnits="userSpaceOnUse">
<stop stop-color="#4051B6"/>
<stop offset="0.4614" stop-color="#556CE7"/>
<stop offset="1" stop-color="#556CE7"/>
</linearGradient>
<linearGradient id="paint24_linear" x1="279.546" y1="210.254" x2="102.14" y2="317.551" gradientUnits="userSpaceOnUse">
<stop stop-color="#98A8FF"/>
<stop offset="0.4328" stop-color="#556CE7"/>
<stop offset="0.8015" stop-color="#556CE7"/>
<stop offset="1" stop-color="#4051B6"/>
</linearGradient>
<linearGradient id="paint25_linear" x1="270.362" y1="240.585" x2="95.0155" y2="314.036" gradientUnits="userSpaceOnUse">
<stop stop-color="#92CD59"/>
<stop offset="0.7442" stop-color="#92CD59"/>
<stop offset="1" stop-color="#92CD59"/>
</linearGradient>
<linearGradient id="paint26_linear" x1="223.162" y1="200.846" x2="146.985" y2="327.626" gradientUnits="userSpaceOnUse">
<stop stop-color="#92CD59"/>
<stop offset="1" stop-color="#92CD59"/>
</linearGradient>
<linearGradient id="paint27_linear" x1="95.5519" y1="186.58" x2="50.1935" y2="236.044" gradientUnits="userSpaceOnUse">
<stop stop-color="#92CD59"/>
<stop offset="0.3514" stop-color="#92CD59"/>
<stop offset="1" stop-color="#92CD59"/>
</linearGradient>
<linearGradient id="paint28_linear" x1="83.7474" y1="183.456" x2="60.639" y2="240.651" gradientUnits="userSpaceOnUse">
<stop stop-color="#92CD59"/>
<stop offset="0.2573" stop-color="#92CD59"/>
<stop offset="0.7599" stop-color="#92CD59"/>
<stop offset="1" stop-color="#92CD59"/>
</linearGradient>
<linearGradient id="paint29_linear" x1="62.0844" y1="212.053" x2="82.3041" y2="212.053" gradientUnits="userSpaceOnUse">
<stop stop-color="white"/>
<stop offset="0.3379" stop-color="#EFEFEF"/>
<stop offset="0.9985" stop-color="#C4C4C4"/>
<stop offset="1" stop-color="#C4C4C4"/>
</linearGradient>
<linearGradient id="paint30_linear" x1="126.342" y1="70.2906" x2="100.234" y2="106.381" gradientUnits="userSpaceOnUse">
<stop stop-color="#556CE7"/>
<stop offset="0.3514" stop-color="#556CE7"/>
<stop offset="1" stop-color="#4051B6"/>
</linearGradient>
<linearGradient id="paint31_linear" x1="189.811" y1="69.689" x2="172.836" y2="107.592" gradientUnits="userSpaceOnUse">
<stop stop-color="#556CE7"/>
<stop offset="0.3514" stop-color="#556CE7"/>
<stop offset="1" stop-color="#4051B6"/>
</linearGradient>
<linearGradient id="paint32_linear" x1="251.018" y1="73.4232" x2="246.6" y2="108.071" gradientUnits="userSpaceOnUse">
<stop stop-color="#556CE7"/>
<stop offset="0.3514" stop-color="#556CE7"/>
<stop offset="1" stop-color="#4051B6"/>
</linearGradient>
<linearGradient id="paint33_linear" x1="314.662" y1="73.0376" x2="320.707" y2="108.848" gradientUnits="userSpaceOnUse">
<stop stop-color="#556CE7"/>
<stop offset="0.3513" stop-color="#556CE7"/>
<stop offset="0.3514" stop-color="#556CE7"/>
<stop offset="1" stop-color="#4051B6"/>
</linearGradient>
<linearGradient id="paint34_linear" x1="377.75" y1="72.6024" x2="394.345" y2="107.635" gradientUnits="userSpaceOnUse">
<stop stop-color="#556CE7"/>
<stop offset="0.3514" stop-color="#556CE7"/>
<stop offset="1" stop-color="#4051B6"/>
</linearGradient>
<linearGradient id="paint35_linear" x1="442.842" y1="72.6779" x2="467.632" y2="107.711" gradientUnits="userSpaceOnUse">
<stop stop-color="#556CE7"/>
<stop offset="0.3514" stop-color="#556CE7"/>
<stop offset="1" stop-color="#4051B6"/>
</linearGradient>
<linearGradient id="paint36_linear" x1="99.0359" y1="105.762" x2="98.46" y2="146.267" gradientUnits="userSpaceOnUse">
<stop stop-color="#556CE7"/>
<stop offset="0.3514" stop-color="#556CE7"/>
<stop offset="1" stop-color="#4051B6"/>
</linearGradient>
<linearGradient id="paint37_linear" x1="172.823" y1="106.112" x2="172.59" y2="145.41" gradientUnits="userSpaceOnUse">
<stop stop-color="#556CE7"/>
<stop offset="0.3514" stop-color="#556CE7"/>
<stop offset="1" stop-color="#4051B6"/>
</linearGradient>
<linearGradient id="paint38_linear" x1="246.77" y1="106.108" x2="246.305" y2="145.872" gradientUnits="userSpaceOnUse">
<stop stop-color="#556CE7"/>
<stop offset="0.3514" stop-color="#556CE7"/>
<stop offset="1" stop-color="#4051B6"/>
</linearGradient>
<linearGradient id="paint39_linear" x1="320.261" y1="105.87" x2="321.191" y2="146.332" gradientUnits="userSpaceOnUse">
<stop stop-color="#556CE7"/>
<stop offset="0.3514" stop-color="#556CE7"/>
<stop offset="1" stop-color="#4051B6"/>
</linearGradient>
<linearGradient id="paint40_linear" x1="394.524" y1="105.906" x2="394.114" y2="146.471" gradientUnits="userSpaceOnUse">
<stop stop-color="#556CE7"/>
<stop offset="0.3514" stop-color="#556CE7"/>
<stop offset="1" stop-color="#4051B6"/>
</linearGradient>
<linearGradient id="paint41_linear" x1="467.874" y1="106.283" x2="469.308" y2="144.799" gradientUnits="userSpaceOnUse">
<stop stop-color="#556CE7"/>
<stop offset="0.3514" stop-color="#556CE7"/>
<stop offset="1" stop-color="#4051B6"/>
</linearGradient>
</defs>
</svg>
