<svg xmlns="http://www.w3.org/2000/svg" width="189" height="149" viewBox="0 0 189 149">
  <g id="Group_1517" data-name="Group 1517" transform="translate(-994 -394)">
    <g id="https" transform="translate(994 419.5)">
      <path id="Path_1038" data-name="Path 1038" d="M126.816,49.865A10.855,10.855,0,0,0,137.8,39.171V11.194A10.855,10.855,0,0,0,126.816.5H21.865A10.851,10.851,0,0,0,10.887,11.194v7.1A11.188,11.188,0,0,0,0,29.461V91.09a11.188,11.188,0,0,0,11.176,11.175H44.783l-1.337,5.567H38.358a7.834,7.834,0,1,0,0,15.668H77.968a7.834,7.834,0,1,0,0-15.668H72.882l-1.334-5.567H97.614a48.374,48.374,0,0,0,4.06,4.383c.705.676,2.779,2.458,4.839,4.043,4.015,3.089,5.533,3.589,6.579,3.67.11.008.248.019.418.019,1.224,0,4.107-.546,10.326-6.342a51.83,51.83,0,0,0,9.24-11.032c5.479-9.767,5.031-23.951,4.276-31.536a2.7,2.7,0,0,0-1.7-2.243L116.326,55.69V49.865Zm-46.4,65.8a2.452,2.452,0,0,1-2.45,2.449H38.358a2.448,2.448,0,1,1,0-4.9H77.968A2.452,2.452,0,0,1,80.417,115.665Zm-13.072-7.834H48.984l1.338-5.567H66.011Zm61.037-13.46a46.514,46.514,0,0,1-7.817,9.352c-3.94,3.743-6.284,4.993-7.032,5.228-1.655-.726-6.612-4.733-8.131-6.192-6.534-6.251-10.048-13.182-10.44-20.6-.186-3.476-.307-10.811-.058-14.657l18.716-7.088,18.523,7.225C133.046,78.788,131.695,88.466,128.382,94.371ZM110.94,55.67,91.433,63.059a2.688,2.688,0,0,0-1.711,2.128c-.553,3.776-.327,13.741-.14,17.259q.043.795.124,1.581H68.859a2.693,2.693,0,0,0,0,5.386H90.742A33.448,33.448,0,0,0,93.9,96.88H11.176a5.8,5.8,0,0,1-5.79-5.789V89.413H47.772a2.692,2.692,0,1,0,0-5.385H5.386V29.461a5.791,5.791,0,0,1,5.5-5.774V39.171A10.851,10.851,0,0,0,21.865,49.865H69.019a2.693,2.693,0,1,0,0-5.386H21.865a5.461,5.461,0,0,1-5.592-5.308V11.194a5.462,5.462,0,0,1,5.592-5.308H126.816a5.466,5.466,0,0,1,5.6,5.308V39.171a5.465,5.465,0,0,1-5.6,5.308H90.51a2.693,2.693,0,1,0,0,5.386h20.431V55.67Zm0,0" fill="#d6d3d3"/>
      <path id="Path_1048" data-name="Path 1048" d="M289.09,163.906h-.053a2.692,2.692,0,1,0,0,5.385h.053a2.692,2.692,0,1,0,0-5.385Zm0,0" transform="translate(-209.276 -119.426)" fill="#d6d3d3"/>
      <path id="Path_1049" data-name="Path 1049" d="M208.648,310.844h-.054a2.693,2.693,0,0,0,0,5.386h.054a2.693,2.693,0,0,0,0-5.386Zm0,0" transform="translate(-150.485 -226.816)" fill="#d6d3d3"/>
    </g>
    <g id="Icon_ionic-ios-link" data-name="Icon ionic-ios-link" transform="translate(1015.566 430.265)">
      <path id="Path_217" data-name="Path 217" d="M19.582,23.913l-.084.007a1.156,1.156,0,0,0-.671.314l-4.513,4.513a5.088,5.088,0,0,1-7.2-7.2l4.792-4.792a5.057,5.057,0,0,1,.8-.65,5.135,5.135,0,0,1,1.034-.524,4.891,4.891,0,0,1,1.048-.258,4.954,4.954,0,0,1,.713-.049c.1,0,.2.007.321.014a5.073,5.073,0,0,1,3.269,1.467,5.009,5.009,0,0,1,1.195,1.907,1.1,1.1,0,0,0,1.348.706c.007,0,.014-.007.021-.007s.014,0,.014-.007a1.091,1.091,0,0,0,.734-1.334,6.33,6.33,0,0,0-1.718-2.864,7.354,7.354,0,0,0-4.024-2.047c-.133-.021-.265-.042-.4-.056a7.209,7.209,0,0,0-.775-.042c-.182,0-.363.007-.538.021a7.045,7.045,0,0,0-1.132.175c-.077.014-.147.035-.224.056a7.267,7.267,0,0,0-1.362.51,7.176,7.176,0,0,0-1.935,1.39L5.506,19.959a7.369,7.369,0,0,0-2.131,5.2,7.345,7.345,0,0,0,12.532,5.19l4.562-4.562A1.106,1.106,0,0,0,19.582,23.913Z" transform="translate(-3.375 -3.437)" fill="#d6d3d3" stroke="#d6d3d3" stroke-width="1"/>
      <path id="Path_218" data-name="Path 218" d="M30.356,5.52a7.362,7.362,0,0,0-10.388,0l-4.45,4.45a1.123,1.123,0,0,0,.706,1.914,1.135,1.135,0,0,0,.887-.321l4.457-4.443a5.088,5.088,0,0,1,7.2,7.2l-4.792,4.792a5.057,5.057,0,0,1-.8.65,5.135,5.135,0,0,1-1.034.524,4.891,4.891,0,0,1-1.048.258,4.953,4.953,0,0,1-.713.049c-.1,0-.2-.007-.321-.014a5.02,5.02,0,0,1-4.415-3.248,1.116,1.116,0,0,0-1.334-.685,1.129,1.129,0,0,0-.789,1.432,6.381,6.381,0,0,0,1.656,2.62h0l.014.014a7.355,7.355,0,0,0,4.422,2.1,7.209,7.209,0,0,0,.775.042q.272,0,.545-.021a7.987,7.987,0,0,0,1.348-.224,7.266,7.266,0,0,0,1.362-.51,7.176,7.176,0,0,0,1.935-1.39l4.792-4.792A7.353,7.353,0,0,0,30.356,5.52Z" transform="translate(-3.44 -3.375)" fill="#d6d3d3" stroke="#d6d3d3" stroke-width="1"/>
    </g>
    <rect id="Rectangle_741" data-name="Rectangle 741" width="70" height="6" rx="3" transform="translate(1053 442)" fill="#d6d3d3"/>
    <g id="coupon_2_" data-name="coupon (2)" transform="translate(1091.398 492.61) rotate(-13)">
      <g id="Group_890" data-name="Group 890" transform="translate(10.857 19.769)">
        <g id="Group_889" data-name="Group 889">
          <path id="Path_259" data-name="Path 259" d="M199.157,367.471a.808.808,0,1,0,0,1.143A.807.807,0,0,0,199.157,367.471Z" transform="translate(-197.779 -367.234)" fill="#d6d3d3"/>
        </g>
      </g>
      <g id="Group_892" data-name="Group 892" transform="translate(9.714 11.776)">
        <g id="Group_891" data-name="Group 891">
          <path id="Path_260" data-name="Path 260" d="M177.932,218.987a.807.807,0,0,0-1.142,1.141.824.824,0,0,0,1.141,0h0A.806.806,0,0,0,177.932,218.987Z" transform="translate(-176.553 -218.75)" fill="#d6d3d3"/>
        </g>
      </g>
      <g id="Group_894" data-name="Group 894" transform="translate(10.685 0)">
        <g id="Group_893" data-name="Group 893">
          <path id="Path_261" data-name="Path 261" d="M210.956,9.761l-1.319-1.319a4.847,4.847,0,0,0-6.5-6.5L201.9.708a2.426,2.426,0,0,0-3.425,0l-.521.521,1.631,1.631A.807.807,0,0,1,198.445,4l-1.631-1.631L194.59,4.656l12.479,12.478,2.224-2.284-1.713-1.712A.807.807,0,1,1,208.722,12l1.713,1.712.522-.522A2.424,2.424,0,0,0,210.956,9.761Zm-7.943-2.333a.807.807,0,0,1-1.142,0l-1.143-1.142a.807.807,0,0,1,1.142-1.142l1.143,1.142A.807.807,0,0,1,203.013,7.428Zm3.425,3.426a.807.807,0,0,1-1.142,0l-1.142-1.143A.807.807,0,1,1,205.3,8.57l1.142,1.143A.807.807,0,0,1,206.438,10.854Z" transform="translate(-194.59 0)" fill="#d6d3d3"/>
        </g>
      </g>
      <g id="Group_896" data-name="Group 896" transform="translate(0.222 5.798)">
        <g id="Group_895" data-name="Group 895" transform="translate(0)">
          <path id="Path_262" data-name="Path 262" d="M9.543,107.694.93,116.307a2.425,2.425,0,0,0,0,3.426L2.2,121.006a4.845,4.845,0,0,0,6.442,6.416l1.4,1.355a2.432,2.432,0,0,0,3.4-.025l8.581-8.581Zm-.734,5.073a2.482,2.482,0,0,1,3.426,0,2.422,2.422,0,0,1,0,3.425h0a2.422,2.422,0,0,1-3.425-3.426Zm4.567,11.419a2.422,2.422,0,1,1-3.425-3.426,2.482,2.482,0,0,1,3.426,0A2.426,2.426,0,0,1,13.376,124.186Zm2.944-5.478L6.044,119.85a.808.808,0,1,1-.178-1.605L16.142,117.1a.808.808,0,0,1,.178,1.605Z" transform="translate(-0.222 -107.694)" fill="#d6d3d3"/>
        </g>
      </g>
    </g>
    <g id="Rectangle_742" data-name="Rectangle 742" transform="translate(1006 475)" fill="#fff" stroke="#d6d3d3" stroke-width="3">
      <rect width="22" height="22" rx="3" stroke="none"/>
      <rect x="1.5" y="1.5" width="19" height="19" rx="1.5" fill="none"/>
    </g>
    <g id="Rectangle_743" data-name="Rectangle 743" transform="translate(1035 475)" fill="#fff" stroke="#d6d3d3" stroke-width="3">
      <rect width="22" height="22" rx="3" stroke="none"/>
      <rect x="1.5" y="1.5" width="19" height="19" rx="1.5" fill="none"/>
    </g>
    <g id="Rectangle_744" data-name="Rectangle 744" transform="translate(1064 475)" fill="#fff" stroke="#d6d3d3" stroke-width="3">
      <rect width="22" height="22" rx="3" stroke="none"/>
      <rect x="1.5" y="1.5" width="19" height="19" rx="1.5" fill="none"/>
    </g>
    <path id="Polygon_1" data-name="Polygon 1" d="M13.5,0l3.038,10.463L27,13.5,16.538,16.538,13.5,27,10.463,16.538,0,13.5l10.463-3.037Z" transform="translate(1123 394)" fill="#556ce7"/>
    <path id="Polygon_2" data-name="Polygon 2" d="M13.5,0l3.038,10.463L27,13.5,16.538,16.538,13.5,27,10.463,16.538,0,13.5l10.463-3.037Z" transform="translate(1134 434)" fill="#556ce7"/>
    <path id="Polygon_3" data-name="Polygon 3" d="M13.5,0l3.038,10.463L27,13.5,16.538,16.538,13.5,27,10.463,16.538,0,13.5l10.463-3.037Z" transform="translate(1156 407)" fill="#556ce7"/>
  </g>
</svg>
