<svg id="store" xmlns="http://www.w3.org/2000/svg" width="28.177" height="25" viewBox="0 0 28.177 25">
  <path id="Path_4843" data-name="Path 4843" d="M50.534,281.6a.413.413,0,0,0-.413.413v6.58H41.614v-7.812a.964.964,0,0,0-.963-.963H35.882a.964.964,0,0,0-.963.963V288.6H26.411v-6.58a.413.413,0,0,0-.826,0v6.773a.634.634,0,0,0,.633.633h24.1a.634.634,0,0,0,.633-.633v-6.773A.413.413,0,0,0,50.534,281.6ZM35.745,288.6v-7.812a.138.138,0,0,1,.138-.138h4.768a.138.138,0,0,1,.138.138V288.6Zm0,0" transform="translate(-24.178 -264.421)" fill="#556ce7"/>
  <path id="Path_4844" data-name="Path 4844" d="M340.487,302.117a.88.88,0,0,0,.879-.879v-4.5a.88.88,0,0,0-.879-.879h-5.108a.88.88,0,0,0-.879.879v4.5a.88.88,0,0,0,.879.879Zm-5.161-.879v-4.5a.053.053,0,0,1,.053-.053h5.108a.053.053,0,0,1,.053.053v4.5a.053.053,0,0,1-.053.053h-5.108A.053.053,0,0,1,335.326,301.238Zm0,0" transform="translate(-316.091 -279.573)" fill="#556ce7"/>
  <path id="Path_4845" data-name="Path 4845" d="M58.733,302.117a.88.88,0,0,0,.879-.879v-4.5a.88.88,0,0,0-.879-.879H53.625a.88.88,0,0,0-.879.879v4.5a.88.88,0,0,0,.879.879Zm-5.161-.879v-4.5a.053.053,0,0,1,.053-.053h5.108a.053.053,0,0,1,.053.053v4.5a.053.053,0,0,1-.053.053H53.625A.053.053,0,0,1,53.572,301.238Zm0,0" transform="translate(-49.843 -279.573)" fill="#556ce7"/>
  <path id="Path_4846" data-name="Path 4846" d="M26.964,6.085a.8.8,0,0,1,.8-.8.413.413,0,0,0,.413-.413V3.863a.413.413,0,0,0-.413-.413H20.951a.413.413,0,1,0,0,.826h6.4v.238a1.632,1.632,0,0,0-1.16,1.159H19.7V2.008A2.011,2.011,0,0,0,17.69,0h-7.2A2.01,2.01,0,0,0,8.479,2.008V3.45H.413A.413.413,0,0,0,0,3.863v1.01a.413.413,0,0,0,.413.413.8.8,0,0,1,.8.8.413.413,0,0,0,.2.352V9.256H.667a.634.634,0,0,0-.633.633v2.248a.634.634,0,0,0,.633.633H1.41v3.176a.413.413,0,1,0,.826,0V12.77h23.74v3.177a.413.413,0,1,0,.826,0V12.77h.743a.634.634,0,0,0,.633-.633V9.889a.634.634,0,0,0-.633-.633H26.8V6.414A.413.413,0,0,0,26.964,6.085ZM9.3,2.008A1.184,1.184,0,0,1,10.487.826h7.2a1.184,1.184,0,0,1,1.183,1.183v4.5A1.184,1.184,0,0,1,17.69,7.695h-7.2A1.184,1.184,0,0,1,9.3,6.512v-4.5Zm18.048,9.936H.86V10.082H27.352ZM2.236,9.256V6.5H7.241a.413.413,0,1,0,0-.826H1.985A1.632,1.632,0,0,0,.826,4.513V4.276H8.479V6.512A2.011,2.011,0,0,0,10.487,8.52h7.2A2.01,2.01,0,0,0,19.7,6.512V6.5h6.277V9.256Zm0,0" fill="#556ce7"/>
  <path id="Path_4847" data-name="Path 4847" d="M214.243,359.543h-.33a.413.413,0,1,0,0,.826h.33a.413.413,0,1,0,0-.826Zm0,0" transform="translate(-201.75 -339.756)" fill="#556ce7"/>
  <path id="Path_4848" data-name="Path 4848" d="M195.194,30.759h.506l.519,2.481a1.048,1.048,0,0,0,1.021.83h2.451a1.049,1.049,0,0,0,.976-.675l.809-2.143a.664.664,0,0,0-.621-.9h-3.466a.413.413,0,1,0,0,.826h3.232l-.727,1.924a.219.219,0,0,1-.2.141H197.24a.219.219,0,0,1-.213-.173l-.521-2.49a.817.817,0,0,0-.8-.647h-.515a.413.413,0,0,0,0,.826Zm0,0" transform="translate(-184.062 -28.286)" fill="#556ce7"/>
  <path id="Path_4849" data-name="Path 4849" d="M231.773,111.383h-.11a.413.413,0,0,0,0,.826h.11a.413.413,0,0,0,0-.826Zm0,0" transform="translate(-218.523 -105.253)" fill="#556ce7"/>
  <path id="Path_4850" data-name="Path 4850" d="M264.273,111.383h-.11a.413.413,0,0,0,0,.826h.11a.413.413,0,0,0,0-.826Zm0,0" transform="translate(-249.235 -105.253)" fill="#556ce7"/>
</svg>
