<svg xmlns="http://www.w3.org/2000/svg" width="25.497" height="25.497" viewBox="0 0 25.497 25.497">
  <path id="share-link" d="M25.5,12.9v8.615A3.988,3.988,0,0,1,21.513,25.5H3.984A3.988,3.988,0,0,1,0,21.513V3.984A3.988,3.988,0,0,1,3.984,0h8.665a1,1,0,1,1,0,1.992H3.984A1.994,1.994,0,0,0,1.992,3.984V21.513A1.994,1.994,0,0,0,3.984,23.5H21.513A1.994,1.994,0,0,0,23.5,21.513V12.9a1,1,0,0,1,1.992,0ZM13.6,9.252a1.026,1.026,0,0,0,.064.113c.075.116.252.383.45.656l-3.268,3.268A1,1,0,0,0,12.257,14.7l1.8-1.8c.043.078.084.157.123.233a2.631,2.631,0,0,1,.269,1.13,4.9,4.9,0,0,1-1.684,3.256l-.092.08a1.008,1.008,0,0,0-.1.1l-.079.091a4.9,4.9,0,0,1-3.256,1.685,2.685,2.685,0,0,1-1.586-.529c-.018-.016-.037-.032-.056-.046l-.1-.074a4.3,4.3,0,0,1-.423-.372,2.975,2.975,0,0,1-1-2.142A4.9,4.9,0,0,1,7.76,13.051l.092-.08a1.009,1.009,0,0,0,.1-.1l.08-.092a5.671,5.671,0,0,1,2.513-1.6,1,1,0,0,0-.474-1.935A7.617,7.617,0,0,0,6.6,11.394c-.017.017-.034.035-.049.053l-.057.066-.066.057c-.018.016-.036.032-.053.049a6.815,6.815,0,0,0-2.292,4.689A4.929,4.929,0,0,0,5.67,19.859a6.325,6.325,0,0,0,.619.544l.032.025a.964.964,0,0,0,.089.074,4.694,4.694,0,0,0,2.829.961,6.818,6.818,0,0,0,4.689-2.292c.017-.017.034-.035.05-.054l.056-.065L14.1,19c.018-.016.036-.032.053-.05a6.815,6.815,0,0,0,2.292-4.689,4.607,4.607,0,0,0-.468-2l-.008-.016c-.07-.14-.241-.472-.451-.807l3.214-3.214a1,1,0,0,0-1.409-1.409L15.546,8.591c-.059-.086-.118-.173-.172-.255a2.61,2.61,0,0,1-.247-1.082A4.9,4.9,0,0,1,16.812,4l.092-.08a.985.985,0,0,0,.1-.1l.079-.092a4.9,4.9,0,0,1,3.257-1.685,2.685,2.685,0,0,1,1.586.529c.018.016.037.031.056.046l.1.074a4.374,4.374,0,0,1,.423.372,2.975,2.975,0,0,1,1,2.142A4.9,4.9,0,0,1,21.82,8.461l-.092.08a.99.99,0,0,0-.1.1l-.079.092a5.415,5.415,0,0,1-2.586,1.557,1,1,0,1,0,.422,1.947,7.369,7.369,0,0,0,3.6-2.119c.017-.017.033-.035.049-.053L23.086,10l.066-.057c.018-.016.036-.032.053-.049A6.814,6.814,0,0,0,25.5,5.205,4.929,4.929,0,0,0,23.91,1.654a6.319,6.319,0,0,0-.619-.544l-.032-.025a1.017,1.017,0,0,0-.089-.074A4.694,4.694,0,0,0,20.341.05a6.818,6.818,0,0,0-4.689,2.292c-.017.017-.034.035-.05.053l-.056.065-.066.057c-.018.016-.036.032-.053.049a6.815,6.815,0,0,0-2.292,4.689A4.607,4.607,0,0,0,13.6,9.252Zm0,0" fill="#a9aaaf"/>
</svg>
