<?xml version="1.0" encoding="UTF-8"?>
<svg width="20px" height="20px" viewBox="0 0 20 20" version="1.1" xmlns="http://www.w3.org/2000/svg">
    <!-- Generator: sketchtool 53.2 (72643) - https://sketchapp.com -->
    <title>68AB972E-8911-413F-AD43-2E5134060DB0</title>
    <desc>Created with sketchtool.</desc>
    <g id="v.2" stroke="none" stroke-width="1" fill="none" fill-rule="evenodd">
        <g id="R-Collection-2" transform="translate(-1081.000000, -147.000000)" fill="#9EA0A5" fill-rule="nonzero" stroke="#979797" stroke-width="0.2">
            <g id="Group-4" transform="translate(1070.000000, 138.000000)">
                <path d="M20.7901636,10.6241125 C20.5125186,10.345553 20.1383779,10.1844411 19.7452164,10.1741389 L13.4722734,10.000539 C13.0786889,9.9897481 12.6980035,10.141376 12.4196193,10.4198135 C12.1412352,10.6982509 11.9896803,11.0789655 12.0005466,11.4725478 L12.1741464,17.7449309 C12.1843824,18.1381928 12.3454996,18.5124485 12.6241221,18.79017 L21.3841811,27.550223 C21.9852898,28.1499008 22.9583627,28.1499008 23.5594714,27.550223 L29.5502386,21.5594558 C30.1499205,20.9583535 30.1499205,19.9852798 29.5502386,19.3841775 L20.7901636,10.6241125 Z M28.8431112,20.8523164 L22.8523199,26.8430816 C22.6420303,27.0528856 22.3015982,27.0528856 22.0913085,26.8430816 L13.3312575,18.0830186 C13.2337886,17.9858326 13.1774176,17.8548916 13.1738116,17.7172969 L13.0002118,11.4449139 C12.9969447,11.326048 13.0427082,11.2110703 13.1267637,11.1269607 C13.2108193,11.0428511 13.3257675,10.9970136 13.4446354,11.0002042 L19.7175804,11.1738041 C19.855082,11.1774448 19.9859194,11.2338162 20.0830101,11.33125 L28.8431112,20.091317 C29.0528741,20.3016189 29.0528741,20.6420144 28.8431112,20.8523164 Z M15.0749221,13.0740866 C14.5112797,13.637727 14.3426662,14.4853979 14.6477061,15.2218312 C14.9527459,15.9582645 15.6713667,16.438432 16.468476,16.438432 C17.2655854,16.438432 17.9842061,15.9582645 18.289246,15.2218312 C18.5942858,14.4853979 18.4256724,13.637727 17.8620299,13.0740866 C17.0919093,12.305622 15.8450527,12.305622 15.0749321,13.0740866 L15.0749221,13.0740866 Z M17.2963424,15.2954968 C16.9615077,15.6303337 16.4579418,15.7305005 16.0204575,15.5492894 C15.5829731,15.3680783 15.2977255,14.9411758 15.2977255,14.4676465 C15.2977255,13.9941171 15.5829731,13.5672146 16.0204575,13.3860035 C16.4579418,13.2047924 16.9615077,13.3049592 17.2963424,13.6397961 C17.7527931,14.0973191 17.7527931,14.8379738 17.2963424,15.2954968 L17.2963424,15.2954968 Z M26.6264129,19.5353374 C26.7826152,19.6915503 26.7826152,19.9448101 26.6264129,20.101023 L22.1009285,24.6265074 C21.9445203,24.7815483 21.6922094,24.7809931 21.536485,24.6252654 C21.3807606,24.4695377 21.3802108,24.2172268 21.535255,24.0608218 L26.0607394,19.5353374 C26.2169477,19.3791355 26.4702046,19.3791355 26.6264129,19.5353374 Z M24.9293443,18.4039663 L20.4038599,22.9294507 C20.3029586,23.0312375 20.1553103,23.0712605 20.0168169,23.0343663 C19.8783235,22.9974721 19.7701538,22.8893001 19.7332626,22.7508059 C19.6963713,22.6123117 19.7363974,22.4646643 19.8381863,22.3637652 L24.3636707,17.8382808 C24.520079,17.6832399 24.7723899,17.683795 24.9281143,17.8395228 C25.0838387,17.9952505 25.0843885,18.2475614 24.9293443,18.4039663 Z" id="icon-productcollection" transform="translate(21.000000, 18.999991) scale(-1, 1) translate(-21.000000, -18.999991) "></path>
            </g>
        </g>
    </g>
</svg>
