<?xml version="1.0" encoding="UTF-8"?>
<svg width="20px" height="20px" viewBox="0 0 20 20" version="1.1" xmlns="http://www.w3.org/2000/svg">
    <!-- Generator: sketchtool 53.2 (72643) - https://sketchapp.com -->
    <title>E9DED941-081E-4AB1-963B-36086612A0C4</title>
    <desc>Created with sketchtool.</desc>
    <g id="v.2" stroke="none" stroke-width="1" fill="none" fill-rule="evenodd">
        <g id="R-Collection-2" transform="translate(-1081.000000, -184.000000)">
            <g id="Group-4" transform="translate(1070.000000, 138.000000)">
                <g id="icon-servicecollection" transform="translate(12.000000, 47.000000)">
                    <path d="M12.9076097,10.640723 L13.6938919,11.5753121 C13.725985,11.6168493 13.7580782,11.6168493 13.7901713,11.6583866 C14.03087,11.7829985 14.3036618,11.6168493 14.3678481,11.3053197 C14.4641275,10.99379 14.3357549,10.640723 14.0950563,10.5576484 C14.0469166,10.5576484 13.9827303,10.5161111 13.9506371,10.5161111 L12.9236563,10.3914993 L10.0676867,9 L9.9,9.04257572 L10.0132888,9.27643067 L12.8113302,10.5991857 L12.9076097,10.640723 Z" id="Fill-1" fill="#9EA0A5"></path>
                    <path d="M16.6227065,8.4216011 C16.6227065,8.4216011 15.6454465,7.864211 13.994214,8.21703893 C12.3431501,8.57023846 9.96722875,9.20194724 9.96722875,9.20194724 L12.8316116,10.3910461 L13.9099675,10.5025241 C13.9438346,10.5025241 14.0110633,10.5394977 14.0617798,10.5394977 C14.3145194,10.6140022 14.4493139,10.9298565 14.3480496,11.2085516 C14.2808208,11.4872466 13.994214,11.635884 13.7414744,11.524406 C13.7077757,11.4872466 13.6740771,11.4872466 13.640547,11.4500873 L12.8147623,10.6140022 L12.7138349,10.5768428 L9.9,9.44348295 C9.9,9.44348295 12.528324,14.4228345 13.9605154,14.9802246 C14.0280811,15.0173839 14.1460263,15.0915168 14.2469537,15.1474416 C15.3254781,15.574774 16.4373641,15.073123 16.7911996,14.0326614 C16.9767105,13.438112 16.892464,12.8064032 16.5721586,12.2861725 C17.1789023,12.1187696 17.6843816,11.691623 17.9034226,11.0599142 C18.2404088,10.0380324 17.6673638,8.86732738 16.6227065,8.4216011 Z" id="Stroke-3" stroke="#9EA0A5"></path>
                    <path d="M11.3463002,6.07433142 L12.3831748,5.45499198 C12.4282718,5.43074873 12.4391882,5.39457324 12.4842853,5.37032999 C12.6695053,5.13528404 12.6272716,4.78224162 12.3940911,4.62238765 C12.172006,4.4265476 11.8384308,4.4710567 11.6873915,4.71784547 C11.6707485,4.772014 11.6145561,4.83224334 11.6034608,4.86841882 L11.1476583,5.98607081 L9.02290645,8.79980374 L9,9 L9.23067507,8.93882366 L11.2790125,6.17073624 L11.3463002,6.07433142 Z" id="Fill-5" fill="#9EA0A5"></path>
                    <path d="M10.4384316,0.888492736 C10.4384316,0.888492736 9.62462822,1.72322025 9.41075524,3.52546042 C9.19688225,5.3275187 9,7.95775618 9,7.95775618 L10.9865139,5.37681291 L11.4328271,4.30325402 C11.443512,4.2686935 11.498688,4.2108501 11.5149781,4.15882743 C11.6626398,3.92181502 11.9893172,3.87888721 12.2066934,4.0671511 C12.4347546,4.22049067 12.4760928,4.55972946 12.2949752,4.78546422 C12.2508343,4.8087471 12.2399743,4.84330762 12.1958334,4.8667724 L11.1809439,5.46157714 L11.1150829,5.55398105 L9.19495547,8.1 C9.19495547,8.1 14.503945,6.90784395 15.4638336,5.60600373 C15.5188345,5.54797844 15.6234063,5.44939001 15.7057325,5.36262491 C16.4352829,4.38474409 16.3427972,3.09108925 15.5235639,2.41297547 C15.0499254,2.04281411 14.4564761,1.93822306 13.8871991,2.10957048 C13.9322158,1.43618603 13.7115115,0.787903433 13.2154523,0.371903909 C12.4074293,-0.283290793 11.1737623,-0.0491887434 10.4384316,0.888492736 Z" id="Stroke-7" stroke="#9EA0A5"></path>
                    <path d="M7.34521966,5.08508954 L7.14197668,3.94490332 C7.13503742,3.89612062 7.11021032,3.87566336 7.10327107,3.82688067 C6.97050004,3.58786294 6.6859907,3.52614147 6.50017295,3.69731802 C6.28921969,3.84786247 6.23493931,4.17063256 6.38575239,4.38132485 C6.42322436,4.41192331 6.45514492,4.48151297 6.47997202,4.50197022 L7.22401406,5.24455126 L8.83715888,8.02166793 L8.9861215,8.1 L9,7.86815106 L7.40196732,5.17513645 L7.34521966,5.08508954 Z" id="Fill-9" fill="#9EA0A5"></path>
                    <path d="M3.05552524,4.64844607 C3.05552524,4.64844607 3.53319798,5.6647563 5.00778839,6.40034478 C6.4823788,7.13575913 8.66793535,8.1 8.66793535,8.1 L7.0389572,5.45804618 L6.25218293,4.71845236 C6.22593538,4.69807739 6.19235156,4.62894183 6.1527357,4.59829231 C5.99329409,4.38844758 6.05068003,4.06697591 6.27353963,3.91703706 C6.46998865,3.74672325 6.77093878,3.80802229 6.91114306,4.04607851 C6.91847934,4.09466496 6.94472688,4.11503993 6.95206315,4.16380053 L7.1670974,5.29922594 L7.22709179,5.38891061 L8.84514705,7.95772353 C8.84514705,7.95772353 9.35591452,2.58517609 8.52218811,1.29249774 C8.48860429,1.22336218 8.43447892,1.0953656 8.38426622,0.991575178 C7.76035716,0.0125319788 6.63138661,-0.282643799 5.81754965,0.291338126 C5.36596143,0.62952772 5.10609442,1.15979925 5.08832434,1.74875765 C4.52718114,1.50704438 3.91126046,1.52411059 3.41386131,1.86996257 C2.62317436,2.4401133 2.46797147,3.67584623 3.05552524,4.64844607 Z" id="Stroke-11" stroke="#9EA0A5"></path>
                    <path d="M5.34619752,9.93980097 L4.11960228,9.8047057 C4.06763577,9.79670663 4.03775503,9.81768195 3.98597411,9.80986065 C3.69514725,9.8802524 3.52718406,10.1730181 3.63074589,10.4305879 C3.70424138,10.7087775 4.00991582,10.8696476 4.27884252,10.7706369 C4.32375643,10.739174 4.40578928,10.7261977 4.43585562,10.7054001 L5.4621942,10.1228906 L8.86544386,9.22681786 L9,9.08816745 L8.77116176,9 L5.45829671,9.90602716 L5.34619752,9.93980097 Z" id="Fill-13" fill="#9EA0A5"></path>
                    <path d="M3.16644346,14.3131815 C3.16644346,14.3131815 4.24661577,14.1302938 5.38635149,12.7711138 C6.5259199,11.41212 8.1,9.35640206 8.1,9.35640206 L5.16968124,10.2529618 L4.24427339,10.8632705 C4.21716869,10.8850606 4.14338369,10.8986561 4.10289396,10.9316206 C3.8602902,11.0353563 3.58489311,10.866809 3.51846987,10.5753433 C3.42527657,10.3052952 3.57669478,9.99874406 3.83887415,9.924993 C3.88555446,9.93318756 3.91249184,9.91121123 3.95917215,9.91959203 L5.06511065,10.0611345 L5.16600035,10.0257489 L8.02638231,9.11671109 C8.02638231,9.11671109 3.27921238,6.78628909 1.8334613,7.26473983 C1.7598436,7.27852159 1.62565863,7.29472448 1.51489747,7.31539713 C0.422511307,7.66925326 -0.205246829,8.79879929 0.0609480526,9.87228706 C0.226922485,10.4749599 0.62897547,10.9325518 1.16153255,11.1463554 C0.762825819,11.6760221 0.582964413,12.3509562 0.74124245,13.00559 C1.01145284,14.0531904 2.09112322,14.6301621 3.16644346,14.3131815 Z" id="Stroke-15" stroke="#9EA0A5"></path>
                    <path d="M8.57367766,12.6544771 L8.13212356,13.7489753 C8.11153048,13.7945568 8.12142793,13.8289238 8.10099448,13.8745053 C8.08391339,14.1660821 8.28920571,14.4138861 8.53680167,14.3988732 C8.7939758,14.4182272 9.01267757,14.185617 8.99942776,13.9050738 C8.98458158,13.8535233 8.99527721,13.7735749 8.98537976,13.739027 L8.76077144,12.6047355 L8.89997432,9.16839825 L8.8172827,9 L8.68127255,9.18431559 L8.5743162,12.5399808 L8.57367766,12.6544771 Z" id="Fill-17" fill="#9EA0A5"></path>
                    <path d="M11.6840097,16.0343606 C11.6840097,16.0343606 11.855884,14.9446232 11.0726488,13.4673973 C10.2892515,11.9903406 9.05956398,9.9 9.05956398,9.9 L8.92462397,12.9691254 L9.15254786,14.0297715 C9.16259142,14.0620763 9.1517379,14.136834 9.16680323,14.1850375 C9.18024863,14.4473661 8.95831847,14.6648738 8.69734804,14.6467763 C8.44609718,14.6608145 8.23777441,14.4292686 8.25510764,14.1564537 C8.27584272,14.1140008 8.26579917,14.081696 8.28669624,14.0390739 L8.73476838,13.0156375 L8.73541635,12.9087441 L8.83925375,9.90355184 C8.83925375,9.90355184 5.49118616,13.8136169 5.45457578,15.3378623 C5.44388425,15.4124509 5.41715544,15.5460676 5.40111815,15.6582042 C5.36709966,16.8079845 6.11340058,17.7285868 7.08130767,17.7735768 C7.62932938,17.7833866 8.12810527,17.5251173 8.46440236,17.0731883 C8.78336623,17.6052873 9.28781187,17.9677438 9.87681776,17.9990338 C10.8241518,18.0331991 11.6245583,17.1570794 11.6840097,16.0343606 Z" id="Stroke-19" stroke="#9EA0A5"></path>
                </g>
            </g>
        </g>
    </g>
</svg>
