<svg width="956" height="584" viewBox="0 0 956 584" fill="none" xmlns="http://www.w3.org/2000/svg">
<g filter="url(#filter0_d)">
<rect x="3" y="2" width="950" height="578" rx="4" fill="#DDE2FF"/>
</g>
<mask id="mask0" mask-type="alpha" maskUnits="userSpaceOnUse" x="3" y="2" width="950" height="578">
<rect x="3" y="2" width="950" height="578" rx="4" fill="white"/>
</mask>
<g mask="url(#mask0)">
<path fill-rule="evenodd" clip-rule="evenodd" d="M689.649 183.762L688 222.939C687.985 223.412 694.078 229.258 696.203 231.023C708.697 241.427 779.338 258.36 766.835 247.959C751.175 234.939 751.175 220.048 766.835 214.725L903.451 168.245L916.149 178.8L921 151.444L919 149.792L870.284 140.668L882.986 151.224L746.369 197.699C730.716 203.033 705.319 196.793 689.649 183.762Z" fill="#C8D1FF"/>
<path fill-rule="evenodd" clip-rule="evenodd" d="M769.988 110.172C772.206 110.172 774 111.874 774 113.989C774 116.083 772.206 117.796 769.988 117.796C767.786 117.796 766 116.083 766 113.989C766 111.874 767.786 110.172 769.988 110.172Z" fill="white"/>
<path fill-rule="evenodd" clip-rule="evenodd" d="M755.012 95.8767C757.203 95.8767 759 97.5845 759 99.6844C759 101.793 757.203 103.501 755.012 103.501C752.785 103.501 751 101.793 751 99.6844C751 97.5845 752.785 95.8767 755.012 95.8767Z" fill="white"/>
<path fill-rule="evenodd" clip-rule="evenodd" d="M739 97.7827C741.203 97.7827 743 99.4934 743 101.589C743 103.702 741.203 105.407 739 105.407C736.785 105.407 735 103.702 735 101.589C735 99.4934 736.785 97.7827 739 97.7827Z" fill="white"/>
<path fill-rule="evenodd" clip-rule="evenodd" d="M716.99 90.1589C719.204 90.1589 721 91.8661 721 93.967C721 96.0757 719.204 97.7829 716.99 97.7829C714.784 97.7829 713 96.0757 713 93.967C713 91.8661 714.784 90.1589 716.99 90.1589Z" fill="white"/>
<path fill-rule="evenodd" clip-rule="evenodd" d="M861 153.515C861 149.05 857.181 145.415 852.486 145.433C847.785 145.415 843.989 149.05 844 153.528C844 158.016 847.808 161.65 852.497 161.634C857.181 161.65 861 158.016 861 153.515Z" fill="white"/>
<path fill-rule="evenodd" clip-rule="evenodd" d="M852 184.509C852 182.398 850.2 180.694 848.003 180.694C845.8 180.694 844.023 182.398 844 184.486C844.023 186.602 845.8 188.318 848.021 188.318C850.211 188.318 852 186.592 852 184.509Z" fill="white"/>
<path fill-rule="evenodd" clip-rule="evenodd" d="M868 198.804C867.989 196.693 866.218 194.989 864.003 194.989C861.789 194.989 860 196.715 860 198.82C859.988 200.909 861.8 202.613 864.003 202.613C866.218 202.613 868 200.909 868 198.804Z" fill="white"/>
<path fill-rule="evenodd" clip-rule="evenodd" d="M865 213.093C864.976 210.988 863.2 209.307 860.986 209.284C858.771 209.284 857 211.004 857 213.093C857 215.203 858.782 216.908 860.986 216.908C863.2 216.908 865 215.203 865 213.093Z" fill="white"/>
<path fill-rule="evenodd" clip-rule="evenodd" d="M874 233.12C874 231.014 872.2 229.313 869.997 229.297C867.8 229.313 866.023 231.014 866 233.12C866 235.204 867.8 236.921 869.997 236.921C872.2 236.921 874 235.22 874 233.12Z" fill="white"/>
<path fill-rule="evenodd" clip-rule="evenodd" d="M873 181.636C872.977 179.524 871.2 177.835 868.986 177.835C866.771 177.824 865 179.557 865 181.658C864.976 183.747 866.783 185.459 868.986 185.459C871.2 185.447 873 183.747 873 181.636Z" fill="white"/>
<path fill-rule="evenodd" clip-rule="evenodd" d="M870 139.705C869.989 137.594 868.206 135.903 866.003 135.903C863.777 135.889 862 137.627 862 139.722C861.989 141.822 863.795 143.527 866.003 143.527C868.206 143.51 870 141.822 870 139.705Z" fill="white"/>
<path fill-rule="evenodd" clip-rule="evenodd" d="M886 258.344C886 253.865 882.19 250.241 877.491 250.263C872.776 250.241 868.977 253.865 869 258.366C869 262.861 872.811 266.486 877.503 266.464C882.19 266.486 886 262.861 886 258.344Z" fill="white"/>
<path fill-rule="evenodd" clip-rule="evenodd" d="M879 217.88C878.977 215.753 877.206 214.071 874.991 214.049C872.777 214.049 871 215.775 871 217.863C871 219.968 872.788 221.673 874.991 221.673C877.206 221.673 879 219.968 879 217.88Z" fill="white"/>
<path fill-rule="evenodd" clip-rule="evenodd" d="M755 115.885C754.977 113.774 753.203 112.078 750.989 112.078C748.774 112.067 747 113.802 747 115.9C746.976 117.994 748.785 119.702 750.989 119.702C753.203 119.69 755 117.994 755 115.885Z" fill="white"/>
<path fill-rule="evenodd" clip-rule="evenodd" d="M673.506 78.7229C678.194 78.7229 682 82.3352 682 86.8133C682 91.2887 678.194 94.9239 673.506 94.9239C668.817 94.9239 665 91.2887 665 86.8133C665 82.3352 668.817 78.7229 673.506 78.7229Z" fill="white"/>
<path fill-rule="evenodd" clip-rule="evenodd" d="M789.003 84.4409C791.206 84.4409 793 86.1465 793 88.2472C793 90.3594 791.206 92.0649 789.003 92.0649C786.788 92.0649 785 90.3594 785 88.2472C785 86.1465 786.788 84.4409 789.003 84.4409Z" fill="white"/>
<path fill-rule="evenodd" clip-rule="evenodd" d="M819.015 84.4409C821.206 84.4409 823 86.1522 823 88.2472C823 90.3594 821.206 92.0649 819.015 92.0649C816.788 92.0649 815 90.3594 815 88.2472C815 86.1522 816.788 84.4409 819.015 84.4409Z" fill="white"/>
<path fill-rule="evenodd" clip-rule="evenodd" d="M796.003 108.266C798.206 108.266 800 109.979 800 112.074C800 114.182 798.206 115.89 796.003 115.89C793.788 115.89 792 114.182 792 112.074C792 109.979 793.788 108.266 796.003 108.266Z" fill="white"/>
<path fill-rule="evenodd" clip-rule="evenodd" d="M800.009 95.8767C802.212 95.8767 804 97.5874 804 99.6826C804 101.795 802.212 103.501 800.009 103.501C797.783 103.501 796 101.795 796 99.6826C796 97.5874 797.783 95.8767 800.009 95.8767Z" fill="white"/>
<path fill-rule="evenodd" clip-rule="evenodd" d="M776.014 98.7358C778.206 98.7358 780 100.447 780 102.544C780 104.648 778.206 106.36 776.014 106.36C773.788 106.36 772 104.648 772 102.544C772 100.447 773.788 98.7358 776.014 98.7358Z" fill="white"/>
<path fill-rule="evenodd" clip-rule="evenodd" d="M459 17.731C473.467 20.9232 484.236 33.1135 484.236 47.6795C484.236 49.9963 483.962 52.2441 483.454 54.4077C484.47 54.3165 485.52 54.2646 486.568 54.2646C504.679 54.2646 519.348 68.0368 519.348 85.0418C519.348 86.8617 519.188 88.6442 518.862 90.3704C521.56 88.8151 524.744 87.9124 528.156 87.9124C533.947 87.8973 539.091 90.4888 542.358 94.4919C544.669 93.4708 547.254 92.8821 549.973 92.8821C559.828 92.8676 567.82 100.372 567.838 109.622C567.838 112.614 567.004 115.416 565.559 117.839C566.506 117.718 567.444 117.666 568.42 117.666C570.16 117.666 571.84 117.839 573.469 118.168C580.442 114.207 588.608 111.937 597.352 111.922C616.492 111.907 632.933 122.814 639.998 138.362C647.358 135.481 655.423 133.887 663.881 133.872C680.926 133.857 696.359 140.266 707.599 150.673C724.456 162.715 748.597 161.506 763.975 147.056L863.188 54.6699L849.573 41.8959L901.788 37.0174L903.931 39.0107L898.724 88.0411L885.126 75.2671L785.908 167.668C769.129 183.419 769.129 208.986 785.908 224.737C786.771 225.558 787.25 226.325 787.424 227.051C795.473 236.873 800.28 249.187 800.291 262.564C800.312 268.28 799.438 273.824 797.816 279.022C819.796 282.063 836.685 299.822 836.716 321.31C836.727 334.212 830.657 345.774 821.039 353.612H822.17C843.587 353.593 860.955 369.863 860.976 389.97C860.976 393.372 860.476 396.701 859.544 399.831L861.129 399.797C871.626 399.797 880.971 404.421 886.957 411.626C889.026 410.844 891.296 410.404 893.664 410.404C903.52 410.384 911.533 417.876 911.543 427.13C911.543 429.558 910.985 431.892 909.995 433.974C916.329 435.695 921.867 439.136 926 443.721H459V17.731Z" fill="white"/>
<path fill-rule="evenodd" clip-rule="evenodd" d="M877 466.593C899.644 466.593 918 449.313 918 427.997C918 406.681 899.644 389.4 877 389.4C854.356 389.4 836 406.681 836 427.997C836 449.313 854.356 466.593 877 466.593Z" fill="white"/>
<path fill-rule="evenodd" clip-rule="evenodd" d="M929.5 482.794C945.792 482.794 959 470.421 959 455.157C959 439.894 945.792 427.52 929.5 427.52C913.208 427.52 900 439.894 900 455.157C900 470.421 913.208 482.794 929.5 482.794Z" fill="white"/>
<path fill-rule="evenodd" clip-rule="evenodd" d="M417 53.9449C433.569 53.9449 447 41.3581 447 25.8315C447 10.3048 433.569 -2.28198 417 -2.28198C400.431 -2.28198 387 10.3048 387 25.8315C387 41.3581 400.431 53.9449 417 53.9449Z" fill="white"/>
<path fill-rule="evenodd" clip-rule="evenodd" d="M439 66.3338C455.569 66.3338 469 53.747 469 38.2204C469 22.6938 455.569 10.1069 439 10.1069C422.431 10.1069 409 22.6938 409 38.2204C409 53.747 422.431 66.3338 439 66.3338Z" fill="white"/>
<rect x="-151" y="-8" width="553" height="588" rx="4" fill="white"/>
<rect x="348" y="29.167" width="122" height="550.833" fill="white"/>
<rect x="362" y="79.6759" width="105" height="500.324" fill="white"/>
<rect x="350" y="519.008" width="622" height="60.9919" fill="white"/>
<rect x="267" y="439.909" width="686" height="134.373" fill="white"/>
</g>
<defs>
<filter id="filter0_d" x="0" y="0" width="956" height="584" filterUnits="userSpaceOnUse" color-interpolation-filters="sRGB">
<feFlood flood-opacity="0" result="BackgroundImageFix"/>
<feColorMatrix in="SourceAlpha" type="matrix" values="0 0 0 0 0 0 0 0 0 0 0 0 0 0 0 0 0 0 127 0"/>
<feOffset dy="1"/>
<feGaussianBlur stdDeviation="1.5"/>
<feColorMatrix type="matrix" values="0 0 0 0 0 0 0 0 0 0 0 0 0 0 0 0 0 0 0.04 0"/>
<feBlend mode="normal" in2="BackgroundImageFix" result="effect1_dropShadow"/>
<feBlend mode="normal" in="SourceGraphic" in2="effect1_dropShadow" result="shape"/>
</filter>
</defs>
</svg>
