<svg xmlns="http://www.w3.org/2000/svg" width="20.244" height="20.244" viewBox="0 0 20.244 20.244">
  <g id="link" transform="translate(0.994 1)">
    <g id="Group_2014" data-name="Group 2014" transform="translate(-0.993 -1)">
      <g id="Group_2013" data-name="Group 2013" transform="translate(0 0)">
        <path id="Path_4938" data-name="Path 4938" d="M7.4,185.379l-2.385,2.385a2.53,2.53,0,1,1-3.579-3.578l4.772-4.772a2.53,2.53,0,0,1,3.578,0,.844.844,0,0,0,1.193-1.193,4.217,4.217,0,0,0-5.964,0L.242,182.994a4.217,4.217,0,1,0,5.965,5.964l2.385-2.385A.844.844,0,1,0,7.4,185.379Z" transform="translate(0.993 -169.949)"/>
        <path id="Path_4939" data-name="Path 4939" d="M201.4.235a4.218,4.218,0,0,0-5.965,0L192.568,3.1a.844.844,0,0,0,1.193,1.193l2.862-2.862A2.53,2.53,0,0,1,200.2,5.006l-5.248,5.248a2.53,2.53,0,0,1-3.578,0,.844.844,0,1,0-1.193,1.193,4.217,4.217,0,0,0,5.964,0L201.4,6.2A4.217,4.217,0,0,0,201.4.235Z" transform="translate(-182.386 1)"/>
      </g>
    </g>
  </g>
</svg>
