<svg xmlns="http://www.w3.org/2000/svg" width="17.511" height="16.19" viewBox="0 0 17.511 16.19">
  <g id="sync" transform="translate(0 -19.307)">
    <g id="Group_2018" data-name="Group 2018" transform="translate(0 20.832)">
      <g id="Group_2017" data-name="Group 2017">
        <path id="Path_4948" data-name="Path 4948" d="M8.983,75.5a.74.74,0,0,0-.155-.155l-2.554-1.89a.73.73,0,0,0-1.167.584V75.32H2.918a1.459,1.459,0,0,1-1.459-1.459V66.812a1.459,1.459,0,0,1,1.459-1.459H5.837a.73.73,0,1,0,0-1.459H2.918A2.919,2.919,0,0,0,0,66.812v7.055a2.919,2.919,0,0,0,2.918,2.918H5.107V77.83a.73.73,0,0,0,1.167.584l2.554-1.9A.73.73,0,0,0,8.983,75.5Z" transform="translate(0 -63.894)"/>
      </g>
    </g>
    <g id="Group_2020" data-name="Group 2020" transform="translate(8.386 19.307)">
      <g id="Group_2019" data-name="Group 2019" transform="translate(0 0)">
        <path id="Path_4949" data-name="Path 4949" d="M251.4,21.08h-2.189V20.037a.73.73,0,0,0-1.167-.584l-2.554,1.9a.73.73,0,0,0-.155,1.02.74.74,0,0,0,.155.155l2.554,1.9a.73.73,0,0,0,1.167-.584v-1.3H251.4A1.459,1.459,0,0,1,252.854,24v7.055a1.459,1.459,0,0,1-1.459,1.459h-2.918a.73.73,0,1,0,0,1.459H251.4a2.919,2.919,0,0,0,2.918-2.918V24A2.919,2.919,0,0,0,251.4,21.08Z" transform="translate(-245.188 -19.307)"/>
      </g>
    </g>
    <g id="Group_2022" data-name="Group 2022" transform="translate(7.938 26.22)">
      <g id="Group_2021" data-name="Group 2021" transform="translate(0 0)">
        <circle id="Ellipse_200" data-name="Ellipse 200" cx="1.182" cy="1.182" r="1.182"/>
      </g>
    </g>
  </g>
</svg>
