<svg xmlns="http://www.w3.org/2000/svg" width="20.244" height="20.244" viewBox="0 0 20.244 20.244">
  <g id="broken-link" transform="translate(0.997 1)">
    <g id="Group_2016" data-name="Group 2016" transform="translate(-0.997 -1)">
      <g id="Group_2015" data-name="Group 2015">
        <path id="Path_4940" data-name="Path 4940" d="M7.4,185.387l-2.385,2.385a2.53,2.53,0,0,1-3.579-3.578l4.772-4.772a2.53,2.53,0,0,1,3.578,0,.844.844,0,0,0,1.193-1.193,4.217,4.217,0,0,0-5.964,0L.247,183a4.217,4.217,0,0,0,5.965,5.964L8.6,186.58A.844.844,0,1,0,7.4,185.387Z" transform="translate(0.989 -169.957)"/>
        <path id="Path_4941" data-name="Path 4941" d="M201.4,6.208A4.217,4.217,0,0,0,195.435.244l-2.862,2.862A.844.844,0,1,0,193.766,4.3l2.862-2.862a2.53,2.53,0,1,1,3.579,3.578l-5.248,5.248a2.53,2.53,0,0,1-3.578,0,.844.844,0,0,0-1.193,1.193,4.217,4.217,0,0,0,5.964,0Z" transform="translate(-182.391 0.992)"/>
        <path id="Path_4942" data-name="Path 4942" d="M363.121,361.925a.844.844,0,0,0-1.193,1.193l2.53,2.53a.844.844,0,0,0,1.193-1.193Z" transform="translate(-347.341 -347.338)"/>
        <path id="Path_4943" data-name="Path 4943" d="M44.434,45.624a.844.844,0,0,0,1.193-1.193L43.095,41.9A.844.844,0,1,0,41.9,43.092Z" transform="translate(-39.968 -39.965)"/>
        <path id="Path_4944" data-name="Path 4944" d="M407.711,319H405.18a.843.843,0,0,0,0,1.687h2.531a.843.843,0,1,0,0-1.687Z" transform="translate(-388.31 -306.347)"/>
        <path id="Path_4945" data-name="Path 4945" d="M149.18,3.218a.843.843,0,0,0,.843-.843V-.156A.843.843,0,0,0,149.18-1a.843.843,0,0,0-.843.843V2.374A.843.843,0,0,0,149.18,3.218Z" transform="translate(-142.432 1)"/>
        <path id="Path_4946" data-name="Path 4946" d="M-.154,150.021H2.377a.843.843,0,0,0,0-1.687H-.154a.843.843,0,0,0-.843.843A.843.843,0,0,0-.154,150.021Z" transform="translate(0.997 -142.429)"/>
        <path id="Path_4947" data-name="Path 4947" d="M319.846,404.333a.843.843,0,0,0-.843.843v2.531a.843.843,0,0,0,1.687,0v-2.531A.843.843,0,0,0,319.846,404.333Z" transform="translate(-306.35 -388.306)"/>
      </g>
    </g>
  </g>
</svg>
