<svg width="18" height="26" viewBox="0 0 18 26" fill="none" xmlns="http://www.w3.org/2000/svg">
<path d="M7.33335 2C3.28982 2 0 5.28982 0 9.33335C0 10.5472 0.303488 11.7508 0.88043 12.8183L6.93232 23.7637C7.01289 23.9096 7.16641 24 7.33335 24C7.50028 24 7.65381 23.9096 7.73438 23.7637L13.7885 12.8147C14.3632 11.7508 14.6667 10.5472 14.6667 9.3333C14.6667 5.28982 11.3769 2 7.33335 2ZM7.33335 13C5.31158 13 3.6667 11.3551 3.6667 9.33335C3.6667 7.31158 5.31158 5.6667 7.33335 5.6667C9.35511 5.6667 11 7.31158 11 9.33335C11 11.3551 9.35511 13 7.33335 13Z" fill="#979797"/>
</svg>
