<?xml version="1.0" encoding="UTF-8"?>
<svg width="484px" height="391px" viewBox="0 0 484 391" version="1.1" xmlns="http://www.w3.org/2000/svg" xmlns:xlink="http://www.w3.org/1999/xlink">
    <!-- Generator: sketchtool 53.2 (72643) - https://sketchapp.com -->
    <title>AD4862CC-9866-40A6-87D7-A34206736373</title>
    <desc>Created with sketchtool.</desc>
    <defs>
        <polygon id="path-1" points="0.4993 0.3754 169.313 0.3754 169.313 12.9834 0.4993 12.9834"></polygon>
        <polygon id="path-3" points="0 0.052 26.6398 0.052 26.6398 25.127 0 25.127"></polygon>
        <polygon id="path-5" points="0 391 483.313 391 483.313 0.812 0 0.812"></polygon>
    </defs>
    <g id="AutomaticAds" stroke="none" stroke-width="1" fill="none" fill-rule="evenodd" opacity="0.6">
        <g id="AutomaticAds-1" transform="translate(-732.000000, -210.000000)">
            <g id="illustration-automaticads" transform="translate(732.000000, 209.000000)">
                <path d="M10.9998,368.0031 C10.9998,375.1781 99.8698,381.0001 209.5078,381.0001 C319.1298,381.0001 407.9998,375.1781 407.9998,368.0031 C407.9998,360.8241 319.1298,355.0001 209.5078,355.0001 C99.8698,355.0001 10.9998,360.8241 10.9998,368.0031" id="Fill-1" fill="#D6DCFF"></path>
                <path d="M132.3997,383.467 C132.3997,387.731 109.7927,391.188 81.9057,391.188 C54.0197,391.188 31.4127,387.731 31.4127,383.467 C31.4127,379.203 54.0197,375.748 81.9057,375.748 C109.7927,375.748 132.3997,379.203 132.3997,383.467" id="Fill-3" fill="#D6DCFF"></path>
                <g id="Group-7" transform="translate(314.000000, 378.188000)">
                    <mask id="mask-2" fill="white">
                        <use xlink:href="#path-1"></use>
                    </mask>
                    <g id="Clip-6"></g>
                    <path d="M169.3133,6.6784 C169.3133,10.1594 131.5233,12.9834 84.9063,12.9834 C38.2893,12.9834 0.4993,10.1594 0.4993,6.6784 C0.4993,3.1974 38.2893,0.3754 84.9063,0.3754 C131.5233,0.3754 169.3133,3.1974 169.3133,6.6784" id="Fill-5" fill="#D6DCFF" mask="url(#mask-2)"></path>
                </g>
                <polygon id="Fill-8" fill="#3F51B5" points="166 355 254 355 254 331 166 331"></polygon>
                <path d="M346.5115,340.0002 L74.4905,340.0002 C65.3845,340.0002 57.9995,332.6342 57.9995,323.5432 L57.9995,137.4572 C57.9995,128.3692 65.3845,121.0002 74.4905,121.0002 L346.5115,121.0002 C355.6165,121.0002 362.9995,128.3692 362.9995,137.4572 L362.9995,323.5432 C362.9995,332.6342 355.6165,340.0002 346.5115,340.0002" id="Fill-10" fill="#3F51B5"></path>
                <path d="M343.869,318.0002 L77.13,318.0002 C71.535,318.0002 67,313.4742 67,307.8882 L67,138.1122 C67,132.5262 71.535,128.0002 77.13,128.0002 L343.869,128.0002 C349.465,128.0002 354,132.5262 354,138.1122 L354,307.8882 C354,313.4742 349.465,318.0002 343.869,318.0002" id="Fill-12" fill="#F6F9FD"></path>
                <path d="M290.9998,368.0002 L127.9998,368.0002 L127.9998,365.9292 C127.9998,358.7872 133.7358,353.0002 140.8128,353.0002 L278.1868,353.0002 C285.2638,353.0002 290.9998,358.7872 290.9998,365.9292 L290.9998,368.0002 Z" id="Fill-14" fill="#3F51B5"></path>
                <path d="M327.1922,276.0002 L143.8072,276.0002 C138.9422,276.0002 135.0002,272.0602 135.0002,267.1992 L135.0002,149.7992 C135.0002,144.9402 138.9422,141.0002 143.8072,141.0002 L327.1922,141.0002 C332.0562,141.0002 336.0002,144.9402 336.0002,149.7992 L336.0002,267.1992 C336.0002,272.0602 332.0562,276.0002 327.1922,276.0002" id="Fill-16" fill="#FFFFFF"></path>
                <g id="Group-57" transform="translate(134.000000, 140.188000)">
                    <polygon id="Fill-18" fill="#FCA70C" points="19.978 120.604 28.726 120.604 28.726 98.693 19.978 98.693"></polygon>
                    <polygon id="Fill-20" fill="#B1AFFD" points="39.692 120.602 48.44 120.602 48.44 79.457 39.692 79.457"></polygon>
                    <polygon id="Fill-21" fill="#FCA70C" points="59.406 120.604 68.153 120.604 68.153 83.712 59.406 83.712"></polygon>
                    <polygon id="Fill-22" fill="#B1AFFD" points="79.119 120.602 87.867 120.602 87.867 62.883 79.119 62.883"></polygon>
                    <polygon id="Fill-23" fill="#000000" points="39.692 120.604 43.708 120.604 43.708 79.459 39.692 79.459"></polygon>
                    <polygon id="Fill-24" fill="#000000" points="19.978 120.604 23.994 120.604 23.994 98.693 19.978 98.693"></polygon>
                    <polygon id="Fill-25" fill="#000000" points="79.119 120.604 83.134 120.604 83.134 62.885 79.119 62.885"></polygon>
                    <polygon id="Fill-26" fill="#000000" points="59.406 120.604 63.421 120.604 63.421 83.712 59.406 83.712"></polygon>
                    <polygon id="Fill-27" fill="#D5DBDA" points="92.4959 126.6345 14.2009 126.6345 14.2009 43.4635 15.3949 43.4635 15.3949 125.4435 92.4959 125.4435"></polygon>
                    <polygon id="Fill-28" fill="#D5DBDA" points="22.243 88.4323 21.445 87.5453 41.927 69.1973 60.897 73.3093 81.439 50.4953 82.328 51.2913 61.322 74.6193 42.269 70.4923"></polygon>
                    <polygon id="Fill-29" fill="#D5DBDA" points="83.9383 54.6618 78.1453 49.1208 85.6233 47.1228"></polygon>
                    <polygon id="Fill-30" fill="#B1AFFD" points="99.911 103.133 105.918 103.133 105.918 97.138 99.911 97.138"></polygon>
                    <polygon id="Fill-31" fill="#FCA70C" points="99.911 113.633 105.918 113.633 105.918 107.64 99.911 107.64"></polygon>
                    <polygon id="Fill-32" fill="#EFEFEF" points="107.575 113.633 126.619 113.633 126.619 110.228 107.575 110.228"></polygon>
                    <polygon id="Fill-33" fill="#EFEFEF" points="107.575 103.133 126.619 103.133 126.619 99.726 107.575 99.726"></polygon>
                    <polygon id="Fill-34" fill="#B1AFFD" points="135.243 103.133 141.251 103.133 141.251 97.138 135.243 97.138"></polygon>
                    <polygon id="Fill-35" fill="#FCA70C" points="135.243 113.633 141.251 113.633 141.251 107.64 135.243 107.64"></polygon>
                    <polygon id="Fill-36" fill="#EFEFEF" points="142.905 113.633 161.949 113.633 161.949 110.228 142.905 110.228"></polygon>
                    <polygon id="Fill-37" fill="#EFEFEF" points="142.905 103.133 161.949 103.133 161.949 99.726 142.905 99.726"></polygon>
                    <polygon id="Fill-38" fill="#B1AFFD" points="167.059 103.133 173.066 103.133 173.066 97.138 167.059 97.138"></polygon>
                    <polygon id="Fill-39" fill="#FCA70C" points="167.059 113.633 173.066 113.633 173.066 107.64 167.059 107.64"></polygon>
                    <polygon id="Fill-40" fill="#EFEFEF" points="174.721 113.633 187.253 113.633 187.253 110.228 174.721 110.228"></polygon>
                    <polygon id="Fill-41" fill="#EFEFEF" points="174.721 103.133 187.253 103.133 187.253 99.726 174.721 99.726"></polygon>
                    <polygon id="Fill-42" fill="#EFEFEF" points="101.035 41.437 187.254 41.437 187.254 39.872 101.035 39.872"></polygon>
                    <polygon id="Fill-43" fill="#EFEFEF" points="14.2 24.259 187.254 24.259 187.254 20.679 14.2 20.679"></polygon>
                    <polygon id="Fill-44" fill="#EFEFEF" points="100.777 46.301 187.254 46.301 187.254 44.736 100.777 44.736"></polygon>
                    <polygon id="Fill-45" fill="#EFEFEF" points="100.777 36.574 187.254 36.574 187.254 35.009 100.777 35.009"></polygon>
                    <polygon id="Fill-46" fill="#EFEFEF" points="100.777 51.164 187.254 51.164 187.254 49.599 100.777 49.599"></polygon>
                    <polygon id="Fill-47" fill="#EFEFEF" points="100.777 56.025 187.254 56.025 187.254 54.462 100.777 54.462"></polygon>
                    <polygon id="Fill-48" fill="#EFEFEF" points="100.777 60.889 187.254 60.889 187.254 59.325 100.777 59.325"></polygon>
                    <polygon id="Fill-49" fill="#EFEFEF" points="100.777 65.753 187.254 65.753 187.254 64.188 100.777 64.188"></polygon>
                    <polygon id="Fill-50" fill="#EFEFEF" points="100.777 70.617 187.254 70.617 187.254 69.053 100.777 69.053"></polygon>
                    <polygon id="Fill-51" fill="#EFEFEF" points="100.777 75.48 187.254 75.48 187.254 73.915 100.777 73.915"></polygon>
                    <polygon id="Fill-52" fill="#EFEFEF" points="111.363 80.342 187.254 80.342 187.254 78.778 111.363 78.778"></polygon>
                    <path d="M192.9276,0.3141 L9.6926,0.3141 C4.8316,0.3141 0.8916,4.2441 0.8916,9.0931 L0.8916,16.7771 L201.7276,16.7771 L201.7276,9.0931 C201.7276,4.2441 197.7876,0.3141 192.9276,0.3141" id="Fill-53" fill="#B0BCFF"></path>
                    <path d="M175.8953,8.8464 C175.8953,10.2444 174.7603,11.3784 173.3593,11.3784 C171.9573,11.3784 170.8213,10.2444 170.8213,8.8464 C170.8213,7.4484 171.9573,6.3164 173.3593,6.3164 C174.7603,6.3164 175.8953,7.4484 175.8953,8.8464" id="Fill-54" fill="#CFCFFF"></path>
                    <path d="M186.2371,8.8464 C186.2371,10.2444 185.1021,11.3784 183.7011,11.3784 C182.2991,11.3784 181.1631,10.2444 181.1631,8.8464 C181.1631,7.4484 182.2991,6.3164 183.7011,6.3164 C185.1021,6.3164 186.2371,7.4484 186.2371,8.8464" id="Fill-55" fill="#CFCFFF"></path>
                    <path d="M196.5789,8.8464 C196.5789,10.2444 195.4449,11.3784 194.0429,11.3784 C192.6409,11.3784 191.5049,10.2444 191.5049,8.8464 C191.5049,7.4484 192.6409,6.3164 194.0429,6.3164 C195.4449,6.3164 196.5789,7.4484 196.5789,8.8464" id="Fill-56" fill="#CFCFFF"></path>
                </g>
                <path d="M273.1922,306.0002 L89.8072,306.0002 C84.9432,306.0002 81.0002,302.0602 81.0002,297.1992 L81.0002,179.7992 C81.0002,174.9402 84.9432,171.0002 89.8072,171.0002 L273.1922,171.0002 C278.0562,171.0002 282.0002,174.9402 282.0002,179.7992 L282.0002,297.1992 C282.0002,302.0602 278.0562,306.0002 273.1922,306.0002" id="Fill-58" fill="#CAD2FB"></path>
                <path d="M278.1922,300.0002 L94.8072,300.0002 C89.9432,300.0002 86.0002,296.0602 86.0002,291.1992 L86.0002,173.8002 C86.0002,168.9402 89.9432,165.0002 94.8072,165.0002 L278.1922,165.0002 C283.0562,165.0002 287.0002,168.9402 287.0002,173.8002 L287.0002,291.1992 C287.0002,296.0602 283.0562,300.0002 278.1922,300.0002" id="Fill-60" fill="#FFFFFF"></path>
                <polygon id="Fill-62" fill="#B1AFFD" points="184 269 190 269 190 263 184 263"></polygon>
                <polygon id="Fill-64" fill="#FCA70C" points="184 279 190 279 190 273 184 273"></polygon>
                <polygon id="Fill-66" fill="#EFEFEF" points="192 279 211 279 211 275 192 275"></polygon>
                <polygon id="Fill-68" fill="#EFEFEF" points="192 269 211 269 211 265 192 265"></polygon>
                <polygon id="Fill-70" fill="#B1AFFD" points="220 269 226 269 226 263 220 263"></polygon>
                <polygon id="Fill-72" fill="#FCA70C" points="220 279 226 279 226 273 220 273"></polygon>
                <polygon id="Fill-74" fill="#EFEFEF" points="227 279 246 279 246 275 227 275"></polygon>
                <polygon id="Fill-76" fill="#EFEFEF" points="227 269 246 269 246 265 227 265"></polygon>
                <polygon id="Fill-78" fill="#B1AFFD" points="251 269 257 269 257 263 251 263"></polygon>
                <polygon id="Fill-80" fill="#FCA70C" points="251 279 257 279 257 273 251 273"></polygon>
                <polygon id="Fill-82" fill="#EFEFEF" points="259 279 272 279 272 275 259 275"></polygon>
                <polygon id="Fill-84" fill="#EFEFEF" points="259 269 272 269 272 265 259 265"></polygon>
                <polygon id="Fill-86" fill="#EFEFEF" points="186 206.893 272 206.893 272 205.108 186 205.108"></polygon>
                <polygon id="Fill-88" fill="#EFEFEF" points="98 190 271 190 271 186 98 186"></polygon>
                <polygon id="Fill-90" fill="#EFEFEF" points="186 211.893 272 211.893 272 210.108 186 210.108"></polygon>
                <polygon id="Fill-92" fill="#EFEFEF" points="186 201.893 272 201.893 272 200.108 186 200.108"></polygon>
                <polygon id="Fill-94" fill="#EFEFEF" points="186 216.893 272 216.893 272 215.108 186 215.108"></polygon>
                <polygon id="Fill-96" fill="#EFEFEF" points="186 220.893 272 220.893 272 219.108 186 219.108"></polygon>
                <polygon id="Fill-98" fill="#EFEFEF" points="186 226.893 272 226.893 272 225.108 186 225.108"></polygon>
                <polygon id="Fill-100" fill="#EFEFEF" points="186 230.892 272 230.892 272 229.109 186 229.109"></polygon>
                <polygon id="Fill-102" fill="#EFEFEF" points="186 235.892 272 235.892 272 234.109 186 234.109"></polygon>
                <polygon id="Fill-104" fill="#EFEFEF" points="186 241.893 272 241.893 272 240.108 186 240.108"></polygon>
                <polygon id="Fill-106" fill="#EFEFEF" points="196 245.893 272 245.893 272 244.108 196 244.108"></polygon>
                <path d="M278.1922,165.0002 L94.8072,165.0002 C89.9432,165.0002 86.0002,169.0592 86.0002,174.0672 L86.0002,182.0002 L287.0002,182.0002 L287.0002,174.0672 C287.0002,169.0592 283.0562,165.0002 278.1922,165.0002" id="Fill-108" fill="#B0BCFF"></path>
                <path d="M260.9998,174.0012 C260.9998,175.6582 259.6558,177.0002 257.9988,177.0002 C256.3418,177.0002 254.9998,175.6582 254.9998,174.0012 C254.9998,172.3442 256.3418,171.0002 257.9988,171.0002 C259.6558,171.0002 260.9998,172.3442 260.9998,174.0012" id="Fill-110" fill="#CFCFFF"></path>
                <path d="M271.9998,174.0012 C271.9998,175.6582 270.6558,177.0002 268.9988,177.0002 C267.3418,177.0002 265.9998,175.6582 265.9998,174.0012 C265.9998,172.3442 267.3418,171.0002 268.9988,171.0002 C270.6558,171.0002 271.9998,172.3442 271.9998,174.0012" id="Fill-112" fill="#CFCFFF"></path>
                <path d="M281.9998,174.0012 C281.9998,175.6582 280.6558,177.0002 278.9988,177.0002 C277.3418,177.0002 275.9998,175.6582 275.9998,174.0012 C275.9998,172.3442 277.3418,171.0002 278.9988,171.0002 C280.6558,171.0002 281.9998,172.3442 281.9998,174.0012" id="Fill-114" fill="#CFCFFF"></path>
                <path d="M344.6746,120.0002 L298.2346,120.0002 C298.5516,135.1932 298.8136,150.3832 299.0006,165.5782 C299.0296,167.9012 299.0006,170.3002 298.1626,172.4472 C298.1256,172.4452 298.0896,172.4442 298.0896,172.4442 C297.4756,172.4092 297.7476,172.6032 297.5346,173.7142 C297.5326,173.7312 297.5246,173.7512 297.5216,173.7672 C295.6446,176.8582 291.9796,178.5502 288.4116,179.3462 C288.3766,179.5372 288.4096,179.7002 288.4666,179.8502 C288.0526,180.2232 287.8626,180.6852 288.1096,181.2662 C288.3246,181.7712 290.9936,182.4592 294.6206,182.0652 C295.6556,181.9522 297.6956,181.3812 298.6416,180.9402 C299.2096,180.6762 299.7216,180.2812 300.1226,179.9222 C300.5946,179.8662 301.0596,179.7682 301.4826,179.5932 L301.6296,179.7332 L305.7836,177.9062 C305.7836,177.9062 305.3306,175.2632 304.9706,173.8842 C304.9036,173.6202 304.8036,173.4152 304.6956,173.2382 C308.1576,163.7222 310.9196,153.9482 312.8506,144.0022 C312.0936,156.3432 307.6996,181.4112 307.3746,182.2722 C306.8226,183.7292 304.9186,185.7752 302.0926,186.0132 C301.1086,186.0952 296.2706,185.8132 296.7936,188.0562 C296.9166,188.5952 299.4286,189.7402 303.0686,189.9862 C304.1086,190.0562 306.2156,189.8502 307.2216,189.5822 C308.5796,189.2202 309.8116,188.1582 309.8116,188.1582 L310.3716,188.9142 L314.7776,187.8412 C314.7776,187.8412 314.7706,186.6852 314.7436,185.2922 C314.7166,183.8992 313.7986,182.5832 313.7986,182.5832 L313.8596,180.0532 L316.3016,179.7632 C316.3016,179.7632 321.2066,163.7602 323.5356,158.3152 C324.4966,156.0742 325.5626,153.8602 326.1726,151.4962 C326.8906,148.7212 326.9586,145.8262 327.1836,142.9652 C327.5966,137.7502 328.5486,132.5792 330.0216,127.5622 C330.1146,127.2422 330.2176,126.9112 330.4376,126.6652 C330.8236,126.2272 331.4626,126.1522 332.0416,126.0982 C338.2856,125.5212 341.1466,126.5932 345.0526,125.3702 C350.2016,123.7582 350.7476,121.4012 350.9996,121.2882 C349.0556,120.4602 346.9186,120.0002 344.6746,120.0002" id="Fill-116" fill="#5851BC"></path>
                <polygon id="Fill-118" fill="#556CE7" points="83.2078 312.1086 76.9998 375.9866 137.9998 376.0006 132.0998 312.0006"></polygon>
                <path d="M93.9998,318.0061 L93.9998,318.0061 C93.9978,316.9051 95.1168,316.0041 96.4938,316.0001 L96.4978,316.0001 C97.8748,316.0001 98.9978,316.8951 98.9998,317.9961 C99.0018,319.0991 97.8848,319.9961 96.5058,320.0001 L96.5018,320.0001 C95.1248,320.0001 94.0038,319.1061 93.9998,318.0061 L93.9998,318.0061 Z M96.4958,316.7641 C95.5628,316.7681 94.8058,317.3231 94.8058,318.0041 C94.8098,318.6841 95.5688,319.2381 96.4998,319.2381 L96.5038,319.2381 C97.4368,319.2351 98.1958,318.6781 98.1958,317.9981 C98.1918,317.3171 97.4328,316.7641 96.4998,316.7641 L96.4958,316.7641 Z" id="Fill-120" fill="#5851BC"></path>
                <path d="M116.9998,318.007 L117.4018,318.005 L116.9998,318.007 C116.9978,317.531 117.2058,317.072 117.5828,316.71 C118.0558,316.261 118.7518,316 119.4908,316 L119.5008,316 C120.8758,316 121.9958,316.891 121.9998,317.993 C122.0018,318.545 121.7318,319.057 121.2418,319.436 C120.7758,319.8 120.1608,319.998 119.5048,320 L119.5008,320 C118.1248,320 117.0018,319.107 116.9998,318.007 L116.9998,318.007 Z M119.4928,316.763 C118.9678,316.765 118.4788,316.942 118.1558,317.251 C117.9968,317.403 117.8038,317.657 117.8058,318.003 C117.8098,318.686 118.5678,319.237 119.5008,319.237 L119.5028,319.237 C119.9718,319.236 120.4068,319.097 120.7318,318.848 C121.0278,318.614 121.1938,318.315 121.1938,317.997 C121.1898,317.317 120.4318,316.763 119.5008,316.763 L119.4928,316.763 Z" id="Fill-122" fill="#5851BC"></path>
                <path d="M106.8109,332.0002 C107.0289,332.0002 107.2489,331.9962 107.4769,331.9872 C111.7529,331.8482 115.0159,330.4872 117.1729,327.9522 C120.7409,323.7472 119.9329,317.8912 119.8969,317.6442 C119.8369,317.2342 119.4479,316.9392 119.0419,317.0112 C118.6279,317.0712 118.3399,317.4472 118.3989,317.8532 C118.4079,317.9082 119.1439,323.3172 116.0049,327.0012 C114.1379,329.1962 111.2499,330.3722 107.4239,330.4982 C103.7199,330.6062 100.9579,329.6592 99.1219,327.6412 C95.7879,323.9802 96.6069,317.9672 96.6169,317.9042 C96.6739,317.4992 96.3879,317.1212 95.9729,317.0622 C95.5749,317.0042 95.1759,317.2862 95.1189,317.6932 C95.0789,317.9692 94.1849,324.4452 97.9899,328.6312 C100.0229,330.8662 102.9899,332.0002 106.8109,332.0002" id="Fill-124" fill="#5851BC"></path>
                <path d="M273.9998,63.6579 C273.9998,63.6579 269.9288,60.8449 269.7838,59.6629 C269.6368,58.4829 266.7998,53.6939 265.8928,52.7409 C264.9848,51.7869 260.2118,50.1669 259.1948,50.0249 C258.1768,49.8829 252.3358,50.3689 253.0628,51.1489 C253.7888,51.9289 257.5698,51.6439 258.2968,52.0719 L259.0238,52.4999 C259.0238,52.4999 258.2968,53.4669 258.5868,54.0519 C258.8788,54.6369 257.3398,55.5349 257.9218,56.5329 C258.5018,57.5299 257.6858,57.4609 258.2058,58.4999 C259.0658,60.2179 261.2658,61.1749 261.8458,60.7039 C262.2828,61.7219 263.9528,63.7969 265.5168,63.6549 C267.0828,63.5109 270.8808,66.9999 270.8808,66.9999" id="Fill-126" fill="#FFB9B0"></path>
                <path d="M336.0223,43.0002 C336.1593,45.6482 335.9673,50.2602 336.7393,50.9442 C337.5103,51.6272 340.0003,51.5212 340.0003,51.5212 C340.0003,51.5212 331.0983,62.5832 330.3033,61.9762 C329.5053,61.3682 318.9793,52.9362 321.3453,52.4992 C323.7103,52.0642 326.0263,52.1572 325.9593,50.9542 C325.8923,49.7502 325.8253,48.5462 325.7573,47.3422" id="Fill-128" fill="#FFB9B0"></path>
                <path d="M346.827,104.8981 C346.827,104.8981 329.412,106.9151 325.403,106.9981 C321.394,107.0821 321.592,104.9471 321.592,104.9471 C321.39,100.4501 320.641,89.8481 319.811,86.2551 C319.036,82.9011 318.694,81.6641 318.019,78.4751 C316.521,71.3901 316.588,70.0371 315,61.2931 L325.403,52.7691 C325.403,52.7691 326.478,56.0301 330.84,56.0881 C336.667,56.1641 338.481,52.0001 338.481,52.0001 L352.667,61.6051 L354,84.9641 L352.301,104.2011" id="Fill-130" fill="#556CE7"></path>
                <path d="M336.4627,40.4328 C336.1417,41.8158 335.7247,43.1738 335.2127,44.4978 C334.2757,46.9258 332.8957,47.7968 330.3197,47.8578 C328.5107,47.9018 326.6997,47.9438 324.8887,47.9878 C323.4997,48.0188 321.7697,48.0648 320.6487,47.0958 C319.5347,46.1318 319.5127,44.5078 319.2647,43.1728 C318.9487,41.4648 318.6927,39.7458 318.4937,38.0208 C318.1077,34.6408 317.9447,31.2348 318.0157,27.8348 C318.0247,27.3688 318.0387,26.8968 318.1377,26.4408 C318.1777,26.2548 318.2347,26.0638 318.3687,25.9308 C318.5377,25.7628 318.7877,25.7148 319.0217,25.6788 C322.4127,25.1458 325.8557,24.9248 329.2877,25.0228 C331.7127,25.0928 334.2807,25.3728 336.2007,26.8528 C338.1337,28.3428 339.0497,30.7598 339.8737,33.0508 C340.0077,33.4188 340.1067,33.9108 339.7837,34.1348" id="Fill-132" fill="#FFB9B0"></path>
                <path d="M296.9998,167.2331 C296.9998,167.2331 297.6118,170.4271 298.0998,171.5181 C298.5848,172.6091 302.6958,171.6041 302.9688,170.8991 C303.2388,170.1921 301.6758,165.0001 301.6758,165.0001" id="Fill-134" fill="#ED9C80"></path>
                <path d="M304.2234,172.3718 C304.5674,173.6398 304.9994,176.0698 304.9994,176.0698 L301.0294,177.7478 L300.3774,177.1538 C300.3774,177.1538 299.3924,178.3128 298.1744,178.8568 C297.2704,179.2638 295.3224,179.7888 294.3294,179.8928 C290.8644,180.2548 288.3134,179.6218 288.1064,179.1558 C287.2464,177.2078 291.8454,176.6858 292.7584,176.4528 C295.3794,175.7838 296.8364,173.6238 297.1174,172.2178 C297.3184,171.1958 297.0574,171.0178 297.6464,171.0498 C297.6464,171.0498 298.1614,171.0228 298.6384,171.4998 C299.3734,172.2348 300.4784,172.5688 301.4614,172.1358 C302.0234,171.8888 302.5564,171.5278 302.8694,170.9998 C302.8694,170.9998 303.8784,171.1048 304.2234,172.3718" id="Fill-136" fill="#38287C"></path>
                <path d="M313.2459,121.3459 C307.0889,122.5529 299.3599,122.6399 293.1399,121.8209 C294.0099,124.3089 296.1419,127.4949 296.9549,130.9969 C299.6369,142.5599 300.5679,158.0949 301.2499,167.7059 C301.2499,167.7059 299.9629,170.1729 295.8339,168.2949 C289.6679,153.1049 278.8999,122.3249 279.0009,115.6469 C279.1269,107.1469 300.4059,105.0939 315.9999,102.9999" id="Fill-138" fill="#453087"></path>
                <path d="M341.4861,104.5505 C346.4231,108.0085 314.1241,121.0305 314.1241,121.0305 C310.5401,121.7055 307.0521,122.0095 303.5381,122.0005 C303.2051,121.3865 302.8921,120.7575 302.7501,120.0815 C302.5591,119.1795 302.6621,118.2445 302.4961,117.3385 C302.1781,115.5805 300.8621,114.0955 299.2701,113.1695 C297.6791,112.2425 295.8301,111.8125 293.9921,111.5285 C289.6251,110.8535 282.0001,111.3265 282.0001,111.3265 C291.7061,104.4615 311.5691,103.5635 320.8211,103.0005 C322.5921,105.7985 340.7781,104.0535 341.4861,104.5505" id="Fill-140" fill="#38287C"></path>
                <path d="M306.0018,175.5788 C306.0018,175.5788 305.9638,179.0008 306.2618,180.2168 C306.5588,181.4318 311.3598,181.0388 311.8208,180.3478 C312.2808,179.6558 311.7078,173.9998 311.7078,173.9998" id="Fill-142" fill="#ED9C80"></path>
                <path d="M312.8973,181.3845 C313.0063,182.6575 313.0003,185.0645 313.0003,185.0645 L308.8443,186.0255 L308.3173,185.3485 C308.3173,185.3485 307.1553,186.2995 305.8753,186.6255 C304.9233,186.8655 302.9373,187.0515 301.9573,186.9875 C298.5243,186.7665 296.1553,185.7395 296.0373,185.2585 C295.5453,183.2445 300.1083,183.4985 301.0353,183.4255 C303.7023,183.2115 305.4963,181.3765 306.0173,180.0695 C306.3953,179.1215 306.1723,178.9065 306.7383,179.0335 C306.7383,179.0335 307.2443,179.0925 307.6253,179.6305 C308.2093,180.4555 309.2223,180.9585 310.2533,180.7045 C310.8423,180.5585 311.4243,180.3005 311.8223,179.8425 C311.8223,179.8425 312.7853,180.1095 312.8973,181.3845" id="Fill-144" fill="#38287C"></path>
                <path d="M352.1502,104.0002 C352.1502,104.0002 342.2222,104.9642 330.1612,104.6872 C327.3522,104.6852 306.1122,108.5882 304.0812,112.1112 C300.7392,117.9082 306.2592,151.7842 305.7502,176.0372 C305.7502,176.0372 308.2962,178.1182 312.7982,176.1622 C313.9202,164.2462 321.1092,136.1422 316.1492,123.0212 C327.8602,124.5442 337.3072,126.0542 347.9512,122.6022 C350.4442,121.7922 352.3072,120.0682 353.4262,116.9152 C354.5512,113.7502 353.9652,106.8302 352.1502,104.0002" id="Fill-146" fill="#453087"></path>
                <path d="M324.9998,52.0002 C324.9998,52.0002 322.4478,52.1412 321.9508,52.1802 C319.8218,52.3472 317.6558,52.6262 315.6438,53.3682 C312.7498,54.4352 310.7078,57.1162 308.3538,59.2122 C306.0848,61.2292 294.3298,72.3852 292.1368,72.7952 C289.9438,73.2072 270.6988,60.0712 270.6988,60.0712 L265.9998,64.7512 C265.9998,64.7512 286.8848,83.9682 293.1098,84.0002 C296.1328,84.0162 312.8048,75.2762 318.1388,71.8802 L324.9998,52.0002 Z" id="Fill-148" fill="#556CE7"></path>
                <path d="M293.4559,80.3386 C289.1159,80.5786 269.2269,65.7346 266.9219,64.0006 L265.9999,64.9026 C265.9999,64.9026 287.1109,83.9666 293.4049,84.0006 C295.9539,84.0126 308.0749,77.9946 315.1649,74.0366 L316.9999,72.9976 L315.8989,66.5896 C315.8989,66.5896 298.0629,80.0836 293.4559,80.3386" id="Fill-150" fill="#3F51B5"></path>
                <path d="M273.4783,107.0002 L320.9993,107.0002 L312.4783,79.5502 C312.0073,78.0352 310.5903,77.0002 308.9873,77.0002 L267.3703,77.0002 C265.7773,77.0002 264.6373,78.5222 265.1063,80.0272 L273.4783,107.0002 Z" id="Fill-152" fill="#A4A4F7"></path>
                <path d="M272.1942,107.0002 L319.0002,107.0002 L310.4782,79.5502 C310.0082,78.0352 308.5912,77.0002 306.9872,77.0002 L265.3712,77.0002 C263.7782,77.0002 262.6382,78.5222 263.1052,80.0272 L271.2692,106.3232 C271.3922,106.7272 271.7692,107.0002 272.1942,107.0002" id="Fill-154" fill="#3F51B5"></path>
                <path d="M345.8719,65.0656 C343.5469,75.6896 343.1349,84.0036 342.4779,91.6006 C334.3079,94.8026 330.9809,99.5676 322.9889,103.1616 C322.9889,103.1616 316.6769,102.1036 316.0139,104.5076 C315.6309,105.8946 323.4029,107.0006 323.4029,107.0006 C330.8109,107.0336 350.3469,101.5646 351.6719,101.1996 C352.9929,100.8326 356.8409,75.7526 356.9969,62.1416 C357.0189,60.2096 356.9499,58.1106 355.7539,56.6036 C355.1229,55.8096 354.2399,55.2656 353.3429,54.8016 C348.1309,52.1106 344.2679,51.3766 338.4259,51.0006" id="Fill-156" fill="#3F51B5"></path>
                <path d="M323.2742,105.4963 C322.3842,104.1553 320.7612,103.9653 319.3312,104.0053 C318.2712,104.0383 317.2122,104.1393 316.1652,104.3093 C315.6852,104.3843 315.1352,104.5183 315.0852,105.1363 C315.0342,105.7563 317.4062,105.1363 318.6492,105.5653 C316.2132,105.8143 313.7632,105.8923 311.3192,105.8023 C311.0352,105.7933 310.7402,105.7813 310.4762,105.9043 C310.2112,106.0323 309.9832,106.3313 310.0012,106.6733 C310.0142,106.9353 310.1702,107.1593 310.3362,107.3373 C311.0192,108.0703 311.9542,108.3593 312.8582,108.5483 C316.5962,109.3293 320.5242,109.1953 324.0002,107.3753" id="Fill-158" fill="#FFB9B0"></path>
                <path d="M345.0262,64.8649 C344.8292,76.2199 344.0072,81.4189 344.2332,92.7729 C338.4222,93.9919 330.3802,100.4459 322.1552,104.0389 C322.1552,104.0389 321.6652,105.6409 322.4252,106.9939 C323.0532,107.2189 350.1732,100.7399 352.3322,98.7899 C354.2702,97.0339 356.8372,75.7519 356.9972,62.1409 C357.0182,60.2079 356.9492,58.1119 355.7172,56.6029 C355.0692,55.8089 354.1602,55.2669 353.2372,54.8019 C347.8732,52.1109 343.8982,51.3759 337.8852,50.9999" id="Fill-160" fill="#556CE7"></path>
                <path d="M296.992,92.5002 C297.17,94.9852 294.181,97.0002 290.319,97.0002 C286.458,97.0002 283.184,94.9852 283.008,92.5002 C282.832,90.0152 285.818,88.0002 289.68,88.0002 C293.542,88.0002 296.815,90.0152 296.992,92.5002 Z" id="Stroke-162" stroke="#A4A4F7"></path>
                <path d="M293.9959,92.5002 C294.0979,93.8822 292.3899,95.0002 290.1829,95.0002 C287.9749,95.0002 286.1059,93.8822 286.0039,92.5002 C285.9039,91.1182 287.6099,90.0002 289.8159,90.0002 C292.0239,90.0002 293.8929,91.1182 293.9959,92.5002" id="Fill-164" fill="#A4A4F7"></path>
                <path d="M327.4959,33.4152 C327.4059,33.0142 326.4609,32.9342 325.5129,33.0472 C324.5619,33.1602 322.0309,33.4612 321.5099,33.8442 C320.9889,34.2272 321.0199,34.5042 320.7439,34.5332 C320.4729,34.5612 320.4509,34.2922 319.8479,34.0422 C319.2429,33.7932 317.7829,33.9652 316.8319,34.0802 C315.8839,34.1932 314.9809,34.3922 314.9999,34.8012 C315.0189,35.2122 315.1859,35.9292 315.3809,36.0422 C315.5729,36.1582 315.5729,36.1382 316.3199,37.7622 C316.7369,38.6692 317.3779,39.1892 318.6059,38.9362 C320.1689,38.6142 320.2669,36.9332 320.3879,36.2282 C320.5089,35.5242 320.6189,35.4202 320.8569,35.3922 C321.0999,35.3622 321.2579,35.4352 321.5589,36.0882 C321.8599,36.7422 322.0779,38.2482 323.6789,38.3322 C325.7739,38.4452 326.6829,37.7652 326.9739,36.4952 C327.3659,34.7712 327.2739,34.7652 327.4339,34.6092 C327.5059,34.5362 328.9999,34.7332 328.9999,34.7332 L328.9649,34.2212 C328.9649,34.2212 327.5179,33.5182 327.4959,33.4152 M319.8869,36.8842 C319.8389,37.7652 319.3759,38.5692 318.3419,38.6922 C317.3809,38.8052 316.9389,38.3222 316.4209,37.1602 C315.9699,36.1462 315.9469,35.3402 316.1099,35.0612 C316.2729,34.7832 316.7899,34.7912 317.9839,34.7202 C319.1789,34.6492 319.5759,34.6252 319.7689,35.1222 C319.8409,35.3042 319.9339,36.0052 319.8869,36.8842 M326.7169,35.9342 C326.5189,37.1832 326.0329,37.7832 324.7189,37.9332 C322.8529,38.1442 322.4939,37.4482 322.2189,36.6072 C321.9409,35.7652 321.8489,35.0652 321.8689,34.8712 C321.9279,34.3452 322.3179,34.2752 323.4929,34.0652 C324.6679,33.8522 326.2379,33.5962 326.4689,33.8282 C326.6999,34.0602 326.8889,34.8482 326.7169,35.9342" id="Fill-166" fill="#483A99"></path>
                <path d="M340.8475,30.1833 C340.7345,29.1963 340.5565,28.2343 340.3195,27.3253 C339.6715,24.8373 338.1525,22.7243 335.8805,21.4933 C332.9855,19.9213 329.0095,19.5983 325.8365,20.4883 C324.0005,21.0063 323.3175,21.9763 322.3715,21.9503 C321.6465,21.9273 320.7405,21.4393 319.8005,21.1003 C312.6165,18.5113 313.8215,25.5633 314.5865,27.4993 C314.9265,28.3563 316.5545,28.9783 316.7715,29.3353 C316.9895,29.6923 316.9635,31.4363 317.1025,32.2053 C317.2405,32.9723 317.9955,33.2663 317.9955,33.2663 C317.9955,33.2663 318.0365,30.9953 318.0725,30.6863 C318.1665,29.8783 318.4325,29.0393 319.1335,28.5613 C319.8665,28.0613 320.8675,27.9833 321.7175,27.8353 C322.6055,27.6783 326.7305,28.4723 327.0055,28.7113 C328.3485,29.8643 328.6935,32.4993 329.0695,34.0463 C329.2445,34.7693 329.4285,35.2563 329.7215,35.2453 C329.9445,33.1153 330.6825,33.0583 331.9535,33.7893 C332.6335,34.1773 333.0145,35.5263 333.0355,36.6713 C333.0625,38.0263 332.3095,39.5163 330.8925,39.8193 C330.3855,39.9283 331.9155,42.8363 332.6245,43.5633 C332.8575,43.8023 333.0865,44.0523 333.3735,44.2233 C333.6385,44.3803 333.9415,44.4643 334.2385,44.5443 C334.5815,44.6393 334.9235,44.7303 335.2655,44.8243 C335.7285,44.9493 336.2155,45.0763 336.6765,44.9443 C337.4345,44.7303 337.8325,43.9253 338.1765,43.2153 C338.7375,42.0443 339.3835,40.9143 339.8425,39.7013 C340.9225,36.8443 341.2175,33.3793 340.8475,30.1833" id="Fill-168" fill="#3F51B5"></path>
                <path d="M468.1131,135.0002 L378.0001,135.0002 L388.7931,127.1462 L388.7931,88.7942 C388.7931,85.5942 391.4281,83.0002 394.6801,83.0002 L468.1131,83.0002 C471.3651,83.0002 474.0001,85.5942 474.0001,88.7942 L474.0001,129.2062 C474.0001,132.4082 471.3651,135.0002 468.1131,135.0002" id="Fill-170" fill="#D6DCFF"></path>
                <polygon id="Fill-172" fill="#FFFFFF" points="426 94 467 94 467 90 426 90"></polygon>
                <polygon id="Fill-174" fill="#FFFFFF" points="426 100 467 100 467 96 426 96"></polygon>
                <polygon id="Fill-176" fill="#FFFFFF" points="426 106 467 106 467 102 426 102"></polygon>
                <polygon id="Fill-178" fill="#FFFFFF" points="426 111 467 111 467 107 426 107"></polygon>
                <polygon id="Fill-180" fill="#FFFFFF" points="426 119 454 119 454 115 426 115"></polygon>
                <polygon id="Fill-182" fill="#FFFFFF" points="396 128 422 128 422 124 396 124"></polygon>
                <path d="M134.4827,81.0002 L248.9997,81.0002 L235.2867,70.8902 L235.2867,8.4572 C235.2867,4.3412 231.9357,1.0002 227.8037,1.0002 L134.4827,1.0002 C130.3507,1.0002 126.9997,4.3412 126.9997,8.4572 L126.9997,73.5432 C126.9997,77.6632 130.3507,81.0002 134.4827,81.0002" id="Fill-184" fill="#D6DCFF"></path>
                <g id="Group-194" transform="translate(137.000000, 12.188000)" fill="#FFFFFF">
                    <polygon id="Fill-186" points="0.044 5.557 52.548 5.557 52.548 0.558 0.044 0.558"></polygon>
                    <polygon id="Fill-188" points="0.044 13.022 52.548 13.022 52.548 8.023 0.044 8.023"></polygon>
                    <polygon id="Fill-189" points="0.044 20.486 52.548 20.486 52.548 15.487 0.044 15.487"></polygon>
                    <polygon id="Fill-190" points="0.044 27.759 52.548 27.759 52.548 22.762 0.044 22.762"></polygon>
                    <polygon id="Fill-191" points="0.044 35.031 52.548 35.031 52.548 30.034 0.044 30.034"></polygon>
                    <polygon id="Fill-192" points="0.044 48.247 52.548 48.247 52.548 43.25 0.044 43.25"></polygon>
                    <polygon id="Fill-193" points="0.044 56.119 89.654 56.119 89.654 51.12 0.044 51.12"></polygon>
                </g>
                <polygon id="Fill-195" fill="#FFFFFF" points="194 60 227 60 227 56 194 56"></polygon>
                <g id="Group-204" transform="translate(0.000000, 89.188000)">
                    <polyline id="Fill-197" fill="#3939D3" points="19.5535 22.4484 25.8555 25.6134 22.7055 17.9014"></polyline>
                    <g id="Group-201">
                        <mask id="mask-4" fill="white">
                            <use xlink:href="#path-3"></use>
                        </mask>
                        <g id="Clip-200"></g>
                        <path d="M-0.0002,12.59 C-0.0002,19.513 5.9628,25.127 13.3198,25.127 C20.6768,25.127 26.6398,19.513 26.6398,12.59 C26.6398,5.666 20.6768,0.052 13.3198,0.052 C5.9628,0.052 -0.0002,5.666 -0.0002,12.59" id="Fill-199" fill="#556CE7" mask="url(#mask-4)"></path>
                    </g>
                    <path d="M10.0589,8.4704 L10.0589,17.4334 C10.0589,18.1574 10.8439,18.6084 11.4719,18.2474 L19.2529,13.7644 C19.8819,13.4034 19.8819,12.5004 19.2529,12.1394 L11.4719,7.6574 C10.8439,7.2964 10.0589,7.7484 10.0589,8.4704" id="Fill-202" fill="#FEFEFE"></path>
                </g>
                <g id="Group-213" transform="translate(0.000000, 0.188000)">
                    <polyline id="Fill-205" fill="#3939D3" points="248.8221 97.7526 253.3261 93.0106 247.1541 94.1896"></polyline>
                    <path d="M232.1404,98.8547 C232.1404,103.6607 236.3764,107.5557 241.5994,107.5557 C246.8254,107.5557 251.0594,103.6607 251.0594,98.8547 C251.0594,94.0487 246.8254,90.1537 241.5994,90.1537 C236.3764,90.1537 232.1404,94.0487 232.1404,98.8547" id="Fill-207" fill="#556CE7"></path>
                    <path d="M239.7874,103.0212 C241.6504,103.0552 243.5354,103.0792 245.2484,102.9592 C245.7894,102.9192 246.2584,102.0452 245.6014,101.7692 C245.8774,101.6222 246.1584,101.4812 246.2804,101.1672 C246.3944,100.8662 246.2564,100.4612 245.9504,100.3832 C246.5954,100.5472 246.8504,99.5022 246.3464,99.1652 C246.6134,98.9332 246.8344,98.6272 246.8914,98.2752 C246.9484,97.9252 246.8054,97.5282 246.4974,97.3562 C246.2974,97.2442 246.0574,97.2412 245.8274,97.2392 C245.0524,97.2322 244.2774,97.2272 243.5034,97.2202 C243.7124,95.9872 243.7764,94.6412 243.1614,93.5572 C242.9744,93.2322 242.4754,92.8392 242.0804,93.0912 C241.7084,93.3252 241.8124,93.9112 241.8324,94.2802 C241.9094,95.8162 241.0514,97.3612 239.7184,98.0842 C239.7184,98.0842 239.8064,101.3532 239.7874,103.0212" id="Fill-209" fill="#FEFEFE"></path>
                    <mask id="mask-6" fill="white">
                        <use xlink:href="#path-5"></use>
                    </mask>
                    <g id="Clip-212"></g>
                    <polygon id="Fill-211" fill="#FEFEFE" mask="url(#mask-6)" points="236.296 103.018 239.111 103.018 239.111 98.085 236.296 98.085"></polygon>
                </g>
                <g id="Group-218" transform="translate(267.000000, 10.188000)">
                    <path d="M25.5662,22.0378 C27.4682,19.7358 28.6122,16.8258 28.6122,13.6488 C28.6122,6.2148 22.3772,0.1848 14.6822,0.1848 C6.9892,0.1848 0.7532,6.2148 0.7532,13.6488 C0.7532,21.0838 6.9892,27.1118 14.6822,27.1118 C17.5402,27.1118 20.1902,26.2788 22.4002,24.8538 L27.7942,27.6338 L25.5662,22.0378 Z" id="Fill-214" fill="#556CE7"></path>
                    <path d="M8.8084,9.9724 C10.1534,8.7004 12.3044,8.7244 13.6184,10.0214 L14.4854,10.8764 L15.3754,10.0264 C16.7144,8.7514 18.8684,8.7704 20.1874,10.0644 C21.5044,11.3564 21.4894,13.4374 20.1484,14.7124 L16.8394,17.8614 C16.8334,17.8684 16.8294,17.8744 16.8224,17.8814 C16.2934,18.3814 15.6414,18.6804 14.9624,18.7834 C13.9154,18.9374 12.8094,18.6194 12.0124,17.8344 L8.7574,14.6204 C7.4434,13.3254 7.4664,11.2424 8.8084,9.9724" id="Fill-216" fill="#FFFFFF"></path>
                </g>
                <path d="M171.5443,280.0002 L101.4543,280.0002 C100.0973,280.0002 99.0003,278.8982 99.0003,277.5442 L99.0003,207.4562 C99.0003,206.1002 100.0973,205.0002 101.4543,205.0002 L171.5443,205.0002 C172.8983,205.0002 174.0003,206.1002 174.0003,207.4562 L174.0003,277.5442 C174.0003,278.8982 172.8983,280.0002 171.5443,280.0002" id="Fill-219" fill="#CAD2FB"></path>
                <path d="M168.5443,277.0002 L98.4553,277.0002 C97.0993,277.0002 96.0003,275.9002 96.0003,274.5462 L96.0003,204.4542 C96.0003,203.0982 97.0993,202.0002 98.4553,202.0002 L168.5443,202.0002 C169.8983,202.0002 171.0003,203.0982 171.0003,204.4542 L171.0003,274.5462 C171.0003,275.9002 169.8983,277.0002 168.5443,277.0002" id="Fill-221" fill="#FFFFF8"></path>
                <path d="M133.9998,261.0002 L152.6458,261.0002 L151.2038,230.1012 L157.5708,237.8342 L165.9998,228.6382 C165.9998,228.6382 154.9938,214.9252 153.0078,213.8272 C151.0228,212.7292 142.0418,212.0002 142.0418,212.0002 C141.8618,214.9252 139.6548,219.6792 133.9998,219.6792 C128.3448,219.6792 126.1378,214.9252 125.9568,212.0002 C125.9568,212.0002 116.9748,212.7292 114.9908,213.8272 C113.0038,214.9252 101.9998,228.6382 101.9998,228.6382 L110.4258,237.8342 L116.7958,230.1012 L115.3508,261.0002 L133.9998,261.0002 Z" id="Fill-223" fill="#556CE7"></path>
                <path d="M421.1502,118.0002 L396.8512,118.0002 C396.3812,118.0002 396.0002,117.6182 396.0002,117.1482 L396.0002,92.8522 C396.0002,92.3822 396.3812,92.0002 396.8512,92.0002 L421.1502,92.0002 C421.6202,92.0002 422.0002,92.3822 422.0002,92.8522 L422.0002,117.1482 C422.0002,117.6182 421.6202,118.0002 421.1502,118.0002" id="Fill-225" fill="#9090F4"></path>
                <path d="M420.1483,117.0002 L395.8513,117.0002 C395.3813,117.0002 395.0003,116.6202 395.0003,116.1502 L395.0003,91.8502 C395.0003,91.3822 395.3813,91.0002 395.8513,91.0002 L420.1483,91.0002 C420.6183,91.0002 421.0003,91.3822 421.0003,91.8502 L421.0003,116.1502 C421.0003,116.6202 420.6183,117.0002 420.1483,117.0002" id="Fill-227" fill="#FFFFF8"></path>
                <path d="M407.9998,111.0002 L414.4088,111.0002 L413.9138,100.2792 L416.1018,102.9622 L418.9998,99.7712 C418.9998,99.7712 415.2158,95.0132 414.5328,94.6332 C413.8518,94.2512 410.7648,94.0002 410.7648,94.0002 C410.7018,95.0132 409.9428,96.6642 407.9998,96.6642 C406.0568,96.6642 405.2978,95.0132 405.2348,94.0002 C405.2348,94.0002 402.1478,94.2512 401.4668,94.6332 C400.7838,95.0132 396.9998,99.7712 396.9998,99.7712 L399.8978,102.9622 L402.0858,100.2792 L401.5888,111.0002 L407.9998,111.0002 Z" id="Fill-229" fill="#556CE7"></path>
                <path d="M452.4246,180.0002 L359.5726,180.0002 C357.0466,180.0002 354.9996,182.0342 354.9996,184.5412 L354.9996,363.4582 C354.9996,365.9672 357.0466,368.0002 359.5726,368.0002 L452.4246,368.0002 C454.9516,368.0002 456.9996,365.9672 456.9996,363.4582 L456.9996,184.5412 C456.9996,182.0342 454.9516,180.0002 452.4246,180.0002" id="Fill-231" fill="#9090F4"></path>
                <path d="M450.4246,178.0002 L357.5726,178.0002 C355.0466,178.0002 352.9996,180.0342 352.9996,182.5412 L352.9996,361.4582 C352.9996,363.9672 355.0466,366.0002 357.5726,366.0002 L450.4246,366.0002 C452.9516,366.0002 454.9996,363.9672 454.9996,361.4582 L454.9996,182.5412 C454.9996,180.0342 452.9516,178.0002 450.4246,178.0002" id="Fill-233" fill="#F4F7FA"></path>
                <path d="M454.2264,164.0002 L357.7734,164.0002 C352.9284,164.0002 348.9994,167.9242 348.9994,172.7662 L348.9994,375.2332 C348.9994,380.0752 352.9284,384.0002 357.7734,384.0002 L454.2264,384.0002 C459.0734,384.0002 462.9994,380.0752 462.9994,375.2332 L462.9994,172.7662 C462.9994,167.9242 459.0734,164.0002 454.2264,164.0002 L454.2264,164.0002 Z M456.7004,363.4842 C456.7004,365.9942 454.6634,368.0282 452.1524,368.0282 L359.8474,368.0282 C357.3374,368.0282 355.3014,365.9942 355.3014,363.4842 L355.3014,184.5142 C355.3014,182.0082 357.3374,179.9742 359.8474,179.9742 L452.1524,179.9742 C454.6634,179.9742 456.7004,182.0082 456.7004,184.5142 L456.7004,363.4842 Z" id="Fill-235" fill="#556CE7"></path>
                <path d="M357.6678,384.0002 L454.2178,384.0002 C459.0668,384.0002 462.9998,380.0722 462.9998,375.2272 L462.9998,172.5902 C462.9998,170.4662 462.2438,168.5202 460.9858,167.0002 L454.1598,180.2792 C455.6608,181.0232 456.6928,182.5642 456.6928,184.3472 L456.6928,363.4682 C456.6928,365.9782 454.6548,368.0152 452.1418,368.0152 L359.7448,368.0152 C359.0678,368.0152 358.4288,367.8622 357.8508,367.5982 L350.9998,380.9252 C352.6108,382.8032 354.9968,384.0002 357.6678,384.0002" id="Fill-237" fill="#556CE7"></path>
                <path d="M400.9998,174.0002 C399.3418,174.0002 397.9998,172.6562 397.9998,171.0002 C397.9998,169.3422 399.3418,168.0002 400.9998,168.0002 C402.6578,168.0002 403.9998,169.3422 403.9998,171.0002 C403.9998,172.6562 402.6578,174.0002 400.9998,174.0002" id="Fill-239" fill="#5851BC"></path>
                <path d="M423.9998,171.0002 L423.9998,171.0002 C423.9998,169.8952 423.1648,169.0002 422.1328,169.0002 L409.8668,169.0002 C408.8368,169.0002 407.9998,169.8952 407.9998,171.0002 C407.9998,172.1052 408.8368,173.0002 409.8668,173.0002 L422.1328,173.0002 C423.1648,173.0002 423.9998,172.1052 423.9998,171.0002" id="Fill-241" fill="#5851BC"></path>
                <polygon id="Fill-243" fill="#B1AFFD" points="370 339 377 339 377 332 370 332"></polygon>
                <polygon id="Fill-245" fill="#FCA70C" points="370 351 377 351 377 344 370 344"></polygon>
                <polygon id="Fill-247" fill="#EFEFEF" points="380 353 404 353 404 348 380 348"></polygon>
                <polygon id="Fill-249" fill="#EFEFEF" points="380 339 404 339 404 334 380 334"></polygon>
                <polygon id="Fill-251" fill="#B1AFFD" points="414 339 421 339 421 332 414 332"></polygon>
                <polygon id="Fill-253" fill="#FCA70C" points="414 351 421 351 421 344 414 344"></polygon>
                <polygon id="Fill-255" fill="#EFEFEF" points="424 353 448 353 448 348 424 348"></polygon>
                <polygon id="Fill-257" fill="#EFEFEF" points="424 339 448 339 448 334 424 334"></polygon>
                <polygon id="Fill-259" fill="#EFEFEF" points="371 283.892 448 283.892 448 282.109 371 282.109"></polygon>
                <polygon id="Fill-261" fill="#EFEFEF" points="370 288.892 448 288.892 448 287.109 370 287.109"></polygon>
                <polygon id="Fill-263" fill="#EFEFEF" points="370 278.893 448 278.893 448 277.108 370 277.108"></polygon>
                <polygon id="Fill-265" fill="#EFEFEF" points="370 293.893 448 293.893 448 292.108 370 292.108"></polygon>
                <polygon id="Fill-267" fill="#EFEFEF" points="370 297.893 448 297.893 448 296.108 370 296.108"></polygon>
                <polygon id="Fill-269" fill="#EFEFEF" points="370 303.893 448 303.893 448 302.108 370 302.108"></polygon>
                <polygon id="Fill-271" fill="#EFEFEF" points="370 308.893 448 308.893 448 307.108 370 307.108"></polygon>
                <polygon id="Fill-273" fill="#EFEFEF" points="370 312.893 448 312.893 448 311.108 370 311.108"></polygon>
                <polygon id="Fill-275" fill="#EFEFEF" points="370 318.893 448 318.893 448 317.108 370 317.108"></polygon>
                <polygon id="Fill-277" fill="#EFEFEF" points="375 322.893 443 322.893 443 321.108 375 321.108"></polygon>
                <path d="M444.5438,270.0002 L374.4538,270.0002 C373.0978,270.0002 371.9998,268.9002 371.9998,267.5462 L371.9998,197.4562 C371.9998,196.1022 373.0978,195.0002 374.4538,195.0002 L444.5438,195.0002 C445.8978,195.0002 446.9998,196.1022 446.9998,197.4562 L446.9998,267.5462 C446.9998,268.9002 445.8978,270.0002 444.5438,270.0002" id="Fill-279" fill="#CAD2FB"></path>
                <path d="M442.5438,267.0002 L372.4558,267.0002 C371.0998,267.0002 369.9998,265.9002 369.9998,264.5462 L369.9998,194.4542 C369.9998,193.1002 371.0998,192.0002 372.4558,192.0002 L442.5438,192.0002 C443.8978,192.0002 444.9998,193.1002 444.9998,194.4542 L444.9998,264.5462 C444.9998,265.9002 443.8978,267.0002 442.5438,267.0002" id="Fill-281" fill="#FFFFF8"></path>
                <path d="M407.0008,252.0002 L425.6468,252.0002 L424.2048,221.1022 L430.5708,228.8342 L438.9998,219.6382 C438.9998,219.6382 427.9938,205.9252 426.0078,204.8272 C424.0228,203.7292 415.0418,203.0002 415.0418,203.0002 C414.8628,205.9252 412.6558,210.6792 407.0008,210.6792 C401.3438,210.6792 399.1388,205.9252 398.9578,203.0002 C398.9578,203.0002 389.9768,203.7292 387.9918,204.8272 C386.0058,205.9252 374.9998,219.6382 374.9998,219.6382 L383.4268,228.8342 L389.7948,221.1022 L388.3518,252.0002 L407.0008,252.0002 Z" id="Fill-283" fill="#556CE7"></path>
                <path d="M224.9857,48.0002 L196.0137,48.0002 C195.4547,48.0002 194.9997,47.5452 194.9997,46.9862 L194.9997,18.0162 C194.9997,17.4552 195.4547,17.0002 196.0137,17.0002 L224.9857,17.0002 C225.5447,17.0002 225.9997,17.4552 225.9997,18.0162 L225.9997,46.9862 C225.9997,47.5452 225.5447,48.0002 224.9857,48.0002" id="Fill-285" fill="#9090F4"></path>
                <path d="M223.9837,46.0002 L195.0137,46.0002 C194.4547,46.0002 193.9997,45.5452 193.9997,44.9862 L193.9997,16.0142 C193.9997,15.4552 194.4547,15.0002 195.0137,15.0002 L223.9837,15.0002 C224.5437,15.0002 224.9997,15.4552 224.9997,16.0142 L224.9997,44.9862 C224.9997,45.5452 224.5437,46.0002 223.9837,46.0002" id="Fill-287" fill="#FFFFF8"></path>
                <path d="M210.4998,39.0002 L218.3648,39.0002 L217.7578,26.3872 L220.4428,29.5432 L223.9998,25.7922 C223.9998,25.7922 219.3548,20.1932 218.5188,19.7462 C217.6808,19.2972 213.8908,19.0002 213.8908,19.0002 C213.8148,20.1932 212.8858,22.1332 210.4998,22.1332 C208.1138,22.1332 207.1828,20.1932 207.1068,19.0002 C207.1068,19.0002 203.3178,19.2972 202.4808,19.7462 C201.6428,20.1932 196.9998,25.7922 196.9998,25.7922 L200.5548,29.5432 L203.2418,26.3872 L202.6328,39.0002 L210.4998,39.0002 Z" id="Fill-289" fill="#556CE7"></path>
            </g>
        </g>
    </g>
</svg>