<svg width="17" height="19" viewBox="0 0 17 19" fill="none" xmlns="http://www.w3.org/2000/svg">
<path d="M9.97598 16.5088C9.60848 17.5238 8.63723 18.25 7.49973 18.25C6.80848 18.25 6.12598 17.97 5.64473 17.4713C5.36473 17.2088 5.15473 16.8587 5.03223 16.5C5.14598 16.5175 5.25973 16.5262 5.38223 16.5437C5.58348 16.57 5.79348 16.5962 6.00348 16.6137C6.50223 16.6575 7.00973 16.6837 7.51723 16.6837C8.01598 16.6837 8.51473 16.6575 9.00473 16.6137C9.18848 16.5962 9.37223 16.5875 9.54723 16.5612C9.68723 16.5437 9.82723 16.5263 9.97598 16.5088Z" fill="white"/>
<circle opacity="0.3" cx="13" cy="4" r="4" fill="#DB1B1B"/>
<path fill-rule="evenodd" clip-rule="evenodd" d="M9.62348 1.85412C9.14893 1.16712 8.37117 0.75 7.49096 0.75C6.53721 0.75 5.67971 1.26625 5.22471 2.08C3.51846 2.92875 2.33721 4.6875 2.33721 6.7175V8.93125C2.33721 9.29 2.17096 9.9025 1.98721 10.2175L1.10346 11.6788C0.753456 12.265 0.674706 12.9125 0.893456 13.5075C1.10346 14.0938 1.60221 14.5487 2.24971 14.7675C3.94721 15.345 5.73221 15.625 7.51721 15.625C9.30221 15.625 11.0872 15.345 12.7847 14.7763C13.3972 14.575 13.8697 14.1112 14.0972 13.5075C14.3247 12.9037 14.2635 12.2387 13.9222 11.6788L13.0472 10.2262C12.8635 9.9025 12.6972 9.29 12.6972 8.93125V7.98873C10.6294 7.83409 8.99976 6.10736 8.99976 4C8.99976 3.21037 9.22856 2.47419 9.62348 1.85412Z" fill="white"/>
<circle cx="13" cy="4" r="2" fill="#DB1B1B"/>
</svg>
