<svg width="21" height="21" viewBox="0 0 21 21" fill="none" xmlns="http://www.w3.org/2000/svg">
<path d="M16.9225 12.6787L16.0475 11.2262C15.8637 10.9025 15.6975 10.29 15.6975 9.93125V7.7175C15.6975 5.66125 14.49 3.885 12.7487 3.05375C12.2937 2.24875 11.4537 1.75 10.4912 1.75C9.5375 1.75 8.68 2.26625 8.225 3.08C6.51875 3.92875 5.3375 5.6875 5.3375 7.7175V9.93125C5.3375 10.29 5.17125 10.9025 4.9875 11.2175L4.10375 12.6787C3.75375 13.265 3.675 13.9125 3.89375 14.5075C4.10375 15.0937 4.6025 15.5488 5.25 15.7675C6.9475 16.345 8.7325 16.625 10.5175 16.625C12.3025 16.625 14.0875 16.345 15.785 15.7763C16.3975 15.575 16.87 15.1112 17.0975 14.5075C17.325 13.9037 17.2637 13.2387 16.9225 12.6787Z" fill="white"/>
<path d="M12.9763 17.5088C12.6088 18.5238 11.6375 19.25 10.5 19.25C9.80875 19.25 9.12625 18.97 8.645 18.4713C8.365 18.2088 8.155 17.8587 8.0325 17.5C8.14625 17.5175 8.26 17.5262 8.3825 17.5437C8.58375 17.57 8.79375 17.5962 9.00375 17.6137C9.5025 17.6575 10.01 17.6837 10.5175 17.6837C11.0163 17.6837 11.515 17.6575 12.005 17.6137C12.1888 17.5962 12.3725 17.5875 12.5475 17.5612C12.6875 17.5437 12.8275 17.5263 12.9763 17.5088Z" fill="white"/>
</svg>
