<svg xmlns="http://www.w3.org/2000/svg" width="161" height="173" viewBox="0 0 161 173">
  <g id="Group_730" data-name="Group 730" transform="translate(-1254 -458)">
    <circle id="Ellipse_33" data-name="Ellipse 33" cx="80.5" cy="80.5" r="80.5" transform="translate(1254 470)" fill="#f8f8f8"/>
    <path id="Polygon_8" data-name="Polygon 8" d="M9,0l2.475,6.525L18,9l-6.525,2.475L9,18,6.525,11.475,0,9,6.525,6.525Z" transform="translate(1375 458)" fill="#556ce7"/>
    <path id="Polygon_9" data-name="Polygon 9" d="M9,0l2.475,6.163L18,8.5l-6.525,2.337L9,17,6.525,10.837,0,8.5,6.525,6.162Z" transform="translate(1378 488)" fill="#556ce7"/>
    <path id="Polygon_10" data-name="Polygon 10" d="M8.5,0l2.338,6.525L17,9l-6.163,2.475L8.5,18,6.163,11.475,0,9,6.163,6.525Z" transform="translate(1393 471)" fill="#556ce7"/>
    <g id="Page-1" transform="translate(1263 480)">
      <g id="_028---Video-Chat" data-name="028---Video-Chat" transform="translate(0)">
        <path id="Shape" d="M10.867,20.189a1.867,1.867,0,0,0,1.32-.547l7.467-7.467a1.867,1.867,0,0,0-2.639-2.639L9.547,17a1.867,1.867,0,0,0,1.32,3.186Z" transform="translate(7.8 7.811)" fill="#d6d3d3"/>
        <path id="Shape-2" data-name="Shape" d="M9.547,30.842a1.867,1.867,0,0,0,2.639,0L30.853,12.176a1.867,1.867,0,0,0-2.639-2.639L9.547,28.2a1.867,1.867,0,0,0,0,2.639Z" transform="translate(7.8 7.811)" fill="#d6d3d3"/>
        <path id="Shape-3" data-name="Shape" d="M73.038,59.984a23.333,23.333,0,1,0-30.475,0A23.759,23.759,0,0,0,27,82.111V93.684a1.867,1.867,0,0,0,1.867,1.867H86.733A1.867,1.867,0,0,0,88.6,93.684V82.111A23.759,23.759,0,0,0,73.038,59.984ZM38.2,42.351a19.6,19.6,0,1,1,19.6,19.6A19.6,19.6,0,0,1,38.2,42.351ZM84.867,91.818h-11.2V88.084a1.867,1.867,0,1,0-3.733,0v3.733H45.667V88.084a1.867,1.867,0,0,0-3.733,0v3.733h-11.2V82.111A20.216,20.216,0,0,1,46.387,62.683a23.2,23.2,0,0,0,22.826,0A20.216,20.216,0,0,1,84.867,82.111Z" transform="translate(23.4 16.449)" fill="#d6d3d3"/>
        <path id="Shape-4" data-name="Shape" d="M106.4,0H76.533a5.6,5.6,0,0,0-5.6,5.6V9.333h-56a5.6,5.6,0,0,0-5.6,5.6V62.869L.349,75.449A2.29,2.29,0,0,0,0,76.533v5.6A7.467,7.467,0,0,0,7.467,89.6H46.909a1.867,1.867,0,1,0,0-3.733H7.467a3.733,3.733,0,0,1-3.733-3.733V78.4H30.961l3.186,3.186a1.867,1.867,0,0,0,1.32.547H51.333a1.867,1.867,0,0,0,0-3.733H36.239l-2.369-2.371L34.946,72.8h19.99a1.867,1.867,0,1,0,0-3.733H33.6a1.867,1.867,0,0,0-1.77,1.277l-1.441,4.323H5.494l6.666-9.333H52.267a1.867,1.867,0,1,0,0-3.733H42.933V56.933a1.867,1.867,0,1,0-3.733,0V61.6H35.467V56.8a9.4,9.4,0,0,1,6.615-9.053A13.147,13.147,0,1,0,38.8,45.093,13.136,13.136,0,0,0,31.733,56.8v4.8H13.067V14.933a1.867,1.867,0,0,1,1.867-1.867h56v5.04l-5.227,7.829a3.733,3.733,0,0,0,3.114,5.8H106.4a5.6,5.6,0,0,0,5.6-5.6V5.6A5.6,5.6,0,0,0,106.4,0ZM48.533,27.067A9.333,9.333,0,1,1,39.2,36.4,9.333,9.333,0,0,1,48.533,27.067Zm59.733-.933A1.867,1.867,0,0,1,106.4,28H68.82l5.533-8.3a1.878,1.878,0,0,0,.314-1.036V5.6a1.867,1.867,0,0,1,1.867-1.867H106.4A1.867,1.867,0,0,1,108.267,5.6Z" transform="translate(0)" fill="#d6d3d3"/>
        <path id="Shape-5" data-name="Shape" d="M63.533,5H44.867a1.867,1.867,0,1,0,0,3.733H63.533a1.867,1.867,0,1,0,0-3.733Z" transform="translate(37.267 4.333)" fill="#d6d3d3"/>
        <path id="Shape-6" data-name="Shape" d="M63.533,10H44.867a1.867,1.867,0,1,0,0,3.733H63.533a1.867,1.867,0,1,0,0-3.733Z" transform="translate(37.267 8.667)" fill="#d6d3d3"/>
      </g>
    </g>
  </g>
</svg>
