<svg xmlns="http://www.w3.org/2000/svg" width="22.552" height="22.5" viewBox="0 0 22.552 22.5">
  <g id="url" transform="translate(0 -0.588)">
    <path id="Path_1021" data-name="Path 1021" d="M152.8,6.242a6.185,6.185,0,0,0,.966,9.333.256.256,0,0,0,.32-.031,10.263,10.263,0,0,0,1.658-2,.241.241,0,0,0-.094-.337,3.1,3.1,0,0,1-1.186-1.221h0a2.978,2.978,0,0,1-.253-2.034h0c.19-.919,1.177-1.775,1.931-2.566l0,0L158.965,4.5a2.9,2.9,0,0,1,4.115-.021,2.933,2.933,0,0,1,.042,4.136l-1.711,1.759a.3.3,0,0,0-.068.308,8.1,8.1,0,0,1,.227,3.97.035.035,0,0,0,.059.031l3.642-3.717a6.105,6.105,0,0,0-8.722-8.546l-3.731,3.808-.015.016Z" transform="translate(-144.45 0)" fill="#a9aaaf"/>
    <path id="Path_1022" data-name="Path 1022" d="M15.161,178.784h0l.007,0a6.245,6.245,0,0,0,.541-4.437l0,0h0a6.13,6.13,0,0,0-2.471-3.524.338.338,0,0,0-.375.017,5.927,5.927,0,0,0-1.639,1.978.274.274,0,0,0,.109.358,3.064,3.064,0,0,1,1.173,1.2h0a2.805,2.805,0,0,1,.3,1.841h0c-.131,1.008-1.15,1.933-1.959,2.767h0c-.616.63-2.182,2.227-2.81,2.867a2.924,2.924,0,1,1-4.178-4.093l1.716-1.765a.3.3,0,0,0,.07-.3,8.533,8.533,0,0,1-.245-3.959.035.035,0,0,0-.059-.031L1.75,175.358a6.2,6.2,0,0,0,.044,8.679,6.123,6.123,0,0,0,8.634-.088c.816-.913,4.311-4.149,4.733-5.164Z" transform="translate(0 -162.686)" fill="#a9aaaf"/>
  </g>
</svg>
