<svg xmlns="http://www.w3.org/2000/svg" width="23.087" height="23.078" viewBox="0 0 23.087 23.078">
  <g id="broken-link" transform="translate(-0.001 -0.104)">
    <path id="Path_1023" data-name="Path 1023" d="M199.525,7.931a.449.449,0,0,0,.634,0L203.895,4.2a2.854,2.854,0,1,1,4.038,4.036l-3.737,3.736a.446.446,0,0,0,0,.63l1.534,1.533a.449.449,0,0,0,.634,0l3.931-3.929a5.918,5.918,0,0,0-8.37-8.367l-3.933,3.931a.446.446,0,0,0,0,.63Z" transform="translate(-188.939)" fill="#a9aaaf"/>
    <path id="Path_1024" data-name="Path 1024" d="M12.357,207.5a.449.449,0,0,0-.634,0l-3.589,3.587A2.855,2.855,0,0,1,4.1,207.05l3.59-3.589a.446.446,0,0,0,0-.63L6.152,201.3a.449.449,0,0,0-.634,0L1.734,205.08a5.918,5.918,0,0,0,8.37,8.367l3.786-3.784a.446.446,0,0,0,0-.63Z" transform="translate(0 -191.998)" fill="#a9aaaf"/>
    <path id="Path_1025" data-name="Path 1025" d="M.725,140.179l3.177.794a.676.676,0,1,0,.328-1.312l-3.177-.794a.676.676,0,0,0-.328,1.312Z" transform="translate(-0.202 -132.487)" fill="#a9aaaf"/>
    <path id="Path_1026" data-name="Path 1026" d="M61.6,62.635a.676.676,0,0,0,.956-.957l-2.462-2.461a.676.676,0,1,0-.956.957Z" transform="translate(-56.282 -56.26)" fill="#a9aaaf"/>
    <path id="Path_1027" data-name="Path 1027" d="M139.615,4.335a.676.676,0,0,0,1.312-.328L140.133.831a.676.676,0,1,0-1.312.328Z" transform="translate(-132.542 -0.205)" fill="#a9aaaf"/>
    <path id="Path_1028" data-name="Path 1028" d="M415.43,326.455l-3.177-.794a.676.676,0,0,0-.328,1.312l3.177.794a.676.676,0,1,0,.328-1.312Z" transform="translate(-392.864 -310.861)" fill="#a9aaaf"/>
    <path id="Path_1029" data-name="Path 1029" d="M369.7,368.69a.676.676,0,0,0-.956.957l2.462,2.461a.676.676,0,0,0,.956-.957Z" transform="translate(-351.934 -351.781)" fill="#a9aaaf"/>
    <path id="Path_1030" data-name="Path 1030" d="M327.011,411.85a.676.676,0,1,0-1.312.328l.794,3.176a.676.676,0,0,0,1.312-.328Z" transform="translate(-310.995 -392.694)" fill="#a9aaaf"/>
  </g>
</svg>
