<svg width="12" height="12" viewBox="0 0 12 12" fill="none" xmlns="http://www.w3.org/2000/svg">
<path d="M2 7H5V8H2V7Z" fill="#979797"/>
<path d="M2 9H7V10H2V9Z" fill="#979797"/>
<path d="M11 0H1C0.734865 0.000264738 0.480665 0.105707 0.293186 0.293186C0.105707 0.480665 0.000264738 0.734865 0 1V11C0.000264738 11.2651 0.105707 11.5193 0.293186 11.7068C0.480665 11.8943 0.734865 11.9997 1 12H11C11.2651 11.9997 11.5193 11.8943 11.7068 11.7068C11.8943 11.5193 11.9997 11.2651 12 11V1C11.9997 0.734865 11.8943 0.480665 11.7068 0.293186C11.5193 0.105707 11.2651 0.000264738 11 0ZM7 1V3H5V1H7ZM1 11V1H4V4H8V1H11L11.0005 11H1Z" fill="#979797"/>
</svg>
