<svg width="26" height="26" viewBox="0 0 26 26" fill="none" xmlns="http://www.w3.org/2000/svg">
<g clip-path="url(#clip0)">
<path d="M24.8053 13.0009L25.946 10.0257C26.0711 9.69748 25.9736 9.32538 25.699 9.10277L23.2259 7.09766L22.7254 3.95025C22.6702 3.60252 22.3972 3.33117 22.0495 3.27592L18.9021 2.77546L16.8986 0.300749C16.6776 0.026143 16.2974 -0.0713504 15.9773 0.0537661L13.0005 1.19606L10.0253 0.055391C9.69543 -0.0713504 9.32658 0.0293927 9.10397 0.302374L7.09886 2.77708L3.95145 3.27755C3.60534 3.33279 3.33236 3.60577 3.27712 3.95188L2.77665 7.09929L0.301942 9.1044C0.028961 9.32538 -0.0701573 9.69748 0.0549592 10.0257L1.19563 13.0009L0.0549592 15.9761C-0.0717822 16.3043 0.028961 16.6764 0.301942 16.8974L2.77665 18.9009L3.27712 22.0483C3.33236 22.396 3.60372 22.669 3.95145 22.7242L7.09886 23.2247L9.10397 25.6978C9.32658 25.974 9.69868 26.0715 10.0269 25.9447L13.0005 24.8057L15.9756 25.9464C16.0699 25.9821 16.1674 26 16.2665 26C16.5053 26 16.741 25.8944 16.8986 25.6978L18.9021 23.2247L22.0495 22.7242C22.3972 22.669 22.6702 22.396 22.7254 22.0483L23.2259 18.9009L25.699 16.8974C25.9736 16.6748 26.0711 16.3043 25.946 15.9761L24.8053 13.0009Z" fill="#4051B6"/>
<path d="M10.5629 11.3764C9.21911 11.3764 8.12556 10.2829 8.12556 8.9391C8.12556 7.59532 9.21911 6.50177 10.5629 6.50177C11.9067 6.50177 13.0002 7.59532 13.0002 8.9391C13.0002 10.2829 11.9067 11.3764 10.5629 11.3764ZM10.5629 8.12666C10.1144 8.12666 9.75045 8.49064 9.75045 8.9391C9.75045 9.38757 10.1144 9.75155 10.5629 9.75155C11.0114 9.75155 11.3753 9.38757 11.3753 8.9391C11.3753 8.49064 11.0114 8.12666 10.5629 8.12666Z" fill="#FAFAFA"/>
<path d="M15.4376 19.5004C14.0938 19.5004 13.0002 18.4069 13.0002 17.0631C13.0002 15.7193 14.0938 14.6258 15.4376 14.6258C16.7813 14.6258 17.8749 15.7193 17.8749 17.0631C17.8749 18.4069 16.7813 19.5004 15.4376 19.5004ZM15.4376 16.2507C14.9907 16.2507 14.6251 16.6163 14.6251 17.0631C14.6251 17.5099 14.9907 17.8755 15.4376 17.8755C15.8844 17.8755 16.25 17.5099 16.25 17.0631C16.25 16.6163 15.8844 16.2507 15.4376 16.2507Z" fill="#FAFAFA"/>
<path d="M8.93807 19.5004C8.77395 19.5004 8.60984 19.4517 8.46685 19.3493C8.10125 19.0877 8.01675 18.5807 8.27836 18.2151L16.4028 6.84093C16.6644 6.47533 17.1714 6.39084 17.537 6.65244C17.9026 6.91242 17.9855 7.42101 17.7255 7.78499L9.60102 19.1592C9.44016 19.3818 9.19155 19.5004 8.93807 19.5004Z" fill="#FAFAFA"/>
</g>
<defs>
<clipPath id="clip0">
<rect width="26" height="26" fill="white"/>
</clipPath>
</defs>
</svg>
