<svg xmlns="http://www.w3.org/2000/svg" width="54" height="54" viewBox="0 0 54 54">
  <g id="Group_2005" data-name="Group 2005" transform="translate(-1829 -105)">
    <rect id="Rectangle_3807" data-name="Rectangle 3807" width="54" height="54" rx="5" transform="translate(1829 105)" fill="#3f51b5"/>
    <g id="barcode-scanner_2_" data-name="barcode-scanner (2)" transform="translate(1837.73 114.23)">
      <path id="Path_4934" data-name="Path 4934" d="M5.75,18.473V14.667H24.782v3.806A1.523,1.523,0,0,1,23.259,20H7.273A1.523,1.523,0,0,1,5.75,18.473Z" transform="translate(3.005 7.664)" fill="#556ce7"/>
      <path id="Path_4935" data-name="Path 4935" d="M5.75,13.743V7.273A1.523,1.523,0,0,1,7.273,5.75H23.259a1.523,1.523,0,0,1,1.523,1.523v6.471Z" transform="translate(3.005 3.005)" fill="#556ce7"/>
      <path id="Path_4936" data-name="Path 4936" d="M26.516,10.658a1.142,1.142,0,0,1-1.142-1.142V4.187a1.906,1.906,0,0,0-1.9-1.9H18.142a1.142,1.142,0,0,1,0-2.284h5.329a4.19,4.19,0,0,1,4.187,4.187V9.516A1.142,1.142,0,0,1,26.516,10.658Z" transform="translate(8.883)" fill="#fff"/>
      <path id="Path_4937" data-name="Path 4937" d="M23.471,27.658H18.142a1.142,1.142,0,0,1,0-2.284h5.329a1.906,1.906,0,0,0,1.9-1.9V18.142a1.142,1.142,0,0,1,2.284,0v5.329A4.19,4.19,0,0,1,23.471,27.658Z" transform="translate(8.883 8.883)" fill="#fff"/>
      <path id="Path_4938" data-name="Path 4938" d="M9.516,27.658H4.187A4.19,4.19,0,0,1,0,23.471V18.142a1.142,1.142,0,0,1,2.284,0v5.329a1.906,1.906,0,0,0,1.9,1.9H9.516a1.142,1.142,0,1,1,0,2.284Z" transform="translate(0 8.883)" fill="#fff"/>
      <path id="Path_4939" data-name="Path 4939" d="M1.142,10.658A1.142,1.142,0,0,1,0,9.516V4.187A4.19,4.19,0,0,1,4.187,0H9.516a1.142,1.142,0,0,1,0,2.284H4.187a1.906,1.906,0,0,0-1.9,1.9V9.516A1.142,1.142,0,0,1,1.142,10.658Z" fill="#fff"/>
      <path id="Path_4940" data-name="Path 4940" d="M23.651,21.613H7.664A2.667,2.667,0,0,1,5,18.948V15.142a1.142,1.142,0,1,1,2.284,0v3.806a.381.381,0,0,0,.381.381H23.651a.381.381,0,0,0,.381-.381V15.142a1.142,1.142,0,1,1,2.284,0v3.806A2.667,2.667,0,0,1,23.651,21.613Z" transform="translate(2.613 7.316)" fill="#fff"/>
      <path id="Path_4941" data-name="Path 4941" d="M25.174,14.135a1.142,1.142,0,0,1-1.142-1.142V7.664a.381.381,0,0,0-.381-.381H7.664a.381.381,0,0,0-.381.381v5.329a1.142,1.142,0,0,1-2.284,0V7.664A2.667,2.667,0,0,1,7.664,5H23.651a2.667,2.667,0,0,1,2.664,2.664v5.329A1.142,1.142,0,0,1,25.174,14.135Z" transform="translate(2.613 2.613)" fill="#fff"/>
      <path id="Path_4942" data-name="Path 4942" d="M29.264,16.284H4.142a1.142,1.142,0,0,1,0-2.284H29.264a1.142,1.142,0,0,1,0,2.284Z" transform="translate(1.568 7.316)" fill="#fff"/>
    </g>
  </g>
</svg>
