<svg width="44" height="44" viewBox="0 0 44 44" fill="none" xmlns="http://www.w3.org/2000/svg">
<path d="M4.5 3.25C4.16848 3.25 3.85054 3.3817 3.61612 3.61612C3.3817 3.85054 3.25 4.16848 3.25 4.5V17C3.25 17.3315 3.3817 17.6495 3.61612 17.8839C3.85054 18.1183 4.16848 18.25 4.5 18.25H17C17.3315 18.25 17.6495 18.1183 17.8839 17.8839C18.1183 17.6495 18.25 17.3315 18.25 17V4.5C18.25 4.16848 18.1183 3.85054 17.8839 3.61612C17.6495 3.3817 17.3315 3.25 17 3.25H4.5ZM4.5 0.75H17C17.9946 0.75 18.9484 1.14509 19.6517 1.84835C20.3549 2.55161 20.75 3.50544 20.75 4.5V17C20.75 17.9946 20.3549 18.9484 19.6517 19.6517C18.9484 20.3549 17.9946 20.75 17 20.75H4.5C3.50544 20.75 2.55161 20.3549 1.84835 19.6517C1.14509 18.9484 0.75 17.9946 0.75 17V4.5C0.75 3.50544 1.14509 2.55161 1.84835 1.84835C2.55161 1.14509 3.50544 0.75 4.5 0.75ZM8.25 7H13.25C13.5815 7 13.8995 7.1317 14.1339 7.36612C14.3683 7.60054 14.5 7.91848 14.5 8.25V13.25C14.5 13.5815 14.3683 13.8995 14.1339 14.1339C13.8995 14.3683 13.5815 14.5 13.25 14.5H8.25C7.91848 14.5 7.60054 14.3683 7.36612 14.1339C7.1317 13.8995 7 13.5815 7 13.25V8.25C7 7.91848 7.1317 7.60054 7.36612 7.36612C7.60054 7.1317 7.91848 7 8.25 7ZM8.25 29.5H13.25C13.5815 29.5 13.8995 29.6317 14.1339 29.8661C14.3683 30.1005 14.5 30.4185 14.5 30.75V35.75C14.5 36.0815 14.3683 36.3995 14.1339 36.6339C13.8995 36.8683 13.5815 37 13.25 37H8.25C7.91848 37 7.60054 36.8683 7.36612 36.6339C7.1317 36.3995 7 36.0815 7 35.75V30.75C7 30.4185 7.1317 30.1005 7.36612 29.8661C7.60054 29.6317 7.91848 29.5 8.25 29.5ZM30.75 7H35.75C36.0815 7 36.3995 7.1317 36.6339 7.36612C36.8683 7.60054 37 7.91848 37 8.25V13.25C37 13.5815 36.8683 13.8995 36.6339 14.1339C36.3995 14.3683 36.0815 14.5 35.75 14.5H30.75C30.4185 14.5 30.1005 14.3683 29.8661 14.1339C29.6317 13.8995 29.5 13.5815 29.5 13.25V8.25C29.5 7.91848 29.6317 7.60054 29.8661 7.36612C30.1005 7.1317 30.4185 7 30.75 7ZM4.5 25.75C4.16848 25.75 3.85054 25.8817 3.61612 26.1161C3.3817 26.3505 3.25 26.6685 3.25 27V39.5C3.25 39.8315 3.3817 40.1495 3.61612 40.3839C3.85054 40.6183 4.16848 40.75 4.5 40.75H17C17.3315 40.75 17.6495 40.6183 17.8839 40.3839C18.1183 40.1495 18.25 39.8315 18.25 39.5V27C18.25 26.6685 18.1183 26.3505 17.8839 26.1161C17.6495 25.8817 17.3315 25.75 17 25.75H4.5ZM4.5 23.25H17C17.9946 23.25 18.9484 23.6451 19.6517 24.3483C20.3549 25.0516 20.75 26.0054 20.75 27V39.5C20.75 40.4946 20.3549 41.4484 19.6517 42.1516C18.9484 42.8549 17.9946 43.25 17 43.25H4.5C3.50544 43.25 2.55161 42.8549 1.84835 42.1516C1.14509 41.4484 0.75 40.4946 0.75 39.5V27C0.75 26.0054 1.14509 25.0516 1.84835 24.3483C2.55161 23.6451 3.50544 23.25 4.5 23.25ZM27 3.25C26.6685 3.25 26.3505 3.3817 26.1161 3.61612C25.8817 3.85054 25.75 4.16848 25.75 4.5V17C25.75 17.3315 25.8817 17.6495 26.1161 17.8839C26.3505 18.1183 26.6685 18.25 27 18.25H39.5C39.8315 18.25 40.1495 18.1183 40.3839 17.8839C40.6183 17.6495 40.75 17.3315 40.75 17V4.5C40.75 4.16848 40.6183 3.85054 40.3839 3.61612C40.1495 3.3817 39.8315 3.25 39.5 3.25H27ZM27 0.75H39.5C40.4946 0.75 41.4484 1.14509 42.1516 1.84835C42.8549 2.55161 43.25 3.50544 43.25 4.5V17C43.25 17.9946 42.8549 18.9484 42.1516 19.6517C41.4484 20.3549 40.4946 20.75 39.5 20.75H27C26.0054 20.75 25.0516 20.3549 24.3483 19.6517C23.6451 18.9484 23.25 17.9946 23.25 17V4.5C23.25 3.50544 23.6451 2.55161 24.3483 1.84835C25.0516 1.14509 26.0054 0.75 27 0.75ZM39.5 24.5C39.5 24.1685 39.6317 23.8505 39.8661 23.6161C40.1005 23.3817 40.4185 23.25 40.75 23.25C41.0815 23.25 41.3995 23.3817 41.6339 23.6161C41.8683 23.8505 42 24.1685 42 24.5V27.8725C42 28.204 41.8683 28.522 41.6339 28.7564C41.3995 28.9908 41.0815 29.1225 40.75 29.1225C40.4185 29.1225 40.1005 28.9908 39.8661 28.7564C39.6317 28.522 39.5 28.204 39.5 27.8725V24.5ZM39.5 32.02C39.5 31.6885 39.6317 31.3705 39.8661 31.1361C40.1005 30.9017 40.4185 30.77 40.75 30.77C41.0815 30.77 41.3995 30.9017 41.6339 31.1361C41.8683 31.3705 42 31.6885 42 32.02V42C42 42.3315 41.8683 42.6495 41.6339 42.8839C41.3995 43.1183 41.0815 43.25 40.75 43.25C40.4185 43.25 40.1005 43.1183 39.8661 42.8839C39.6317 42.6495 39.5 42.3315 39.5 42V32.02ZM27 42C27 42.3315 26.8683 42.6495 26.6339 42.8839C26.3995 43.1183 26.0815 43.25 25.75 43.25C25.4185 43.25 25.1005 43.1183 24.8661 42.8839C24.6317 42.6495 24.5 42.3315 24.5 42V30.7375C24.5 30.406 24.6317 30.088 24.8661 29.8536C25.1005 29.6192 25.4185 29.4875 25.75 29.4875C26.0815 29.4875 26.3995 29.6192 26.6339 29.8536C26.8683 30.088 27 30.406 27 30.7375V42ZM27 27.115C27 27.4465 26.8683 27.7645 26.6339 27.9989C26.3995 28.2333 26.0815 28.365 25.75 28.365C25.4185 28.365 25.1005 28.2333 24.8661 27.9989C24.6317 27.7645 24.5 27.4465 24.5 27.115V24.5C24.5 24.1685 24.6317 23.8505 24.8661 23.6161C25.1005 23.3817 25.4185 23.25 25.75 23.25C26.0815 23.25 26.3995 23.3817 26.6339 23.6161C26.8683 23.8505 27 24.1685 27 24.5V27.115ZM34.5 42C34.5 42.3315 34.3683 42.6495 34.1339 42.8839C33.8995 43.1183 33.5815 43.25 33.25 43.25C32.9185 43.25 32.6005 43.1183 32.3661 42.8839C32.1317 42.6495 32 42.3315 32 42V35.86C32 35.5285 32.1317 35.2105 32.3661 34.9761C32.6005 34.7417 32.9185 34.61 33.25 34.61C33.5815 34.61 33.8995 34.7417 34.1339 34.9761C34.3683 35.2105 34.5 35.5285 34.5 35.86V42ZM34.5 32.0925C34.5 32.424 34.3683 32.742 34.1339 32.9764C33.8995 33.2108 33.5815 33.3425 33.25 33.3425C32.9185 33.3425 32.6005 33.2108 32.3661 32.9764C32.1317 32.742 32 32.424 32 32.0925V24.5C32 24.1685 32.1317 23.8505 32.3661 23.6161C32.6005 23.3817 32.9185 23.25 33.25 23.25C33.5815 23.25 33.8995 23.3817 34.1339 23.6161C34.3683 23.8505 34.5 24.1685 34.5 24.5V32.0925Z" fill="#979797"/>
</svg>
