<svg xmlns="http://www.w3.org/2000/svg" width="124" height="133" viewBox="0 0 124 133">
  <g id="Group_664" data-name="Group 664" transform="translate(-1050 -471)">
    <circle id="Ellipse_33" data-name="Ellipse 33" cx="62" cy="62" r="62" transform="translate(1050 480)" fill="#f8f8f8"/>
    <g id="book" transform="translate(1068.65 484.94)">
      <path id="Path_226" data-name="Path 226" d="M32.54,83.521H91.922A6.186,6.186,0,0,0,98.1,77.342V32.276a7.121,7.121,0,0,0,3.181-5.929V7.123A7.131,7.131,0,0,0,94.158,0H32.54a6.186,6.186,0,0,0-6.179,6.179v17.1a1.223,1.223,0,1,0,2.447,0V6.179A3.736,3.736,0,0,1,32.54,2.447H87.286v47.5a1.223,1.223,0,1,0,2.447,0V33.47h4.426a7.1,7.1,0,0,0,1.5-.159V77.342a3.736,3.736,0,0,1-3.732,3.732h-2.19V54.836a1.223,1.223,0,1,0-2.447,0V81.074H32.54a3.736,3.736,0,0,1-3.732-3.732V28.168a1.223,1.223,0,0,0-2.447,0V77.342a6.185,6.185,0,0,0,6.179,6.179Zm66.295-76.4V26.347a4.684,4.684,0,0,1-4.676,4.676H89.732V2.447h4.426a4.682,4.682,0,0,1,4.676,4.676Z" transform="translate(-26.361 0)" fill="#d6d3d3"/>
      <path id="Path_227" data-name="Path 227" d="M128.764,47.467H126a4.77,4.77,0,0,0-4.764,4.764v7.258h-7.258a4.77,4.77,0,0,0-4.764,4.764v2.768a4.77,4.77,0,0,0,4.764,4.764h7.258v7.258A4.77,4.77,0,0,0,126,83.809h2.768a4.77,4.77,0,0,0,4.764-4.764V71.786h7.258a4.77,4.77,0,0,0,4.764-4.764V64.254a4.77,4.77,0,0,0-4.764-4.764h-7.258V52.231A4.77,4.77,0,0,0,128.764,47.467Zm12.022,14.469a2.32,2.32,0,0,1,2.318,2.318v2.768a2.32,2.32,0,0,1-2.318,2.318H132.3a1.223,1.223,0,0,0-1.223,1.223v8.482a2.32,2.32,0,0,1-2.318,2.318H126a2.32,2.32,0,0,1-2.318-2.318V70.563a1.223,1.223,0,0,0-1.223-1.223h-8.482a2.32,2.32,0,0,1-2.318-2.318V64.254a2.32,2.32,0,0,1,2.318-2.318h8.482a1.223,1.223,0,0,0,1.223-1.223V52.231A2.32,2.32,0,0,1,126,49.914h2.768a2.32,2.32,0,0,1,2.318,2.318v8.481a1.223,1.223,0,0,0,1.223,1.223Z" transform="translate(-95.694 -31.404)" fill="#d6d3d3"/>
      <path id="Path_228" data-name="Path 228" d="M157.6,291.144H130.137a1.223,1.223,0,0,0,0,2.447H157.6a1.223,1.223,0,1,0,0-2.447Z" transform="translate(-112.185 -235.331)" fill="#d6d3d3"/>
      <path id="Path_229" data-name="Path 229" d="M158.827,335.552a1.223,1.223,0,0,0-1.223-1.223H130.137a1.223,1.223,0,1,0,0,2.447H157.6A1.223,1.223,0,0,0,158.827,335.552Z" transform="translate(-112.185 -271.472)" fill="#d6d3d3"/>
    </g>
    <path id="Polygon_8" data-name="Polygon 8" d="M7,0,8.925,5.075,14,7,8.925,8.925,7,14,5.075,8.925,0,7,5.075,5.075Z" transform="translate(1143 471)" fill="#556ce7"/>
    <path id="Polygon_9" data-name="Polygon 9" d="M7,0,8.925,4.713,14,6.5,8.925,8.287,7,13,5.075,8.287,0,6.5,5.075,4.712Z" transform="translate(1145 494)" fill="#556ce7"/>
    <path id="Polygon_10" data-name="Polygon 10" d="M6.5,0,8.287,5.075,13,7,8.287,8.925,6.5,14,4.713,8.925,0,7,4.713,5.075Z" transform="translate(1157 481)" fill="#556ce7"/>
  </g>
</svg>
