<svg width="44" height="44" viewBox="0 0 44 44" fill="none" xmlns="http://www.w3.org/2000/svg">
<circle cx="22" cy="22" r="22" fill="#E0E2E8"/>
<path d="M31.25 19.375C31 18.25 30.5 17.125 29.875 16.125L31.125 13.5L29.375 11.75L26.75 13C25.75 12.375 24.75 12 23.625 11.75L22.75 9H20.25L19.25 11.75C18.125 12 17.125 12.5 16.125 13.125L13.5 11.875L11.75 13.5L13 16.125C12.375 17.125 12 18.125 11.75 19.25L9 20.25V22.75L11.75 23.75C12 24.875 12.5 26 13 26.875L11.75 29.5L13.5 31.25L16.125 30C17.125 30.625 18.125 31.125 19.25 31.375L20.25 34H22.75L23.75 31.25C24.125 31.125 24.625 31 25 30.875L23 28.875C18.25 29.75 14 26.25 14 21.5C14 17.375 17.375 14 21.5 14C26.125 14 29.625 18.125 28.875 22.5L31 24.625C31.125 24.25 31.25 24 31.25 23.625L34 22.75V20.25L31.25 19.375Z" fill="black"/>
<path d="M33.4995 30.7502L26.1245 23.3752C27.8745 19.5002 24.2495 15.3752 20.2495 16.5002L22.4995 18.7502C23.4995 19.7502 23.4995 21.3752 22.4995 22.2502C21.6245 23.2502 19.8745 23.2502 18.9995 22.2502L16.7495 20.1252C15.6245 23.6252 19.2495 27.6252 23.3745 26.0002L30.7495 33.3752C31.4995 34.1252 32.6245 34.1252 33.3745 33.3752C34.1245 32.7502 34.1245 31.5002 33.4995 30.7502Z" fill="black"/>
</svg>
