<svg width="87" height="87" viewBox="0 0 87 87" fill="none" xmlns="http://www.w3.org/2000/svg">
<path d="M1.2764 18.6112C1.98131 18.6112 2.55279 18.0397 2.55279 17.3348V15.0215H78.0472V27.1139C78.0472 27.8188 78.6185 28.3903 79.3236 28.3903C80.0287 28.3903 80.6 27.8188 80.6 27.1139V5.37993C80.6 2.42362 78.1949 0.0185547 75.2386 0.0185547H5.3612C2.40507 0.0185547 0 2.42362 0 5.37993V17.3348C0 18.0397 0.571485 18.6112 1.2764 18.6112ZM5.3612 2.57135H75.2386C76.7873 2.57135 78.0472 3.83123 78.0472 5.37993V12.4687H2.55279V5.37993C2.55279 3.83123 3.81268 2.57135 5.3612 2.57135Z" fill="#C6C7CC"/>
<path d="M28.1306 78.0647H5.3612C3.81251 78.0647 2.55279 76.8048 2.55279 75.2563V22.7735C2.55279 22.0686 1.98131 21.4971 1.2764 21.4971C0.571485 21.4971 0 22.0686 0 22.7735V75.2563C0 78.2126 2.40507 80.6175 5.3612 80.6175H28.1306C28.8355 80.6175 29.407 80.046 29.407 79.3411C29.407 78.6362 28.8355 78.0647 28.1306 78.0647Z" fill="#C6C7CC"/>
<path d="M81.003 30.9419H37.957C34.6501 30.9419 31.96 33.6322 31.96 36.9391V53.5227C31.96 54.2276 32.5314 54.7991 33.2364 54.7991C33.9413 54.7991 34.5128 54.2276 34.5128 53.5227V44.9567H84.4474V80.9856C84.4474 82.8847 82.9023 84.4299 81.0032 84.4299H37.957C36.0579 84.4299 34.5128 82.8847 34.5128 80.9856V58.9624C34.5128 58.2574 33.9413 57.686 33.2364 57.686C32.5314 57.686 31.96 58.2574 31.96 58.9624V80.9856C31.96 84.2925 34.6503 86.9826 37.957 86.9826H81.003C84.3099 86.9826 87 84.2924 87 80.9856V36.9391C87.0002 33.6322 84.3099 30.9419 81.003 30.9419ZM34.5128 42.4039V36.9391C34.5128 35.0398 36.0579 33.4947 37.957 33.4947H81.003C82.9021 33.4947 84.4472 35.0398 84.4472 36.9391V42.4039H34.5128Z" fill="#C6C7CC"/>
<path d="M7.8223 8.73102H8.78078C9.4857 8.73102 10.0572 8.15953 10.0572 7.45462C10.0572 6.74971 9.4857 6.17822 8.78078 6.17822H7.8223C7.11738 6.17822 6.5459 6.74971 6.5459 7.45462C6.5459 8.15953 7.11738 8.73102 7.8223 8.73102Z" fill="#C6C7CC"/>
<path d="M16.7002 8.73102H17.6587C18.3636 8.73102 18.9351 8.15953 18.9351 7.45462C18.9351 6.74971 18.3636 6.17822 17.6587 6.17822H16.7002C15.9953 6.17822 15.4238 6.74971 15.4238 7.45462C15.4238 8.15953 15.9953 8.73102 16.7002 8.73102Z" fill="#C6C7CC"/>
<path d="M25.5782 8.73102H26.5366C27.2416 8.73102 27.813 8.15953 27.813 7.45462C27.813 6.74971 27.2416 6.17822 26.5366 6.17822H25.5782C24.8732 6.17822 24.3018 6.74971 24.3018 7.45462C24.3018 8.15953 24.8732 8.73102 25.5782 8.73102Z" fill="#C6C7CC"/>
<path d="M74.5134 62.147H69.1388C68.4337 62.147 67.8624 62.7185 67.8624 63.4234C67.8624 64.1283 68.4337 64.6998 69.1388 64.6998H74.5134C76.6586 64.6998 78.4039 62.9545 78.4039 60.8093V55.3904C78.4039 53.2453 76.6586 51.5 74.5134 51.5H44.4463C42.3011 51.5 40.5557 53.2453 40.5557 55.3904V60.8093C40.5557 62.9545 42.3009 64.6998 44.4463 64.6998H63.6993C64.4043 64.6998 64.9757 64.1283 64.9757 63.4234C64.9757 62.7185 64.4043 62.147 63.6993 62.147H44.4463C43.7087 62.147 43.1085 61.5469 43.1085 60.8093V55.3904C43.1085 54.6529 43.7087 54.0528 44.4463 54.0528H74.5136C75.2512 54.0528 75.8512 54.6529 75.8512 55.3904V60.8093C75.8512 61.5469 75.251 62.147 74.5134 62.147Z" fill="#C6C7CC"/>
<path d="M13.4196 25.5367H67.5408C68.2459 25.5367 68.8172 24.9652 68.8172 24.2603C68.8172 23.5554 68.2459 22.9839 67.5408 22.9839H13.4196C11.8604 22.9839 10.5918 24.2525 10.5918 25.8117V41.7292C10.5918 43.2885 11.8604 44.557 13.4196 44.557H24.9186C25.6235 44.557 26.195 43.9855 26.195 43.2806C26.195 42.5757 25.6235 42.0042 24.9186 42.0042H13.4196C13.268 42.0042 13.1446 41.8808 13.1446 41.7292V25.8117C13.1446 25.6601 13.268 25.5367 13.4196 25.5367Z" fill="#C6C7CC"/>
<path d="M24.8755 49.9683H11.8682C11.1633 49.9683 10.5918 50.5397 10.5918 51.2447C10.5918 51.9496 11.1633 52.5211 11.8682 52.5211H24.8755C25.5804 52.5211 26.1519 51.9496 26.1519 51.2447C26.1519 50.5397 25.5804 49.9683 24.8755 49.9683Z" fill="#C6C7CC"/>
<path d="M24.8755 59.5361H11.8682C11.1633 59.5361 10.5918 60.1076 10.5918 60.8125C10.5918 61.5174 11.1633 62.0889 11.8682 62.0889H24.8755C25.5804 62.0889 26.1519 61.5174 26.1519 60.8125C26.1519 60.1076 25.5804 59.5361 24.8755 59.5361Z" fill="#C6C7CC"/>
<path d="M41.8321 75.7213H77.1277C77.8327 75.7213 78.4041 75.1498 78.4041 74.4449C78.4041 73.7399 77.8327 73.1685 77.1277 73.1685H41.8321C41.1271 73.1685 40.5557 73.7399 40.5557 74.4449C40.5557 75.1498 41.1271 75.7213 41.8321 75.7213Z" fill="#C6C7CC"/>
</svg>
