<svg id="Group_1001" data-name="Group 1001" xmlns="http://www.w3.org/2000/svg" width="139.183" height="41.239" viewBox="0 0 139.183 41.239">
  <path id="Path_900" data-name="Path 900" d="M310.443,426.239H180.961A4.988,4.988,0,0,1,176,421.323V389.806A4.894,4.894,0,0,1,180.961,385H310.443a4.707,4.707,0,0,1,4.74,4.806v31.518a4.858,4.858,0,0,1-4.808,4.916Z" transform="translate(-176 -385)" fill="#a6a6a6"/>
  <path id="Path_901" data-name="Path 901" d="M315.146,421.956a3.952,3.952,0,0,1-3.957,3.953H181.707a3.957,3.957,0,0,1-3.961-3.953V390.437a3.962,3.962,0,0,1,3.961-3.958H311.188a3.957,3.957,0,0,1,3.957,3.958v31.519Z" transform="translate(-176.746 -385.632)"/>
  <g id="Group_997" data-name="Group 997" transform="translate(13.283 6.344)">
    <g id="Group_996" data-name="Group 996">
      <path id="Path_902" data-name="Path 902" d="M217.081,414.814a5.983,5.983,0,0,1,2.849-5.02,6.125,6.125,0,0,0-4.826-2.608c-2.03-.213-4,1.215-5.033,1.215-1.054,0-2.647-1.194-4.363-1.159a6.426,6.426,0,0,0-5.408,3.3c-2.338,4.048-.595,10,1.646,13.27,1.12,1.6,2.43,3.392,4.144,3.328,1.677-.069,2.3-1.069,4.327-1.069,2.006,0,2.593,1.069,4.342,1.029,1.8-.029,2.933-1.609,4.015-3.227a13.251,13.251,0,0,0,1.836-3.739A5.78,5.78,0,0,1,217.081,414.814Z" transform="translate(-199.19 -400.813)" fill="#fff"/>
      <path id="Path_903" data-name="Path 903" d="M221.717,400.3a5.89,5.89,0,0,0,1.347-4.22,5.994,5.994,0,0,0-3.878,2.006,5.607,5.607,0,0,0-1.383,4.064A4.957,4.957,0,0,0,221.717,400.3Z" transform="translate(-207.129 -396.076)" fill="#fff"/>
    </g>
  </g>
  <g id="Group_998" data-name="Group 998" transform="translate(43.848 18.503)">
    <path id="Path_904" data-name="Path 904" d="M264.148,431.393h-2.343l-1.284-4.034H256.06l-1.223,4.034h-2.281l4.421-13.733h2.73Zm-4.014-5.726-1.162-3.586q-.184-.55-.693-2.587h-.041q-.2.876-.652,2.587l-1.141,3.586Z" transform="translate(-252.555 -417.456)" fill="#fff"/>
    <path id="Path_905" data-name="Path 905" d="M285.533,429.026a5.629,5.629,0,0,1-1.365,3.993,3.992,3.992,0,0,1-3.036,1.3,3.034,3.034,0,0,1-2.812-1.406h-.041v5.217h-2.2V427.457q0-1.589-.081-3.26h1.935l.123,1.569h.041a3.916,3.916,0,0,1,6.266-.388A5.467,5.467,0,0,1,285.533,429.026Zm-2.241.081a4.081,4.081,0,0,0-.652-2.384,2.253,2.253,0,0,0-1.915-.978,2.287,2.287,0,0,0-1.477.54,2.5,2.5,0,0,0-.866,1.417,2.877,2.877,0,0,0-.1.671v1.651a2.647,2.647,0,0,0,.662,1.824,2.2,2.2,0,0,0,1.722.743,2.252,2.252,0,0,0,1.935-.958A4.219,4.219,0,0,0,283.292,429.107Z" transform="translate(-262.571 -420.162)" fill="#fff"/>
    <path id="Path_906" data-name="Path 906" d="M305.419,429.026a5.625,5.625,0,0,1-1.367,3.993,3.988,3.988,0,0,1-3.035,1.3,3.033,3.033,0,0,1-2.811-1.406h-.041v5.217h-2.2V427.457q0-1.589-.081-3.26h1.935l.123,1.569h.041a3.916,3.916,0,0,1,6.266-.388A5.47,5.47,0,0,1,305.419,429.026Zm-2.241.081a4.077,4.077,0,0,0-.653-2.384,2.251,2.251,0,0,0-1.915-.978,2.288,2.288,0,0,0-1.478.54,2.505,2.505,0,0,0-.865,1.417,2.91,2.91,0,0,0-.1.671v1.651a2.653,2.653,0,0,0,.66,1.824,2.2,2.2,0,0,0,1.723.743,2.253,2.253,0,0,0,1.935-.958A4.223,4.223,0,0,0,303.178,429.107Z" transform="translate(-271.067 -420.162)" fill="#fff"/>
    <path id="Path_907" data-name="Path 907" d="M328.411,427.39a3.658,3.658,0,0,1-1.22,2.852,5.4,5.4,0,0,1-3.741,1.2,6.55,6.55,0,0,1-3.559-.856l.51-1.835a6.023,6.023,0,0,0,3.181.877,3.006,3.006,0,0,0,1.937-.561,1.832,1.832,0,0,0,.691-1.5,1.913,1.913,0,0,0-.57-1.408,5.322,5.322,0,0,0-1.895-1.062q-3.607-1.345-3.606-3.938a3.489,3.489,0,0,1,1.264-2.776,4.986,4.986,0,0,1,3.362-1.082,6.667,6.667,0,0,1,3.116.652l-.55,1.794a5.405,5.405,0,0,0-2.628-.632,2.658,2.658,0,0,0-1.812.571,1.63,1.63,0,0,0-.55,1.243,1.677,1.677,0,0,0,.631,1.345,7.134,7.134,0,0,0,2,1.06,6.779,6.779,0,0,1,2.608,1.67A3.5,3.5,0,0,1,328.411,427.39Z" transform="translate(-281.323 -417.304)" fill="#fff"/>
    <path id="Path_908" data-name="Path 908" d="M342.968,424.16h-2.425v4.808q0,1.833,1.284,1.834a3.977,3.977,0,0,0,.978-.1l.06,1.671a4.976,4.976,0,0,1-1.711.244,2.639,2.639,0,0,1-2.038-.794,3.9,3.9,0,0,1-.734-2.67V424.16h-1.445v-1.651h1.445V420.7l2.16-.652v2.465h2.425Z" transform="translate(-288.606 -418.475)" fill="#fff"/>
    <path id="Path_909" data-name="Path 909" d="M359.336,429.066a5.437,5.437,0,0,1-1.3,3.749,4.658,4.658,0,0,1-3.628,1.508,4.426,4.426,0,0,1-3.473-1.446,5.269,5.269,0,0,1-1.294-3.647,5.379,5.379,0,0,1,1.334-3.769,4.619,4.619,0,0,1,3.6-1.467,4.521,4.521,0,0,1,3.505,1.447A5.217,5.217,0,0,1,359.336,429.066Zm-2.284.072a4.458,4.458,0,0,0-.591-2.35,2.173,2.173,0,0,0-1.975-1.185,2.205,2.205,0,0,0-2.018,1.185,4.54,4.54,0,0,0-.591,2.391,4.453,4.453,0,0,0,.591,2.349,2.248,2.248,0,0,0,3.973-.02A4.464,4.464,0,0,0,357.052,429.138Z" transform="translate(-294.032 -420.162)" fill="#fff"/>
    <path id="Path_910" data-name="Path 910" d="M375.1,426.131a3.832,3.832,0,0,0-.694-.06,2.081,2.081,0,0,0-1.794.877,3.294,3.294,0,0,0-.55,1.955v5.2h-2.2l.02-6.784q0-1.712-.083-3.118h1.917l.081,1.895h.061a3.383,3.383,0,0,1,1.1-1.568,2.663,2.663,0,0,1,1.59-.53,3.467,3.467,0,0,1,.55.04Z" transform="translate(-302.648 -420.162)" fill="#fff"/>
    <path id="Path_911" data-name="Path 911" d="M389.67,428.664a5.181,5.181,0,0,1-.081,1h-6.6a2.873,2.873,0,0,0,.958,2.242,3.267,3.267,0,0,0,2.159.692,7.315,7.315,0,0,0,2.671-.469l.344,1.528a8.263,8.263,0,0,1-3.32.612,4.8,4.8,0,0,1-3.618-1.355,5,5,0,0,1-1.315-3.637,5.673,5.673,0,0,1,1.223-3.729,4.216,4.216,0,0,1,3.463-1.588,3.688,3.688,0,0,1,3.241,1.588A5.352,5.352,0,0,1,389.67,428.664Zm-2.1-.57a3,3,0,0,0-.427-1.691,1.923,1.923,0,0,0-1.754-.917,2.088,2.088,0,0,0-1.752.9,3.28,3.28,0,0,0-.651,1.711Z" transform="translate(-307.374 -420.147)" fill="#fff"/>
  </g>
  <g id="Group_1000" data-name="Group 1000" transform="translate(45.154 6.694)">
    <g id="Group_999" data-name="Group 999">
      <path id="Path_912" data-name="Path 912" d="M260.381,400.475a3.386,3.386,0,0,1-1.092,2.743,4.34,4.34,0,0,1-2.872.851,13.416,13.416,0,0,1-1.583-.08v-6.637a11.622,11.622,0,0,1,1.863-.14,4.017,4.017,0,0,1,2.673.771A3.114,3.114,0,0,1,260.381,400.475Zm-1.141.03a2.2,2.2,0,0,0-2.453-2.442,4.609,4.609,0,0,0-.871.07v5.045a5.835,5.835,0,0,0,.731.03,2.559,2.559,0,0,0,1.916-.691A2.761,2.761,0,0,0,259.24,400.5Z" transform="translate(-254.835 -396.911)" fill="#fff"/>
      <path id="Path_913" data-name="Path 913" d="M271.519,402.9a2.668,2.668,0,0,1-.641,1.842,2.287,2.287,0,0,1-1.782.741,2.177,2.177,0,0,1-1.707-.711,2.591,2.591,0,0,1-.635-1.792,2.644,2.644,0,0,1,.655-1.852,2.27,2.27,0,0,1,1.766-.721,2.225,2.225,0,0,1,1.722.71A2.568,2.568,0,0,1,271.519,402.9Zm-1.121.035a2.2,2.2,0,0,0-.29-1.155,1.068,1.068,0,0,0-.97-.583,1.085,1.085,0,0,0-.992.583,2.241,2.241,0,0,0-.29,1.174,2.2,2.2,0,0,0,.29,1.155,1.105,1.105,0,0,0,1.953-.01A2.189,2.189,0,0,0,270.4,402.938Z" transform="translate(-259.927 -398.278)" fill="#fff"/>
      <path id="Path_914" data-name="Path 914" d="M283.971,400.584l-1.521,4.865h-.991l-.631-2.112a15.709,15.709,0,0,1-.391-1.572h-.019a11.4,11.4,0,0,1-.391,1.572l-.67,2.112h-1l-1.431-4.865h1.112l.55,2.312q.2.821.331,1.562h.019q.121-.61.4-1.552l.691-2.323h.881l.661,2.273q.241.831.39,1.6h.03a15.29,15.29,0,0,1,.331-1.6l.591-2.273Z" transform="translate(-264.272 -398.352)" fill="#fff"/>
      <path id="Path_915" data-name="Path 915" d="M295.836,405.375h-1.081v-2.786q0-1.288-.981-1.288a.974.974,0,0,0-.781.354,1.253,1.253,0,0,0-.3.834v2.886h-1.081V401.9q0-.641-.039-1.392h.95l.05.761h.03a1.559,1.559,0,0,1,.56-.587,1.823,1.823,0,0,1,.981-.273,1.551,1.551,0,0,1,1.132.44,2.139,2.139,0,0,1,.561,1.611Z" transform="translate(-270.53 -398.278)" fill="#fff"/>
      <path id="Path_916" data-name="Path 916" d="M303.418,403.784h-1.08v-7.1h1.08Z" transform="translate(-275.13 -396.687)" fill="#fff"/>
      <path id="Path_917" data-name="Path 917" d="M311.786,402.9a2.665,2.665,0,0,1-.641,1.842,2.287,2.287,0,0,1-1.781.741,2.175,2.175,0,0,1-1.707-.711,2.591,2.591,0,0,1-.635-1.792,2.646,2.646,0,0,1,.655-1.852,2.27,2.27,0,0,1,1.766-.721,2.229,2.229,0,0,1,1.723.71A2.57,2.57,0,0,1,311.786,402.9Zm-1.123.035a2.2,2.2,0,0,0-.29-1.155,1.067,1.067,0,0,0-.97-.583,1.082,1.082,0,0,0-.991.583,2.236,2.236,0,0,0-.29,1.174,2.2,2.2,0,0,0,.29,1.155,1.091,1.091,0,0,0,.982.582,1.079,1.079,0,0,0,.969-.592A2.178,2.178,0,0,0,310.663,402.938Z" transform="translate(-277.131 -398.278)" fill="#fff"/>
      <path id="Path_918" data-name="Path 918" d="M321.5,405.375h-.971l-.081-.56h-.03a1.667,1.667,0,0,1-1.421.671,1.464,1.464,0,0,1-1.111-.441,1.379,1.379,0,0,1-.381-.99,1.514,1.514,0,0,1,.746-1.362,3.885,3.885,0,0,1,2.1-.461v-.09q0-.961-1.01-.961a2.259,2.259,0,0,0-1.268.36l-.22-.71a3.114,3.114,0,0,1,1.669-.42q1.907,0,1.908,2.012v1.792A7.674,7.674,0,0,0,321.5,405.375Zm-1.123-1.672v-.75q-1.79-.03-1.79.981a.734.734,0,0,0,.208.571.757.757,0,0,0,.528.19,1.086,1.086,0,0,0,.661-.225.92.92,0,0,0,.375-.576A.879.879,0,0,0,320.377,403.7Z" transform="translate(-281.61 -398.278)" fill="#fff"/>
      <path id="Path_919" data-name="Path 919" d="M331.745,403.784h-.959l-.05-.781h-.03a1.617,1.617,0,0,1-1.562.891,1.829,1.829,0,0,1-1.461-.691,2.69,2.69,0,0,1-.581-1.792,2.814,2.814,0,0,1,.631-1.911,1.936,1.936,0,0,1,1.5-.681,1.459,1.459,0,0,1,1.371.66h.02v-2.793h1.083v5.786C331.707,402.947,331.719,403.384,331.745,403.784Zm-1.121-2.052v-.811a1.56,1.56,0,0,0-.03-.34,1.233,1.233,0,0,0-.391-.656,1.061,1.061,0,0,0-.724-.266,1.109,1.109,0,0,0-.951.481,2.057,2.057,0,0,0-.347,1.231,1.923,1.923,0,0,0,.333,1.171,1.113,1.113,0,0,0,.945.481,1.043,1.043,0,0,0,.855-.4A1.337,1.337,0,0,0,330.624,401.733Z" transform="translate(-285.709 -396.687)" fill="#fff"/>
      <path id="Path_920" data-name="Path 920" d="M347.8,402.9a2.668,2.668,0,0,1-.641,1.842,2.285,2.285,0,0,1-1.782.741,2.181,2.181,0,0,1-1.707-.711,2.59,2.59,0,0,1-.635-1.792,2.646,2.646,0,0,1,.655-1.852,2.273,2.273,0,0,1,1.768-.721,2.225,2.225,0,0,1,1.721.71A2.571,2.571,0,0,1,347.8,402.9Zm-1.121.035a2.2,2.2,0,0,0-.29-1.155,1.07,1.07,0,0,0-.972-.583,1.087,1.087,0,0,0-.991.583,2.235,2.235,0,0,0-.29,1.174,2.2,2.2,0,0,0,.29,1.155,1.106,1.106,0,0,0,1.953-.01A2.2,2.2,0,0,0,346.683,402.938Z" transform="translate(-292.519 -398.278)" fill="#fff"/>
      <path id="Path_921" data-name="Path 921" d="M358.331,405.375h-1.08v-2.786q0-1.288-.982-1.288a.972.972,0,0,0-.78.354,1.253,1.253,0,0,0-.3.834v2.886h-1.083V401.9q0-.641-.038-1.392h.949l.05.761h.03a1.572,1.572,0,0,1,.56-.587,1.827,1.827,0,0,1,.982-.273,1.553,1.553,0,0,1,1.131.44,2.136,2.136,0,0,1,.56,1.611Z" transform="translate(-297.231 -398.278)" fill="#fff"/>
      <path id="Path_922" data-name="Path 922" d="M372.007,400.492h-1.191v2.363c0,.6.211.9.631.9a1.918,1.918,0,0,0,.482-.05l.028.821a2.436,2.436,0,0,1-.84.12,1.292,1.292,0,0,1-1-.39,1.9,1.9,0,0,1-.361-1.312v-2.453h-.712v-.811h.712v-.891l1.06-.32v1.211h1.191Z" transform="translate(-303.629 -397.449)" fill="#fff"/>
      <path id="Path_923" data-name="Path 923" d="M381.064,403.784h-1.083v-2.766q0-1.308-.979-1.308a1.032,1.032,0,0,0-1.032.758,1.36,1.36,0,0,0-.05.389v2.926h-1.08v-7.1h1.08v2.932h.02a1.636,1.636,0,0,1,1.462-.8,1.509,1.509,0,0,1,1.112.44,2.212,2.212,0,0,1,.55,1.632Z" transform="translate(-306.959 -396.687)" fill="#fff"/>
      <path id="Path_924" data-name="Path 924" d="M391.3,402.7a2.579,2.579,0,0,1-.041.49h-3.243a1.418,1.418,0,0,0,.47,1.1,1.611,1.611,0,0,0,1.063.341,3.6,3.6,0,0,0,1.312-.23l.169.75a4.066,4.066,0,0,1-1.632.3,2.355,2.355,0,0,1-1.776-.666,2.452,2.452,0,0,1-.646-1.787,2.788,2.788,0,0,1,.6-1.832,2.068,2.068,0,0,1,1.7-.781,1.809,1.809,0,0,1,1.591.781A2.616,2.616,0,0,1,391.3,402.7Zm-1.032-.281a1.453,1.453,0,0,0-.21-.831.944.944,0,0,0-.861-.451,1.026,1.026,0,0,0-.86.44,1.631,1.631,0,0,0-.321.841Z" transform="translate(-311.29 -398.27)" fill="#fff"/>
    </g>
  </g>
</svg>
