<svg id="Layer_1" data-name="Layer 1" xmlns="http://www.w3.org/2000/svg" viewBox="0 0 108 42"><defs><style>.cls-1{fill:#fff;}</style></defs><title>Untitled-11</title><path class="cls-1" d="M6.3,32.1a11.7,11.7,0,0,1-4.6-4.5A13.5,13.5,0,0,1,0,21a13,13,0,0,1,1.7-6.6A11.7,11.7,0,0,1,6.3,9.9,13.6,13.6,0,0,1,13,8.2a13.9,13.9,0,0,1,5.7,1.2,12.8,12.8,0,0,1,4.5,3.4l-3.7,3a7.3,7.3,0,0,0-2.9-2.3,9.3,9.3,0,0,0-3.5-.8,6.5,6.5,0,0,0-4,1.1,6.9,6.9,0,0,0-2.7,2.9A9.7,9.7,0,0,0,5.5,21a8.7,8.7,0,0,0,1,4.2,7,7,0,0,0,2.6,3A7.1,7.1,0,0,0,13,29.3a9.4,9.4,0,0,0,3-.5,4.3,4.3,0,0,0,2-1.2V23.7H12.8V19.5H23.3v9.6c-2.4,3.1-5.8,4.7-10.4,4.7A13,13,0,0,1,6.3,32.1Z"/><path class="cls-1" d="M51.1,32.6a11.7,11.7,0,0,1-3.4-2.2l2.1-3.6a9.5,9.5,0,0,0,2.7,1.7,8.8,8.8,0,0,0,3.3.6,4.4,4.4,0,0,0,2.9-.7,2.1,2.1,0,0,0,.9-1.7,2.3,2.3,0,0,0-.4-1.4,3.2,3.2,0,0,0-1.2-1l-2.5-1-1.8-.5a12,12,0,0,1-4.5-2.5c-1.2-1-1.7-2.5-1.7-4.6a7.7,7.7,0,0,1,1.1-4A9.1,9.1,0,0,1,51.7,9a11.6,11.6,0,0,1,4.7-.9,10.7,10.7,0,0,1,4.3.9,9.8,9.8,0,0,1,3.4,1.9l-2.3,3.8a12.2,12.2,0,0,0-2.6-1.6,6.5,6.5,0,0,0-2.9-.6,4.4,4.4,0,0,0-2.5.7A2.5,2.5,0,0,0,53,15a2,2,0,0,0,.3,1.1,1.9,1.9,0,0,0,.9.9l2.1.9,1.8.5a13.2,13.2,0,0,1,5.1,2.9,6.3,6.3,0,0,1,1.9,5,6.4,6.4,0,0,1-1,3.5A6.3,6.3,0,0,1,61,32.5a10.4,10.4,0,0,1-4.9,1.1A11.5,11.5,0,0,1,51.1,32.6Z"/><polygon class="cls-1" points="67.5 16.1 79.7 16.1 79.7 19.3 71.3 19.3 71.3 23.2 78.9 23.2 78.9 26.3 71.3 26.3 71.3 30.5 79.8 30.5 79.8 33.6 67.5 33.6 67.5 16.1"/><polygon class="cls-1" points="83 16.1 86.8 16.1 86.8 30.5 94.3 30.5 94.3 33.6 83 33.6 83 16.1"/><polygon class="cls-1" points="96.7 16.1 100.5 16.1 100.5 30.5 108 30.5 108 33.6 96.7 33.6 96.7 16.1"/><path class="cls-1" d="M50.5,0h-.1L48.5.4a7.3,7.3,0,0,0-3.4,2.4L42.5,6.4l-.2.2H40.2l-.9,1.5c-.1.1-.1.2.1.2h1.5c.2.1.2.1.2.2s.1.1,0,.2a.8.8,0,0,1-.1.4h0a.2.2,0,0,0,0,.3,68.7,68.7,0,0,0-4.1,5.8H35.5a10,10,0,0,0-5,1.2A8.3,8.3,0,0,0,27.1,20a9.5,9.5,0,0,0-1.2,4.8V25h0a9.5,9.5,0,0,0,1.2,4.8,5.5,5.5,0,0,0,1.3,1.7.2.2,0,0,0,.2.2c-1.4,4.2-1.7,7.2-.9,8.8a2.8,2.8,0,0,0,1.8,1.4h1c3.6,0,6.2-4.4,6.3-4.6a.4.4,0,0,0-.1-.3h-.1c-.1,0-.2,0-.2.1s-3.5,3.4-5.6,3.4a2.3,2.3,0,0,1-1.6-.6c-.8-.8-.6-3.5.6-7.3l.3.2.4.2.5.2c0,.1.1.1.2.1h.2a16,16,0,0,0-.2,4.1,18.7,18.7,0,0,1,.8-3.9h.5a13.9,13.9,0,0,0,3,.3,10.2,10.2,0,0,0,5-1.1,9,9,0,0,0,3.4-3.3A9.5,9.5,0,0,0,45.1,25h0v-.2A9.5,9.5,0,0,0,43.9,20a7.8,7.8,0,0,0-2.4-2.7c-.7.9-1.4,2-2.1,3a7.1,7.1,0,0,1,1,1.4,7.4,7.4,0,0,1,.7,3.1,6.6,6.6,0,0,1-.8,3.2,4.8,4.8,0,0,1-1.9,2.1,5.7,5.7,0,0,1-2.9.8,5.8,5.8,0,0,1-1.9-.3h-.5a31.7,31.7,0,0,1,2.3-4.9c.8-1.4,2.2-3.5,3.6-5.5s1.4-2.1,2.1-3l2.8-4-2.5,1.5L40,16.4l-2,2.9c-1.1,1.7-2.4,3.8-3.7,6.3A30.7,30.7,0,0,0,32.4,30l-.2-.2H32l-.5-.5a.2.2,0,0,1-.2-.2,62.8,62.8,0,0,1,4.3-7.8L37.1,19h.5l1.9-2.8h-.4l3.5-4.9a.2.2,0,0,0,.3,0H43l.5-.3a.2.2,0,0,1,.3.1c.2.5.3,1,.5,1.5s.1.2.2.1l1.3-1.2v-.2a13.6,13.6,0,0,0-.2-2V9c.9-.9,1.8-1.9,2.8-2.8a7.5,7.5,0,0,0,1.8-3.4A7.5,7.5,0,0,0,50.5.7ZM29.9,24.8a7.4,7.4,0,0,1,.7-3.1,5.3,5.3,0,0,1,2-2.2l1.9-.7h.3a74,74,0,0,0-4.5,8.4.8.8,0,0,1-.1-.4,4.7,4.7,0,0,1-.3-1.7h0ZM46.6,4.2l.2.3a.5.5,0,0,0,.4.2h.2l.3-.4L47.2,4l.4-.4.9.8-.7.9A1.6,1.6,0,0,1,46.5,5L46,4.3a2.2,2.2,0,0,1-.1-.8,2.5,2.5,0,0,1,.4-.7l.6-.5h.8l.7.4c.2.2.4.3.5.6a1.3,1.3,0,0,1,.1.6h-.5c0-.2-.1-.3-.1-.4L48.1,3l-.4-.2h-.5l-.4.3c-.1.2-.2.3-.2.5A.4.4,0,0,0,46.6,4.2Z"/></svg>