<svg id="Layer_1" data-name="Layer 1" xmlns="http://www.w3.org/2000/svg" viewBox="0 0 149.2 58"><defs><style>.cls-1{fill:#322e7a;}</style></defs><title>GoSell-ColorLogo(58px)</title><path class="cls-1" d="M8.7,44.3A16.2,16.2,0,0,1,2.3,38,18,18,0,0,1,0,29a18.1,18.1,0,0,1,2.3-9.1,16.4,16.4,0,0,1,6.5-6.3A18.7,18.7,0,0,1,18,11.4,19.6,19.6,0,0,1,25.9,13,15.9,15.9,0,0,1,32,17.7l-5.1,4.1a10.5,10.5,0,0,0-4-3.2A12.1,12.1,0,0,0,18,17.5,10.1,10.1,0,0,0,12.5,19a9.3,9.3,0,0,0-3.6,4,14.3,14.3,0,0,0-1.3,6,14.1,14.1,0,0,0,1.3,5.8,10.5,10.5,0,0,0,3.7,4.1,9.5,9.5,0,0,0,5.3,1.6,14.2,14.2,0,0,0,4.2-.7,7,7,0,0,0,2.8-1.7V32.8H17.7V27H32.2V40.2c-3.3,4.3-8.1,6.4-14.4,6.4A17.4,17.4,0,0,1,8.7,44.3Z"/><path class="cls-1" d="M70.6,45a14.7,14.7,0,0,1-4.7-3l2.8-5a13.8,13.8,0,0,0,3.8,2.3,11.4,11.4,0,0,0,4.6.9,5.9,5.9,0,0,0,3.9-1,3.2,3.2,0,0,0,1.3-2.3,3.6,3.6,0,0,0-.5-1.9,4.1,4.1,0,0,0-1.7-1.4,22.7,22.7,0,0,0-3.5-1.4l-2.4-.7A15.7,15.7,0,0,1,67.9,28c-1.6-1.4-2.3-3.5-2.3-6.3a9.6,9.6,0,0,1,5.9-9.2,14.4,14.4,0,0,1,6.4-1.3,16.1,16.1,0,0,1,6,1.2,16.4,16.4,0,0,1,4.6,2.7l-3.2,5.2a15.4,15.4,0,0,0-3.5-2.2,10.2,10.2,0,0,0-4-.8,5,5,0,0,0-3.5,1,3.4,3.4,0,0,0-.8,3.9,3.8,3.8,0,0,0,1.3,1.2l2.9,1.3,2.5.7a17.9,17.9,0,0,1,7.1,4c1.8,1.6,2.6,3.9,2.6,6.9a8.7,8.7,0,0,1-1.4,4.9,9.6,9.6,0,0,1-4.2,3.7,14.7,14.7,0,0,1-6.9,1.5A16.5,16.5,0,0,1,70.6,45Z"/><polygon class="cls-1" points="93.2 22.3 110.1 22.3 110.1 26.6 98.5 26.6 98.5 32 108.9 32 108.9 36.4 98.4 36.4 98.4 42.1 110.3 42.1 110.2 46.4 93.2 46.4 93.2 22.3"/><polygon class="cls-1" points="114.6 22.3 119.9 22.3 119.9 42.1 130.3 42.1 130.3 46.4 114.6 46.4 114.6 22.3"/><polygon class="cls-1" points="133.5 22.3 138.8 22.3 138.7 42.1 149.2 42.1 149.1 46.4 133.5 46.4 133.5 22.3"/><path class="cls-1" d="M69.8,0h-.2A12.2,12.2,0,0,0,67,.6a9.5,9.5,0,0,0-4.7,3.2L58.7,8.9l-.2.2-2.7.2h-.3l-1.2,2c-.2.2-.1.3.1.3l2.1.2c.2.1.3.1.3.3v.2a4.3,4.3,0,0,1-.1.5v.2a.5.5,0,0,0,0,.5c-2,2.6-3.9,5.3-5.7,8H49a14.1,14.1,0,0,0-6.9,1.6,11.3,11.3,0,0,0-4.7,4.5,13.3,13.3,0,0,0-1.7,6.7v.2h0a13.6,13.6,0,0,0,1.7,6.7,10.8,10.8,0,0,0,1.8,2.4l.2.2c-1.8,5.8-2.2,9.9-1.1,12.1a3.6,3.6,0,0,0,2.4,1.9l1.4.2c4.9,0,8.5-6,8.7-6.3a.4.4,0,0,0-.1-.5h-.5c-1.2,1.5-4.7,4.8-7.7,4.8a3.1,3.1,0,0,1-2.2-.9c-1-1.1-.8-4.8.9-10l.3.2.6.3.6.3.4.2h.3a19.9,19.9,0,0,0-.3,5.6,24.5,24.5,0,0,1,1.1-5.3h.6a18.6,18.6,0,0,0,4.2.5,14.1,14.1,0,0,0,6.9-1.6,12,12,0,0,0,4.7-4.5,13.6,13.6,0,0,0,1.7-6.7h0v-.2a13.3,13.3,0,0,0-1.7-6.7,11.7,11.7,0,0,0-3.3-3.7L54.4,28a8,8,0,0,1,1.3,1.9,9.2,9.2,0,0,1,1,4.4,8.5,8.5,0,0,1-1,4.3,6.6,6.6,0,0,1-2.7,3,7.7,7.7,0,0,1-4,1,7.5,7.5,0,0,1-2.6-.4h-.7a46.4,46.4,0,0,1,3.1-6.7c1.2-2.1,3.1-4.9,5.1-7.7l2.8-4.1L60.6,18l-3.4,2.1a32.5,32.5,0,0,0-2,2.6c-.7,1-1.7,2.4-2.7,4a96.7,96.7,0,0,0-5.1,8.7,37.6,37.6,0,0,0-2.7,6l-.3-.2-.3-.2-.6-.6-.3-.3a80.5,80.5,0,0,1,6-10.8,32.8,32.8,0,0,1,2-3.1h.7c1-1.6,1.9-2.9,2.7-4h-.7c1.9-2.6,3.5-4.8,5-6.7h.4L60,15c.2-.1.5,0,.5.2s.5,1.4.7,2,.1.3.3.1l1.7-1.6c.1,0,.1-.2.1-.3L63,12.7c0-.1,0-.2.1-.2l3.8-4a10.1,10.1,0,0,0,2.6-4.6,15.3,15.3,0,0,0,.3-3ZM41.3,34.3a9.2,9.2,0,0,1,1-4.4A6.9,6.9,0,0,1,45,27a7.9,7.9,0,0,1,2.7-1h.4a103.4,103.4,0,0,0-6.3,11.5c-.1-.1-.1-.3-.2-.5a16,16,0,0,1-.3-2.3v-.4Zm23-28.6.4.6.4.2h.4l.4-.5-.7-.5.5-.6L67,6.1,66,7.3a1.8,1.8,0,0,1-1.8-.5,2.2,2.2,0,0,1-.7-.9,3.4,3.4,0,0,1-.1-1,1.9,1.9,0,0,1,.5-1,1.8,1.8,0,0,1,.9-.7,2.1,2.1,0,0,1,1.1-.1,2.4,2.4,0,0,1,1,.5,1.6,1.6,0,0,1,.6.8c.2.2.2.5.2.9h-.8a1.3,1.3,0,0,0-.1-.6l-.4-.4a.9.9,0,0,0-.6-.3h-.6l-.6.4a.9.9,0,0,0-.3.7A.6.6,0,0,0,64.3,5.7Z"/></svg>