<?xml version="1.0" encoding="UTF-8"?>
<svg width="29px" height="26px" viewBox="0 0 29 26" version="1.1" xmlns="http://www.w3.org/2000/svg" xmlns:xlink="http://www.w3.org/1999/xlink">
    <!-- Generator: sketchtool 53.2 (72643) - https://sketchapp.com -->
    <title>DF28F05D-3930-441D-9D68-D8ED7DA03CF1</title>
    <desc>Created with sketchtool.</desc>
    <defs>
        <filter x="-20.2%" y="-20.2%" width="140.5%" height="140.5%" filterUnits="objectBoundingBox" id="filter-1">
            <feOffset dx="0" dy="1" in="SourceAlpha" result="shadowOffsetOuter1"></feOffset>
            <feGaussianBlur stdDeviation="1" in="shadowOffsetOuter1" result="shadowBlurOuter1"></feGaussianBlur>
            <feColorMatrix values="0 0 0 0 0   0 0 0 0 0   0 0 0 0 0  0 0 0 0.2 0" type="matrix" in="shadowBlurOuter1" result="shadowMatrixOuter1"></feColorMatrix>
            <feMerge>
                <feMergeNode in="shadowMatrixOuter1"></feMergeNode>
                <feMergeNode in="SourceGraphic"></feMergeNode>
            </feMerge>
        </filter>
    </defs>
    <g id="Page-1" stroke="none" stroke-width="1" fill="none" fill-rule="evenodd">
        <g id="Products-ProductList" transform="translate(-1097.000000, -311.000000)" fill="#FFFFFF" fill-rule="nonzero">
            <g id="Logo/YourShop" transform="translate(1090.000000, 302.000000)">
                <g filter="url(#filter-1)" id="Storefront">
                    <path d="M9.33333333,19.2086022 C9.33333333,20.4508114 10.2957999,21.4857981 11.59375,21.7842854 L11.59375,30.5541219 L10.0868056,30.5541219 C9.67178364,30.5541219 9.33333333,30.8526091 9.33333333,31.2215054 C9.33333333,31.5904016 9.67183073,31.8888889 10.0868056,31.8888889 L32.6909722,31.8888889 C33.1089138,31.8888889 33.4444444,31.5904016 33.4444444,31.2215054 C33.4444444,30.8526091 33.1089138,30.5541219 32.6909722,30.5541219 L31.1840278,30.5541219 L31.1840278,21.7842854 C32.4819779,21.4857981 33.4444444,20.4508114 33.4444444,19.2086022 L33.4444444,18.5412186 L9.33333333,18.5412186 L9.33333333,19.2086022 Z M24.1111111,21.8884672 C25.8307292,21.8884672 27.2222222,20.7042851 27.2222222,19.2437276 C27.2222222,20.4743993 28.2157361,21.4997731 29.5555556,21.7954881 L29.5555556,30.483871 L17.8888889,30.483871 L17.8888889,21.8884672 C19.6085069,21.8884672 21,20.7042851 21,19.2437276 C21,20.7042851 22.3945556,21.8884672 24.1111111,21.8884672 Z M17.8888889,21.7954881 L17.8888889,30.483871 L13.2222222,30.483871 L13.2222222,21.7954881 C14.5620903,21.4997731 15.5555556,20.4743993 15.5555556,19.2437276 C15.5555556,20.4743993 16.5490694,21.4997731 17.8888889,21.7954881 Z M30.4305556,12.218638 L12.3472222,12.218638 L9.33333333,17.8387097 L33.4444444,17.8387097 L30.4305556,12.218638 Z M15.5152573,13.4280648 L13.9597155,16.2387858 C13.8898134,16.3623258 13.7531201,16.4336918 13.6103019,16.4336918 C13.5525525,16.4336918 13.4933446,16.4227124 13.4371021,16.3966254 C13.2456732,16.3101518 13.1666809,16.0988207 13.2639022,15.9258735 L14.819444,13.1151525 C14.9166654,12.9422054 15.149073,12.8722448 15.3405019,12.957313 C15.5334863,13.0437866 15.6094161,13.2551177 15.5152573,13.4280648 Z M18.6263684,13.4280648 L17.0708266,16.2387858 C17.0009245,16.3623258 16.8642312,16.4336918 16.7214131,16.4336918 C16.6636636,16.4336918 16.6044558,16.4227124 16.5482132,16.3966254 C16.3567843,16.3101518 16.277792,16.0988207 16.3750133,15.9258735 L17.9305551,13.1151525 C18.0277765,12.9422054 18.2617397,12.8722448 18.451613,12.957313 C18.6445974,13.0437866 18.7205273,13.2551177 18.6263684,13.4280648 Z M21.7777778,16.0824373 C21.7777778,16.2772957 21.604625,16.4336918 21.3888889,16.4336918 C21.1747083,16.4336918 21,16.2772518 21,16.0824373 L21,13.2724014 C21,13.077543 21.1747083,12.921147 21.3888889,12.921147 C21.604625,12.921147 21.7777778,13.0775869 21.7777778,13.2724014 L21.7777778,16.0824373 Z M26.2549075,16.3897831 C26.1977188,16.4199923 26.1376935,16.4336918 26.0776224,16.4336918 C25.9489706,16.4336918 25.8231554,16.3678288 25.7573655,16.2512073 L24.1560807,13.4410524 C24.0588598,13.2709063 24.124604,13.0568516 24.3019349,12.9649068 C24.4763834,12.8716009 24.7022561,12.9319753 24.7994769,13.1034826 L26.4007617,15.9136375 C26.4951003,16.0837836 26.4321926,16.2978383 26.2549075,16.3897831 Z M29.3390475,16.3966344 C29.2844065,16.4227151 29.2266543,16.4336918 29.1658881,16.4336918 C29.0230631,16.4336918 28.8863634,16.3623432 28.8195206,16.2388335 L27.2639054,13.4287998 C27.1666795,13.2558949 27.2456755,13.0446155 27.4370648,12.958163 C27.6254401,12.8717106 27.8624284,12.941698 27.9596543,13.115964 L29.5152695,15.9259977 C29.6094814,16.0989026 29.5334994,16.3102259 29.3390475,16.3966344 Z M15.9444444,26.3758181 L15.9444444,24.7567545 C15.7165556,24.6332885 15.5555556,24.4191989 15.5555556,24.1612903 C15.5555556,23.7729785 15.9049722,23.4587814 16.3333333,23.4587814 C16.7647569,23.4587814 17.1111111,23.7729785 17.1111111,24.1612903 C17.1111111,24.4192428 16.9516181,24.6332885 16.7222222,24.7567545 L16.7222222,26.3758181 C16.9516181,26.499328 17.1111111,26.7133737 17.1111111,26.9713262 C17.1111111,27.359638 16.7647569,27.6738351 16.3333333,27.6738351 C15.9049236,27.6738351 15.5555556,27.359638 15.5555556,26.9713262 C15.5555556,26.7133297 15.7166042,26.4992841 15.9444444,26.3758181 Z M12.4444444,10.8136201 C12.4444444,10.4253082 12.7793021,10.1111111 13.1898148,10.1111111 L29.587963,10.1111111 C30.0014106,10.1111111 30.3333333,10.4253082 30.3333333,10.8136201 C30.3333333,11.2019319 30.0014106,11.516129 29.587963,11.516129 L13.1898148,11.516129 C12.7793021,11.516129 12.4444444,11.2019319 12.4444444,10.8136201 Z M23.0222057,24.8637993 L22.5555556,24.442279 L24.4222387,22.7562724 L24.8888889,23.1777927 L23.0222057,24.8637993 Z M22.2962759,26.9713262 L21.7777778,26.5029685 L25.9259463,22.7562724 L26.4444444,23.2246301 L22.2962759,26.9713262 Z M25.9777943,24.8637993 L26.4444444,25.2853196 L24.5777613,26.9713262 L24.1111111,26.5498059 L25.9777943,24.8637993 Z"></path>
                </g>
            </g>
        </g>
    </g>
</svg>