<svg xmlns="http://www.w3.org/2000/svg" width="21.94" height="19.289" viewBox="0 0 21.94 19.289">
  <g id="chat-box" transform="translate(0 -30.94)">
    <path id="Path_51" data-name="Path 51" d="M20.012,36.088H18.665a8.36,8.36,0,0,0-15.413,0H1.928A1.93,1.93,0,0,0,0,38.016v2.571a1.93,1.93,0,0,0,1.928,1.928h2.64l-.276-.843a7.08,7.08,0,1,1,13.347-4.73l.005.014a5.568,5.568,0,0,1,.3,1.174,7.075,7.075,0,0,1-.317,3.523l0,.008a7.057,7.057,0,0,1-6.643,4.711A1.928,1.928,0,1,0,12.9,48.3v-.867a8.345,8.345,0,0,0,5.759-4.918h1.355a1.93,1.93,0,0,0,1.928-1.928V38.016A1.93,1.93,0,0,0,20.012,36.088Z" transform="translate(0 0)" fill="#3e3f42"/>
    <path id="Path_52" data-name="Path 52" d="M121,101.344v1.286h5.785a5.784,5.784,0,1,0-4.55-2.211A1.278,1.278,0,0,1,121,101.344Zm7.713-5.142H130v1.286h-1.286Zm-2.571,0h1.286v1.286h-1.286Zm-2.571,0h1.286v1.286h-1.286Z" transform="translate(-115.815 -57.543)" fill="#3e3f42"/>
  </g>
</svg>
