<svg xmlns="http://www.w3.org/2000/svg" width="14.339" height="12.213" viewBox="0 0 14.339 12.213">
  <path id="Icon_map-general-contractor" data-name="Icon map-general-contractor" d="M11.022,8.445a.151.151,0,0,1-.145-.157V5.929c0-.093-.04-.169-.114-.169H5.016c-.074,0-.114.076-.114.169V8.288a.148.148,0,0,1-.155.144H.854c-.073,0-.134.1-.134.194v2.622c0,.092.061.237.134.237H7.123c.074,0,.169-.145.169-.237v-.559c0-.093.027-.348.1-.348h.992c.074,0,.1.255.1.348v.559c0,.092.094.237.168.237h6.269c.075,0,.135-.145.135-.237V8.626c0-.092-.06-.194-.135-.194H11.032Zm-5.2-.013c-.074,0-.028-.051-.028-.144V6.947c0-.094-.046-.042.028-.042H9.953c.074,0,.028-.051.028.042V8.288c0,.093.046.144-.028.144H5.826ZM8.5,14.047c0,.092-.044.11-.118.11H7.394c-.074,0-.1.041-.1-.052V12.22c0-.092-.094-.354-.168-.354H.854c-.073,0-.134.261-.134.354V17.8a.156.156,0,0,0,.134.169h14.07a.155.155,0,0,0,.135-.169V12.22c0-.092-.06-.354-.135-.354H8.655c-.074,0-.168.261-.168.354v1.885l.016-.058Z" transform="translate(-0.72 -5.76)" fill="#3e3f42"/>
</svg>
