<?xml version="1.0" encoding="UTF-8"?>
<svg width="80px" height="80px" viewBox="0 0 80 80" version="1.1" xmlns="http://www.w3.org/2000/svg">
    <!-- Generator: sketchtool 53.2 (72643) - https://sketchapp.com -->
    <title>042872A5-AF76-4AC3-AFA2-C5540A6411E1</title>
    <desc>Created with sketchtool.</desc>
    <g id="v1.0" stroke="none" stroke-width="1" fill="none" fill-rule="evenodd">
        <g id="LiveChat-5.1-v1.0" transform="translate(-1053.000000, -382.000000)">
            <g id="Group-19" transform="translate(905.000000, 70.000000)">
                <g id="icom-empty-customerdetails-copy" transform="translate(148.000000, 312.000000)">
                    <circle id="Oval-Copy-2" fill="#F4F5F7" cx="40" cy="40" r="40"></circle>
                    <g id="profiles" transform="translate(24.000000, 20.800000)" fill="#DADADA" fill-rule="nonzero">
                        <path d="M28.8832889,0 L2.74995556,0 C1.27955556,0 0.0832888889,1.19626667 0.0832888889,2.66666667 L0.0832888889,11.7333333 C0.0832888889,12.2242667 0.481333333,12.6222222 0.972177778,12.6222222 C1.46302222,12.6222222 1.86106667,12.2242667 1.86106667,11.7333333 L1.86106667,2.66666667 C1.86106667,2.17653333 2.25982222,1.77777778 2.74995556,1.77777778 L28.8832889,1.77777778 C29.3734222,1.77777778 29.7721778,2.17653333 29.7721778,2.66666667 L29.7721778,35.7333333 C29.7721778,36.2234667 29.3734222,36.6222222 28.8832889,36.6222222 L2.74995556,36.6222222 C2.25982222,36.6222222 1.86106667,36.2234667 1.86106667,35.7333333 L1.86106667,19.2296 C1.86106667,18.7386667 1.46302222,18.3407111 0.972177778,18.3407111 C0.481333333,18.3407111 0.0832888889,18.7386667 0.0832888889,19.2296 L0.0832888889,35.7333333 C0.0832888889,37.2037333 1.27955556,38.4 2.74995556,38.4 L28.8832889,38.4 C30.3536889,38.4 31.5499556,37.2037333 31.5499556,35.7333333 L31.5499556,2.66666667 C31.5499556,1.19626667 30.3536889,0 28.8832889,0 Z" id="Path"></path>
                        <path d="M1.60053333,15.0844444 C1.43528889,14.9191111 1.20595556,14.8248889 0.972177778,14.8248889 C0.7384,14.8248889 0.509066667,14.9191111 0.343733333,15.0844444 C0.178311111,15.2506667 0.0832888889,15.48 0.0832888889,15.7128889 C0.0832888889,15.9475556 0.1784,16.176 0.343733333,16.3422222 C0.509066667,16.5075556 0.7384,16.6026667 0.972177778,16.6026667 C1.20586667,16.6026667 1.4352,16.5075556 1.60053333,16.3422222 C1.76595556,16.1768889 1.86106667,15.9475556 1.86106667,15.7128889 C1.86106667,15.4791111 1.76586667,15.2506667 1.60053333,15.0844444 Z" id="Path"></path>
                        <path d="M14.4832889,6.57777778 L5.94995556,6.57777778 C5.45911111,6.57777778 5.06106667,6.97573333 5.06106667,7.46666667 L5.06106667,16 C5.06106667,16.4909333 5.45911111,16.8888889 5.94995556,16.8888889 L14.4832889,16.8888889 C14.9741333,16.8888889 15.3721778,16.4909333 15.3721778,16 L15.3721778,7.46666667 C15.3721778,6.97573333 14.9741333,6.57777778 14.4832889,6.57777778 Z M13.5944,15.1111111 L6.83884444,15.1111111 L6.83884444,8.35555556 L13.5944,8.35555556 L13.5944,15.1111111 Z" id="Shape"></path>
                        <path d="M11.6232,20.9246222 C11.276,20.5776 10.7133333,20.5775111 10.3660444,20.9246222 L8.00311111,23.2875556 L6.90444444,22.1888 C6.55733333,21.8416889 5.99466667,21.8417778 5.64728889,22.1888 C5.30017778,22.5359111 5.30017778,23.0987556 5.64728889,23.4458667 L7.37457778,25.1731556 C7.54133333,25.3398222 7.76737778,25.4335111 8.00311111,25.4335111 C8.23893333,25.4335111 8.46488889,25.3398222 8.63173333,25.1731556 L11.6232,22.1816889 C11.9703111,21.8345778 11.9703111,21.2717333 11.6232,20.9246222 Z" id="Path"></path>
                        <path d="M26.1870222,22.1333333 L15.8166222,22.1333333 C15.3257778,22.1333333 14.9277333,22.5312889 14.9277333,23.0222222 C14.9277333,23.5131556 15.3257778,23.9111111 15.8166222,23.9111111 L26.1870222,23.9111111 C26.6778667,23.9111111 27.0759111,23.5131556 27.0759111,23.0222222 C27.0759111,22.5312889 26.6778667,22.1333333 26.1870222,22.1333333 Z" id="Path"></path>
                        <path d="M25.6832889,6.57777778 L19.4610667,6.57777778 C18.9702222,6.57777778 18.5721778,6.97573333 18.5721778,7.46666667 C18.5721778,7.9576 18.9702222,8.35555556 19.4610667,8.35555556 L25.6832889,8.35555556 C26.1741333,8.35555556 26.5721778,7.9576 26.5721778,7.46666667 C26.5721778,6.97573333 26.1741333,6.57777778 25.6832889,6.57777778 Z" id="Path"></path>
                        <path d="M25.6832889,10.8444444 L19.4610667,10.8444444 C18.9702222,10.8444444 18.5721778,11.2424 18.5721778,11.7333333 C18.5721778,12.2242667 18.9702222,12.6222222 19.4610667,12.6222222 L25.6832889,12.6222222 C26.1741333,12.6222222 26.5721778,12.2242667 26.5721778,11.7333333 C26.5721778,11.2424 26.1741333,10.8444444 25.6832889,10.8444444 Z" id="Path"></path>
                        <path d="M25.6832889,15.1111111 L19.4610667,15.1111111 C18.9702222,15.1111111 18.5721778,15.5090667 18.5721778,16 C18.5721778,16.4909333 18.9702222,16.8888889 19.4610667,16.8888889 L25.6832889,16.8888889 C26.1741333,16.8888889 26.5721778,16.4909333 26.5721778,16 C26.5721778,15.5090667 26.1741333,15.1111111 25.6832889,15.1111111 Z" id="Path"></path>
                        <path d="M11.6232,27.7128 C11.276,27.3657778 10.7133333,27.3656889 10.3660444,27.7128 L8.00311111,30.0757333 L6.90444444,28.9769778 C6.55733333,28.6298667 5.99466667,28.6299556 5.64728889,28.9769778 C5.30017778,29.3240889 5.30017778,29.8869333 5.64728889,30.2340444 L7.37457778,31.9613333 C7.54133333,32.128 7.76737778,32.2216889 8.00311111,32.2216889 C8.23893333,32.2216889 8.46488889,32.128 8.63173333,31.9613333 L11.6232,28.9698667 C11.9703111,28.6227556 11.9703111,28.0599111 11.6232,27.7128 Z" id="Path"></path>
                        <path d="M26.1870222,28.8888889 L15.8166222,28.8888889 C15.3257778,28.8888889 14.9277333,29.2868444 14.9277333,29.7777778 C14.9277333,30.2687111 15.3257778,30.6666667 15.8166222,30.6666667 L26.1870222,30.6666667 C26.6778667,30.6666667 27.0759111,30.2687111 27.0759111,29.7777778 C27.0759111,29.2868444 26.6778667,28.8888889 26.1870222,28.8888889 Z" id="Path"></path>
                    </g>
                    <g id="Group-15-Copy-2" transform="translate(47.016393, 2.400000)" fill="#556CE7">
                        <path d="M19.1803279,4.72131148 C18.4876987,8.48364501 17.9262064,9.04510652 14.1639344,9.73770492 C17.9262372,10.4303341 18.4876987,10.9917956 19.1803279,14.7540984 C19.872957,10.9917956 20.4344185,10.4303341 24.1967213,9.73770492 C20.4344185,9.04510652 19.8729263,8.48364501 19.1803279,4.72131148" id="Fill-1" fill-opacity="0.4"></path>
                        <path d="M12.3934426,0 C11.9045279,2.65576485 11.5081804,3.05209062 8.85245902,3.54098361 C11.5082021,4.02989831 11.9045279,4.42622408 12.3934426,7.08196721 C12.8823573,4.42622408 13.2786831,4.02989831 15.9344262,3.54098361 C13.2786831,3.05209062 12.8823356,2.65576485 12.3934426,0" id="Fill-1-Copy" fill-opacity="0.8"></path>
                        <path d="M8.26233492,8.26229508 C7.1216311,14.6802454 6.19659185,15.6382346 0,16.8195896 C6.19659185,18.0011097 7.1216311,18.9590989 8.26233492,25.3770492 C9.40295906,18.9590989 10.3279983,18.0010272 16.5245902,16.8195896 C10.327839,15.6382346 9.40303873,14.6802454 8.26233492,8.26229508" id="Fill-3" fill-opacity="0.6"></path>
                    </g>
                </g>
            </g>
        </g>
    </g>
</svg>
