<svg xmlns="http://www.w3.org/2000/svg" width="29.215" height="30.408" viewBox="0 0 29.215 30.408">
  <g id="Group_862" data-name="Group 862" transform="translate(-442 7238.013)">
    <path id="Shape" d="M11,12.18V10.422a8.1,8.1,0,0,1,8.184-6.431,8.1,8.1,0,0,1,8.184,6.431v1.76Z" transform="translate(437.424 -7242)" fill="#fff"/>
    <path id="Shape-2" data-name="Shape" d="M10.17,18H26.537a1.17,1.17,0,0,1,1.17,1.17v3.508a1.17,1.17,0,0,1-1.17,1.17H10.17A1.17,1.17,0,0,1,9,22.677V19.17A1.17,1.17,0,0,1,10.17,18Z" transform="translate(438.256 -7247.82)" fill="#fff"/>
    <path id="Shape-3" data-name="Shape" d="M29.225,48.762a.576.576,0,0,1-.578.59H.588a.576.576,0,0,1-.578-.59V46.431c.175-3.566,2-4.091,2-4.091L9.942,40h9.353l7.926,2.338s1.83.532,2,4.091Z" transform="translate(441.99 -7256.958)" fill="#fff"/>
    <path id="Shape-4" data-name="Shape" d="M28.886,48.727a.578.578,0,0,1-.532.626H2.54a.578.578,0,0,1-.532-.626v-2.48c.105-2.572.924-3.659,1.432-4.086L10.77,40h9.353l7.33,2.163c.509.427,1.329,1.514,1.432,4.086Z" transform="translate(441.161 -7256.958)" fill="#fff"/>
    <path id="Shape-5" data-name="Shape" d="M26.353,33.23v3.957s-.585,2.338-4.676,2.338S17,37.187,17,37.187V33.23Z" transform="translate(434.932 -7254.147)" fill="#3f51b5"/>
    <path id="Shape-6" data-name="Shape" d="M26.433,19.729c.027,1.485.3,2.806-1.389,4.325-1.845,1.66-1.845,3.315-3.688,3.315H19.51c-1.845,0-1.845-1.655-3.688-3.315-1.786-1.606-1.384-2.969-1.384-4.729,0-1.6-.772-2.956-.254-4.746a7.261,7.261,0,0,1,1.6-3.017,1.675,1.675,0,0,1,1.1-.461c1.643-.105,6.355-.315,8.287.607a4.719,4.719,0,0,1,1.592,3.033c.389,1.728-.37,2.924-.332,4.987Z" transform="translate(436.176 -7244.912)" fill="#3f51b5"/>
    <path id="Shape-7" data-name="Shape" d="M18.184,31.092H12.335A2.338,2.338,0,0,1,10,28.753v-1.17a.585.585,0,1,1,1.17,0v1.17a1.17,1.17,0,0,0,1.17,1.17h5.848a.585.585,0,1,1,0,1.17Z" transform="translate(437.84 -7251.56)" fill="#fff"/>
    <rect id="Rectangle-path" width="2.658" height="1.329" rx="0.5" transform="translate(455.292 -7222.8)" fill="#fff"/>
  </g>
</svg>
