<svg xmlns="http://www.w3.org/2000/svg" width="140.628" height="113.302" viewBox="0 0 140.628 113.302">
  <path id="Icon_awesome-user-check" data-name="Icon awesome-user-check" d="M47.82,54.651A27.326,27.326,0,1,0,20.494,27.326,27.324,27.324,0,0,0,47.82,54.651Zm19.128,6.831H63.383a37.162,37.162,0,0,1-31.126,0H28.692A28.7,28.7,0,0,0,0,90.174v8.881A10.25,10.25,0,0,0,10.247,109.3H85.392A10.25,10.25,0,0,0,95.639,99.055V90.174A28.7,28.7,0,0,0,66.948,61.483ZM135.9,34.072l-5.935-6a2.532,2.532,0,0,0-3.586-.021l-22.373,22.2-9.713-9.777a2.532,2.532,0,0,0-3.586-.021l-6,5.956A2.532,2.532,0,0,0,84.688,50l17.441,17.569a2.532,2.532,0,0,0,3.586.021l30.165-29.93a2.552,2.552,0,0,0,.021-3.586Z" transform="translate(2 2)" fill="none" stroke="#5770e4" stroke-width="4"/>
</svg>
