<?xml version="1.0" encoding="UTF-8"?>
<svg width="22px" height="22px" viewBox="0 0 22 22" version="1.1" xmlns="http://www.w3.org/2000/svg">
    <!-- Generator: sketchtool 53.2 (72643) - https://sketchapp.com -->
    <title>B31C83C8-1CE4-4DEB-B9B5-8793F2D666A8</title>
    <desc>Created with sketchtool.</desc>
    <g id="v1.0" stroke="none" stroke-width="1" fill="none" fill-rule="evenodd">
        <g id="LiveChat-6.1-v1.0" transform="translate(-932.000000, -98.000000)" fill="#FFFFFF" fill-rule="nonzero" stroke="#FFFFFF" stroke-width="0.5">
            <g id="Group-27" transform="translate(905.000000, 70.000000)">
                <g id="Group-23-Copy" transform="translate(16.000000, 20.000000)">
                    <g id="icon-pin" transform="translate(12.000000, 9.000000)">
                        <path d="M19.992085,6.72076291 L13.4702681,0.208111422 C13.3359387,0.0739091987 13.157336,0 12.9676146,0 C12.7777926,0 12.5992402,0.0739091987 12.4649611,0.208111422 L10.5403784,2.13005205 C10.406049,2.26420403 10.332042,2.44252065 10.332042,2.63209197 C10.332042,2.82171353 10.406049,2.9999799 10.5403784,3.13413188 L10.8208601,3.41359005 L6.00849764,8.21959724 L0.770456952,9.51157626 C0.521721209,9.57292441 0.324553859,9.7640533 0.255930163,10.010501 C0.187155535,10.2571497 0.256986686,10.5223386 0.438155256,10.7027152 L4.37108795,14.630655 L0.208336309,18.787859 C0.0740069333,18.922011 0,19.1003276 0,19.2897984 C0,19.4793697 0.0740069333,19.6576864 0.208336309,19.7918383 C0.342715996,19.9259903 0.521218102,20 0.711040101,20 C0.900862099,20 1.07936421,19.9259903 1.21374389,19.7918383 L5.37644522,15.6347348 L9.31013258,19.5628253 C9.48903717,19.7417449 9.75080337,19.8140463 10.004218,19.7447595 C10.2502873,19.6763772 10.4416186,19.47942 10.5030479,19.2309122 L11.7962322,14.0002914 L11.8161553,13.9803947 L16.6085947,9.19428422 L17.0621953,9.64728581 C17.1946129,9.77947826 17.3778442,9.85534699 17.5649494,9.85534699 C17.7547714,9.85534699 17.9333238,9.78143779 18.0676029,9.64728581 L19.9921354,7.72484274 C20.2692966,7.44804751 20.2692966,6.99770887 19.992085,6.72076291 Z M9.4247905,17.6689712 L2.33451374,10.5884599 L6.1522351,9.64678337 L10.3673098,13.8566935 L9.4247905,17.6689712 Z M11.1536146,12.6338505 L7.37669516,8.86146673 L11.8261671,4.41777036 L15.6030362,8.1901039 L11.1536146,12.6338505 Z M17.5648991,8.14101533 L12.0485904,2.63199148 L12.9676146,1.71423116 L18.4839737,7.22280282 L17.5648991,8.14101533 Z" id="Shape"></path>
                    </g>
                </g>
            </g>
        </g>
    </g>
</svg>
