<svg width="21" height="14" viewBox="0 0 21 14" fill="none" xmlns="http://www.w3.org/2000/svg">
<path d="M20.8665 6.58453C20.6789 6.32339 16.2089 0.19043 10.4999 0.19043C4.79088 0.19043 0.320661 6.32339 0.13326 6.58428C-0.04442 6.83202 -0.04442 7.16803 0.13326 7.41577C0.320661 7.67691 4.79088 13.8099 10.4999 13.8099C16.2089 13.8099 20.6789 7.67686 20.8665 7.41598C21.0445 7.16828 21.0445 6.83202 20.8665 6.58453ZM10.4999 12.401C6.2946 12.401 2.65236 8.3304 1.57418 6.99967C2.65097 5.66777 6.28557 1.59933 10.4999 1.59933C14.705 1.59933 18.347 5.66919 19.4256 7.00063C18.3488 8.33248 14.7142 12.401 10.4999 12.401Z" fill="#9EA0A5"/>
<path d="M10.5001 2.77344C8.20966 2.77344 6.34619 4.6696 6.34619 7.00018C6.34619 9.33076 8.20966 11.2269 10.5001 11.2269C12.7905 11.2269 14.6539 9.33076 14.6539 7.00018C14.6539 4.6696 12.7905 2.77344 10.5001 2.77344ZM10.5001 9.81798C8.97304 9.81798 7.73084 8.55394 7.73084 7.00018C7.73084 5.44642 8.97308 4.18238 10.5001 4.18238C12.027 4.18238 13.2693 5.44642 13.2693 7.00018C13.2693 8.55394 12.0271 9.81798 10.5001 9.81798Z" fill="#9EA0A5"/>
</svg>
