<?xml version="1.0" encoding="UTF-8"?>
<svg width="20px" height="20px" viewBox="0 0 20 20" version="1.1" xmlns="http://www.w3.org/2000/svg" xmlns:xlink="http://www.w3.org/1999/xlink">
    <!-- Generator: sketchtool 53.2 (72643) - https://sketchapp.com -->
    <title>F7AE8594-C579-4CF2-9800-05985838F496</title>
    <desc>Created with sketchtool.</desc>
    <g id="v0" stroke="none" stroke-width="1" fill="none" fill-rule="evenodd">
        <g id="Orders-Sync-Error" transform="translate(-884.000000, -701.000000)" fill="#FF4F4C" fill-rule="nonzero">
            <path d="M894,701 C888.477146,701 884,705.477146 884,711 C884,716.522854 888.477146,721 894,721 C899.522813,721 904,716.522854 904,711 C904,705.477146 899.522813,701 894,701 Z M885.77779,711 C885.77779,706.458974 889.458974,702.77779 894,702.77779 C895.876314,702.77779 897.605431,703.406711 898.989082,704.464658 L887.464577,715.989082 C886.40667,714.605431 885.77779,712.876273 885.77779,711 Z M894,719.22221 C892.136535,719.22221 890.418194,718.601909 889.039219,717.557096 L900.557055,706.039259 C901.601828,707.418153 902.222129,709.136535 902.222129,711 C902.22217,715.540985 898.540985,719.22221 894,719.22221 Z" id="icon-error"></path>
        </g>
    </g>
</svg>