<?xml version="1.0" encoding="UTF-8"?>
<svg width="20px" height="16px" viewBox="0 0 20 16" version="1.1" xmlns="http://www.w3.org/2000/svg" xmlns:xlink="http://www.w3.org/1999/xlink">
    <!-- Generator: sketchtool 53.2 (72643) - https://sketchapp.com -->
    <title>FA8CB889-DEA1-4364-BC39-AF1B908DAFAF</title>
    <desc>Created with sketchtool.</desc>
    <g id="v2.0" stroke="none" stroke-width="1" fill="none" fill-rule="evenodd">
        <g id="R-Home-1" transform="translate(-612.000000, -344.000000)" fill="#556CE7" fill-rule="nonzero">
            <g id="icon-Delivered-Orders" transform="translate(612.000000, 344.000000)">
                <path d="M3.93206715,6.34073108 C3.99745052,6.43145388 4.1044082,6.48958368 4.22253783,6.49882396 C4.23370978,6.49966399 4.24469858,6.5 4.25568739,6.5 C4.36227877,6.5 4.46447464,6.46001477 4.53828276,6.38844456 L6.89391578,4.10138994 C7.04116574,3.95808151 7.03438931,3.73245054 6.87816516,3.59737437 C6.72249046,3.4622982 6.47652442,3.46834639 6.32890817,3.61182282 L4.30916623,5.57277937 L3.71247424,4.7480419 C3.59361202,4.58373283 3.35222465,4.53870744 3.17383976,4.64807882 C2.99490542,4.75677817 2.94618839,4.978041 3.06486746,5.14201407 L3.93206715,6.34073108 Z" id="Path"></path>
                <path d="M14,7.33326803 L14,8.66653577 C14,8.85094267 14.2246631,9 14.5026763,9 L19.4968361,9 C19.6797083,9 19.8483538,8.93440692 19.9363814,8.828751 C20.0255946,8.72289869 20.020556,8.59367639 19.9239331,8.4905735 L18.6752449,7.15750214 C18.5830678,7.05970168 18.4221284,7.00000019 18.2481479,7.00000019 L14.5026763,7.00000019 C14.2246631,6.99980381 14,7.14905752 14,7.33326803 Z" id="Path"></path>
                <path d="M15.0114157,10.0271575 L15.0114157,7.81770844 C15.0114157,7.58298452 15.2066443,7.39272196 15.4467838,7.39272196 L18.2810855,7.39272196 L17.5235491,6.20087721 C17.4439811,6.07610502 17.3041219,6 17.153599,6 L14,6 L14,14.0539144 L14.0237884,14.0539144 C14.0812086,15.136208 14.9991114,16 16.1210609,16 C17.2430105,16 18.160298,15.136208 18.2179233,14.0539144 L19.564837,14.0539144 C19.8049764,14.0539144 20,13.8636518 20,13.6289279 L20,10.452144 L15.4467838,10.452144 C15.2066443,10.452144 15.0114157,10.2620817 15.0114157,10.0271575 Z M17.3529291,13.9469668 C17.3529291,14.6104825 16.8006699,15.1502273 16.1210609,15.1502273 C15.4414519,15.1502273 14.8885775,14.6106827 14.8885775,13.9469668 C14.8885775,13.2836514 15.4414519,12.7441069 16.1210609,12.7441069 C16.8006699,12.7441069 17.3529291,13.2836514 17.3529291,13.9469668 Z" id="Shape"></path>
                <path d="M1.30313253,13.321834 C1.30313253,13.5869587 1.51592083,13.8018635 1.77815835,13.8018635 L2.90586919,13.8018635 C2.96874355,15.0243323 3.96958692,16 5.19418244,16 C6.41900172,16 7.41984509,15.0243323 7.4829432,13.8018635 L12.8487435,13.8018635 L13,13.8018635 L13,3.66876387 C12.899759,3.47037283 12.7699828,3.27266044 12.5965749,3.09281907 C12.1331842,2.61165858 11.4957143,2.36779822 10.7009466,2.36779822 L8.90533563,2.36779822 C8.06738382,0.952593703 6.54027539,0 4.79344234,0 C2.15025818,0 0,2.1741577 0,4.84644205 C0,6.12795317 0.497848537,7.29115356 1.30335628,8.15869021 L1.30335628,13.321834 L1.30313253,13.321834 Z M5.19395869,15.0399412 C4.45244406,15.0399412 3.84943201,14.4305165 3.84943201,13.6808381 C3.84943201,12.9316122 4.45244406,12.3221875 5.19395869,12.3221875 C5.93524957,12.3221875 6.53893287,12.9316122 6.53893287,13.6808381 C6.53893287,14.4305165 5.93524957,15.0399412 5.19395869,15.0399412 Z M4.79344234,0.960058816 C6.91304647,0.960058816 8.63772806,2.70372832 8.63772806,4.84666827 C8.63772806,6.99051309 6.91304647,8.73418258 4.79344234,8.73418258 C2.67383821,8.73418258 0.949380379,6.99051309 0.949380379,4.84666827 C0.949380379,2.7035021 2.67383821,0.960058816 4.79344234,0.960058816 Z" id="Shape"></path>
            </g>
        </g>
    </g>
</svg>