<svg xmlns="http://www.w3.org/2000/svg" width="100.913" height="100.913" viewBox="0 0 100.913 100.913">
  <g id="Group_1977" data-name="Group 1977" transform="translate(-1025 -508)">
    <g id="distribution" transform="translate(1025 508)">
      <path id="Path_5003" data-name="Path 5003" d="M353.638,174.728a1.682,1.682,0,0,0-1.151-1.6l-15.137-5.046a1.68,1.68,0,0,0-1.063,0l-15.137,5.046a1.682,1.682,0,0,0-1.151,1.6v18.5a1.681,1.681,0,0,0,1.682,1.682h30.274a1.681,1.681,0,0,0,1.682-1.682Zm-23.546,16.819V181.455h13.455v10.091Zm20.183,0H346.91V179.773a1.682,1.682,0,0,0-1.682-1.682H328.409a1.682,1.682,0,0,0-1.682,1.682v11.773h-3.364V175.94l13.455-4.486,13.455,4.486Zm0,0" transform="translate(-252.725 -132.681)" fill="#d6d3d3"/>
      <path id="Path_5004" data-name="Path 5004" d="M353.638,358.728a1.682,1.682,0,0,0-1.151-1.6l-15.137-5.046a1.68,1.68,0,0,0-1.063,0l-15.137,5.046a1.682,1.682,0,0,0-1.151,1.6v18.5a1.681,1.681,0,0,0,1.682,1.682h30.274a1.681,1.681,0,0,0,1.682-1.682Zm-23.546,16.819V365.455h13.455v10.091Zm20.183,0H346.91V363.773a1.682,1.682,0,0,0-1.682-1.682H328.409a1.682,1.682,0,0,0-1.682,1.682v11.773h-3.364V359.94l13.455-4.486,13.455,4.486Zm0,0" transform="translate(-252.725 -277.997)" fill="#d6d3d3"/>
      <path id="Path_5005" data-name="Path 5005" d="M353.638,6.728a1.682,1.682,0,0,0-1.151-1.6L337.35.086a1.68,1.68,0,0,0-1.063,0L321.151,5.132A1.682,1.682,0,0,0,320,6.728v18.5a1.681,1.681,0,0,0,1.682,1.682h30.274a1.681,1.681,0,0,0,1.682-1.682ZM330.091,23.546V13.455h13.455V23.546Zm20.183,0H346.91V11.773a1.682,1.682,0,0,0-1.682-1.682H328.409a1.682,1.682,0,0,0-1.682,1.682V23.546h-3.364V7.94l13.455-4.486L350.274,7.94Zm0,0" transform="translate(-252.725)" fill="#d6d3d3"/>
      <path id="Path_5006" data-name="Path 5006" d="M253.455,67.364V64H241.682A1.682,1.682,0,0,0,240,65.682v75.685a1.681,1.681,0,0,0,1.682,1.682h11.773v-3.364H243.364v-37h10.091V99.319H243.364V67.364Zm0,0" transform="translate(-189.544 -50.545)" fill="#d6d3d3"/>
      <path id="Path_5007" data-name="Path 5007" d="M1.682,109H6.728v5.046a1.681,1.681,0,0,0,1.682,1.682H10.4a5,5,0,0,0,8.1,2.052,5,5,0,0,0,8.1-2.052h7.347a5.015,5.015,0,0,0,9.472,0h1.991a1.681,1.681,0,0,0,1.682-1.682v-8.409a1.68,1.68,0,0,0-.493-1.188l-2.871-2.871V83.773a1.681,1.681,0,0,0-2.433-1.5L37,84.416V73.682A1.682,1.682,0,0,0,35.319,72H28.592a1.682,1.682,0,0,0-1.682,1.682v9.052l-3.364,1.682V73.682A1.682,1.682,0,0,0,21.864,72H15.137a1.682,1.682,0,0,0-1.682,1.682v9.052l-3.364,1.682V73.682A1.682,1.682,0,0,0,8.409,72H1.682A1.682,1.682,0,0,0,0,73.682v33.638A1.681,1.681,0,0,0,1.682,109Zm8.409,3.364V98.91H30.274v13.455H26.6a5,5,0,0,0-8.1-2.051,5,5,0,0,0-8.1,2.051Zm5.046,3.364a1.682,1.682,0,1,1,1.682-1.682A1.681,1.681,0,0,1,15.137,115.729Zm6.728,0a1.682,1.682,0,1,1,1.682-1.682A1.681,1.681,0,0,1,21.864,115.729Zm16.819,0a1.682,1.682,0,1,1,1.682-1.682A1.681,1.681,0,0,1,38.683,115.729Zm5.046-3.364h-.31a5.016,5.016,0,0,0-9.472,0h-.31V102.274h6.031l4.06,4.06Zm-13.455-37h3.364V86.1L30.274,87.78Zm-13.455,0h3.364V86.1L16.819,87.78ZM13.455,88.819V90.5a1.682,1.682,0,0,0,2.434,1.505L26.91,86.495V90.5a1.682,1.682,0,0,0,2.434,1.505l11.021-5.511V98.91H33.638V97.228a1.682,1.682,0,0,0-1.682-1.682H8.409a1.682,1.682,0,0,0-1.682,1.682v8.409H3.364V91.54l10.091-5.046ZM6.728,75.364V86.1L3.364,87.78V75.364Zm0,0" transform="translate(0 -56.863)" fill="#d6d3d3"/>
    </g>
  </g>
</svg>
