<?xml version="1.0" encoding="UTF-8"?>
<svg width="18px" height="20px" viewBox="0 0 18 20" version="1.1" xmlns="http://www.w3.org/2000/svg" xmlns:xlink="http://www.w3.org/1999/xlink">
    <!-- Generator: Sketch 53.2 (72643) - https://sketchapp.com -->
    <title>icon-push-notification</title>
    <desc>Created with Sketch.</desc>
    <g id="Communications-v.1" stroke="none" stroke-width="1" fill="none" fill-rule="evenodd">
        <g id="Communication-4" transform="translate(-1093.000000, -183.000000)" fill="#9EA0A5" fill-rule="nonzero">
            <g id="Group-7" transform="translate(1076.000000, 137.000000)">
                <g id="icon-push-notification" transform="translate(17.000000, 46.000000)">
                    <path d="M17.6515863,16.3482501 C15.5192113,15.3884088 15.438096,11.2684539 15.4365222,11.1644992 L15.4365222,8.4004987 C15.4365222,5.74028958 13.805626,3.4527947 11.4880695,2.478803 C11.4830859,1.11111656 10.3655046,0 8.99231509,0 C7.61909277,0 6.50154429,1.11118192 6.49652786,2.47873764 C4.17906971,3.45272934 2.54814074,5.74022422 2.54814074,8.40043334 L2.54814074,11.1644338 C2.54663253,11.2683886 2.46545166,15.3883434 0.333011134,16.3481847 C0.0900914731,16.4575643 -0.0434176187,16.7211277 0.0127466922,16.9808676 C0.068845429,17.2406401 0.29930599,17.4261639 0.565897942,17.4261639 L5.97183582,17.4261639 C6.08265624,18.0338139 6.37092047,18.5991108 6.81180867,19.0569888 C7.39738636,19.6650964 8.171785,20 8.99221673,20 C9.81271403,20 10.5871127,19.6650964 11.1726248,19.0569888 C11.6135786,18.5990781 11.9018428,18.0337485 12.0125976,17.4261639 L17.4185355,17.4261639 C17.6851275,17.4261639 17.9155552,17.2406727 17.9717195,16.9808676 C18.0279494,16.7211277 17.8945059,16.457597 17.6515863,16.3482501 Z M14.8426166,14.3745476 C15.066782,15.0519365 15.384194,15.7322013 15.8342954,16.2982825 L2.15026922,16.2982825 C2.60030502,15.7322667 2.91771699,15.0520346 3.14188242,14.3745476 L14.8426166,14.3745476 Z M8.99231509,1.12794671 C9.61346679,1.12794671 10.1386506,1.54396182 10.3029796,2.11102342 C9.87963251,2.02350665 9.44126892,1.97736263 8.99231509,1.97736263 C8.54336126,1.97736263 8.10499766,2.02347397 7.68165056,2.11102342 C7.84601232,1.5439945 8.37119617,1.12794671 8.99231509,1.12794671 Z M3.67978767,11.1678979 L3.67978767,8.40040066 C3.67978767,5.48068046 6.06295119,3.10530934 8.99231509,3.10530934 C11.921679,3.10530934 14.3048425,5.48068046 14.3048425,8.40040066 L14.3048425,11.1725057 C14.3055966,11.2573428 14.3188426,12.1489484 14.5442867,13.2465355 L3.44021229,13.2465355 C3.66578758,12.1479027 3.67909914,11.2547284 3.67978767,11.1678979 Z M8.99231509,18.8721513 C8.12866995,18.8721513 7.3749272,18.2514947 7.13299115,17.4261965 L10.8515735,17.4261965 C10.6096374,18.2514947 9.8560258,18.8721513 8.99231509,18.8721513 Z" id="Shape"></path>
                    <path d="M10.2987624,3.87596899 C7.87392171,3.87596899 5.90116279,5.84871454 5.90116279,8.27358638 C5.90116279,8.58485594 6.15350951,8.8372093 6.46477087,8.8372093 C6.77603224,8.8372093 7.02837895,8.58485594 7.02837895,8.27358638 C7.02837895,6.4702739 8.4954647,5.00318218 10.298795,5.00318218 C10.6100564,5.00318218 10.8624031,4.75082882 10.8624031,4.43955926 C10.8623704,4.12825704 10.6100237,3.87596899 10.2987624,3.87596899 Z" id="Path"></path>
                </g>
            </g>
        </g>
    </g>
</svg>