<?xml version="1.0" standalone="no"?>
<!DOCTYPE svg PUBLIC "-//W3C//DTD SVG 20010904//EN"
 "http://www.w3.org/TR/2001/REC-SVG-20010904/DTD/svg10.dtd">
<svg version="1.0" xmlns="http://www.w3.org/2000/svg"
 width="47.000000pt" height="42.000000pt" viewBox="0 0 47.000000 42.000000"
 preserveAspectRatio="xMidYMid meet">

<g transform="translate(0.000000,42.000000) scale(0.100000,-0.100000)"
fill="#000000" stroke="none">
<path d="M50 410 c0 -6 68 -10 185 -10 117 0 185 4 185 10 0 6 -68 10 -185 10
-117 0 -185 -4 -185 -10z"/>
<path d="M34 338 c-9 -29 -19 -59 -22 -65 -3 -10 45 -13 223 -13 178 0 226 3
223 13 -3 6 -13 36 -22 65 l-18 52 -183 0 -183 0 -18 -52z m72 16 c-4 -15 -10
-39 -13 -55 -3 -16 -10 -29 -15 -29 -6 0 -7 11 -4 26 4 15 10 39 13 55 3 16
10 29 15 29 6 0 7 -11 4 -26z m67 -11 c-3 -21 -10 -47 -14 -58 -6 -16 -8 -13
-8 15 -1 43 8 80 20 80 4 0 5 -17 2 -37z m67 -19 c0 -34 -4 -53 -10 -49 -5 3
-10 28 -10 56 0 27 5 49 10 49 6 0 10 -25 10 -56z m82 0 c6 -44 4 -64 -6 -53
-2 2 -9 28 -14 57 -7 38 -6 52 2 49 6 -2 14 -26 18 -53z m68 5 c7 -27 10 -53
6 -56 -3 -3 -7 0 -10 8 -2 8 -9 29 -15 48 -13 41 -14 51 -2 51 5 0 14 -23 21
-51z"/>
<path d="M14 234 c3 -9 6 -18 6 -20 0 -12 50 -2 58 12 8 15 10 15 15 0 7 -19
38 -21 55 -4 9 9 15 9 24 0 17 -17 45 -15 57 6 9 16 10 16 16 0 4 -10 17 -18
30 -18 13 0 26 8 30 18 6 16 7 16 16 0 13 -23 48 -23 56 -2 6 15 7 15 19 0 16
-22 58 -17 62 7 3 16 -13 17 -223 17 -203 0 -226 -2 -221 -16z"/>
<path d="M50 116 c0 -70 -1 -75 -22 -78 -13 -2 -24 -11 -26 -20 -3 -17 13 -18
232 -18 209 0 236 2 236 16 0 9 -9 18 -20 21 -18 5 -20 14 -20 80 0 55 -3 74
-12 71 -9 -3 -14 -30 -16 -76 l-3 -72 -94 0 -95 0 0 75 c0 43 -4 75 -10 75 -6
0 -10 -32 -10 -75 l0 -75 -60 0 -60 0 0 75 c0 43 -4 75 -10 75 -6 0 -10 -31
-10 -74z"/>
<path d="M139 176 c-2 -2 -2 -27 -1 -55 5 -70 28 -69 26 1 -2 46 -11 67 -25
54z"/>
<path d="M255 150 c-16 -16 -26 -32 -24 -35 3 -2 21 11 39 30 19 19 29 35 24
35 -6 0 -23 -13 -39 -30z"/>
<path d="M290 123 l-55 -58 58 55 c31 30 57 56 57 57 0 8 -10 -1 -60 -54z"/>
<path d="M355 122 c-11 -9 -27 -26 -35 -37 -8 -11 3 -4 23 14 33 31 42 42 35
41 -2 -1 -12 -8 -23 -18z"/>
</g>
</svg>
