<?xml version="1.0" encoding="UTF-8"?>
<svg width="15px" height="20px" viewBox="0 0 15 20" version="1.1" xmlns="http://www.w3.org/2000/svg">
    <!-- Generator: sketchtool 53.2 (72643) - https://sketchapp.com -->
    <title>7CFC05AB-D9BC-4CAF-BFBC-81B8D8256B7B</title>
    <desc>Created with sketchtool.</desc>
    <g id="Discounts-Wholesale" stroke="none" stroke-width="1" fill="none" fill-rule="evenodd">
        <g id="Wholesale-1-2" transform="translate(-1076.000000, -182.000000)" fill="#9EA0A5" fill-rule="nonzero">
            <g id="Group-7" transform="translate(1056.000000, 137.000000)">
                <g id="icon-wholesale-pricing" transform="translate(20.000000, 45.000000)">
                    <path d="M14.3911816,5.4148655 L8.90945836,2.5889337 C8.61670029,2.43802403 8.25434197,2.54773489 8.10000413,2.83399019 C7.94551028,3.12024548 8.05771337,3.47470767 8.35047148,3.6256173 L11.713444,5.35932343 L2.09066092,5.35932343 L6.69489022,1.00720533 C6.93287319,0.782290478 6.93927145,0.411348772 6.70924723,0.178651914 C6.47922305,-0.0538923656 6.09985477,-0.0603010858 5.8618718,0.164613808 L0.247346229,5.47162828 C0.0976900405,5.57813476 -1.86517468e-14,5.75040677 -1.86517468e-14,5.94526177 L-1.86517468e-14,19.4140617 C-1.86517468e-14,19.737701 0.26825754,20 0.599248933,20 L14.1375932,20 C14.4685846,20 14.7368421,19.737701 14.7368421,19.4140617 L14.7368421,5.94526177 C14.7368421,5.71027608 14.5951447,5.50824943 14.3911816,5.4148655 Z M13.5383442,18.8281233 L1.19849787,18.8281233 L1.19849787,6.53120012 L13.5383442,6.53120012 L13.5383442,18.8281233 Z" id="Shape"></path>
                    <path d="M5.81014156,13.1340563 L6.76944273,13.1340563 L6.76944273,13.9745404 L5.2434519,13.9745404 C4.91276596,13.9745404 4.6444736,14.2218939 4.6444736,14.5270928 C4.6444736,14.8322917 4.91276596,15.0796453 5.2434519,15.0796453 L6.76944273,15.0796453 L6.76944273,15.2369212 C6.76944273,15.5421201 7.03757912,15.7894737 7.36842103,15.7894737 C7.69926294,15.7894737 7.96739934,15.5421201 7.96739934,15.2369212 L7.96739934,15.0796453 L8.92670054,15.0796453 C9.8087897,15.0796453 10.5263158,14.4178774 10.5263158,13.6044453 L10.5263158,13.5041513 C10.5263158,12.6907193 9.8087897,12.0289514 8.92670054,12.0289514 L7.96739934,12.0289514 L7.96739934,11.2886175 L9.49339016,11.2886175 C9.8240761,11.2886175 10.0923685,11.0412639 10.0923685,10.7360651 C10.0923685,10.4310101 9.8240761,10.1835126 9.49339016,10.1835126 L7.96739934,10.1835126 L7.96739934,10.0262366 C7.96739934,9.72118166 7.69926294,9.47368421 7.36842103,9.47368421 C7.03757912,9.47368421 6.76944273,9.72118166 6.76944273,10.0262366 L6.76944273,10.1835126 L5.81014156,10.1835126 C4.92805241,10.1835126 4.21052632,10.8454244 4.21052632,11.6588564 C4.21052632,12.4722884 4.92805241,13.1340563 5.81014156,13.1340563 L5.81014156,13.1340563 Z M8.92670054,13.1340563 C9.14819773,13.1340563 9.32835918,13.3001098 9.32835918,13.5041513 L9.32835918,13.6044453 C9.32835918,13.8084869 9.14819773,13.9745404 8.92670054,13.9745404 L7.96739934,13.9745404 L7.96739934,13.1340563 L8.92670054,13.1340563 Z M5.81014156,11.2887614 L6.76944273,11.2887614 L6.76944273,12.0289514 L5.81014156,12.0289514 C5.58864438,12.0289514 5.40848292,11.8628979 5.40848292,11.6588564 C5.40848292,11.4548149 5.58864438,11.2887614 5.81014156,11.2887614 Z" id="Shape"></path>
                </g>
            </g>
        </g>
    </g>
</svg>
