<?xml version="1.0" encoding="UTF-8"?>
<svg width="21px" height="21px" viewBox="0 0 21 21" version="1.1" xmlns="http://www.w3.org/2000/svg" xmlns:xlink="http://www.w3.org/1999/xlink">
    <!-- Generator: sketchtool 53.2 (72643) - https://sketchapp.com -->
    <title>8FAC7E68-516A-4591-9815-32D9EEAD956A</title>
    <desc>Created with sketchtool.</desc>
    <defs>
        <polygon id="path-1" points="0.00146034546 0.0446831364 12.5676687 0.0446831364 12.5676687 12.5898382 0.00146034546 12.5898382"></polygon>
    </defs>
    <g id="v1.0" stroke="none" stroke-width="1" fill="none" fill-rule="evenodd">
        <g id="LiveChat-6.3-v1.0" transform="translate(-932.000000, -99.000000)">
            <g id="Group-29" transform="translate(905.000000, 70.000000)">
                <g id="icon-unpin" transform="translate(28.000000, 29.000000)">
                    <path d="M9.56345079,14.3707985 L8.74950729,17.7673762 L2.16724659,10.9857704 L5.46388823,10.1468401 L4.37353929,9.02340597 L0.715253959,9.95434765 C0.484340052,10.013106 0.301299679,10.1961663 0.237592849,10.4322102 C0.173745901,10.6684466 0.238573673,10.9224404 0.406761573,11.0952024 L4.05790091,14.8573232 L0.19340908,18.8390298 C0.0687043603,18.9675185 -7.63833441e-14,19.1383075 -7.63833441e-14,19.3197798 C-7.63833441e-14,19.5013483 0.0687043603,19.6721372 0.19340908,19.8006259 C0.318160505,19.9291147 0.483872993,20 0.660094306,20 C0.836315619,20 1.00202811,19.9291147 1.12677953,19.8006259 L4.99122465,15.8190156 L8.64306458,19.5812808 C8.80915071,19.7526472 9.05216144,19.8218963 9.287419,19.7555346 C9.51585749,19.690039 9.69347998,19.5013964 9.75050787,19.2633795 L10.653753,15.4941845 L9.56345079,14.3707985 Z" id="Fill-1" stroke="#FFFFFF" stroke-width="0.5" fill="#FFFFFF"></path>
                    <g id="Group-5" transform="translate(6.666667, 0.000000)">
                        <mask id="mask-2" fill="white">
                            <use xlink:href="#path-1"></use>
                        </mask>
                        <g id="Clip-4"></g>
                        <path d="M10.1161313,7.71412223 L4.98404673,2.52420434 L5.83909773,1.65960458 L10.9711823,6.84909647 L10.1161313,7.71412223 Z M12.3742373,6.37613683 L6.30673592,0.240725664 C6.18176404,0.114297002 6.01560294,0.0446689363 5.83909773,0.0446689363 C5.6624989,0.0446689363 5.4963846,0.114297002 5.37145954,0.240725664 L3.58094494,2.05133937 C3.45597307,2.17772069 3.38712152,2.34570846 3.38712152,2.524299 C3.38712152,2.70293688 3.45597307,2.87087731 3.58094494,2.99725864 L3.84188808,3.26052941 L0.00146034546,7.14427024 L0.936877143,8.09023685 L4.77716446,4.20654336 L8.29093351,7.76036738 L4.45088022,11.6438715 L5.38629702,12.5898382 L9.22644392,8.70638133 L9.64844631,9.13314315 C9.77163956,9.25767846 9.94210681,9.32915254 10.1161781,9.32915254 C10.2927769,9.32915254 10.4588912,9.25952448 10.5838163,9.13314315 L12.3742841,7.32205611 C12.632138,7.06129403 12.632138,6.63704091 12.3742373,6.37613683 L12.3742373,6.37613683 Z" id="Fill-3" stroke="#FFFFFF" stroke-width="0.5" fill="#FFFFFF" mask="url(#mask-2)"></path>
                    </g>
                    <path d="M14.1146944,18.2041189 L1.47304013,5.56246463 C1.23080529,5.32022979 1.23080529,4.92754293 1.47304013,4.68530809 C1.71527497,4.44307325 2.10800907,4.44307325 2.35019667,4.68530809 L14.9918509,17.3269623 C15.2340857,17.5691972 15.2340857,17.9619313 14.9918509,18.2041189 C14.7496161,18.4463537 14.3569292,18.4463537 14.1146944,18.2041189" id="Fill-6" stroke="#FFFFFF" stroke-width="0.5" fill="#FFFFFF"></path>
                </g>
            </g>
        </g>
    </g>
</svg>