<?xml version="1.0" encoding="UTF-8"?>
<svg width="21px" height="20px" viewBox="0 0 21 20" version="1.1" xmlns="http://www.w3.org/2000/svg" xmlns:xlink="http://www.w3.org/1999/xlink">
    <!-- Generator: sketchtool 53.2 (72643) - https://sketchapp.com -->
    <title>D00EF900-F92D-4625-8D29-8B49FABF9737</title>
    <desc>Created with sketchtool.</desc>
    <g id="Discounts-NEW" stroke="none" stroke-width="1" fill="none" fill-rule="evenodd">
        <g id="Discount-2" transform="translate(-1096.000000, -183.000000)" fill="#9EA0A5">
            <g id="Group-5" transform="translate(1076.000000, 137.000000)">
                <path d="M27.6274165,48.741652 C28.1898067,48.741652 28.6115993,49.198594 28.6115993,49.7258348 C28.6115993,50.288225 28.1898067,50.7100176 27.6274165,50.7100176 C27.1001757,50.7100176 26.6432337,50.288225 26.6432337,49.7258348 C26.6432337,49.198594 27.1001757,48.741652 27.6274165,48.741652 Z M31.5641476,63.5395431 C31.2126538,63.5395431 30.9314587,63.8207381 30.9314587,64.172232 C30.9314587,64.5237258 31.2126538,64.8049209 31.5641476,64.8049209 C31.9156415,64.8049209 32.1968366,64.5237258 32.1968366,64.172232 C32.1968366,63.8207381 31.9156415,63.5395431 31.5641476,63.5395431 Z M32.7592267,60.8681898 C33.884007,60.8330404 33.9191564,59.1810193 32.7943761,59.0755712 L23.4446397,59.0755712 L20,50.4639719 L25.659051,50.4639719 L28.4710018,54.6818981 L31.9507909,52.397188 L28.8927944,47.9332162 L26.3268893,47.6520211 L25.9050967,49.1634446 C25.7293497,49.9367311 24.56942,49.6203866 24.7803163,48.8822496 L25.4130053,46.3514938 L29.5606327,46.8084359 L33.602812,52.7135325 L28.1546573,56.3339192 L25.026362,51.659051 L21.7574692,51.659051 L24.2530756,57.9156415 L32.3725835,57.9156415 L36.8365554,46 L40.2108963,46 C40.9841828,46 40.9841828,47.1950791 40.2108963,47.1950791 L37.6449912,47.1950791 L33.5676626,58.056239 C35.6063269,58.9349736 35.0087873,61.9929701 32.7943761,62.0632689 L22.9525483,62.0632689 C22.1792619,62.0632689 22.1792619,60.8681898 22.9525483,60.8681898 L32.7592267,60.8681898 Z M25.0615114,62.344464 C26.0808436,62.344464 26.8892794,63.1880492 26.8892794,64.172232 C26.8892794,65.1915641 26.0808436,66 25.0615114,66 C24.0773286,66 23.2688928,65.1915641 23.2688928,64.172232 C23.2688928,63.1880492 24.0773286,62.344464 25.0615114,62.344464 Z M25.0615114,63.5395431 C24.7100176,63.5395431 24.4288225,63.8207381 24.4288225,64.172232 C24.4288225,64.5237258 24.7100176,64.8049209 25.0615114,64.8049209 C25.4130053,64.8049209 25.6942004,64.5237258 25.6942004,64.172232 C25.6942004,63.8207381 25.4130053,63.5395431 25.0615114,63.5395431 Z M31.5641476,62.344464 C32.5483304,62.344464 33.3567663,63.1880492 33.3567663,64.172232 C33.3567663,65.1915641 32.5483304,66 31.5641476,66 C30.5448155,66 29.7363796,65.1915641 29.7363796,64.172232 C29.7363796,63.1880492 30.5448155,62.344464 31.5641476,62.344464 Z" id="icon-promotion"></path>
            </g>
        </g>
    </g>
</svg>