<svg id="icon-theme-arrow-up" xmlns="http://www.w3.org/2000/svg" width="20" height="18" viewBox="0 0 14.912 22.359">
  <path id="Icon_ionic-ios-arrow-round-up" data-name="Icon ionic-ios-arrow-round-up"
      d="M25.874,15.982a1.015,1.015,0,0,1-1.429.008l-4.73-4.714V29.239a1.01,1.01,0,0,1-2.019,0V11.276L12.967,16a1.022,1.022,0,0,1-1.429-.008,1,1,0,0,1,.008-1.421l6.446-6.4h0a1.134,1.134,0,0,1,.318-.21.964.964,0,0,1,.388-.078,1.012,1.012,0,0,1,.707.287l6.446,6.4A.989.989,0,0,1,25.874,15.982Z"
      transform="translate(-11.247 -7.882)" fill="#fff"></path>
</svg>