<?xml version="1.0" encoding="UTF-8"?>
<svg width="6px" height="10px" viewBox="0 0 6 10" version="1.1" xmlns="http://www.w3.org/2000/svg" xmlns:xlink="http://www.w3.org/1999/xlink">
    <!-- Generator: sketchtool 53.2 (72643) - https://sketchapp.com -->
    <title>4BDF4B99-9287-4DA2-85F8-BAF7128D84E9</title>
    <desc>Created with sketchtool.</desc>
    <g id="NEW" stroke="none" stroke-width="1" fill="none" fill-rule="evenodd">
        <g id="Components-Banners" transform="translate(-350.000000, -755.000000)" fill="#9EA0A5" fill-rule="nonzero">
            <g id="icon-upload-copy" transform="translate(350.000000, 755.000000)">
                <path d="M0.30766957,4.12116511 L2.00210944,4.12116511 L2.00210944,7.84370972 C2.00210944,7.98973309 2.24036895,8.10810811 2.53429356,8.10810811 L3.46566614,8.10810811 C3.75957059,8.10810811 3.99791071,7.98973309 3.99791071,7.84370972 L3.99791071,4.12116511 L5.69226997,4.12116511 C5.86222788,4.12116511 6,4.01625073 6,3.88679279 C6,3.88679279 3.46157489,0.25391372 3.23077233,0.0781393911 C3.00003023,-0.0976742389 2.76926798,0.0781393911 2.76926798,0.0781393911 L0,3.88679279 C0,4.01625073 0.13777212,4.12116511 0.30766957,4.12116511 Z" id="Path"></path>
                <path d="M6,9.63963964 C6,9.83867808 5.85081081,10 5.66669439,10 L0.333305613,10 C0.149269023,10 0,9.83867808 0,9.63963964 L0,9.27927928 C0,9.08024084 0.149269023,8.91891892 0.333305613,8.91891892 L5.66665447,8.91891892 C5.85077089,8.91891892 5.99996008,9.08024084 5.99996008,9.27927928 L5.99996008,9.63963964 L6,9.63963964 L6,9.63963964 Z" id="Path"></path>
            </g>
        </g>
    </g>
</svg>