<?xml version="1.0" encoding="UTF-8"?>
<svg width="20px" height="18px" viewBox="0 0 20 18" version="1.1" xmlns="http://www.w3.org/2000/svg" xmlns:xlink="http://www.w3.org/1999/xlink">
    <!-- Generator: sketchtool 53.2 (72643) - https://sketchapp.com -->
    <title>0FA4C4FD-A27F-4C52-9D69-19206CB68EB5</title>
    <desc>Created with sketchtool.</desc>
    <defs>
        <path d="M13,4.5 C13.552,4.5 14,4.948 14,5.5 C14,6.052 13.552,6.5 13,6.5 C12.448,6.5 12,6.052 12,5.5 C12,4.948 12.448,4.5 13,4.5 Z M12.75,8.75 L16,13 L4,13 L8.518,6.812 L11.354,10.625 L12.75,8.75 Z M18,15 C18,15.552 17.552,16 17,16 L3,16 C2.448,16 2,15.552 2,15 L2,3 C2,2.448 2.448,2 3,2 L17,2 C17.552,2 18,2.448 18,3 L18,15 Z M2,0 C0.896,0 0,0.895 0,2 L0,16 C0,17.104 0.896,18 2,18 L18,18 C19.105,18 20,17.104 20,16 L20,2 C20,0.895 19.105,0 18,0 L2,0 Z" id="path-1"></path>
    </defs>
    <g id="v1.0" stroke="none" stroke-width="1" fill="none" fill-rule="evenodd">
        <g id="LiveChat-3-v1.0" transform="translate(-1162.000000, -758.000000)">
            <g id="icon-attach-images" transform="translate(1162.000000, 758.000000)">
                <mask id="mask-2" fill="white">
                    <use xlink:href="#path-1"></use>
                </mask>
                <use id="image_picture-[#973]" fill-opacity="0" fill="#FFFFFF" xlink:href="#path-1"></use>
                <rect id="Colour" fill="#9EA0A5" mask="url(#mask-2)" x="-1" y="-2" width="22" height="22"></rect>
            </g>
        </g>
    </g>
</svg>