<svg xmlns="http://www.w3.org/2000/svg" width="15.576" height="16.396" viewBox="0 0 15.576 16.396">
  <g id="surface1" transform="translate(-88.234 -52.469)">
    <path id="Path_5136" data-name="Path 5136" d="M131.238,52.469H122V68.345h12.441V55.672Zm0,0" transform="translate(-32.198)" fill="#fff"/>
    <path id="Path_5137" data-name="Path 5137" d="M261.993,55.672l-3.2-3.2h-3.029V68.345h6.232Zm0,0" transform="translate(-159.75)" fill="#e9edf5"/>
    <path id="Path_5138" data-name="Path 5138" d="M321,55.672h3.2l-3.2-3.2Zm0,0" transform="translate(-221.96)" fill="#556ce7"/>
    <path id="Path_5139" data-name="Path 5139" d="M94.181,159.81,93,158H88.234v11.5h15.576V159.81Zm0,0" transform="translate(0 -100.632)" fill="#556ce7"/>
    <path id="Path_5140" data-name="Path 5140" d="M255.762,197h7.8v9.687h-7.8Zm0,0" transform="translate(-159.75 -137.822)" fill="#3f51b5"/>
    <path id="Path_5141" data-name="Path 5141" d="M138.751,263.363h-3.884v1.13h1.377v2.8h1.131v-2.8h1.377Zm0,0" transform="translate(-44.468 -201.104)" fill="#fff"/>
    <path id="Path_5142" data-name="Path 5142" d="M304.493,264.465h-1.217l-.551.959-.551-.959h-1.217l1.116,1.942-1.116,1.942h1.217l.551-.959.551.959h1.217l-1.116-1.942Zm0,0" transform="translate(-202.848 -202.155)" fill="#fff"/>
    <path id="Path_5143" data-name="Path 5143" d="M215.639,268.353h1.13l-1.072-3.884h-1.71l-1.073,3.884h1.131l.273-.987h1.049Zm-1.1-1.776.307-1.111.307,1.111Zm0,0" transform="translate(-118.892 -202.158)" fill="#fff"/>
    <path id="Path_5144" data-name="Path 5144" d="M256.555,264.469h-.794v1.22l.245.889h-.245v.789h.463l.273.987h1.13Zm0,0" transform="translate(-159.75 -202.158)" fill="#fff"/>
  </g>
</svg>
