<svg width="15" height="11" viewBox="0 0 15 11" fill="none" xmlns="http://www.w3.org/2000/svg">
<path d="M13.9305 4.17698C14.0851 4.17698 14.2101 4.05853 14.2101 3.91215V1.79364C14.2101 1.20943 13.7085 0.734375 13.0917 0.734375H1.90749C1.29065 0.734375 0.789062 1.20943 0.789062 1.79364V3.91215C0.789062 4.05853 0.914125 4.17698 1.06868 4.17698C1.8395 4.17698 2.46669 4.771 2.46669 5.50104C2.46669 6.23109 1.8395 6.82511 1.06868 6.82511C0.914125 6.82511 0.789062 6.94355 0.789062 7.08993V9.20844C0.789062 9.79265 1.29065 10.2677 1.90749 10.2677H13.0917C13.7085 10.2677 14.2101 9.79265 14.2101 9.20844V7.08993C14.2101 6.94355 14.0851 6.82511 13.9305 6.82511C13.1597 6.82511 12.5325 6.23109 12.5325 5.50104C12.5325 4.771 13.1597 4.17698 13.9305 4.17698ZM11.9733 5.50104C11.9733 6.43332 12.7037 7.20709 13.6509 7.33586V9.20844C13.6509 9.5004 13.4 9.73806 13.0917 9.73806H1.90749C1.59923 9.73806 1.34829 9.5004 1.34829 9.20844V7.33586C2.2955 7.20706 3.02592 6.43332 3.02592 5.50104C3.02592 4.56876 2.2955 3.795 1.34829 3.66622V1.79364C1.34829 1.50168 1.59923 1.26402 1.90749 1.26402H13.0917C13.4 1.26402 13.6509 1.50168 13.6509 1.79364V3.66622C12.7037 3.795 11.9733 4.56876 11.9733 5.50104Z" fill="#9EA0A5" stroke="#9EA0A5" stroke-width="0.3"/>
<path d="M4.342 1.46875C4.12382 1.46875 3.94727 1.6231 3.94727 1.81385V2.59031C3.94727 2.78106 4.12382 2.93542 4.342 2.93542C4.56019 2.93542 4.73674 2.78106 4.73674 2.59031V1.81385C4.7367 1.6231 4.56019 1.46875 4.342 1.46875Z" fill="#9EA0A5" stroke="#9EA0A5" stroke-width="0.3"/>
<path d="M4.342 3.66797C4.12382 3.66797 3.94727 3.83197 3.94727 4.03464V4.76796C3.94727 4.97063 4.12382 5.13463 4.342 5.13463C4.56019 5.13463 4.73674 4.97063 4.73674 4.76796V4.03464C4.7367 3.83197 4.56019 3.66797 4.342 3.66797Z" fill="#9EA0A5" stroke="#9EA0A5" stroke-width="0.3"/>
<path d="M4.342 5.13281C4.12382 5.13281 3.94727 5.29681 3.94727 5.49949V6.2328C3.94727 6.43548 4.12382 6.59948 4.342 6.59948C4.56019 6.59948 4.73674 6.43548 4.73674 6.2328V5.49949C4.7367 5.29681 4.56019 5.13281 4.342 5.13281Z" fill="#9EA0A5" stroke="#9EA0A5" stroke-width="0.3"/>
<path d="M4.342 8.06641C4.12382 8.06641 3.94727 8.23041 3.94727 8.43308V9.1664C3.94727 9.36907 4.12382 9.53307 4.342 9.53307C4.56019 9.53307 4.73674 9.36907 4.73674 9.1664V8.43308C4.7367 8.23041 4.56019 8.06641 4.342 8.06641Z" fill="#9EA0A5" stroke="#9EA0A5" stroke-width="0.3"/>
<path d="M10.1362 2.97679C10.0057 2.89808 9.8314 2.92992 9.74521 3.04797L6.36191 7.66788C6.27545 7.78593 6.31042 7.9451 6.44009 8.02381C6.48828 8.05287 6.54252 8.06693 6.5962 8.06693C6.68734 8.06693 6.77681 8.02682 6.83105 7.95263L10.2143 3.33272C10.3008 3.21465 10.2659 3.0555 10.1362 2.97679Z" fill="#9EA0A5" stroke="#9EA0A5" stroke-width="0.3"/>
<path d="M7.89381 4.40026C7.89381 3.59159 7.36272 2.93359 6.70959 2.93359C6.05646 2.93359 5.52539 3.59156 5.52539 4.40026C5.52539 5.20896 6.05648 5.86693 6.70962 5.86693C7.36275 5.86693 7.89381 5.20893 7.89381 4.40026ZM6.11749 4.40026C6.11749 3.9233 6.38868 3.52025 6.70959 3.52025C7.03049 3.52025 7.30169 3.9233 7.30169 4.40026C7.30169 4.87722 7.03049 5.28027 6.70959 5.28027C6.38868 5.28027 6.11749 4.8772 6.11749 4.40026Z" fill="#9EA0A5" stroke="#9EA0A5" stroke-width="0.3"/>
<path d="M9.07874 5.13281C8.42565 5.13281 7.89453 5.79081 7.89453 6.59948C7.89453 7.40815 8.42562 8.06615 9.07874 8.06615C9.73184 8.06615 10.263 7.40815 10.263 6.59948C10.263 5.79081 9.73187 5.13281 9.07874 5.13281ZM9.07874 7.47949C8.75781 7.47949 8.48665 7.07644 8.48665 6.59948C8.48665 6.12252 8.75784 5.71947 9.07874 5.71947C9.39967 5.71947 9.67083 6.12252 9.67083 6.59948C9.67083 7.07644 9.39967 7.47949 9.07874 7.47949Z" fill="#9EA0A5" stroke="#9EA0A5" stroke-width="0.3"/>
</svg>
