<?xml version="1.0" standalone="no"?>
<!DOCTYPE svg PUBLIC "-//W3C//DTD SVG 20010904//EN"
 "http://www.w3.org/TR/2001/REC-SVG-20010904/DTD/svg10.dtd">
<svg version="1.0" xmlns="http://www.w3.org/2000/svg"
 width="48.000000pt" height="39.000000pt" viewBox="0 0 48.000000 39.000000"
 preserveAspectRatio="xMidYMid meet">

<g transform="translate(0.000000,39.000000) scale(0.100000,-0.100000)"
fill="#000000" stroke="none">
<path d="M62 378 c-7 -7 -12 -22 -12 -35 0 -18 -6 -23 -26 -23 -16 0 -24 -5
-22 -12 3 -9 36 -14 106 -16 56 -1 102 -7 102 -12 0 -5 -42 -11 -92 -12 -116
-4 -123 -22 -10 -26 114 -4 104 -22 -13 -22 -117 0 -127 -18 -12 -22 93 -3
108 -21 22 -26 l-55 -3 0 -57 c0 -79 18 -104 73 -100 36 3 44 7 57 35 14 30
19 33 60 33 41 0 46 -3 60 -33 14 -29 19 -32 60 -32 41 0 46 3 60 32 10 22 22
33 38 33 15 0 22 6 22 20 0 11 -4 20 -10 20 -5 0 -10 21 -10 46 0 41 -5 50
-51 100 -34 36 -60 54 -75 54 -18 0 -24 6 -24 23 0 13 -5 28 -12 35 -16 16
-220 16 -236 0z m323 -138 l39 -40 -57 0 -57 0 0 40 c0 32 4 40 18 40 10 0 36
-18 57 -40z m-237 -161 c3 -28 -16 -43 -43 -33 -15 6 -21 45 -8 58 16 16 48 1
51 -25z m240 0 c3 -28 -16 -43 -43 -33 -15 6 -21 45 -8 58 16 16 48 1 51 -25z"/>
</g>
</svg>
