<svg xmlns="http://www.w3.org/2000/svg" width="59" height="66.262" viewBox="0 0 59 66.262">
  <g id="Group_2313" data-name="Group 2313" transform="translate(-1493 -454)">
    <g id="Group_2312" data-name="Group 2312" transform="translate(1450.123 454)">
      <g id="Group_890" data-name="Group 890" transform="translate(75.368 0)">
        <path id="Polygon_1" data-name="Polygon 1" d="M6.5,0,7.963,4.65,13,6,7.963,7.35,6.5,12,5.038,7.35,0,6,5.038,4.65Z" transform="translate(-0.49)" fill="#556ce7"/>
        <path id="Polygon_2" data-name="Polygon 2" d="M6.5,0,7.963,4.65,13,6,7.963,7.35,6.5,12,5.038,7.35,0,6,5.038,4.65Z" transform="translate(4.51 18)" fill="#556ce7"/>
        <path id="Polygon_3" data-name="Polygon 3" d="M6,0,7.35,4.65,12,6,7.35,7.35,6,12,4.65,7.35,0,6,4.65,4.65Z" transform="translate(14.51 6)" fill="#556ce7"/>
      </g>
    </g>
    <g id="translation" transform="translate(1493 466.996)">
      <path id="Path_5019" data-name="Path 5019" d="M48.9,18.726H34.265c.046-.513.072-1.033.072-1.558A17.172,17.172,0,0,0,8.59,2.294,1.04,1.04,0,1,0,9.631,4.1a15.088,15.088,0,1,1,7.537,28.16,14.918,14.918,0,0,1-9.461-3.336,1.041,1.041,0,0,0-.959-.184l-2.761.722L5.069,27.08a1.04,1.04,0,0,0-.106-1.043A15.1,15.1,0,0,1,4.106,9.613a1.04,1.04,0,0,0-1.8-1.044A17.179,17.179,0,0,0,2.929,26.76L1.187,30.587A1.04,1.04,0,0,0,2.4,32.024l4.424-1.157a17.164,17.164,0,0,0,12.737,3.3v9.11a4.374,4.374,0,0,0,4.369,4.369H38.642l6.579,5.383a1.04,1.04,0,0,0,1.7-.805V47.648H48.9a4.375,4.375,0,0,0,4.369-4.369V23.1A4.374,4.374,0,0,0,48.9,18.726Zm2.289,24.552A2.291,2.291,0,0,1,48.9,45.567H45.88a1.04,1.04,0,0,0-1.04,1.04V50.03l-5.138-4.2c-.283-.258-.531-.258-1.088-.258H23.928a2.291,2.291,0,0,1-2.288-2.289V33.744A17.225,17.225,0,0,0,33.946,20.807H48.9A2.291,2.291,0,0,1,51.185,23.1Zm0,0" fill="#d6d3d3"/>
      <path id="Path_5020" data-name="Path 5020" d="M299.076,260.332a1.04,1.04,0,0,0-.443-1.981h-.426l-3.355-7.647a1.04,1.04,0,0,0-1.906,0l-3.355,7.647h-.426a1.04,1.04,0,0,0-.443,1.981l-1.25,2.848a1.04,1.04,0,1,0,1.905.836l1.573-3.584h5.9l1.573,3.584a1.04,1.04,0,1,0,1.905-.836Zm-7.213-1.981,2.036-4.639,2.036,4.639Zm0,0" transform="translate(-257.487 -224.065)" fill="#d6d3d3"/>
      <path id="Path_5021" data-name="Path 5021" d="M46.443,47.479a1.041,1.041,0,1,0-.736-.3A1.049,1.049,0,0,0,46.443,47.479Zm0,0" transform="translate(-40.679 -40.675)" fill="#d6d3d3"/>
      <path id="Path_5022" data-name="Path 5022" d="M100.674,100.01a1.04,1.04,0,1,0,1,1.825,11.914,11.914,0,0,0,5.149-5.585,11.916,11.916,0,0,0,5.149,5.585,1.04,1.04,0,0,0,1-1.825,9.839,9.839,0,0,1-5-7.159h4.619a1.04,1.04,0,1,0,0-2.081h-4.73V86.435a1.04,1.04,0,1,0-2.081,0V90.77h-3.758a1.04,1.04,0,1,0,0,2.081h3.647A9.838,9.838,0,0,1,100.674,100.01Zm0,0" transform="translate(-89.716 -76.51)" fill="#d6d3d3"/>
    </g>
  </g>
</svg>
