<svg xmlns="http://www.w3.org/2000/svg" width="52" height="52" viewBox="0 0 52 52">
  <g id="Group_97" data-name="Group 97" transform="translate(-351 -640)">
    <circle id="Ellipse_2" data-name="Ellipse 2" cx="26" cy="26" r="26" transform="translate(351 640)" fill="#d7e6fc"/>
    <g id="icon-order-delivery" transform="translate(361.83 693.268)">
      <path id="Path_174" data-name="Path 174" d="M3.926-38.252a3.4,3.4,0,0,0-.748,2.18c0,1.121-.374,1.433-1.62,1.433-1,0-1.5.311-1.37.748.187.561,2.243.872,6.6,1,3.488.062,6.354.436,6.354.748s-2.616.685-5.731.748c-7.226.249-7.662,1.37-.623,1.62,7.1.249,6.479,1.37-.81,1.37s-7.911,1.121-.748,1.37c5.793.187,6.728,1.308,1.37,1.62l-3.426.187v3.551c0,4.921,1.121,6.479,4.547,6.229,2.243-.187,2.741-.436,3.551-2.18.872-1.869,1.184-2.056,3.738-2.056s2.865.187,3.738,2.056c.872,1.807,1.184,1.993,3.738,1.993s2.865-.187,3.738-1.993c.623-1.37,1.37-2.056,2.367-2.056.934,0,1.37-.374,1.37-1.246,0-.685-.249-1.246-.623-1.246-.311,0-.623-1.308-.623-2.865,0-2.554-.311-3.115-3.177-6.229-2.118-2.243-3.738-3.364-4.672-3.364-1.121,0-1.5-.374-1.5-1.433a3.4,3.4,0,0,0-.748-2.18C17.631-39.249,4.923-39.249,3.926-38.252Zm20.121,8.6,2.429,2.492h-7.1v-2.492c0-1.993.249-2.492,1.121-2.492C21.119-32.148,22.739-31.026,24.047-29.656ZM9.283-19.627c.187,1.744-1,2.679-2.679,2.056-.934-.374-1.308-2.8-.5-3.613C7.1-22.181,9.1-21.246,9.283-19.627Zm14.95,0c.187,1.744-1,2.679-2.679,2.056-.934-.374-1.308-2.8-.5-3.613C22.054-22.181,24.047-21.246,24.234-19.627Z" transform="translate(0)" fill="#1665d8"/>
    </g>
  </g>
</svg>
