<?xml version="1.0" encoding="UTF-8"?>
<svg width="28px" height="24px" viewBox="0 0 28 24" version="1.1" xmlns="http://www.w3.org/2000/svg">
    <!-- Generator: sketchtool 53.2 (72643) - https://sketchapp.com -->
    <title>165E3F84-CE74-4FC4-B570-2634F4DCE181</title>
    <desc>Created with sketchtool.</desc>
    <g id="Page-1" stroke="none" stroke-width="1" fill="none" fill-rule="evenodd">
        <g id="Customers-Import-1" transform="translate(-626.000000, -351.000000)" fill="#9EA0A5" fill-rule="nonzero">
            <g id="Group-17" transform="translate(360.000000, 236.000000)">
                <g id="Group-16" transform="translate(30.000000, 104.000000)">
                    <g id="icon-importcustomers" transform="translate(236.000000, 11.000000)">
                        <polygon id="Path" points="13.9275475 9.03105882 8.05933032 14.899276 9.5921267 16.4320724 12.8436923 13.1805068 12.8436923 23.9495023 15.0114027 23.9495023 15.0114027 13.1805068 18.2629683 16.4320724 19.7957647 14.899276"></polygon>
                        <path d="M22.5951312,8.58885068 C22.4669321,3.85900452 18.5794208,0.0504977376 13.8191674,0.0504977376 C11.6323439,0.0504977376 9.53706787,0.859547511 7.91923982,2.32848869 C6.52523077,3.59419005 5.58325792,5.25828054 5.21440724,7.08124887 C3.89657919,7.36463348 2.69370136,8.04629864 1.76302262,9.04957466 C0.626117647,10.2754208 0,11.8717466 0,13.5444706 C0,17.1900814 2.96590045,20.1559819 6.61151131,20.1559819 C6.6201448,20.1559819 6.62866968,20.1558733 6.63491403,20.1557647 L7.74955656,20.1557647 L7.74955656,17.9880543 L6.62595475,17.9880543 L6.60532127,17.9882715 C4.15786425,17.984905 2.16771041,15.9927421 2.16771041,13.5444706 C2.16771041,11.2441086 3.96124887,9.29853394 6.25091403,9.11527602 L7.15053394,9.04327602 L7.24267873,8.14555656 C7.58937557,4.76638914 10.4167059,2.21815385 13.8191674,2.21815385 C17.4647783,2.21815385 20.4306787,5.1840543 20.4306787,8.82966516 L20.4306787,10.7264253 L22.0022443,10.7264253 C24.0043439,10.7264253 25.6331403,12.3552217 25.6331403,14.3573213 C25.6331403,16.3594208 24.0043439,17.9882172 22.0022443,17.9882172 L20.1054842,17.9878371 L20.1054842,20.1556561 L21.9669502,20.1556561 C21.978733,20.1558733 21.9904615,20.1560362 22.0022443,20.1560362 C25.1996742,20.1560362 27.800905,17.5547511 27.800905,14.3573756 C27.800905,11.3600362 25.5152036,8.88662443 22.5951312,8.58885068 Z" id="Path"></path>
                    </g>
                </g>
            </g>
        </g>
    </g>
</svg>
