<svg width="18" height="18" viewBox="0 0 18 18" fill="none" xmlns="http://www.w3.org/2000/svg">
<path d="M15.6643 0H11.0429C10.1672 0 9.34318 0.340971 8.7239 0.960246L0.62146 9.06344C0.226597 9.4583 0 10.0047 0 10.5657C0 11.1238 0.226597 11.6702 0.62146 12.0651L5.42129 16.865C5.81547 17.2591 6.3619 17.4857 6.92287 17.4857C7.48095 17.4857 8.02738 17.2591 8.42227 16.8643L16.5254 8.76109C17.1447 8.1425 17.4857 7.31849 17.4857 6.44277V1.82142C17.4857 0.81674 16.669 0 15.6643 0ZM13.4786 5.82858C12.4739 5.82858 11.6572 5.01184 11.6572 4.00717C11.6572 3.00245 12.4739 2.18575 13.4786 2.18575C14.4833 2.18575 15.3 3.00245 15.3 4.00713C15.3 5.01184 14.4833 5.82858 13.4786 5.82858Z" fill="#4051B6"/>
</svg>
