<svg id="Component_2_7" data-name="Component 2 – 7" xmlns="http://www.w3.org/2000/svg" width="20.236" height="20.236" viewBox="0 0 20.236 20.236">
  <g id="play">
    <path id="Path_4877" data-name="Path 4877" d="M64.189,56.095A8.095,8.095,0,1,1,56.095,48,8.095,8.095,0,0,1,64.189,56.095Zm0,0" transform="translate(-45.976 -45.976)" fill="#cfd2fc"/>
    <path id="Path_4878" data-name="Path 4878" d="M10.118,20.236A10.118,10.118,0,1,1,20.236,10.118,10.118,10.118,0,0,1,10.118,20.236Zm0-19.562a9.444,9.444,0,1,0,9.444,9.444A9.444,9.444,0,0,0,10.118.675Zm0,0" fill="#8690fa"/>
    <path id="Path_4879" data-name="Path 4879" d="M192,136l5.4,4.385-5.4,4.385Zm0,0" transform="translate(-183.905 -130.266)" fill="#3f51b5"/>
  </g>
</svg>
