<?xml version="1.0" encoding="UTF-8"?>
<svg width="18px" height="18px" viewBox="0 0 18 18" version="1.1" xmlns="http://www.w3.org/2000/svg" xmlns:xlink="http://www.w3.org/1999/xlink">
    <!-- Generator: sketchtool 53.2 (72643) - https://sketchapp.com -->
    <title>C9C604CB-6FB0-4A1D-B818-1398676C24FA</title>
    <desc>Created with sketchtool.</desc>
    <g id="v2.0" stroke="none" stroke-width="1" fill="none" fill-rule="evenodd">
        <g id="R-Home-1" transform="translate(-1021.000000, -343.000000)" fill="#556CE7" fill-rule="nonzero">
            <g id="icon-Completed-Reservations" transform="translate(1021.000000, 343.000000)">
                <path d="M15.3638775,2.6361225 C11.849055,-0.8787075 6.150945,-0.8787075 2.6361225,2.6361225 C-0.8787075,6.150945 -0.8787075,11.849055 2.6361225,15.3638775 C6.150945,18.8787075 11.849055,18.8787075 15.3638775,15.3638775 C18.8787075,11.849055 18.8787075,6.150945 15.3638775,2.6361225 Z M13.8201525,7.57278 C13.61859,7.773885 13.41471,7.9773 13.2131475,8.1783975 C12.3281325,9.0614025 11.445435,9.94209 10.56042,10.8250875 C10.004385,11.3775375 9.450675,11.932305 8.8969575,12.484755 C8.542485,12.8384175 7.9401225,12.8384175 7.58565,12.484755 C7.476765,12.37611 7.3678725,12.2674725 7.2612975,12.1588275 C6.4944375,11.391405 5.727585,10.6262925 4.960725,9.85887 C4.594665,9.49365 4.62015,8.920395 4.960725,8.550555 C5.298975,8.183025 5.92914,8.20845 6.272025,8.550555 C6.3809175,8.6591925 6.48981,8.7678375 6.5963775,8.876475 C7.14546,9.424305 7.6945425,9.974445 8.2413075,10.522275 C9.1101,9.655455 9.9765825,8.7909525 10.8453825,7.9241325 L12.508845,6.264465 C12.8748975,5.899245 13.449465,5.92467 13.8201525,6.264465 C14.1885225,6.60426 14.1630375,7.2306825 13.8201525,7.57278 Z" id="icon-booking-completed"></path>
            </g>
        </g>
    </g>
</svg>