<?xml version="1.0" encoding="UTF-8"?>
<svg width="36px" height="40px" viewBox="0 0 36 40" version="1.1" xmlns="http://www.w3.org/2000/svg">
    <!-- Generator: sketchtool 53.2 (72643) - https://sketchapp.com -->
    <title>84EBA62B-34B0-4211-BC12-ECF05AD436E8</title>
    <desc>Created with sketchtool.</desc>
    <g id="Page-1" stroke="none" stroke-width="1" fill="none" fill-rule="evenodd">
        <g id="Customers-Import-2" transform="translate(-410.000000, -360.000000)" fill="#556CE7" fill-rule="nonzero">
            <g id="Group-18" transform="translate(360.000000, 236.000000)">
                <g id="Group-13" transform="translate(30.000000, 104.000000)">
                    <g id="icon-CSVfile" transform="translate(20.000000, 20.000000)">
                        <path d="M0.728,27.5235556 L23.9715556,27.5235556 C24.3706667,27.5235556 24.6951111,27.2057778 24.6951111,26.8031111 L24.6951111,16.5675556 C24.6951111,16.164 24.3711111,15.8453333 23.9715556,15.8453333 L0.722222222,15.8453333 C0.322666667,15.8453333 0.00177777778,16.1644444 0.00444444444,16.5675556 L0.000444444444,26.8026667 C0.00266666667,27.2057778 0.327555556,27.5235556 0.728,27.5235556 Z M17.4493333,18.2364444 L18.1888889,21.1733333 C18.2484444,21.4071111 18.3097778,21.6551111 18.372,21.9128889 C18.4288889,21.6777778 18.4893333,21.4377778 18.5524444,21.1986667 L19.3271111,18.2364444 L21.3742222,18.2364444 L19.3053333,25.24 L17.2066667,25.24 L15.2368889,18.2364444 L17.4493333,18.2364444 Z M11.6453333,22.5026667 C10.4946667,22.0515556 9.91066667,21.3266667 9.91066667,20.3466667 C9.91066667,19.0408889 10.9137778,18.1293333 12.3471111,18.1293333 C13.0044444,18.1293333 13.7391111,18.3262222 14.1244444,18.5222222 L14.3715556,18.6475556 L13.904,20.3364444 L13.5306667,20.1342222 C13.348,20.036 12.8813333,19.8791111 12.4062222,19.8791111 C12.0106667,19.8791111 11.9804444,20.1457778 11.9804444,20.2266667 C11.9804444,20.3631111 11.9804444,20.4608889 12.7613333,20.7951111 C13.8831111,21.2617778 14.4062222,21.952 14.4062222,22.9675556 C14.4062222,24.0146667 13.7324444,25.24 11.8302222,25.24 C11.1226667,25.24 10.2306667,24.9911111 9.87066667,24.7675556 L9.67955556,24.6484444 L9.96666667,22.9022222 L10.3897778,23.1466667 C10.672,23.308 11.3293333,23.4902222 11.8213333,23.4902222 C12.1595556,23.4902222 12.3626667,23.3324444 12.3626667,23.0684444 C12.3622222,22.952 12.3622222,22.7924444 11.6453333,22.5026667 Z M6.78844444,18.1293333 C7.532,18.1293333 8.09022222,18.2951111 8.36622222,18.4506667 L8.58622222,18.5742222 L8.17022222,20.3391111 L7.79777778,20.1697778 C7.50488889,20.0355556 7.18622222,19.9684444 6.84711111,19.9684444 C5.89777778,19.9684444 5.35422222,20.5982222 5.35422222,21.6982222 C5.35422222,22.7804444 5.90133333,23.4008889 6.856,23.4008889 C7.21333333,23.4008889 7.60222222,23.3124444 7.80355556,23.2248889 L8.19422222,23.0551111 L8.50577778,24.8155556 L8.29377778,24.9297778 C8.01822222,25.0795556 7.44533333,25.24 6.66,25.24 C4.63111111,25.24 3.32044444,23.8817778 3.32044444,21.7822222 C3.32133333,19.5968889 4.71555556,18.1293333 6.78844444,18.1293333 Z" id="Shape"></path>
                        <path d="M35.2768889,6.45288889 L29.0702222,0.254666667 C28.9297778,0.114666667 28.6537778,0 28.4537778,0 L3.98177778,0 C3.58266667,0 3.26222222,0.323555556 3.26311111,0.720888889 L3.26311111,13.5173333 C3.26311111,13.7168889 3.42533333,13.8786667 3.62444444,13.8786667 L4.75555556,13.8786667 C4.95333333,13.8786667 5.11511111,13.7168889 5.11511111,13.5173333 L5.11511111,2.07333333 C5.11511111,1.92488889 5.23511111,1.80666667 5.38177778,1.80666667 L26.96,1.80666667 C27.1075556,1.80666667 27.2266667,1.92488889 27.2266667,2.07333333 L27.2302222,7.53066667 C27.2257778,7.92933333 27.5462222,8.25155556 27.9444444,8.25155556 L33.4506667,8.25155556 C33.5973333,8.25155556 33.7173333,8.37111111 33.7173333,8.51866667 L33.7173333,37.9284444 C33.7173333,38.076 33.5973333,38.1951111 33.4506667,38.1951111 L5.38088889,38.1951111 C5.23422222,38.1951111 5.11422222,38.076 5.11422222,37.9284444 L5.11422222,29.8515556 C5.11422222,29.6524444 4.95288889,29.4902222 4.75466667,29.4902222 L3.62355556,29.4902222 C3.42488889,29.4902222 3.26222222,29.652 3.26177778,29.8515556 L3.26266667,39.2795556 C3.26222222,39.6777778 3.58266667,40 3.98177778,40 L34.8333333,40 C35.2315556,40 35.5537778,39.6777778 35.5555556,39.2795556 L35.5293333,7.06711111 C35.5311111,6.86888889 35.4168889,6.59244444 35.2768889,6.45288889 Z" id="Path"></path>
                    </g>
                </g>
            </g>
        </g>
    </g>
</svg>
