<svg xmlns="http://www.w3.org/2000/svg" width="543.051" height="288.128" viewBox="0 0 543.051 288.128">
  <g id="Group_204" data-name="Group 204" transform="translate(-1358.449 -546.771)">
    <g id="Group_203" data-name="Group 203">
      <g id="_3051232" data-name="3051232" transform="translate(1240.728 386.471)">
        <g id="Group_159" data-name="Group 159" transform="translate(118.272 160.8)">
          <g id="Group_158" data-name="Group 158">
            <g id="Group_142" data-name="Group 142">
              <g id="Group_126" data-name="Group 126" transform="translate(413.476 35.206)">
                <path id="Path_285" data-name="Path 285" d="M484.7,220.887a24.567,24.567,0,0,0,1.016,6.206,25.009,25.009,0,0,0,2.257,5.3l4.062-1.693a21.594,21.594,0,0,0,4.288,5.3l-2.482,3.611a24.17,24.17,0,0,0,5.078,3.611,8.145,8.145,0,0,0,2.257,1.016c.226.113.451.113.564.226a22.735,22.735,0,0,0,2.6.79l1.693-4.175a7.188,7.188,0,0,0,.79.226c.339.113.564.113.9.226a25.751,25.751,0,0,0,5.078.451l.79,4.4a22.96,22.96,0,0,0,6.093-1.016,20.54,20.54,0,0,0,5.3-2.37l-1.693-4.062a24.076,24.076,0,0,0,5.3-4.175l3.611,2.482a24.169,24.169,0,0,0,3.611-5.078,24.613,24.613,0,0,0,2.144-5.416l-4.062-1.693a22.3,22.3,0,0,0,.79-6.77l4.288-.79a24.561,24.561,0,0,0-1.016-6.206,20.545,20.545,0,0,0-2.37-5.3l-4.062,1.693a24.075,24.075,0,0,0-4.175-5.3l2.482-3.611a24.168,24.168,0,0,0-5.078-3.611,24.609,24.609,0,0,0-5.416-2.144l-1.693,4.062a22.293,22.293,0,0,0-6.77-.79l-.79-4.288a24.567,24.567,0,0,0-6.206,1.016,20.539,20.539,0,0,0-5.3,2.37l1.693,4.062a19.686,19.686,0,0,0-5.3,4.288l-3.611-2.482a24.172,24.172,0,0,0-3.611,5.078,24.612,24.612,0,0,0-2.144,5.416l4.062,1.693a22.3,22.3,0,0,0-.79,6.77Zm12.864,2.144A14.752,14.752,0,1,1,516.521,233.3,14.8,14.8,0,0,1,497.564,223.031Z" transform="translate(-484.7 -192)" fill="#f5f6ff"/>
                <g id="Group_125" data-name="Group 125" transform="translate(19.634 16.249)">
                  <path id="Path_286" data-name="Path 286" d="M511.691,208.882a10.858,10.858,0,0,1,2.031.79,8.01,8.01,0,0,1,1.58,1.128,5.3,5.3,0,0,1,1.016,1.354,3,3,0,0,1,.339,1.354.4.4,0,0,1-.451.451h-3.16a.845.845,0,0,1-.564-.113c-.113-.113-.226-.113-.451-.339l-.226-.226a1.558,1.558,0,0,0-.451-.339,5.5,5.5,0,0,0-.79-.339,3.479,3.479,0,0,0-1.128-.113,2.485,2.485,0,0,0-.9.113,1.631,1.631,0,0,0-.79.226,2.466,2.466,0,0,0-.564.339.818.818,0,0,0,0,1.128,2.421,2.421,0,0,0,.79.451c.338.113.9.226,1.467.451.564.113,1.354.339,2.257.451q1.354.338,2.37.677a6.127,6.127,0,0,1,1.693,1.016,4.294,4.294,0,0,1,1.016,1.467,5.467,5.467,0,0,1,.339,2.031,5.271,5.271,0,0,1-.339,1.918,3.666,3.666,0,0,1-1.128,1.467,6.325,6.325,0,0,1-1.693,1.128,10.7,10.7,0,0,1-2.257.677v1.693a.586.586,0,0,1-.226.451.855.855,0,0,1-.451.226h-3.159a.586.586,0,0,1-.451-.226.855.855,0,0,1-.226-.451v-1.805a12.031,12.031,0,0,1-2.144-.79,5.663,5.663,0,0,1-1.58-1.128,5.3,5.3,0,0,1-1.016-1.354,3.475,3.475,0,0,1-.339-1.467.4.4,0,0,1,.451-.451h3.159a.846.846,0,0,1,.564.113c.113.113.226.113.339.226s.113.226.338.339a2.463,2.463,0,0,0,.564.451,4.908,4.908,0,0,0,.79.451,4.057,4.057,0,0,0,1.241.226,10.386,10.386,0,0,0,2.144-.226c.564-.226.9-.564.9-1.016a.62.62,0,0,0-.339-.564,6.7,6.7,0,0,0-.9-.451,11.576,11.576,0,0,1-1.58-.451c-.677-.113-1.467-.339-2.37-.451a6.438,6.438,0,0,1-3.724-1.805,5.179,5.179,0,0,1-.79-5.078,6.4,6.4,0,0,1,.9-1.467,7.246,7.246,0,0,1,1.467-1.128,9.763,9.763,0,0,1,1.918-.79v-2.031a.586.586,0,0,1,.226-.451.855.855,0,0,1,.451-.226h3.159a.586.586,0,0,1,.451.226.855.855,0,0,1,.226.451v1.805Z" transform="translate(-502.1 -206.4)" fill="#f5f6ff"/>
                </g>
              </g>
              <g id="Group_127" data-name="Group 127" transform="translate(387.748 2.14)">
                <path id="Path_287" data-name="Path 287" d="M464.947,180.868c2.257-1.805,6.206-1.016,7.56-1.918,1.58-1.128,1.467-2.37,1.805-4.175A25.888,25.888,0,0,1,476,169.019a9.776,9.776,0,0,1,9.478-6.319,9.407,9.407,0,0,1,6.658,2.821c1.58,1.58,2.37,4.852,4.514,5.755,3.047,1.128,5.755-3.047,8.914-2.482a5.469,5.469,0,0,1,4.4,3.949,14.574,14.574,0,0,1-.113,3.837c0,1.354.226,2.821,1.354,3.5a2.719,2.719,0,0,0,1.693.451,14.894,14.894,0,0,0,4.4-.677,6.187,6.187,0,0,1,4.288.451c1.693,1.016,2.031,3.16,2.821,4.739a9.7,9.7,0,0,0,3.837,4.4c3.949,2.257,9.14.226,12.525,3.724H467.316c-2.37,0-5.416-2.482-5.416-6.319A7.714,7.714,0,0,1,464.947,180.868Z" transform="translate(-461.9 -162.697)" fill="#e6e8fc"/>
              </g>
              <g id="Group_128" data-name="Group 128" transform="translate(47.875 20.018)">
                <path id="Path_288" data-name="Path 288" d="M272.411,205.915c-4.965-.9-9.14-1.467-11.4-5.868-2.257-4.514-3.724-9.366-6.658-13.428-5.191-7-15.572-10.494-23.922-6.206-9.479,4.965-10.156,20.762-22.681,20.762-2.708,0-5.3-1.016-8.012-1.354-5.981-.564-13.992,3.16-15.459,9.366-.451,1.693-2.37,9.14-7.56,9.14-3.385,0-11.622-1.354-16.023,5.078H274.33c4.288,0,6.883-4.062,6.883-7A10.809,10.809,0,0,0,272.411,205.915Z" transform="translate(-160.7 -178.54)" fill="#e6e8fc"/>
              </g>
              <g id="Group_137" data-name="Group 137">
                <path id="Path_289" data-name="Path 289" d="M295.618,196.77a2.358,2.358,0,1,1-3.047-1.354A2.43,2.43,0,0,1,295.618,196.77Z" transform="translate(-96.087 -156.374)" fill="none" stroke="#b6c2ff" stroke-linecap="round" stroke-linejoin="round" stroke-miterlimit="10" stroke-width="1"/>
                <path id="Path_290" data-name="Path 290" d="M203.718,178.477a2.358,2.358,0,1,1-3.047-1.354A2.25,2.25,0,0,1,203.718,178.477Z" transform="translate(-107.886 -158.73)" fill="none" stroke="#b6c2ff" stroke-linecap="round" stroke-linejoin="round" stroke-miterlimit="10" stroke-width="1"/>
                <path id="Path_291" data-name="Path 291" d="M121.689,289.013c2.37,1.467,1.467,4.4-.79,4.626a2.423,2.423,0,0,1-2.257-1.016A2.5,2.5,0,0,1,121.689,289.013Z" transform="translate(-118.272 -144.353)" fill="none" stroke="#b6c2ff" stroke-linecap="round" stroke-linejoin="round" stroke-miterlimit="10" stroke-width="1"/>
                <path id="Path_292" data-name="Path 292" d="M365.818,199.872a2.358,2.358,0,1,1-3.047-1.354A2.375,2.375,0,0,1,365.818,199.872Z" transform="translate(-87.073 -155.977)" fill="none" stroke="#b6c2ff" stroke-linecap="round" stroke-linejoin="round" stroke-miterlimit="10" stroke-width="1"/>
                <path id="Path_293" data-name="Path 293" d="M554.218,209.77a2.358,2.358,0,1,1-3.047-1.354A2.43,2.43,0,0,1,554.218,209.77Z" transform="translate(-62.883 -154.704)" fill="none" stroke="#b6c2ff" stroke-linecap="round" stroke-linejoin="round" stroke-miterlimit="10" stroke-width="1"/>
                <path id="Path_294" data-name="Path 294" d="M541.018,318.277a2.357,2.357,0,1,1-3.047-1.354A2.25,2.25,0,0,1,541.018,318.277Z" transform="translate(-64.578 -140.78)" fill="none" stroke="#b6c2ff" stroke-linecap="round" stroke-linejoin="round" stroke-miterlimit="10" stroke-width="1"/>
                <g id="Group_129" data-name="Group 129" transform="translate(226.162 6.206)">
                  <line id="Line_1" data-name="Line 1" y2="4.626" transform="translate(2.37)" fill="none" stroke="#b6c2ff" stroke-linecap="round" stroke-linejoin="round" stroke-miterlimit="10" stroke-width="1"/>
                  <line id="Line_2" data-name="Line 2" x1="4.626" transform="translate(0 2.37)" fill="none" stroke="#b6c2ff" stroke-linecap="round" stroke-linejoin="round" stroke-miterlimit="10" stroke-width="1"/>
                </g>
                <g id="Group_130" data-name="Group 130" transform="translate(285.967)">
                  <line id="Line_3" data-name="Line 3" y2="4.739" transform="translate(2.37)" fill="none" stroke="#b6c2ff" stroke-linecap="round" stroke-linejoin="round" stroke-miterlimit="10" stroke-width="1"/>
                  <line id="Line_4" data-name="Line 4" x1="4.739" transform="translate(0 2.37)" fill="none" stroke="#b6c2ff" stroke-linecap="round" stroke-linejoin="round" stroke-miterlimit="10" stroke-width="1"/>
                </g>
                <g id="Group_131" data-name="Group 131" transform="translate(121.447 106.295)">
                  <line id="Line_5" data-name="Line 5" y2="4.739" transform="translate(2.257)" fill="none" stroke="#b6c2ff" stroke-linecap="round" stroke-linejoin="round" stroke-miterlimit="10" stroke-width="1"/>
                  <line id="Line_6" data-name="Line 6" x1="4.626" transform="translate(0 2.37)" fill="none" stroke="#b6c2ff" stroke-linecap="round" stroke-linejoin="round" stroke-miterlimit="10" stroke-width="1"/>
                </g>
                <g id="Group_132" data-name="Group 132" transform="translate(37.832 83.501)">
                  <line id="Line_7" data-name="Line 7" y2="4.626" transform="translate(2.37)" fill="none" stroke="#b6c2ff" stroke-linecap="round" stroke-linejoin="round" stroke-miterlimit="10" stroke-width="1"/>
                  <line id="Line_8" data-name="Line 8" x1="4.739" transform="translate(0 2.37)" fill="none" stroke="#b6c2ff" stroke-linecap="round" stroke-linejoin="round" stroke-miterlimit="10" stroke-width="1"/>
                </g>
                <g id="Group_133" data-name="Group 133" transform="translate(401.966 42.428)">
                  <line id="Line_9" data-name="Line 9" y2="4.626" transform="translate(2.37)" fill="none" stroke="#b6c2ff" stroke-linecap="round" stroke-linejoin="round" stroke-miterlimit="10" stroke-width="1"/>
                  <line id="Line_10" data-name="Line 10" x1="4.739" transform="translate(0 2.37)" fill="none" stroke="#b6c2ff" stroke-linecap="round" stroke-linejoin="round" stroke-miterlimit="10" stroke-width="1"/>
                </g>
                <g id="Group_134" data-name="Group 134" transform="translate(83.984 171.742)">
                  <line id="Line_11" data-name="Line 11" y2="4.739" transform="translate(2.37)" fill="none" stroke="#b6c2ff" stroke-linecap="round" stroke-linejoin="round" stroke-miterlimit="10" stroke-width="1"/>
                  <line id="Line_12" data-name="Line 12" x1="4.626" transform="translate(0 2.37)" fill="none" stroke="#b6c2ff" stroke-linecap="round" stroke-linejoin="round" stroke-miterlimit="10" stroke-width="1"/>
                </g>
                <g id="Group_135" data-name="Group 135" transform="translate(537.261 125.478)">
                  <line id="Line_13" data-name="Line 13" y2="4.626" transform="translate(2.37)" fill="none" stroke="#b6c2ff" stroke-linecap="round" stroke-linejoin="round" stroke-miterlimit="10" stroke-width="1"/>
                  <line id="Line_14" data-name="Line 14" x1="4.739" transform="translate(0 2.257)" fill="none" stroke="#b6c2ff" stroke-linecap="round" stroke-linejoin="round" stroke-miterlimit="10" stroke-width="1"/>
                </g>
                <g id="Group_136" data-name="Group 136" transform="translate(464.028 99.976)">
                  <line id="Line_15" data-name="Line 15" y2="4.626" transform="translate(2.37)" fill="none" stroke="#b6c2ff" stroke-linecap="round" stroke-linejoin="round" stroke-miterlimit="10" stroke-width="1"/>
                  <line id="Line_16" data-name="Line 16" x1="4.626" transform="translate(0 2.257)" fill="none" stroke="#b6c2ff" stroke-linecap="round" stroke-linejoin="round" stroke-miterlimit="10" stroke-width="1"/>
                </g>
              </g>
              <g id="Group_139" data-name="Group 139" transform="translate(70.105 87.564)">
                <path id="Path_295" data-name="Path 295" d="M212.9,254.649A16.249,16.249,0,1,1,196.649,238.4,16.253,16.253,0,0,1,212.9,254.649Z" transform="translate(-180.4 -238.4)" fill="#fff" stroke="#cdd2f9" stroke-miterlimit="10" stroke-width="1"/>
                <g id="Group_138" data-name="Group 138" transform="translate(9.027 5.868)">
                  <path id="Path_296" data-name="Path 296" d="M197.653,245.857c.677.226,1.354.451,1.918.677a16.509,16.509,0,0,1,1.467,1.016,3.2,3.2,0,0,1,.9,1.241,2.942,2.942,0,0,1,.339,1.241.4.4,0,0,1-.451.451h-3.047a1.017,1.017,0,0,1-.564-.113c-.113-.113-.226-.113-.451-.226l-.226-.226a1.558,1.558,0,0,0-.451-.339l-.677-.339a2.5,2.5,0,0,0-1.016-.113,1.673,1.673,0,0,0-.79.113,1.21,1.21,0,0,0-.677.226c-.226.113-.339.226-.564.339a.818.818,0,0,0,0,1.128,1.581,1.581,0,0,0,.79.451,11.71,11.71,0,0,0,1.354.339c.564.113,1.241.226,2.144.451a10.694,10.694,0,0,1,2.257.677,3.825,3.825,0,0,1,1.58,1.016,2.625,2.625,0,0,1,.9,1.354,4.863,4.863,0,0,1,.339,1.918,4.678,4.678,0,0,1-.339,1.805,4.294,4.294,0,0,1-1.016,1.467,4.732,4.732,0,0,1-1.58,1.016,13.641,13.641,0,0,1-2.031.564v1.693a.8.8,0,0,1-.677.677h-3.047a.8.8,0,0,1-.677-.677v-1.58c-.79-.226-1.354-.451-2.031-.677a8.009,8.009,0,0,1-1.58-1.128,3.892,3.892,0,0,1-1.016-1.354,3.123,3.123,0,0,1-.339-1.467.4.4,0,0,1,.451-.451H191.9a1.017,1.017,0,0,1,.564.113c.113,0,.226.113.339.226a.868.868,0,0,1,.226.339l.451.451a5.5,5.5,0,0,0,.79.339,3.479,3.479,0,0,0,1.128.113,10.12,10.12,0,0,0,2.031-.226c.564-.226.79-.451.79-1.016a.621.621,0,0,0-.339-.564,3.306,3.306,0,0,0-.9-.451c-.451-.113-.9-.226-1.58-.339s-1.354-.226-2.257-.451a6.786,6.786,0,0,1-3.5-1.693,4.181,4.181,0,0,1-1.128-3.16,3.982,3.982,0,0,1,.339-1.58,3.573,3.573,0,0,1,.9-1.354,4.516,4.516,0,0,1,1.354-1.128,4.833,4.833,0,0,1,1.918-.677v-1.693a.8.8,0,0,1,.677-.677h3.047a.8.8,0,0,1,.677.677Z" transform="translate(-188.4 -243.6)" fill="#e6e8fc"/>
                </g>
              </g>
              <g id="Group_141" data-name="Group 141" transform="translate(164.439 4.288)">
                <path id="Path_297" data-name="Path 297" d="M286.568,175.884A11.284,11.284,0,1,1,275.284,164.6,11.317,11.317,0,0,1,286.568,175.884Z" transform="translate(-264 -164.6)" fill="#fff" stroke="#cdd2f9" stroke-miterlimit="10" stroke-width="1"/>
                <g id="Group_140" data-name="Group 140" transform="translate(6.432 3.837)">
                  <path id="Path_298" data-name="Path 298" d="M276.019,169.805c.451.113.9.339,1.354.451a4.548,4.548,0,0,1,1.693,1.693,2.655,2.655,0,0,1,.226.9c0,.113,0,.226-.113.226-.113.113-.113.113-.226.113h-2.144a.415.415,0,0,1-.339-.113.243.243,0,0,1-.226-.226l-.113-.113a.867.867,0,0,0-.338-.226c-.113-.113-.339-.113-.451-.226a1.431,1.431,0,0,0-.677-.113H274.1c-.226,0-.339.113-.451.113-.113.113-.226.113-.338.226s-.113.226-.113.451a.678.678,0,0,0,.113.451,1.206,1.206,0,0,0,.564.339,2.126,2.126,0,0,0,.9.226c.451.113.9.226,1.467.339a6.469,6.469,0,0,1,1.58.451,9.923,9.923,0,0,1,1.128.677,1.643,1.643,0,0,1,.677,1.016,4.206,4.206,0,0,1,.226,1.354,4.054,4.054,0,0,1-.226,1.241l-.677,1.016a2.341,2.341,0,0,1-1.128.677,5.586,5.586,0,0,1-1.467.451v1.128a.4.4,0,0,1-.451.451h-2.482a.4.4,0,0,1-.451-.451v-1.241a9.414,9.414,0,0,1-1.354-.451,2.457,2.457,0,0,1-1.016-.79,1.755,1.755,0,0,1-.677-.9,3.3,3.3,0,0,1-.226-1.016c0-.113,0-.226.113-.226.113-.113.113-.113.226-.113h2.482a.394.394,0,0,1,.226.113l.226.226.339.339a.862.862,0,0,0,.564.226,1.673,1.673,0,0,0,.79.113,5.717,5.717,0,0,0,1.467-.226.715.715,0,0,0,.564-.677.856.856,0,0,0-.226-.451,1.837,1.837,0,0,0-.677-.339,2.694,2.694,0,0,0-1.016-.226c-.451-.113-.9-.226-1.58-.339a4.637,4.637,0,0,1-2.37-1.128,2.909,2.909,0,0,1-.79-2.257,4.008,4.008,0,0,1,.226-1.128,3.365,3.365,0,0,1,1.58-1.693,4.042,4.042,0,0,1,1.241-.451v-1.241a.4.4,0,0,1,.451-.451h2.144a.4.4,0,0,1,.451.451Z" transform="translate(-269.7 -168)" fill="#e6e8fc"/>
                </g>
              </g>
            </g>
            <g id="Group_155" data-name="Group 155" transform="translate(91.54 110.321)">
              <g id="Group_144" data-name="Group 144" transform="translate(211.883)">
                <g id="Group_143" data-name="Group 143">
                  <path id="Path_299" data-name="Path 299" d="M387.655,428.541c-1.805-28.774,1.128-69.622,13.879-106.408,13.2-38.14,36.673-71.653,62.852-61.836,10.043,3.724,11.4,20.537,7.109,36.222-12.412,46.151-41.186,74.136-52.245,132.022" transform="translate(-387.17 -258.568)" fill="#e6e8fc"/>
                </g>
                <path id="Path_300" data-name="Path 300" d="M402.7,428.524c4.4-90.046,54.727-169.824,54.727-169.824" transform="translate(-385.176 -258.551)" fill="none" stroke="#fff" stroke-linejoin="round" stroke-miterlimit="10" stroke-width="1"/>
              </g>
              <g id="Group_146" data-name="Group 146" transform="translate(0 86.649)">
                <g id="Group_145" data-name="Group 145">
                  <path id="Path_301" data-name="Path 301" d="M296.781,421.5c-15.685-39.72-71.653-112.953-95.462-76.054-4.626,7.222-.339,18.731,6.883,26.856,21.214,24.035,43.669,16.926,67.7,49.2" transform="translate(-199.397 -335.358)" fill="#e6e8fc"/>
                </g>
                <path id="Path_302" data-name="Path 302" d="M286.26,420.855C259.63,364.773,204,340.4,204,340.4" transform="translate(-198.806 -334.71)" fill="none" stroke="#fff" stroke-linejoin="round" stroke-miterlimit="10" stroke-width="1"/>
              </g>
              <g id="Group_148" data-name="Group 148" transform="translate(27.114 21.485)">
                <g id="Group_147" data-name="Group 147">
                  <path id="Path_303" data-name="Path 303" d="M304.077,428.917c9.14-61.046-27.194-176.594-74.361-146.353-10.833,6.883-5.642,33.626.451,48.747,15.459,37.8,41.525,47.393,52.132,97.606" transform="translate(-223.426 -277.608)" fill="#647ee8"/>
                </g>
                <path id="Path_304" data-name="Path 304" d="M293.895,428.536C293.105,349.322,233.3,279.7,233.3,279.7" transform="translate(-222.158 -277.339)" fill="none" stroke="#fff" stroke-linejoin="round" stroke-miterlimit="10" stroke-width="1"/>
              </g>
              <g id="Group_150" data-name="Group 150" transform="translate(99.581 34.227)">
                <g id="Group_149" data-name="Group 149" transform="translate(0 0.555)">
                  <path id="Path_305" data-name="Path 305" d="M341.418,427.4c12.187-47.731,9.7-149.287-41.751-136.987-9.7,2.257-13.089,16.813-11.735,29.564,3.949,37.576,28.548,60.256,29.564,107.423" transform="translate(-287.647 -289.392)" fill="#e6e8fc"/>
                </g>
                <path id="Path_306" data-name="Path 306" d="M328.7,427.467c6.883-77.634-29-138.567-29-138.567" transform="translate(-286.099 -288.9)" fill="none" stroke="#fff" stroke-linejoin="round" stroke-miterlimit="10" stroke-width="1"/>
              </g>
              <g id="Group_152" data-name="Group 152" transform="translate(236.741 38.724)">
                <g id="Group_151" data-name="Group 151">
                  <path id="Path_307" data-name="Path 307" d="M409.2,424.134c3.611-35.883,14.669-80.68,32.5-107.423,14.218-21.439,36.56-31.031,49.649-17.716,7.335,7.447,4.514,28.887-6.545,45.023-19.747,28.548-43.218,38.817-56.307,80" transform="translate(-409.2 -292.885)" fill="#647ee8"/>
                </g>
                <path id="Path_308" data-name="Path 308" d="M417.4,423.747C434.439,342.841,487.022,295.9,487.022,295.9" transform="translate(-408.147 -292.498)" fill="none" stroke="#fff" stroke-linejoin="round" stroke-miterlimit="10" stroke-width="1"/>
              </g>
              <g id="Group_154" data-name="Group 154" transform="translate(255.134 89.189)">
                <g id="Group_153" data-name="Group 153">
                  <path id="Path_309" data-name="Path 309" d="M425.5,418.392c11.961-33.626,43.1-72.33,66.688-79.439,9.591-2.821,24.26-1.805,26.066,8.914,1.467,8.576-7.109,21.552-16.926,28.774-17.942,13.315-34.867,18.731-54.727,41.751" transform="translate(-425.5 -337.608)" fill="#e6e8fc"/>
                </g>
                <path id="Path_310" data-name="Path 310" d="M436.7,417.8c35.206-62.175,77.747-75.6,77.747-75.6" transform="translate(-424.062 -337.019)" fill="none" stroke="#fff" stroke-linejoin="round" stroke-miterlimit="10" stroke-width="1"/>
              </g>
            </g>
            <g id="Group_157" data-name="Group 157" transform="translate(510.856 89.595)">
              <path id="Path_311" data-name="Path 311" d="M593.568,251.484A11.284,11.284,0,1,1,582.284,240.2,11.317,11.317,0,0,1,593.568,251.484Z" transform="translate(-571 -240.2)" fill="#fff" stroke="#cdd2f9" stroke-miterlimit="10" stroke-width="1"/>
              <g id="Group_156" data-name="Group 156" transform="translate(6.432 3.837)">
                <path id="Path_312" data-name="Path 312" d="M583.019,245.405c.451.113.9.339,1.354.451a4.548,4.548,0,0,1,1.693,1.693,2.656,2.656,0,0,1,.226.9c0,.113,0,.226-.113.226-.113.113-.113.113-.226.113h-2.144a.414.414,0,0,1-.339-.113.243.243,0,0,1-.226-.226l-.113-.113a.867.867,0,0,0-.339-.226c-.113-.113-.338-.113-.451-.226a1.431,1.431,0,0,0-.677-.113H581.1c-.226,0-.339.113-.451.113-.113.113-.226.113-.339.226s-.113.226-.113.451a.679.679,0,0,0,.113.451,1.206,1.206,0,0,0,.564.339,2.125,2.125,0,0,0,.9.226c.451.113.9.226,1.467.339a6.471,6.471,0,0,1,1.58.451,9.917,9.917,0,0,1,1.128.677,1.643,1.643,0,0,1,.677,1.016,4.21,4.21,0,0,1,.226,1.354,4.056,4.056,0,0,1-.226,1.241l-.677,1.016a2.341,2.341,0,0,1-1.128.677,5.588,5.588,0,0,1-1.467.451v1.128a.4.4,0,0,1-.451.451h-2.483a.4.4,0,0,1-.451-.451v-1.241a9.4,9.4,0,0,1-1.354-.451,2.457,2.457,0,0,1-1.016-.79,1.754,1.754,0,0,1-.677-.9,3.3,3.3,0,0,1-.226-1.016c0-.113,0-.226.113-.226.113-.113.113-.113.226-.113h2.483a.394.394,0,0,1,.226.113l.226.226.339.339a.862.862,0,0,0,.564.226,1.673,1.673,0,0,0,.79.113,5.717,5.717,0,0,0,1.467-.226.715.715,0,0,0,.564-.677.855.855,0,0,0-.226-.451,1.836,1.836,0,0,0-.677-.339,2.694,2.694,0,0,0-1.016-.226c-.451-.113-.9-.226-1.58-.339a4.636,4.636,0,0,1-2.37-1.128,2.909,2.909,0,0,1-.79-2.257,4.01,4.01,0,0,1,.226-1.128,3.366,3.366,0,0,1,1.58-1.693,4.042,4.042,0,0,1,1.241-.451v-1.241a.4.4,0,0,1,.451-.451h2.144a.4.4,0,0,1,.451.451Z" transform="translate(-576.7 -243.6)" fill="#e6e8fc"/>
              </g>
            </g>
          </g>
        </g>
        <g id="Group_167" data-name="Group 167" transform="translate(308.965 331.409)">
          <path id="Path_313" data-name="Path 313" d="M345.642,401.821c0,.113-.226-5.755-9.027-10.833-8.914-5.529-27.307-3.611-30.015-9.253-2.821-6.093,8.914-5.3,13.654-10.268s6.319-7.335-.677-8.237-11.284-1.241-11.51-7c-.339-5.868-11.622-2.37-17.6-6.206-6.206-3.949-3.272-9.817,7.9-10.156,11.058-.113,11.284-1.918,8.012-3.385-3.16-1.467-12.977-3.837-9.14-7,3.949-3.272,10.268-.9,6.77-4.514-3.385-3.611-11.284-5.868-7.786-10.156,3.5-4.4,13.089-4.514,19.183,5.868,5.98,10.381,7.9,13.315,13.315,14.1,5.191.9,9.817-4.965,16.249-3.047,6.432,2.031,5.642,8.124,2.031,12.3-3.611,4.288-9.591,12.638-5.416,15.91,3.949,3.385,8.237-2.257,13.654-3.5,5.98-1.467,13.315,3.385,8.012,12.074-5.416,8.576-14.218,15.572-13.315,34.642C348.689,402.724,347.222,402.272,345.642,401.821Z" transform="translate(-287.267 -311.996)" fill="#b0affd"/>
          <g id="Group_166" data-name="Group 166" transform="translate(6.356 2.402)">
            <g id="Group_160" data-name="Group 160" transform="translate(7.701)" opacity="0.7">
              <path id="Path_314" data-name="Path 314" d="M346.638,402.563c-.113,0-.339-.113-.339-.226-18.731-65-46.151-87.451-46.49-87.676a.319.319,0,0,1,.451-.451c.226.226,27.871,22.906,46.716,88.015a.36.36,0,0,1-.339.339Z" transform="translate(-299.725 -314.125)" fill="#9797ef"/>
            </g>
            <g id="Group_161" data-name="Group 161" transform="translate(5.755 15.725)" opacity="0.7">
              <path id="Path_315" data-name="Path 315" d="M316.957,332.957h-.226a36.659,36.659,0,0,0-18.393-4.175.339.339,0,1,1,0-.677,36.372,36.372,0,0,1,18.844,4.288c.113.113.226.339.113.451A.415.415,0,0,0,316.957,332.957Z" transform="translate(-298 -328.061)" fill="#9797ef"/>
            </g>
            <g id="Group_162" data-name="Group 162" transform="translate(35.046 20.086)" opacity="0.7">
              <path id="Path_316" data-name="Path 316" d="M324.344,350.854h-.226c-.113-.113-.226-.339-.113-.451a131.332,131.332,0,0,1,16.7-18.393.319.319,0,0,1,.451.451,130.3,130.3,0,0,0-16.587,18.28A.394.394,0,0,1,324.344,350.854Z" transform="translate(-323.959 -331.925)" fill="#9797ef"/>
            </g>
            <g id="Group_163" data-name="Group 163" transform="translate(0 31.001)" opacity="0.7">
              <path id="Path_317" data-name="Path 317" d="M326.188,345.55h-.113c-15.685-4.514-32.724-3.047-32.836-3.047a.339.339,0,0,1,0-.677c.226,0,17.264-1.467,33.062,3.047.226,0,.226.226.226.451C326.413,345.437,326.3,345.437,326.188,345.55Z" transform="translate(-292.9 -341.598)" fill="#9797ef"/>
            </g>
            <g id="Group_164" data-name="Group 164" transform="translate(18.957 64.394)" opacity="0.7">
              <path id="Path_318" data-name="Path 318" d="M338.7,374.812h-.113c-10.833-3.837-28.436-2.821-28.548-2.821a.339.339,0,1,1,0-.677c.226,0,17.829-1.016,28.774,2.821.226.113.226.226.226.451C338.925,374.7,338.813,374.812,338.7,374.812Z" transform="translate(-309.7 -371.192)" fill="#9797ef"/>
            </g>
            <g id="Group_165" data-name="Group 165" transform="translate(49.311 47.054)" opacity="0.7">
              <path id="Path_319" data-name="Path 319" d="M336.939,381.3h-.113c-.226,0-.226-.226-.226-.451,3.5-13.428,15.12-24.825,15.233-24.938a.319.319,0,1,1,.451.451c-.113.113-11.51,11.4-15.008,24.6Q337.108,381.3,336.939,381.3Z" transform="translate(-336.6 -355.825)" fill="#9797ef"/>
            </g>
          </g>
        </g>
        <path id="Path_320" data-name="Path 320" d="M332.4,384.841s.564-23.583-18.054-25.727S302.5,383.826,310.4,392.627c0,0-10.381-12.187-17.264-3.949s12.412,17.6,12.412,17.6-15.459-5.191-19.747-1.693c-5.529,4.626,2.6,10.156,2.6,10.156s-14.331-5.529-10.833,6.319l79.552-.226Z" transform="translate(20.382 25.447)" fill="#3f51b5"/>
        <path id="Path_321" data-name="Path 321" d="M412.688,383.953a.415.415,0,0,1,.113.339,2.485,2.485,0,0,0-.113-.9c0-2.37,0-4.739.226-7.109,0-.451.113-1.016.113-1.467.9-.677,3.272-1.693,3.837-2.031a12.853,12.853,0,0,0,3.5-3.047c.339-.451,1.016-2.144.226-2.6-.9-.564-2.708,1.693-3.159,2.257a31.425,31.425,0,0,1-2.934,3.611,6.032,6.032,0,0,0-1.467,1.467,39.122,39.122,0,0,1,1.241-6.319c.9-.677,3.272-1.693,3.837-2.144a12.853,12.853,0,0,0,3.5-3.047c.339-.451,1.016-2.144.226-2.6-.9-.564-2.708,1.693-3.159,2.257a31.428,31.428,0,0,1-2.934,3.611,9.018,9.018,0,0,0-1.467,1.467,47.77,47.77,0,0,1,2.144-6.432,28.533,28.533,0,0,1,2.031-4.175c1.241-.339,2.934-.564,3.385-.79A11.085,11.085,0,0,0,426,354.276c.451-.451,1.58-1.693.9-2.37-.677-.79-3.047.9-3.611,1.241a28.438,28.438,0,0,1-3.724,2.708,5.494,5.494,0,0,1-.79.339,41.742,41.742,0,0,1,3.5-5.191c.564,0,1.016-.226,1.58-.226,1.354-.226,2.708-.113,4.062-.226.564,0,3.047-.226,3.16-1.128,0-.79-1.467-1.016-1.918-1.128a16.637,16.637,0,0,0-3.949.9,24.9,24.9,0,0,0-2.482,1.241,18.418,18.418,0,0,1,1.918-2.257,31.085,31.085,0,0,1,3.385-3.272,9.937,9.937,0,0,0,1.918-.226c1.354-.226,2.708-.113,4.062-.226.564,0,3.047-.226,3.16-1.128,0-.79-1.467-1.016-1.918-1.128a16.637,16.637,0,0,0-3.949.9c-.451.113-1.918,1.016-2.934,1.467a41.956,41.956,0,0,1,5.078-3.724,9,9,0,0,0,1.693-.339c1.354-.226,2.708-.113,3.949-.226.564,0,3.047-.226,3.047-1.128,0-.79-1.467-1.016-1.918-1.016a11.374,11.374,0,0,0-3.837,1.016,3.714,3.714,0,0,0-.677.339c-1.016.451-1.918.9-2.934,1.354h0a20.9,20.9,0,0,0-3.724,2.37,5.835,5.835,0,0,0,.677-1.467,21.126,21.126,0,0,1,2.257-3.272c.339-.451,1.693-2.6,1.016-3.159-.564-.564-1.693.451-2.031.9a11.37,11.37,0,0,0-1.58,3.611c-.226.564-.339,2.708-.677,3.611a36.709,36.709,0,0,0-3.272,2.6,11.753,11.753,0,0,0,.677-1.805c.451-1.241,1.128-2.37,1.693-3.611.226-.564,1.241-2.821.451-3.272-.677-.451-1.58.677-1.805,1.128a11.372,11.372,0,0,0-1.016,3.837c-.113.677.113,2.934-.113,3.837-.451.339-.79.79-1.241,1.128a41.038,41.038,0,0,0-4.514,5.416c0-.339-.113-.79-.113-1.128-.113-1.354.113-2.708.113-3.949,0-.564,0-3.047-.79-3.159s-1.241,1.241-1.241,1.805a11.551,11.551,0,0,0,.564,3.949c.113.451.79,1.918,1.128,3.047a51.236,51.236,0,0,0-3.385,5.98v-1.354a15.04,15.04,0,0,1,.339-3.159,17.5,17.5,0,0,1,1.354-4.739.886.886,0,0,0-1.241-1.128h-.113c-1.128.79-1.354,2.37-1.467,3.724-.113,1.016-.677,6.658.564,7.9a40.933,40.933,0,0,0-2.37,7.447c-.113-1.241.113-2.6.113-3.837,0-.564,0-3.047-.79-3.159S411,362.175,411,362.739a11.55,11.55,0,0,0,.564,3.949c.113.451.677,1.693,1.016,2.708a37.335,37.335,0,0,0-.79,6.206,1.6,1.6,0,0,1-.226-.677,22.261,22.261,0,0,1-.79-3.949c-.113-.564-.677-2.934-1.58-2.934-.79,0-.79,1.58-.79,2.031a9.78,9.78,0,0,0,1.58,3.724c.226.451,1.241,1.693,1.918,2.6a33.222,33.222,0,0,0,0,4.739c-.451-1.128-.677-2.257-1.016-3.385-.226-.564-.9-2.934-1.805-2.821-.79.113-.677,1.58-.564,2.144a12.043,12.043,0,0,0,1.805,3.611c.226.339,1.016,1.128,1.693,1.918.226,2.934-1.805,6.432-1.016,9.366C410.544,389.595,412.688,386.548,412.688,383.953Z" transform="translate(37.251 22.386)" fill="#b0affd"/>
        <g id="Group_175" data-name="Group 175" transform="translate(391.302 321.509)">
          <path id="Path_322" data-name="Path 322" d="M393.483,403.286c.113,0-1.918-5.416,4.288-13.428,6.206-8.35,24.035-13.428,24.373-19.747.339-6.658-10.268-1.693-16.475-4.514-6.319-2.821-8.576-4.4-2.482-7.9,6.206-3.385,9.93-5.3,8.124-10.72-1.805-5.529,9.93-6.432,13.992-12.3,4.288-5.868-.564-10.268-11.171-6.432-10.268,4.062-11.171,2.482-8.689-.226,2.482-2.6,10.607-8.35,5.868-9.93-4.965-1.58-9.93,2.934-8.012-1.693,1.805-4.626,8.237-9.591,3.5-12.3-4.852-2.708-13.879.677-15.685,12.638-1.693,11.848-2.482,15.233-7.109,18.054-4.514,2.821-10.945-1.016-16.249,3.272-5.191,4.288-2.144,9.591,2.708,12.187,4.965,2.6,13.541,8.124,10.945,12.751-2.483,4.626-8.463,1.016-13.992,1.805-6.093.9-11.058,8.012-2.934,14.218,8.237,5.98,19.07,9.253,25.276,27.194C391,405.317,392.242,404.3,393.483,403.286Z" transform="translate(-360.235 -303.223)" fill="#b0affd"/>
          <g id="Group_174" data-name="Group 174" transform="translate(6.461 2.523)">
            <g id="Group_168" data-name="Group 168" transform="translate(22.883)" opacity="0.7">
              <path id="Path_323" data-name="Path 323" d="M388.226,405.03c.113,0,.226-.226.226-.339-6.658-67.252,10.381-98.4,10.607-98.735.113-.113,0-.339-.113-.451s-.339,0-.451.113c-.226.339-17.377,31.6-10.72,99.073,0,.226.226.339.451.339Z" transform="translate(-386.24 -305.459)" fill="#9797ef"/>
            </g>
            <g id="Group_169" data-name="Group 169" transform="translate(27.041 13.926)" opacity="0.7">
              <path id="Path_324" data-name="Path 324" d="M390.348,329.31c.113,0,.113,0,.226-.113,6.206-7.786,15.459-10.607,15.572-10.72.226,0,.226-.226.226-.451s-.226-.226-.451-.226a37.2,37.2,0,0,0-15.91,10.945.343.343,0,0,0,0,.451A.415.415,0,0,0,390.348,329.31Z" transform="translate(-389.925 -317.8)" fill="#9797ef"/>
            </g>
            <g id="Group_170" data-name="Group 170" transform="translate(1.58 35.096)" opacity="0.7">
              <path id="Path_325" data-name="Path 325" d="M390.086,348c.113,0,.113-.113.226-.113.113-.113,0-.339-.113-.451a124.608,124.608,0,0,0-22.342-10.833c-.113-.113-.339,0-.451.226s0,.339.226.451a118.023,118.023,0,0,1,22.117,10.833A.414.414,0,0,1,390.086,348Z" transform="translate(-367.361 -336.561)" fill="#9797ef"/>
            </g>
            <g id="Group_171" data-name="Group 171" transform="translate(24.258 26.113)" opacity="0.7">
              <path id="Path_326" data-name="Path 326" d="M387.957,344.4a.111.111,0,0,0,.113-.113c12.977-10.043,29.225-15.008,29.338-15.008.226,0,.226-.226.226-.451s-.226-.226-.451-.226c-.113,0-16.587,5.078-29.564,15.12-.113.113-.226.339-.113.451C387.731,344.4,387.844,344.4,387.957,344.4Z" transform="translate(-387.459 -328.6)" fill="#9797ef"/>
            </g>
            <g id="Group_172" data-name="Group 172" transform="translate(22.979 64.14)" opacity="0.7">
              <path id="Path_327" data-name="Path 327" d="M386.748,376.292a.111.111,0,0,0,.113-.113c8.689-7.56,25.276-13.089,25.5-13.2s.226-.226.226-.451c-.113-.226-.226-.226-.451-.226-.113,0-16.926,5.642-25.727,13.315a.343.343,0,0,0,0,.451C386.522,376.292,386.635,376.292,386.748,376.292Z" transform="translate(-386.325 -362.3)" fill="#9797ef"/>
            </g>
            <g id="Group_173" data-name="Group 173" transform="translate(0 64.772)" opacity="0.7">
              <path id="Path_328" data-name="Path 328" d="M389.589,380.959a.111.111,0,0,0,.113-.113c.113-.113.226-.339.113-.451-8.237-11.171-23.245-17.377-23.358-17.49s-.339,0-.451.226c-.113.113,0,.339.226.451.113.113,14.895,6.206,23.132,17.264C389.25,380.959,389.476,380.959,389.589,380.959Z" transform="translate(-365.961 -362.861)" fill="#9797ef"/>
            </g>
          </g>
        </g>
        <path id="Path_329" data-name="Path 329" d="M394.212,381.74s-.564-23.583,18.054-25.727,11.848,26.969,3.949,35.77c0,0,10.381-14.443,17.264-6.206s-12.412,17.6-12.412,17.6,15.459-5.191,19.747-1.693c5.529,4.626-4.965,11.284-4.965,11.284s16.7-6.658,13.2,5.191l-79.552-.226Z" transform="translate(32.257 25.05)" fill="#3f51b5"/>
        <g id="Group_183" data-name="Group 183" transform="translate(294.044 238.321)">
          <g id="Group_182" data-name="Group 182" transform="translate(0)">
            <g id="Group_180" data-name="Group 180">
              <path id="Path_330" data-name="Path 330" d="M366.089,359.389l.339-58.677-13.089-.113L353,353.86h0v4.514c-.339,7.56-2.144,21.891-12.3,21.891l37.463.226C368.346,380.491,366.315,367.063,366.089,359.389Z" transform="translate(-265.485 -220.371)" fill="#ffb127"/>
              <g id="Group_177" data-name="Group 177" transform="translate(0 17.057)">
                <g id="Group_176" data-name="Group 176">
                  <path id="Path_331" data-name="Path 331" d="M311.683,247.87a25.478,25.478,0,0,1,7.673,6.206c5.529,6.658,6.545,15.008,2.708,22.455a12.759,12.759,0,0,1-6.883,6.206,13.852,13.852,0,0,1-4.288.9,14.662,14.662,0,0,1-12.525-6.432,10.394,10.394,0,0,1,.113-10.833,4.833,4.833,0,0,1,6.658-1.805,4.932,4.932,0,0,1,1.805,6.658c-.339.564-.226.79-.113,1.016a4.927,4.927,0,0,0,3.837,1.693,2.916,2.916,0,0,0,2.821-1.805.415.415,0,0,0,.113-.339,10.222,10.222,0,0,0-1.128-10.607,3.429,3.429,0,0,1-.564-.79c-3.949-4.739-10.72-7-16.249-5.416-6.319,1.918-10.381,8.8-11.622,19.3-2.257,20.424,12.074,34.3,20.762,40.735a68.422,68.422,0,0,0,25.389,11.961c3.724.79,6.319.79,7.447.339a4.832,4.832,0,0,1,6.432,2.482,4.658,4.658,0,0,1-.226,4.4,4.44,4.44,0,0,1-2.257,2.031,10.691,10.691,0,0,1-3.949.9c-9.591,1.016-25.615-4.739-38.591-14.331-18.054-13.315-26.743-30.918-24.712-49.649,2.257-19.86,12.525-25.84,18.506-27.533A24.143,24.143,0,0,1,311.683,247.87Z" transform="translate(-274.043 -244.617)" fill="#ffb127"/>
                </g>
                <path id="Path_332" data-name="Path 332" d="M337.679,320.232a4.658,4.658,0,0,1-.226,4.4,4.441,4.441,0,0,1-2.257,2.031,10.691,10.691,0,0,1-3.949.9,75.909,75.909,0,0,1-7.447-10.156c3.724.79,6.319.79,7.447.339A4.832,4.832,0,0,1,337.679,320.232Z" transform="translate(-267.655 -235.283)" fill="#edbf5a" opacity="0.5"/>
                <path id="Path_333" data-name="Path 333" d="M307.4,247.5a25.479,25.479,0,0,1,7.673,6.206c5.529,6.658,6.545,15.008,2.708,22.455a12.759,12.759,0,0,1-6.883,6.206c-.677-3.724-1.128-7.447-1.693-11.058a10.222,10.222,0,0,0-1.128-10.607C307.739,255.4,307.513,250.885,307.4,247.5Z" transform="translate(-269.76 -244.246)" fill="#edbf5a" opacity="0.5"/>
              </g>
              <g id="Group_179" data-name="Group 179" transform="translate(113.916 17.318)">
                <g id="Group_178" data-name="Group 178" transform="translate(0.226)">
                  <path id="Path_334" data-name="Path 334" d="M410.294,247.728a25.213,25.213,0,0,0-7.786,5.98c-5.642,6.432-7,14.782-3.385,22.342a12.773,12.773,0,0,0,6.658,6.432,14.02,14.02,0,0,0,16.926-5.078,10.632,10.632,0,0,0,.226-10.833,4.822,4.822,0,0,0-8.463,4.626c.339.564.226.79.113,1.016a4.878,4.878,0,0,1-3.837,1.58,3.235,3.235,0,0,1-2.821-1.805.415.415,0,0,1-.113-.339,10.142,10.142,0,0,1,1.467-10.607c.226-.226.451-.564.677-.79,4.062-4.626,10.945-6.658,16.362-4.965,6.206,2.031,10.156,9.027,10.945,19.634,1.693,20.424-13.089,33.852-22,40.058-9.7,6.658-19.3,10.043-25.727,11.171-3.724.677-6.319.677-7.447.113a4.833,4.833,0,0,0-6.432,2.257,5.015,5.015,0,0,0,.113,4.4,4.676,4.676,0,0,0,2.144,2.031,10.712,10.712,0,0,0,3.949,1.016c9.591,1.354,25.727-3.949,39.043-13.089,18.393-12.751,27.759-30.015,26.179-48.86-1.693-19.86-11.735-26.179-17.6-28.1A25.757,25.757,0,0,0,410.294,247.728Z" transform="translate(-375.197 -244.847)" fill="#ffb127"/>
                </g>
                <path id="Path_335" data-name="Path 335" d="M375.452,319.322a5.015,5.015,0,0,0,.113,4.4,4.676,4.676,0,0,0,2.144,2.031,10.712,10.712,0,0,0,3.949,1.016,61.164,61.164,0,0,0,7.673-9.93c-3.724.677-6.319.677-7.447.113A4.818,4.818,0,0,0,375.452,319.322Z" transform="translate(-374.997 -235.648)" fill="#edbf5a" opacity="0.5"/>
                <path id="Path_336" data-name="Path 336" d="M407.8,247.4a25.214,25.214,0,0,0-7.786,5.98c-5.642,6.432-7,14.782-3.385,22.342a12.773,12.773,0,0,0,6.658,6.432c.79-3.724,1.354-7.447,1.918-10.945a10.142,10.142,0,0,1,1.467-10.607C407.235,255.3,407.573,250.785,407.8,247.4Z" transform="translate(-372.477 -244.52)" fill="#edbf5a" opacity="0.5"/>
              </g>
              <path id="Path_337" data-name="Path 337" d="M412.476,242.086s0,3.5-.226,9.253c-1.128,22.794-7.447,81.019-40.848,97.493l-1.58,1.354a11.022,11.022,0,0,1-7.447,2.483l-1.693-.113a10.96,10.96,0,0,1-6.432-2.37l-1.918-1.58c-32.723-16.7-38.591-73.684-39.607-97.155-.226-6.319-.226-10.156-.226-10.156,0-5.642,6.658-7,6.658-7l86.774.564C405.931,234.977,412.589,236.444,412.476,242.086Z" transform="translate(-269.105 -228.884)" fill="#ffd454"/>
              <path id="Path_338" data-name="Path 338" d="M407.95,250.037l-89.82-.564a9.969,9.969,0,0,1-9.93-10.043h0a9.969,9.969,0,0,1,10.043-9.93l89.82.564a9.969,9.969,0,0,1,9.93,10.043h0A9.9,9.9,0,0,1,407.95,250.037Z" transform="translate(-269.658 -229.5)" fill="#f8bd36"/>
              <path id="Path_339" data-name="Path 339" d="M412.463,242.073s0,3.5-.226,9.253a9.428,9.428,0,0,1-5.529,1.693l-89.82-.564a9.735,9.735,0,0,1-4.062-.9c-.226-6.319-.226-10.156-.226-10.156,0-5.642,6.658-7,6.658-7l86.774.564C405.918,234.964,412.576,236.431,412.463,242.073Z" transform="translate(-269.093 -228.871)" fill="#ffd454" opacity="0.4"/>
              <path id="Path_340" data-name="Path 340" d="M407.95,250.037l-89.82-.564a9.969,9.969,0,0,1-9.93-10.043h0a9.969,9.969,0,0,1,10.043-9.93l89.82.564a9.969,9.969,0,0,1,9.93,10.043h0A9.9,9.9,0,0,1,407.95,250.037Z" transform="translate(-269.658 -229.5)" fill="#ffb127"/>
              <path id="Path_341" data-name="Path 341" d="M407.95,250.037l-89.82-.564a9.969,9.969,0,0,1-9.93-10.043h0a9.969,9.969,0,0,1,10.043-9.93l89.82.564a9.969,9.969,0,0,1,9.93,10.043h0A9.9,9.9,0,0,1,407.95,250.037Z" transform="translate(-269.658 -229.5)" fill="#ffb127"/>
              <path id="Path_342" data-name="Path 342" d="M403.64,420.723l-83.84-.451.226-37.124a7.465,7.465,0,0,1,7.56-7.447l68.832.339a7.465,7.465,0,0,1,7.447,7.56Z" transform="translate(-268.168 -210.728)" fill="#ffb127"/>
              <path id="Path_343" data-name="Path 343" d="M408.783,416.575l-92.641-.564a1.252,1.252,0,0,1-1.241-1.241V410.03a1.1,1.1,0,0,1,1.241-1.128l92.641.564a1.252,1.252,0,0,1,1.241,1.241v4.739A1.436,1.436,0,0,1,408.783,416.575Z" transform="translate(-268.797 -206.467)" fill="#ffb127"/>
              <path id="Path_344" data-name="Path 344" d="M408.783,416.575l-92.641-.564a1.252,1.252,0,0,1-1.241-1.241V410.03a1.1,1.1,0,0,1,1.241-1.128l92.641.564a1.252,1.252,0,0,1,1.241,1.241v4.739A1.436,1.436,0,0,1,408.783,416.575Z" transform="translate(-268.797 -206.467)" fill="#ffb127" opacity="0.5"/>
              <path id="Path_345" data-name="Path 345" d="M382.647,405.965,337.4,405.74a3.541,3.541,0,0,1-3.5-3.611l.113-14.331a3.541,3.541,0,0,1,3.611-3.5l45.249.226a3.541,3.541,0,0,1,3.5,3.611l-.113,14.331A3.407,3.407,0,0,1,382.647,405.965Z" transform="translate(-266.358 -209.624)" fill="#ffd454"/>
              <path id="Path_346" data-name="Path 346" d="M379.674,376.616l-40.171-.226a.89.89,0,0,1-.9-.9V372.1a.89.89,0,0,1,.9-.9l40.171.226a.89.89,0,0,1,.9.9v3.385A.89.89,0,0,1,379.674,376.616Z" transform="translate(-265.754 -211.306)" fill="#ffb127"/>
              <path id="Path_347" data-name="Path 347" d="M379.674,376.616l-40.171-.226a.89.89,0,0,1-.9-.9V372.1a.89.89,0,0,1,.9-.9l40.171.226a.89.89,0,0,1,.9.9v3.385A.89.89,0,0,1,379.674,376.616Z" transform="translate(-265.754 -211.306)" fill="#ffb127" opacity="0.5"/>
              <path id="Path_348" data-name="Path 348" d="M333.578,260.141c-1.467,17.377-1.918,56.194,19.408,81.132a1.4,1.4,0,0,1-1.918,2.031c-11.735-9.366-27.646-27.759-32.159-60.144a141.341,141.341,0,0,1-.677-24.261,7.646,7.646,0,0,1,7.222-7h0A7.455,7.455,0,0,1,333.578,260.141Z" transform="translate(-268.405 -226.628)" fill="#ffd454" opacity="0.5"/>
              <path id="Path_349" data-name="Path 349" d="M381.927,259.518c.564,17.49-1.016,56.194-23.583,80a1.363,1.363,0,0,0,1.805,2.031c12.187-8.8,29-26.292,35.319-58.338a139.167,139.167,0,0,0,1.918-24.26,7.751,7.751,0,0,0-6.77-7.447h0A7.825,7.825,0,0,0,381.927,259.518Z" transform="translate(-263.269 -226.682)" fill="#ffd454" opacity="0.4"/>
            </g>
            <g id="Group_181" data-name="Group 181" transform="translate(72.507 179.866)">
              <path id="Path_350" data-name="Path 350" d="M346.086,392.624l4.062.79-3.047,2.821.564,4.062-3.611-2.031-3.724,1.805.9-4.062-2.934-3.047,4.175-.451,1.918-3.611Z" transform="translate(-338.3 -388.9)" fill="#ffb127"/>
              <path id="Path_351" data-name="Path 351" d="M359.573,392.624l4.175.79-3.16,2.821.564,4.062-3.5-2.031-3.837,1.805.9-4.062-2.821-3.047,4.062-.451,1.918-3.611Z" transform="translate(-336.554 -388.9)" fill="#ffb127"/>
              <path id="Path_352" data-name="Path 352" d="M373.186,392.624l4.062.79-3.047,2.821.451,4.062-3.5-2.031-3.724,1.805.79-4.062-2.821-3.047,4.062-.451,1.918-3.611Z" transform="translate(-334.82 -388.9)" fill="#ffb127"/>
            </g>
          </g>
        </g>
        <g id="Group_200" data-name="Group 200" transform="translate(230.474 172.197)">
          <g id="Group_184" data-name="Group 184" transform="translate(99.612)">
            <path id="Path_353" data-name="Path 353" d="M307.243,170.9a6.934,6.934,0,0,0,3.949,2.934c-1.354,1.016-1.354,1.693-1.354,3.16a7.629,7.629,0,0,1-3.611-2.934A2.392,2.392,0,0,1,307.243,170.9Z" transform="translate(-305.985 -170.9)" fill="#f9d04e"/>
          </g>
          <g id="Group_185" data-name="Group 185" transform="translate(198.234 1.805)">
            <path id="Path_354" data-name="Path 354" d="M394.643,172.5a6.934,6.934,0,0,0,3.949,2.934c-1.354,1.016-1.354,1.693-1.354,3.16a7.628,7.628,0,0,1-3.611-2.934A2.392,2.392,0,0,1,394.643,172.5Z" transform="translate(-393.385 -172.5)" fill="#f9d04e"/>
          </g>
          <g id="Group_186" data-name="Group 186" transform="translate(35.339 27.42)">
            <path id="Path_355" data-name="Path 355" d="M249.561,195.2a6.718,6.718,0,0,0,4.739,1.241c-.9,1.467-.564,2.031-.113,3.5a8.415,8.415,0,0,1-4.514-1.354C248.771,197.57,248.884,196.441,249.561,195.2Z" transform="translate(-249.025 -195.2)" fill="#b0affd"/>
          </g>
          <g id="Group_187" data-name="Group 187" transform="translate(65.665 49.649)">
            <path id="Path_356" data-name="Path 356" d="M275.9,218.511a6.683,6.683,0,0,0,3.272-3.611c.9,1.467,1.58,1.467,3.047,1.693a8.3,8.3,0,0,1-3.272,3.272A2.54,2.54,0,0,1,275.9,218.511Z" transform="translate(-275.9 -214.9)" fill="#f9d04e"/>
          </g>
          <g id="Group_188" data-name="Group 188" transform="translate(114.573 33.626)">
            <path id="Path_357" data-name="Path 357" d="M319.307,201.264a6.837,6.837,0,0,0,4.852-.564c-.226,1.693.226,2.144,1.241,3.272a8.065,8.065,0,0,1-4.626.339A2.489,2.489,0,0,1,319.307,201.264Z" transform="translate(-319.243 -200.7)" fill="#b0affd"/>
          </g>
          <g id="Group_189" data-name="Group 189" transform="translate(195.049 34.642)">
            <path id="Path_358" data-name="Path 358" d="M391.959,201.6a7.226,7.226,0,0,0,3.837,3.16c-1.354.9-1.354,1.58-1.58,3.16a7.859,7.859,0,0,1-3.5-3.16A2.605,2.605,0,0,1,391.959,201.6Z" transform="translate(-390.562 -201.6)" fill="#b0affd"/>
          </g>
          <g id="Group_190" data-name="Group 190" transform="translate(290.737 93.093)">
            <path id="Path_359" data-name="Path 359" d="M476.759,253.4a7.225,7.225,0,0,0,3.837,3.16c-1.354.9-1.354,1.58-1.58,3.16a7.859,7.859,0,0,1-3.5-3.16A2.511,2.511,0,0,1,476.759,253.4Z" transform="translate(-475.362 -253.4)" fill="#b0affd"/>
          </g>
          <g id="Group_191" data-name="Group 191" transform="translate(276.181 59.241)">
            <path id="Path_360" data-name="Path 360" d="M463.859,223.4a7.226,7.226,0,0,0,3.837,3.16c-1.354.9-1.354,1.58-1.58,3.16a7.859,7.859,0,0,1-3.5-3.16A2.558,2.558,0,0,1,463.859,223.4Z" transform="translate(-462.462 -223.4)" fill="#f9d04e"/>
          </g>
          <g id="Group_192" data-name="Group 192" transform="translate(241.565 60.256)">
            <path id="Path_361" data-name="Path 361" d="M431.8,225.428a7.124,7.124,0,0,0,4.852-1.128c-.113,1.693.451,2.144,1.467,3.16a7.926,7.926,0,0,1-4.626.79A2.418,2.418,0,0,1,431.8,225.428Z" transform="translate(-431.785 -224.3)" fill="#f9d04e"/>
          </g>
          <g id="Group_193" data-name="Group 193" transform="translate(220.255 127.622)">
            <path id="Path_362" data-name="Path 362" d="M412.9,286.934A7.145,7.145,0,0,0,416.849,284c.564,1.58,1.241,1.693,2.708,2.257a8.531,8.531,0,0,1-3.837,2.708A2.7,2.7,0,0,1,412.9,286.934Z" transform="translate(-412.9 -284)" fill="#f9d04e"/>
          </g>
          <g id="Group_194" data-name="Group 194" transform="translate(248.025 14.443)">
            <path id="Path_363" data-name="Path 363" d="M437.724,183.7a7.045,7.045,0,0,0,4.965.226c-.564,1.58-.113,2.144.677,3.385a7.314,7.314,0,0,1-4.626-.451A2.426,2.426,0,0,1,437.724,183.7Z" transform="translate(-437.51 -183.7)" fill="#b0affd"/>
          </g>
          <g id="Group_195" data-name="Group 195" transform="translate(152.446 14.443)">
            <path id="Path_364" data-name="Path 364" d="M353.025,183.7a7.045,7.045,0,0,0,4.965.226c-.564,1.58-.113,2.144.564,3.385a7.314,7.314,0,0,1-4.626-.451A2.5,2.5,0,0,1,353.025,183.7Z" transform="translate(-352.807 -183.7)" fill="#f9d04e"/>
          </g>
          <g id="Group_196" data-name="Group 196" transform="translate(0 102.12)">
            <path id="Path_365" data-name="Path 365" d="M217.925,261.4a7.045,7.045,0,0,0,4.965.226c-.564,1.58-.113,2.144.564,3.385a7.314,7.314,0,0,1-4.626-.451A2.5,2.5,0,0,1,217.925,261.4Z" transform="translate(-217.707 -261.4)" fill="#f9d04e"/>
          </g>
          <g id="Group_197" data-name="Group 197" transform="translate(32.49 147.03)">
            <path id="Path_366" data-name="Path 366" d="M249.1,301.2a7.232,7.232,0,0,0,1.918,4.514c-1.693.226-2.031.79-2.821,2.031a7.564,7.564,0,0,1-1.693-4.4A2.656,2.656,0,0,1,249.1,301.2Z" transform="translate(-246.5 -301.2)" fill="#f9d04e"/>
          </g>
          <g id="Group_198" data-name="Group 198" transform="translate(25.945 75.151)">
            <path id="Path_367" data-name="Path 367" d="M240.7,240.885a6.832,6.832,0,0,0,3.611-3.385c.79,1.467,1.467,1.58,2.934,1.918a7.976,7.976,0,0,1-3.611,3.047A2.474,2.474,0,0,1,240.7,240.885Z" transform="translate(-240.7 -237.5)" fill="#b0affd"/>
          </g>
          <g id="Group_199" data-name="Group 199" transform="translate(265.842 138.229)">
            <path id="Path_368" data-name="Path 368" d="M453.3,295.77a6.666,6.666,0,0,0,4.288-2.37c.339,1.693,1.016,1.918,2.37,2.6a7.309,7.309,0,0,1-4.175,2.031A2.468,2.468,0,0,1,453.3,295.77Z" transform="translate(-453.3 -293.4)" fill="#b0affd"/>
          </g>
        </g>
      </g>
      <g id="Group_202" data-name="Group 202">
        <g id="Ellipse_47" data-name="Ellipse 47" transform="translate(1607 665)" fill="#647ee8" stroke="#fff" stroke-width="2">
          <circle cx="22.5" cy="22.5" r="22.5" stroke="none"/>
          <circle cx="22.5" cy="22.5" r="21.5" fill="none"/>
        </g>
      </g>
    </g>
    <path id="Icon_awesome-check" data-name="Icon awesome-check" d="M9.294,24.583.4,15.689a1.368,1.368,0,0,1,0-1.935l1.935-1.935a1.368,1.368,0,0,1,1.935,0l5.991,5.991L23.094,4.978a1.368,1.368,0,0,1,1.935,0l1.935,1.935a1.368,1.368,0,0,1,0,1.935L11.229,24.583A1.368,1.368,0,0,1,9.294,24.583Z" transform="translate(1616.1 673.939)" fill="#fff"/>
  </g>
</svg>
