<?xml version="1.0" encoding="UTF-8"?>
<svg width="18px" height="17px" viewBox="0 0 18 17" version="1.1" xmlns="http://www.w3.org/2000/svg" xmlns:xlink="http://www.w3.org/1999/xlink">
    <!-- Generator: sketchtool 53.2 (72643) - https://sketchapp.com -->
    <title>153AD373-F007-4C4A-9A61-E5DB2C7346CC</title>
    <desc>Created with sketchtool.</desc>
    <defs>
        <polygon id="path-1" points="0 0.0860481203 17.9375234 0.0860481203 17.9375234 17 0 17"></polygon>
    </defs>
    <g id="v2.0" stroke="none" stroke-width="1" fill="none" fill-rule="evenodd">
        <g id="R-Home-1" transform="translate(-410.000000, -344.000000)">
            <g id="icon-ToConfirm-Oders" transform="translate(410.000000, 344.000000)">
                <g id="Group-3">
                    <mask id="mask-2" fill="white">
                        <use xlink:href="#path-1"></use>
                    </mask>
                    <g id="Clip-2"></g>
                    <path d="M6.55986383,12.3949429 L8.40684255,12.3949429 C8.41628936,12.6710331 8.44884255,12.9429053 8.50399149,13.2085143 L6.55986383,13.2085143 C6.02228936,13.2085143 6.02241702,12.3949429 6.55986383,12.3949429 L6.55986383,12.3949429 Z M2.82735319,10.8520331 C2.29003404,10.8520331 2.2901617,10.0384617 2.82735319,10.0384617 L8.93177872,10.0384617 C8.79722553,10.2989579 8.68667234,10.5708301 8.60267234,10.8520331 L2.82735319,10.8520331 Z M2.82735319,7.6450406 L10.3987149,7.6450406 C10.6819915,7.6450406 10.8145021,7.87076992 10.799183,8.08448421 C10.6066723,8.19543158 10.421566,8.32031128 10.2445021,8.45861203 L2.82735319,8.45861203 C2.29003404,8.45861203 2.2901617,7.6450406 2.82735319,7.6450406 L2.82735319,7.6450406 Z M2.82735319,5.25149173 L10.3987149,5.25149173 C10.9361617,5.25149173 10.936417,6.06506316 10.3987149,6.06506316 L2.82735319,6.06506316 C2.29003404,6.06506316 2.2901617,5.25149173 2.82735319,5.25149173 L2.82735319,5.25149173 Z M2.82735319,2.85794286 L10.3987149,2.85794286 C10.9361617,2.85794286 10.936417,3.67151429 10.3987149,3.67151429 L2.82735319,3.67151429 C2.29003404,3.67151429 2.2901617,2.85794286 2.82735319,2.85794286 L2.82735319,2.85794286 Z M13.1700766,8.37373985 C15.292034,8.37373985 17.0183745,10.1021158 17.0183745,12.2267323 C17.0183745,14.3512211 15.292034,16.079597 13.1700766,16.079597 C11.0482468,16.079597 9.32203404,14.3512211 9.32203404,12.2267323 C9.32203404,10.1021158 11.0482468,8.37373985 13.1700766,8.37373985 L13.1700766,8.37373985 Z M16.541183,8.8514015 C15.6540766,7.96305564 14.4787149,7.46903308 13.2263745,7.45471729 L13.2263745,1.20830376 C13.2263745,0.591190977 12.7218638,0.0860481203 12.1055234,0.0860481203 L1.1208,0.0860481203 C0.503438298,0.0860481203 -5.10638298e-05,0.590168421 -5.10638298e-05,1.20830376 L-5.10638298e-05,12.8419278 C0.00735319149,13.2053188 0.119821277,13.4178827 0.347693617,13.6269955 C1.36692766,14.5915218 2.38641702,15.5561759 3.4055234,16.5207023 C3.64705532,16.7428526 3.82526809,16.8036947 4.1508,16.8082962 L11.8279915,16.8082962 C12.2584596,16.9340707 12.7090979,17.0000256 13.1700766,17.0000256 C14.4436085,17.0000256 15.6408,16.5035744 16.541183,15.6019353 C17.441566,14.7004241 17.9375234,13.5017323 17.9375234,12.2267323 C17.9375234,10.9516045 17.441566,9.7530406 16.541183,8.8514015 L16.541183,8.8514015 Z" id="Fill-1" fill="#556CE7" mask="url(#mask-2)"></path>
                </g>
                <path d="M12.5787235,13.3836295 C12.6494114,13.4586361 12.7433847,13.5 12.8433873,13.5 C12.9434939,13.5 13.0374672,13.4586361 13.1079472,13.3836295 L15.1903298,11.1741352 C15.2610177,11.0991286 15.3,10.999414 15.3,10.8933018 C15.3,10.7871896 15.2610177,10.687475 15.1903298,10.6124685 C15.04885,10.4624554 14.802274,10.4625657 14.6611061,10.6124685 L12.8433873,12.5412398 L11.93879,11.5812663 C11.7927363,11.4266204 11.555412,11.4265101 11.4094623,11.5813766 C11.2635126,11.7361328 11.2635126,11.9880665 11.4094623,12.142933 L12.5787235,13.3836295 Z" id="Fill-4" fill="#556CE7"></path>
            </g>
        </g>
    </g>
</svg>