<?xml version="1.0" encoding="UTF-8"?>
<svg width="19px" height="15px" viewBox="0 0 19 15" version="1.1" xmlns="http://www.w3.org/2000/svg" xmlns:xlink="http://www.w3.org/1999/xlink">
    <!-- Generator: sketchtool 53.2 (72643) - https://sketchapp.com -->
    <title>5D445F12-82E7-4FEF-9428-52BB57E9BC21</title>
    <desc>Created with sketchtool.</desc>
    <g id="Discounts-NEW" stroke="none" stroke-width="1" fill="none" fill-rule="evenodd">
        <g id="Discount-2" transform="translate(-1096.000000, -148.000000)" fill="#9EA0A5" fill-rule="nonzero" stroke="#9EA0A5" stroke-width="0.3">
            <g id="Group-5" transform="translate(1076.000000, 137.000000)">
                <g id="icon_coupons" transform="translate(20.678571, 12.000000)">
                    <path d="M16.9672508,4.69445573 C17.1630165,4.69445573 17.3214286,4.5329375 17.3214286,4.33333333 L17.3214286,1.44445573 C17.3214286,0.647799479 16.6860868,0 15.9047508,0 L1.73810631,0 C0.956770368,0 0.321428571,0.647799479 0.321428571,1.44445573 L0.321428571,4.33333333 C0.321428571,4.5329375 0.479840681,4.69445573 0.675606306,4.69445573 C1.6519774,4.69445573 2.44642857,5.50448437 2.44642857,6.5 C2.44642857,7.49551563 1.6519774,8.30554427 0.675606306,8.30554427 C0.479840681,8.30554427 0.321428571,8.4670625 0.321428571,8.66666667 L0.321428571,11.5555443 C0.321428571,12.3522005 0.956770368,13 1.73810631,13 L15.904784,13 C16.6860868,13 17.3214286,12.3522005 17.3214286,11.5555443 L17.3214286,8.66666667 C17.3214286,8.4670625 17.1630165,8.30554427 16.9672508,8.30554427 C15.9908797,8.30554427 15.1964286,7.49551563 15.1964286,6.5 C15.1964286,5.50448437 15.9908797,4.69445573 16.9672508,4.69445573 Z M14.4881063,6.5 C14.4881063,7.77129167 15.4133114,8.82642448 16.6131063,9.00202604 L16.6131063,11.5555443 C16.6131063,11.9536693 16.2952528,12.2777552 15.904784,12.2777552 L1.73810631,12.2777552 C1.34763756,12.2777552 1.02978404,11.9536693 1.02978404,11.5555443 L1.02978404,9.00202604 C2.22957896,8.82639062 3.15478404,7.77129167 3.15478404,6.5 C3.15478404,5.22870833 2.22957896,4.17357552 1.02978404,3.99797396 L1.02978404,1.44445573 C1.02978404,1.04633073 1.34763756,0.722244792 1.73810631,0.722244792 L15.904784,0.722244792 C16.2952528,0.722244792 16.6131063,1.04633073 16.6131063,1.44445573 L16.6131063,3.99797396 C15.4132782,4.17357552 14.4881063,5.22870833 14.4881063,6.5 Z" id="Shape"></path>
                    <path d="M4.82142857,1 C4.54506221,1 4.32142857,1.2104822 4.32142857,1.47059602 L4.32142857,2.52940398 C4.32142857,2.7895178 4.54506221,3 4.82142857,3 C5.09779493,3 5.32142857,2.7895178 5.32142857,2.52940398 L5.32142857,1.47059602 C5.3213817,1.2104822 5.09779493,1 4.82142857,1 Z" id="Path"></path>
                    <path d="M4.82142857,4 C4.54506221,4 4.32142857,4.22363888 4.32142857,4.50001172 L4.32142857,5.49998828 C4.32142857,5.77636112 4.54506221,6 4.82142857,6 C5.09779493,6 5.32142857,5.77636112 5.32142857,5.49998828 L5.32142857,4.50001172 C5.3213817,4.22363888 5.09779493,4 4.82142857,4 Z" id="Path"></path>
                    <path d="M4.82142857,6 C4.54506221,6 4.32142857,6.22363888 4.32142857,6.50001172 L4.32142857,7.49998828 C4.32142857,7.77636112 4.54506221,8 4.82142857,8 C5.09779493,8 5.32142857,7.77636112 5.32142857,7.49998828 L5.32142857,6.50001172 C5.3213817,6.22363888 5.09779493,6 4.82142857,6 Z" id="Path"></path>
                    <path d="M4.82142857,10 C4.54506221,10 4.32142857,10.2236389 4.32142857,10.5000117 L4.32142857,11.4999883 C4.32142857,11.7763611 4.54506221,12 4.82142857,12 C5.09779493,12 5.32142857,11.7763611 5.32142857,11.4999883 L5.32142857,10.5000117 C5.3213817,10.2236389 5.09779493,10 4.82142857,10 Z" id="Path"></path>
                    <path d="M12.1622943,3.05890659 C11.9969672,2.95157889 11.7762297,2.99498902 11.6670496,3.15596417 L7.38153564,9.45584757 C7.27202067,9.61682272 7.31631547,9.83387339 7.48057119,9.94120109 C7.54160628,9.98083785 7.61030842,10 7.67830748,10 C7.79374851,10 7.90708026,9.94530257 7.97578241,9.84414351 L12.2612963,3.54426011 C12.3708448,3.38325215 12.32655,3.16623429 12.1622943,3.05890659 Z" id="Path"></path>
                    <path d="M9.32142857,5 C9.32142857,3.89726811 8.6487111,3 7.82141099,3 C6.99411089,3 6.32142857,3.89723061 6.32142857,5 C6.32142857,6.10276939 6.99414604,7 7.82144615,7 C8.64874626,7 9.32142857,6.10273189 9.32142857,5 Z M7.07141978,5 C7.07141978,4.34959593 7.41493284,3.7999925 7.82141099,3.7999925 C8.22788914,3.7999925 8.5714022,4.34959593 8.5714022,5 C8.5714022,5.65040407 8.22788914,6.2000075 7.82141099,6.2000075 C7.41493284,6.2000075 7.07141978,5.65036656 7.07141978,5 Z" id="Shape"></path>
                    <path d="M10.8214286,6 C9.99417332,6 9.32142857,6.89726811 9.32142857,8 C9.32142857,9.10273189 9.99413816,10 10.8214286,10 C11.6486838,10 12.3214286,9.10273189 12.3214286,8 C12.3214286,6.89726811 11.648719,6 10.8214286,6 Z M10.8214286,9.2000075 C10.41492,9.2000075 10.0714461,8.65040407 10.0714461,8 C10.0714461,7.34959593 10.4149552,6.7999925 10.8214286,6.7999925 C11.2279371,6.7999925 11.571411,7.34959593 11.571411,8 C11.571411,8.65040407 11.2279371,9.2000075 10.8214286,9.2000075 Z" id="Shape"></path>
                </g>
            </g>
        </g>
    </g>
</svg>