<svg width="19" height="12" viewBox="0 0 19 12" fill="none" xmlns="http://www.w3.org/2000/svg">
<path d="M0.164549 6.26513L5.78955 11.8901C5.93605 12.0366 6.17335 12.0366 6.31981 11.8901C6.46631 11.7436 6.46631 11.5063 6.31981 11.3599L1.33494 6.37499L17.6797 6.37499C17.887 6.37499 18.0547 6.20726 18.0547 5.99998C18.0547 5.7927 17.887 5.62497 17.6797 5.62497L1.33494 5.62497L6.31981 0.640126C6.46631 0.493629 6.46631 0.256326 6.31981 0.109865C6.24658 0.0366344 6.1506 1.82033e-06 6.05466 1.81195e-06C5.95872 1.80356e-06 5.86278 0.0366343 5.78952 0.109865L0.164513 5.73486C0.0180536 5.88133 0.0180536 6.11863 0.164549 6.26513Z" fill="black"/>
</svg>
