<svg xmlns="http://www.w3.org/2000/svg" width="42.259" height="56.345" viewBox="0 0 42.259 56.345">
  <path id="Icon_awesome-clipboard-list" data-name="Icon awesome-clipboard-list" d="M36.976,7.043h-8.8a7.043,7.043,0,0,0-14.086,0h-8.8A5.284,5.284,0,0,0,0,12.325V51.062a5.284,5.284,0,0,0,5.282,5.282H36.976a5.284,5.284,0,0,0,5.282-5.282V12.325A5.284,5.284,0,0,0,36.976,7.043ZM10.565,46.66a2.641,2.641,0,1,1,2.641-2.641A2.635,2.635,0,0,1,10.565,46.66Zm0-10.565a2.641,2.641,0,1,1,2.641-2.641A2.635,2.635,0,0,1,10.565,36.1Zm0-10.565a2.641,2.641,0,1,1,2.641-2.641A2.635,2.635,0,0,1,10.565,25.531ZM21.129,4.4a2.641,2.641,0,1,1-2.641,2.641A2.635,2.635,0,0,1,21.129,4.4ZM35.215,44.9a.883.883,0,0,1-.88.88H18.488a.883.883,0,0,1-.88-.88V43.139a.883.883,0,0,1,.88-.88H34.335a.883.883,0,0,1,.88.88Zm0-10.565a.883.883,0,0,1-.88.88H18.488a.883.883,0,0,1-.88-.88V32.574a.883.883,0,0,1,.88-.88H34.335a.883.883,0,0,1,.88.88Zm0-10.565a.883.883,0,0,1-.88.88H18.488a.883.883,0,0,1-.88-.88V22.01a.883.883,0,0,1,.88-.88H34.335a.883.883,0,0,1,.88.88Z" fill="#fff"/>
</svg>
