<svg id="paintbrush" xmlns="http://www.w3.org/2000/svg" width="21.977" height="20.926" viewBox="0 0 21.977 20.926">
  <path id="Path_279" data-name="Path 279" d="M45.729,28.6a2.621,2.621,0,0,0-4.559-1.824L30.752,38.256a4.351,4.351,0,0,0-4.041.583,2.889,2.889,0,0,0-.486.461,3.843,3.843,0,0,0-.745,3.354,2.127,2.127,0,0,1-.7,2.4l-.834.61a.478.478,0,0,0,.187.854,18.865,18.865,0,0,0,3.415.328,8.056,8.056,0,0,0,4.283-.97,4.033,4.033,0,0,0,1.747-2.687,4.448,4.448,0,0,0-.2-2.285L44.87,30.477A2.6,2.6,0,0,0,45.729,28.6ZM32.64,43.016a3.085,3.085,0,0,1-1.334,2.059c-1.54,1.016-4.318.862-5.865.675a3.094,3.094,0,0,0,.969-3.311,2.886,2.886,0,0,1,.542-2.519,1.956,1.956,0,0,1,.323-.309,3.4,3.4,0,0,1,4.746.733,3.5,3.5,0,0,1,.62,2.674Zm.151-3.238A4.324,4.324,0,0,0,31.64,38.7l1.16-1.279,1.426,1.426-1.283,1.164c-.049-.076-.1-.155-.151-.23ZM44.228,29.769,34.934,38.2l-1.491-1.491,8.434-9.294a1.665,1.665,0,1,1,2.352,2.351Z" transform="translate(-23.753 -25.918)" fill="#fff"/>
  <path id="Path_280" data-name="Path 280" d="M38.251,76.253a2.328,2.328,0,0,0-2.7,1.943.476.476,0,0,0,.4.539.464.464,0,0,0,.072.006.48.48,0,0,0,.472-.4A1.374,1.374,0,0,1,38.157,77.2a.478.478,0,0,0,.095-.951Z" transform="translate(-32.323 -62.498)" fill="#fff"/>
</svg>
