<svg xmlns="http://www.w3.org/2000/svg" xmlns:xlink="http://www.w3.org/1999/xlink" width="528.905" height="302.284" viewBox="0 0 528.905 302.284">
  <defs>
    <clipPath id="clip-path">
      <path id="Path_219" data-name="Path 219" d="M417.916,323.124H356.894a6.391,6.391,0,0,1-6.394-6.394V269.394A6.391,6.391,0,0,1,356.894,263h61.022a6.391,6.391,0,0,1,6.394,6.394v47.449A6.442,6.442,0,0,1,417.916,323.124Z" transform="translate(-350.5 -263)"/>
    </clipPath>
  </defs>
  <g id="_2861452" data-name="2861452" transform="translate(-210.6 -144.758)">
    <g id="Group_124" data-name="Group 124" transform="translate(210.6 144.758)">
      <g id="Group_123" data-name="Group 123">
        <path id="Path_174" data-name="Path 174" d="M723.121,342.565c-8.974-12.675-21.537-23.668-25.463-38.812-3.814-15.031,1.907-30.623,6.282-45.542s7.067-32.193-1.795-44.981c-12-17.275-37.69-16.6-57.993-11.217s-42.289,13.461-61.583,5.16c-22.659-9.871-31.184-38.139-51.038-52.945-22.21-16.6-57.881-10.656-73.473,12.227-7.516,10.993-10.656,24.678-19.518,34.661-11.89,13.461-31.633,16.938-49.58,16.265s-35.9-4.823-53.731-3.141c-17.948,1.683-36.793,10.993-42.626,27.931-4.487,13.012-.336,27.37,5.384,39.821s13.124,24.454,15.592,37.914-1.346,29.5-13.461,36.12c-14.022,7.74-31.745-.336-47.225,3.814-17.387,4.6-27.707,25.014-24.117,42.626,3.477,17.611,18.284,31.633,35.222,37.914s35.559,5.721,53.282,2.58l299.837,3.253c20.528-1.01,36.344,1.458,55.638.673,19.294-.9,39.148-7.74,51.6-22.547C743.536,401.9,740.171,366.458,723.121,342.565Z" transform="translate(-208.474 -144.758)" fill="#e3e8fc"/>
        <g id="Group_121" data-name="Group 121" transform="translate(10.451 12.834)">
          <g id="Group_79" data-name="Group 79" transform="translate(0 17.162)" opacity="0.29">
            <path id="Path_175" data-name="Path 175" d="M375.8,171.5c16.377.9,32.867,1.683,49.244,2.58,19.294,1.01,38.812,2.131,57.1,8.525,18.172,6.394,35.222,18.957,42.289,37.017C531.5,237.57,526,260.9,509.285,270.548" transform="translate(-200.942 -171.5)" fill="none" stroke="#3f51b5" stroke-linecap="round" stroke-miterlimit="10" stroke-width="0.951" stroke-dasharray="4.509"/>
            <path id="Path_176" data-name="Path 176" d="M230.442,319.6c-13.012,12.115-13.573,33.988-3.814,48.795s27.482,23,45.093,24.678,35.334-2.243,52.385-7.291a414.246,414.246,0,0,0,92.879-40.494" transform="translate(-219.917 -153.473)" fill="none" stroke="#3f51b5" stroke-linecap="round" stroke-miterlimit="10" stroke-width="0.951" stroke-dasharray="4.509"/>
            <path id="Path_177" data-name="Path 177" d="M665.272,335.216c-8.076,14.022-23,23.108-38.7,26.921s-32.193,2.58-48.122-.336a216.183,216.183,0,0,1-60.237-20.528c-9.759-5.048-19.406-10.881-30.287-12.9-17.723-3.253-36.9,5.384-46.327,20.752" transform="translate(-192.933 -152.488)" fill="none" stroke="#3f51b5" stroke-linecap="round" stroke-miterlimit="10" stroke-width="0.951" stroke-dasharray="4.509"/>
            <path id="Path_178" data-name="Path 178" d="M571.538,183.569a60.149,60.149,0,0,1,60.91,103.647c-22.547,14.358-51.375,12.227-77.848,9.535" transform="translate(-179.178 -170.894)" fill="none" stroke="#3f51b5" stroke-linecap="round" stroke-miterlimit="10" stroke-width="0.951" stroke-dasharray="4.509"/>
          </g>
          <g id="Group_83" data-name="Group 83" transform="translate(41.709)">
            <path id="Path_179" data-name="Path 179" d="M538.219,221.342a3.982,3.982,0,0,0,.449,1.01l-1.346,1.346,3.253,3.253,1.346-1.346c.336.112.673.337,1.01.449v2.019h4.711v-2.019a3.986,3.986,0,0,0,1.01-.449L550,226.95l3.253-3.253-1.346-1.346c.112-.337.336-.673.449-1.01h2.019V216.63h-2.019a3.984,3.984,0,0,0-.449-1.01l1.346-1.346L550,211.022l-1.346,1.346c-.336-.112-.673-.337-1.01-.449V209.9H542.93v2.019a3.986,3.986,0,0,0-1.01.449l-1.346-1.346-3.253,3.253,1.346,1.346c-.112.337-.336.673-.449,1.01H536.2v4.711Zm2.468-2.356A4.711,4.711,0,1,1,545.4,223.7,4.668,4.668,0,0,1,540.687,218.986Z" transform="translate(-223.127 -149.663)" fill="#fff" opacity="0.63"/>
            <path id="Path_180" data-name="Path 180" d="M301.443,355.012a11.64,11.64,0,0,0,.449,1.122l-1.57,1.57,3.814,3.814,1.57-1.57a4.687,4.687,0,0,0,1.122.449v2.243h5.384V360.4a11.637,11.637,0,0,0,1.122-.449l1.57,1.57,3.814-3.814-1.57-1.57a4.688,4.688,0,0,0,.449-1.122h2.243v-5.384H317.6a11.636,11.636,0,0,0-.449-1.122l1.57-1.57-3.814-3.814-1.57,1.57a4.689,4.689,0,0,0-1.122-.449V342h-5.384v2.243a11.637,11.637,0,0,0-1.122.449l-1.57-1.57-3.814,3.814,1.57,1.57a4.687,4.687,0,0,0-.449,1.122H299.2v5.384Zm2.8-2.692a5.384,5.384,0,1,1,5.384,5.384A5.315,5.315,0,0,1,304.248,352.32Z" transform="translate(-251.975 -133.584)" fill="#fff" opacity="0.63"/>
            <path id="Path_181" data-name="Path 181" d="M501.81,189.845c.112.224.112.337.224.561l-.785.785,1.683,1.683.785-.785c.224.112.336.112.561.224v1.01h2.468v-1.01c.224-.112.336-.112.561-.224l.785.785,1.683-1.683-.785-.785c.112-.224.112-.337.224-.561h1.01v-2.468h-1.01c-.112-.224-.112-.337-.224-.561l.785-.785-1.683-1.683-.785.785c-.224-.112-.337-.112-.561-.224V183.9h-2.468v1.01c-.224.112-.336.112-.561.224l-.785-.785-1.683,1.683.785.785c-.112.224-.112.337-.224.561H500.8v2.468Zm1.234-1.234a2.468,2.468,0,1,1,2.468,2.468A2.49,2.49,0,0,1,503.043,188.611Z" transform="translate(-227.436 -152.828)" fill="#fff" opacity="0.63"/>
            <path id="Path_182" data-name="Path 182" d="M294.531,239.867c-.112.337-.112.673-.224,1.01l-1.907.337.9,4.375,1.907-.337c.224.337.336.561.561.9l-1.01,1.57,3.7,2.468,1.01-1.57c.337.112.673.112,1.01.224l.337,1.907,4.375-.9-.336-1.907c.336-.224.561-.337.9-.561l1.57,1.01,2.468-3.7-1.57-1.01c.112-.337.112-.673.224-1.01l1.907-.337-.9-4.375-1.907.337c-.224-.337-.337-.561-.561-.9l1.01-1.57-3.7-2.468-1.01,1.57c-.337-.112-.673-.112-1.01-.224l-.336-1.907-4.375.9.336,1.907c-.336.224-.561.337-.9.561l-1.57-1.01-2.468,3.7Zm3.141-.561a4.527,4.527,0,1,1,1.234,6.282A4.645,4.645,0,0,1,297.672,239.306Zm19.069,6.394a1.423,1.423,0,0,0-.112.673l-1.122.224.561,2.8,1.122-.224c.112.224.224.337.337.561l-.673,1.01,2.356,1.57.673-1.01a1.423,1.423,0,0,0,.673.112l.224,1.122,2.8-.561-.224-1.122c.224-.112.337-.224.561-.337l1.01.673,1.57-2.356-1.01-.673a1.423,1.423,0,0,0,.112-.673l1.122-.224-.561-2.8-1.122.224c-.112-.224-.224-.337-.337-.561l.673-1.01-2.356-1.57-.673,1.01a1.423,1.423,0,0,0-.673-.112l-.224-1.122-2.8.561.224,1.122c-.224.112-.336.224-.561.337l-1.01-.673-1.57,2.356Zm2.019-.449a2.831,2.831,0,1,1,.785,3.926A2.765,2.765,0,0,1,318.76,245.251Z" transform="translate(-252.803 -146.876)" fill="#fff" opacity="0.63"/>
            <path id="Path_183" data-name="Path 183" d="M669.432,374.574a6.805,6.805,0,0,0,.785-1.122l2.468.561,1.234-5.833-2.468-.561a5.627,5.627,0,0,0-.224-1.346l2.131-1.346-3.253-4.936-2.131,1.346a6.805,6.805,0,0,0-1.122-.785l.561-2.468-5.833-1.234-.561,2.468a5.629,5.629,0,0,0-1.346.224l-1.346-2.131-4.936,3.253,1.346,2.131a6.813,6.813,0,0,0-.785,1.122l-2.468-.561-1.234,5.833,2.468.561a5.627,5.627,0,0,0,.224,1.346l-2.131,1.346,3.253,4.936,2.131-1.346a6.81,6.81,0,0,0,1.122.785l-.561,2.468,5.833,1.234.561-2.468a5.63,5.63,0,0,0,1.346-.224l1.346,2.131,4.936-3.253Zm-4.15-.9a6.005,6.005,0,1,1,1.795-8.3A5.989,5.989,0,0,1,665.281,373.677Zm-19.854-17.948a1.808,1.808,0,0,0,.449-.785l1.57.336.785-3.7-1.57-.337c0-.336-.112-.561-.112-.9l1.346-.9-2.019-3.141-1.346.9a1.807,1.807,0,0,0-.785-.449l.337-1.57-3.7-.785-.336,1.57c-.336,0-.561.112-.9.112l-.9-1.346-3.141,2.019.9,1.346a1.808,1.808,0,0,0-.449.785l-1.57-.336-.785,3.7,1.57.336c0,.337.112.561.112.9l-1.346.9,2.019,3.141,1.346-.9a1.808,1.808,0,0,0,.785.449l-.336,1.57,3.7.785.336-1.57c.336,0,.561-.112.9-.112l.9,1.346,3.141-2.019Zm-2.58-.561a3.734,3.734,0,1,1,1.122-5.16A3.808,3.808,0,0,1,642.847,355.169Z" transform="translate(-211.32 -133.292)" fill="#fff" opacity="0.63"/>
            <g id="Group_80" data-name="Group 80" transform="translate(236.347)">
              <path id="Path_184" data-name="Path 184" d="M467.8,164.725a8.525,8.525,0,1,0,8.525-8.525A8.521,8.521,0,0,0,467.8,164.725Z" transform="translate(-467.8 -156.2)" fill="#fff"/>
              <path id="Path_185" data-name="Path 185" d="M476.009,158a16.472,16.472,0,0,0-.561,3.253,31.52,31.52,0,0,0-.112,3.253l.673-.673a23.445,23.445,0,0,0-2.8.112,24.3,24.3,0,0,0-2.8.449,12.178,12.178,0,0,0,2.8.449,23.445,23.445,0,0,0,2.8.112h.673v-.673a31.52,31.52,0,0,0-.112-3.253C476.457,160.131,476.233,159.122,476.009,158Z" transform="translate(-467.483 -155.981)" fill="#00ebd5"/>
            </g>
            <g id="Group_81" data-name="Group 81" transform="translate(400.766 60.129)">
              <circle id="Ellipse_32" data-name="Ellipse 32" cx="11.105" cy="11.105" r="11.105" transform="matrix(0.122, -0.993, 0.993, 0.122, 0, 22.044)" fill="#fff"/>
              <path id="Path_186" data-name="Path 186" d="M626.406,223.747l3.141,5.384a.828.828,0,1,0,1.458-.785l-3.141-5.384a5.534,5.534,0,0,0,1.346-7.067,5.5,5.5,0,1,0-9.535,5.5A5.325,5.325,0,0,0,626.406,223.747Zm-5.384-3.029a3.868,3.868,0,1,1,5.272,1.458A4,4,0,0,1,621.022,220.718Z" transform="translate(-613.816 -209.394)" fill="#ff7171"/>
            </g>
            <g id="Group_82" data-name="Group 82" transform="translate(0 211.669)">
              <path id="Path_187" data-name="Path 187" d="M257.1,357.239A12.339,12.339,0,1,0,269.439,344.9,12.375,12.375,0,0,0,257.1,357.239Z" transform="translate(-257.1 -344.9)" fill="#fff"/>
              <path id="Path_188" data-name="Path 188" d="M265.8,361.466v.673h-.112v2.8h5.945v-2.8h-.112v-.673a6.845,6.845,0,0,1,1.57-4.15,6.149,6.149,0,0,0,1.234-4.6,5.7,5.7,0,0,0-11.329.9,5.291,5.291,0,0,0,1.346,3.59A7.8,7.8,0,0,1,265.8,361.466Zm4.487,0v.224h-.561c.561-2.019,1.234-4.711.673-5.272a.691.691,0,0,0-.785-.112h-.112a.847.847,0,0,0-.785-.449h0a.847.847,0,0,0-.785.449,1.22,1.22,0,0,0-.561-.112.6.6,0,0,0-.449.336c-.449.9.224,3.7.673,5.048h-.561v-.112a7.513,7.513,0,0,0-1.907-4.823,4.308,4.308,0,0,1-1.01-2.8,4.205,4.205,0,0,1,1.57-3.365,4.557,4.557,0,0,1,7.516,2.58,4.5,4.5,0,0,1-.9,3.59A7.1,7.1,0,0,0,270.291,361.466Zm-2.019.224c-.561-1.795-1.122-4.263-.785-4.823v-.112a.347.347,0,0,1,.224.112,1.192,1.192,0,0,0,.112.9c.112.112.336.224.449.112a.47.47,0,0,0,.337-.673.85.85,0,0,0-.224-.449.4.4,0,0,1,.337-.224c.112,0,.112.112.224.112a.11.11,0,0,0,.112.112,1.9,1.9,0,0,0-.224.561.583.583,0,0,0,.224.449c.224.112.337.112.561-.112a.691.691,0,0,0,.112-.785.11.11,0,0,0,.112-.112h.224c.224.336-.224,2.692-.9,4.823h-.9Z" transform="translate(-256.382 -344.528)" fill="#f7c90b"/>
            </g>
          </g>
          <g id="Group_88" data-name="Group 88" transform="translate(4.692 4.711)">
            <g id="Group_84" data-name="Group 84" transform="translate(366.131 17.835)">
              <path id="Path_189" data-name="Path 189" d="M550.5,193.238c.449-.561,18.4-16.938,18.4-16.938l3.141,2.019Z" transform="translate(-550.5 -176.3)" fill="#3f51b5"/>
              <path id="Path_190" data-name="Path 190" d="M572.037,178.1l4.038,9.759-25.575,5.16Z" transform="translate(-550.5 -176.081)" fill="#14297f"/>
              <path id="Path_191" data-name="Path 191" d="M576.075,187.628l-25.575,5.16L575.963,180Z" transform="translate(-550.5 -175.85)" fill="#9a9ae5"/>
              <path id="Path_192" data-name="Path 192" d="M575.963,180,550.5,192.788l30.623-8.974Z" transform="translate(-550.5 -175.85)" fill="#3f51b5"/>
            </g>
            <g id="Group_85" data-name="Group 85" transform="translate(461.477 184.187)">
              <path id="Path_193" data-name="Path 193" d="M661,325.5c-.673-.112-21.986-.9-21.986-.9L638,327.741Z" transform="translate(-635.196 -324.6)" fill="#3f51b5"/>
              <path id="Path_194" data-name="Path 194" d="M638,327.756l2.8,8.749L661,325.4Z" transform="translate(-635.196 -324.503)" fill="#14297f"/>
              <path id="Path_195" data-name="Path 195" d="M640.95,336.505,661.141,325.4,636.8,331.345Z" transform="translate(-635.342 -324.503)" fill="#9a9ae5"/>
              <path id="Path_196" data-name="Path 196" d="M636.958,331.345,661.3,325.4l-25.8,11.442Z" transform="translate(-635.5 -324.503)" fill="#3f51b5"/>
            </g>
            <g id="Group_86" data-name="Group 86" transform="translate(157.041)">
              <path id="Path_197" data-name="Path 197" d="M381.262,160.4c-.224.449-2.019,7.179-2.019,7.179L364.1,176.216Z" transform="translate(-364.1 -160.4)" fill="#3f51b5"/>
              <path id="Path_198" data-name="Path 198" d="M384.067,172.184l-4.823-5.384L364.1,175.325Z" transform="translate(-364.1 -159.621)" fill="#14297f"/>
              <path id="Path_199" data-name="Path 199" d="M384.067,171.637l-6.618-.337L364.1,174.777Z" transform="translate(-364.1 -159.073)" fill="#9a9ae5"/>
              <path id="Path_200" data-name="Path 200" d="M377.449,171.3l-2.356,8.189L364.1,174.777Z" transform="translate(-364.1 -159.073)" fill="#3f51b5"/>
            </g>
            <g id="Group_87" data-name="Group 87" transform="translate(0 164.22)">
              <path id="Path_201" data-name="Path 201" d="M224.1,306.8c.561.449,6.843,7.852,6.843,7.852l24.341,1.907Z" transform="translate(-224.1 -306.8)" fill="#3f51b5"/>
              <path id="Path_202" data-name="Path 202" d="M227.6,323.671l2.916-9.871,24.341,1.907Z" transform="translate(-223.674 -305.948)" fill="#14297f"/>
              <path id="Path_203" data-name="Path 203" d="M227.6,323.464l8.189-4.375,19.069-3.59Z" transform="translate(-223.674 -305.741)" fill="#9a9ae5"/>
              <path id="Path_204" data-name="Path 204" d="M234.9,319.09l7.852,8.974L253.969,315.5Z" transform="translate(-222.785 -305.741)" fill="#3f51b5"/>
            </g>
          </g>
          <g id="Group_98" data-name="Group 98" transform="translate(127.633 87.831)">
            <g id="Group_89" data-name="Group 89">
              <path id="Path_205" data-name="Path 205" d="M344.794,405.2H633.862a6.391,6.391,0,0,0,6.394-6.394V247.594a6.391,6.391,0,0,0-6.394-6.394H344.794a6.391,6.391,0,0,0-6.394,6.394V398.914A6.442,6.442,0,0,0,344.794,405.2Z" transform="translate(-333.128 -233.684)" fill="#3f51b5" opacity="0.5"/>
              <path id="Path_206" data-name="Path 206" d="M340.094,398.5H629.162a6.391,6.391,0,0,0,6.394-6.394V240.894a6.391,6.391,0,0,0-6.394-6.394H340.094a6.391,6.391,0,0,0-6.394,6.394V392.214A6.368,6.368,0,0,0,340.094,398.5Z" transform="translate(-333.7 -234.5)" fill="#d2d5f7"/>
              <path id="Path_207" data-name="Path 207" d="M339.982,397.7h289.18a6.271,6.271,0,0,0,6.282-6.282V244.7H333.7V391.422A6.271,6.271,0,0,0,339.982,397.7Z" transform="translate(-333.7 -233.258)" fill="#fff"/>
            </g>
            <g id="Group_90" data-name="Group 90" transform="translate(7.852 3.814)">
              <path id="Path_208" data-name="Path 208" d="M351.1,239.695a1.795,1.795,0,1,0,1.795-1.795A1.845,1.845,0,0,0,351.1,239.695Z" transform="translate(-339.434 -237.9)" fill="#ff005c"/>
              <path id="Path_209" data-name="Path 209" d="M347.695,237.9a1.795,1.795,0,1,1-1.795,1.795A1.845,1.845,0,0,1,347.695,237.9Z" transform="translate(-340.067 -237.9)" fill="#ffc136"/>
              <path id="Path_210" data-name="Path 210" d="M342.495,237.9a1.795,1.795,0,1,1-1.795,1.795A1.845,1.845,0,0,1,342.495,237.9Z" transform="translate(-340.7 -237.9)" fill="#00ead9"/>
            </g>
            <g id="Group_97" data-name="Group 97" transform="translate(18.845 29.277)">
              <g id="Group_91" data-name="Group 91" transform="translate(205.276)">
                <path id="Path_211" data-name="Path 211" d="M592.266,289.877a28.712,28.712,0,0,0-4.038-14.807,29.406,29.406,0,0,0-25.351-14.47A29.406,29.406,0,0,0,533.6,289.989a29.378,29.378,0,0,0,56.759,10.656A31.066,31.066,0,0,0,592.266,289.877Zm-12.115,0a16.5,16.5,0,0,1-1.234,6.282,17.152,17.152,0,0,1-16.041,10.881h-.449A17.241,17.241,0,0,1,545.6,289.877a17.19,17.19,0,0,1,17.162-17.162,17.254,17.254,0,0,1,14.919,8.637A15.8,15.8,0,0,1,580.151,289.877Z" transform="translate(-533.488 -260.6)" fill="#e4e5fb" opacity="0.45"/>
                <path id="Path_212" data-name="Path 212" d="M562.889,318.438V306.324h-.449a17.241,17.241,0,0,1-16.826-17.162,16.943,16.943,0,0,1,5.609-12.675l-8.076-9.086a29.305,29.305,0,0,0,19.742,51.038Z" transform="translate(-533.5 -259.772)" fill="#e4e5fb"/>
                <path id="Path_213" data-name="Path 213" d="M587.47,288.307a28.712,28.712,0,0,0-4.038-14.807L573,279.669a17.476,17.476,0,0,1,2.356,8.637,16.5,16.5,0,0,1-1.234,6.282l11.329,4.263A26.772,26.772,0,0,0,587.47,288.307Z" transform="translate(-528.692 -259.03)" fill="#647ee8"/>
                <path id="Path_214" data-name="Path 214" d="M587.181,275.07A29.406,29.406,0,0,0,561.83,260.6a28.952,28.952,0,0,0-19.63,7.628l8.076,9.086a17.169,17.169,0,0,1,26.473,4.15Z" transform="translate(-532.441 -260.6)" fill="#3f51b5"/>
              </g>
              <path id="Path_215" data-name="Path 215" d="M429.99,267.3H525.56a3.544,3.544,0,0,1,3.59,3.59h0a3.544,3.544,0,0,1-3.59,3.59H429.99a3.544,3.544,0,0,1-3.59-3.59h0A3.614,3.614,0,0,1,429.99,267.3Zm0,19.294H525.56a3.544,3.544,0,0,0,3.59-3.59h0a3.544,3.544,0,0,0-3.59-3.59H429.99A3.544,3.544,0,0,0,426.4,283h0A3.614,3.614,0,0,0,429.99,286.594Zm0,12.115H525.56a3.544,3.544,0,0,0,3.59-3.59h0a3.544,3.544,0,0,0-3.59-3.59H429.99a3.544,3.544,0,0,0-3.59,3.59h0A3.614,3.614,0,0,0,429.99,298.708Zm0,12.227H525.56a3.544,3.544,0,0,0,3.59-3.59h0a3.544,3.544,0,0,0-3.59-3.59H429.99a3.544,3.544,0,0,0-3.59,3.59h0A3.691,3.691,0,0,0,429.99,310.935Z" transform="translate(-341.261 -259.784)" fill="#e4e5fb"/>
              <path id="Path_216" data-name="Path 216" d="M350.612,326.39h0a3.52,3.52,0,0,1,3.477-3.59h66.63a3.5,3.5,0,0,1,3.477,3.477v.112a3.5,3.5,0,0,1-3.477,3.477H354.09A3.424,3.424,0,0,1,350.612,326.39Zm70.108,8.525H354.09a3.5,3.5,0,0,0-3.477,3.477v.112a3.5,3.5,0,0,0,3.477,3.477h66.63A3.5,3.5,0,0,0,424.2,338.5v-.112A3.5,3.5,0,0,0,420.72,334.915Zm-70.108,15.7h0a3.52,3.52,0,0,0,3.477,3.59h66.63a3.5,3.5,0,0,0,3.477-3.477v-.112a3.5,3.5,0,0,0-3.477-3.477H354.09A3.359,3.359,0,0,0,350.612,350.619Zm3.477,15.7h66.518a3.544,3.544,0,0,0,3.59-3.59h0a3.544,3.544,0,0,0-3.59-3.59H354.09a3.544,3.544,0,0,0-3.59,3.59h0A3.69,3.69,0,0,0,354.09,366.323Z" transform="translate(-350.5 -253.029)" fill="#e4e5fb"/>
              <path id="Path_217" data-name="Path 217" d="M536.786,369.471h47.337a9.048,9.048,0,0,0,9.086-9.086v-30.4a9.048,9.048,0,0,0-9.086-9.086H536.786a9.048,9.048,0,0,0-9.086,9.086v30.4A9.048,9.048,0,0,0,536.786,369.471Z" transform="translate(-328.93 -253.26)" fill="#e4e5fb"/>
              <g id="Group_96" data-name="Group 96" transform="translate(0 2.692)">
                <g id="Group_92" data-name="Group 92" clip-path="url(#clip-path)">
                  <path id="Path_218" data-name="Path 218" d="M417.916,323.124H356.894a6.391,6.391,0,0,1-6.394-6.394V269.394A6.391,6.391,0,0,1,356.894,263h61.022a6.391,6.391,0,0,1,6.394,6.394v47.449A6.442,6.442,0,0,1,417.916,323.124Z" transform="translate(-350.5 -263)" fill="#e4e5fb"/>
                </g>
                <g id="Group_93" data-name="Group 93" clip-path="url(#clip-path)">
                  <path id="Path_220" data-name="Path 220" d="M368.737,312.282l35.446-18.508a6.1,6.1,0,0,1,6.169.337l32.979,21.313v6.057H368.4Z" transform="translate(-348.321 -259.337)" fill="#9a9ae5"/>
                </g>
                <g id="Group_94" data-name="Group 94" clip-path="url(#clip-path)">
                  <path id="Path_222" data-name="Path 222" d="M347.758,306.826l23.668-19.181a6.229,6.229,0,0,1,7.4-.224l47,33.652H346.3Z" transform="translate(-351.011 -260.163)" fill="#3f51b5"/>
                </g>
                <g id="Group_95" data-name="Group 95" clip-path="url(#clip-path)">
                  <circle id="Ellipse_33" data-name="Ellipse 33" cx="6.955" cy="6.955" r="6.955" transform="translate(38.924 8.862)" fill="#3f51b5"/>
                </g>
              </g>
              <path id="Path_225" data-name="Path 225" d="M484.139,341.641h6.618a3.5,3.5,0,0,1,3.477,3.477v21.2a3.5,3.5,0,0,1-3.477,3.477h-6.618a3.5,3.5,0,0,1-3.477-3.477v-21.2A3.424,3.424,0,0,1,484.139,341.641ZM504.667,333h6.955a3.375,3.375,0,0,1,3.365,3.365v30.174a3.375,3.375,0,0,1-3.365,3.365h-6.955a3.375,3.375,0,0,1-3.365-3.365V336.369A3.449,3.449,0,0,1,504.667,333Zm-45.43,2.468v31.072a3.375,3.375,0,0,0,3.365,3.365h6.955a3.375,3.375,0,0,0,3.365-3.365V335.472a3.375,3.375,0,0,0-3.365-3.365H462.6A3.305,3.305,0,0,0,459.237,335.472ZM448.02,317.3h-6.955a3.375,3.375,0,0,0-3.365,3.365v45.879a3.375,3.375,0,0,0,3.365,3.365h6.955a3.375,3.375,0,0,0,3.365-3.365V320.665A3.375,3.375,0,0,0,448.02,317.3Z" transform="translate(-339.886 -253.698)" fill="#e4e5fb"/>
              <path id="Path_226" data-name="Path 226" d="M550.5,355.9V332.46a2.41,2.41,0,0,1,3.7-2.019l17.611,11.554a2.309,2.309,0,0,1,0,3.926L554.2,357.811A2.4,2.4,0,0,1,550.5,355.9Z" transform="translate(-326.155 -252.145)" fill="#fff"/>
            </g>
          </g>
          <path id="Path_227" data-name="Path 227" d="M662.7,414.036H300.268a2.49,2.49,0,0,1-2.468-2.468h0a2.49,2.49,0,0,1,2.468-2.468H662.809a2.49,2.49,0,0,1,2.468,2.468h0A2.59,2.59,0,0,1,662.7,414.036Z" transform="translate(-210.437 -125.416)" fill="#3f51b5"/>
          <g id="Group_101" data-name="Group 101" transform="translate(203.686 42.401)">
            <path id="Path_228" data-name="Path 228" d="M464.054,244.722h-48.01A10.532,10.532,0,0,1,405.5,234.178V207.144A10.532,10.532,0,0,1,416.044,196.6h48.01A10.532,10.532,0,0,1,474.6,207.144v27.034A10.392,10.392,0,0,1,464.054,244.722Z" transform="translate(-401.013 -193.684)" fill="#647ee8" opacity="0.5"/>
            <path id="Path_229" data-name="Path 229" d="M460.166,242.234h-48.01A10.652,10.652,0,0,1,401.5,231.578V204.544A10.557,10.557,0,0,1,412.156,194h48.01a10.628,10.628,0,0,1,10.656,10.544v27.034A10.652,10.652,0,0,1,460.166,242.234Z" transform="translate(-401.5 -194)" fill="#fff"/>
            <path id="Path_230" data-name="Path 230" d="M470.81,204.869H401.6v-.337A10.485,10.485,0,0,1,412.032,194.1h48.346a10.484,10.484,0,0,1,10.432,10.432Z" transform="translate(-401.488 -193.988)" fill="#647ee8"/>
            <g id="Group_99" data-name="Group 99" transform="translate(5.609 4.711)">
              <path id="Path_231" data-name="Path 231" d="M408.743,199.322a1.122,1.122,0,1,1-1.122-1.122A1.06,1.06,0,0,1,408.743,199.322Z" transform="translate(-406.5 -198.2)" fill="#ff005c"/>
              <path id="Path_232" data-name="Path 232" d="M413.143,199.322a1.122,1.122,0,1,1-1.122-1.122A1.06,1.06,0,0,1,413.143,199.322Z" transform="translate(-405.964 -198.2)" fill="#ffc136"/>
              <path id="Path_233" data-name="Path 233" d="M417.543,199.322a1.122,1.122,0,1,1-1.122-1.122A1.06,1.06,0,0,1,417.543,199.322Z" transform="translate(-405.429 -198.2)" fill="#00ead9"/>
            </g>
            <g id="Group_100" data-name="Group 100" transform="translate(5.16 14.246)">
              <path id="Path_234" data-name="Path 234" d="M407.11,229.8h57.1a1,1,0,0,1,1.01,1.01v.112a1,1,0,0,1-1.01,1.01h-57.1a1,1,0,0,1-1.01-1.01v-.112A1,1,0,0,1,407.11,229.8Z" transform="translate(-406.1 -203.888)" fill="#e4e5fb"/>
              <path id="Path_235" data-name="Path 235" d="M407.11,224.9h57.1a1,1,0,0,1,1.01,1.01v.112a1,1,0,0,1-1.01,1.01h-57.1a1,1,0,0,1-1.01-1.01v-.112A1,1,0,0,1,407.11,224.9Z" transform="translate(-406.1 -204.485)" fill="#3f51b5"/>
              <path id="Path_236" data-name="Path 236" d="M407.11,220h57.1a1,1,0,0,1,1.01,1.01v.112a1,1,0,0,1-1.01,1.01h-57.1a1,1,0,0,1-1.01-1.01v-.112A1,1,0,0,1,407.11,220Z" transform="translate(-406.1 -205.081)" fill="#3f51b5"/>
              <path id="Path_237" data-name="Path 237" d="M445.788,213.094a6.394,6.394,0,1,1-6.394-6.394A6.463,6.463,0,0,1,445.788,213.094Zm9.422-6.282a6.394,6.394,0,1,0,6.394,6.394A6.391,6.391,0,0,0,455.21,206.812Z" transform="translate(-402.826 -206.7)" fill="#3f51b5"/>
            </g>
          </g>
          <g id="Group_104" data-name="Group 104" transform="translate(228.027 235.338)">
            <path id="Path_238" data-name="Path 238" d="M485.254,414.234h-48.01A10.532,10.532,0,0,1,426.7,403.69V376.656A10.652,10.652,0,0,1,437.356,366h48.01a10.532,10.532,0,0,1,10.544,10.544v27.034A10.724,10.724,0,0,1,485.254,414.234Z" transform="translate(-422.774 -366)" fill="#647ee8" opacity="0.5"/>
            <path id="Path_239" data-name="Path 239" d="M481.754,414.234h-48.01A10.557,10.557,0,0,1,423.2,403.578V376.544A10.532,10.532,0,0,1,433.744,366h48.01A10.557,10.557,0,0,1,492.3,376.656V403.69A10.532,10.532,0,0,1,481.754,414.234Z" transform="translate(-423.2 -366)" fill="#fff"/>
            <path id="Path_240" data-name="Path 240" d="M492.41,376.769H423.2v-.336A10.485,10.485,0,0,1,433.632,366h48.346a10.485,10.485,0,0,1,10.432,10.432Z" transform="translate(-423.2 -366)" fill="#647ee8"/>
            <g id="Group_102" data-name="Group 102" transform="translate(5.496 4.599)">
              <path id="Path_241" data-name="Path 241" d="M430.343,371.222a1.122,1.122,0,1,1-1.122-1.122A1.206,1.206,0,0,1,430.343,371.222Z" transform="translate(-428.1 -370.1)" fill="#ff005c"/>
              <path id="Path_242" data-name="Path 242" d="M434.743,371.222a1.122,1.122,0,1,1-1.122-1.122A1.124,1.124,0,0,1,434.743,371.222Z" transform="translate(-427.564 -370.1)" fill="#ffc136"/>
              <path id="Path_243" data-name="Path 243" d="M439.143,371.222a1.122,1.122,0,1,1-1.122-1.122A1.124,1.124,0,0,1,439.143,371.222Z" transform="translate(-427.029 -370.1)" fill="#00ead9"/>
            </g>
            <g id="Group_103" data-name="Group 103" transform="translate(5.048 16.149)">
              <path id="Path_244" data-name="Path 244" d="M428.71,401.8h57.1a1,1,0,0,1,1.01,1.01v.112a1,1,0,0,1-1.01,1.01h-57.1a1,1,0,0,1-1.01-1.01v-.112A.941.941,0,0,1,428.71,401.8Z" transform="translate(-427.7 -377.791)" fill="#e4e5fb"/>
              <path id="Path_245" data-name="Path 245" d="M428.71,396.8h57.1a1,1,0,0,1,1.01,1.01v.112a1,1,0,0,1-1.01,1.01h-57.1a1,1,0,0,1-1.01-1.01v-.112A1,1,0,0,1,428.71,396.8Z" transform="translate(-427.7 -378.4)" fill="#e4e5fb"/>
              <path id="Path_246" data-name="Path 246" d="M428.71,391.9h57.1a1,1,0,0,1,1.01,1.01v.112a1,1,0,0,1-1.01,1.01h-57.1a1,1,0,0,1-1.01-1.01v-.112A1,1,0,0,1,428.71,391.9Z" transform="translate(-427.7 -378.996)" fill="#00ead9"/>
              <circle id="Ellipse_34" data-name="Ellipse 34" cx="5.272" cy="5.272" r="5.272" transform="translate(48.458 0.004)" fill="#3f51b5"/>
              <path id="Path_247" data-name="Path 247" d="M468.444,385.673a5.272,5.272,0,1,1-5.272-5.272A5.2,5.2,0,0,1,468.444,385.673Z" transform="translate(-424.024 -380.397)" fill="#3f51b5"/>
              <circle id="Ellipse_35" data-name="Ellipse 35" cx="5.272" cy="5.272" r="5.272" transform="translate(19.181 0.004)" fill="#ffc136"/>
            </g>
          </g>
          <g id="Group_107" data-name="Group 107" transform="translate(67.284 131.803)">
            <path id="Path_248" data-name="Path 248" d="M341.954,324.334h-48.01A10.532,10.532,0,0,1,283.4,313.79V286.756A10.628,10.628,0,0,1,293.944,276.1h48.01A10.532,10.532,0,0,1,352.5,286.644v27.034A10.418,10.418,0,0,1,341.954,324.334Z" transform="translate(-279.474 -273.408)" fill="#647ee8" opacity="0.5"/>
            <path id="Path_249" data-name="Path 249" d="M338.566,322.034h-48.01A10.652,10.652,0,0,1,279.9,311.378V284.344A10.532,10.532,0,0,1,290.444,273.8h48.01a10.652,10.652,0,0,1,10.656,10.656V311.49A10.6,10.6,0,0,1,338.566,322.034Z" transform="translate(-279.9 -273.688)" fill="#fff"/>
            <path id="Path_250" data-name="Path 250" d="M349.11,284.581H279.9v-.449A10.485,10.485,0,0,1,290.332,273.7h48.346a10.485,10.485,0,0,1,10.432,10.432v.449Z" transform="translate(-279.9 -273.7)" fill="#647ee8"/>
            <g id="Group_105" data-name="Group 105" transform="translate(5.496 4.711)">
              <path id="Path_251" data-name="Path 251" d="M287.043,279.022a1.122,1.122,0,1,1-1.122-1.122A1.124,1.124,0,0,1,287.043,279.022Z" transform="translate(-284.8 -277.9)" fill="#ff005c"/>
              <path id="Path_252" data-name="Path 252" d="M291.443,279.022a1.122,1.122,0,1,1-1.122-1.122A1.124,1.124,0,0,1,291.443,279.022Z" transform="translate(-284.264 -277.9)" fill="#ffc136"/>
              <path id="Path_253" data-name="Path 253" d="M295.943,279.022a1.122,1.122,0,1,1-1.122-1.122A1.124,1.124,0,0,1,295.943,279.022Z" transform="translate(-283.717 -277.9)" fill="#00ead9"/>
            </g>
            <g id="Group_106" data-name="Group 106" transform="translate(5.048 16.265)">
              <path id="Path_254" data-name="Path 254" d="M285.41,309.5h57.1a1,1,0,0,1,1.01,1.01v.112a1,1,0,0,1-1.01,1.01h-57.1a1,1,0,0,1-1.01-1.01v-.112A1,1,0,0,1,285.41,309.5Z" transform="translate(-284.4 -285.607)" fill="#e4e5fb"/>
              <path id="Path_255" data-name="Path 255" d="M285.41,304.6h57.1a1,1,0,0,1,1.01,1.01v.112a1,1,0,0,1-1.01,1.01h-57.1a1,1,0,0,1-1.01-1.01v-.112A1,1,0,0,1,285.41,304.6Z" transform="translate(-284.4 -286.204)" fill="#e4e5fb"/>
              <path id="Path_256" data-name="Path 256" d="M285.41,299.7h57.1a1,1,0,0,1,1.01,1.01v.112a1,1,0,0,1-1.01,1.01h-57.1a1,1,0,0,1-1.01-1.01v-.112A1,1,0,0,1,285.41,299.7Z" transform="translate(-284.4 -286.8)" fill="#00ead9"/>
              <circle id="Ellipse_36" data-name="Ellipse 36" cx="5.272" cy="5.272" r="5.272" transform="translate(48.458)" fill="#3f51b5"/>
              <circle id="Ellipse_37" data-name="Ellipse 37" cx="5.272" cy="5.272" r="5.272" transform="translate(33.876)" fill="#3f51b5"/>
              <circle id="Ellipse_38" data-name="Ellipse 38" cx="5.272" cy="5.272" r="5.272" transform="translate(19.181)" fill="#ffc136"/>
            </g>
          </g>
          <g id="Group_110" data-name="Group 110" transform="translate(403.241 224.794)">
            <g id="Group_109" data-name="Group 109">
              <path id="Path_257" data-name="Path 257" d="M627.858,415.378H581.531a2.13,2.13,0,0,1-2.131-2.131V358.731a2.13,2.13,0,0,1,2.131-2.131h46.327a2.13,2.13,0,0,1,2.131,2.131v54.4A2.23,2.23,0,0,1,627.858,415.378Z" transform="translate(-579.4 -356.6)" fill="#14297f"/>
              <g id="Group_108" data-name="Group 108" transform="translate(3.253 3.59)">
                <path id="Path_258" data-name="Path 258" d="M624.14,375.392H584.431a2.13,2.13,0,0,1-2.131-2.131V361.931a2.13,2.13,0,0,1,2.131-2.131H624.14a2.13,2.13,0,0,1,2.131,2.131v11.329A2,2,0,0,1,624.14,375.392Z" transform="translate(-582.3 -359.8)" fill="#b6b9ff"/>
                <path id="Path_259" data-name="Path 259" d="M624.14,391.492H584.431a2.13,2.13,0,0,1-2.131-2.131V378.031a2.13,2.13,0,0,1,2.131-2.131H624.14a2.13,2.13,0,0,1,2.131,2.131v11.329A2.061,2.061,0,0,1,624.14,391.492Z" transform="translate(-582.3 -357.84)" fill="#b6b9ff"/>
                <path id="Path_260" data-name="Path 260" d="M624.14,407.492H584.431a2.13,2.13,0,0,1-2.131-2.131V394.031a2.13,2.13,0,0,1,2.131-2.131H624.14a2.13,2.13,0,0,1,2.131,2.131v11.329A2.061,2.061,0,0,1,624.14,407.492Z" transform="translate(-582.3 -355.893)" fill="#b6b9ff"/>
              </g>
            </g>
          </g>
          <g id="Group_117" data-name="Group 117" transform="translate(427.897 240.41)">
            <g id="Group_112" data-name="Group 112" transform="translate(5.769)">
              <path id="Path_261" data-name="Path 261" d="M610.76,402.915c2.019-4.823,4.038-9.759,4.823-14.919s.337-10.769-2.356-15.255a4.965,4.965,0,0,0-1.346-1.683,2.22,2.22,0,0,0-2.019-.449c-.9.224-1.458,1.122-1.907,1.907-2.131,4.375-1.57,9.647-.337,14.47s3.029,9.422,3.141,14.358" transform="translate(-606.524 -370.522)" fill="#16d6cc"/>
              <g id="Group_111" data-name="Group 111" transform="translate(3.114 4.351)" opacity="0.35">
                <path id="Path_262" data-name="Path 262" d="M610.983,401.658a.483.483,0,0,0,.449-.449,129.4,129.4,0,0,0-1.122-26.361c0-.224-.336-.449-.561-.449s-.449.337-.449.561a127.553,127.553,0,0,1,1.122,26.136c.112.337.337.561.561.561Z" transform="translate(-609.3 -374.4)" fill="#60c6bc"/>
              </g>
            </g>
            <g id="Group_114" data-name="Group 114" transform="translate(0 10.075)">
              <path id="Path_263" data-name="Path 263" d="M612.844,401.822c-1.122-3.365-.9-7.067-1.01-10.656s-.785-7.4-3.365-9.983a5.551,5.551,0,0,0-2.58-1.57,3.732,3.732,0,0,0-2.916.449c-1.122.785-1.458,2.356-1.57,3.7a17.383,17.383,0,0,0,3.59,10.881,52.036,52.036,0,0,0,8.076,8.413" transform="translate(-601.381 -379.503)" fill="#00ebd5"/>
              <g id="Group_113" data-name="Group 113" transform="translate(2.714 3.473)" opacity="0.35">
                <path id="Path_264" data-name="Path 264" d="M612.325,402.454a.674.674,0,0,0,.449-.112.421.421,0,0,0,0-.673,33.582,33.582,0,0,1-7.964-18.621.508.508,0,0,0-1.01.112,34.746,34.746,0,0,0,8.189,19.181C612.1,402.342,612.213,402.454,612.325,402.454Z" transform="translate(-603.8 -382.6)" fill="#60c6bc"/>
              </g>
            </g>
            <g id="Group_116" data-name="Group 116" transform="translate(10.173 11.152)">
              <path id="Path_265" data-name="Path 265" d="M611.2,402.042a12.147,12.147,0,0,0,4.936-3.365,28.235,28.235,0,0,0,6.169-9.871,10.952,10.952,0,0,0,.785-3.7,4.916,4.916,0,0,0-1.234-3.477,4.77,4.77,0,0,0-5.272-.673,7.641,7.641,0,0,0-3.477,4.263,23.543,23.543,0,0,0-1.01,5.609c-.336,3.253-.673,6.506-.9,9.871" transform="translate(-610.359 -380.463)" fill="#51f4e0"/>
              <g id="Group_115" data-name="Group 115" transform="translate(0 4.865)" opacity="0.35">
                <path id="Path_266" data-name="Path 266" d="M610.843,400.5a.412.412,0,0,0,.336-.112,28.838,28.838,0,0,0,8.189-15.031c0-.224-.112-.561-.336-.561s-.561.112-.561.336a26.728,26.728,0,0,1-7.852,14.47.421.421,0,0,0,0,.673C610.618,400.5,610.73,400.5,610.843,400.5Z" transform="translate(-610.45 -384.8)" fill="#60c6bc"/>
              </g>
            </g>
            <path id="Path_267" data-name="Path 267" d="M607.853,410.351h9.086l3.253-12.451H604.6Z" transform="translate(-600.989 -367.189)" fill="#3f51b5"/>
            <rect id="Rectangle_248" data-name="Rectangle 248" width="16.938" height="4.038" transform="translate(19.931 33.505) rotate(180)" fill="#9594f9"/>
          </g>
          <path id="Path_268" data-name="Path 268" d="M348.995,367.8A14.745,14.745,0,0,0,334.3,382.495a17.062,17.062,0,0,0,1.795,6.955c2.243,5.048,8.189,17.162,11.329,23.332a2.015,2.015,0,0,0,3.7-.112c2.8-6.169,8.3-18.172,10.769-23.332a16.4,16.4,0,0,0,1.795-6.955A14.649,14.649,0,0,0,348.995,367.8Zm0,21.649a6.955,6.955,0,1,1,6.955-6.955A6.99,6.99,0,0,1,348.995,389.449Z" transform="translate(-205.994 -130.443)" fill="#ff7171"/>
          <g id="Group_118" data-name="Group 118" transform="translate(186.86 135.504)">
            <path id="Path_269" data-name="Path 269" d="M391.653,278.5h22.322a3.135,3.135,0,0,1,3.141,3.141v15.143a3.135,3.135,0,0,1-3.141,3.141H412.4l3.477,3.59-9.2-3.59H391.541a3.135,3.135,0,0,1-3.141-3.141V281.641A3.161,3.161,0,0,1,391.653,278.5Z" transform="translate(-386.269 -276.817)" fill="#cbc2ff" opacity="0.5"/>
            <path id="Path_270" data-name="Path 270" d="M390.763,298.537h20.191a4.261,4.261,0,0,0,4.263-4.263V281.263A4.261,4.261,0,0,0,410.954,277H390.763a4.261,4.261,0,0,0-4.263,4.263v13.012A4.261,4.261,0,0,0,390.763,298.537Z" transform="translate(-386.5 -277)" fill="#fff"/>
            <path id="Path_271" data-name="Path 271" d="M407.691,295.2l4.6,4.711L400.4,295.2" transform="translate(-384.808 -274.785)" fill="#fff"/>
            <path id="Path_272" data-name="Path 272" d="M411.92,283.57H389.485a.785.785,0,0,1,0-1.57H411.92a.785.785,0,1,1,0,1.57Zm.785,3.59a.767.767,0,0,0-.785-.785H389.485a.785.785,0,0,0,0,1.57H411.92A.767.767,0,0,0,412.7,287.16Zm0,4.375a.767.767,0,0,0-.785-.785H389.485a.785.785,0,1,0,0,1.57H411.92A.767.767,0,0,0,412.7,291.535Z" transform="translate(-386.232 -276.391)" fill="#e4e5fb"/>
          </g>
          <g id="Group_119" data-name="Group 119" transform="translate(350.632 214.922)">
            <path id="Path_273" data-name="Path 273" d="M559.663,349.3H537.341a3.135,3.135,0,0,0-3.141,3.141v15.143a3.135,3.135,0,0,0,3.141,3.141h1.57l-3.477,3.59,9.2-3.59h15.143a3.135,3.135,0,0,0,3.141-3.141V352.441A3.234,3.234,0,0,0,559.663,349.3Z" transform="translate(-532.293 -347.617)" fill="#cbc2ff" opacity="0.5"/>
            <path id="Path_274" data-name="Path 274" d="M556.954,369.337H536.763a4.261,4.261,0,0,1-4.263-4.263V352.063a4.261,4.261,0,0,1,4.263-4.263h20.191a4.261,4.261,0,0,1,4.263,4.263v13.012A4.261,4.261,0,0,1,556.954,369.337Z" transform="translate(-532.5 -347.8)" fill="#fff"/>
            <path id="Path_275" data-name="Path 275" d="M538.187,366l-4.487,4.711L545.59,366" transform="translate(-532.354 -345.585)" fill="#fff"/>
            <path id="Path_276" data-name="Path 276" d="M534.5,353.585a.767.767,0,0,1,.785-.785H557.72a.785.785,0,0,1,0,1.57H535.285A.843.843,0,0,1,534.5,353.585Zm.9,5.16h22.434a.785.785,0,1,0,0-1.57H535.4a.767.767,0,0,0-.785.785C534.5,358.409,534.949,358.745,535.4,358.745Zm0,4.375h22.434a.785.785,0,1,0,0-1.57H535.4a.767.767,0,0,0-.785.785C534.5,362.783,534.949,363.12,535.4,363.12Z" transform="translate(-532.257 -347.191)" fill="#e4e5fb"/>
          </g>
          <g id="Group_120" data-name="Group 120" transform="translate(412.432 172.74)">
            <path id="Path_277" data-name="Path 277" d="M595.677,350.358v-2.58a18.526,18.526,0,0,0-4.487-11.554,15.923,15.923,0,0,1,10.432-25.912,16.312,16.312,0,0,1,12.675,3.926,15.833,15.833,0,0,1,5.384,12,15.657,15.657,0,0,1-3.589,10.1,18.289,18.289,0,0,0-4.487,11.554v2.58H595.677Z" transform="translate(-587.594 -310.195)" fill="#e4e5fb"/>
            <path id="Path_278" data-name="Path 278" d="M605.038,347.248v-1.122c0-.336,3.7-12.563,2.243-15.031a1.606,1.606,0,0,0-1.122-.9,3.586,3.586,0,0,1-3.926-.9h0a2.363,2.363,0,0,0-2.019,1.234.392.392,0,0,1-.224-.112,2.034,2.034,0,0,0-2.243.337c-1.683,1.346,2.131,15.031,2.131,15.368v1.346h5.16Zm-6.282-15.48c.112-.112.224-.112.561,0,.112,0,.224.112.336.224a2.238,2.238,0,0,0,.449,2.243,1.339,1.339,0,0,0,1.458.224,1.13,1.13,0,0,0,.673-1.234,2.694,2.694,0,0,0-.673-1.683c.112-.112.112-.224.224-.337a.954.954,0,0,1,.561-.336,1.256,1.256,0,0,1,1.01.561,3.788,3.788,0,0,0-.785,1.234,1.38,1.38,0,0,0,.9,1.907,1.474,1.474,0,0,0,1.346-.336,2.773,2.773,0,0,0,.449-2.356c.336-.224.449-.224.561-.224l.112.112c1.01,1.683-.673,8.637-2.243,13.573h-2.468C599.429,339.283,598.083,332.777,598.756,331.768Z" transform="translate(-586.41 -307.869)" fill="#fff"/>
            <path id="Path_279" data-name="Path 279" d="M593.4,347.431h0a2.13,2.13,0,0,0,2.131,2.131H610.45a2.13,2.13,0,0,0,2.131-2.131h0a2.13,2.13,0,0,0-2.131-2.131H595.531A2.063,2.063,0,0,0,593.4,347.431Z" transform="translate(-586.887 -305.922)" fill="#3f51b5"/>
            <path id="Path_280" data-name="Path 280" d="M593.4,351.131h0a2.13,2.13,0,0,0,2.131,2.131H610.45a2.13,2.13,0,0,0,2.131-2.131h0A2.13,2.13,0,0,0,610.45,349H595.531A2.13,2.13,0,0,0,593.4,351.131Z" transform="translate(-586.887 -305.471)" fill="#3f51b5"/>
            <path id="Path_281" data-name="Path 281" d="M593.4,354.931h0a2.13,2.13,0,0,0,2.131,2.131H610.45a2.13,2.13,0,0,0,2.131-2.131h0a2.13,2.13,0,0,0-2.131-2.131H595.531A2.063,2.063,0,0,0,593.4,354.931Z" transform="translate(-586.887 -305.009)" fill="#3f51b5"/>
          </g>
        </g>
        <g id="Group_122" data-name="Group 122" transform="translate(0 30.221)">
          <path id="Path_282" data-name="Path 282" d="M297.3,262a3.7,3.7,0,1,0,3.7-3.7A3.735,3.735,0,0,0,297.3,262Z" transform="translate(-200.046 -161.159)" fill="#3f51b5"/>
          <circle id="Ellipse_39" data-name="Ellipse 39" cx="4.038" cy="4.038" r="4.038" transform="translate(499.84 105.554)" fill="#3f51b5"/>
          <circle id="Ellipse_40" data-name="Ellipse 40" cx="3.814" cy="3.814" r="3.814" transform="translate(357.157)" fill="#3f51b5"/>
          <path id="Path_283" data-name="Path 283" d="M643.9,385.892a2.692,2.692,0,1,0,2.692-2.692A2.592,2.592,0,0,0,643.9,385.892Z" transform="translate(-157.857 -145.955)" fill="#7474e2"/>
          <path id="Path_284" data-name="Path 284" d="M210.6,369.492a2.692,2.692,0,1,0,2.692-2.692A2.73,2.73,0,0,0,210.6,369.492Z" transform="translate(-210.6 -147.952)" fill="#3f51b5"/>
          <circle id="Ellipse_41" data-name="Ellipse 41" cx="3.141" cy="3.141" r="3.141" transform="translate(177.12 28.604)" fill="#3f51b5"/>
          <circle id="Ellipse_42" data-name="Ellipse 42" cx="2.692" cy="2.692" r="2.692" transform="translate(95.795 19.518)" fill="#3f51b5"/>
          <circle id="Ellipse_43" data-name="Ellipse 43" cx="2.692" cy="2.692" r="2.692" transform="translate(307.352 49.019)" fill="#3f51b5"/>
          <circle id="Ellipse_44" data-name="Ellipse 44" cx="2.692" cy="2.692" r="2.692" transform="translate(46.664 247.901)" fill="#3f51b5"/>
          <circle id="Ellipse_45" data-name="Ellipse 45" cx="2.692" cy="2.692" r="2.692" transform="translate(473.031 153.34)" fill="#3f51b5"/>
          <circle id="Ellipse_46" data-name="Ellipse 46" cx="2.692" cy="2.692" r="2.692" transform="translate(427.601 51.711)" fill="#3f51b5"/>
        </g>
      </g>
    </g>
  </g>
</svg>
