<?xml version="1.0" encoding="UTF-8"?>
<svg width="100px" height="100px" viewBox="0 0 100 100" version="1.1" xmlns="http://www.w3.org/2000/svg" xmlns:xlink="http://www.w3.org/1999/xlink">
    <!-- Generator: sketchtool 53.2 (72643) - https://sketchapp.com -->
    <title>44A4BF02-28CE-4FF4-9178-603127BE74FF</title>
    <desc>Created with sketchtool.</desc>
    <g id="BookingList-v.1" stroke="none" stroke-width="1" fill="none" fill-rule="evenodd">
        <g id="BookingList-1" transform="translate(-726.000000, -396.000000)">
            <g id="icon-reservation-empty" transform="translate(726.000000, 396.000000)">
                <circle id="Oval-Copy-2" fill="#F4F5F7" cx="50" cy="50" r="50"></circle>
                <g id="Group-15-Copy-2" transform="translate(57.770492, 3.000000)" fill="#556CE7">
                    <path d="M23.9754098,5.90163934 C23.1096234,10.6045563 22.407758,11.3063832 17.704918,12.1721311 C22.4077965,13.0379176 23.1096234,13.7397445 23.9754098,18.442623 C24.8411963,13.7397445 25.5430232,13.0379176 30.2459016,12.1721311 C25.5430232,11.3063832 24.8411578,10.6045563 23.9754098,5.90163934" id="Fill-1" fill-opacity="0.4"></path>
                    <path d="M15.4918033,0 C14.8806599,3.31970606 14.3852255,3.81511328 11.0655738,4.42622951 C14.3852527,5.03737288 14.8806599,5.5327801 15.4918033,8.85245902 C16.1029467,5.5327801 16.5983539,5.03737288 19.9180328,4.42622951 C16.5983539,3.81511328 16.1029195,3.31970606 15.4918033,0" id="Fill-1-Copy" fill-opacity="0.8"></path>
                    <path d="M10.3279186,10.3278689 C8.90203888,18.3503067 7.74573981,19.5477932 0,21.024487 C7.74573981,22.5013871 8.90203888,23.6988736 10.3279186,31.7213115 C11.7536988,23.6988736 12.9099979,22.5012839 20.6557377,21.024487 C12.9097987,19.5477932 11.7537984,18.3503067 10.3279186,10.3278689" id="Fill-3" fill-opacity="0.6"></path>
                </g>
                <path d="M39,36 C37.897,36 37,35.3085 37,34.45875 L37,31.54125 C37,30.6915 37.897,30 39,30 C40.103,30 41,30.6915 41,31.54125 L41,34.45875 C41,35.3085 40.103,36 39,36 L39,36 Z M59,36 C58.651,36 58.307,35.9295 58.004,35.79525 C57.385,35.52075 57,35.00925 57,34.45875 L57,31.54125 C57,30.99075 57.385,30.47925 58.004,30.20475 C58.307,30.0705 58.651,30 59,30 C59.349,30 59.693,30.0705 59.996,30.20475 C60.615,30.47925 61,30.99075 61,31.54125 L61,34.45875 C61,35.00925 60.615,35.52075 59.996,35.79525 C59.693,35.9295 59.349,36 59,36 L59,36 Z M45.8674083,62 C45.5417596,62 45.2365662,61.8773125 45.0074666,61.6530625 L40.3477445,57.10875 C40.122736,56.8885625 39.9991858,56.59525 40.000004,56.28325 C40.000004,55.9720625 40.1251906,55.67875 40.3526538,55.4569375 C40.5817534,55.2335 40.8869468,55.1108125 41.2117773,55.1108125 C41.5357895,55.1108125 41.8393465,55.2326875 42.0684461,55.4536875 L45.8674083,59.1586875 L55.9273353,49.3485625 C56.153162,49.12675 56.4673557,49 56.7889134,49 C56.8944628,49 57.0000123,49.0138125 57.1031071,49.0398125 C57.5203957,49.1495 57.848499,49.4688125 57.959776,49.8734375 C58.0702347,50.275625 57.9491392,50.7095 57.6464004,51.0044375 L46.72735,61.6530625 C46.4974322,61.8773125 46.1922388,62 45.8674083,62 L45.8674083,62 Z M31,65.5129375 C31.0008,66.8828125 32.0832,67.998375 33.4136,68 L64.5856,68 C65.916,67.998375 66.9984,66.8828125 67,65.51375 L67,42 L31,42 L31,65.5129375 Z M32.9346939,70 C31.8840816,70 30.8955102,69.5909091 30.1510204,68.848 C29.4089796,68.1059091 29,67.1183636 29,66.0678182 L29,37.9321818 C29,36.8824545 29.4089796,35.8949091 30.1518367,35.152 C30.8946939,34.4090909 31.8832653,34 32.9346939,34 L34.7395918,34 L34.7395918,34.8140909 C34.7469388,37.0444545 36.5665306,38.8575455 38.7959184,38.8575455 C41.0253061,38.8575455 42.844898,37.0444545 42.8514286,34.8157273 L42.8514286,34 L55.1477551,34 L55.1477551,34.8140909 C55.155102,37.0444545 56.9746939,38.8575455 59.2040816,38.8575455 C61.4334694,38.8575455 63.2530612,37.0444545 63.2595918,34.8157273 L63.2595918,34 L65.0653061,34 C67.235102,34 69,35.764 69,37.9321818 L69,66.0678182 C69,68.236 67.235102,70 65.0653061,70 L32.9346939,70 Z" id="Fill-1" fill="#DADADA"></path>
            </g>
        </g>
    </g>
</svg>