<?xml version="1.0" encoding="UTF-8"?>
<svg width="24px" height="16px" viewBox="0 0 24 16" version="1.1" xmlns="http://www.w3.org/2000/svg">
    <!-- Generator: sketchtool 53.2 (72643) - https://sketchapp.com -->
    <title>69B708A6-F3D1-463F-A193-8BFFC82DDC10</title>
    <desc>Created with sketchtool.</desc>
    <g id="v1.0" stroke="none" stroke-width="1" fill="none" fill-rule="evenodd">
        <g id="LiveChat-3" transform="translate(-30.000000, -27.000000)" fill="#FFFFFF">
            <g id="icon-expand-menu" transform="translate(42.000000, 35.000000) scale(-1, 1) translate(-42.000000, -35.000000) translate(30.000000, 27.000000)">
                <path d="M0.749982466,1.9843299 L23.2500175,1.9843299 C23.6640353,1.9843299 24,1.53979381 24,0.992164948 C24,0.444453608 23.6639729,0 23.2500175,0 L0.749982466,0 C0.335964714,0 0,0.444536082 0,0.992164948 C0,1.53979381 0.336027057,1.9843299 0.749982466,1.9843299 Z" id="Path" fill-rule="nonzero"></path>
                <path d="M23.2500175,13.9381443 L0.749982466,13.9381443 C0.335964714,13.9381443 0,14.3826804 0,14.9303093 C0,15.4779381 0.336027057,15.9224742 0.749982466,15.9224742 L23.2500175,15.9224742 C23.6640353,15.9224742 24,15.4779381 24,14.9303093 C24,14.3826804 23.6640353,13.9381443 23.2500175,13.9381443 Z" id="Path" fill-rule="nonzero"></path>
                <path d="M23.3181973,7 L9.68180272,7 C9.30542268,7 9,7.44453608 9,7.99216495 C9,8.53987629 9.30547936,8.9843299 9.68180272,8.9843299 L23.3181973,8.9843299 C23.6945773,8.9843299 24,8.53979381 24,7.99216495 C24.0000567,7.44445361 23.6945773,7 23.3181973,7 Z" id="Path" fill-rule="nonzero"></path>
                <polygon id="Triangle-Copy-2" transform="translate(2.474227, 8.000000) rotate(-90.000000) translate(-2.474227, -8.000000) " points="2.4742268 5.5257732 5.44329897 10.4742268 -0.494845361 10.4742268"></polygon>
            </g>
        </g>
    </g>
</svg>
