<?xml version="1.0" encoding="UTF-8"?>
<svg width="16px" height="15px" viewBox="0 0 16 15" version="1.1" xmlns="http://www.w3.org/2000/svg" xmlns:xlink="http://www.w3.org/1999/xlink">
    <!-- Generator: sketchtool 53.2 (72643) - https://sketchapp.com -->
    <title>5A384594-1E20-4A3C-87D8-559F4E25D67D</title>
    <desc>Created with sketchtool.</desc>
    <defs>
        <polygon id="path-1" points="0.0254769231 0.0428 1.94976262 0.0428 1.94976262 2.9792 0.0254769231 2.9792"></polygon>
    </defs>
    <g id="v2.0" stroke="none" stroke-width="1" fill="none" fill-rule="evenodd">
        <g id="R-Home-1" transform="translate(-818.000000, -344.000000)">
            <g id="icon-ToConfirm-Reservations" transform="translate(818.000000, 344.000000)">
                <g id="Group-3" transform="translate(2.500000, 0.000000)">
                    <g id="Fill-1-Clipped">
                        <mask id="mask-2" fill="white">
                            <use xlink:href="#path-1"></use>
                        </mask>
                        <g id="path-1"></g>
                        <path d="M1.92425641,2.04115 L1.92425641,0.988100002 C1.92835898,0.47 1.5008718,0.0468 0.969538464,0.0428 C0.438153846,0.03885 0.00410256413,0.45565 4.10782519e-15,0.973700002 L4.10782519e-15,0.988100002 L4.10782519e-15,2.04115 C0.0006153846,2.559 0.431076923,2.9786 0.962153844,2.9792 C1.49328205,2.9786 1.92369231,2.559 1.92425641,2.04115 Z" id="Fill-1" fill="#556CE7" fill-rule="nonzero" mask="url(#mask-2)"></path>
                    </g>
                </g>
                <path d="M13.4999711,2.04159274 L13.4999711,0.965689785 C13.5041285,0.436346145 13.0598207,0.00401308273 12.5075275,2.8445976e-05 C11.9552875,-0.00400727552 11.5041574,0.42188907 11.5,0.95123271 L11.5,0.965689785 L11.5,2.04159274 C11.5006396,2.57068096 11.9479854,2.99943806 12.5000122,3 C13.0519857,2.99938698 13.4993847,2.57068096 13.4999711,2.04159274 Z" id="Fill-4" fill="#556CE7" fill-rule="nonzero"></path>
                <path d="M14.09287,2 C14.0200721,2.85032087 13.2919102,3.47881276 12.4663485,3.40387882 C11.7417142,3.33805209 11.167257,2.74636655 11.1033928,2 L4.89669884,2 C4.82390097,2.85032087 4.09569323,3.47885995 3.27013151,3.40392601 C2.54549724,3.33809928 1.97099424,2.74641374 1.90713003,2 L1.23366959,2 C0.552649889,2.00084938 0.000778831812,2.56927142 0,3.27071537 L0,6 L16,6 L16,3.27090411 C15.9993586,2.5693658 15.4474417,2.00080219 14.7663304,2 L14.09287,2 Z" id="Fill-6" fill="#556CE7" fill-rule="nonzero"></path>
                <path d="M11.3912378,9.74147273 L8.09093053,13.061117 C7.98416585,13.1685205 7.84708447,13.2221857 7.71007399,13.2222222 C7.5729926,13.2222222 7.43601757,13.1685205 7.32921748,13.061117 L5.49737599,11.2184898 C5.28232202,11.0021119 5.27817341,10.6458539 5.4881214,10.424252 C5.69803395,10.2025771 6.04392867,10.1981932 6.25908903,10.414498 L7.71010944,11.8740894 L10.6294539,8.9376271 C10.7336301,8.83278085 10.8712079,8.77509714 11.0168347,8.77787356 C11.1624615,8.77962709 11.2986919,8.83975842 11.4004215,8.94712537 C11.5021511,9.05445578 11.5572531,9.19623569 11.5555157,9.34627177 C11.5537782,9.49630785 11.495414,9.63662648 11.3912378,9.74147273 L11.3912378,9.74147273 Z M0,7 L0,14.0405159 C0.000778838495,14.570158 0.552654635,14.9993943 1.23368018,15 L14.766274,15 C15.4472995,14.9993943 15.9991753,14.570158 16,14.0405159 L16,7 L0,7 Z" id="Fill-8" fill="#556CE7" fill-rule="nonzero"></path>
            </g>
        </g>
    </g>
</svg>