<?xml version="1.0" encoding="UTF-8"?>
<svg width="100px" height="100px" viewBox="0 0 100 100" version="1.1" xmlns="http://www.w3.org/2000/svg" xmlns:xlink="http://www.w3.org/1999/xlink">
    <!-- Generator: Sketch 53.2 (72643) - https://sketchapp.com -->
    <title>icon-emptycampaign</title>
    <desc>Created with Sketch.</desc>
    <g id="Communications-v.1" stroke="none" stroke-width="1" fill="none" fill-rule="evenodd">
        <g id="Communication-4" transform="translate(-716.000000, -396.000000)">
            <g id="Group-8" transform="translate(300.000000, 154.000000)">
                <g id="Group-9" transform="translate(373.000000, 242.000000)">
                    <g id="icon-emptycampaign" transform="translate(43.000000, 0.000000)">
                        <circle id="Oval-Copy-2" fill="#F4F5F7" cx="50" cy="50" r="50"></circle>
                        <g id="email" transform="translate(25.000000, 25.000000)" fill="#DADADA" fill-rule="nonzero" stroke="#DADADA" stroke-width="0.5">
                            <path d="M49.6975,25.1983333 L49.7016667,25.1941667 L45,21.2608333 L45,7.5 C45,6.11928813 43.8807119,5 42.5,5 L42.5,6.66666667 C42.9602373,6.66666667 43.3333333,7.03976271 43.3333333,7.5 L43.3333333,28.6591667 L25,40.6708333 L6.66666667,28.6591667 L6.66666667,7.5 C6.66666667,7.03976271 7.03976271,6.66666667 7.5,6.66666667 L17.5,6.66666667 L17.5,5 L7.5,5 C6.11928813,5 5,6.11928813 5,7.5 L5,21.2608333 L0.298333333,25.1941667 L0.298333333,25.1983333 C0.110290944,25.355786 0.00115612945,25.5880785 0,25.8333333 L0,45.8333333 C0.00275509695,48.1333776 1.86662237,49.9972449 4.16666667,50 L45.8333333,50 C48.1333776,49.9972449 49.9972449,48.1333776 50,45.8333333 L50,25.8333333 C49.997812,25.5873985 49.8870978,25.3549903 49.6975,25.1983333 Z M45,23.4341667 L47.7708333,25.75 L45,27.5675 L45,23.4341667 Z M5,27.5675 L2.22916667,25.75 L5,23.4341667 L5,27.5675 Z M48.3333333,45.8333333 C48.3333333,47.2140452 47.2140452,48.3333333 45.8333333,48.3333333 L4.16666667,48.3333333 C2.78595479,48.3333333 1.66666667,47.2140452 1.66666667,45.8333333 L1.66666667,27.3758333 L24.5433333,42.3633333 C24.8214437,42.5464837 25.1818896,42.5464837 25.46,42.3633333 L48.3333333,27.3758333 L48.3333333,45.8333333 Z" id="Shape"></path>
                            <path d="M10.5366667,17.225 C9.07705173,18.067593 8.26877321,19.7065104 8.48876816,21.3774506 C8.70876312,23.0483907 9.91370189,24.4222492 11.5416667,24.8583333 C11.8949855,24.9531323 12.2591846,25.0013186 12.625,25.0016667 C13.3544486,25.0010568 14.0708081,24.8078812 14.7016667,24.4416667 L17.3775,22.8966667 L28.025,33.8408333 C29.0048393,34.8112417 30.583494,34.8112417 31.5633333,33.8408333 L32.48,32.9241667 C33.005526,32.4032213 33.2718389,31.6753495 33.2066023,30.9382566 C33.1413657,30.2011638 32.751353,29.5313802 32.1425,29.1108333 L27.1366667,25.3191667 C26.6806121,25.0148886 26.2894511,24.6231611 25.9858333,24.1666667 L24.4366667,21.8483333 L35.0591667,20.3183333 C35.1640635,20.3033731 35.2650817,20.2682856 35.3566667,20.215 C37.3494507,19.0643734 38.0322056,16.516168 36.8816667,14.5233333 L30.215,2.97666667 C29.0643734,0.983882667 26.516168,0.301127765 24.5233333,1.45166667 C24.4317546,1.5048396 24.3511498,1.57497997 24.2858333,1.65833333 L13.2858333,15.6383333 L10.5366667,17.225 Z M13.87,22.9983333 C13.0959246,23.4449154 12.1424007,23.4446098 11.3686116,22.9975318 C10.5948225,22.5504538 10.1183252,21.7245251 10.1186115,20.8308651 C10.1188979,19.9372051 10.5959245,19.111582 11.37,18.665 L13.5366667,17.415 L16.0366667,21.7483333 L13.87,22.9983333 Z M24.6,25.0933333 C25.0138537,25.7186018 25.5464224,26.25655 26.1675,26.6766667 L31.175,30.4691667 C31.3835431,30.6076461 31.5187853,30.8325399 31.5433333,31.0816667 C31.569326,31.3295177 31.4795416,31.5755023 31.3,31.7483333 L30.3833333,32.665 C30.0601384,32.9899545 29.5351948,32.9929329 29.2083333,32.6716667 L19.3916667,22.5758333 L22.6083333,22.1116667 L24.6,25.0933333 Z M27.2541667,2.645 C27.8956173,2.81540101 28.4421252,3.23556084 28.7716667,3.81166667 L35.4383333,15.3583333 C35.9729472,16.2726704 35.8646397,17.4261624 35.1691667,18.225 L26.155,2.61 C26.5194161,2.5395725 26.8949694,2.55153098 27.2541667,2.645 L27.2541667,2.645 Z M24.8333333,3.65583333 L33.6025,18.8441667 L17.6125,21.1475 L14.8433333,16.3525 L24.8333333,3.65583333 Z" id="Shape"></path>
                            <polygon id="Path" transform="translate(37.155173, 6.665833) rotate(-30.000728) translate(-37.155173, -6.665833) " points="34.6552283 5.83251833 39.6551183 5.83251833 39.6551183 7.49914833 34.6552283 7.49914833"></polygon>
                            <polygon id="Path" transform="translate(34.577757, 2.868050) rotate(-59.999272) translate(-34.577757, -2.868050) " points="32.0778117 2.034735 37.0777017 2.034735 37.0777017 3.701365 32.0778117 3.701365"></polygon>
                            <polygon id="Path" points="36.6583333 9.97 41.6583333 9.97 41.6583333 11.6366667 36.6583333 11.6366667"></polygon>
                        </g>
                        <g id="Group-15-Copy-2" transform="translate(59.000000, 2.000000)">
                            <path d="M23.9754098,5.90163934 C23.1096234,10.6045563 22.407758,11.3063832 17.704918,12.1721311 C22.4077965,13.0379176 23.1096234,13.7397445 23.9754098,18.442623 C24.8411963,13.7397445 25.5430232,13.0379176 30.2459016,12.1721311 C25.5430232,11.3063832 24.8411578,10.6045563 23.9754098,5.90163934" id="Fill-1" fill-opacity="0.4" fill="#556CE7"></path>
                            <path d="M15.4918033,0 C14.8806599,3.31970606 14.3852255,3.81511328 11.0655738,4.42622951 C14.3852527,5.03737288 14.8806599,5.5327801 15.4918033,8.85245902 C16.1029467,5.5327801 16.5983539,5.03737288 19.9180328,4.42622951 C16.5983539,3.81511328 16.1029195,3.31970606 15.4918033,0" id="Fill-1-Copy" fill-opacity="0.8" fill="#556CE7"></path>
                            <path d="M10.3279186,10.3278689 C8.90203888,18.3503067 7.74573981,19.5477932 0,21.024487 C7.74573981,22.5013871 8.90203888,23.6988736 10.3279186,31.7213115 C11.7536988,23.6988736 12.9099979,22.5012839 20.6557377,21.024487 C12.9097987,19.5477932 11.7537984,18.3503067 10.3279186,10.3278689" id="Fill-3" fill="#7587EA"></path>
                        </g>
                    </g>
                </g>
            </g>
        </g>
    </g>
</svg>