<svg id="edit-2" xmlns="http://www.w3.org/2000/svg" width="13.048" height="13.599" viewBox="0 0 13.048 13.599">
  <g id="Group_1076" data-name="Group 1076" transform="translate(0 0)">
    <g id="Group_1075" data-name="Group 1075" transform="translate(0 0)">
      <path id="Path_281" data-name="Path 281" d="M26.343,10.88h.074l3.547-.772a.349.349,0,0,0,.184-.092l6.009-6.009a2.316,2.316,0,0,0,.68-1.654,2.389,2.389,0,0,0-.68-1.672A2.315,2.315,0,0,0,34.5,0a2.26,2.26,0,0,0-1.654.7L26.857,6.708a.331.331,0,0,0-.11.165l-.772,3.547a.4.4,0,0,0,.11.349A.368.368,0,0,0,26.343,10.88ZM34.5.736a1.6,1.6,0,0,1,1.6,1.6q0,.009,0,.018a1.544,1.544,0,0,1-.459,1.121L33.381,1.2A1.58,1.58,0,0,1,34.5.736Zm-1.636.992,2.26,2.26L29.889,9.207l-2.26-2.242ZM27.335,7.7,29.154,9.52l-2.334.515Z" transform="translate(-25.332 0)" fill="#fff"/>
      <path id="Path_282" data-name="Path 282" d="M20.518,365.717H8.206a.368.368,0,1,0,0,.735H20.518a.368.368,0,1,0,0-.735Z" transform="translate(-7.838 -352.853)" fill="#fff"/>
    </g>
  </g>
</svg>
