<svg width="21" height="21" viewBox="0 0 21 21" fill="none" xmlns="http://www.w3.org/2000/svg">
<g clip-path="url(#clip0)">
<path d="M18.6699 2.32718C18.3699 2.02292 17.8814 2.0272 17.5771 2.32718L14.8345 5.06985C11.4361 3.5271 7.81066 3.90421 4.35233 6.16263C1.7768 7.84251 0.212618 9.95522 0.148337 10.0452C-0.0573628 10.3281 -0.0487919 10.7137 0.169764 10.988C1.63538 12.7879 3.16956 14.1892 4.73802 15.1663L2.32533 17.579C2.02535 17.879 2.02535 18.3675 2.32533 18.6718C2.47532 18.8218 2.67245 18.8989 2.86958 18.8989C3.06671 18.8989 3.26384 18.8218 3.41382 18.6718L18.6699 3.41996C18.9699 3.11998 18.9699 2.63144 18.6699 2.32718ZM8.59061 11.3137C8.47919 11.0609 8.42348 10.7866 8.42348 10.4995C8.42348 9.94665 8.63775 9.42383 9.03201 9.02957C9.64911 8.41247 10.5619 8.26677 11.3161 8.58817L8.59061 11.3137ZM12.4561 7.45254C11.0547 6.5526 9.16485 6.71545 7.94351 7.93679C7.25784 8.62246 6.88501 9.53097 6.88501 10.4952C6.88501 11.198 7.08643 11.8708 7.45926 12.4493L5.86937 14.0392C4.47661 13.2336 3.10527 12.0422 1.77251 10.4866C2.34247 9.81809 3.54667 8.52818 5.19656 7.45254C8.05065 5.59267 10.8919 5.18984 13.6603 6.24834L12.4561 7.45254Z" fill="#9EA0A5"/>
<path d="M20.83 10.0112C19.7715 8.7084 18.6745 7.61133 17.5603 6.74139C17.2217 6.47998 16.7375 6.53998 16.4718 6.87424C16.2103 7.2085 16.2703 7.69276 16.6046 7.95845C17.4874 8.6484 18.3702 9.50549 19.2273 10.5083C18.7216 11.0997 17.736 12.1624 16.3989 13.1352C13.8234 15.008 11.2221 15.6851 8.6723 15.1451C8.25661 15.0551 7.84521 15.3251 7.75951 15.7408C7.66951 16.1564 7.93949 16.5678 8.35518 16.6536C9.01942 16.795 9.68794 16.8635 10.3608 16.8635C11.3721 16.8635 12.392 16.705 13.4077 16.3879C14.7405 15.9722 16.0646 15.2865 17.346 14.3523C19.5058 12.771 20.7957 11.0268 20.8515 10.954C21.0572 10.6711 21.0486 10.2854 20.83 10.0112Z" fill="#9EA0A5"/>
</g>
<defs>
<clipPath id="clip0">
<rect width="21" height="21" fill="white"/>
</clipPath>
</defs>
</svg>
