<svg xmlns="http://www.w3.org/2000/svg" width="17.269" height="17.999" viewBox="0 0 17.269 17.999">
  <g id="edit" transform="translate(-7.838 0)">
    <g id="Group_1971" data-name="Group 1971" transform="translate(7.838 0)">
      <g id="Group_1970" data-name="Group 1970" transform="translate(0 0)">
        <path id="Path_4881" data-name="Path 4881" d="M26.463,14.4h.1l4.694-1.022a.462.462,0,0,0,.243-.122L39.452,5.3a3.065,3.065,0,0,0,.9-2.189A3.162,3.162,0,0,0,39.452.9,3.065,3.065,0,0,0,37.263,0a2.992,2.992,0,0,0-2.189.924L27.144,8.878A.438.438,0,0,0,27,9.1l-1.022,4.694a.535.535,0,0,0,.146.462A.486.486,0,0,0,26.463,14.4ZM37.263.974a2.116,2.116,0,0,1,2.116,2.116q0,.012,0,.024A2.043,2.043,0,0,1,38.771,4.6L35.779,1.582A2.092,2.092,0,0,1,37.263.974ZM35.1,2.287,38.09,5.279l-6.932,6.908L28.166,9.219Zm-7.321,7.9L30.185,12.6l-3.089.681Z" transform="translate(-25.125 0)" fill="#3f51b5"/>
        <path id="Path_4882" data-name="Path 4882" d="M24.621,365.717H8.324a.486.486,0,0,0,0,.973h16.3a.486.486,0,0,0,0-.973Z" transform="translate(-7.838 -348.691)" fill="#3f51b5"/>
      </g>
    </g>
  </g>
</svg>
