<?xml version="1.0" encoding="UTF-8"?>
<svg width="18px" height="18px" viewBox="0 0 18 18" version="1.1" xmlns="http://www.w3.org/2000/svg">
    <!-- Generator: sketchtool 53.2 (72643) - https://sketchapp.com -->
    <title>019957B8-761D-4471-A730-60EE74E55569</title>
    <desc>Created with sketchtool.</desc>
    <g id="ProductDetails-Deposit" stroke="none" stroke-width="1" fill="none" fill-rule="evenodd" opacity="0.5">
        <g id="ProductDetails-Deposit-2" transform="translate(-717.000000, -1673.000000)" fill="#556CE7" fill-rule="nonzero">
            <g id="Group-13" transform="translate(552.000000, 1661.000000)">
                <g id="icon-add-deposit" transform="translate(165.000000, 12.000000)">
                    <path d="M8.99992709,12.1432031 C8.28549174,12.1423096 7.70653793,11.5294379 7.70569393,10.7731475 L6.00006245,10.7731475 C6.00207233,12.1782261 6.87494517,13.4153586 8.14711136,13.8161839 L8.14711136,15 L9.85274283,15 L9.85274283,13.8408694 C11.1088084,13.5707371 12.0085703,12.3972582 11.9999384,11.0404744 C11.9999384,9.40066889 10.6442616,8.514105 9.4481534,7.73193472 C8.55201462,7.14618722 7.70571099,6.59288194 7.70571099,5.95987944 C7.70571099,5.1459675 8.40297313,4.85715083 8.99994415,4.85715083 C9.71442103,4.85797856 10.2934498,5.47085048 10.294324,6.22718472 L11.9999555,6.22718472 C11.9978903,4.82207501 11.1249517,3.58495264 9.85274283,3.18417 L9.85274283,2 L8.14711136,2 L8.14711136,3.15948444 C6.89107834,3.42963621 5.99136955,4.60312601 6.00006245,5.95987944 C6.00006245,7.599685 7.3557427,8.48624528 8.55184747,9.26841917 C9.44798625,9.85416667 10.2942899,10.4074719 10.2942899,11.0404744 C10.2943069,11.8543828 9.59706526,12.1432031 8.99992709,12.1432031 Z" id="Path"></path>
                    <path d="M8.99982601,18 C12.9694092,18.0000332 16.4701724,15.3990086 17.6161357,11.5981864 C18.7620989,7.7973642 17.282566,3.69456367 13.9746116,1.50010278 C10.6666572,-0.694358112 6.31167673,-0.462110154 3.25584604,2.07172679 C0.200015343,4.60556373 -0.834826068,8.84245402 0.708826016,12.499841 C2.11787669,15.8314537 5.38269905,17.9973013 8.99982601,18 Z M1.44043471,9.00013578 C1.42709826,5.01454267 4.50039247,1.69843703 8.47526145,1.40950924 C12.4501304,1.12058146 15.9706133,3.95739445 16.5337113,7.90302615 C17.0968093,11.8486578 14.5104308,15.5571212 10.6134436,16.3917668 C6.71645634,17.2264124 2.83825307,14.9025145 1.73616529,11.0723221 C1.5420921,10.3986258 1.44256359,9.70122884 1.44043471,9.00013578 Z" id="Shape"></path>
                </g>
            </g>
        </g>
    </g>
</svg>
