<?xml version="1.0" encoding="UTF-8"?>
<svg width="12px" height="16px" viewBox="0 0 12 16" version="1.1" xmlns="http://www.w3.org/2000/svg">
    <!-- Generator: Sketch 53.2 (72643) - https://sketchapp.com -->
    <title>icon-sf-shoppingcart</title>
    <desc>Created with Sketch.</desc>
    <g id="ShoppingCart-Wholesale" stroke="none" stroke-width="1" fill="none" fill-rule="evenodd">
        <g id="SF-ShoppingCart-Wholesale" transform="translate(-819.000000, -600.000000)" fill="#9EA0A5" fill-rule="nonzero">
            <g id="icon-sf-shoppingcart" transform="translate(819.000000, 600.000000)">
                <path d="M10.9957275,4.39880372 L6.66003419,2.11279297 C6.42724609,1.98999025 6.138916,2.07922362 6.01623534,2.31201172 C5.89355469,2.54479981 5.982666,2.83300781 6.21545409,2.95581056 L8.89599609,4.36901856 L1.73449706,4.36901856 L5.40673828,0.819091812 C5.59594725,0.636230469 5.60107422,0.334472656 5.41809081,0.145263687 C5.2352295,-0.04382325 4.93359375,-0.04907225 4.74426269,0.133911125 C4.74426269,0.133911125 0.200439438,4.53027344 0.185180656,4.55090331 C0.0708007812,4.66430663 0,4.82141113 0,4.99511719 L0,15.3739014 C0,15.7197266 0.280273438,16 0.626098625,16 L10.8052978,16 C11.1511231,16 11.4313965,15.7197266 11.4313965,15.3739014 L11.4313965,4.99511719 C11.4313965,4.71582031 11.2484131,4.47937012 10.9957275,4.39880372 L10.9957275,4.39880372 Z M8.22802734,11.0234375 C8.22802734,11.7249756 7.6571045,12.2956543 6.95544434,12.2956543 L6.19213869,12.2956543 L6.19213869,12.4312744 C6.19213869,12.694458 5.97888184,12.9078369 5.71569825,12.9078369 C5.45251466,12.9078369 5.23913575,12.694458 5.23913575,12.4312744 L5.23913575,12.2956543 L4.02526856,12.2956543 C3.76208497,12.2956543 3.54870606,12.0822754 3.54870606,11.8192139 C3.54870606,11.5560303 3.76208497,11.3426514 4.02526856,11.3426514 L5.23913575,11.3426514 L5.23913575,10.6177978 L4.47595216,10.6177978 C3.774292,10.6177978 3.20349122,10.0471191 3.20349122,9.34558106 C3.20349122,8.64416503 3.774292,8.07336425 4.47595216,8.07336425 L5.23913575,8.07336425 L5.23913575,7.93774413 C5.23913575,7.67468262 5.45251466,7.46130372 5.71569825,7.46130372 C5.97888184,7.46130372 6.19213869,7.67468262 6.19213869,7.93774413 L6.19213869,8.07336425 L7.40612794,8.07336425 C7.66931153,8.07336425 7.88269044,8.28674316 7.88269044,8.54992675 C7.88269044,8.81311034 7.66931153,9.02636719 7.40612794,9.02636719 L6.19213869,9.02636719 L6.19213869,9.66479494 L6.95544434,9.66479494 C7.6571045,9.66479494 8.22802734,10.2354736 8.22802734,10.9370117 L8.22802734,11.0234375 Z" id="Shape"></path>
                <path d="M6.95544434,10.6177978 L6.19213869,10.6177978 L6.19213869,11.3426514 L6.95544434,11.3426514 C7.13159181,11.3426514 7.27490234,11.1994629 7.27490234,11.0234375 L7.27490234,10.9370117 C7.27490234,10.7609863 7.13159181,10.6177978 6.95544434,10.6177978 L6.95544434,10.6177978 Z" id="Path"></path>
                <path d="M4.15649413,9.34558106 C4.15649413,9.52160644 4.29980469,9.66479494 4.47595216,9.66479494 L5.23913575,9.66479494 L5.23913575,9.02648925 L4.47595216,9.02648925 C4.29980469,9.02648925 4.15649413,9.16967775 4.15649413,9.34558106 Z" id="Path"></path>
            </g>
        </g>
    </g>
</svg>
