<svg width="20" height="18" viewBox="0 0 20 18" fill="none" xmlns="http://www.w3.org/2000/svg">
<path d="M19.125 5.6875C19.125 6.96385 18.618 8.18793 17.7155 9.09045C16.8129 9.99297 15.5889 10.5 14.3125 10.5C13.0361 10.5 11.8121 9.99297 10.9095 9.09045C10.007 8.18793 9.5 6.96385 9.5 5.6875C9.5 4.41115 10.007 3.18707 10.9095 2.28455C11.8121 1.38203 13.0361 0.875 14.3125 0.875C15.5889 0.875 16.8129 1.38203 17.7155 2.28455C18.618 3.18707 19.125 4.41115 19.125 5.6875ZM14.3125 2.625C14.1965 2.625 14.0852 2.67109 14.0031 2.75314C13.9211 2.83519 13.875 2.94647 13.875 3.0625V6.5625C13.875 6.67853 13.9211 6.78981 14.0031 6.87186C14.0852 6.95391 14.1965 7 14.3125 7C14.4285 7 14.5398 6.95391 14.6219 6.87186C14.7039 6.78981 14.75 6.67853 14.75 6.5625V3.0625C14.75 2.94647 14.7039 2.83519 14.6219 2.75314C14.5398 2.67109 14.4285 2.625 14.3125 2.625ZM14.3125 8.85938C14.3843 8.85938 14.4554 8.84523 14.5218 8.81775C14.5881 8.79026 14.6484 8.74998 14.6992 8.6992C14.75 8.64842 14.7903 8.58813 14.8177 8.52178C14.8452 8.45543 14.8594 8.38432 14.8594 8.3125C14.8594 8.24068 14.8452 8.16957 14.8177 8.10322C14.7903 8.03687 14.75 7.97658 14.6992 7.9258C14.6484 7.87502 14.5881 7.83474 14.5218 7.80725C14.4554 7.77977 14.3843 7.76562 14.3125 7.76562C14.1675 7.76562 14.0284 7.82324 13.9258 7.9258C13.8232 8.02836 13.7656 8.16746 13.7656 8.3125C13.7656 8.45754 13.8232 8.59664 13.9258 8.6992C14.0284 8.80176 14.1675 8.85938 14.3125 8.85938ZM16.9375 14.6562V10.7345C17.4176 10.484 17.8595 10.1664 18.25 9.79125V14.6562C18.25 15.3826 17.9721 16.0815 17.4733 16.6095C16.9744 17.1374 16.2925 17.4545 15.5673 17.4956L15.4062 17.5H3.59375C2.86738 17.5 2.16852 17.2221 1.64055 16.7233C1.11257 16.2244 0.795499 15.5425 0.754375 14.8173L0.75 14.6562V6.34375C0.749952 5.61738 1.02786 4.91853 1.52671 4.39055C2.02557 3.86257 2.70754 3.5455 3.43275 3.50437L3.59375 3.5H9.06075C8.88509 3.92097 8.7611 4.36169 8.6915 4.8125H3.59375C3.20946 4.81251 2.83922 4.95702 2.55653 5.21734C2.27384 5.47766 2.09937 5.83476 2.06775 6.21775L2.0625 6.34375V6.71912L9.5 10.633L10.6419 10.0319C11.026 10.3565 11.453 10.6313 11.9141 10.8456L9.80538 11.956C9.72491 11.9983 9.63653 12.0234 9.54586 12.0297C9.45518 12.036 9.36418 12.0234 9.27862 11.9928L9.19462 11.956L2.0625 8.20225V14.6562C2.06251 15.0405 2.20702 15.4108 2.46734 15.6935C2.72767 15.9762 3.08476 16.1506 3.46775 16.1822L3.59375 16.1875H15.4062C15.7907 16.1875 16.161 16.0428 16.4437 15.7823C16.7265 15.5218 16.9008 15.1645 16.9322 14.7814L16.9375 14.6562Z" fill="#DB1B1B"/>
</svg>
