<?xml version="1.0" encoding="UTF-8"?>
<svg width="16px" height="16px" viewBox="0 0 16 16" version="1.1" xmlns="http://www.w3.org/2000/svg" xmlns:xlink="http://www.w3.org/1999/xlink">
    <!-- Generator: sketchtool 53.2 (72643) - https://sketchapp.com -->
    <title>EF524D7A-DBBD-4B89-97B2-7C17161E1D05</title>
    <desc>Created with sketchtool.</desc>
    <defs>
        <path d="M10.6666667,10.6666667 L10.6666667,4 L13.3333333,4 L13.3333333,10.6666667 L20,10.6666667 L20,13.3333333 L13.3333333,13.3333333 L13.3333333,20 L10.6666667,20 L10.6666667,13.3333333 L4,13.3333333 L4,10.6666667 L10.6666667,10.6666667 Z" id="path-1"></path>
        <path d="M9.94285714,12 L4.8,6.85714286 L6.85714286,4.8 L12,9.94285714 L17.1428571,4.8 L19.2,6.85714286 L14.0571429,12 L19.2,17.1428571 L17.1428571,19.2 L12,14.0571429 L6.85714286,19.2 L4.8,17.1428571 L9.94285714,12 Z" id="path-3"></path>
    </defs>
    <g id="v1.0" stroke="none" stroke-width="1" fill="none" fill-rule="evenodd">
        <g id="LiveChat-6.1-v1.0" transform="translate(-1240.000000, -101.000000)">
            <g id="Group-27" transform="translate(905.000000, 70.000000)">
                <g id="icon-close" transform="translate(331.000000, 27.000000)">
                    <g id="Icon/Other/Close-Button">
                        <mask id="mask-2" fill="white">
                            <use xlink:href="#path-1"></use>
                        </mask>
                        <use id="Close-Button" fill-opacity="0" fill="#FFFFFF" transform="translate(12.000000, 12.000000) rotate(-315.000000) translate(-12.000000, -12.000000) " xlink:href="#path-1"></use>
                    </g>
                    <rect id="Rectangle" fill-opacity="0" fill="#FFFFFF" x="0" y="0" width="24" height="24"></rect>
                    <mask id="mask-4" fill="white">
                        <use xlink:href="#path-3"></use>
                    </mask>
                    <use id="Close-Button" fill="#9EA0A5" xlink:href="#path-3"></use>
                </g>
            </g>
        </g>
    </g>
</svg>