<?xml version="1.0" encoding="UTF-8"?>
<svg width="21px" height="22px" viewBox="0 0 21 22" version="1.1" xmlns="http://www.w3.org/2000/svg">
    <!-- Generator: sketchtool 53.2 (72643) - https://sketchapp.com -->
    <title>EC3846A6-1FA8-4AFD-B8CA-B93B1CC5399B</title>
    <desc>Created with sketchtool.</desc>
    <g id="Discounts-Wholesale" stroke="none" stroke-width="1" fill="none" fill-rule="evenodd">
        <g id="Wholesale-1-2" transform="translate(-29.000000, -285.000000)" fill="#9EA0A5" stroke="#9EA0A5" stroke-width="0.4">
            <g id="Group-22" transform="translate(0.000000, 70.000000)">
                <g id="icon-discount(left-menu)" transform="translate(30.000000, 216.000000)">
                    <path d="M6.6397745,17.2954209 C7.051615,17.2954209 7.44272977,17.4560553 7.74091299,17.7473752 L8.97108594,18.9480491 C9.11449468,19.0882638 9.30236349,19.1651777 9.49992659,19.1651777 C9.69748969,19.1651777 9.8850242,19.0882638 10.028433,18.9483894 L11.2586059,17.7473752 C11.5567891,17.4560553 11.9479039,17.2954209 12.3600787,17.2954209 C12.4349588,17.2954209 12.511176,17.3008661 12.587059,17.3117566 L14.2815553,17.5537291 C14.3179925,17.558834 14.3540954,17.5612163 14.389864,17.5612163 C14.7592502,17.5612163 15.0734792,17.2933789 15.1373278,16.9244644 L15.433171,15.2228291 C15.5187483,14.7324179 15.8176001,14.3175592 16.2531749,14.0840948 L17.7648168,13.2744568 C18.1305258,13.0787687 18.2742688,12.6312386 18.0920829,12.2551772 L17.3406077,10.7036262 C17.1243245,10.2564364 17.1243245,9.74356356 17.3406077,9.29671414 L18.0920829,7.74482277 C18.2742688,7.36910171 18.1305258,6.92157163 17.7648168,6.72554325 L16.2528406,5.91590518 C15.8176001,5.68244083 15.518414,5.26724182 15.433171,4.77683053 L15.1373278,3.07553559 C15.0734792,2.70662106 14.7592502,2.43878367 14.3895297,2.43878367 C14.3537611,2.43878367 14.3176582,2.44150629 14.281221,2.44661119 L12.587059,2.68858373 C12.5108417,2.69913387 12.4349588,2.7045791 12.3600787,2.7045791 C11.9479039,2.7045791 11.5567891,2.54428506 11.2589402,2.2529651 L10.028433,1.05195092 C9.8850242,0.911736178 9.69748969,0.834822264 9.49992659,0.834822264 C9.3020292,0.834822264 9.1141604,0.911736178 8.97108594,1.05195092 L7.74091299,2.2529651 C7.44272977,2.54428506 7.05128072,2.7045791 6.63944021,2.7045791 C6.56422583,2.7045791 6.48867717,2.69913387 6.41279422,2.68858373 L4.71829784,2.44661119 C4.68186066,2.44150629 4.64575776,2.43878367 4.60998914,2.43878367 C4.24060297,2.43878367 3.92603973,2.70662106 3.86219108,3.07553559 L3.56634786,4.77717086 C3.48110489,5.26724182 3.1822531,5.68244083 2.74634399,5.91590518 L1.23470213,6.72554325 C0.869327393,6.92157163 0.725584359,7.36910171 0.907436012,7.74482277 L1.65891122,9.29671414 C1.87552863,9.74390389 1.87552863,10.2564364 1.65891122,10.7036262 L0.907436012,12.2551772 C0.725584359,12.6308983 0.869327393,13.0784284 1.23470213,13.2744568 L2.74634399,14.0837545 C3.1822531,14.3175592 3.48110489,14.7327582 3.56668214,15.2228291 L3.86219108,16.9244644 C3.92603973,17.2933789 4.24093726,17.5612163 4.61032343,17.5612163 C4.64609204,17.5612163 4.68219494,17.558834 4.71829784,17.5537291 L6.41279422,17.3117566 C6.48867717,17.3008661 6.56456012,17.2954209 6.6397745,17.2954209 M9.49992659,20 C9.08708322,20 8.69429702,19.8390253 8.39444237,19.5456634 L7.16460371,18.3449895 C7.02186354,18.2054554 6.83466331,18.1285415 6.63743449,18.1285415 C6.60133159,18.1285415 6.56522869,18.1309238 6.52912579,18.1363691 L4.8349637,18.3783416 C4.75807789,18.3892321 4.68186066,18.394337 4.60631199,18.394337 C3.83645105,18.394337 3.18024738,17.8365409 3.04653293,17.0680824 L2.75102399,15.3664472 C2.71024109,15.1309408 2.56683234,14.9315092 2.35756922,14.8195416 L0.845593078,14.0099035 C0.0850921422,13.6018514 -0.214762513,12.6713972 0.16298081,11.890687 L0.914790306,10.3387956 C1.01875329,10.1237089 1.01875329,9.87663144 0.914790306,9.66154474 L0.16298081,8.10965338 C-0.214762513,7.32860279 0.0850921422,6.39780829 0.845927364,5.99043681 L2.35756922,5.18079875 C2.56649805,5.06883115 2.71024109,4.86939949 2.75102399,4.63355284 L3.04653293,2.9322579 C3.18024738,2.16345908 3.83611676,1.60566304 4.60631199,1.60566304 C4.68152637,1.60566304 4.75807789,1.61110828 4.8349637,1.62199874 L6.52912579,1.86397128 C6.56522869,1.86907618 6.60133159,1.87145847 6.63676592,1.87145847 C6.83432902,1.87145847 7.02186354,1.79488488 7.16460371,1.65535079 L8.39444237,0.454336617 C8.69429702,0.161315024 9.08674894,0 9.49992659,0 C9.91310424,0 10.3055562,0.161315024 10.6057451,0.454336617 L11.8352495,1.65501047 C11.9776554,1.79454456 12.1651899,1.87145847 12.362753,1.87145847 C12.3985216,1.87145847 12.4342902,1.86873586 12.4707274,1.86363095 L14.1648895,1.62199874 C14.2421096,1.61110828 14.3179925,1.60566304 14.3935412,1.60566304 C15.1637364,1.60566304 15.8192715,2.16345908 15.9533202,2.9322579 L16.2488292,4.63355284 C16.2899464,4.86939949 16.4330208,5.06883115 16.6422839,5.18079875 L18.1542601,5.99043681 C18.914761,6.39780829 19.2146157,7.32860279 18.8368724,8.10931305 L18.0853972,9.66120442 C17.9807656,9.87663144 17.9807656,10.1233686 18.0853972,10.3391359 L18.8368724,11.8903466 C19.21495,12.6713972 18.914761,13.6021917 18.1542601,14.0099035 L16.6422839,14.8195416 C16.4330208,14.9318495 16.2899464,15.1309408 16.2488292,15.3661068 L15.9533202,17.0680824 C15.8192715,17.8368812 15.1637364,18.394337 14.3942098,18.394337 L14.3938755,18.394337 C14.3183268,18.394337 14.2421096,18.3892321 14.1648895,18.3783416 L12.4707274,18.1363691 C12.4346245,18.1312641 12.3988559,18.1285415 12.3634215,18.1285415 C12.1658584,18.1285415 11.9779896,18.2054554 11.8352495,18.3446492 L10.6057451,19.5460037 C10.3055562,19.8390253 9.91310424,20 9.49992659,20" id="Fill-1"></path>
                    <path d="M5.38959915,14 C5.2851186,14 5.18724676,13.9593602 5.11360686,13.8860182 C5.04028166,13.8123586 5,13.7152042 5,13.6113823 C5,13.5078779 5.04028166,13.4107235 5.11360686,13.3373814 L12.3340939,6.11429932 C12.4077338,6.04063976 12.5056056,6 12.6100861,6 C12.7145667,6 12.8127532,6.04063976 12.8860784,6.11429932 C12.9597183,6.18764139 13,6.28511331 13,6.38830019 C13,6.49212208 12.9597183,6.589594 12.8860784,6.66293606 L5.66559144,13.8857007 C5.59226624,13.9593602 5.4940797,14 5.38959915,14" id="Fill-3"></path>
                    <path d="M7,5.84096572 C6.36227443,5.84096572 5.8433776,6.36094166 5.8433776,6.99982816 C5.8433776,7.63905834 6.36227443,8.15903428 7,8.15903428 C7.63772557,8.15903428 8.1566224,7.63905834 8.1566224,6.99982816 C8.1566224,6.36094166 7.63806605,5.84096572 7,5.84096572 M7,9 C5.89717399,9 5,8.10301572 5,7.00017184 C5,5.89732795 5.89717399,5 7,5 C8.10282601,5 9,5.89732795 9,7.00017184 C9,8.10301572 8.10282601,9 7,9" id="Fill-5"></path>
                    <path d="M12.0001703,11.8409657 C11.3623904,11.8409657 10.8434494,12.3609417 10.8434494,12.9998282 C10.8434494,13.6390583 11.3623904,14.1590343 12.0001703,14.1590343 C12.6379501,14.1590343 13.1565506,13.6390583 13.1565506,12.9998282 C13.1565506,12.3609417 12.6379501,11.8409657 12.0001703,11.8409657 M12.0001703,15 C10.8972504,15 10,14.1026721 10,12.9998282 C10,11.8969843 10.8972504,11 12.0001703,11 C13.1027496,11 14,11.8969843 14,12.9998282 C14,14.1026721 13.1027496,15 12.0001703,15" id="Fill-7"></path>
                </g>
            </g>
        </g>
    </g>
</svg>
