<?xml version="1.0" encoding="UTF-8"?>
<svg width="15px" height="16px" viewBox="0 0 15 16" version="1.1" xmlns="http://www.w3.org/2000/svg" xmlns:xlink="http://www.w3.org/1999/xlink">
    <!-- Generator: sketchtool 53.2 (72643) - https://sketchapp.com -->
    <title>2F475B84-1578-4A33-B650-64127E4650F3</title>
    <desc>Created with sketchtool.</desc>
    <g id="AutomaticAds" stroke="none" stroke-width="1" fill="none" fill-rule="evenodd">
        <g id="AutomaticAds-2" transform="translate(-850.000000, -165.000000)" fill="#556CE7" fill-rule="nonzero">
            <g id="Group-5" transform="translate(821.000000, 120.000000)">
                <g id="Group-10" transform="translate(0.000000, 17.000000)">
                    <g id="icon-changebudget" transform="translate(29.000000, 28.000000)">
                        <path d="M12.838,6.51125 C12.17775,5.19175 11.0525,4.1415 9.6695,3.554 C9.1135,3.31775 8.53175,3.16675 7.9435,3.094 L7.9435,2.36825 L8.41625,2.36825 C8.72275,2.36825 8.97125,2.11975 8.97125,1.81325 L8.97125,1.521 C8.97125,0.806 8.3915,0.22625 7.6765,0.22625 L6.73125,0.22625 C6.01625,0.22625 5.4365,0.806 5.4365,1.521 L5.4365,1.81325 C5.4365,2.11975 5.685,2.36825 5.9915,2.36825 L6.44375,2.36825 L6.44375,3.0825 C6.082,3.12425 5.7235,3.1975 5.37325,3.30275 L5.37275,3.303 C5.12375,3.37775 4.87725,3.46925 4.63975,3.57475 C3.138,4.24275 2.03525,5.34675 1.36225,6.856 C1.0865,7.474 0.922,8.1045 0.87325,8.73025 C0.8545,8.97 0.9835,9.29375 1.232,9.4205 C1.42225,9.51775 1.6545,9.503 1.8085,9.45675 C1.87125,9.438 1.92875,9.4125 1.98025,9.38075 C2.21425,9.2365 2.2825,8.94775 2.30225,8.78825 C2.544,6.856 3.909,5.2445 5.77975,4.68275 C6.082,4.592 6.39475,4.53075 6.709,4.5005 C8.0265,4.3745 9.312,4.7735 10.32875,5.62425 C11.34925,6.47775 11.97175,7.67875 12.081,9.0055 C12.25725,11.1415 10.96375,13.22675 9.0055,13.9635 C8.87375,14.013 8.741,14.058 8.611,14.097 C7.129,14.542 5.70075,14.3135 4.3655,13.4175 C4.11525,13.24975 3.8885,13.05975 3.67525,12.839 L4.488,12.5905 C4.60375,12.54025 4.676,12.43075 4.6765,12.3045 C4.677,12.17825 4.60575,12.068 4.4905,12.01675 L1.7455,10.798 C1.642,10.752 1.531,10.745 1.4245,10.777 C1.21075,10.84125 1.07175,11.0485 1.09425,11.27 L1.3965,14.25825 C1.40625,14.35325 1.4545,14.43425 1.53275,14.4865 C1.65925,14.571 1.832,14.5605 1.9475,14.4285 L2.48375,13.66625 C2.973,14.20625 3.496,14.62125 4.0805,14.93325 C5.70175,15.79875 7.32475,15.99725 8.904,15.52275 C9.4575,15.3565 10.0105,15.1045 10.54725,14.7735 C11.913,13.9315 12.8955,12.6275 13.314,11.10125 C13.72925,9.5845 13.56025,7.9545 12.838,6.51125 Z" id="Path"></path>
                        <path d="M7.96175,11.89175 C8.57,11.70225 8.91675,11.3195 8.993,10.75425 C9.08125,10.0905 8.866,9.5805 8.3705,9.2795 C8.21025,9.18075 8.0385,9.1005 7.872,9.02275 L7.82825,9.0025 C7.73675,8.961 7.64425,8.9195 7.55225,8.872 C7.48625,8.84225 7.43125,8.81725 7.37625,8.78975 L7.349,8.777 C7.19825,8.70725 7.056,8.6415 6.922,8.55325 C6.73275,8.4315 6.66725,8.16375 6.75925,7.8875 C6.808,7.73825 6.9055,7.58425 7.26075,7.57775 C7.53025,7.57775 7.71225,7.70025 7.7885,7.93225 C7.81025,8.00025 7.8265,8.078 7.841,8.1845 L7.87225,8.34975 L8.97425,8.34975 L8.98075,8.28125 C9.0145,7.99725 8.94,7.65025 8.7915,7.3955 C8.57175,7.02175 8.2285,6.79325 7.711,6.67625 L7.6635,6.6655 L7.6635,5.92625 L6.95775,5.92625 L6.95775,6.63775 L6.7735,6.69525 C6.6105,6.74375 6.4655,6.78675 6.32825,6.85375 C5.88475,7.0755 5.5945,7.514 5.552,8.02675 C5.5125,8.52675 5.7255,8.99425 6.12175,9.2775 C6.32675,9.42575 6.55975,9.53 6.76525,9.622 C6.85725,9.66375 6.952,9.708 7.044,9.75225 C7.111,9.7845 7.178,9.81675 7.245,9.84575 C7.38325,9.9105 7.51025,9.96925 7.62775,10.045 C7.82825,10.17525 7.90575,10.44225 7.82075,10.70975 C7.753,10.927 7.58325,11.0405 7.31625,11.04725 L7.23425,11.05 C7.19025,11.04925 7.152,11.05 7.11525,11.047 C6.79,11.021 6.58275,10.8185 6.54675,10.49175 L6.5105,10.24875 L5.41275,10.24875 L5.40425,10.3215 C5.31925,11.17025 5.793,11.70975 6.852,11.96975 L6.8985,11.98125 L6.8985,12.65175 L7.60725,12.65175 L7.60725,11.96225 L7.71225,11.95275 C7.80075,11.93475 7.88375,11.91775 7.96175,11.89175 Z" id="Path"></path>
                        <path d="M3.10725,3.30775 C2.229,3.89 1.509,4.63775 0.95375,5.54475 C0.7945,5.3855 0.63625,5.22725 0.47725,5.068 C0.392,4.98375 0.2865,4.90325 0.24225,4.7895 C0.17375,4.6165 0.18675,4.41275 0.2145,4.23325 C0.24775,4.01575 0.331,3.8065 0.4495,3.6215 C0.543,3.47525 0.66225,3.328 0.7975,3.192 C1.02425,2.96425 1.29725,2.77 1.575,2.67375 C1.7195,2.62275 1.872,2.59425 2.02575,2.59225 C2.12475,2.5905 2.38575,2.58475 2.46075,2.65975 C2.46025,2.66075 2.911,3.1115 3.10725,3.30775 Z" id="Path"></path>
                        <path d="M14.2585,4.7895 C14.21325,4.90325 14.10775,4.98375 14.0235,5.068 L13.5155,5.576 C13.5145,5.577 13.49875,5.59275 13.49875,5.59275 L13.34425,5.43825 C12.82325,4.62 12.13825,3.915 11.335,3.36525 L12.04025,2.66 C12.11525,2.585 12.37625,2.5905 12.47525,2.5925 C12.628,2.59425 12.78075,2.623 12.926,2.674 C13.20375,2.77025 13.47675,2.9645 13.7035,3.19225 C13.8385,3.32825 13.957,3.4755 14.0515,3.62175 C14.17,3.80675 14.25325,4.016 14.2865,4.2335 C14.313,4.41275 14.327,4.61625 14.2585,4.7895 Z" id="Path"></path>
                    </g>
                </g>
            </g>
        </g>
    </g>
</svg>