<?xml version="1.0" encoding="UTF-8"?>
<svg width="24px" height="24px" viewBox="0 0 24 24" version="1.1" xmlns="http://www.w3.org/2000/svg" xmlns:xlink="http://www.w3.org/1999/xlink">
    <!-- Generator: sketchtool 53.2 (72643) - https://sketchapp.com -->
    <title>1E83DCF9-9371-45F7-BEE8-2E3A47BEADF8</title>
    <desc>Created with sketchtool.</desc>
    <g id="v0" stroke="none" stroke-width="1" fill="none" fill-rule="evenodd">
        <g id="Orders-Empty" transform="translate(-666.000000, -311.000000)" fill="#DCDCDC" fill-rule="nonzero">
            <g id="Group" transform="translate(666.000000, 311.000000)">
                <g id="report-symbol">
                    <path d="M16.8398155,0 L7.02763954,0 L0,7.06666667 L0,17.0666667 L7.02763954,24 L16.9724125,24 L24,16.9333333 L24,7.06666667 L16.8398155,0 Z M11.9337275,19.0666667 C11.0055487,19.0666667 10.2099669,18.2666144 10.2099669,17.3333333 C10.2099669,16.4000523 11.0055487,15.6 11.9337275,15.6 C12.8619063,15.6 13.6574882,16.4000523 13.6574882,17.3333333 C13.6574882,18.2666144 12.8619063,19.0666667 11.9337275,19.0666667 Z M13.2596972,13.3333333 L10.6077578,13.3333333 L10.6077578,5.33333333 L13.2596972,5.33333333 L13.2596972,13.3333333 Z" id="icon-Empty"></path>
                </g>
            </g>
        </g>
    </g>
</svg>