<svg width="16" height="16" viewBox="0 0 16 16" fill="none" xmlns="http://www.w3.org/2000/svg">
<path fill-rule="evenodd" clip-rule="evenodd" d="M0.482304 4.59922C0.482304 3.81847 1.09533 3.16344 1.9418 3.16203C2.78837 3.16053 3.33521 3.16344 3.33521 3.16344C3.33521 3.16344 3.29883 2.32906 3.29883 1.6655C3.29883 1.00175 3.88262 0.337534 4.72965 0.337534C5.57668 0.337534 13.4298 0.313159 14.2262 0.372221C15.0226 0.431284 15.6565 0.93219 15.6565 1.73788C15.6565 2.54356 15.6514 10.5323 15.6514 11.2723C15.6514 12.0121 14.9877 12.6844 14.1647 12.6937C13.3418 12.7031 12.7841 12.6843 12.7841 12.6843C12.7841 12.6843 12.8144 13.619 12.8144 14.1931C12.8144 14.7672 12.1469 15.6009 11.3637 15.6009C10.5805 15.6009 2.63396 15.6517 1.87571 15.6517C1.11746 15.6517 0.41771 14.9846 0.450054 14.1529C0.482397 13.3213 0.482398 5.37978 0.482398 4.59922H0.482304ZM4.80043 1.92856L4.79405 11.1314C4.79405 11.2342 4.87787 11.318 4.98146 11.3174L13.9397 11.2696C13.9895 11.2694 14.0372 11.2494 14.0723 11.2141C14.1075 11.1788 14.1271 11.131 14.1271 11.0812L14.1211 1.96091C14.121 1.91098 14.1011 1.86312 14.0658 1.82784C14.0304 1.79257 13.9825 1.77275 13.9326 1.77275L4.98887 1.74219C4.96422 1.74194 4.93978 1.74658 4.91694 1.75583C4.8941 1.76508 4.87332 1.77877 4.8558 1.7961C4.83828 1.81343 4.82436 1.83406 4.81486 1.85679C4.80536 1.87953 4.80045 1.90392 4.80043 1.92856ZM1.93149 4.98078L2.01737 14.0038C2.01798 14.0536 2.03825 14.101 2.07373 14.1358C2.10921 14.1706 2.15703 14.19 2.20674 14.1897L11.031 14.1226C11.0801 14.1223 11.1287 14.1123 11.174 14.0932C11.2193 14.074 11.2604 14.0461 11.2948 14.011C11.3293 13.976 11.3564 13.9344 11.3747 13.8888C11.3931 13.8432 11.4022 13.7944 11.4016 13.7452L11.3887 12.7011C11.3887 12.7011 5.49399 12.7553 4.7274 12.7553C3.9608 12.7553 3.28008 12.0297 3.28008 11.2131C3.28008 10.3965 3.33521 4.77247 3.33521 4.77247C3.33615 4.66935 3.25327 4.58591 3.14996 4.58731L2.30368 4.5995C2.20381 4.60086 2.10856 4.64176 2.03879 4.71323C1.96903 4.7847 1.93044 4.88091 1.93149 4.98078Z" fill="#A1A3A8"/>
</svg>
