<?xml version="1.0" encoding="UTF-8"?>
<svg width="100px" height="100px" viewBox="0 0 100 100" version="1.1" xmlns="http://www.w3.org/2000/svg" xmlns:xlink="http://www.w3.org/1999/xlink">
    <!-- Generator: sketchtool 53.2 (72643) - https://sketchapp.com -->
    <title>FACDF63E-78BB-4A75-B53A-079F3611EE26</title>
    <desc>Created with sketchtool.</desc>
    <g id="Discounts-NEW" stroke="none" stroke-width="1" fill="none" fill-rule="evenodd">
        <g id="Discount-1" transform="translate(-716.000000, -398.000000)">
            <g id="icon-emptydiscount" transform="translate(716.000000, 398.000000)">
                <circle id="Oval-Copy-2" fill="#F4F5F7" cx="50" cy="50" r="50"></circle>
                <g id="Group-9" transform="translate(21.000000, 20.000000)" fill="#DADADA">
                    <path d="M20.3635,51.32 C21.5955,51.32 22.7655,51.792 23.6575,52.648 L27.3375,56.176 C27.7665,56.588 28.3285,56.814 28.9195,56.814 C29.5105,56.814 30.0715,56.588 30.5005,56.177 L34.1805,52.648 C35.0725,51.792 36.2425,51.32 37.4755,51.32 C37.6995,51.32 37.9275,51.336 38.1545,51.368 L43.2235,52.079 C43.3325,52.094 43.4405,52.101 43.5475,52.101 C44.6525,52.101 45.5925,51.314 45.7835,50.23 L46.6685,45.23 C46.9245,43.789 47.8185,42.57 49.1215,41.884 L53.6435,39.505 C54.7375,38.93 55.1675,37.615 54.6225,36.51 L52.3745,31.951 C51.7275,30.637 51.7275,29.13 52.3745,27.817 L54.6225,23.257 C55.1675,22.153 54.7375,20.838 53.6435,20.262 L49.1205,17.883 C47.8185,17.197 46.9235,15.977 46.6685,14.536 L45.7835,9.537 C45.5925,8.453 44.6525,7.666 43.5465,7.666 C43.4395,7.666 43.3315,7.674 43.2225,7.689 L38.1545,8.4 C37.9265,8.431 37.6995,8.447 37.4755,8.447 C36.2425,8.447 35.0725,7.976 34.1815,7.12 L30.5005,3.591 C30.0715,3.179 29.5105,2.953 28.9195,2.953 C28.3275,2.953 27.7655,3.179 27.3375,3.591 L23.6575,7.12 C22.7655,7.976 21.5945,8.447 20.3625,8.447 C20.1375,8.447 19.9115,8.431 19.6845,8.4 L14.6155,7.689 C14.5065,7.674 14.3985,7.666 14.2915,7.666 C13.1865,7.666 12.2455,8.453 12.0545,9.537 L11.1695,14.537 C10.9145,15.977 10.0205,17.197 8.7165,17.883 L4.1945,20.262 C3.1015,20.838 2.6715,22.153 3.2155,23.257 L5.4635,27.817 C6.1115,29.131 6.1115,30.637 5.4635,31.951 L3.2155,36.51 C2.6715,37.614 3.1015,38.929 4.1945,39.505 L8.7165,41.883 C10.0205,42.57 10.9145,43.79 11.1705,45.23 L12.0545,50.23 C12.2455,51.314 13.1875,52.101 14.2925,52.101 C14.3995,52.101 14.5075,52.094 14.6155,52.079 L19.6845,51.368 C19.9115,51.336 20.1385,51.32 20.3635,51.32 M28.9195,59.267 C27.6845,59.267 26.5095,58.794 25.6125,57.932 L21.9335,54.404 C21.5065,53.994 20.9465,53.768 20.3565,53.768 C20.2485,53.768 20.1405,53.775 20.0325,53.791 L14.9645,54.502 C14.7345,54.534 14.5065,54.549 14.2805,54.549 C11.9775,54.549 10.0145,52.91 9.6145,50.652 L8.7305,45.652 C8.6085,44.96 8.1795,44.374 7.5535,44.045 L3.0305,41.666 C0.7555,40.467 -0.1415,37.733 0.9885,35.439 L3.2375,30.879 C3.5485,30.247 3.5485,29.521 3.2375,28.889 L0.9885,24.329 C-0.1415,22.034 0.7555,19.299 3.0315,18.102 L7.5535,15.723 C8.1785,15.394 8.6085,14.808 8.7305,14.115 L9.6145,9.116 C10.0145,6.857 11.9765,5.218 14.2805,5.218 C14.5055,5.218 14.7345,5.234 14.9645,5.266 L20.0325,5.977 C20.1405,5.992 20.2485,5.999 20.3545,5.999 C20.9455,5.999 21.5065,5.774 21.9335,5.364 L25.6125,1.835 C26.5095,0.974 27.6835,0.5 28.9195,0.5 C30.1555,0.5 31.3295,0.974 32.2275,1.835 L35.9055,5.363 C36.3315,5.773 36.8925,5.999 37.4835,5.999 C37.5905,5.999 37.6975,5.991 37.8065,5.976 L42.8745,5.266 C43.1055,5.234 43.3325,5.218 43.5585,5.218 C45.8625,5.218 47.8235,6.857 48.2245,9.116 L49.1085,14.115 C49.2315,14.808 49.6595,15.394 50.2855,15.723 L54.8085,18.102 C57.0835,19.299 57.9805,22.034 56.8505,24.328 L54.6025,28.888 C54.2895,29.521 54.2895,30.246 54.6025,30.88 L56.8505,35.438 C57.9815,37.733 57.0835,40.468 54.8085,41.666 L50.2855,44.045 C49.6595,44.375 49.2315,44.96 49.1085,45.651 L48.2245,50.652 C47.8235,52.911 45.8625,54.549 43.5605,54.549 L43.5595,54.549 C43.3335,54.549 43.1055,54.534 42.8745,54.502 L37.8065,53.791 C37.6985,53.776 37.5915,53.768 37.4855,53.768 C36.8945,53.768 36.3325,53.994 35.9055,54.403 L32.2275,57.933 C31.3295,58.794 30.1555,59.267 28.9195,59.267" id="Fill-1"></path>
                    <path d="M17.447,42.4821 C17.115,42.4821 16.804,42.3541 16.57,42.1231 C16.337,41.8911 16.209,41.5851 16.209,41.2581 C16.209,40.9321 16.337,40.6261 16.57,40.3951 L39.514,17.6451 C39.748,17.4131 40.059,17.2851 40.391,17.2851 C40.723,17.2851 41.035,17.4131 41.268,17.6451 C41.502,17.8761 41.63,18.1831 41.63,18.5081 C41.63,18.8351 41.502,19.1421 41.268,19.3731 L18.324,42.1221 C18.091,42.3541 17.779,42.4821 17.447,42.4821" id="Fill-3"></path>
                    <path d="M21.966,17.319 C20.093,17.319 18.569,18.832 18.569,20.691 C18.569,22.551 20.093,24.064 21.966,24.064 C23.839,24.064 25.363,22.551 25.363,20.691 C25.363,18.832 23.84,17.319 21.966,17.319 M21.966,26.511 C18.727,26.511 16.092,23.901 16.092,20.692 C16.092,17.483 18.727,14.872 21.966,14.872 C25.205,14.872 27.84,17.483 27.84,20.692 C27.84,23.901 25.205,26.511 21.966,26.511" id="Fill-5"></path>
                    <path d="M35.8728,35.7038 C33.9998,35.7038 32.4758,37.2168 32.4758,39.0758 C32.4758,40.9358 33.9998,42.4488 35.8728,42.4488 C37.7458,42.4488 39.2688,40.9358 39.2688,39.0758 C39.2688,37.2168 37.7458,35.7038 35.8728,35.7038 M35.8728,44.8958 C32.6338,44.8958 29.9988,42.2848 29.9988,39.0758 C29.9988,35.8668 32.6338,33.2568 35.8728,33.2568 C39.1108,33.2568 41.7458,35.8668 41.7458,39.0758 C41.7458,42.2848 39.1108,44.8958 35.8728,44.8958" id="Fill-7"></path>
                </g>
                <g id="Group-15-Copy-2" transform="translate(59.000000, 3.000000)">
                    <path d="M23.9754098,5.90163934 C23.1096234,10.6045563 22.407758,11.3063832 17.704918,12.1721311 C22.4077965,13.0379176 23.1096234,13.7397445 23.9754098,18.442623 C24.8411963,13.7397445 25.5430232,13.0379176 30.2459016,12.1721311 C25.5430232,11.3063832 24.8411578,10.6045563 23.9754098,5.90163934" id="Fill-1" fill-opacity="0.4" fill="#556CE7"></path>
                    <path d="M15.4918033,0 C14.8806599,3.31970606 14.3852255,3.81511328 11.0655738,4.42622951 C14.3852527,5.03737288 14.8806599,5.5327801 15.4918033,8.85245902 C16.1029467,5.5327801 16.5983539,5.03737288 19.9180328,4.42622951 C16.5983539,3.81511328 16.1029195,3.31970606 15.4918033,0" id="Fill-1-Copy" fill-opacity="0.8" fill="#556CE7"></path>
                    <path d="M10.3279186,10.3278689 C8.90203888,18.3503067 7.74573981,19.5477932 0,21.024487 C7.74573981,22.5013871 8.90203888,23.6988736 10.3279186,31.7213115 C11.7536988,23.6988736 12.9099979,22.5012839 20.6557377,21.024487 C12.9097987,19.5477932 11.7537984,18.3503067 10.3279186,10.3278689" id="Fill-3" fill="#7587EA"></path>
                </g>
            </g>
        </g>
    </g>
</svg>