<?xml version="1.0" encoding="UTF-8"?>
<svg width="22px" height="16px" viewBox="0 0 22 16" version="1.1" xmlns="http://www.w3.org/2000/svg" xmlns:xlink="http://www.w3.org/1999/xlink">
    <!-- Generator: Sketch 53.2 (72643) - https://sketchapp.com -->
    <title>icon-email-notification</title>
    <desc>Created with Sketch.</desc>
    <g id="Communications-v.1" stroke="none" stroke-width="1" fill="none" fill-rule="evenodd">
        <g id="Communication-4" transform="translate(-1091.000000, -148.000000)" fill="#9EA0A5" fill-rule="nonzero" stroke="#9EA0A5" stroke-width="0.2">
            <g id="Group-7" transform="translate(1076.000000, 137.000000)">
                <path d="M36,14.1885452 C36,12.9798286 35.0201714,12 33.8117161,12 L18.1885452,12 C16.9798286,12 16,12.9798286 16,14.1885452 L16,24.3936559 C16,25.6021112 16.9798286,26.5819398 18.1885452,26.5819398 L33.8117161,26.5819398 C35.0201714,26.5819398 36,25.6021112 36,24.3936559 L36,14.1885452 Z M33.8451609,25.5117057 L18.2217287,25.5117057 C17.8674227,25.5080476 17.5353261,25.3374268 17.3260347,25.0510556 L22.7140468,19.9776338 L24.515625,21.3608904 C25.456783,22.0948474 26.7768081,22.0938023 27.7166597,21.3582776 L29.5062187,19.9535953 L34.7442516,25.0471363 C34.5349603,25.3355979 34.2015573,25.5080476 33.8451609,25.5117057 L33.8451609,25.5117057 Z M17.0702341,23.7819816 L17.0702341,15.6572429 L21.8214883,19.3121342 L17.0702341,23.7819816 Z M30.3891096,19.286528 L34.9966555,15.670046 L34.9966555,23.7592496 L30.3891096,19.286528 Z M18.2217287,13.0702341 L33.8451609,13.0702341 C34.4615385,13.0702341 34.9966555,13.5664193 34.9966555,14.1830581 L34.9966555,14.3095213 L27.0738922,20.5151024 C26.5100334,20.9477947 25.7253867,20.9470108 25.1625732,20.5130121 L17.0702341,14.3071698 L17.0702341,14.1830581 C17.0702341,13.5664193 17.6053512,13.0702341 18.2217287,13.0702341 Z" id="icon-email-notification"></path>
            </g>
        </g>
    </g>
</svg>