<?xml version="1.0" encoding="utf-8"?>
<!-- Generator: Adobe Illustrator 24.0.3, SVG Export Plug-In . SVG Version: 6.00 Build 0)  -->
<svg version="1.1" id="Layer_1" xmlns="http://www.w3.org/2000/svg" xmlns:xlink="http://www.w3.org/1999/xlink" x="0px" y="0px"
	 viewBox="0 0 60 60" style="enable-background:new 0 0 60 60;" xml:space="preserve">
<style type="text/css">
	.st0{fill:#3F51B5;}
	.st1{fill:#FFFFFF;}
</style>
<g transform="matrix(1, 0, 0, 1, 1668, 933)">
	<circle id="Ellipse_2-2" class="st0" cx="-1638" cy="-903" r="30"/>
</g>
<path id="Icon_awesome-clipboard-list" class="st1" d="M41.3,14.1h-6.2c0-2.8-2.2-5-5-5c-2.8,0-5,2.2-5,5h-6.2
	c-2.1,0-3.7,1.7-3.7,3.7c0,0,0,0,0,0v27.4c0,2.1,1.7,3.7,3.7,3.7h22.5c2.1,0,3.7-1.7,3.7-3.7V17.8C45.1,15.7,43.4,14.1,41.3,14.1z
	 M22.6,42.1c-1,0-1.9-0.8-1.9-1.9s0.8-1.9,1.9-1.9s1.9,0.8,1.9,1.9l0,0C24.5,41.3,23.6,42.1,22.6,42.1
	C22.6,42.1,22.6,42.1,22.6,42.1z M22.6,34.7c-1,0-1.9-0.8-1.9-1.9c0-1,0.8-1.9,1.9-1.9s1.9,0.8,1.9,1.9l0,0
	C24.5,33.8,23.6,34.7,22.6,34.7C22.6,34.7,22.6,34.7,22.6,34.7L22.6,34.7z M22.6,27.2c-1,0-1.9-0.8-1.9-1.9c0-1,0.8-1.9,1.9-1.9
	s1.9,0.8,1.9,1.9C24.5,26.3,23.6,27.2,22.6,27.2C22.6,27.2,22.6,27.2,22.6,27.2L22.6,27.2z M30.1,12.2c1,0,1.9,0.8,1.9,1.9
	s-0.8,1.9-1.9,1.9s-1.9-0.8-1.9-1.9C28.2,13,29,12.2,30.1,12.2C30.1,12.2,30.1,12.2,30.1,12.2z M40.1,40.9c0,0.3-0.3,0.6-0.6,0.6
	H28.2c-0.3,0-0.6-0.3-0.6-0.6v-1.2c0-0.3,0.3-0.6,0.6-0.6h11.2c0.3,0,0.6,0.3,0.6,0.6V40.9z M40.1,33.4c0,0.3-0.3,0.6-0.6,0.6H28.2
	c-0.3,0-0.6-0.3-0.6-0.6v-1.2c0-0.3,0.3-0.6,0.6-0.6h11.2c0.3,0,0.6,0.3,0.6,0.6V33.4z M40.1,25.9c0,0.3-0.3,0.6-0.6,0.6H28.2
	c-0.3,0-0.6-0.3-0.6-0.6v-1.2c0-0.3,0.3-0.6,0.6-0.6h11.2c0.3,0,0.6,0.3,0.6,0.6V25.9z"/>
</svg>
