<?xml version="1.0" encoding="UTF-8"?>
<svg width="16px" height="16px" viewBox="0 0 16 16" version="1.1" xmlns="http://www.w3.org/2000/svg" xmlns:xlink="http://www.w3.org/1999/xlink">
    <!-- Generator: sketchtool 53.2 (72643) - https://sketchapp.com -->
    <title>05933FF0-2962-41B2-A926-A8C51335F028</title>
    <desc>Created with sketchtool.</desc>
    <g id="AutomaticAds" stroke="none" stroke-width="1" fill="none" fill-rule="evenodd">
        <g id="AutomaticAds-3" transform="translate(-1005.000000, -172.000000)" fill="#556CE7" fill-rule="nonzero">
            <g id="Group-5" transform="translate(977.000000, 127.000000)">
                <g id="Group-13" transform="translate(0.000000, 17.000000)">
                    <g id="icon-enable/dis" transform="translate(28.000000, 28.000000)">
                        <path d="M6.5152,7.23072 L6.5152,1.20512 C6.5152,0.54016 7.05536,0 7.72032,0 C8.38528,0 8.92544,0.54016 8.92544,1.20512 L8.92544,7.23072 C8.92544,7.89568 8.38528,8.43584 7.72032,8.43584 C7.05536,8.43584 6.5152,7.89568 6.5152,7.23072 Z M12.49728,1.76704 C12.10688,1.45792 11.53728,1.52576 11.22816,1.9168 C10.91904,2.30848 10.98624,2.8768 11.37792,3.18656 C12.81152,4.31744 13.63328,6.01088 13.63328,7.8336 C13.63328,11.09376 10.98048,13.74656 7.72096,13.74656 C4.4608,13.74656 1.808,11.09376 1.808,7.8336 C1.808,6.01152 2.62912,4.31872 4.06144,3.18848 C4.45312,2.87936 4.52032,2.31104 4.2112,1.91872 C3.90208,1.52704 3.3344,1.46048 2.94144,1.76896 C1.072,3.24416 0,5.45472 0,7.8336 C0,12.09088 3.46368,15.55392 7.72032,15.55392 C11.97696,15.55392 15.44064,12.09024 15.44064,7.8336 C15.44064,5.45344 14.36736,3.24288 12.49728,1.76704 Z" id="Shape"></path>
                    </g>
                </g>
            </g>
        </g>
    </g>
</svg>