<svg xmlns="http://www.w3.org/2000/svg" width="52" height="52" viewBox="0 0 52 52">
  <g id="Group_858" data-name="Group 858" transform="translate(-351 -640)">
    <circle id="Ellipse_2" data-name="Ellipse 2" cx="26" cy="26" r="26" transform="translate(351 640)" fill="#ffc3cc"/>
    <g id="password" transform="translate(361 606.457)">
      <path id="Path_184" data-name="Path 184" d="M160.213,289.588a.467.467,0,0,0,.661,0l.245-.245.245.245a.467.467,0,0,0,.661-.661l-.245-.245.245-.245a.467.467,0,0,0-.661-.661l-.245.245-.245-.245a.467.467,0,0,0-.661.661l.245.245-.245.245A.467.467,0,0,0,160.213,289.588Z" transform="translate(-150.098 -226.067)" fill="#f01637"/>
      <path id="Path_185" data-name="Path 185" d="M213,289.588a.467.467,0,0,0,.661,0l.245-.245.245.245a.467.467,0,1,0,.661-.661l-.245-.245.245-.245a.467.467,0,0,0-.661-.661l-.245.245-.245-.245a.467.467,0,0,0-.661.661l.245.245-.245.245A.467.467,0,0,0,213,289.588Z" transform="translate(-199.597 -226.067)" fill="#f01637"/>
      <path id="Path_186" data-name="Path 186" d="M265.791,289.588a.468.468,0,0,0,.661,0l.245-.245.245.245a.468.468,0,0,0,.661-.661l-.245-.245.245-.245a.468.468,0,0,0-.661-.661l-.245.245-.245-.245a.468.468,0,0,0-.661.661l.245.245-.245.245A.467.467,0,0,0,265.791,289.588Z" transform="translate(-249.095 -226.067)" fill="#f01637"/>
      <path id="Path_187" data-name="Path 187" d="M318.58,289.588a.468.468,0,0,0,.661,0l.245-.245.245.245a.468.468,0,1,0,.661-.661l-.245-.245.245-.245a.468.468,0,1,0-.661-.661l-.245.245-.245-.245a.468.468,0,1,0-.661.661l.245.245-.245.245A.467.467,0,0,0,318.58,289.588Z" transform="translate(-298.594 -226.067)" fill="#f01637"/>
      <path id="Path_188" data-name="Path 188" d="M129.871,266.944a1.568,1.568,0,0,0,1.567-1.567v-2.2a1.568,1.568,0,0,0-1.567-1.567H115.264a1.568,1.568,0,0,0-1.567,1.567v2.2a1.568,1.568,0,0,0,1.567,1.567Zm-15.239-1.567v-2.2a.632.632,0,0,1,.632-.632h14.607a.632.632,0,0,1,.632.632v2.2a.632.632,0,0,1-.632.632H115.264A.632.632,0,0,1,114.632,265.378Z" transform="translate(-106.61 -201.664)" fill="#f01637"/>
      <path id="Path_189" data-name="Path 189" d="M244.252,147.2a.468.468,0,0,0-.468.467v1.364a.467.467,0,0,0,.935,0v-1.364A.468.468,0,0,0,244.252,147.2Z" transform="translate(-228.588 -94.384)" fill="#f01637"/>
      <path id="Path_190" data-name="Path 190" d="M30.029,51.734H19.448a1.1,1.1,0,0,0-1.086-1.081V49.242a2.7,2.7,0,0,0-5.4,0v1.411a1.1,1.1,0,0,0-1.086,1.081H6.993a.467.467,0,1,0,0,.935h4.884v3.5a1.1,1.1,0,0,0,1.1,1.1H18.35a1.1,1.1,0,0,0,1.1-1.1v-3.5h10.58a.951.951,0,0,1,.95.95V67.776H.935V53.619a.951.951,0,0,1,.95-.95H5.123a.467.467,0,0,0,0-.935H1.885A1.887,1.887,0,0,0,0,53.619V70.77a1.887,1.887,0,0,0,1.885,1.885h9.344a.467.467,0,1,0,0-.935H1.885a.951.951,0,0,1-.95-.95V68.711H30.98V70.77a.951.951,0,0,1-.95.95H13.1a.467.467,0,0,0,0,.935h16.93a1.887,1.887,0,0,0,1.885-1.885V53.619A1.887,1.887,0,0,0,30.029,51.734ZM13.9,49.242a1.764,1.764,0,0,1,3.528,0v1.41H13.9Zm4.615,6.925a.165.165,0,0,1-.165.165H12.977a.165.165,0,0,1-.165-.165V51.752a.165.165,0,0,1,.165-.165H18.35a.165.165,0,0,1,.165.165Z" fill="#f01637"/>
    </g>
  </g>
</svg>
