<?xml version="1.0" encoding="UTF-8"?>
<svg width="15px" height="15px" viewBox="0 0 15 15" version="1.1" xmlns="http://www.w3.org/2000/svg">
    <!-- Generator: sketchtool 53.2 (72643) - https://sketchapp.com -->
    <title>73AAC277-EE69-479A-BB82-DEDFF55BB2B8</title>
    <desc>Created with sketchtool.</desc>
    <g id="v1.0" stroke="none" stroke-width="1" fill="none" fill-rule="evenodd">
        <g id="LiveChat-6.1-v1.0" transform="translate(-1015.000000, -101.000000)" fill="#9EA0A5" fill-rule="nonzero">
            <g id="Group-27" transform="translate(905.000000, 70.000000)">
                <path d="M117.5,31 C113.358,31 110,34.358 110,38.5 C110,42.642 113.358,46 117.5,46 C121.642,46 125,42.642 125,38.5 C125,34.358 121.642,31 117.5,31 Z M117.666667,34.1666667 C118.224667,34.1666667 118.676833,34.6188333 118.676833,35.1768333 C118.676833,35.7348333 118.224667,36.1868333 117.666667,36.1868333 C117.108667,36.1868333 116.6565,35.7346667 116.6565,35.1766667 C116.6565,34.6186667 117.108667,34.1666667 117.666667,34.1666667 Z M119.162167,42.1841667 L119.161833,42.1841667 C119.161833,42.3586667 119.020333,42.5 118.846,42.5 L116.487333,42.5 C116.313,42.5 116.171667,42.3586667 116.171667,42.1841667 L116.171667,41.553 C116.171667,41.3785 116.313,41.237 116.487333,41.237 L116.8865,41.237 L116.8865,38.0806667 L116.487333,38.0806667 C116.313,38.0806667 116.171667,37.9393333 116.171667,37.7648333 L116.171667,37.1336667 C116.171667,36.9591667 116.313,36.8178333 116.487333,36.8178333 L118.131333,36.8178333 C118.305667,36.8178333 118.447,36.9591667 118.447,37.1336667 L118.447,41.2371667 L118.846333,41.2371667 C119.020667,41.2371667 119.162167,41.3786667 119.162167,41.5531667 L119.162167,42.1841667 Z" id="icon-information-copy-2"></path>
            </g>
        </g>
    </g>
</svg>
