<?xml version="1.0" encoding="UTF-8"?>
<svg width="19px" height="19px" viewBox="0 0 19 19" version="1.1" xmlns="http://www.w3.org/2000/svg" xmlns:xlink="http://www.w3.org/1999/xlink">
    <!-- Generator: sketchtool 53.2 (72643) - https://sketchapp.com -->
    <title>CF09F5E2-E1AF-4468-B9AD-3B47E3FCE97A</title>
    <desc>Created with sketchtool.</desc>
    <g id="ProductReview-v.1" stroke="none" stroke-width="1" fill="none" fill-rule="evenodd">
        <g id="DB-Review-2-3" transform="translate(-1158.000000, -311.000000)" fill="#9EA0A5" fill-rule="nonzero" stroke="#979797" stroke-width="0.2">
            <g id="icon-externallink(productdetail)" transform="translate(1159.000000, 312.000000)">
                <path d="M9.306,8.856 C9.48496082,8.85584245 9.65653438,8.78462324 9.783,8.658 L16.137,2.304 L16.137,5.589 C16.137,5.96179221 16.4392078,6.264 16.812,6.264 C17.1847922,6.264 17.487,5.96179221 17.487,5.589 L17.487,0.675 C17.487,0.302207794 17.1847922,1.59872116e-14 16.812,1.59872116e-14 L11.898,1.59872116e-14 C11.5252078,1.59872116e-14 11.223,0.302207794 11.223,0.675 C11.223,1.04779221 11.5252078,1.35 11.898,1.35 L15.183,1.35 L8.784,7.704 C8.59120173,7.89703814 8.53356762,8.18715787 8.63794172,8.43923116 C8.74231582,8.69130445 8.98817251,8.85576003 9.261,8.856 L9.306,8.856 Z" id="Path"></path>
                <path d="M16.884,9.504 C16.5112078,9.504 16.209,9.80620779 16.209,10.179 L16.209,15.759 C16.209,16.0025576 16.0115576,16.2 15.768,16.2 L1.8,16.2 C1.55644243,16.2 1.359,16.0025576 1.359,15.759 L1.359,1.791 C1.359,1.54744243 1.55644243,1.35 1.8,1.35 L7.083,1.35 C7.4557922,1.34999999 7.75799999,1.0477922 7.75799999,0.675 C7.75799999,0.302207799 7.4557922,7.85600291e-09 7.083,-5.32907052e-15 L1.8,-5.32907052e-15 C0.80588745,-5.32907052e-15 -7.10542736e-15,0.80588745 -7.10542736e-15,1.8 L-7.10542736e-15,15.759 C-7.10542736e-15,16.7531125 0.80588745,17.559 1.8,17.559 L15.768,17.559 C16.7621125,17.559 17.568,16.7531125 17.568,15.759 L17.568,10.179 C17.5680161,9.99840855 17.4956661,9.82534153 17.3671258,9.69849255 C17.2385855,9.57164357 17.0645754,9.50159211 16.884,9.504 Z" id="Path"></path>
            </g>
        </g>
    </g>
</svg>