<?xml version="1.0" encoding="UTF-8"?>
<svg width="22px" height="18px" viewBox="0 0 22 18" version="1.1" xmlns="http://www.w3.org/2000/svg">
    <!-- Generator: sketchtool 53.2 (72643) - https://sketchapp.com -->
    <title>17D6B116-7116-4AB6-A409-0316808E4200</title>
    <desc>Created with sketchtool.</desc>
    <g id="v2.0-CreateNewUser" stroke="none" stroke-width="1" fill="none" fill-rule="evenodd" opacity="0.5">
        <g id="LiveChat-AddCustomer-1.2" transform="translate(-936.000000, -299.000000)" fill="#556CE7" fill-rule="nonzero" stroke="#556CE7" stroke-width="0.7">
            <g id="Group-12" transform="translate(905.000000, 70.000000)">
                <g id="Group-8" transform="translate(20.000000, 219.000000)">
                    <g id="icon-add-newcustomer-2" transform="translate(12.000000, 11.000000)">
                        <polygon id="Path" points="19.783779 7.81594195 19.783779 6.91282598 17.3353714 6.91282598 17.3353714 4.46435815 16.4322554 4.46435815 16.4322554 6.91282598 13.9837876 6.91282598 13.9837876 7.81594195 16.4322554 7.81594195 16.4322554 10.2642894 17.3353714 10.2642894 17.3353714 7.81594195"></polygon>
                        <path d="M10.9964605,9.92459734 C13.2910374,9.92459734 15.1578383,11.7914585 15.1578383,14.0859751 L15.1578383,16.4899494 L4.08562073e-14,16.4899494 L4.08562073e-14,14.0859751 C4.08562073e-14,11.7913983 1.86680093,9.92459734 4.16137779,9.92459734 L10.9964605,9.92459734 Z M14.2547224,15.5868937 L14.2546621,14.0860353 C14.2546621,12.2894366 12.792999,10.8277735 10.9964003,10.8277735 L4.16137779,10.8277735 C2.36471887,10.8277735 0.903115976,12.2894366 0.903115976,14.0860353 L0.903115976,15.5868937 L14.2547224,15.5868937 Z" id="Combined-Shape"></path>
                        <path d="M7.57894927,8.74974882 C5.16666629,8.74974882 3.20407486,6.7872176 3.20407486,4.37487441 C3.20407486,1.96253122 5.16666629,4.40536496e-13 7.57894927,4.40536496e-13 C9.99123225,4.40536496e-13 11.9537635,1.96259143 11.9537635,4.37487441 C11.9537635,6.78715739 9.99123225,8.74974882 7.57894927,8.74974882 Z M7.57894927,0.903176184 C5.66458423,0.903176184 4.10719084,2.46062979 4.10719084,4.37493462 C4.10719084,6.28923945 5.66458423,7.84669305 7.57894927,7.84669305 C9.4932541,7.84669305 11.0506475,6.28929966 11.0506475,4.37493462 C11.0506475,2.46056958 9.4932541,0.903176184 7.57894927,0.903176184 Z" id="Combined-Shape"></path>
                    </g>
                </g>
            </g>
        </g>
    </g>
</svg>
