<?xml version="1.0" encoding="UTF-8"?>
<svg width="22px" height="22px" viewBox="0 0 22 22" version="1.1" xmlns="http://www.w3.org/2000/svg" xmlns:xlink="http://www.w3.org/1999/xlink">
    <!-- Generator: sketchtool 53.2 (72643) - https://sketchapp.com -->
    <title>7175C859-C8A6-4A76-B770-66F6EC35B3CD</title>
    <desc>Created with sketchtool.</desc>
    <g id="Discounts-NEW" stroke="none" stroke-width="1" fill="none" fill-rule="evenodd">
        <g id="Discount-11.3" transform="translate(-1119.000000, -582.000000)" fill="#9EA0A5">
            <g id="icon-stop" transform="translate(1120.000000, 583.000000)">
                <rect id="Rectangle" x="5" y="9" width="10" height="2" rx="1"></rect>
                <path d="M10,0 C4.4771525,0 0,4.4771525 0,10 C0,15.5228475 4.4771525,20 10,20 C15.5228475,20 20,15.5228475 20,10 C19.9933878,4.4798937 15.5201063,0.00661223267 10,0 Z M10,18.28 C5.42708227,18.28 1.72,14.5729177 1.72,10 C1.72,5.42708227 5.42708227,1.72 10,1.72 C14.5729177,1.72 18.28,5.42708227 18.28,10 C18.2744899,14.5706334 14.5706334,18.2744899 10,18.28 Z" id="Shape" stroke="#FFFFFF" stroke-width="0.1" fill-rule="nonzero"></path>
            </g>
        </g>
    </g>
</svg>