<svg width="209" height="51" viewBox="0 0 209 51" fill="none" xmlns="http://www.w3.org/2000/svg">
<g clip-path="url(#clip0_116_6719)">
<path fill-rule="evenodd" clip-rule="evenodd" d="M161.781 22.4673C161.155 26.5818 158.014 26.5818 154.976 26.5818H153.248L154.46 18.8999C154.533 18.4357 154.933 18.0937 155.404 18.0937H156.196C158.263 18.0937 160.217 18.0937 161.224 19.2723C161.826 19.9776 162.009 21.0228 161.781 22.4673ZM160.459 11.7331H149.002C148.219 11.7331 147.552 12.3034 147.43 13.0776L142.797 42.4686C142.705 43.0481 143.153 43.5725 143.74 43.5725H149.619C150.167 43.5725 150.634 43.1733 150.719 42.6314L152.033 34.2993C152.155 33.525 152.822 32.9548 153.605 32.9548H157.23C164.777 32.9548 169.132 29.3008 170.27 22.0593C170.783 18.8922 170.291 16.4035 168.809 14.6612C167.179 12.7459 164.292 11.7331 160.459 11.7331Z" fill="#2790C3"/>
<path fill-rule="evenodd" clip-rule="evenodd" d="M80.0673 22.4673C79.4411 26.5818 76.3002 26.5818 73.2628 26.5818H71.5342L72.7463 18.8999C72.82 18.4357 73.2201 18.0937 73.6896 18.0937H74.4821C76.5499 18.0937 78.5035 18.0937 79.5101 19.2723C80.1131 19.9776 80.2954 21.0228 80.0673 22.4673ZM78.7455 11.7331H67.2883C66.5052 11.7331 65.8384 12.3034 65.7163 13.0776L61.0832 42.4686C60.9921 43.0481 61.44 43.5725 62.0265 43.5725H67.4969C68.28 43.5725 68.9474 43.0023 69.0694 42.2285L70.3196 34.2993C70.4411 33.525 71.1084 32.9548 71.8916 32.9548H75.517C83.063 32.9548 87.4186 29.3008 88.557 22.0593C89.0693 18.8922 88.5776 16.4035 87.0952 14.6612C85.4655 12.7459 82.5779 11.7331 78.7455 11.7331Z" fill="#27346A"/>
<path fill-rule="evenodd" clip-rule="evenodd" d="M105.343 33.0186C104.813 36.1549 102.325 38.2603 99.1507 38.2603C97.5596 38.2603 96.2857 37.7482 95.467 36.7787C94.6556 35.8174 94.3502 34.4482 94.6072 32.9233C95.1015 29.8154 97.6296 27.642 100.755 27.642C102.313 27.642 103.578 28.1592 104.413 29.1375C105.253 30.1229 105.583 31.5015 105.343 33.0186ZM112.988 22.3359H107.502C107.032 22.3359 106.632 22.6775 106.559 23.1426L106.318 24.6773L105.934 24.1209C104.746 22.3957 102.099 21.8192 99.4545 21.8192C93.3935 21.8192 88.2161 26.4144 87.2085 32.8594C86.6838 36.0745 87.4283 39.1469 89.2506 41.2914C90.9245 43.2619 93.3137 44.082 96.1601 44.082C101.046 44.082 103.755 40.9422 103.755 40.9422L103.51 42.4675C103.418 43.0476 103.866 43.5725 104.453 43.5725H109.394C110.177 43.5725 110.844 43.0028 110.966 42.2285L113.932 23.4399C114.023 22.8598 113.575 22.3359 112.988 22.3359Z" fill="#27346A"/>
<path fill-rule="evenodd" clip-rule="evenodd" d="M187.056 33.0186C186.526 36.1549 184.038 38.2603 180.865 38.2603C179.273 38.2603 178 37.7482 177.18 36.7787C176.369 35.8174 176.064 34.4482 176.321 32.9233C176.815 29.8154 179.343 27.642 182.469 27.642C184.027 27.642 185.292 28.1592 186.126 29.1375C186.967 30.1229 187.297 31.5015 187.056 33.0186ZM194.702 22.3359H189.216C188.746 22.3359 188.346 22.6775 188.272 23.1426L188.031 24.6773L187.648 24.1209C186.46 22.3957 183.812 21.8192 181.168 21.8192C175.107 21.8192 169.93 26.4144 168.922 32.8594C168.398 36.0745 169.142 39.1469 170.964 41.2914C172.638 43.2619 175.027 44.082 177.873 44.082C182.759 44.082 185.468 40.9422 185.468 40.9422L185.224 42.4675C185.132 43.0476 185.58 43.5725 186.167 43.5725H191.107C191.89 43.5725 192.557 43.0028 192.68 42.2285L195.645 23.4399C195.737 22.8598 195.289 22.3359 194.702 22.3359Z" fill="#2790C3"/>
<mask id="mask0_116_6719" style="mask-type:alpha" maskUnits="userSpaceOnUse" x="0" y="0" width="209" height="51">
<path d="M0.0308838 51H208.358V0.422913H0.0308838V51Z" fill="white"/>
</mask>
<g mask="url(#mask0_116_6719)">
<path fill-rule="evenodd" clip-rule="evenodd" d="M142.206 22.3359H136.692C136.165 22.3359 135.672 22.5976 135.376 23.034L127.77 34.2421L124.546 23.4718C124.344 22.798 123.724 22.3359 123.021 22.3359H117.601C116.946 22.3359 116.485 22.9799 116.697 23.5996L122.768 41.43L117.058 49.4921C116.609 50.1248 117.062 51 117.837 51H123.346C123.868 51 124.356 50.744 124.654 50.3143L142.992 23.8361C143.43 23.2024 142.977 22.3359 142.206 22.3359Z" fill="#27346A"/>
<path fill-rule="evenodd" clip-rule="evenodd" d="M201.168 12.5403L196.466 42.4686C196.375 43.0486 196.822 43.5725 197.409 43.5725H202.138C202.922 43.5725 203.588 43.0023 203.71 42.2285L208.347 12.8376C208.438 12.2575 207.99 11.7331 207.403 11.7331H202.111C201.641 11.7331 201.241 12.0757 201.168 12.5403Z" fill="#2790C3"/>
<path fill-rule="evenodd" clip-rule="evenodd" d="M21.7042 48.9162L23.2443 39.1458L23.3437 38.6044C23.4179 38.1336 23.6588 37.7029 24.0218 37.3928C24.3848 37.0826 24.8477 36.9116 25.3251 36.9116H26.548C28.5865 36.9116 30.4592 36.6937 32.1146 36.2641C33.8807 35.8061 35.4517 35.0926 36.7832 34.1453C38.1951 33.1407 39.3809 31.842 40.3083 30.2863C41.2866 28.645 42.0049 26.6689 42.4436 24.4135C42.8313 22.4219 42.9039 20.639 42.6604 19.1136C42.4024 17.5023 41.7819 16.1273 40.8165 15.0259C40.2311 14.3588 39.4819 13.7808 38.59 13.3079L38.5689 13.2966L38.5684 13.2708C38.8799 11.2828 38.8681 9.62456 38.5329 8.19707C38.1961 6.76649 37.5144 5.47913 36.447 4.26234C34.2355 1.74119 30.2131 0.462585 24.4919 0.462585H8.77961C8.25441 0.462585 7.74465 0.650616 7.34509 0.992161C6.94552 1.33371 6.68086 1.80816 6.59847 2.32743L0.0560889 43.8347C-0.00364007 44.2134 0.105005 44.5982 0.354219 44.8887C0.603433 45.1808 0.965927 45.3483 1.34902 45.3483H11.0967L11.0879 45.3946L10.4186 49.6415C10.3671 49.9717 10.4618 50.3066 10.6786 50.56C10.8954 50.814 11.211 50.9603 11.5447 50.9603H19.7203C20.1791 50.9603 20.6235 50.796 20.9721 50.4977C21.3206 50.1994 21.5524 49.7858 21.6239 49.333L21.7042 48.9162Z" fill="#27346A"/>
<path fill-rule="evenodd" clip-rule="evenodd" d="M16.1031 13.3249C16.2066 12.667 16.6283 12.1287 17.1962 11.8562C17.4547 11.7325 17.743 11.6635 18.0453 11.6635H30.3613C31.8206 11.6635 33.1809 11.7593 34.4249 11.9597C34.7802 12.0169 35.1257 12.0829 35.462 12.1575C35.7982 12.2322 36.1241 12.3152 36.4398 12.4079C36.5978 12.4538 36.7528 12.5022 36.9058 12.5532C37.5164 12.7562 38.0849 12.9952 38.608 13.2723C39.2249 9.33813 38.6039 6.66088 36.4768 4.23606C34.1351 1.56655 29.9046 0.422913 24.4919 0.422913H8.77958C7.67356 0.422913 6.7318 1.22809 6.55931 2.32125L0.0169238 43.8285C-0.112317 44.6476 0.520501 45.3879 1.34898 45.3879H11.0488L16.1031 13.3249Z" fill="#27346A"/>
</g>
<path fill-rule="evenodd" clip-rule="evenodd" d="M38.6081 13.2723C38.5613 13.5727 38.5093 13.8782 38.4475 14.1929C36.376 24.8365 29.2868 28.5162 20.2327 28.5162H15.6223C14.5162 28.5162 13.5822 29.3219 13.4097 30.415L10.3795 49.6359C10.2667 50.3519 10.8203 51 11.5447 51H19.7209C20.6884 51 21.5123 50.2958 21.6631 49.3391L21.7435 48.9234L23.2835 39.152L23.3829 38.6121C23.5338 37.6555 24.3576 36.9513 25.3251 36.9513H26.548C34.4688 36.9513 40.6708 33.7316 42.4833 24.4207C43.2402 20.5303 42.8489 17.2828 40.8464 14.9996C40.2409 14.3093 39.4871 13.738 38.6081 13.2723Z" fill="#2790C3"/>
<path fill-rule="evenodd" clip-rule="evenodd" d="M36.4398 12.4079C36.1242 12.3152 35.7983 12.2322 35.462 12.1575C35.1258 12.0828 34.7803 12.0169 34.425 11.9597C33.181 11.7593 31.8206 11.6635 30.3614 11.6635H18.0454C17.7431 11.6635 17.4548 11.7325 17.1963 11.8562C16.6283 12.1287 16.2066 12.667 16.1031 13.3249L13.4854 29.9303L13.4097 30.415C13.5822 29.3219 14.5162 28.5162 15.6222 28.5162H20.2327C29.2868 28.5162 36.376 24.8365 38.4474 14.1929C38.5092 13.8781 38.5612 13.5727 38.6081 13.2723C38.085 12.9952 37.5165 12.7561 36.9058 12.5532C36.7529 12.5022 36.5979 12.4538 36.4398 12.4079Z" fill="#1F264F"/>
</g>
<defs>
<clipPath id="clip0_116_6719">
<rect width="209" height="51" fill="white"/>
</clipPath>
</defs>
</svg>
