<?xml version="1.0" encoding="UTF-8"?>
<svg width="100px" height="100px" viewBox="0 0 100 100" version="1.1" xmlns="http://www.w3.org/2000/svg" xmlns:xlink="http://www.w3.org/1999/xlink">
    <!-- Generator: sketchtool 53.2 (72643) - https://sketchapp.com -->
    <title>83B222D3-11FA-43B2-A867-F755CF99F3A1</title>
    <desc>Created with sketchtool.</desc>
    <defs>
        <rect id="path-1" x="23" y="23" width="54" height="54" rx="4"></rect>
        <mask id="mask-2" maskContentUnits="userSpaceOnUse" maskUnits="objectBoundingBox" x="0" y="0" width="54" height="54" fill="white">
            <use xlink:href="#path-1"></use>
        </mask>
    </defs>
    <g id="All-v.2" stroke="none" stroke-width="1" fill="none" fill-rule="evenodd">
        <g id="Segment-1" transform="translate(-726.000000, -398.000000)">
            <g id="icon-emptysegment" transform="translate(726.000000, 398.000000)">
                <circle id="Oval-Copy-2" fill="#F4F5F7" cx="50" cy="50" r="50"></circle>
                <g id="Group-4-Copy" transform="translate(37.000000, 35.000000)" fill="#DADADA" fill-rule="nonzero" stroke="#DADADA" stroke-width="0.4">
                    <path d="M13.0001169,0 C9.76445443,4.00285642e-10 6.84739854,1.82730281 5.60917626,4.62983474 C4.37095397,7.43236666 5.05541383,10.6582128 7.3433913,12.8031568 C9.63136878,14.9481009 13.0722824,15.5897296 16.0616297,14.4288507 C19.050977,13.2679717 21.0000526,10.5332021 21,7.49976856 C20.9949865,3.35966163 17.416231,0.0046329111 13.0001169,0 Z M13.0001169,13.537597 C9.44320965,13.537597 6.55976658,10.8343691 6.55976658,7.49976856 C6.55976658,4.16516798 9.44320965,1.4619401 13.0001169,1.4619401 C16.5570242,1.4619401 19.4404673,4.16516798 19.4404673,7.49976856 C19.4364565,10.8328104 16.5553616,13.5338369 13.0001169,13.537597 Z" id="Shape"></path>
                    <path d="M0.159433962,27.3809775 C0.0534083783,28.0169292 0.000101169726,28.6597553 2.84217094e-14,29.3035749 C2.84217094e-14,29.6881999 0.329450844,30 0.735849057,30 L25.2641509,30 C25.6705492,30 26,29.6881999 26,29.3035749 C25.9998669,28.659949 25.9465598,28.0173182 25.840566,27.3815578 C25.0290069,24.1456823 23.4906736,21.6129392 21.225566,19.7833283 C16.4428271,16.0722239 9.55717292,16.0722239 4.77443396,19.7833283 C2.6066565,21.5210191 1.06832316,24.0535689 0.159433962,27.3809775 Z M24.5051226,28.6071499 L1.49487736,28.6071499 C1.88044089,22.8614366 6.91679596,18.3880262 13,18.3880262 C19.083204,18.3880262 24.1195591,22.8614366 24.5051226,28.6071499 L24.5051226,28.6071499 Z" id="Shape"></path>
                </g>
                <use id="Rectangle" stroke="#DADADA" mask="url(#mask-2)" stroke-width="3" stroke-dasharray="7,5" xlink:href="#path-1"></use>
                <g id="Group-15-Copy-2" transform="translate(58.770492, 3.000000)">
                    <path d="M23.9754098,5.90163934 C23.1096234,10.6045563 22.407758,11.3063832 17.704918,12.1721311 C22.4077965,13.0379176 23.1096234,13.7397445 23.9754098,18.442623 C24.8411963,13.7397445 25.5430232,13.0379176 30.2459016,12.1721311 C25.5430232,11.3063832 24.8411578,10.6045563 23.9754098,5.90163934" id="Fill-1" fill-opacity="0.4" fill="#556CE7"></path>
                    <path d="M15.4918033,0 C14.8806599,3.31970606 14.3852255,3.81511328 11.0655738,4.42622951 C14.3852527,5.03737288 14.8806599,5.5327801 15.4918033,8.85245902 C16.1029467,5.5327801 16.5983539,5.03737288 19.9180328,4.42622951 C16.5983539,3.81511328 16.1029195,3.31970606 15.4918033,0" id="Fill-1-Copy" fill-opacity="0.8" fill="#556CE7"></path>
                    <path d="M10.3279186,10.3278689 C8.90203888,18.3503067 7.74573981,19.5477932 0,21.024487 C7.74573981,22.5013871 8.90203888,23.6988736 10.3279186,31.7213115 C11.7536988,23.6988736 12.9099979,22.5012839 20.6557377,21.024487 C12.9097987,19.5477932 11.7537984,18.3503067 10.3279186,10.3278689" id="Fill-3" fill="#7587EA"></path>
                </g>
            </g>
        </g>
    </g>
</svg>