<?xml version="1.0" encoding="UTF-8"?>
<svg width="22px" height="22px" viewBox="0 0 22 22" version="1.1" xmlns="http://www.w3.org/2000/svg" xmlns:xlink="http://www.w3.org/1999/xlink">
    <!-- Generator: sketchtool 53.2 (72643) - https://sketchapp.com -->
    <title>0DBDDA88-82A8-49C9-A9B0-DDF79EA16DEB</title>
    <desc>Created with sketchtool.</desc>
    <g id="Setting" stroke="none" stroke-width="1" fill="none" fill-rule="evenodd">
        <g id="Setting-Temp-1" transform="translate(-592.000000, -199.000000)" fill="#556CE7" fill-rule="nonzero" stroke="#508AEB">
            <g id="Group-5-Copy-2" transform="translate(593.000000, 171.000000)">
                <g id="Group-4" transform="translate(0.000000, 24.000000)">
                    <g id="icon-wallet" transform="translate(0.000000, 5.000000)">
                        <path d="M19.5755102,8.63673469 L19.0653061,8.63673469 L19.0653061,5.19183673 C19.0653061,4.38367347 18.4285714,3.74693878 17.6612245,3.74693878 L17.277551,3.74693878 L17.277551,1.44489796 C17.277551,0.636734694 16.6816327,-2.84217094e-14 15.9591837,-2.84217094e-14 C15.9591837,-2.84217094e-14 15.9183673,-2.84217094e-14 15.8734694,-2.84217094e-14 L1.31836735,3.74285714 C1.31428571,3.74285714 1.30612245,3.74693878 1.30204082,3.74693878 C0.583673469,3.80408163 0,4.42040816 0,5.19183673 L0,18.555102 C0,19.3632653 0.636734694,20 1.40408163,20 L17.6612245,20 C18.4693878,20 19.1061224,19.3632653 19.1061224,18.555102 L19.1061224,15.0204082 L19.5755102,15.0204082 C19.8326531,15.0204082 20,14.8489796 20,14.5959184 L20,9.06530612 C20,8.80816327 19.7877551,8.63673469 19.5755102,8.63673469 Z M16.0408163,0.808163265 C16.2530612,0.848979592 16.4653061,1.10612245 16.4653061,1.44489796 L16.4653061,3.74285714 L4.72244898,3.74285714 L16.0408163,0.808163265 Z M18.2571429,18.555102 C18.2571429,18.8938776 18,19.1918367 17.6612245,19.1918367 L1.40408163,19.1918367 C1.06530612,19.1918367 0.808163265,18.8938776 0.808163265,18.555102 L0.808163265,5.19183673 C0.808163265,4.85306122 1.06530612,4.55510204 1.40408163,4.55510204 L17.6163265,4.55510204 C17.955102,4.55510204 18.2122449,4.85306122 18.2122449,5.19183673 L18.2122449,8.63673469 L14,8.63673469 C12.2122449,8.63673469 10.8081633,10.0408163 10.8081633,11.8285714 C10.8081633,13.6163265 12.2530612,15.0204082 14,15.0204082 L18.2571429,15.0204082 L18.2571429,18.555102 Z M19.1469388,14.2122449 L14,14.2122449 C12.722449,14.2122449 11.6612245,13.1469388 11.6612245,11.8734694 C11.6612245,10.6 12.7265306,9.53469388 14,9.53469388 L19.1469388,9.53469388 L19.1469388,14.2122449 Z" id="Shape"></path>
                        <path d="M13.955102,12.3387755 L14.3387755,12.3387755 C14.5510204,12.3387755 14.7632653,12.1673469 14.7632653,11.9142857 C14.7632653,11.6571429 14.5510204,11.4897959 14.3387755,11.4897959 L13.9591837,11.4897959 C13.7020408,11.4897959 13.5306122,11.6612245 13.5306122,11.9142857 C13.5306122,12.1714286 13.7428571,12.3387755 13.955102,12.3387755 Z" id="Path"></path>
                    </g>
                </g>
            </g>
        </g>
    </g>
</svg>