<?xml version="1.0" encoding="UTF-8"?>
<svg width="20px" height="20px" viewBox="0 0 20 20" version="1.1" xmlns="http://www.w3.org/2000/svg" xmlns:xlink="http://www.w3.org/1999/xlink">
    <!-- Generator: sketchtool 53.2 (72643) - https://sketchapp.com -->
    <title>45CD62E9-7738-41FA-AC7A-01589440C401</title>
    <desc>Created with sketchtool.</desc>
    <g id="AutomaticAds" stroke="none" stroke-width="1" fill="none" fill-rule="evenodd">
        <g id="AutomaticAds-5" transform="translate(-366.000000, -526.000000)" fill="#556CE7" fill-rule="nonzero">
            <g id="Group-7" transform="translate(286.000000, 91.000000)">
                <g id="icon-information" transform="translate(80.000000, 435.000000)">
                    <path d="M8.85844749,6.52054795 C8.89497717,6.59360731 8.93150685,6.66666667 8.96803653,6.72146119 C9.00456621,6.77625571 9.05936073,6.83105023 9.09589041,6.88584475 C9.15068493,6.94063927 9.20547945,6.99543379 9.27853881,7.05022831 C9.33333333,7.08675799 9.40639269,7.14155251 9.49771689,7.15981735 C9.57077626,7.19634703 9.64383562,7.21461187 9.73515982,7.23287671 C9.82648402,7.25114155 9.89954338,7.25114155 9.97260274,7.25114155 C10.0456621,7.25114155 10.1369863,7.25114155 10.2100457,7.23287671 C10.283105,7.21461187 10.3561644,7.19634703 10.4109589,7.15981735 L10.4292237,7.15981735 C10.5022831,7.12328767 10.5753425,7.08675799 10.6484018,7.03196347 C10.7031963,6.99543379 10.7579909,6.94063927 10.8127854,6.88584475 L10.8310502,6.86757991 C10.8858447,6.81278539 10.9223744,6.75799087 10.9589041,6.70319635 C10.9954338,6.64840183 11.0319635,6.59360731 11.0502283,6.52054795 C11.0502283,6.50228311 11.0502283,6.50228311 11.0684932,6.48401826 C11.1050228,6.4109589 11.1232877,6.3196347 11.1415525,6.24657534 C11.1598174,6.17351598 11.1598174,6.08219178 11.1598174,6.00913242 C11.1598174,5.93607306 11.1598174,5.84474886 11.1415525,5.7716895 C11.1232877,5.69863014 11.1050228,5.62557078 11.0684932,5.53424658 C11.0136986,5.40639269 10.9406393,5.29680365 10.8493151,5.20547945 C10.8310502,5.18721461 10.8310502,5.18721461 10.8127854,5.16894977 C10.7579909,5.11415525 10.7031963,5.07762557 10.630137,5.02283105 C10.5570776,4.98630137 10.5022831,4.94977169 10.4292237,4.91324201 C10.3561644,4.87671233 10.283105,4.85844749 10.2100457,4.84018265 C10.1187215,4.82191781 10.0456621,4.82191781 9.97260274,4.82191781 C9.89954338,4.82191781 9.80821918,4.82191781 9.73515982,4.84018265 C9.66210046,4.85844749 9.5890411,4.87671233 9.51598174,4.91324201 L9.49771689,4.91324201 C9.42465753,4.94977169 9.35159817,4.98630137 9.29680365,5.02283105 C9.22374429,5.07762557 9.16894977,5.11415525 9.11415525,5.16894977 C9.05936073,5.22374429 9.00456621,5.27853881 8.96803653,5.33333333 C8.93150685,5.38812785 8.89497717,5.46118721 8.85844749,5.53424658 C8.82191781,5.60730594 8.80365297,5.6803653 8.78538813,5.75342466 C8.76712329,5.84474886 8.76712329,5.91780822 8.76712329,5.99086758 C8.76712329,6.06392694 8.76712329,6.15525114 8.78538813,6.2283105 C8.80365297,6.37442922 8.84018265,6.44748858 8.85844749,6.52054795 Z" id="Path"></path>
                    <path d="M11.3972603,13.2054795 L10.9771689,13.2054795 L10.9771689,8.73059361 C10.9771689,8.47488584 10.7762557,8.25570776 10.5022831,8.25570776 L8.58447489,8.25570776 C8.32876712,8.25570776 8.10958904,8.456621 8.10958904,8.73059361 L8.10958904,9.71689498 C8.10958904,9.97260274 8.31050228,10.1917808 8.58447489,10.1917808 L8.96803653,10.1917808 L8.96803653,13.2237443 L8.58447489,13.2237443 C8.32876712,13.2237443 8.10958904,13.4246575 8.10958904,13.6986301 L8.10958904,14.6849315 C8.10958904,14.9406393 8.31050228,15.1598174 8.58447489,15.1598174 L11.3972603,15.1598174 C11.652968,15.1598174 11.8721461,14.9589041 11.8721461,14.6849315 L11.8721461,13.6986301 C11.8721461,13.4246575 11.652968,13.2054795 11.3972603,13.2054795 Z" id="Path"></path>
                    <path d="M9.99086758,0 C4.47488584,0 0,4.47488584 0,9.99086758 C0,15.5068493 4.47488584,19.9817352 9.99086758,19.9817352 C15.5068493,19.9817352 19.9817352,15.5068493 19.9817352,9.99086758 C19.9817352,4.47488584 15.5068493,0 9.99086758,0 Z M9.99086758,18.6666667 C5.20547945,18.6666667 1.31506849,14.7762557 1.31506849,9.99086758 C1.31506849,5.20547945 5.20547945,1.31506849 9.99086758,1.31506849 C14.7762557,1.31506849 18.6666667,5.20547945 18.6666667,9.99086758 C18.6666667,14.7762557 14.7762557,18.6666667 9.99086758,18.6666667 Z" id="Shape"></path>
                </g>
            </g>
        </g>
    </g>
</svg>