<?xml version="1.0" encoding="UTF-8"?>
<svg width="60px" height="60px" viewBox="0 0 60 60" version="1.1" xmlns="http://www.w3.org/2000/svg">
    <!-- Generator: sketchtool 53.2 (72643) - https://sketchapp.com -->
    <title>1ECC8349-4E2B-4907-A35A-3A9F742330BA</title>
    <desc>Created with sketchtool.</desc>
    <g id="ProductDetails-Deposit" stroke="none" stroke-width="1" fill="none" fill-rule="evenodd">
        <g id="ProductDetails-Deposit-1" transform="translate(-740.000000, -1549.000000)">
            <g id="icon-empty-variation" transform="translate(740.000000, 1549.000000)">
                <circle id="Oval-Copy-2" fill="#F4F5F7" cx="30" cy="30" r="30"></circle>
                <g id="Group" transform="translate(15.428571, 15.428571)" fill="#DADADA" fill-rule="nonzero">
                    <path d="M10.8687787,-1.13686838e-13 L3.04732112,-1.13686838e-13 C1.35436494,-1.13686838e-13 0,1.35436494 0,3.04732112 L0,10.8687787 C0,12.5617348 1.35436494,13.9160998 3.04732112,13.9160998 L10.8687787,13.9160998 C12.5617348,13.9160998 13.9160998,12.5617348 13.9160998,10.8687787 L13.9160998,3.04732112 C13.9160998,1.38822406 12.5617348,-1.13686838e-13 10.8687787,-1.13686838e-13 Z M12.5617348,10.8687787 C12.5617348,11.8168341 11.8168341,12.5617348 10.8687787,12.5617348 L3.04732112,12.5617348 C2.09926566,12.5617348 1.35436494,11.8168341 1.35436494,10.8687787 L1.35436494,3.04732112 C1.35436494,2.09926566 2.09926566,1.35436494 3.04732112,1.35436494 L10.8687787,1.35436494 C11.8168341,1.35436494 12.5617348,2.09926566 12.5617348,3.04732112 L12.5617348,10.8687787 Z" id="Shape"></path>
                    <path d="M26.095536,-1.13686838e-13 L18.2740785,-1.13686838e-13 C16.5811223,-1.13686838e-13 15.2267574,1.35436494 15.2267574,3.04732112 L15.2267574,10.8687787 C15.2267574,12.5617348 16.5811223,13.9160998 18.2740785,13.9160998 L26.095536,13.9160998 C27.7884922,13.9160998 29.1428571,12.5617348 29.1428571,10.8687787 L29.1428571,3.04732112 C29.1428571,1.38822406 27.7884922,-1.13686838e-13 26.095536,-1.13686838e-13 Z M27.7884922,10.8687787 C27.7884922,11.8168341 27.0435915,12.5617348 26.095536,12.5617348 L18.2740785,12.5617348 C17.326023,12.5617348 16.5811223,11.8168341 16.5811223,10.8687787 L16.5811223,3.04732112 C16.5811223,2.09926566 17.326023,1.35436494 18.2740785,1.35436494 L26.095536,1.35436494 C27.0435915,1.35436494 27.7884922,2.09926566 27.7884922,3.04732112 L27.7884922,10.8687787 Z" id="Shape"></path>
                    <path d="M10.8687787,15.2267574 L3.04732112,15.2267574 C1.35436494,15.2267574 0,16.5811223 0,18.2740785 L0,26.095536 C0,27.7884922 1.35436494,29.1428571 3.04732112,29.1428571 L10.8687787,29.1428571 C12.5617348,29.1428571 13.9160998,27.7884922 13.9160998,26.095536 L13.9160998,18.2740785 C13.9160998,16.6149814 12.5617348,15.2267574 10.8687787,15.2267574 Z M12.5617348,26.095536 C12.5617348,27.0435915 11.8168341,27.7884922 10.8687787,27.7884922 L3.04732112,27.7884922 C2.09926566,27.7884922 1.35436494,27.0435915 1.35436494,26.095536 L1.35436494,18.2740785 C1.35436494,17.326023 2.09926566,16.5811223 3.04732112,16.5811223 L10.8687787,16.5811223 C11.8168341,16.5811223 12.5617348,17.326023 12.5617348,18.2740785 L12.5617348,26.095536 Z" id="Shape"></path>
                    <path d="M26.095536,15.2267574 L18.2740785,15.2267574 C16.5811223,15.2267574 15.2267574,16.5811223 15.2267574,18.2740785 L15.2267574,26.095536 C15.2267574,27.7884922 16.5811223,29.1428571 18.2740785,29.1428571 L26.095536,29.1428571 C27.7884922,29.1428571 29.1428571,27.7884922 29.1428571,26.095536 L29.1428571,18.2740785 C29.1428571,16.6149814 27.7884922,15.2267574 26.095536,15.2267574 Z M27.7884922,26.095536 C27.7884922,27.0435915 27.0435915,27.7884922 26.095536,27.7884922 L18.2740785,27.7884922 C17.326023,27.7884922 16.5811223,27.0435915 16.5811223,26.095536 L16.5811223,18.2740785 C16.5811223,17.326023 17.326023,16.5811223 18.2740785,16.5811223 L26.095536,16.5811223 C27.0435915,16.5811223 27.7884922,17.326023 27.7884922,18.2740785 L27.7884922,26.095536 Z" id="Shape"></path>
                </g>
            </g>
        </g>
    </g>
</svg>
