<svg id="icon-theme-arrow-down" xmlns="http://www.w3.org/2000/svg" width="20" height="18" viewBox="0 0 14.912 22.359">
    <path id="Icon_ionic-ios-arrow-round-down" data-name="Icon ionic-ios-arrow-round-up"
          d="M14.627,8.1a1.015,1.015,0,0,1-1.429.008L8.468,3.394V21.357a1.01,1.01,0,0,1-2.019,0V3.394L1.719,8.116A1.022,1.022,0,0,1,.29,8.108,1,1,0,0,1,.3,6.687L6.744.287h0a1.134,1.134,0,0,1,.318-.21A.964.964,0,0,1,7.451,0a1.012,1.012,0,0,1,.707.287l6.446,6.4A.989.989,0,0,1,14.627,8.1Z"
          transform="translate(14.912 22.359) rotate(180)" fill="#fff"></path>
</svg>