<?xml version="1.0" encoding="UTF-8"?>
<svg width="18px" height="18px" viewBox="0 0 18 18" version="1.1" xmlns="http://www.w3.org/2000/svg" xmlns:xlink="http://www.w3.org/1999/xlink">
    <!-- Generator: Sketch 53.2 (72643) - https://sketchapp.com -->
    <title>icon-reservation-inactive</title>
    <desc>Created with Sketch.</desc>
    <g id="BookingList-v.1" stroke="none" stroke-width="1" fill="none" fill-rule="evenodd">
        <path d="M5.34228244,12.2976598 C5.07093029,12.0239752 5.07185321,11.5824305 5.34434709,11.3098827 C5.61684097,11.0373349 6.05838546,11.0363245 6.33212377,11.3076225 L7.84892276,12.8244215 L12.0678639,8.60547428 C12.2446192,8.42825328 12.5025532,8.35890218 12.7443499,8.42358649 C12.9861466,8.4882708 13.1750015,8.67714476 13.2396614,8.918948 C13.3043213,9.16075124 13.2349441,9.41867826 13.0577053,9.59541562 L8.34384243,14.3092805 C8.21260203,14.4405699 8.03457769,14.5143398 7.84894106,14.5143582 C7.66330443,14.5143766 7.48526549,14.4406419 7.35399909,14.3093785 L5.34228244,12.2976598 Z M14.4085104,2.29147851 L14.4085104,0.908531431 C14.4085104,0.583944418 14.2353453,0.284013643 13.9542447,0.121720133 C13.6731441,-0.0405733776 13.3268139,-0.0405733776 13.0457133,0.121720133 C12.7646127,0.284013643 12.5914476,0.583944418 12.5914476,0.908531431 L12.5914476,2.29147851 C12.5914476,2.61606552 12.7646127,2.91599629 13.0457133,3.0782898 C13.3268139,3.24058331 13.6731441,3.24058331 13.9542447,3.0782898 C14.2353453,2.91599629 14.4085104,2.61606552 14.4085104,2.29147851 L14.4085104,2.29147851 Z M17.999988,3.66730759 L17.999988,16.0842793 C18.000073,17.1422043 17.1425343,17.9998962 16.0846093,18 L1.91537873,18 C1.4073423,17.9999581 0.920130743,17.7980994 0.560926806,17.4388314 C0.20172287,17.0795633 -4.87931118e-05,16.5923157 8.85064276e-09,16.0842793 L8.85064276e-09,3.66730759 C-4.87931226e-05,3.15927097 0.201722806,2.67202318 0.560926685,2.31275479 C0.920130564,1.9534864 1.40734211,1.7516273 1.91537873,1.75158487 L2.89135608,1.75158487 L2.89135608,2.29147851 C2.89397151,3.17802661 3.61339604,3.89533187 4.499948,3.89533187 C5.38649996,3.89533187 6.10592449,3.17802661 6.10853992,2.29147851 L6.10853992,1.75158487 L11.8913501,1.75158487 L11.8913501,2.29147851 C11.8939655,3.17802661 12.61339,3.89533187 13.499942,3.89533187 C14.3864939,3.89533187 15.1059185,3.17802661 15.1085339,2.29147851 L15.1085339,1.75158487 L16.0846093,1.75158487 C17.1425346,1.7516898 18.000073,2.60938225 17.999988,3.66730759 Z M16.9999886,5.91497408 L0.99999934,5.91497408 L0.99999934,16.0842793 C1.00052721,16.5896365 1.41002165,16.9992025 1.91537873,16.9998187 L16.0846093,16.9998187 C16.5899663,16.9992025 16.9994608,16.5896365 16.9999886,16.0842793 L16.9999886,5.91497408 Z M5.40851639,2.29147851 L5.40851639,0.908531431 C5.40851639,0.406763398 5.00175303,3.82917351e-08 4.499985,3.82917351e-08 C3.99821697,3.82917351e-08 3.59145361,0.406763398 3.59145361,0.908531431 L3.59145361,2.29147851 C3.59145361,2.79324654 3.99821697,3.2000099 4.499985,3.2000099 C5.00175303,3.2000099 5.40851639,2.79324654 5.40851639,2.29147851 L5.40851639,2.29147851 Z" id="icon-reservation-inactive" fill="#979797" fill-rule="nonzero"></path>
    </g>
</svg>