<svg width="21" height="22" viewBox="0 0 21 22" fill="none" xmlns="http://www.w3.org/2000/svg">
<path d="M15.7056 5.59581C15.3145 5.20313 14.68 5.20307 14.2887 5.59575C13.8975 5.9885 13.8974 6.62522 14.2887 7.01797L17.254 9.9945H4.97783C4.42449 9.9945 3.97589 10.4448 3.97589 11.0002C3.97589 11.5556 4.42449 12.0058 4.97783 12.0058H17.2539L14.2887 14.9821C13.8974 15.3749 13.8974 16.0116 14.2887 16.4043C14.4843 16.6007 14.7408 16.6989 14.9972 16.6989C15.2536 16.6989 15.5101 16.6007 15.7056 16.4043L20.3812 11.7113C20.7725 11.3186 20.7725 10.6818 20.3812 10.2891L15.7056 5.59581Z" fill="white"/>
<path d="M9.60843 22C10.1574 22 10.6024 21.5523 10.6024 21C10.6024 20.4477 10.1574 20 9.60843 20H1.98795V2H9.60843C10.1574 2 10.6024 1.55227 10.6024 1C10.6024 0.447733 10.1574 0 9.60843 0H0.993976C0.445036 0 0 0.447733 0 1V21C0 21.5523 0.445036 22 0.993976 22H9.60843Z" fill="white"/>
</svg>
