<svg id="Group_49" data-name="Group 49" xmlns="http://www.w3.org/2000/svg" width="40.896" height="42.621" viewBox="0 0 40.896 42.621">
  <g id="Group_41" data-name="Group 41" transform="translate(0)">
    <path id="Path_76" data-name="Path 76" d="M49.283,21.86a1.249,1.249,0,0,1,0-1.1l1.59-3.252a3.7,3.7,0,0,0-1.6-4.913l-3.2-1.7A1.249,1.249,0,0,1,45.43,10L44.8,6.437A3.7,3.7,0,0,0,40.625,3.4l-3.584.507a1.249,1.249,0,0,1-1.05-.341l-2.6-2.517a3.7,3.7,0,0,0-5.166,0l-2.6,2.517a1.249,1.249,0,0,1-1.05.341L20.989,3.4a3.7,3.7,0,0,0-4.179,3.037L16.184,10a1.249,1.249,0,0,1-.649.893l-3.2,1.7a3.7,3.7,0,0,0-1.6,4.913l1.59,3.252a1.249,1.249,0,0,1,0,1.1l-1.59,3.252a3.7,3.7,0,0,0,1.6,4.913l3.2,1.7a1.249,1.249,0,0,1,.649.893l.625,3.565a3.7,3.7,0,0,0,3.647,3.074,3.8,3.8,0,0,0,.532-.038l3.584-.507a1.249,1.249,0,0,1,1.05.341l2.6,2.517a3.7,3.7,0,0,0,5.166,0l2.6-2.517a1.25,1.25,0,0,1,1.05-.341l3.584.507A3.7,3.7,0,0,0,44.8,36.18l.625-3.565a1.249,1.249,0,0,1,.649-.893l3.2-1.7a3.7,3.7,0,0,0,1.6-4.913ZM25.89,10.247a4.507,4.507,0,1,1-4.507,4.507A4.512,4.512,0,0,1,25.89,10.247ZM23.564,30.289a1.229,1.229,0,1,1-1.738-1.738L38.049,12.328a1.229,1.229,0,0,1,1.738,1.738ZM35.723,32.37a4.507,4.507,0,1,1,4.507-4.507A4.512,4.512,0,0,1,35.723,32.37Z" transform="translate(-10.359 0.002)" fill="#f5bb6c"/>
  </g>
</svg>
