<svg xmlns="http://www.w3.org/2000/svg" width="27" height="35.002" viewBox="0 0 27 35.002">
  <g id="Group_731" data-name="Group 731" transform="translate(-1565 -489.998)">
    <path id="Subtraction_8" data-name="Subtraction 8" d="M17538.053,13678.6h-6.605a1.264,1.264,0,0,1,0-2.527h2.047v-3.188a10.7,10.7,0,0,1-6.75-3.532,10.812,10.812,0,0,1-2.744-7.213v-1.009a1.255,1.255,0,1,1,2.51,0v1.009a8.227,8.227,0,0,0,14.3,5.61v3.32a10.705,10.705,0,0,1-4.811,1.814v3.188h2.049a1.264,1.264,0,0,1,0,2.527Zm-3.3-10.569a6.05,6.05,0,0,1-6.025-6.06v-11.911a6.025,6.025,0,1,1,12.049,0v11.951A6.029,6.029,0,0,1,17534.75,13668.034Zm0-21.508a3.53,3.53,0,0,0-3.514,3.537v11.911a3.514,3.514,0,1,0,7.027.04v-11.951a3.534,3.534,0,0,0-1.029-2.5A3.484,3.484,0,0,0,17534.75,13646.526Z" transform="translate(-15959 -13154.001)" fill="#3f51b5"/>
    <rect id="Rectangle_991" data-name="Rectangle 991" width="3" height="16" rx="1.5" transform="translate(1583 509)" fill="#3f51b5"/>
    <rect id="Rectangle_994" data-name="Rectangle 994" width="3" height="16" rx="1.5" transform="translate(1589 509)" fill="#3f51b5"/>
  </g>
</svg>
