<svg width="20" height="20" viewBox="0 0 20 20" fill="none" xmlns="http://www.w3.org/2000/svg">
<g clip-path="url(#clip0)">
<path d="M18.637 16.3637H15.4552C13.4502 16.3637 11.8189 14.7324 11.8189 12.7274C11.8189 10.7224 13.4502 9.09108 15.4552 9.09108H18.637C18.8882 9.09108 19.0916 8.88778 19.0916 8.63653V7.27292C19.0916 6.31975 18.3522 5.54458 17.4181 5.46941L14.8076 0.909826C14.5657 0.488128 14.1751 0.186727 13.7077 0.0615729C13.2425 -0.062729 12.756 0.00255401 12.3396 0.244894L3.39077 5.45475H1.81908C0.816357 5.45475 0.000915527 6.27015 0.000915527 7.27292V18.1818C0.000915527 19.1846 0.816314 20 1.81908 20H17.2734C18.2761 20 19.0916 19.1846 19.0916 18.1818V16.8182C19.0916 16.567 18.8882 16.3637 18.637 16.3637ZM15.3714 3.72484L16.3618 5.45475H12.4L15.3714 3.72484ZM5.19756 5.45475L12.7972 1.03055C13.0028 0.910252 13.2429 0.878293 13.4724 0.93957C13.7046 1.0017 13.8981 1.15174 14.0184 1.36169L14.0193 1.36336L6.99204 5.45475H5.19756Z" fill="#979797"/>
<path d="M18.6362 10H15.4544C13.9505 10 12.7272 11.2233 12.7272 12.7272C12.7272 14.2311 13.9505 15.4545 15.4544 15.4545H18.6362C19.3881 15.4545 19.9998 14.8428 19.9998 14.0909V11.3636C19.9998 10.6117 19.3881 10 18.6362 10ZM15.4544 13.6363C14.9533 13.6363 14.5453 13.2284 14.5453 12.7272C14.5453 12.2261 14.9533 11.8182 15.4544 11.8182C15.9555 11.8182 16.3635 12.2261 16.3635 12.7272C16.3635 13.2284 15.9556 13.6363 15.4544 13.6363Z" fill="#979797"/>
</g>
<defs>
<clipPath id="clip0">
<rect width="20" height="20" fill="white"/>
</clipPath>
</defs>
</svg>
