<svg xmlns="http://www.w3.org/2000/svg" width="32.656" height="35.687" viewBox="0 0 32.656 35.687">
  <g id="Group_665" data-name="Group 665" transform="translate(-1568 -298.999)">
    <path id="Subtraction_4" data-name="Subtraction 4" d="M14.055,34.6H7.445a1.263,1.263,0,0,1,0-2.525h2.05V28.886a10.72,10.72,0,0,1-6.75-3.531A10.831,10.831,0,0,1,0,18.141V17.131a1.255,1.255,0,1,1,2.51,0v1.011a8.227,8.227,0,0,0,14.305,5.61V27.07a10.7,10.7,0,0,1-4.81,1.816v3.188h2.05a1.263,1.263,0,0,1,0,2.525ZM10.75,24.035a6.05,6.05,0,0,1-6.024-6.061V6.06a6.024,6.024,0,1,1,12.048,0V18.014A6.029,6.029,0,0,1,10.75,24.035Zm0-21.511A3.529,3.529,0,0,0,7.236,6.06V17.972a3.514,3.514,0,1,0,7.027.042V6.06a3.521,3.521,0,0,0-1.03-2.5A3.479,3.479,0,0,0,10.75,2.524ZM21.424,19.447h0l-1.311-.811-1.12-.691v-.814a1.255,1.255,0,1,1,2.51,0v1.011a11,11,0,0,1-.078,1.3Z" transform="translate(1568.001 299.001)" fill="#3f51b5"/>
    <path id="Polygon_1" data-name="Polygon 1" d="M7.7,1.547a1,1,0,0,1,1.743,0l6.862,12.187a1,1,0,0,1-.871,1.491H1.711a1,1,0,0,1-.871-1.491Z" transform="translate(1600.656 317.541) rotate(90)" fill="#3f51b5"/>
  </g>
</svg>
