<?xml version="1.0" encoding="UTF-8"?>
<svg width="22px" height="18px" viewBox="0 0 22 18" version="1.1" xmlns="http://www.w3.org/2000/svg" xmlns:xlink="http://www.w3.org/1999/xlink">
    <!-- Generator: Sketch 53.2 (72643) - https://sketchapp.com -->
    <title>printer</title>
    <desc>Created with Sketch.</desc>
    <g id="v.0" stroke="none" stroke-width="1" fill="none" fill-rule="evenodd">
        <g id="Order-Detail-2" transform="translate(-327.000000, -129.000000)" fill="#90CE51" fill-rule="nonzero">
            <g id="printer" transform="translate(328.000000, 130.000000)">
                <path d="M18.5549318,2.54304094 L14.82846,2.54304094 L14.82846,0.439961014 C14.82846,0.206237817 14.6389084,0.0166861598 14.4051852,0.0166861598 L5.55582846,0.0166861598 C5.32210526,0.0166861598 5.13255361,0.206237817 5.13255361,0.439961014 L5.13255361,2.54307992 L1.40608187,2.54307992 C0.630760234,2.54304094 0,3.17384016 0,3.94916179 L0,10.6874464 C0,11.462768 0.630760234,12.0935673 1.40608187,12.0935673 L5.13255361,12.0935673 L5.13255361,16.1682261 C5.13255361,16.4019493 5.32210526,16.591501 5.55582846,16.591501 L14.4052242,16.591501 C14.6389474,16.591501 14.828499,16.4019493 14.828499,16.1682261 L14.828499,12.0935673 L18.5549708,12.0935673 C19.3302534,12.0935673 19.9610526,11.462807 19.9610526,10.6874464 L19.9610526,3.94916179 C19.9610136,3.17384016 19.3302144,2.54304094 18.5549318,2.54304094 Z M14.8284211,3.38955166 L15.8380507,3.38955166 L15.8380507,4.57415205 L14.8284211,4.57415205 L14.8284211,3.38955166 Z M5.97906433,0.863235867 L13.9819103,0.863235867 L13.9819103,4.57419103 L5.97906433,4.57419103 L5.97906433,0.863235867 Z M4.12292398,3.38959064 L5.13255361,3.38959064 L5.13255361,4.57419103 L4.12292398,4.57419103 L4.12292398,3.38959064 L4.12292398,3.38959064 Z M13.9819493,15.7449513 L5.97906433,15.7449513 L5.97906433,10.1707212 L13.9819493,10.1707212 L13.9819493,15.7449513 L13.9819493,15.7449513 Z M19.1145419,10.6874464 L19.1145029,10.6874464 C19.1145029,10.9960234 18.8634698,11.2470565 18.5549708,11.2470565 L14.82846,11.2470565 L14.82846,10.1707602 L15.6005848,10.1707602 C15.834308,10.1707602 16.0238596,9.98120858 16.0238596,9.74748538 C16.0238596,9.51376218 15.834308,9.32421053 15.6005848,9.32421053 L14.4052242,9.32421053 L5.55582846,9.32421053 L4.36046784,9.32421053 C4.12674464,9.32421053 3.93719298,9.51376218 3.93719298,9.74748538 C3.93719298,9.98120858 4.12674464,10.1707602 4.36046784,10.1707602 L5.13259259,10.1707602 L5.13259259,11.2470565 L1.40608187,11.2470565 C1.09758285,11.2470565 0.846549708,10.9960234 0.846549708,10.6874464 L0.846549708,3.94916179 C0.846549708,3.64062378 1.09758285,3.38955166 1.40608187,3.38955166 L3.27641326,3.38955166 L3.27641326,4.99738791 C3.27641326,5.23111111 3.46592593,5.42066277 3.69968811,5.42066277 L16.2613645,5.42066277 C16.4950877,5.42066277 16.6846394,5.23111111 16.6846394,4.99738791 L16.6846394,3.38955166 L18.5549708,3.38955166 C18.8634698,3.38955166 19.1145419,3.6405848 19.1145419,3.94916179 L19.1145419,10.6874464 Z" id="Shape" stroke="#90CE51" stroke-width="0.4"></path>
                <circle id="Oval" cx="2.68222222" cy="6.87177388" r="1"></circle>
                <path d="M9.85766082,13.3900975 L7.88183236,13.3900975 C7.64810916,13.3900975 7.4585575,13.5795712 7.4585575,13.8133723 C7.4585575,14.0470955 7.64807018,14.2366472 7.88183236,14.2366472 L9.85766082,14.2366472 C10.091384,14.2366472 10.2809357,14.0470955 10.2809357,13.8133723 C10.2809357,13.5795712 10.091384,13.3900975 9.85766082,13.3900975 Z" id="Path"></path>
                <path d="M12.0791813,11.2469006 L7.88183236,11.2469006 C7.64810916,11.2469006 7.4585575,11.4364522 7.4585575,11.6701754 C7.4585575,11.9039376 7.64807018,12.0934503 7.88183236,12.0934503 L12.0791423,12.0934503 C12.3128655,12.0934503 12.5024172,11.9039376 12.5024172,11.6701754 C12.5024172,11.4364522 12.3129045,11.2469006 12.0791813,11.2469006 Z" id="Path"></path>
            </g>
        </g>
    </g>
</svg>