<svg xmlns="http://www.w3.org/2000/svg" width="33.539" height="44.031" viewBox="0 0 33.539 44.031">
  <g id="barcode-scanner" transform="translate(-0.5)">
    <path id="Path_4890" data-name="Path 4890" d="M32.749,0H1.79A1.29,1.29,0,0,0,.5,1.29V23.22a1.29,1.29,0,0,0,1.29,1.29H3.424V21.5a5.173,5.173,0,0,1,5.16-5.16H25.955a5.173,5.173,0,0,1,5.16,5.16v3.01h1.634a1.29,1.29,0,0,0,1.29-1.29V1.29A1.29,1.29,0,0,0,32.749,0ZM8.24,12.47a1.29,1.29,0,0,1-2.58,0V5.59a1.29,1.29,0,0,1,2.58,0ZM13.4,9.03a1.29,1.29,0,1,1-2.58,0V5.59a1.29,1.29,0,1,1,2.58,0Zm5.16,3.44a1.29,1.29,0,1,1-2.58,0V5.59a1.29,1.29,0,1,1,2.58,0Zm5.16-3.44a1.29,1.29,0,1,1-2.58,0V5.59a1.29,1.29,0,1,1,2.58,0Zm5.16,3.44a1.29,1.29,0,1,1-2.58,0V5.59a1.29,1.29,0,1,1,2.58,0Zm0,0" fill="#3f51b5"/>
    <path id="Path_4891" data-name="Path 4891" d="M64.5,312.408a2.59,2.59,0,0,0,2.367,2.571,2.652,2.652,0,0,1,2.445,2.658v7.352a2.388,2.388,0,0,0,2.384,2.384h8.139a2.388,2.388,0,0,0,2.384-2.384v-7.352a2.652,2.652,0,0,1,2.445-2.658,2.59,2.59,0,0,0,2.367-2.571V310H64.5Zm0,0" transform="translate(-58.496 -283.341)" fill="#3f51b5"/>
    <path id="Path_4892" data-name="Path 4892" d="M84.452,220H67.08a2.584,2.584,0,0,0-2.58,2.58v2.58H87.032v-2.58A2.584,2.584,0,0,0,84.452,220Zm0,0" transform="translate(-58.496 -201.08)" fill="#3f51b5"/>
  </g>
</svg>
