<svg width="31" height="28" viewBox="0 0 31 28" fill="none" xmlns="http://www.w3.org/2000/svg">
<path d="M15.821 6.58425C14.7696 6.25506 13.5431 6.58425 12.6669 7.24263C11.7908 7.90101 11.2651 8.88867 11.2651 10.0409C11.2651 10.5347 11.6156 10.864 12.1413 10.864C12.6669 10.864 13.0175 10.5348 13.0175 10.0409C13.0175 9.54714 13.1927 8.88867 13.7183 8.55948C14.244 8.23029 14.7697 8.0657 15.4706 8.23029C16.3467 8.39489 16.8724 9.05336 17.0476 9.71174C17.2228 10.5348 17.0476 11.1932 16.3467 11.6871C14.9449 12.6747 14.244 14.1562 14.244 15.6376C14.244 16.1314 14.5944 16.4607 15.1201 16.4607C15.6458 16.4607 15.9963 16.1315 15.821 15.6376C15.821 14.65 16.5218 13.6623 17.398 13.0039C18.6246 12.0163 19.1503 10.6994 18.7998 9.38255C18.4493 7.9011 17.2228 6.91344 15.821 6.58425Z" fill="#556CE7"/>
<path d="M14.4191 19.9174C14.2439 20.082 14.2439 20.4112 14.2439 20.5758C14.2439 20.7403 14.2439 20.9049 14.4191 21.0695C14.5943 21.2341 14.9448 21.3987 15.12 21.3987C15.2952 21.3987 15.6456 21.2341 15.6456 21.0695C15.8208 21.0695 15.996 20.7403 15.996 20.5758C15.996 20.2466 15.8208 20.082 15.6456 19.9174C15.2952 19.5881 14.7695 19.5881 14.4191 19.9174Z" fill="#556CE7"/>
<path fill-rule="evenodd" clip-rule="evenodd" d="M0.22583 13.9915C0.22583 6.25497 6.88435 0 15.12 0C23.3556 0 30.0142 6.25497 30.0142 13.9915C30.0142 21.728 23.3556 27.983 15.12 27.983C6.88435 27.983 0.22583 21.728 0.22583 13.9915ZM1.97807 13.9915C1.97807 20.7403 7.93573 26.3369 15.12 26.3369C22.3043 26.3369 28.2619 20.7403 28.2619 13.9915C28.2619 7.24263 22.3043 1.64604 15.12 1.64604C7.93573 1.64604 1.97807 7.24263 1.97807 13.9915Z" fill="#556CE7"/>
</svg>
