<?xml version="1.0" encoding="UTF-8"?>
<svg width="20px" height="20px" viewBox="0 0 20 20" version="1.1" xmlns="http://www.w3.org/2000/svg">
    <!-- Generator: Sketch 53.2 (72643) - https://sketchapp.com -->
    <title>direct</title>
    <desc>Created with Sketch.</desc>
    <g id="Symbols" stroke="none" stroke-width="1" fill="none" fill-rule="evenodd">
        <g id="direct" fill="#000000" fill-rule="nonzero">
            <path d="M19.9839063,0.668020833 C19.9830729,0.6646875 19.9818229,0.661354167 19.9809896,0.658020833 C19.9668229,0.591770833 19.9426563,0.527604167 19.9122396,0.465520833 C19.9043229,0.4496875 19.8964063,0.434270833 19.8876563,0.4184375 C19.8518229,0.355520833 19.8101563,0.295104167 19.7564063,0.241354167 C19.7026563,0.187604167 19.6418229,0.1459375 19.5789063,0.110104167 C19.5639063,0.101354167 19.5489063,0.0938541667 19.5330729,0.0859375 C19.4693229,0.0546875 19.4039063,0.0292708333 19.3355729,0.0151041667 C19.3334896,0.0146875 19.3322396,0.0142708333 19.3305729,0.0138541667 C19.2593229,-0.0003125 19.1868229,-0.00239583333 19.1143229,0.0021875 C19.0984896,0.00302083333 19.0826563,0.0046875 19.0668229,0.00677083333 C18.9934896,0.0155208333 18.9205729,0.0309375 18.8509896,0.0592708333 L0.518072917,7.55927083 C0.190989583,7.69302083 -0.01609375,8.0184375 0.000989583333,8.3709375 C0.0180729167,8.72385417 0.255572917,9.02760417 0.594322917,9.12885417 L8.49765625,11.5001042 L10.8684896,19.4034375 C10.9701563,19.7417708 11.2739063,19.9792708 11.6264063,19.9963542 C11.6401563,19.9967708 11.6534896,19.9971875 11.6672396,19.9971875 C12.0039063,19.9971875 12.3097396,19.7938542 12.4384896,19.4792708 L19.9384896,1.1459375 C19.9384896,1.14552083 19.9384896,1.14552083 19.9384896,1.14510417 C19.9664063,1.07677083 19.9814063,1.00552083 19.9901563,0.9334375 C19.9922396,0.915520833 19.9943229,0.898020833 19.9951563,0.880104167 C19.9993229,0.809270833 19.9976563,0.738020833 19.9839063,0.668020833 Z M3.33057292,8.20927083 L15.6489062,3.1696875 L8.92973958,9.88927083 L3.33057292,8.20927083 Z M11.7876563,16.6671875 L10.1080729,11.0676042 L16.8268229,4.34885417 L11.7876563,16.6671875 Z" id="Shape"></path>
            <path d="M7.25598958,12.7413542 C6.93057292,12.4159375 6.40307292,12.4159375 6.07765625,12.7413542 L3.99432292,14.8246875 C3.66890625,15.1501042 3.66890625,15.6776042 3.99432292,16.0030208 C4.15723958,16.1659375 4.37015625,16.2471875 4.58348958,16.2471875 C4.79682292,16.2471875 5.00973958,16.1659375 5.17265625,16.0030208 L7.25598958,13.9196875 C7.58140625,13.5942708 7.58140625,13.0667708 7.25598958,12.7413542 Z" id="Path"></path>
            <path d="M2.67265625,12.7413542 C2.34723958,12.4159375 1.81973958,12.4159375 1.49432292,12.7413542 L0.244322917,13.9913542 C-0.08109375,14.3167708 -0.08109375,14.8442708 0.244322917,15.1696875 C0.407239583,15.3326042 0.62015625,15.4138542 0.833489583,15.4138542 C1.04682292,15.4138542 1.25973958,15.3326042 1.42265625,15.1696875 L2.67265625,13.9196875 C2.99807292,13.5942708 2.99807292,13.0667708 2.67265625,12.7413542 Z" id="Path"></path>
            <path d="M7.25598958,17.3246875 C6.93057292,16.9992708 6.40307292,16.9992708 6.07765625,17.3246875 L4.82765625,18.5746875 C4.50223958,18.9001042 4.50223958,19.4276042 4.82765625,19.7530208 C4.99057292,19.9159375 5.20348958,19.9971875 5.41682292,19.9971875 C5.63015625,19.9971875 5.84307292,19.9159375 6.00598958,19.7530208 L7.25598958,18.5030208 C7.58140625,18.1776042 7.58140625,17.6501042 7.25598958,17.3246875 Z" id="Path"></path>
        </g>
    </g>
</svg>
