<svg width="26" height="26" viewBox="0 0 26 26" fill="none" xmlns="http://www.w3.org/2000/svg">
<g clip-path="url(#clip0)">
<path d="M24.3381 12.494C24.2565 12.4769 24.1794 12.4607 24.1109 12.4429C23.334 12.2409 22.9794 12.1301 22.7172 11.6239L21.7241 9.6133C21.4049 8.99714 20.5807 8.49583 19.8869 8.49583H18.1188V6.17404C18.1188 5.75716 17.7796 5.41797 17.3626 5.41797L5.04792 5.43034C4.64217 5.43034 4.3362 5.75278 4.3362 6.18039V6.86665H1.1815C0.530037 6.8667 0 7.39669 0 8.0482C0 8.69971 0.530037 9.2297 1.1815 9.2297H4.33614V10.3621H2.27069C1.61923 10.3621 1.08919 10.8922 1.08919 11.5436C1.08919 12.1951 1.61923 12.7251 2.27069 12.7251H4.33614V13.8575H3.35988C2.70842 13.8575 2.17839 14.3876 2.17839 15.039C2.17839 15.6905 2.70842 16.2205 3.35988 16.2205H4.33614V17.4049C4.33614 17.8218 4.67534 18.161 5.09222 18.161H6.37321C6.57271 19.5283 7.7528 20.5818 9.17472 20.5818C10.5968 20.5818 11.7769 19.5283 11.9765 18.161H17.1607C17.1876 18.161 17.2152 18.1592 17.2428 18.1574C17.4408 19.5264 18.6216 20.5818 20.0447 20.5818C21.4668 20.5818 22.6469 19.5283 22.8465 18.161H24.6865C25.4108 18.161 26.0001 17.5718 26.0001 16.8475V14.6188C26 12.8427 24.9998 12.6329 24.3381 12.494ZM20.0447 16.7212C20.6125 16.7212 21.0744 17.1829 21.0744 17.7505C21.0744 18.3181 20.6125 18.7798 20.0447 18.7798C19.4772 18.7798 19.0155 18.3181 19.0155 17.7505C19.0155 17.1829 19.4772 16.7212 20.0447 16.7212ZM18.1188 12.3339V9.59239H19.47C19.9893 9.59239 20.6299 9.98206 20.8676 10.4409L21.7514 12.2301C21.7701 12.2663 21.7895 12.3008 21.8097 12.3339H18.1188V12.3339ZM10.2044 17.7504C10.2044 18.318 9.74248 18.7798 9.17472 18.7798C8.60719 18.7798 8.14551 18.318 8.14551 17.7504C8.14551 17.1828 8.60719 16.7211 9.17472 16.7211C9.74248 16.7212 10.2044 17.1829 10.2044 17.7504Z" fill="#979797"/>
</g>
<defs>
<clipPath id="clip0">
<rect width="26" height="26" fill="white"/>
</clipPath>
</defs>
</svg>
