<svg width="157" height="158" viewBox="0 0 157 158" fill="none" xmlns="http://www.w3.org/2000/svg">
<path d="M153.5 3.11884C153.5 3.11884 152.91 19.5869 146.066 38.949L117.67 10.5529C137.032 3.70928 153.5 3.11884 153.5 3.11884Z" fill="#FF5249"/>
<path d="M117.669 10.5529L146.065 38.9491C141.617 51.5471 134.516 65.3689 123.215 76.6699C112.801 87.084 100.273 95.4202 87.1742 101.199L55.4189 69.4439C59.2859 60.6791 64.6824 51.3269 71.8136 42.4703C74.31 39.3712 77.0174 36.3334 79.9482 33.4026C91.2492 22.1016 105.071 15.0011 117.669 10.5529Z" fill="white"/>
<path d="M118.887 37.7315C123.666 42.51 123.666 50.2592 118.887 55.0378C114.109 59.8164 106.363 59.8164 101.581 55.0378C96.8024 50.2561 96.8024 42.51 101.581 37.7315C106.36 32.9529 114.109 32.9529 118.887 37.7315Z" fill="#7BD8E8"/>
<path d="M114.561 85.3215C130.329 108.973 100.813 124.26 84.2773 124.26C92.929 115.608 90.402 104.427 90.402 104.427L87.1745 101.199C95.9393 97.3322 105.291 91.9357 114.148 84.8045L114.561 85.3215Z" fill="#FF5249"/>
<path d="M51.8645 91.85L51.3689 91.3544C49.9065 89.889 49.1876 87.7659 49.7016 85.759C50.9773 80.7907 52.8618 75.2473 55.4193 69.4439L87.1746 101.199C81.3712 103.757 75.8278 105.641 70.8595 106.917C68.8526 107.431 66.7295 106.712 65.2641 105.25L64.7685 104.754L51.8645 91.85Z" fill="#FF5249"/>
<path d="M71.2968 42.0573L71.8138 42.4703C64.6827 51.3269 59.2861 60.6791 55.4192 69.4439L52.1917 66.2164C52.1917 66.2164 41.01 63.6894 32.3584 72.341C32.3584 55.8056 47.6456 26.2898 71.2968 42.0573Z" fill="#FF5249"/>
<path d="M51.8643 91.85L64.7683 104.754C63.8414 108.422 61.6418 112.283 58.3163 115.608C51.1485 122.776 32.3584 124.26 32.3584 124.26C32.3584 124.26 33.8421 105.47 41.01 98.302C44.3355 94.9766 48.1963 92.777 51.8643 91.85Z" fill="#FFDD78"/>
<path d="M82.1915 78.8328C83.3846 77.6366 83.3846 75.7001 82.1915 74.507C80.9953 73.3108 79.0588 73.3108 77.8626 74.507C76.6695 75.7001 76.6695 77.6366 77.8626 78.8328C79.0588 80.0259 80.9953 80.0259 82.1915 78.8328Z" fill="black"/>
<path fill-rule="evenodd" clip-rule="evenodd" d="M121.127 35.5682C127.106 41.5464 127.104 51.2238 121.127 57.201C115.163 63.1647 105.459 63.1623 99.495 57.2016C93.5316 51.2345 93.5319 41.5305 99.4941 35.5682C105.472 29.5904 115.149 29.5907 121.127 35.5682ZM116.801 39.8947C113.214 36.3077 107.407 36.3083 103.821 39.8947C100.243 43.4719 100.244 49.2949 103.821 52.8749C107.401 56.4518 113.224 56.4518 116.801 52.8742C120.388 49.2876 120.387 43.4807 116.801 39.8947Z" fill="black"/>
<path fill-rule="evenodd" clip-rule="evenodd" d="M31.2644 75.1672C31.6428 75.3241 32.0405 75.4003 32.4346 75.4003C33.2309 75.4003 34.0132 75.0892 34.5984 74.5042C40.7423 68.3603 48.3205 68.7445 50.796 69.07L51.8674 70.1414C49.7589 75.1586 48.0604 80.1477 46.8147 85C46.365 86.756 46.5167 88.6142 47.1852 90.3139C44.2397 91.6713 41.3979 93.6645 38.9236 96.1388C31.0487 104.014 29.4496 123.206 29.3854 124.019C29.315 124.912 29.6387 125.79 30.2717 126.423C30.8477 126.999 31.6269 127.319 32.4346 127.319C32.5147 127.319 32.5952 127.316 32.6757 127.31C33.4888 127.246 52.6815 125.647 60.5563 117.772C63.0298 115.298 65.0226 112.457 66.38 109.512C68.1794 110.22 70.0315 110.307 71.697 109.88C76.5472 108.635 81.5356 106.937 86.5534 104.828L87.6248 105.899C87.95 108.375 88.3342 115.953 82.1906 122.097C81.316 122.972 81.0541 124.287 81.5277 125.43C82.0009 126.574 83.1163 127.319 84.3538 127.319C96.4624 127.319 113.391 120.108 119.626 108.458C122.333 103.399 124.177 95.3951 118.298 85.4069C120.79 83.3003 123.191 81.0976 125.455 78.8331C135.557 68.7314 143.487 55.6551 149.026 39.9684C155.946 20.3897 156.608 3.91976 156.633 3.22837C156.663 2.37942 156.339 1.55617 155.739 0.955326C155.138 0.35479 154.318 0.0292837 153.466 0.0614061C152.774 0.0861862 136.305 0.748213 116.727 7.66798C101.039 13.2071 87.9625 21.1377 77.8611 31.2394C75.5976 33.5029 73.3949 35.9032 71.2874 38.3969C61.2994 32.5175 53.2958 34.3611 48.236 37.0688C36.586 43.3036 29.375 60.2324 29.375 72.341C29.3759 73.5782 30.1215 74.6939 31.2644 75.1672ZM56.2299 113.445C52.0234 117.652 42.1557 119.87 35.9188 120.776C36.8249 114.539 39.0438 104.671 43.25 100.465C45.6057 98.1096 48.337 96.3236 51.0824 95.3177L61.3774 105.613C60.3716 108.358 58.5859 111.089 56.2299 113.445ZM67.5039 103.086C68.2663 103.847 69.2918 104.18 70.1771 103.953C73.9918 102.974 77.9064 101.693 81.8599 100.134L56.5612 74.8353C55.0028 78.7881 53.7213 82.7034 52.7414 86.5195C52.5153 87.4034 52.8482 88.4285 53.6112 89.193L61.5402 97.1222L67.5039 103.086ZM114.232 105.571C110.224 113.06 100.132 118.58 90.9349 120.48C93.8672 114.962 94.5137 107.938 93.4423 103.678C93.2309 102.837 92.7328 102.352 92.5659 102.189L92.5658 102.189L92.5654 102.188C92.5363 102.16 92.5174 102.142 92.512 102.133C99.9255 98.5422 106.946 94.2344 113.464 89.2793C116.648 95.0962 116.91 100.567 114.232 105.571ZM123.416 11.8959L144.799 33.279C148.417 21.6302 149.773 11.4951 150.26 6.4354C145.201 6.92244 135.066 8.27739 123.416 11.8959ZM82.1888 35.5658C91.2519 26.5024 102.949 19.2892 116.964 14.097L142.598 39.7313C137.407 53.7461 130.193 65.443 121.129 74.5067C118.373 77.2631 115.404 79.9262 112.306 82.4216C104.86 88.4178 96.6631 93.4968 87.9185 97.54L59.1552 68.7773C63.1983 60.032 68.2773 51.8356 74.2729 44.3897C76.7705 41.2897 79.4333 38.321 82.1888 35.5658ZM67.4155 43.2314C61.5992 40.0476 56.129 39.7852 51.1243 42.4632C43.6352 46.4715 38.1153 56.5637 36.2149 65.7608C44.4275 61.3962 52.5221 63.1372 52.9427 63.2323C53.8313 63.4327 54.3636 63.9814 54.518 64.1405C54.5413 64.1646 54.556 64.1798 54.562 64.1835C58.1527 56.7693 62.4604 49.7483 67.4155 43.2314Z" fill="black"/>
<path d="M64.885 139.403L73.5366 130.749C74.731 129.554 74.7307 127.617 73.536 126.422C72.3408 125.228 70.4036 125.228 69.2093 126.423L60.5577 135.078C59.3633 136.272 59.3636 138.21 60.5583 139.404C61.7535 140.598 63.6907 140.598 64.885 139.403Z" fill="#FFB531"/>
<path d="M21.6175 96.1367L30.2721 87.485C31.4671 86.2907 31.4674 84.3536 30.2731 83.1586C29.0787 81.9637 27.1419 81.9637 25.9466 83.158L17.292 91.8096C16.097 93.004 16.0967 94.9411 17.291 96.1361C18.4851 97.3304 20.4219 97.3316 21.6175 96.1367Z" fill="#FFB531"/>
<path d="M47.5778 130.751L26.8543 151.472C25.6593 152.666 25.6593 154.603 26.854 155.798C28.048 156.993 29.9854 156.993 31.1804 155.798L51.9039 135.078C53.0988 133.883 53.0989 131.946 51.9042 130.751C50.7102 129.557 48.7727 129.557 47.5778 130.751Z" fill="#FFB531"/>
<path d="M23.1041 130.751L2.38063 151.472C1.18568 152.666 1.18568 154.603 2.38032 155.798C3.57436 156.993 5.51179 156.993 6.70675 155.798L27.4303 135.078C28.6252 133.883 28.6252 131.946 27.4306 130.751C26.2362 129.557 24.2988 129.557 23.1041 130.751Z" fill="#FFB531"/>
<path d="M5.22268 129.84L25.9431 109.117C27.1378 107.922 27.1378 105.985 25.9428 104.79C24.7485 103.595 22.8111 103.595 21.6164 104.79L0.895946 125.514C-0.2987 126.709 -0.2987 128.645 0.896252 129.84C2.0909 131.035 4.02803 131.035 5.22268 129.84Z" fill="#FFB531"/>
<path d="M90.8428 70.1784L95.1686 65.8526C96.3633 64.658 96.3633 62.7208 95.1686 61.5259C93.9737 60.3312 92.0372 60.3312 90.8419 61.5259L86.5161 65.8517C85.3215 67.0463 85.3215 68.9835 86.5161 70.1784C87.7111 71.3731 89.6479 71.3731 90.8428 70.1784Z" fill="black"/>
</svg>
