<svg xmlns="http://www.w3.org/2000/svg" width="16" height="10" viewBox="0 0 16 10">
  <g id="symbols" transform="translate(0 -103.337)">
    <path id="Path_212" data-name="Path 212" d="M14.03,111.337H12.213a2.491,2.491,0,0,1-1.706-.672l-2.494-2.328,2.495-2.329a2.489,2.489,0,0,1,1.706-.672h1.817v1l2-1.5-2-1.5v1H12.214a3.485,3.485,0,0,0-2.388.941l-5.77,5.386a2.493,2.493,0,0,1-1.7.673H.032v1H2.351a3.488,3.488,0,0,0,2.386-.941l2.543-2.373L9.824,111.4a3.487,3.487,0,0,0,2.388.941H14.03v1l2-1.5-2-1.5s0,1,0,1Z" transform="translate(-0.031)" fill="#556ce7"/>
    <path id="Path_213" data-name="Path 213" d="M2.32,138.815a2.488,2.488,0,0,1,1.7.672l1.761,1.643.733-.684-1.811-1.69a3.483,3.483,0,0,0-2.385-.941H0v1H2.32Z" transform="translate(0 -33.477)" fill="#556ce7"/>
  </g>
</svg>
