<svg xmlns="http://www.w3.org/2000/svg" width="55.274" height="50.081" viewBox="0 0 55.274 50.081">
  <g id="know-how" transform="translate(-1.113 -7.022)">
    <path id="Path_4945" data-name="Path 4945" d="M57.687,47.806,50.795,40.75a3.3,3.3,0,0,0-2.333-1h-.04c-.059,0-.118.005-.176.008L46.4,37.871a14.094,14.094,0,0,0-1.21-18.284,14.262,14.262,0,0,0-1.117-1.026V13.717a2.7,2.7,0,0,0-2.7-2.7H11.062a2.7,2.7,0,0,0-2.7,2.7v1.175H7.07a1.958,1.958,0,0,0,0,3.915h1.3v2.246H7.07a1.958,1.958,0,0,0,0,3.915h1.3v2.246H7.07a1.958,1.958,0,0,0,0,3.916h1.3v2.246H7.07a1.958,1.958,0,0,0,0,3.916h1.3v2.246H7.07a1.958,1.958,0,0,0,0,3.915h1.3V45.7H7.07a1.958,1.958,0,0,0,0,3.915h1.3v1.945H7.07a1.958,1.958,0,0,0,0,3.915h1.3V56.91A2.437,2.437,0,0,0,10.8,59.345H40.809a3.268,3.268,0,0,0,3.264-3.264V41.74l1.048,1.073c-.005.072-.012.144-.013.216a3.294,3.294,0,0,0,.944,2.355l6.892,7.054a3.293,3.293,0,0,0,2.333,1h.04a3.315,3.315,0,0,0,2.37-5.632Z" transform="translate(-2.242 -2.242)" fill="#e6e7e8"/>
    <path id="Path_4946" data-name="Path 4946" d="M41.519,55.465H11.511a2,2,0,0,1-2-2V10.278a2.257,2.257,0,0,1,2.257-2.257H42.087a2.257,2.257,0,0,1,2.257,2.257V52.64a2.824,2.824,0,0,1-2.825,2.825Z" transform="translate(-4.71 -0.56)" fill="#f8f8f8"/>
    <path id="Path_4947" data-name="Path 4947" d="M42.087,8.021H11.772a2.257,2.257,0,0,0-2.257,2.257V11.6a2.257,2.257,0,0,1,2.257-2.257H42.087A2.257,2.257,0,0,1,44.344,11.6V10.278A2.256,2.256,0,0,0,42.087,8.021Z" transform="translate(-4.71 -0.56)" fill="#fff"/>
    <g id="Group_2027" data-name="Group 2027" transform="translate(1.552 11.332)">
      <path id="Path_4948" data-name="Path 4948" d="M7.1,19.866H3.631a1.518,1.518,0,0,1,0-3.036H7.1a1.518,1.518,0,1,1,0,3.036Z" transform="translate(-2.113 -16.83)" fill="#f8f8f8"/>
      <path id="Path_4949" data-name="Path 4949" d="M7.1,33.886H3.631a1.518,1.518,0,0,1,0-3.036H7.1a1.518,1.518,0,0,1,0,3.036Z" transform="translate(-2.113 -24.689)" fill="#f8f8f8"/>
      <path id="Path_4950" data-name="Path 4950" d="M7.1,47.9H3.631a1.518,1.518,0,1,1,0-3.036H7.1a1.518,1.518,0,1,1,0,3.036Z" transform="translate(-2.113 -32.547)" fill="#f8f8f8"/>
      <path id="Path_4951" data-name="Path 4951" d="M7.1,61.925H3.631a1.518,1.518,0,1,1,0-3.036H7.1a1.518,1.518,0,1,1,0,3.036Z" transform="translate(-2.113 -40.405)" fill="#f8f8f8"/>
      <path id="Path_4952" data-name="Path 4952" d="M7.1,75.944H3.631a1.518,1.518,0,0,1,0-3.036H7.1a1.518,1.518,0,0,1,0,3.036Z" transform="translate(-2.113 -48.263)" fill="#f8f8f8"/>
      <path id="Path_4953" data-name="Path 4953" d="M7.1,89.964H3.631a1.518,1.518,0,1,1,0-3.036H7.1a1.518,1.518,0,1,1,0,3.036Z" transform="translate(-2.113 -56.122)" fill="#f8f8f8"/>
      <path id="Path_4954" data-name="Path 4954" d="M7.1,103.3H3.631a1.518,1.518,0,0,1,0-3.036H7.1a1.518,1.518,0,0,1,0,3.036Z" transform="translate(-2.113 -63.597)" fill="#f8f8f8"/>
    </g>
    <path id="Path_4955" data-name="Path 4955" d="M91.147,71.3A2.859,2.859,0,0,1,92.81,70.5L90.55,68.191a13.314,13.314,0,0,1-2.5,2.438l2.26,2.313A2.859,2.859,0,0,1,91.147,71.3Z" transform="translate(-48.733 -34.287)" fill="#f8f8f8"/>
    <circle id="Ellipse_159" data-name="Ellipse 159" cx="13.653" cy="13.653" r="13.653" transform="translate(12.713 31.304) rotate(-62.743)" fill="#f8f8f8"/>
    <circle id="Ellipse_160" data-name="Ellipse 160" cx="10.467" cy="10.467" r="10.467" transform="translate(17.065 30.084) rotate(-63.332)" fill="#f8f8f8"/>
    <path id="Path_4956" data-name="Path 4956" d="M104.946,81.319l-6.892-7.055a2.876,2.876,0,1,0-4.114,4.019l6.892,7.055a2.876,2.876,0,0,0,4.114-4.019Z" transform="translate(-51.573 -37.206)" fill="#f8f8f8"/>
    <path id="Path_4957" data-name="Path 4957" d="M56.792,35.776a3.805,3.805,0,0,1,.643-2.027,4.936,4.936,0,0,1,1.875-1.7,5.9,5.9,0,0,1,2.875-.674,6.139,6.139,0,0,1,2.7.563,4.375,4.375,0,0,1,1.806,1.532,3.76,3.76,0,0,1,.637,2.106,3.258,3.258,0,0,1-.363,1.569,4.807,4.807,0,0,1-.864,1.164q-.5.49-1.8,1.648a7.3,7.3,0,0,0-.574.574,2.324,2.324,0,0,0-.321.453,2.231,2.231,0,0,0-.163.41c-.038.137-.1.378-.174.721a1.172,1.172,0,0,1-1.253,1.1,1.281,1.281,0,0,1-.922-.358,1.4,1.4,0,0,1-.374-1.064,3.922,3.922,0,0,1,.274-1.532,3.87,3.87,0,0,1,.727-1.137,16.577,16.577,0,0,1,1.222-1.164q.674-.59.974-.89a3.02,3.02,0,0,0,.505-.669,1.615,1.615,0,0,0,.206-.8,1.861,1.861,0,0,0-.627-1.422,2.288,2.288,0,0,0-1.617-.579,2.237,2.237,0,0,0-1.706.584,4.657,4.657,0,0,0-.926,1.722q-.359,1.19-1.359,1.19a1.334,1.334,0,0,1-.995-.416A1.264,1.264,0,0,1,56.792,35.776Zm5.139,11.543a1.658,1.658,0,0,1-1.122-.416,1.459,1.459,0,0,1-.479-1.164,1.5,1.5,0,0,1,.463-1.116,1.565,1.565,0,0,1,1.138-.453A1.546,1.546,0,0,1,63.5,45.739a1.47,1.47,0,0,1-.474,1.158A1.6,1.6,0,0,1,61.931,47.319Z" transform="translate(-31.21 -13.65)" fill="#f8f8f8"/>
    <path id="Path_4958" data-name="Path 4958" d="M61.5,114.978H56.231a.439.439,0,1,0,0,.879H61.5a.439.439,0,1,0,0-.879Z" transform="translate(-30.649 -60.513)" fill="#3a2c60"/>
    <path id="Path_4959" data-name="Path 4959" d="M28.827,88.29H48.669a.439.439,0,0,0,0-.879H28.827a.439.439,0,1,0,0,.879Z" transform="translate(-15.288 -45.06)" fill="#3a2c60"/>
    <path id="Path_4960" data-name="Path 4960" d="M39.627,100.365h-10.8a.439.439,0,0,0,0,.879h10.8a.439.439,0,0,0,0-.879Z" transform="translate(-15.288 -52.322)" fill="#3a2c60"/>
    <path id="Path_4961" data-name="Path 4961" d="M63.269,27.4A10.907,10.907,0,1,0,55.34,45.925h.131a10.907,10.907,0,0,0,7.8-18.529Zm-.794,14.795a9.958,9.958,0,0,1-7,2.855h-.12a10.028,10.028,0,1,1,7.124-2.854Z" transform="translate(-24.356 -9.583)" fill="#3a2c60"/>
    <path id="Path_4962" data-name="Path 4962" d="M53.687,43.806l-6.892-7.055a3.3,3.3,0,0,0-2.547-.989L42.4,33.872a14.083,14.083,0,0,0-2.327-19.309V9.718a2.7,2.7,0,0,0-2.7-2.7H7.062a2.7,2.7,0,0,0-2.7,2.7v1.174H3.07a1.958,1.958,0,0,0,0,3.916h1.3v2.246H3.07a1.958,1.958,0,0,0,0,3.916h1.3v2.246H3.07a1.958,1.958,0,0,0,0,3.916h1.3v2.246H3.07a1.958,1.958,0,0,0,0,3.915h1.3v2.246H3.07a1.958,1.958,0,0,0,0,3.915h1.3V41.7H3.07a1.958,1.958,0,0,0,0,3.915h1.3v1.945H3.07a1.958,1.958,0,0,0,0,3.915h1.3V52.91A2.437,2.437,0,0,0,6.8,55.345H23.309a.439.439,0,1,0,0-.879H6.8A1.558,1.558,0,0,1,5.245,52.91V51.474h1.3a1.958,1.958,0,1,0,0-3.915h-1.3V45.614h1.3a1.958,1.958,0,1,0,0-3.915h-1.3V39.453h1.3a1.958,1.958,0,1,0,0-3.915h-1.3V33.292h1.3a1.958,1.958,0,1,0,0-3.915h-1.3V27.131h1.3a1.958,1.958,0,1,0,0-3.916h-1.3V20.969h1.3a1.958,1.958,0,0,0,0-3.916h-1.3V14.808h1.3a1.958,1.958,0,0,0,0-3.916h-1.3V9.718A1.819,1.819,0,0,1,7.062,7.9H37.378a1.819,1.819,0,0,1,1.817,1.817V13.9a14.126,14.126,0,0,0-16.158-.009h-9.5a.439.439,0,0,0,0,.879h8.369c-.219.189-.436.384-.646.589a14.087,14.087,0,0,0-2.974,4.224H13.539a.439.439,0,0,0,0,.879H17.92a14.1,14.1,0,0,0-.9,4.813h-3.48a.439.439,0,1,0,0,.879h3.5a14.007,14.007,0,0,0,1.106,4.814H13.539a.439.439,0,1,0,0,.879h5.015a14.239,14.239,0,0,0,4.028,4.814H13.539a.439.439,0,1,0,0,.879H23.882a14,14,0,0,0,7.064,1.991h.169a13.981,13.981,0,0,0,8.08-2.55v15.1a2.388,2.388,0,0,1-2.385,2.385H32.941a.439.439,0,0,0,0,.879h3.869a3.268,3.268,0,0,0,3.264-3.264V37.741l1.049,1.074a3.3,3.3,0,0,0,.929,2.57l6.892,7.055a3.294,3.294,0,0,0,2.333,1h.04a3.315,3.315,0,0,0,2.37-5.631ZM7.619,49.517A1.08,1.08,0,0,1,6.54,50.6H3.07a1.079,1.079,0,0,1,0-2.157H6.54A1.08,1.08,0,0,1,7.619,49.517Zm0-5.86A1.08,1.08,0,0,1,6.54,44.735H3.07a1.079,1.079,0,0,1,0-2.157H6.54A1.08,1.08,0,0,1,7.619,43.656Zm0-6.161A1.08,1.08,0,0,1,6.54,38.573H3.07a1.079,1.079,0,0,1,0-2.157H6.54A1.081,1.081,0,0,1,7.619,37.495Zm0-6.161A1.08,1.08,0,0,1,6.54,32.412H3.07a1.079,1.079,0,0,1,0-2.157H6.54A1.08,1.08,0,0,1,7.619,31.333Zm0-6.161A1.08,1.08,0,0,1,6.54,26.251H3.07a1.079,1.079,0,0,1,0-2.158H6.54A1.08,1.08,0,0,1,7.619,25.173Zm0-6.161A1.08,1.08,0,0,1,6.54,20.09H3.07a1.079,1.079,0,0,1,0-2.158H6.54a1.081,1.081,0,0,1,1.079,1.079Zm0-6.161A1.08,1.08,0,0,1,6.54,13.929H3.07a1.079,1.079,0,0,1,0-2.158H6.54A1.08,1.08,0,0,1,7.619,12.85ZM21.659,34.67a13.214,13.214,0,1,1,18.686.219,13.229,13.229,0,0,1-18.686-.219ZM39.98,36.387q.506-.411.979-.871t.889-.953l1.381,1.414A3.3,3.3,0,0,0,41.361,37.8ZM53.018,47.865a2.418,2.418,0,0,1-1.7.693h-.029a2.421,2.421,0,0,1-1.714-.734L42.681,40.77a2.436,2.436,0,0,1,3.486-3.4l6.892,7.055a2.436,2.436,0,0,1-.041,3.445Z" fill="#3a2c60"/>
    <path id="Path_4963" data-name="Path 4963" d="M65.885,59.491a2,2,0,0,0-1.445.578,1.932,1.932,0,0,0-.6,1.43,1.886,1.886,0,0,0,.63,1.5,2.1,2.1,0,0,0,1.41.523,2.032,2.032,0,0,0,1.387-.533,1.9,1.9,0,0,0,.621-1.487,1.985,1.985,0,0,0-2.009-2.008Zm.8,2.839a1.165,1.165,0,0,1-.8.31,1.221,1.221,0,0,1-.834-.309,1.034,1.034,0,0,1-.327-.832,1.068,1.068,0,0,1,.33-.8,1.135,1.135,0,0,1,.831-.328A1.107,1.107,0,0,1,67.014,61.5a1.046,1.046,0,0,1-.327.831Z" transform="translate(-35.163 -29.41)" fill="#3a2c60"/>
    <path id="Path_4964" data-name="Path 4964" d="M64.511,30.981a6.6,6.6,0,0,0-2.887-.607,6.357,6.357,0,0,0-3.086.728A5.392,5.392,0,0,0,56.5,32.955a4.253,4.253,0,0,0-.709,2.26,1.7,1.7,0,0,0,.53,1.207,1.765,1.765,0,0,0,1.31.549,1.8,1.8,0,0,0,1.776-1.491,4.239,4.239,0,0,1,.831-1.56,2.237,2.237,0,0,1,2.7.017,1.427,1.427,0,0,1,.485,1.1,1.169,1.169,0,0,1-.15.586,2.6,2.6,0,0,1-.432.571c-.2.2-.517.488-.954.871a17.157,17.157,0,0,0-1.254,1.2,4.175,4.175,0,0,0-1.118,2.969,1.829,1.829,0,0,0,.51,1.381,1.711,1.711,0,0,0,1.225.48,1.6,1.6,0,0,0,1.682-1.438c.075-.334.131-.567.168-.7a1.724,1.724,0,0,1,.132-.33,1.9,1.9,0,0,1,.261-.364,6.846,6.846,0,0,1,.535-.536c.861-.77,1.47-1.329,1.811-1.662a5.271,5.271,0,0,0,.943-1.269,3.7,3.7,0,0,0,.416-1.778,4.208,4.208,0,0,0-.709-2.348,4.834,4.834,0,0,0-1.983-1.687Zm1.5,5.4a4.389,4.389,0,0,1-.784,1.058c-.331.324-.931.874-1.785,1.638a7.822,7.822,0,0,0-.609.61,2.717,2.717,0,0,0-.381.541,2.668,2.668,0,0,0-.2.494c-.04.141-.1.388-.183.76-.1.522-.334.735-.821.735a.838.838,0,0,1-.617-.236,1,1,0,0,1-.239-.746,3.508,3.508,0,0,1,.24-1.361,3.451,3.451,0,0,1,.645-1.01,16.277,16.277,0,0,1,1.188-1.132c.451-.394.786-.7,1-.91a3.448,3.448,0,0,0,.578-.765,2.054,2.054,0,0,0,.261-1.014,2.294,2.294,0,0,0-.768-1.745,2.724,2.724,0,0,0-1.915-.7,2.657,2.657,0,0,0-2.026.723,5.11,5.11,0,0,0-1.027,1.9c-.235.778-.625.878-.939.878a.894.894,0,0,1-.68-.283.846.846,0,0,1-.281-.594,3.393,3.393,0,0,1,.576-1.794,4.533,4.533,0,0,1,1.713-1.548,5.492,5.492,0,0,1,2.665-.621,5.734,5.734,0,0,1,2.505.52,3.96,3.96,0,0,1,1.63,1.378,3.3,3.3,0,0,1,.565,1.865,2.846,2.846,0,0,1-.312,1.361Z" transform="translate(-30.65 -13.089)" fill="#3a2c60"/>
  </g>
</svg>
