<svg xmlns="http://www.w3.org/2000/svg" width="14.857" height="13.057" viewBox="0 0 14.857 13.057">
  <g id="warning_1_" data-name="warning (1)" transform="translate(0 -31.021)">
    <path id="Path_1109" data-name="Path 1109" d="M13.695,44.087H1.163a1.161,1.161,0,0,1-1-1.746L6.426,31.606a1.161,1.161,0,0,1,2.005,0L14.7,42.341A1.161,1.161,0,0,1,13.695,44.087Z" transform="translate(0 -0.009)" fill="#ff6b6b"/>
    <path id="Path_1110" data-name="Path 1110" d="M40.3,65.063,34.033,75.8a.175.175,0,0,0,.152.264H46.717a.175.175,0,0,0,.152-.264L40.6,65.063A.175.175,0,0,0,40.3,65.063Z" transform="translate(-33.022 -32.97)" fill="#ee5253"/>
    <g id="Group_1909" data-name="Group 1909" transform="translate(6.891 36.052)">
      <path id="Path_1111" data-name="Path 1111" d="M238.023,358.131a.523.523,0,1,1,0,1.046.531.531,0,0,1-.541-.519A.541.541,0,0,1,238.023,358.131Z" transform="translate(-237.482 -353.67)" fill="#e4eaf8"/>
      <path id="Path_1112" data-name="Path 1112" d="M239.074,208.065c-.3,0-.509-.145-.509-.353v-2.935c0-.174.2-.36.509-.36.275,0,.515.168.515.36v2.935C239.589,207.917,239.373,208.065,239.074,208.065Z" transform="translate(-238.534 -204.417)" fill="#e4eaf8"/>
    </g>
    <path id="Path_1113" data-name="Path 1113" d="M.76,42.332,7.026,31.6a1.149,1.149,0,0,1,.7-.537,1.158,1.158,0,0,0-1.3.537L.162,42.332a1.161,1.161,0,0,0,1,1.746h.6A1.161,1.161,0,0,1,.76,42.332Z" transform="translate(-0.002)" fill="#ee5253"/>
    <path id="Path_1114" data-name="Path 1114" d="M34.631,75.8l6.119-10.482-.147-.252a.175.175,0,0,0-.3,0L34.033,75.8a.175.175,0,0,0,.152.264h.6A.175.175,0,0,1,34.631,75.8Z" transform="translate(-33.022 -32.97)" fill="#e24951"/>
    <g id="Group_1910" data-name="Group 1910" transform="translate(6.891 36.052)">
      <path id="Path_1115" data-name="Path 1115" d="M238.081,358.657a.527.527,0,0,1,.24-.434.531.531,0,0,0-.3-.092.541.541,0,0,0-.541.526.539.539,0,0,0,.836.43A.514.514,0,0,1,238.081,358.657Z" transform="translate(-237.483 -353.67)" fill="#d8dce5"/>
      <path id="Path_1116" data-name="Path 1116" d="M239.163,207.712v-2.935a.353.353,0,0,1,.209-.289.656.656,0,0,0-.3-.071c-.3,0-.509.186-.509.36v2.935c0,.208.209.353.509.353a.715.715,0,0,0,.3-.06A.326.326,0,0,1,239.163,207.712Z" transform="translate(-238.534 -204.417)" fill="#d8dce5"/>
    </g>
  </g>
</svg>
