<svg id="writer" xmlns="http://www.w3.org/2000/svg" width="20.581" height="20.582" viewBox="0 0 20.581 20.582">
  <g id="Group_1466" data-name="Group 1466" transform="translate(0 2.56)">
    <g id="Group_1465" data-name="Group 1465">
      <path id="Path_1049" data-name="Path 1049" d="M18.645,80.511H3.934L15.74,76.093a.6.6,0,0,0,.363-.381l1.919-5.99L12,63.7l-5.99,1.919a.6.6,0,0,0-.381.363L.084,80.78l.092-.092A.6.6,0,0,0,.6,81.717H18.645a.6.6,0,0,0,0-1.206ZM.6,80.511a.6.6,0,0,0-.426.176l7.446-7.446a2.607,2.607,0,1,1,.853.852L2.059,80.511Z" transform="translate(0 -63.696)"/>
    </g>
  </g>
  <g id="Group_1468" data-name="Group 1468" transform="translate(13.12 0)">
    <g id="Group_1467" data-name="Group 1467">
      <path id="Path_1050" data-name="Path 1050" d="M333.677,4.8,329.049.177a.6.6,0,0,0-.853,0l-1.8,1.8,5.481,5.481,1.8-1.8a.6.6,0,0,0,0-.853Z" transform="translate(-326.392 0)"/>
    </g>
  </g>
</svg>
