<?xml version="1.0" encoding="UTF-8"?>
<svg width="100px" height="100px" viewBox="0 0 100 100" version="1.1" xmlns="http://www.w3.org/2000/svg" xmlns:xlink="http://www.w3.org/1999/xlink">
    <!-- Generator: sketchtool 53.2 (72643) - https://sketchapp.com -->
    <title>1CFED4B7-E765-49DD-9815-0DB117211868</title>
    <desc>Created with sketchtool.</desc>
    <g id="NEW" stroke="none" stroke-width="1" fill="none" fill-rule="evenodd">
        <g id="Customer-1" transform="translate(-716.000000, -398.000000)">
            <g id="icon-emptycustomer" transform="translate(716.000000, 398.000000)">
                <circle id="Oval-Copy-2" fill="#F4F5F7" cx="50" cy="50" r="50"></circle>
                <g id="Group-15-Copy-2" transform="translate(58.770492, 3.000000)" fill="#556CE7">
                    <path d="M23.9754098,5.90163934 C23.1096234,10.6045563 22.407758,11.3063832 17.704918,12.1721311 C22.4077965,13.0379176 23.1096234,13.7397445 23.9754098,18.442623 C24.8411963,13.7397445 25.5430232,13.0379176 30.2459016,12.1721311 C25.5430232,11.3063832 24.8411578,10.6045563 23.9754098,5.90163934" id="Fill-1" fill-opacity="0.4"></path>
                    <path d="M15.4918033,0 C14.8806599,3.31970606 14.3852255,3.81511328 11.0655738,4.42622951 C14.3852527,5.03737288 14.8806599,5.5327801 15.4918033,8.85245902 C16.1029467,5.5327801 16.5983539,5.03737288 19.9180328,4.42622951 C16.5983539,3.81511328 16.1029195,3.31970606 15.4918033,0" id="Fill-1-Copy" fill-opacity="0.8"></path>
                    <path d="M10.3279186,10.3278689 C8.90203888,18.3503067 7.74573981,19.5477932 0,21.024487 C7.74573981,22.5013871 8.90203888,23.6988736 10.3279186,31.7213115 C11.7536988,23.6988736 12.9099979,22.5012839 20.6557377,21.024487 C12.9097987,19.5477932 11.7537984,18.3503067 10.3279186,10.3278689" id="Fill-3" fill-opacity="0.6"></path>
                </g>
                <g id="Group-4-Copy" transform="translate(21.000000, 32.000000)" fill="#DADADA" fill-rule="nonzero" stroke="#DADADA" stroke-width="0.4">
                    <path d="M29.5001388,0 C25.6577896,4.80342771e-10 22.1937858,2.19276338 20.7233968,5.55580169 C19.2530078,8.91884 20.0658039,12.7898553 22.7827772,15.3637882 C25.4997504,17.937721 29.5858354,18.7076755 33.1356853,17.3146208 C36.6855351,15.9215661 39.0000624,12.6398426 39,8.99972227 C38.9940465,4.03159396 34.7442744,0.00555949332 29.5001388,0 Z M29.5001388,16.2451164 C25.2763115,16.2451164 21.8522228,13.001243 21.8522228,8.99972227 C21.8522228,4.99820157 25.2763115,1.75432812 29.5001388,1.75432812 C33.7239662,1.75432812 37.1480549,4.99820157 37.1480549,8.99972227 C37.1432921,12.9993725 33.7219919,16.2406043 29.5001388,16.2451164 Z" id="Shape"></path>
                    <path d="M47,6 C43.1340068,6 40,8.91014913 40,12.5 C40,16.0898509 43.1340068,19 47,19 C50.8659932,19 54,16.0898509 54,12.5 C53.9953147,8.91195277 50.8640509,6.00435066 47,6 L47,6 Z M47,17.309154 C44.1403391,17.309154 41.8221258,15.1565274 41.8221258,12.501128 C41.8221258,9.84572853 44.1403391,7.69310195 47,7.69310195 C49.8596609,7.69310195 52.1778742,9.84572853 52.1778742,12.501128 C52.1742768,15.1551426 49.8581696,17.3058136 47,17.309154 Z" id="Shape"></path>
                    <path d="M12,6 C8.13400675,6 5,8.91014913 5,12.5 C5,16.0898509 8.13400675,19 12,19 C15.8659932,19 19,16.0898509 19,12.5 C18.9953147,8.91195277 15.8640509,6.00435066 12,6 Z M12,17.309154 C9.14033905,17.309154 6.82212581,15.1565274 6.82212581,12.501128 C6.82212581,9.84572853 9.14033905,7.69310195 12,7.69310195 C14.8596609,7.69310195 17.1778742,9.84572853 17.1778742,12.501128 C17.1742768,15.1551426 14.8581696,17.3058136 12,17.309154 Z" id="Shape"></path>
                    <path d="M2.57199018e-07,32.9194491 C2.57199018e-07,33.3928337 0.404314535,33.7765877 0.903061472,33.7765877 L13.7415817,33.7765877 C13.6114632,34.5592975 13.5460426,35.350468 13.5459185,36.1428615 C13.5459185,36.616246 13.9502328,37 14.4489797,37 L44.5510202,37 C45.0497671,37 45.4540814,36.616246 45.4540814,36.1428615 C45.453918,35.3507065 45.3884976,34.5597762 45.2584182,33.777302 L58.0969384,33.777302 C58.5956854,33.777302 58.9999996,33.393548 58.9999996,32.9201634 C59.001123,28.5624125 56.3313446,24.6021426 52.1621557,22.7771087 C47.9929667,20.9520748 43.0861174,21.5957278 39.5947192,24.4256348 C33.7251648,19.8581217 25.2748351,19.8581217 19.4052807,24.4256348 C15.9140236,21.5956833 11.0072792,20.9519022 6.83809851,22.7767791 C2.6689178,24.6016559 -0.000956764074,28.5617711 2.57199019e-07,32.9194491 L2.57199018e-07,32.9194491 Z M57.1532395,32.0623106 L44.8652855,32.0623106 C44.1442069,29.628171 42.7925771,27.4040977 40.933658,25.5929146 C43.7884377,23.3832154 47.6947893,22.8488059 51.0908263,24.2033605 C54.4868633,25.5579151 56.8184105,28.5803935 57.1532395,32.0623106 Z M43.6195126,35.2857229 L15.3804873,35.2857229 C15.8536652,28.2140758 22.0344667,22.7083399 29.5,22.7083399 C36.9655333,22.7083399 43.1463347,28.2140758 43.6195126,35.2857229 L43.6195126,35.2857229 Z M11.768092,23.4642111 C14.0639101,23.4591333 16.2901482,24.2119251 18.0654388,25.5936289 C16.2069757,27.4047188 14.8556715,29.6285217 14.1347144,32.0623106 L1.84676044,32.0623106 C2.32013935,27.1953842 6.61861105,23.4702101 11.768092,23.4642111 Z" id="Shape"></path>
                </g>
            </g>
        </g>
    </g>
</svg>