<svg width="71" height="71" viewBox="0 0 71 71" fill="none" xmlns="http://www.w3.org/2000/svg">
<g clip-path="url(#clip0)">
<path d="M67.7718 35.7978V25.8189C67.7718 22.4351 65.1471 19.6833 61.831 19.4164L52.5639 3.22988C51.7051 1.73286 50.3183 0.662881 48.659 0.218584C47.0075 -0.222688 45.2805 0.00906674 43.8024 0.869373L12.034 19.3644H6.45449C2.89482 19.3644 0 22.259 0 25.8189V64.5455C0 68.1052 2.89467 71 6.45449 71H61.3173C64.877 71 67.7718 68.1053 67.7718 64.5455V54.5666C69.6459 53.8983 70.9989 52.1239 70.9989 50.023V40.3414C70.9989 38.2404 69.6459 36.4661 67.7718 35.7978ZM58.081 19.3644H44.0168L54.5651 13.2232L58.081 19.3644ZM52.9617 10.4226L37.6028 19.3644H31.2321L51.3688 7.64048L52.9617 10.4226ZM45.427 3.65845C46.1566 3.2314 47.009 3.11794 47.8238 3.33547C48.6479 3.55603 49.335 4.08868 49.7621 4.83401L49.7654 4.83991L24.8185 19.3644H18.4481L45.427 3.65845ZM64.5445 64.5455C64.5445 66.3245 63.0963 67.7727 61.3173 67.7727H6.45449C4.67549 67.7727 3.22732 66.3245 3.22732 64.5455V25.8189C3.22732 24.0399 4.67549 22.5917 6.45449 22.5917H61.3173C63.0963 22.5917 64.5445 24.0399 64.5445 25.8189V35.5005H54.8628C49.524 35.5005 45.1811 39.8434 45.1811 45.1822C45.1811 50.521 49.524 54.8638 54.8628 54.8638H64.5445V64.5455ZM67.7718 50.023C67.7718 50.9133 67.0485 51.6367 66.1581 51.6367H54.8628C51.3031 51.6367 48.4083 48.742 48.4083 45.1822C48.4083 41.6225 51.303 38.7277 54.8628 38.7277H66.1581C67.0484 38.7277 67.7718 39.4509 67.7718 40.3414V50.023Z" fill="#C7C7C7"/>
<path d="M54.8619 41.9551C53.0829 41.9551 51.6348 43.4032 51.6348 45.1823C51.6348 46.9613 53.0829 48.4094 54.8619 48.4094C56.6409 48.4094 58.0891 46.9613 58.0891 45.1823C58.0893 43.4032 56.6411 41.9551 54.8619 41.9551Z" fill="#C7C7C7"/>
</g>
<defs>
<clipPath id="clip0">
<rect width="71" height="71" fill="white"/>
</clipPath>
</defs>
</svg>
