<svg width="40" height="40" viewBox="0 0 40 40" fill="none" xmlns="http://www.w3.org/2000/svg">
<path fill-rule="evenodd" clip-rule="evenodd" d="M20 40C31.0457 40 40 31.0457 40 20C40 8.9543 31.0457 0 20 0C8.9543 0 0 8.9543 0 20C0 31.0457 8.9543 40 20 40Z" fill="#F3F5FF"/>
<path fill-rule="evenodd" clip-rule="evenodd" d="M20 35C28.2843 35 35 28.2843 35 20C35 11.7157 28.2843 5 20 5C11.7157 5 5 11.7157 5 20C5 28.2843 11.7157 35 20 35Z" fill="#DDE2FF"/>
<path d="M22.9047 14.8571L23.5994 12.4053C23.6927 12.0736 23.6339 11.7174 23.44 11.4397C23.2436 11.1626 22.938 11 22.6125 11C22.287 11 17.6013 11 17.6013 11C17.2757 11 16.969 11.1633 16.775 11.4397C16.5811 11.7168 16.521 12.0736 16.615 12.4053L17.3085 14.8571H22.9047Z" fill="#556CE7"/>
<path fill-rule="evenodd" clip-rule="evenodd" d="M22.7967 15L25.7743 22.2229C26.2681 23.8215 25.9421 25.5475 24.8898 26.8814C23.8382 28.2154 21.4345 29 19.6803 29C17.924 29 15.162 28.2154 14.1104 26.8814C13.0588 25.5475 12.7314 23.8215 13.2259 22.2229L16.5565 15H22.7967ZM20.3814 25.5194V24.9995C21.4266 24.8032 21.9994 24.0572 22 23.1867C22 22.3039 21.564 21.7638 20.4831 21.3522C19.7102 21.0388 19.3921 20.833 19.3921 20.5094C19.3921 20.2346 19.5828 19.9597 20.1738 19.9597C20.5188 19.9597 20.7974 20.0227 21.0176 20.0971C21.1405 20.1391 21.2742 20.1249 21.3871 20.0558C21.5 19.9882 21.5822 19.8738 21.6142 19.739L21.6148 19.7343C21.6531 19.5725 21.6305 19.4013 21.5508 19.2571C21.4705 19.1142 21.3419 19.012 21.192 18.9728C20.978 18.9159 20.7246 18.8753 20.4297 18.8611V18.4786C20.4297 18.2132 20.2284 18 19.9824 18C19.7371 18 19.5351 18.2132 19.5351 18.4786V18.9301C18.564 19.1359 18 19.8128 18 20.6759C18 21.6263 18.6644 22.1171 19.6361 22.4698C20.3093 22.7148 20.601 22.9504 20.601 23.3227C20.601 23.7153 20.2459 23.9306 19.7271 23.9306C19.3563 23.9306 19.0063 23.8494 18.7039 23.733C18.5772 23.6842 18.4366 23.695 18.3174 23.7641C18.1982 23.8311 18.1123 23.9509 18.0784 24.0917L18.0772 24.0998C17.9956 24.4397 18.1782 24.7876 18.4906 24.8878C18.788 24.9839 19.1343 25.0516 19.4925 25.0685V25.5201C19.4925 25.7847 19.6913 26 19.936 26C20.1826 26 20.3814 25.7847 20.3814 25.5194Z" fill="#556CE7"/>
</svg>
