<svg width="40" height="40" viewBox="0 0 40 40" fill="none" xmlns="http://www.w3.org/2000/svg">
<path fill-rule="evenodd" clip-rule="evenodd" d="M20 40C31.0457 40 40 31.0457 40 20C40 8.9543 31.0457 0 20 0C8.9543 0 0 8.9543 0 20C0 31.0457 8.9543 40 20 40Z" fill="#F3F5FF"/>
<path fill-rule="evenodd" clip-rule="evenodd" d="M20 35C28.2843 35 35 28.2843 35 20C35 11.7157 28.2843 5 20 5C11.7157 5 5 11.7157 5 20C5 28.2843 11.7157 35 20 35Z" fill="#DDE2FF"/>
<path fill-rule="evenodd" clip-rule="evenodd" d="M13.375 20C13.375 16.6863 16.0611 14 19.3748 14C22.6884 14 25.375 16.6863 25.375 20C25.375 23.3139 22.6884 26 19.3748 26C16.0611 26 13.375 23.3139 13.375 20ZM19.8795 24.5716V23.4286C21.1677 23.2046 21.8736 22.3532 21.8736 21.3561C21.8736 20.3479 21.3357 19.7311 20.0027 19.2609C19.0501 18.9023 18.6578 18.6667 18.6578 18.297C18.6578 17.9834 18.8932 17.6695 19.6213 17.6695C20.3579 17.6695 20.8518 17.8841 21.1539 18.0154C21.1826 18.0279 21.2096 18.0396 21.2349 18.0503L21.56 16.7843C21.1899 16.6049 20.6856 16.4483 19.9354 16.415V15.4286H18.8372V16.4926C17.6385 16.7284 16.9437 17.5017 16.9437 18.4873C16.9437 19.5743 17.7616 20.1347 18.9606 20.538C19.7898 20.8179 20.1482 21.087 20.1482 21.5123C20.1482 21.961 19.7112 22.2071 19.0726 22.2071C18.3444 22.2071 17.6832 21.9719 17.2126 21.7145L16.8763 23.0255C17.3021 23.2718 18.0307 23.4735 18.7814 23.5072V24.5716H19.8795Z" fill="#556CE7"/>
<path d="M28.6623 24.3996L26.7858 24.8276C26.7449 24.8329 26.7034 24.8329 26.6625 24.8276C26.5599 24.8279 26.4593 24.7996 26.3721 24.7458C26.2496 24.6685 26.1629 24.5459 26.1311 24.4051L25.701 22.5379C25.657 22.348 25.7181 22.1492 25.8613 22.0163C26.0046 21.8834 26.2082 21.8366 26.3955 21.8936C26.5828 21.9506 26.7253 22.1027 26.7693 22.2926L26.8789 22.7642C28.0737 19.6334 27.1479 16.0932 24.5709 13.9391C21.9939 11.785 18.3297 11.4883 15.4366 13.1995L14.875 12.2646C18.2256 10.2767 22.4813 10.661 25.4176 13.2164C28.3538 15.7719 29.3031 19.9176 27.7692 23.4865L28.4185 23.3393C28.6144 23.2803 28.8271 23.335 28.9699 23.481C29.1126 23.6271 29.1616 23.8401 29.0969 24.0334C29.0322 24.2267 28.8645 24.368 28.6623 24.3996V24.3996Z" fill="#556CE7"/>
<path d="M24 27.7796C20.6802 29.7274 16.4913 29.3136 13.6123 26.7535C10.7333 24.1933 9.81443 20.0651 11.3337 16.5161L10.6622 16.6712C10.3706 16.7381 10.0802 16.5547 10.0137 16.2616C9.94715 15.9685 10.1296 15.6767 10.4212 15.6099L12.2759 15.1826C12.4158 15.1499 12.5629 15.1744 12.6848 15.2506C12.8059 15.3284 12.8923 15.4503 12.9258 15.5908L13.3509 17.4576C13.4165 17.7507 13.2335 18.0418 12.942 18.108C12.9016 18.1134 12.8606 18.1134 12.8202 18.108C12.5689 18.1069 12.3514 17.9323 12.2949 17.6862L12.1893 17.2753C11.0155 20.3908 11.9235 23.9115 14.4553 26.0616C16.9872 28.2117 20.5926 28.5239 23.4531 26.8407L24 27.7796Z" fill="#556CE7"/>
</svg>
