<svg width="40" height="40" viewBox="0 0 40 40" fill="none" xmlns="http://www.w3.org/2000/svg">
<path fill-rule="evenodd" clip-rule="evenodd" d="M20 40C31.0457 40 40 31.0457 40 20C40 8.9543 31.0457 0 20 0C8.9543 0 0 8.9543 0 20C0 31.0457 8.9543 40 20 40Z" fill="#F3F5FF"/>
<path fill-rule="evenodd" clip-rule="evenodd" d="M20 35C28.2843 35 35 28.2843 35 20C35 11.7157 28.2843 5 20 5C11.7157 5 5 11.7157 5 20C5 28.2843 11.7157 35 20 35Z" fill="#DDE2FF"/>
<path fill-rule="evenodd" clip-rule="evenodd" d="M16.3793 14C16.3793 12.3449 18.0025 11 20 11C21.9975 11 23.6207 12.3449 23.6207 14V16.2H25.7931L27 27H13L14.2069 16.2H16.3793V14ZM22.6552 14C22.6552 12.7743 21.4793 11.8 20 11.8C18.5207 11.8 17.3448 12.7743 17.3448 14V16.2H22.6552V14Z" fill="#556CE7"/>
</svg>
