<svg width="40" height="40" viewBox="0 0 40 40" fill="none" xmlns="http://www.w3.org/2000/svg">
<path fill-rule="evenodd" clip-rule="evenodd" d="M20 40C31.0457 40 40 31.0457 40 20C40 8.9543 31.0457 0 20 0C8.9543 0 0 8.9543 0 20C0 31.0457 8.9543 40 20 40Z" fill="#F3F5FF"/>
<path fill-rule="evenodd" clip-rule="evenodd" d="M20 35C28.2843 35 35 28.2843 35 20C35 11.7157 28.2843 5 20 5C11.7157 5 5 11.7157 5 20C5 28.2843 11.7157 35 20 35Z" fill="#DDE2FF"/>
<path d="M23.2353 17.0114C23.1762 17.0408 23.1172 17.0681 23.0581 17.0975C22.2863 17.467 21.5144 17.8386 20.7425 18.2081C20.4325 18.3572 20.1183 18.4936 19.8083 18.6469V18.6469C19.6311 18.5629 19.454 18.4789 19.279 18.395C19.2199 18.3677 19.1609 18.3383 19.1018 18.311C18.4797 18.0128 17.8554 17.7147 17.2333 17.4166C17.1194 17.362 17.0056 17.3074 16.8896 17.2528C16.666 17.1457 16.4425 17.0387 16.2211 16.9316C15.5525 16.6104 14.8819 16.2912 14.2134 15.97C13.4415 15.6005 12.6697 15.231 11.8978 14.8594C11.8873 14.8531 11.8746 14.8489 11.8641 14.8426C11.8282 14.8258 11.7945 14.809 11.7586 14.7922C11.6743 14.7523 11.592 14.7103 11.5098 14.6704C11.5625 14.6452 11.6152 14.62 11.6679 14.5948C12.406 14.24 13.1442 13.8894 13.8823 13.5367C14.2324 13.3687 14.5803 13.207 14.9304 13.0391V13.0391C15.2109 13.165 15.4935 13.3036 15.774 13.4401C16.5121 13.7928 17.2502 14.1455 17.9862 14.5003C18.8783 14.9286 19.7724 15.3548 20.6645 15.7831C21.4364 16.1527 22.2103 16.5222 22.9822 16.8938C23.0665 16.9316 23.1509 16.9715 23.2353 17.0114Z" fill="#556CE7"/>
<path d="M27.8235 14.9715C27.7687 14.9966 27.716 15.0238 27.6612 15.0489C27.6591 15.0489 27.657 15.051 27.6549 15.051C26.9193 15.4026 25.4438 16.1077 25.4438 16.1077L24.3984 16.6078C24.3984 16.6078 23.823 16.3316 23.5553 16.204C22.8176 15.8525 22.0799 15.4988 21.3442 15.1473C20.4527 14.7204 19.559 14.2936 18.6674 13.8667C17.8959 13.4984 17.1224 13.1281 16.351 12.7598C16.2666 12.72 16.1823 12.6782 16.098 12.6384C16.157 12.6112 16.2139 12.5819 16.273 12.5547C17.0444 12.1864 17.818 11.8161 18.5894 11.4478C18.9013 11.2992 19.2196 11.1548 19.5295 11C19.7634 11.113 19.9974 11.226 20.2292 11.3369C20.967 11.6884 21.7047 12.0441 22.4403 12.3957C23.3319 12.8225 24.2256 13.2494 25.1171 13.6763C25.8886 14.0446 26.6621 14.4149 27.4336 14.7832C27.5643 14.846 27.6928 14.9088 27.8235 14.9715C27.8214 14.9715 27.8214 14.9715 27.8235 14.9715Z" fill="#556CE7"/>
<path d="M19.1569 28.2323C19.1569 28.4353 19.1548 28.6403 19.1528 28.8433C19.061 28.7982 18.9713 28.7551 18.8795 28.71C18.1658 28.3656 17.4521 28.017 16.7404 27.6726C15.8778 27.2543 15.0132 26.8361 14.1506 26.4178C13.4042 26.057 12.6558 25.6941 11.9095 25.3332C11.6077 25.1877 11.3059 25.0298 11 24.8883V16.1932C11 15.9923 11.0041 15.7893 11.0082 15.5884C11.104 15.6355 11.1998 15.6806 11.2957 15.7278C11.5812 15.8652 11.8646 16.0025 12.1501 16.1419C12.5784 16.349 13.0045 16.5561 13.4328 16.7632C13.4348 16.7652 13.4389 16.7652 13.4409 16.7673C14.3096 17.1876 15.1784 17.6099 16.0471 18.0302C16.7893 18.3911 17.5336 18.7499 18.2759 19.1107C18.5696 19.2522 18.8612 19.3998 19.1569 19.5392V28.2323Z" fill="#556CE7"/>
<path d="M20.1806 19.5345L23.6432 17.8618C23.6432 17.8618 23.6391 19.84 23.6391 19.9588C23.6391 20.2807 23.9205 20.5882 24.2509 20.5738C24.5833 20.5595 24.8626 20.3032 24.8626 19.9588C24.8626 19.1286 24.8647 17.2693 24.8647 17.2693L28.3334 15.5884L28.3273 24.8992L20.1765 28.8433L20.1806 19.5345Z" fill="#556CE7"/>
</svg>
