<svg xmlns="http://www.w3.org/2000/svg" width="147" height="146" viewBox="0 0 147 146">
  <g id="Group_560" data-name="Group 560" transform="translate(-878 -280.5)">
    <ellipse id="Ellipse_22" data-name="Ellipse 22" cx="73.5" cy="73" rx="73.5" ry="73" transform="translate(878 280.5)" fill="#f8f8f8"/>
    <circle id="Ellipse_21" data-name="Ellipse 21" cx="65.5" cy="65.5" r="65.5" transform="translate(886 287.5)" fill="#f0f0f0"/>
    <circle id="Ellipse_4" data-name="Ellipse 4" cx="58" cy="58" r="58" transform="translate(893 295.5)" fill="#fff"/>
    <g id="user" transform="translate(925.319 320.836)">
      <path id="Path_86" data-name="Path 86" d="M132.1,255.265c-.136-8.728-2.855-16.663-7.689-22.409a23.424,23.424,0,0,0-36.685,0c-4.83,5.74-7.547,13.664-7.689,22.381,2.731,1.368,14.032,6.636,26.031,6.636A57.924,57.924,0,0,0,132.1,255.265Z" transform="translate(-80.04 -195.596)" fill="#ededed"/>
      <circle id="Ellipse_17" data-name="Ellipse 17" cx="13.019" cy="13.019" r="13.019" transform="translate(13.013 0)" fill="#ededed"/>
    </g>
  </g>
</svg>
