<svg xmlns="http://www.w3.org/2000/svg" width="52" height="52" viewBox="0 0 52 52">
  <g id="Group_738" data-name="Group 738" transform="translate(-348 -166)">
    <g id="Group_726" data-name="Group 726" transform="translate(-3 -474)">
      <circle id="Ellipse_2" data-name="Ellipse 2" cx="26" cy="26" r="26" transform="translate(351 640)" fill="#dbe1fd"/>
      <g id="communications" transform="translate(364.691 645.996)">
        <g id="Group_99" data-name="Group 99" transform="translate(0 8.004)">
          <g id="Group_98" data-name="Group 98" transform="translate(0 0)">
            <path id="Path_101" data-name="Path 101" d="M24.234,17.489V10.98a.425.425,0,0,0-.425-.425H19.961A11.468,11.468,0,0,0,1.488,17.312,3.819,3.819,0,0,0,0,20.333v1.7a3.832,3.832,0,0,0,3.456,3.808A1.7,1.7,0,0,0,6.8,25.435v-8.5a1.7,1.7,0,0,0-3.347-.406,3.8,3.8,0,0,0-.975.23,10.613,10.613,0,0,1,16.024-6.2h-5.75a.425.425,0,0,0-.425.425v6.8a.425.425,0,0,0,.425.425h2.338l1.148,1.531a.425.425,0,0,0,.68,0l1.148-1.531h.638v7.228a1.7,1.7,0,0,0,3.347.406,3.809,3.809,0,0,0,.9-.2v1.074a3.831,3.831,0,0,1-3.826,3.826H17.007v-.425a.425.425,0,0,0-.425-.425H14.718a1.686,1.686,0,0,0-1.113-.425H11.9a1.7,1.7,0,1,0,0,3.4h1.7a1.686,1.686,0,0,0,1.113-.425h1.863a.425.425,0,0,0,.425-.425v-.425h2.126a4.682,4.682,0,0,0,4.677-4.677v-1.5a3.826,3.826,0,0,0,1.7-3.179v-1.7A3.8,3.8,0,0,0,24.234,17.489ZM4.252,16.932a.85.85,0,1,1,1.7,0v8.5a.85.85,0,1,1-1.7,0Zm-.85.455V24.98A2.981,2.981,0,0,1,.85,22.034v-1.7A2.981,2.981,0,0,1,3.4,17.387Zm10.2,14.425H11.9a.85.85,0,1,1,0-1.7h1.7a.85.85,0,1,1,0,1.7Zm2.551-.425h-.911a1.527,1.527,0,0,0,0-.85h.911Zm5.1-5.952a.85.85,0,1,1-1.7,0V18.207h1.7Zm-3.4-8.078a.425.425,0,0,0-.34.17l-.935,1.247-.935-1.247a.425.425,0,0,0-.34-.17H13.18V11.4h10.2v5.952Zm6.8,4.677a2.976,2.976,0,0,1-2.551,2.942V18.207h1.655a2.96,2.96,0,0,1,.9,2.126Z" transform="translate(0 -8.004)" fill="#556ce7"/>
          </g>
        </g>
        <g id="Group_101" data-name="Group 101" transform="translate(15.302 12.255)">
          <g id="Group_100" data-name="Group 100">
            <rect id="Rectangle_735" data-name="Rectangle 735" width="0.816" height="0.85" fill="#556ce7"/>
          </g>
        </g>
        <g id="Group_103" data-name="Group 103" transform="translate(16.362 12.578)">
          <g id="Group_102" data-name="Group 102" transform="translate(0 0)">
            <rect id="Rectangle_736" data-name="Rectangle 736" width="6" transform="translate(-0.053 0.426)" fill="#556ce7"/>
          </g>
        </g>
        <g id="Group_105" data-name="Group 105" transform="translate(14.075 13.721)">
          <g id="Group_104" data-name="Group 104" transform="translate(0 0)">
            <rect id="Rectangle_737" data-name="Rectangle 737" width="8" height="1" transform="translate(0.234 0.283)" fill="#556ce7"/>
          </g>
        </g>
        <g id="Group_107" data-name="Group 107" transform="translate(14.075 16.008)">
          <g id="Group_106" data-name="Group 106" transform="translate(0 0)">
            <rect id="Rectangle_738" data-name="Rectangle 738" width="8" height="1" transform="translate(0.234 -0.004)" fill="#556ce7"/>
          </g>
        </g>
      </g>
    </g>
  </g>
</svg>
