<svg id="communications-2" xmlns="http://www.w3.org/2000/svg" width="24.174" height="38.66" viewBox="0 0 24.174 38.66">
  <g id="Group_553" data-name="Group 553" transform="translate(5.315)">
    <g id="Group_552" data-name="Group 552" transform="translate(0)">
      <path id="Path_122" data-name="Path 122" d="M173.079,0a6.78,6.78,0,0,0-6.772,6.772v13.31a6.773,6.773,0,0,0,13.545.047V6.772A6.78,6.78,0,0,0,173.079,0Zm3.95,20.129a3.951,3.951,0,0,1-7.9-.047V6.772a3.95,3.95,0,1,1,7.9,0Z" transform="translate(-166.307)" fill="#a2a2a2"/>
    </g>
  </g>
  <g id="Group_555" data-name="Group 555" transform="translate(10.676 30.9)">
    <g id="Group_554" data-name="Group 554" transform="translate(0)">
      <rect id="Rectangle_876" data-name="Rectangle 876" width="2.822" height="6.349" fill="#a2a2a2"/>
    </g>
  </g>
  <g id="Group_557" data-name="Group 557" transform="translate(6.961 35.838)">
    <g id="Group_556" data-name="Group 556" transform="translate(0)">
      <path id="Path_123" data-name="Path 123" d="M196.949,474.628h-7.431a1.411,1.411,0,1,0,0,2.822h7.431a1.411,1.411,0,0,0,0-2.822Z" transform="translate(-188.107 -474.628)" fill="#a2a2a2"/>
    </g>
  </g>
  <g id="Group_559" data-name="Group 559" transform="translate(0 17.731)">
    <g id="Group_558" data-name="Group 558">
      <path id="Path_124" data-name="Path 124" d="M118.685,234.822a1.411,1.411,0,0,0-1.411,1.411v1.129a9.265,9.265,0,1,1-18.53,0v-1.129a1.411,1.411,0,0,0-2.822,0v1.129a12.087,12.087,0,1,0,24.174,0v-1.129A1.411,1.411,0,0,0,118.685,234.822Z" transform="translate(-95.922 -234.822)" fill="#a2a2a2"/>
    </g>
  </g>
</svg>
