<svg xmlns="http://www.w3.org/2000/svg" width="136" height="136" viewBox="0 0 136 136">
  <defs>
    <filter id="Ellipse_20" x="0" y="0" width="136" height="136" filterUnits="userSpaceOnUse">
      <feOffset dy="10" input="SourceAlpha"/>
      <feGaussianBlur stdDeviation="7.5" result="blur"/>
      <feFlood flood-opacity="0.416"/>
      <feComposite operator="in" in2="blur"/>
      <feComposite in="SourceGraphic"/>
    </filter>
  </defs>
  <g id="Group_650" data-name="Group 650" transform="translate(-903.5 -635.5)">
    <g transform="matrix(1, 0, 0, 1, 903.5, 635.5)" filter="url(#Ellipse_20)">
      <circle id="Ellipse_20-2" data-name="Ellipse 20" cx="45.5" cy="45.5" r="45.5" transform="translate(22.5 12.5)" fill="#e60023"/>
    </g>
    <g id="technology-2" transform="translate(941 683.1)">
      <g id="c5_telephone" transform="translate(0 0)">
        <path id="Path_121" data-name="Path 121" d="M0,23.688l.038,4.943,0,.008A1.938,1.938,0,0,0,2,30.566l.012.008,14.034-.113a1.926,1.926,0,0,0,1.919-1.956l-.04-4.947-.681,0c.213-2.053,2.708-2.539,7.676-3.088l11.958-.1c2.879.28,5.667.8,5.868,3.032l-.382,0,.04,4.938,0,.006a1.932,1.932,0,0,0,1.963,1.931l.012.012,14.032-.119a1.927,1.927,0,0,0,1.921-1.956L60.3,23.28l-.507,0c-.5-3.005-5.456-12.708-28.888-12.8C6.58,10.4.887,20.463.595,23.685Z" transform="translate(0 -10.487)" fill="#fff"/>
      </g>
    </g>
  </g>
</svg>
