<svg xmlns="http://www.w3.org/2000/svg" width="24" height="18" viewBox="0 0 24 18">
  <g id="label" transform="translate(0.001 -40.118)">
    <path id="Path_243" data-name="Path 243" d="M21.749,40.118H8.21a2.243,2.243,0,0,0-1.742.825l-6.3,7.7a.75.75,0,0,0,0,.949l6.3,7.7a2.242,2.242,0,0,0,1.742.825H21.749A2.252,2.252,0,0,0,24,55.868v-13.5A2.252,2.252,0,0,0,21.749,40.118Zm.75,15.75a.75.75,0,0,1-.75.75H8.21a.748.748,0,0,1-.581-.275L1.718,49.118l5.911-7.225a.749.749,0,0,1,.582-.275H21.749a.75.75,0,0,1,.75.75S22.5,55.868,22.5,55.868Z" fill="#c4c4c4"/>
    <path id="Path_244" data-name="Path 244" d="M130.791,103.232l-3.22,3.22-3.22-3.22-1.061,1.061,3.22,3.22-3.22,3.22,1.061,1.061,3.22-3.22,3.22,3.22,1.061-1.061-3.22-3.22,3.22-3.22Z" transform="translate(-114.072 -58.394)" fill="#c4c4c4"/>
  </g>
</svg>
