<svg xmlns="http://www.w3.org/2000/svg" width="39.203" height="39.204" style=""><rect id="backgroundrect" width="100%" height="100%" x="0" y="0" fill="none" stroke="none" style="" class=""/>
  
<g class="currentLayer" style=""><title>Layer 1</title><g id="Group_10" data-name="Group 10" class="" fill="#ffffff" fill-opacity="1">
    <path id="Path_53" data-name="Path 53" d="M29.78546905517578,25.933998107910156 a2.746999979019165,2.746999979019165 0 0 0 -4.1519999504089355,0 c-0.9710000157356262,0.9629999995231628 -1.9420000314712524,1.9249999523162842 -2.9000000953674316,2.9000000953674316 a0.5720000267028809,0.5720000267028809 0 0 1 -0.800000011920929,0.1469999998807907 c-0.628000020980835,-0.34299999475479126 -1.2999999523162842,-0.6200000047683716 -1.899999976158142,-1 A30.117000579833984,30.117000579833984 0 0 1 12.774469375610352,21.381999969482422 a17.200000762939453,17.200000762939453 0 0 1 -2.5999999046325684,-4.169000148773193 a0.6000000238418579,0.6000000238418579 0 0 1 0.1469999998807907,-0.7670000195503235 c0.9710000157356262,-0.9380000233650208 1.9170000553131104,-1.899999976158142 2.871999979019165,-2.86299991607666 a2.756999969482422,2.756999969482422 0 0 0 -0.00800000037997961,-4.25 c-0.7590000033378601,-0.7670000195503235 -1.5169999599456787,-1.5169999599456787 -2.2760000228881836,-2.2839999198913574 c-0.7829999923706055,-0.7829999923706055 -1.5579999685287476,-1.5740000009536743 -2.3499999046325684,-2.3489999771118164 a2.7639999389648438,2.7639999389648438 0 0 0 -4.1519999504089355,0.00800000037997961 c-0.9789999723434448,0.9629999995231628 -1.9170000553131104,1.9500000476837158 -2.9119999408721924,2.9000000953674316 a4.7270002365112305,4.7270002365112305 0 0 0 -1.4850000143051147,3.190000057220459 a13.513999938964844,13.513999938964844 0 0 0 1.0440000295639038,5.816999912261963 a35.345001220703125,35.345001220703125 0 0 0 6.27400016784668,10.449999809265137 A38.821998596191406,38.821998596191406 0 0 0 20.183467864990234,37.11799621582031 a18.600000381469727,18.600000381469727 0 0 0 7.122000217437744,2.072000026702881 A5.21999979019165,5.21999979019165 0 0 0 31.784467697143555,37.486000061035156 c0.8320000171661377,-0.9300000071525574 1.7699999809265137,-1.777999997138977 2.6510000228881836,-2.6679999828338623 a2.7750000953674316,2.7750000953674316 0 0 0 0.01600000075995922,-4.22599983215332 Q32.126468658447266,28.25499725341797 29.78546905517578,25.933998107910156 z" fill="#ffffff" fill-opacity="1"/>
    <path id="Path_54" data-name="Path 54" d="M28.23046875,19.43199920654297 l3.009999990463257,-0.5139999985694885 A13.51200008392334,13.51200008392334 0 0 0 19.8084716796875,7.832000732421875 l-0.42399999499320984,3.0269999504089355 A10.442999839782715,10.442999839782715 0 0 1 28.23046875,19.43199920654297 z" fill="#ffffff" fill-opacity="1"/>
    <path id="Path_55" data-name="Path 55" d="M32.93046569824219,6.3470001220703125 A22.200000762939453,22.200000762939453 0 0 0 20.208465576171875,0 l-0.42399999499320984,3.0269999504089355 A19.368999481201172,19.368999481201172 0 0 1 36.17347717285156,18.90999984741211 l3.009999990463257,-0.5139999985694885 A22.360000610351562,22.360000610351562 0 0 0 32.93046569824219,6.3470001220703125 z" fill="#ffffff" fill-opacity="1"/>
  </g></g></svg>