<svg xmlns="http://www.w3.org/2000/svg" width="58.715" height="54.745" viewBox="0 0 58.715 54.745">
  <g id="technology-2" transform="translate(45.537 54.745) rotate(-139)">
    <g id="c5_telephone" transform="translate(0 0)">
      <path id="Path_121" data-name="Path 121" d="M0,13.2l.038,4.943,0,.008A1.938,1.938,0,0,0,2,20.08l.012.008,14.034-.113a1.926,1.926,0,0,0,1.919-1.956l-.04-4.947-.681,0c.213-2.053,2.708-2.539,7.676-3.088l11.958-.1c2.879.28,5.667.8,5.868,3.032l-.382,0,.04,4.938,0,.006A1.932,1.932,0,0,0,44.372,19.8l.012.012,14.032-.119a1.927,1.927,0,0,0,1.921-1.956l-.04-4.942-.507,0C59.295,9.792,54.334.089,30.9,0,6.58-.091.887,9.976.595,13.2Z" fill="#fff"/>
    </g>
  </g>
</svg>
