<svg xmlns="http://www.w3.org/2000/svg" width="32.926" height="39" viewBox="0 0 32.926 39">
  <g id="technology-3" transform="translate(-39.873)">
    <g id="Group_636" data-name="Group 636" transform="translate(48.721)">
      <g id="Group_635" data-name="Group 635" transform="translate(0)">
        <path id="Path_230" data-name="Path 230" d="M163.642,0a7.624,7.624,0,0,0-7.615,7.615V20.556a7.615,7.615,0,1,0,15.23-.044V7.615A7.624,7.624,0,0,0,163.642,0Zm4.974,20.512a4.974,4.974,0,1,1-9.948.044V7.615a4.974,4.974,0,0,1,9.948,0Z" transform="translate(-156.027)" fill="#a2a2a2"/>
      </g>
    </g>
    <g id="Group_638" data-name="Group 638" transform="translate(55.016 32.001)">
      <g id="Group_637" data-name="Group 637">
        <rect id="Rectangle_940" data-name="Rectangle 940" width="2.641" height="5.986" fill="#a2a2a2"/>
      </g>
    </g>
    <g id="Group_640" data-name="Group 640" transform="translate(49.557 36.359)">
      <g id="Group_639" data-name="Group 639" transform="translate(0)">
        <path id="Path_231" data-name="Path 231" d="M179.244,477.327H168.328a1.321,1.321,0,1,0,0,2.641h10.917a1.321,1.321,0,1,0,0-2.641Z" transform="translate(-167.007 -477.327)" fill="#a2a2a2"/>
      </g>
    </g>
    <g id="Group_642" data-name="Group 642" transform="translate(43.879 14.042)">
      <g id="Group_641" data-name="Group 641">
        <path id="Path_232" data-name="Path 232" d="M116.055,184.343a1.32,1.32,0,0,0-1.321,1.321v5.194a9.816,9.816,0,1,1-19.632,0v-5.194a1.321,1.321,0,1,0-2.641,0v5.194a12.457,12.457,0,1,0,24.914,0v-5.194A1.32,1.32,0,0,0,116.055,184.343Z" transform="translate(-92.461 -184.343)" fill="#a2a2a2"/>
      </g>
    </g>
    <g id="Group_644" data-name="Group 644" transform="translate(39.873 3.037)">
      <g id="Group_643" data-name="Group 643" transform="translate(0)">
        <path id="Path_233" data-name="Path 233" d="M72.412,40.26a1.32,1.32,0,0,0-1.867,0L40.26,70.545a1.32,1.32,0,1,0,1.867,1.867L72.412,42.127A1.32,1.32,0,0,0,72.412,40.26Z" transform="translate(-39.873 -39.873)" fill="#a2a2a2"/>
      </g>
    </g>
  </g>
</svg>
