<svg id="technology-2" xmlns="http://www.w3.org/2000/svg" width="60.337" height="20.087" viewBox="0 0 60.337 20.087">
  <g id="c5_telephone" transform="translate(0 0)">
    <path id="Path_121" data-name="Path 121" d="M0,23.688l.038,4.943,0,.008A1.938,1.938,0,0,0,2,30.566l.012.008,14.034-.113a1.926,1.926,0,0,0,1.919-1.956l-.04-4.947-.681,0c.213-2.053,2.708-2.539,7.676-3.088l11.958-.1c2.879.28,5.667.8,5.868,3.032l-.382,0,.04,4.938,0,.006a1.932,1.932,0,0,0,1.963,1.931l.012.012,14.032-.119a1.927,1.927,0,0,0,1.921-1.956L60.3,23.28l-.507,0c-.5-3.005-5.456-12.708-28.888-12.8C6.58,10.4.887,20.463.595,23.685Z" transform="translate(0 -10.487)" fill="#fff"/>
  </g>
</svg>
