<svg xmlns="http://www.w3.org/2000/svg" xmlns:xlink="http://www.w3.org/1999/xlink" width="415" height="188" viewBox="0 0 415 188">
    <defs>
        <path id="a" d="M0 .314h96.705v119.632H0z"/>
    </defs>
    <g fill="none" fill-rule="evenodd">
        <g fill="#E1F2F7">
            <rect width="74" height="27" x="20" rx="13.5"/>
            <rect width="65" height="27" x="350" y="161" rx="13.5"/>
            <rect width="28" height="27" x="336" y="1" rx="13.5"/>
            <path d="M96.5 27h219c7.456 0 13.5 6.044 13.5 13.5S322.956 54 315.5 54h-219c7.456 0 13.5-6.044 13.5-13.5S103.956 27 96.5 27zM334.5 107.956c-4.98 1.987-8.5 6.855-8.5 12.544 0 5.69 3.52 10.557 8.5 12.544a13.464 13.464 0 0 1-5 .956h-316C6.044 134 0 127.956 0 120.5S6.044 107 13.5 107h316c1.766 0 3.454.34 5 .956z"/>
            <path d="M89.5 159.853c6.507-.967 11.5-6.577 11.5-13.353s-4.993-12.386-11.5-13.353a13.61 13.61 0 0 1 2-.147h248c7.456 0 13.5 6.044 13.5 13.5s-6.044 13.5-13.5 13.5h-248c-.68 0-1.347-.05-2-.147zM315.5 160c-7.456 0-13.5 6.044-13.5 13.5s6.044 13.5 13.5 13.5h-229c-7.456 0-13.5-6.044-13.5-13.5S79.044 160 86.5 160h229zM295.5 54c-7.456 0-13.5 6.044-13.5 13.5S288.044 81 295.5 81h-249C39.044 81 33 74.956 33 67.5S39.044 54 46.5 54h249zM121.5 81h229c7.456 0 13.5 6.044 13.5 13.5s-6.044 13.5-13.5 13.5h-229c7.456 0 13.5-6.044 13.5-13.5S128.956 81 121.5 81z"/>
        </g>
        <g transform="translate(158.42 27)">
            <mask id="b" fill="#fff">
                <use xlink:href="#a"/>
            </mask>
            <path fill="#032B55" d="M91.07 20.613c-1.59.062-3.188.244-4.773.166-7.517-.372-11.878-7.036-9.33-14.193.348-.98.768-1.932 1.209-3.031h-1.977c-21.085 0-42.172-.003-63.258.001-6.261.002-9.694 3.49-9.694 9.843-.002 31.098-.002 62.196 0 93.294 0 6.549 3.462 10.035 9.963 10.036 22.882.002 45.764.002 68.646-.004.93 0 1.86-.069 2.79-.106 4.97.121 8.803-3.782 8.805-9.065.014-28.742.007-57.485.003-86.227 0-.51-.053-1.021-.094-1.75l-2.29 1.036M8.064 119.429C2.447 116.823-.022 112.474 0 106.201.111 75.25.05 44.296.051 13.343c0-8.061 4.894-12.998 12.892-13C34.952.34 56.96.353 78.97.314c1.303-.002 2.207.381 3.114 1.31 4.838 4.958 9.741 9.851 14.621 14.767-.017.735-.05 1.469-.05 2.203-.003 29.416 0 58.831-.004 88.247 0 8.148-4.927 13.099-13.035 13.1-22.674.003-45.348.017-68.022-.022-2.511-.003-5.021-.319-7.531-.49" mask="url(#b)"/>
        </g>
        <path fill="#A1CDF1" d="M165.42 146.437c2.526.17 5.05.484 7.577.488 22.812.039 45.624.025 68.436.021 8.157 0 13.114-4.923 13.114-13.024.004-29.244.002-58.488.004-87.732 0-.73.033-1.46.05-2.19 2.15 1.384 2.828 3.267 2.819 5.864-.096 28.789-.14 57.579-.005 86.367.034 7.227-5.674 12.815-12.87 12.769-24.09-.153-48.183-.048-72.275-.075-2.547-.003-5.024-.418-6.85-2.488"/>
        <path fill="#36ADEB" d="M209.045 85.221c-.127-1.486-.879-2.445-2.358-2.446-1.456 0-2.374.917-2.384 2.382-.01 1.374.85 2.242 2.228 2.307 1.496.07 2.277-.826 2.514-2.243m-44.826-44.81c0 .665-.145 1.375.043 1.981.165.531.703.946 1.076 1.413.427-.479 1.067-.895 1.23-1.451.214-.735.049-1.58.058-2.378.03-2.716 1.44-4.12 4.191-4.16.995-.014 2.016.13 2.977-.053.58-.11 1.066-.71 1.595-1.09-.55-.425-1.046-1.059-1.665-1.222-.807-.213-1.711-.055-2.574-.053-4.56.011-6.934 2.411-6.931 7.013m60.042 92.752c3.399 0 6.8.067 10.194-.061.614-.023 1.197-.847 1.795-1.302-.578-.574-1.148-1.638-1.737-1.648-6.662-.116-13.328-.087-19.992-.05-1.067.005-2.203.423-1.821 1.732.17.585 1.266 1.242 1.966 1.271 3.193.136 6.395.06 9.595.058m-17.876-34.908h26.992c.534-.001 1.19.183 1.571-.06.582-.37 1.263-.996 1.35-1.594.06-.41-.764-1.035-1.299-1.41-.27-.191-.777-.049-1.176-.049-18.129 0-36.257-.001-54.386.002-.531 0-1.17-.137-1.567.105-.496.302-1.086.927-1.093 1.42-.007.493.56 1.167 1.053 1.443.468.262 1.165.139 1.762.14 8.93.005 17.862.003 26.793.003m.236 11.634l26.992-.001c.532 0 1.166.152 1.571-.081.503-.29 1.165-.94 1.127-1.378-.049-.568-.631-1.217-1.158-1.571-.373-.251-1.034-.084-1.566-.084-17.995-.002-35.99-.002-53.983 0-.533 0-1.18-.16-1.571.081-.546.337-1.242.984-1.24 1.496 0 .504.714 1.138 1.264 1.464.4.236 1.04.073 1.573.073 8.997.002 17.994.002 26.99.001m.196 8.53c-9.064 0-18.128 0-27.192.002-.533 0-1.174-.161-1.572.077-.549.328-1.257.963-1.26 1.471-.003.508.69 1.183 1.242 1.48.47.254 1.172.083 1.772.083 17.862.002 35.723.002 53.585 0 .6 0 1.286.157 1.774-.083.51-.25 1.179-.917 1.146-1.353-.043-.57-.613-1.23-1.136-1.59-.367-.253-1.033-.084-1.566-.084-8.931-.003-17.862-.002-26.793-.002m-29.091-78.252c-.687-.346-1.441-1.041-2.04-.926-.458.089-.967 1.18-1.021 1.86-.144 1.765-.049 3.55-.049 5.523-2.104 0-4.017-.09-5.913.048-.677.05-1.767.565-1.856 1.025-.115.599.58 1.354.925 2.041.787.433 1.536 1.117 2.37 1.242 1.464.221 2.98.1 4.474.122 0 1.526-.12 3.065.053 4.57.083.726.717 1.388 1.102 2.078l2.21 1.177c.347-.725.933-1.43.992-2.177.145-1.836.047-3.69.047-5.715 1.886 0 3.606.103 5.303-.047.748-.066 1.45-.646 2.174-.992l-1.174-2.216c-.69-.386-1.348-1.01-2.075-1.105-1.366-.179-2.772-.052-4.161-.052-.022-1.365.104-2.755-.12-4.085-.142-.836-.81-1.584-1.241-2.37m16.67 30.599c4.22-.529 5.356-2.055 4.1-4.61.36-1.143.97-2.076.718-2.536-.291-.532-1.385-.98-2.054-.89a462.417 462.417 0 0 0-16.764 2.525c-.645.11-1.597 1.102-1.61 1.701-.027 1.342 1.127 1.38 2.207 1.214 1.508-.23 3.021-.431 4.532-.645.013 1.915 1.195 3.124 2.844 3.347 1.968.266 4.014-.045 6.027-.106m33.418.653c.99-.029 2.012.093 2.963-.116 2.873-.629 3.617-2.431 2.38-4.473.665-.741 1.624-1.319 1.69-1.986.136-1.34-1.021-1.406-2.096-1.402-5.575.023-11.152-.038-16.726.076-.677.013-1.336.903-2.004 1.387.666.452 1.292 1.207 2.003 1.297 1.7.215 3.44.117 5.164.146-.886 2.03-.575 3.398 1.438 4.153 1.617.607 3.45.634 5.188.918m15.169 72.468c-.932.037-1.863.106-2.795.106-22.927.006-45.855.006-68.782.004-6.515 0-9.984-3.482-9.984-10.02-.001-31.05-.002-62.1 0-93.15 0-6.342 3.44-9.826 9.714-9.827 21.128-.003 42.256-.001 63.384-.001h1.98c-.441 1.097-.862 2.049-1.211 3.026-2.553 7.146 1.817 13.8 9.349 14.171 1.588.079 3.189-.103 4.783-.165-.003 28.103.005 56.204-.038 84.306-.002 1.353-.456 2.705-.7 4.057-.022-.995.074-2.015-.116-2.977-.104-.522-.698-.946-1.07-1.414-.428.482-1.05.9-1.234 1.463-.216.661-.05 1.446-.055 2.177-.019 2.988-1.37 4.32-4.405 4.342-.928.007-1.886-.137-2.776.051-.581.123-1.063.718-1.59 1.1.552.422 1.082 1.165 1.66 1.205 1.71.115 3.44-.048 5.162-.102l-1.276 1.648"/>
        <path fill="#298CC5" d="M248.23 135.496c.248-1.354.71-2.708.712-4.062.044-28.132.036-56.264.039-84.397L251.318 46c.043.73.096 1.24.096 1.75.004 28.73.012 57.458-.003 86.187-.002 5.28-3.916 9.181-8.991 9.06l1.3-1.65c2.616-1.118 4.34-2.904 4.51-5.85"/>
        <path fill="#B9DFF3" d="M206.687 118.05c9.003 0 18.005-.001 27.008.001.537 0 1.208-.157 1.579.08.527.335 1.102.949 1.145 1.48.033.406-.641 1.027-1.155 1.26-.492.222-1.184.077-1.789.077h-54.017c-.604 0-1.312.158-1.785-.077-.557-.277-1.256-.906-1.253-1.378.003-.473.717-1.065 1.27-1.37.401-.222 1.048-.072 1.585-.072 9.137-.002 18.274-.001 27.412-.001M206.489 108.95l-27.209-.001c-.537 0-1.183.152-1.585-.068-.554-.304-1.274-.894-1.275-1.363-.002-.476.7-1.078 1.25-1.392.396-.225 1.047-.075 1.584-.075 18.14-.002 36.278-.002 54.418 0 .536 0 1.203-.156 1.579.078.531.33 1.118.933 1.167 1.462.039.408-.629 1.012-1.136 1.282-.408.218-1.047.075-1.584.075-9.07.003-18.14.002-27.21.002M206.264 97.938c-9.002 0-18.005.002-27.007-.003-.602 0-1.305.114-1.776-.129-.497-.256-1.068-.882-1.061-1.34.007-.458.601-1.038 1.101-1.32.4-.224 1.044-.097 1.58-.097 18.273-.003 36.547-.003 54.82-.002.403 0 .914-.132 1.186.045.54.35 1.37.93 1.31 1.31-.088.555-.774 1.138-1.36 1.481-.386.226-1.047.055-1.585.055h-27.208"/>
        <path fill="#F55C25" d="M185.23 47.71l1.19 2.245c-.734.351-1.447.938-2.206 1.005-1.722.152-3.467.048-5.38.048 0 2.05.098 3.929-.049 5.788-.06.756-.654 1.47-1.005 2.204l-2.244-1.19c.016-1.868-.003-3.736.062-5.601.034-.946-.224-1.406-1.234-1.133-1.516-.023-3.054.1-4.54-.124-.845-.127-1.606-.82-2.404-1.258.1-1.42.89-1.978 2.276-1.945 1.925.046 3.852.011 5.89.011 0-2 .035-3.743-.012-5.484-.036-1.386.525-2.176 1.945-2.276.438.798 1.116 1.554 1.26 2.401.227 1.348.1 2.755.122 4.137-.272 1.008.185 1.272 1.131 1.235 1.73-.067 3.464-.047 5.197-.062"/>
        <path fill="#052E58" d="M184.999 66.778c-1.475.213-2.952.413-4.425.642-1.054.164-2.18.127-2.154-1.207.012-.596.942-1.582 1.572-1.692a444.87 444.87 0 0 1 16.365-2.51c.653-.088 1.721.357 2.005.885.246.458-.348 1.385-.7 2.52 1.225 2.541.116 4.059-4.003 4.584-2.263-.403-4.222-1.15-4.164-4.074l-4.496.852"/>
        <path fill="#032C56" d="M220.643 65.91c-1.738-.028-3.49.07-5.205-.145-.716-.09-1.348-.847-2.018-1.3.673-.485 1.337-1.376 2.019-1.39 5.617-.113 11.238-.052 16.857-.075 1.083-.004 2.25.062 2.113 1.404-.068.669-1.033 1.247-1.704 1.99 1.247 2.045.497 3.85-2.399 4.48-.958.21-1.989.088-2.986.117-3.091-1.665-3.371-2.395-1.947-5.082l-4.73.001"/>
        <path fill="#C3E3F4" d="M224.24 132.979c-3.25 0-6.502.074-9.746-.056-.712-.03-1.824-.66-1.997-1.224-.388-1.26.766-1.663 1.85-1.668 6.77-.035 13.54-.063 20.309.049.597.01 1.176 1.033 1.764 1.586-.607.437-1.2 1.23-1.823 1.253-3.448.124-6.903.06-10.356.06"/>
        <path fill="#F8FC07" d="M164.47 39.757c0-4.397 2.325-6.69 6.795-6.701.846-.002 1.732-.153 2.523.05.607.156 1.092.762 1.632 1.168-.518.363-.995.936-1.564 1.041-.941.175-1.942.038-2.917.051-2.696.039-4.079 1.38-4.108 3.976-.009.762.154 1.57-.057 2.272-.159.531-.786.929-1.205 1.386-.366-.445-.893-.842-1.054-1.35-.185-.579-.043-1.257-.046-1.893"/>
        <path fill="#F8FB07" d="M248.415 136.231c-.162 2.837-1.816 4.556-4.326 5.633-1.683.051-3.374.208-5.046.097-.565-.038-1.084-.754-1.623-1.16.514-.369.986-.942 1.554-1.06.87-.181 1.807-.043 2.715-.05 2.967-.02 4.288-1.305 4.306-4.183.004-.705-.158-1.461.054-2.098.18-.542.787-.946 1.205-1.41.365.451.945.86 1.047 1.362.187.928.092 1.91.114 2.87"/>
        <path fill="#FAFCFD" d="M177.42 39.893c-1.414.094-1.973.837-1.936 2.139.046 1.635.011 3.272.011 5.151-2.029 0-3.947.032-5.862-.01-1.38-.031-2.167.493-2.266 1.827-.35-.655-1.05-1.373-.934-1.943.089-.437 1.19-.928 1.873-.975 1.916-.132 3.848-.046 5.974-.046 0-1.877-.096-3.575.048-5.255.056-.647.57-1.685 1.033-1.769.604-.11 1.365.552 2.059.881"/>
        <path fill="#F1F6FA" d="M185.42 66.796l4.673-.796c-.06 2.73 1.975 3.427 4.327 3.803-2.043.057-4.119.346-6.115.099-1.672-.208-2.872-1.33-2.885-3.106"/>
        <path fill="#F8FAFC" d="M220.883 66.001l4.631-.001c-1.394 2.643-1.12 3.362 1.906 5-1.714-.28-3.523-.308-5.119-.906-1.986-.744-2.293-2.092-1.418-4.093"/>
        <path fill="#05315C" d="M209.42 84.606c-.25 1.51-1.074 2.465-2.65 2.39-1.454-.07-2.36-.994-2.35-2.459.01-1.56.979-2.537 2.514-2.537 1.56 0 2.352 1.023 2.486 2.606"/>
        <path fill="#FBFDFE" d="M174.452 50.08c.79-.28.992.193.966 1.164-.052 1.917-.037 3.837-.05 5.756-.305-.72-.808-1.408-.874-2.164-.137-1.567-.042-3.168-.042-4.756M185.42 46.949c-1.623.012-3.247-.004-4.868.048-.886.029-1.314-.177-1.06-.963 1.321 0 2.657-.1 3.956.042.69.075 1.316.568 1.972.873"/>
        <text fill="#032B55" font-family="Roboto-Regular, Roboto" font-size="14">
        </text>
    </g>
</svg>
