<svg width="30" height="30" viewBox="0 0 30 30" fill="none" xmlns="http://www.w3.org/2000/svg">
<path d="M23.8477 30H6.15234C2.75994 30 0 27.2401 0 23.8477V6.15234C0 2.75994 2.75994 0 6.15234 0H23.8477C27.2401 0 30 2.75994 30 6.15234V23.8477C30 27.2401 27.2401 30 23.8477 30Z" fill="#00C3FF"/>
<path d="M23.8477 0H15V30H23.8477C27.2401 30 30 27.2401 30 23.8477V6.15234C30 2.75994 27.2401 0 23.8477 0Z" fill="#00AAF0"/>
<path d="M9.35032 23.1989C9.08246 23.6748 8.59476 23.9411 8.09396 23.9412C7.84846 23.9412 7.59989 23.8772 7.37246 23.7425C6.68107 23.3331 6.44333 22.423 6.84248 21.7138L7.12725 21.2079H10.471L9.35032 23.1989Z" fill="white"/>
<path d="M6.61969 20.0198C5.82133 20.0198 5.17181 19.3536 5.17181 18.5347C5.17181 17.7157 5.82133 17.0495 6.61969 17.0495H9.46784L13.3744 10.1089L12.3157 8.22785C11.9165 7.51866 12.1542 6.60856 12.8456 6.19907H12.8457C13.5371 5.78965 14.4243 6.03357 14.8235 6.7427L15.0463 7.13864L15.2692 6.74276C15.6685 6.03351 16.5558 5.78971 17.247 6.19913C17.5819 6.39749 17.8215 6.71775 17.9216 7.10092C18.0217 7.48408 17.9703 7.88436 17.7769 8.22791L12.8116 17.0495H15.9436L17.6154 20.0198H6.61969Z" fill="white"/>
<path d="M23.3872 20.0198H22.2164L23.1654 21.7138C23.5628 22.4229 23.3261 23.333 22.638 23.7425C22.4159 23.8746 22.1695 23.9421 21.9197 23.9421C21.7945 23.9421 21.6686 23.9252 21.5444 23.8909C21.1726 23.7882 20.8618 23.5424 20.6693 23.1988L15.6656 14.2672L17.3296 11.2969L20.5524 17.0495H23.3872C24.1819 17.0495 24.8284 17.7157 24.8284 18.5347C24.8284 19.3536 24.1819 20.0198 23.3872 20.0198Z" fill="#F2F2F2"/>
<path d="M15 17.0495V20.0198H17.5571L15.8931 17.0495H15Z" fill="#F2F2F2"/>
<path d="M17.8618 7.10086C17.7621 6.7177 17.5237 6.39738 17.1904 6.19908C16.5023 5.78966 15.6192 6.0334 15.2218 6.74271L15 7.13859V13.0792L17.7178 8.22785C17.9103 7.88431 17.9615 7.48409 17.8618 7.10086Z" fill="#F2F2F2"/>
</svg>
