<svg width="26" height="30" viewBox="0 0 26 30" fill="none" xmlns="http://www.w3.org/2000/svg">
<path d="M24.7247 12.8109L19.6878 9.89755L12.7869 15.0615L19.6876 20.2254L24.7417 17.3021C25.5297 16.8226 26 15.9848 26 15.0616C26 14.1384 25.5297 13.3006 24.7247 12.8109Z" fill="#FF9100"/>
<path d="M14.918 14.6528C14.9104 14.6626 8.78029 22.54 8.77531 22.5464L0.789778 28.832C0.298302 28.3408 0 27.6743 0 26.9375V2.32472C0 1.58805 0.298302 0.921423 0.789778 0.430328L8.77531 6.75931C8.78029 6.76568 14.9104 14.6431 14.918 14.6528Z" fill="#25D9F8"/>
<path d="M14.9181 14.8464L13.2131 17.2131V12.4795L14.9181 14.8464Z" fill="#00C0F1"/>
<path d="M20.0328 9.83696L14.8762 15.0615L0.852478 0.750636C1.02663 0.591725 1.20089 0.468174 1.39252 0.344622C2.22866 -0.131874 3.2217 -0.114283 4.04054 0.397632L13.1341 5.81277L20.0328 9.83696Z" fill="#7FE881"/>
<path d="M20.0328 9.95662L14.9353 15.0615L13.2131 13.3369V6.0246L20.0328 9.95662Z" fill="#5BC980"/>
<path d="M20.0328 19.8678L13.1341 23.9016L4.02312 29.3035C3.60502 29.5511 3.15208 29.6926 2.68166 29.6926C2.24614 29.6926 1.81062 29.5688 1.39252 29.3388C1.20089 29.2149 1.02663 29.0912 0.852478 28.9319L14.8762 14.6311L20.0328 19.8678Z" fill="#FF637B"/>
<path d="M20.0328 20.1662L13.2131 24.0983V16.7861L14.9353 15.0615L20.0328 20.1662Z" fill="#E63950"/>
</svg>
