<svg width="30" height="30" viewBox="0 0 30 30" fill="none" xmlns="http://www.w3.org/2000/svg">
<path d="M23.8477 30H6.15234C2.75994 30 0 27.2401 0 23.8477V6.15234C0 2.75994 2.75994 0 6.15234 0H23.8477C27.2401 0 30 2.75994 30 6.15234V23.8477C30 27.2401 27.2401 30 23.8477 30Z" fill="#9EA0A5"/>
<path d="M23.8477 0H15V30H23.8477C27.2401 30 30 27.2401 30 23.8477V6.15234C30 2.75994 27.2401 0 23.8477 0Z" fill="#9EA0A5"/>
<path d="M9.35032 23.199C9.08246 23.6749 8.59476 23.9412 8.09396 23.9413C7.84846 23.9413 7.59989 23.8773 7.37246 23.7426C6.68107 23.3332 6.44333 22.4231 6.84248 21.7139L7.12725 21.208H10.471L9.35032 23.199Z" fill="white"/>
<path d="M6.61969 20.0199C5.82133 20.0199 5.17181 19.3536 5.17181 18.5347C5.17181 17.7158 5.82133 17.0496 6.61969 17.0496H9.46784L13.3744 10.1089L12.3157 8.22791C11.9165 7.51872 12.1542 6.60862 12.8456 6.19913H12.8457C13.5371 5.78971 14.4243 6.03363 14.8235 6.74276L15.0463 7.1387L15.2692 6.74282C15.6685 6.03357 16.5558 5.78977 17.247 6.19919C17.5819 6.39755 17.8215 6.71781 17.9216 7.10098C18.0217 7.48414 17.9703 7.88442 17.7769 8.22797L12.8116 17.0496H15.9436L17.6154 20.0199H6.61969Z" fill="white"/>
<path d="M23.3872 20.02H22.2164L23.1654 21.714C23.5628 22.4231 23.3261 23.3332 22.638 23.7427C22.4159 23.8748 22.1695 23.9423 21.9197 23.9423C21.7945 23.9423 21.6686 23.9254 21.5444 23.8911C21.1726 23.7883 20.8618 23.5426 20.6693 23.199L15.6656 14.2674L17.3296 11.2971L20.5524 17.0497H23.3872C24.1819 17.0497 24.8284 17.7159 24.8284 18.5348C24.8284 19.3538 24.1819 20.02 23.3872 20.02Z" fill="#F2F2F2"/>
<path d="M15 17.0496V20.0199H17.5571L15.8931 17.0496H15Z" fill="#F2F2F2"/>
<path d="M17.8618 7.10096C17.7621 6.71779 17.5237 6.39747 17.1904 6.19917C16.5023 5.78975 15.6192 6.03349 15.2218 6.7428L15 7.13868V13.0793L17.7178 8.22795C17.9103 7.8844 17.9615 7.48418 17.8618 7.10096Z" fill="#F2F2F2"/>
</svg>
