<svg width="30" height="30" viewBox="0 0 30 30" fill="none" xmlns="http://www.w3.org/2000/svg">
<path fill-rule="evenodd" clip-rule="evenodd" d="M15 30C23.2843 30 30 23.2843 30 15C30 6.71573 23.2843 0 15 0C6.71573 0 0 6.71573 0 15C0 23.2843 6.71573 30 15 30Z" fill="white"/>
<mask id="mask0" mask-type="alpha" maskUnits="userSpaceOnUse" x="0" y="0" width="30" height="30">
<path fill-rule="evenodd" clip-rule="evenodd" d="M15 30C23.2843 30 30 23.2843 30 15C30 6.71573 23.2843 0 15 0C6.71573 0 0 6.71573 0 15C0 23.2843 6.71573 30 15 30Z" fill="white"/>
</mask>
<g mask="url(#mask0)">
<path fill-rule="evenodd" clip-rule="evenodd" d="M6.15234 0H23.8477C27.2401 0 30 2.75994 30 6.15234V23.8477C30 27.2401 27.2401 30 23.8477 30H6.15234C2.75994 30 0 27.2401 0 23.8477V6.15234C0 2.75994 2.75994 0 6.15234 0ZM7.96617 23.8482C8.47283 23.8482 8.96625 23.5855 9.23725 23.1161L10.371 21.1523H6.98812L6.70002 21.6513C6.29619 22.3508 6.53672 23.2485 7.23621 23.6523C7.46631 23.7851 7.71779 23.8482 7.96617 23.8482ZM6.47461 19.9805C5.66689 19.9805 5.00977 19.3233 5.00977 18.5156C5.00977 17.7079 5.66689 17.0508 6.47461 17.0508H9.35613L13.3085 10.205L12.2374 8.34973C11.8335 7.65023 12.074 6.75258 12.7735 6.34869H12.7736C13.473 5.94486 14.3707 6.18545 14.7745 6.88488L15 7.27541L15.2255 6.88494C15.6295 6.18539 16.5271 5.94492 17.2264 6.34875C17.5653 6.54439 17.8077 6.86027 17.9089 7.2382C18.0103 7.61613 17.9582 8.01094 17.7626 8.34978L12.739 17.0508H15.9077L17.5992 19.9805H6.47461ZM22.3353 19.9805H23.5254C24.3331 19.9805 24.9902 19.3233 24.9902 18.5156C24.9902 17.7079 24.3331 17.0508 23.5254 17.0508H20.6439L17.3679 11.3769L15.6765 14.3065L20.7627 23.116C20.9583 23.4549 21.2742 23.6973 21.6522 23.7986C21.7785 23.8325 21.9064 23.8492 22.0337 23.8492C22.2875 23.8492 22.5381 23.7826 22.7638 23.6522C23.4633 23.2484 23.7038 22.3507 23.2999 21.6513L22.3353 19.9805Z" fill="#929292"/>
</g>
</svg>
