<svg width="23" height="25" viewBox="0 0 23 25" fill="none" xmlns="http://www.w3.org/2000/svg">
<path d="M5.05421 0.402937C4.09005 -0.141875 2.958 -0.129278 2 0.41081L13.2281 11L17 7.1438L5.05421 0.402937Z" fill="#929292"/>
<path d="M0.442571 2C0.161222 2.45482 0 2.97528 0 3.527V22.5105C0 23.045 0.146997 23.5546 0.41254 24L12 12.5421L0.442571 2Z" fill="#929292"/>
<path d="M21.4839 10.0749L17.9599 8L14 12.2239L18.853 17L21.4854 15.4498C22.4328 14.8896 23 13.8852 23 12.7616C22.9985 11.638 22.4328 10.6335 21.4839 10.0749Z" fill="#929292"/>
<path d="M12.3606 13L1 24.5627C1.493 24.849 2.0339 25 2.5779 25C3.10335 25 3.63189 24.8647 4.11562 24.5926L17 17.3555L12.3606 13Z" fill="#929292"/>
</svg>
