<?xml version="1.0" encoding="UTF-8"?>
<svg width="44px" height="44px" viewBox="0 0 44 44" version="1.1" xmlns="http://www.w3.org/2000/svg" xmlns:xlink="http://www.w3.org/1999/xlink">
    <!-- Generator: Sketch 53.2 (72643) - https://sketchapp.com -->
    <title>icon-CustomizeTheme</title>
    <desc>Created with Sketch.</desc>
    <defs>
        <path d="M0,20 L19.6347929,20 L19.6347929,18.042095 L0,18.042095 L0,20 Z M6.8721775,13.1473324 L6.8721775,10.5139501 L12.4710387,5.34410181 L14.4256823,7.49388155 L9.43157275,13.1473324 L6.8721775,13.1473324 Z M15.471235,2.64512971 L17.1990968,4.36319139 L15.8531317,5.7875673 L14.053603,3.99314733 L15.471235,2.64512971 Z M20,4.64512971 L15.3642254,0 L4.90869821,9.68771415 L4.90869821,15.1052374 L10.2729236,15.1052374 L20,4.64512971 Z" id="path-1"></path>
    </defs>
    <g id="Page-1" stroke="none" stroke-width="1" fill="none" fill-rule="evenodd">
        <g id="Home-1-Copy" transform="translate(-404.000000, -431.000000)">
            <g id="icon-CustomizeTheme" transform="translate(404.000000, 431.000000)">
                <circle id="Base" fill="#34AA44" opacity="0.100000001" cx="22" cy="22" r="22"></circle>
                <g id="Icon/20px/edit-[#1483]" transform="translate(12.000000, 12.000000)">
                    <mask id="mask-2" fill="white">
                        <use xlink:href="#path-1"></use>
                    </mask>
                    <use id="edit-[#1483]" fill-opacity="0" fill="#FFFFFF" fill-rule="evenodd" xlink:href="#path-1"></use>
                    <g id="⚙️Atoms/Colour/Green/1---100%" mask="url(#mask-2)" fill="#34AA44" fill-rule="evenodd">
                        <g transform="translate(-1.000000, -1.000000)" id="Rectangle">
                            <rect x="0" y="0" width="22" height="22"></rect>
                        </g>
                    </g>
                </g>
            </g>
        </g>
    </g>
</svg>