<svg xmlns="http://www.w3.org/2000/svg" xmlns:xlink="http://www.w3.org/1999/xlink" width="64" height="62" viewBox="0 0 64 62">
  <defs>
    <clipPath id="clip-Artboard_1">
      <rect width="64" height="62"/>
    </clipPath>
  </defs>
  <g id="Artboard_1" data-name="Artboard – 1" clip-path="url(#clip-Artboard_1)">
    <rect width="64" height="62" fill="#fff"/>
    <g id="Group_56" data-name="Group 56" transform="translate(-266.5 177.5)">
      <circle id="Ellipse_9" data-name="Ellipse 9" cx="25.5" cy="25.5" r="25.5" transform="translate(273.5 -172.5)" fill="#c9c9c9"/>
      <g id="Group_55" data-name="Group 55" transform="translate(284.391 -159.098)">
        <path id="Path_881" data-name="Path 881" d="M36.668,99.756a6.785,6.785,0,0,1-2.616-2.592,7.818,7.818,0,0,1,.013-7.48,6.741,6.741,0,0,1,2.644-2.572,7.743,7.743,0,0,1,3.785-.924,8.025,8.025,0,0,1,3.257.677A6.458,6.458,0,0,1,46.283,88.8l-2.1,1.677a4.3,4.3,0,0,0-1.646-1.3,4.791,4.791,0,0,0-2.01-.458,4.232,4.232,0,0,0-2.269.6,3.916,3.916,0,0,0-1.489,1.667,5.554,5.554,0,0,0-.519,2.439,5.3,5.3,0,0,0,.529,2.392,4.229,4.229,0,0,0,1.492,1.705,3.922,3.922,0,0,0,2.2.629,5.176,5.176,0,0,0,1.715-.267,2.74,2.74,0,0,0,1.145-.687l0-2.21H40.384l0-2.382h5.965l-.01,5.431a6.974,6.974,0,0,1-5.931,2.648A7.521,7.521,0,0,1,36.668,99.756Z" transform="translate(-33.106 -81.509)" fill="#fff"/>
        <path id="Path_882" data-name="Path 882" d="M63.488,80.974a.636.636,0,0,0-.077,0,4.232,4.232,0,0,0-1.043.24,3.933,3.933,0,0,0-1.933,1.331c-.509.685-.992,1.388-1.483,2.087a.13.13,0,0,1-.109.066c-.363.027-.727.055-1.089.089a.177.177,0,0,0-.115.07c-.179.268-.353.541-.527.814-.05.08-.036.107.064.118.286.031.571.067.857.1.077.007.122.037.132.112a.217.217,0,0,1,0,.08c-.022.071-.042.145-.068.214-.009.023-.019.046-.03.068a.248.248,0,0,0-.012.211c-.809,1.06-1.595,2.175-2.327,3.278l-.157-.014c-.2-.017-.4-.025-.614-.025a6.007,6.007,0,0,0-2.854.659A4.75,4.75,0,0,0,50.17,92.33a5.444,5.444,0,0,0-.691,2.755c0,.025,0,.049,0,.073h0a5.445,5.445,0,0,0,.681,2.756,4.772,4.772,0,0,0,.74.981c.035.038.073.073.11.109-.773,2.384-.928,4.052-.46,4.976a1.45,1.45,0,0,0,.971.783,2.472,2.472,0,0,0,.6.077c2.017,0,3.493-2.487,3.555-2.594a.139.139,0,0,0-.042-.186.146.146,0,0,0-.079-.024.136.136,0,0,0-.109.053c-.488.617-1.964,1.968-3.169,1.968a1.229,1.229,0,0,1-.908-.373c-.438-.444-.347-1.973.367-4.11.04.026.083.051.124.076.074.044.147.086.223.127.094.05.191.1.287.14.043.021.087.039.13.057l.136.056a7.875,7.875,0,0,0-.138,2.3,10.249,10.249,0,0,1,.465-2.189c.045.015.09.03.134.042l.135.038a6.611,6.611,0,0,0,1.706.211,5.965,5.965,0,0,0,2.847-.659,4.758,4.758,0,0,0,1.927-1.861,5.469,5.469,0,0,0,.693-2.756h0c0-.023,0-.048,0-.073a5.44,5.44,0,0,0-.683-2.755,4.678,4.678,0,0,0-1.376-1.525c-.375.533-.784,1.118-1.189,1.706a3.083,3.083,0,0,1,.556.775,3.888,3.888,0,0,1,.4,1.8,3.841,3.841,0,0,1-.406,1.791,2.958,2.958,0,0,1-1.12,1.208,3.121,3.121,0,0,1-1.646.431,3.393,3.393,0,0,1-1.079-.166c-.045-.015-.088-.031-.13-.048s-.088-.035-.132-.055a18.308,18.308,0,0,1,1.281-2.769c.486-.824,1.27-2,2.066-3.158.4-.577.8-1.15,1.166-1.671.906-1.282,1.621-2.261,1.621-2.261l-1.421.853s-.305.371-.813,1.079c-.305.425-.685.975-1.113,1.638-.621.958-1.349,2.159-2.114,3.58a16.751,16.751,0,0,0-1.1,2.474,1.01,1.01,0,0,1-.121-.084c-.039-.028-.079-.057-.117-.09a2.727,2.727,0,0,1-.275-.256,1.519,1.519,0,0,1-.1-.116,32.4,32.4,0,0,1,2.446-4.455c.283-.433.561-.853.833-1.256.048.011.093.025.14.04s.1.031.145.048c.425-.656.8-1.2,1.11-1.634-.042-.017-.085-.033-.129-.048s-.09-.033-.136-.048c.755-1.071,1.44-2,2.026-2.762a.2.2,0,0,0,.177-.019l.025-.015c.091-.058.184-.108.279-.16a.135.135,0,0,1,.21.076c.087.276.174.556.259.832.036.118.057.125.143.044.231-.218.463-.435.688-.658a.184.184,0,0,0,.048-.136c-.036-.372-.08-.742-.118-1.112a.146.146,0,0,1,.037-.1q.781-.812,1.566-1.616a4.025,4.025,0,0,0,1.048-1.918,5.459,5.459,0,0,0,.14-1.213C63.5,81.229,63.494,81.1,63.488,80.974Zm-11.7,14.112a3.968,3.968,0,0,1,.4-1.8,2.911,2.911,0,0,1,1.12-1.214,2.989,2.989,0,0,1,1.09-.388h0c.057-.009.117-.017.177-.022a42.076,42.076,0,0,0-2.588,4.748c-.022-.067-.043-.135-.061-.2a4.181,4.181,0,0,1-.136-.968c0-.027,0-.053,0-.08Zm9.459-11.753a.477.477,0,0,0,.155.225.6.6,0,0,0,.179.106.318.318,0,0,0,.158.024l.17-.2-.273-.223.182-.222.549.455-.414.5a.831.831,0,0,1-.75-.206.9.9,0,0,1-.275-.372.814.814,0,0,1-.045-.439.9.9,0,0,1,.2-.417.889.889,0,0,1,.375-.273.805.805,0,0,1,.44-.037.936.936,0,0,1,.42.2.993.993,0,0,1,.25.311.765.765,0,0,1,.085.372l-.322-.006a.5.5,0,0,0-.053-.245.584.584,0,0,0-.15-.2.511.511,0,0,0-.256-.118.492.492,0,0,0-.265.04.7.7,0,0,0-.233.187.626.626,0,0,0-.134.261A.526.526,0,0,0,61.243,83.333Z" transform="translate(-34.785 -80.974)" fill="#fff"/>
      </g>
    </g>
  </g>
</svg>
