<?xml version="1.0" encoding="UTF-8"?>
<svg width="44px" height="44px" viewBox="0 0 44 44" version="1.1" xmlns="http://www.w3.org/2000/svg" xmlns:xlink="http://www.w3.org/1999/xlink">
    <!-- Generator: Sketch 53.2 (72643) - https://sketchapp.com -->
    <title>icon-AddProduct</title>
    <desc>Created with Sketch.</desc>
    <g id="Page-1" stroke="none" stroke-width="1" fill="none" fill-rule="evenodd">
        <g id="Home-1-Copy" transform="translate(-404.000000, -346.000000)" fill="#556CE7">
            <g id="icon-AddProduct" transform="translate(404.000000, 346.000000)">
                <circle id="Base" opacity="0.100000001" cx="22" cy="22" r="22"></circle>
                <g id="add-new-document" transform="translate(14.000000, 12.000000)" fill-rule="nonzero">
                    <polygon id="Path" points="14.7356522 0.559130435 4.36434783 0.559130435 0 4.4626087 0 19.7617391 10.3782609 19.7617391 10.3782609 18.3878261 1.54521739 18.3878261 1.54521739 5.95826087 6.0226087 5.95826087 6.0226087 1.93130435 13.1904348 1.93130435 13.1904348 6.18347826 14.7356522 6.18347826"></polygon>
                    <polygon id="Path" points="12.5547826 12.4973913 12.5547826 8.25652174 15.8469565 8.25652174 15.8469565 12.4973913 20.3730435 12.4973913 20.3730435 15.5730435 15.8469565 15.5730435 15.8469565 19.813913 12.5547826 19.813913 12.5547826 15.5730435 8.03652174 15.5730435 8.03652174 12.4973913"></polygon>
                </g>
            </g>
        </g>
    </g>
</svg>