<?xml version="1.0" encoding="utf-8"?>
<!-- Generator: Adobe Illustrator 24.0.3, SVG Export Plug-In . SVG Version: 6.00 Build 0)  -->
<svg version="1.1" id="Layer_1" xmlns="http://www.w3.org/2000/svg" xmlns:xlink="http://www.w3.org/1999/xlink" x="0px" y="0px"
	 viewBox="0 0 36 36" style="enable-background:new 0 0 36 36;" xml:space="preserve">
<style type="text/css">
	.st0{fill-rule:evenodd;clip-rule:evenodd;fill:#D8D8D8;stroke:#FFFFFF;stroke-width:6;}
	.st1{filter:url(#Adobe_OpacityMaskFilter);}
	.st2{fill-rule:evenodd;clip-rule:evenodd;fill:#FFFFFF;}
	.st3{fill:#201F57;stroke:#FFFFFF;stroke-width:2;stroke-miterlimit:10;}
	.st4{fill:#F8961D;}
	.st5{fill:url(#SVGID_1_);}
	.st6{fill:#F26A21;}
	.st7{fill:#FFFFFF;}
</style>
<title>icon-lazada-active</title>
<desc>Created with Sketch.</desc>
<g id="Dashboard">
	<g id="icon-lazada-active" transform="translate(3.000000, 3.000000)">
		<g id="Mask">
			<circle id="path-1_1_" class="st0" cx="15" cy="15" r="15"/>
		</g>
		<defs>
			<filter id="Adobe_OpacityMaskFilter" filterUnits="userSpaceOnUse" x="0" y="0" width="29.9" height="30">
				<feColorMatrix  type="matrix" values="1 0 0 0 0  0 1 0 0 0  0 0 1 0 0  0 0 0 1 0"/>
			</filter>
		</defs>
		<mask maskUnits="userSpaceOnUse" x="0" y="0" width="29.9" height="30" id="mask-2_1_">
			<g class="st1">
				<circle id="path-1_2_" class="st2" cx="15" cy="15" r="15"/>
			</g>
		</mask>
		<g style="mask:url(#mask-2_1_);enable-background:new    ;">
			
				<image style="overflow:visible;" width="421" height="422" id="Bitmap" xlink:href="C90EAB13DDB4E19C.png"  transform="matrix(7.109005e-02 0 0 7.109005e-02 3.554440e-02 0)">
			</image>
		</g>
	</g>
</g>
<circle class="st3" cx="17.9" cy="17.8" r="15.7"/>
<g>
	<circle class="st4" cx="13.8" cy="13.9" r="1.5"/>
	<g>
		<g>
			
				<linearGradient id="SVGID_1_" gradientUnits="userSpaceOnUse" x1="6.2678" y1="33.7778" x2="29.5927" y2="33.7778" gradientTransform="matrix(1 0 0 1 0 -16)">
				<stop  offset="0" style="stop-color:#F8961D"/>
				<stop  offset="0.2305" style="stop-color:#F7921E"/>
				<stop  offset="0.529" style="stop-color:#F6871F"/>
				<stop  offset="0.8635" style="stop-color:#F47421"/>
				<stop  offset="1" style="stop-color:#F26A21"/>
			</linearGradient>
			<path class="st5" d="M12.4,15.4c0,0,2,4.6,6.6,4.8c0,0,5.9,0.5,8.1-6.5c0,0,0.3-1.3,1.6-1c0,0,0.9,0.3,0.8,1.6
				c0,0-1.8,8.7-10.4,8.9c0,0-6.4,0.2-9.5-7.7H7.2c0,0-1-0.1-1-1.6c0,0,0-0.9,0.9-1.2h6.5c0,0,1,0.2,1.1,1.3
				c0.1,1.1-0.6,1.5-0.9,1.5S12.4,15.4,12.4,15.4z"/>
			<circle class="st4" cx="16.4" cy="25.2" r="1.7"/>
			<circle class="st6" cx="22.2" cy="25.2" r="1.7"/>
		</g>
		<circle class="st4" cx="7.4" cy="13.9" r="1.5"/>
	</g>
	<path class="st7" d="M17,24.1C16.9,24,16.7,24,16.5,24c-0.7,0-1.2,0.5-1.2,1.2v0.1c0-0.1,0-0.2,0-0.3c0-0.6,0.5-1.1,1.1-1.1
		C16.6,23.9,16.8,24,17,24.1z"/>
	<path class="st7" d="M22.8,24.1C22.7,24,22.5,24,22.3,24c-0.7,0-1.2,0.5-1.2,1.2v0.1c0-0.1,0-0.2,0-0.3c0-0.6,0.5-1.1,1.1-1.1
		C22.4,23.9,22.6,24,22.8,24.1z"/>
	<path class="st7" d="M14,13.3c-0.1-0.1-0.3-0.2-0.5-0.2H7.9c-0.2,0-0.4,0.1-0.5,0.2c-0.1,0.1-0.2,0.3-0.2,0.5c0,0.1,0,0.3,0.1,0.4
		C7.1,14.1,7,13.9,7,13.7c0-0.2,0.1-0.4,0.2-0.5C7.3,13.1,7.5,13,7.8,13h5.6C13.6,13,13.9,13.1,14,13.3z"/>
	<path class="st7" d="M19.8,22.5c-0.2,0-0.3,0-0.5,0c-3.3,0-6.1-1.9-7.6-4.6C13.4,20.6,16.4,22.4,19.8,22.5z"/>
</g>
</svg>
