<?xml version="1.0" encoding="UTF-8"?>
<svg width="44px" height="44px" viewBox="0 0 44 44" version="1.1" xmlns="http://www.w3.org/2000/svg" xmlns:xlink="http://www.w3.org/1999/xlink">
    <!-- Generator: Sketch 53.2 (72643) - https://sketchapp.com -->
    <title>icon-AddBank</title>
    <desc>Created with Sketch.</desc>
    <g id="Page-1" stroke="none" stroke-width="1" fill="none" fill-rule="evenodd">
        <g id="Home-1-Copy" transform="translate(-404.000000, -597.000000)" fill="#1665D8">
            <g id="icon-AddBank" transform="translate(404.000000, 597.000000)">
                <circle id="Base" opacity="0.100000001" cx="22" cy="22" r="22"></circle>
                <g id="credit-card" transform="translate(11.000000, 13.000000)" fill-rule="nonzero">
                    <path d="M21.9490912,0.550712145 C21.5819417,0.183557033 21.1405826,0 20.6250547,0 L1.87498632,0 C1.35937637,0 0.918099297,0.183515987 0.550703606,0.550712145 C0.183513142,0.917949349 0,1.35923326 0,1.87489225 L0,16.1249025 C0,16.6406846 0.183513142,17.0820096 0.550703606,17.4492058 C0.918099297,17.8164019 1.35937637,18 1.87498632,18 L20.6250547,18 C21.1405826,18 21.5819007,17.8164019 21.9490912,17.4492058 C22.3162406,17.0820507 22.5,16.6407257 22.5,16.1249025 L22.5,1.87489225 C22.5,1.35923326 22.3162406,0.917949349 21.9490912,0.550712145 Z M20.9998386,16.1251898 C20.9998386,16.2269014 20.9627747,16.3145343 20.888565,16.3889915 C20.8143963,16.462874 20.7264774,16.4999384 20.6250547,16.4999384 L1.87498632,16.4999384 C1.77348151,16.4999384 1.68556267,16.462874 1.61135292,16.3887042 C1.53718423,16.3142881 1.50003831,16.2266141 1.50003831,16.1249025 L1.50003831,9 L20.9998796,9 L20.9998796,16.1251898 L20.9998386,16.1251898 Z M20.9998386,4.49977425 L1.49999726,4.49977425 L1.49999726,1.87472807 C1.49999726,1.77318064 1.53702004,1.68546567 1.61131188,1.61109059 C1.68556267,1.53708492 1.77348151,1.49993843 1.87494527,1.49993843 L20.6250137,1.49993843 C20.7264364,1.49993843 20.8143552,1.53692074 20.8885239,1.61109059 C20.9627337,1.68546567 20.9997975,1.77318064 20.9997975,1.87472807 L20.9998386,4.49977425 L20.9998386,4.49977425 Z" id="Shape"></path>
                    <rect id="Rectangle" x="2.92207792" y="13.6451613" width="2.92207792" height="1.4516129"></rect>
                    <rect id="Rectangle" x="7.5974026" y="13.6451613" width="4.38311688" height="1.4516129"></rect>
                </g>
            </g>
        </g>
    </g>
</svg>