<svg width="20" height="21" viewBox="0 0 20 21" fill="none" xmlns="http://www.w3.org/2000/svg">
<path d="M4.76197 14.7954C4.23276 14.7954 3.78304 14.981 3.41265 15.3521C3.04239 15.7236 2.85712 16.1742 2.85712 16.7045C2.85712 17.2349 3.04225 17.6855 3.41265 18.0569C3.78318 18.4281 4.2329 18.6136 4.76197 18.6136C5.28229 18.6136 5.72973 18.4281 6.10458 18.0569C6.47929 17.6859 6.66664 17.2349 6.66664 16.7045C6.66664 16.1742 6.47933 15.7239 6.10458 15.3521C5.72969 14.9813 5.28229 14.7954 4.76197 14.7954Z" fill="#9EA0A5"/>
<path d="M4.28571 10.7388C4.28571 10.1482 4.07599 9.64271 3.65629 9.22175C3.23665 8.80116 2.7321 8.59091 2.14283 8.59091C1.55352 8.59091 1.04906 8.80121 0.629373 9.22175C0.209775 9.64239 0 10.148 0 10.7388C0 11.3293 0.209729 11.8346 0.629373 12.2553C1.04906 12.6761 1.55352 12.8864 2.14283 12.8864C2.7321 12.8864 3.23665 12.6761 3.65629 12.2553C4.07599 11.8349 4.28571 11.3293 4.28571 10.7388Z" fill="#9EA0A5"/>
<path d="M16.1905 6.20453C16.4521 6.20453 16.6767 6.11093 16.8629 5.9241C17.0494 5.7371 17.1429 5.51233 17.1429 5.2499C17.1429 4.98735 17.0494 4.76275 16.8629 4.57587C16.6766 4.38888 16.4521 4.29544 16.1905 4.29544C15.9285 4.29544 15.7042 4.38904 15.5177 4.57587C15.3314 4.76279 15.2381 4.98735 15.2381 5.2499C15.2381 5.51245 15.3314 5.7371 15.5177 5.9241C15.7042 6.1111 15.9285 6.20453 16.1905 6.20453Z" fill="#9EA0A5"/>
<path d="M4.76203 2.86365C4.10355 2.86365 3.54215 3.09644 3.07765 3.56189C2.61311 4.02734 2.38098 4.59004 2.38098 5.24987C2.38098 5.90993 2.61311 6.4724 3.07765 6.93804C3.54229 7.40363 4.10369 7.63637 4.76203 7.63637C5.42037 7.63637 5.98181 7.40348 6.44621 6.93804C6.91061 6.4724 7.14289 5.90979 7.14289 5.24987C7.14289 4.59004 6.91061 4.02734 6.44621 3.56189C5.98181 3.09644 5.42037 2.86365 4.76203 2.86365Z" fill="#9EA0A5"/>
<path d="M19.6528 9.89336C19.4213 9.66133 19.1402 9.54544 18.8096 9.54544C18.4786 9.54544 18.1975 9.66133 17.966 9.89336C17.7347 10.1254 17.619 10.4072 17.619 10.7388C17.619 11.0701 17.7347 11.3523 17.966 11.5838C18.1976 11.8159 18.4786 11.9318 18.8096 11.9318C19.1402 11.9318 19.4215 11.8159 19.6528 11.5838C19.8845 11.352 20 11.0701 20 10.7388C20 10.4074 19.8846 10.1255 19.6528 9.89336Z" fill="#9EA0A5"/>
<path d="M16.1905 15.2727C15.7992 15.2727 15.4633 15.4132 15.1826 15.6946C14.9023 15.9756 14.7619 16.3124 14.7619 16.7046C14.7619 17.0966 14.9023 17.4334 15.1826 17.7147C15.4633 17.996 15.7992 18.1364 16.1905 18.1364C16.5816 18.1364 16.9175 17.9957 17.1981 17.7147C17.4788 17.4334 17.619 17.0968 17.619 16.7046C17.619 16.3124 17.4788 15.9759 17.1981 15.6946C16.9175 15.4132 16.5816 15.2727 16.1905 15.2727Z" fill="#9EA0A5"/>
<path d="M10.2381 17.6591C9.77811 17.6591 9.38528 17.8225 9.05959 18.1488C8.73421 18.4751 8.57141 18.8685 8.57141 19.3296C8.57141 19.7907 8.73403 20.1842 9.05959 20.5104C9.38528 20.8367 9.77792 21 10.2381 21C10.6982 21 11.0909 20.8367 11.4164 20.5104C11.742 20.1842 11.9047 19.7907 11.9047 19.3296C11.9047 18.8685 11.742 18.4751 11.4164 18.1488C11.0909 17.8225 10.6982 17.6591 10.2381 17.6591Z" fill="#9EA0A5"/>
<path d="M10.4763 0C9.81502 0 9.25258 0.255094 8.78957 0.765522C8.32668 1.276 8.09521 1.89594 8.09521 2.62507C8.09521 3.35425 8.32659 3.97391 8.78957 4.48443C9.25258 4.99476 9.81489 5.25 10.4763 5.25C11.1379 5.25 11.7 4.99491 12.1628 4.48443C12.6257 3.97415 12.8571 3.35425 12.8571 2.62507C12.8571 1.89599 12.6257 1.27619 12.1628 0.765522C11.7 0.255238 11.1379 0 10.4763 0Z" fill="#9EA0A5"/>
</svg>
