<svg xmlns="http://www.w3.org/2000/svg" xmlns:xlink="http://www.w3.org/1999/xlink" width="47" height="47" viewBox="0 0 47 47">
  <defs>
    <filter id="Ellipse_7" x="0" y="0" width="47" height="47" filterUnits="userSpaceOnUse">
      <feOffset input="SourceAlpha"/>
      <feGaussianBlur stdDeviation="0.5" result="blur"/>
      <feFlood flood-opacity="0.702"/>
      <feComposite operator="in" in2="blur"/>
      <feComposite in="SourceGraphic"/>
    </filter>
  </defs>
  <g id="Group_13" data-name="Group 13" transform="translate(-1718.5 -401.5)">
    <g id="Group_12" data-name="Group 12">
      <g id="Group_11" data-name="Group 11">
        <g transform="matrix(1, 0, 0, 1, 1718.5, 401.5)" filter="url(#Ellipse_7)">
          <g id="Ellipse_7-2" data-name="Ellipse 7" transform="translate(1.5 1.5)" fill="#fff" stroke="#556ce7" stroke-width="2">
            <circle cx="22" cy="22" r="22" stroke="none"/>
            <circle cx="22" cy="22" r="21" fill="none"/>
          </g>
        </g>
        <g id="Group_10" data-name="Group 10">
          <path id="Path_32" data-name="Path 32" d="M1273.488-631.129s5.946-7.327,20.541-.568,17.581-8.615,17.581-8.615l-.36,4.584-3.508,6.541-5.146,4.617-9.645,2.93L1284-622.972l-6.362-3.215Z" transform="matrix(0.995, -0.105, 0.105, 0.995, 524.583, 1199.359)" fill="#556ce7"/>
          <g id="speed-2" transform="translate(1724.086 422.632) rotate(-42)">
            <g id="Group_5" data-name="Group 5" transform="translate(15.941 0)">
              <g id="Group_4" data-name="Group 4" transform="translate(0 0)">
                <path id="Path_29" data-name="Path 29" d="M342.855.392a.4.4,0,0,0-.372-.372A18.544,18.544,0,0,0,334.4,1.675l6.8,6.8A18.568,18.568,0,0,0,342.855.392Z" transform="translate(-334.4 -0.006)" fill="#3f51b5"/>
              </g>
            </g>
            <g id="Group_7" data-name="Group 7" transform="translate(0 2.036)">
              <g id="Group_6" data-name="Group 6" transform="translate(0)">
                <path id="Path_30" data-name="Path 30" d="M22.49,49.92,15.27,42.7a20.058,20.058,0,0,0-7.964,7.244l-3.195-.215a.393.393,0,0,0-.405.257L1.236,56.3a.4.4,0,0,0,.134.472.387.387,0,0,0,.248.081.414.414,0,0,0,.243-.081l2.051-1.535,1.073.215L6.6,57.063l-.443.8a2.561,2.561,0,0,0-1.769-.181A2.72,2.72,0,0,0,2.562,59.2L.154,64.5a.406.406,0,0,0,.367.577.343.343,0,0,0,.167-.038l5.293-2.408A2.731,2.731,0,0,0,7.507,60.8,2.574,2.574,0,0,0,7.3,58.98l.758-.458,1.683,1.683.215,1.073-1.535,2.05a.408.408,0,0,0,0,.491.4.4,0,0,0,.324.162.407.407,0,0,0,.148-.029l6.309-2.47a.409.409,0,0,0,.258-.405l-.215-3.195A19.986,19.986,0,0,0,22.49,49.92ZM6.715,60.606a1.94,1.94,0,0,1-1.073,1.288L1.336,63.849l1.955-4.306A1.928,1.928,0,0,1,4.579,58.47a1.844,1.844,0,0,1,.453-.057,1.688,1.688,0,0,1,.72.157c-.091.167-.186.329-.277.5-.124.224-.258.5,0,.706.224.181.463.033.672-.081.157-.091.31-.176.467-.262A1.718,1.718,0,0,1,6.715,60.606Zm-.2-9.366c-.052.091-.1.181-.157.277-.138.257-.277.52-.41.787-.043.091-.091.172-.134.262-.172.348-.334.706-.5,1.068-.043.1-.086.215-.134.319-.091.215-.186.429-.272.653l-1.03-.21a.414.414,0,0,0-.324.072l-1.049.787,1.841-4.692,2.456.162C6.711,50.892,6.615,51.069,6.52,51.241Zm.31,7.077.587-1.054a.354.354,0,0,0,.057-.062l1.941-3.519h2.093v1.807Zm3.1,4.359.787-1.049a.392.392,0,0,0,.072-.324l-.205-1.035c.224-.091.443-.181.663-.277l.305-.129c.362-.157.72-.324,1.073-.5.086-.043.167-.086.248-.129q.408-.2.8-.415c.091-.048.181-.1.272-.153.172-.1.348-.191.52-.291l.162,2.456ZM15.6,53.1a3.507,3.507,0,1,1,2.48-1.025A3.522,3.522,0,0,1,15.6,53.1Z" transform="translate(-0.116 -42.7)" fill="#3f51b5"/>
              </g>
            </g>
            <circle id="Ellipse_8" data-name="Ellipse 8" cx="2.813" cy="2.813" r="2.813" transform="translate(12.674 6.108)" fill="#3f51b5"/>
            <g id="Group_8" data-name="Group 8" transform="translate(15.536 6.245) rotate(45)">
              <path id="Path_31" data-name="Path 31" d="M3.414,1.912a.309.309,0,0,1,.091.238V3.243a1.3,1.3,0,0,1-.038.348.4.4,0,0,1-.124.2.776.776,0,0,1-.267.124,3.291,3.291,0,0,1-.5.1,4.327,4.327,0,0,1-.534.038A2.287,2.287,0,0,1,.954,3.81a1.668,1.668,0,0,1-.706-.7A2.282,2.282,0,0,1,0,2.027,2.254,2.254,0,0,1,.243.954a1.712,1.712,0,0,1,.7-.706A2.211,2.211,0,0,1,2,0,1.99,1.99,0,0,1,3.286.405.429.429,0,0,1,3.4.539a.347.347,0,0,1,.033.167.4.4,0,0,1-.081.248.234.234,0,0,1-.2.1.414.414,0,0,1-.133-.024A.99.99,0,0,1,2.885.963,1.844,1.844,0,0,0,2.451.758,1.383,1.383,0,0,0,2.017.7Q.873.7.873,2.027a1.515,1.515,0,0,0,.3,1.02,1.137,1.137,0,0,0,.9.339A2.462,2.462,0,0,0,2.709,3.3V2.432H2.194a.373.373,0,0,1-.253-.076.278.278,0,0,1-.091-.224.278.278,0,0,1,.091-.224.373.373,0,0,1,.253-.076h.958A.348.348,0,0,1,3.414,1.912Z" fill="#fff"/>
            </g>
          </g>
        </g>
      </g>
    </g>
    <path id="Intersection_1" data-name="Intersection 1" d="M466.342,1099.305a.409.409,0,0,1-.367-.286l-1.752-5.544a2.744,2.744,0,0,1-.118-.571q.406.04.827.094a1.946,1.946,0,0,0,.059.24l1.429,4.508,1.8-4.124c.261.064.526.133.793.205l-2.28,5.236a.35.35,0,0,1-.1.14.408.408,0,0,1-.27.1Z" transform="translate(1274.086 -658.702)" fill="#fff"/>
  </g>
</svg>
