<svg width="82" height="48" viewBox="0 0 82 48" fill="none" xmlns="http://www.w3.org/2000/svg">
<path fill-rule="evenodd" clip-rule="evenodd" d="M82 24C82 37.2063 71.1111 48 57.5 48C44.0185 48 33 37.2063 33 24C33 10.7937 43.8889 0 57.3704 0C71.1111 0 82 10.7937 82 24Z" fill="#FFB600"/>
<path fill-rule="evenodd" clip-rule="evenodd" d="M57.5 0C70.9815 0 82 10.7937 82 24C82 37.2063 71.1111 48 57.5 48C44.0185 48 33 37.2063 33 24" fill="#F7981D"/>
<path fill-rule="evenodd" clip-rule="evenodd" d="M57 0C70.7566 0 82 10.7937 82 24C82 37.2063 70.8889 48 57 48" fill="#FF8500"/>
<path fill-rule="evenodd" clip-rule="evenodd" d="M24.305 0C10.9178 0.126984 0 10.7937 0 24C0 37.2063 10.9178 48 24.565 48C30.9337 48 36.6525 45.5873 41.0716 41.7778C41.9814 41.0159 42.7613 40.127 43.5411 39.2381H38.4721C37.8223 38.4762 37.1724 37.5873 36.6525 36.8254H45.3607C45.8806 36.0635 46.4005 35.1746 46.7905 34.2857H35.2228C34.8329 33.5238 34.443 32.6349 34.183 31.746H47.7003C48.4801 29.3333 49 26.7936 49 24.127C49 22.3492 48.7401 20.6984 48.4801 19.0476H33.4032C33.5332 18.1587 33.7931 17.3968 34.0531 16.5079H47.5703C47.3103 15.619 46.9204 14.7302 46.5305 13.9683H35.0928C35.4828 13.0794 36.0027 12.3175 36.5225 11.4286H45.2308C44.7109 10.5397 44.061 9.65079 43.2812 8.88889H38.4721C39.252 8 40.0318 7.2381 40.9416 6.47619C36.6525 2.53968 30.8037 0.253968 24.435 0.253968C24.435 0 24.435 0 24.305 0Z" fill="#FF5050"/>
<path fill-rule="evenodd" clip-rule="evenodd" d="M0 23.8723C0 37.1489 10.9178 48 24.565 48C30.9337 48 36.6525 45.5745 41.0716 41.7447C41.9814 40.9787 42.7613 40.0851 43.5411 39.1915H38.4721C37.8223 38.4255 37.1724 37.5319 36.6525 36.766H45.3607C45.8806 36 46.4005 35.1064 46.7905 34.2128H35.2228C34.8329 33.4468 34.443 32.5532 34.183 31.6596H47.7003C48.4801 29.234 49 26.6809 49 24C49 22.2128 48.7401 20.5532 48.4801 18.8936H33.4032C33.5332 18 33.7931 17.234 34.0531 16.3404H47.5703C47.3103 15.4468 46.9204 14.5532 46.5305 13.7872H35.0928C35.4828 12.8936 36.0027 12.1277 36.5225 11.234H45.2308C44.7109 10.3404 44.061 9.44681 43.2812 8.68085H38.4721C39.252 7.78723 40.0318 7.02128 40.9416 6.25532C36.6525 2.29787 30.8037 0 24.435 0H24.305" fill="#E52836"/>
<path fill-rule="evenodd" clip-rule="evenodd" d="M24.2632 48C30.7105 48 36.5 45.5745 40.9737 41.7447C41.8947 40.9787 42.6842 40.0851 43.4737 39.1915H38.3421C37.6842 38.4255 37.0263 37.5319 36.5 36.766H45.3158C45.8421 36 46.3684 35.1064 46.7632 34.2128H35.0526C34.6579 33.4468 34.2632 32.5532 34 31.6596H47.6842C48.4737 29.234 49 26.6809 49 24C49 22.2128 48.7368 20.5532 48.4737 18.8936H33.2105C33.3421 18 33.6053 17.234 33.8684 16.3404H47.5526C47.2895 15.4468 46.8947 14.5532 46.5 13.7872H34.9211C35.3158 12.8936 35.8421 12.1277 36.3684 11.234H45.1842C44.6579 10.3404 44 9.44681 43.2105 8.68085H38.3421C39.1316 7.78723 39.9211 7.02128 40.8421 6.25532C36.5 2.29787 30.5789 0 24.1316 0H24" fill="#CB2026"/>
<path fill-rule="evenodd" clip-rule="evenodd" d="M33.2655 30.5827L33.6588 28.4C33.5277 28.4 33.2655 28.5284 33.0034 28.5284C32.0857 28.5284 31.9546 28.0148 32.0857 27.758L32.8723 23.2642H34.3143L34.7076 20.8247H33.3966L33.6588 19.2839H31.037C31.037 19.2839 29.4639 27.758 29.4639 28.7852C29.4639 30.3259 30.3815 30.9679 31.5613 30.9679C32.3479 30.9679 33.0034 30.7111 33.2655 30.5827Z" fill="white"/>
<path fill-rule="evenodd" clip-rule="evenodd" d="M38.7713 30.9679C36.6739 30.9679 34.1831 30.0691 34.1831 26.4741C34.1831 23.2642 36.1495 20.4395 38.9024 20.6963C41.7865 20.6963 42.7041 22.7506 42.7041 24.4198C42.7041 25.0617 42.3108 26.7309 42.3108 26.7309H36.936C36.936 26.7309 36.4117 28.7852 39.2957 28.7852C40.6066 28.7852 42.0487 28.1432 42.0487 28.1432L41.5243 30.5827C41.5243 30.5827 40.7377 30.9679 38.7713 30.9679ZM39.9551 24.4904C39.982 24.1661 40.0993 22.7506 38.7713 22.7506C37.3293 22.7506 37.0671 24.4198 37.0671 24.5482H39.9512C39.9512 24.538 39.9528 24.5182 39.9551 24.4904Z" fill="white"/>
<path fill-rule="evenodd" clip-rule="evenodd" d="M55.42 30.5827L55.9444 27.758C55.9444 27.758 54.6335 28.4 53.7158 28.4C51.8805 28.4 51.094 26.9877 51.094 25.4469C51.094 22.3655 52.6671 20.6963 54.5024 20.6963C55.8133 20.6963 56.8621 21.4667 56.8621 21.4667L57.2553 18.7704C57.2553 18.7704 55.6822 18.1284 54.2402 18.1284C51.2251 18.1284 48.21 20.6963 48.21 25.5753C48.21 28.7852 49.7831 30.9679 52.9293 30.9679C53.978 30.9679 55.42 30.5827 55.42 30.5827Z" fill="white"/>
<path fill-rule="evenodd" clip-rule="evenodd" d="M15.6991 20.9531C15.6991 20.9531 17.01 20.4395 18.8453 20.4395C19.7629 20.4395 22.3848 20.5679 22.3848 23.6494L21.336 30.7111H18.9764L19.1075 29.684C19.0798 29.684 19.023 29.7354 18.9334 29.8165C18.598 30.12 17.8028 30.8395 16.3545 30.8395C15.4369 30.8395 13.8638 30.3259 13.8638 28.0148C13.8638 25.0617 16.3545 24.163 18.5831 24.163H19.7629C19.7629 24.163 19.894 24.0346 19.894 23.521C19.894 22.7506 19.1075 22.6222 18.1898 22.6222C16.4856 22.6222 15.3058 23.1358 15.3058 23.1358L15.6991 20.9531ZM17.5344 28.6568C19.1075 28.6568 19.3697 26.6025 19.3697 26.2173C19.3697 26.2173 19.2386 26.2173 18.8453 26.0889C16.8789 26.0889 16.4856 26.9877 16.4856 27.6296C16.4856 28.0148 16.7478 28.6568 17.5344 28.6568Z" fill="white"/>
<path fill-rule="evenodd" clip-rule="evenodd" d="M24.8757 30.8395C25.5312 30.8395 28.8085 30.9679 28.8085 27.5012C28.8085 24.2913 25.6623 24.9333 25.6623 23.6494C25.6623 23.0074 26.1866 22.7506 27.1043 22.7506C27.4976 22.7506 28.9396 22.879 28.9396 22.879L29.3329 20.5679C29.3329 20.5679 28.4152 20.3111 26.8421 20.3111C24.8757 20.3111 22.9093 21.0815 22.9093 23.6494C22.9093 26.6025 26.1866 26.3457 26.1866 27.5012C26.1866 28.2716 25.269 28.4 24.6135 28.4C23.4337 28.4 22.2539 28.0148 22.2539 28.0148L21.8606 30.3259C21.9917 30.5827 22.6472 30.8395 24.8757 30.8395Z" fill="white"/>
<path fill-rule="evenodd" clip-rule="evenodd" d="M76.6571 21.8519L77.1815 18.3852L79.9344 18.5136L77.9681 30.8395H75.3462L75.4773 29.9407C75.4773 29.9407 74.5596 30.9679 72.9865 30.9679C70.758 30.9679 69.7092 28.7852 69.7092 26.7309C69.7092 23.3926 71.8067 20.5679 74.1664 20.5679C75.6084 20.5679 76.6571 21.8519 76.6571 21.8519ZM73.9042 28.4C75.3462 28.4 76.0017 26.6025 76.0017 25.1901C76.0017 23.6494 75.4773 23.0074 74.5596 23.0074C73.3798 23.0074 72.4622 24.2914 72.4622 26.3457C72.4622 27.6296 72.9865 28.4 73.9042 28.4Z" fill="white"/>
<path fill-rule="evenodd" clip-rule="evenodd" d="M4.55619 30.7111L6.1293 21.4667L6.39148 30.7111H8.22677L11.6352 21.4667L10.1932 30.7111H12.9461L15.0436 18.3852H10.7175L8.09568 25.9605L7.96459 18.3852H4.16291L2.06543 30.7111H4.55619Z" fill="white"/>
<path fill-rule="evenodd" clip-rule="evenodd" d="M45.1951 30.7111C45.9816 26.4741 46.1127 23.0074 47.948 23.6494C48.2102 21.9802 48.6035 21.3383 48.8657 20.6963C48.8657 20.6963 48.7346 20.6963 48.3413 20.6963C47.1615 20.6963 46.2438 22.237 46.2438 22.237L46.506 20.8247H44.0152L42.311 30.8395H45.1951V30.7111Z" fill="white"/>
<path fill-rule="evenodd" clip-rule="evenodd" d="M58.3043 20.9531C58.3043 20.9531 59.6152 20.4395 61.4505 20.4395C62.3682 20.4395 65.1211 20.5679 64.99 23.6494L63.9413 30.7111H61.5816L61.7127 29.684C61.685 29.684 61.6282 29.7354 61.5386 29.8165C61.2032 30.12 60.408 30.8395 58.9598 30.8395C58.0421 30.8395 56.469 30.3259 56.469 28.0148C56.469 25.0617 58.9598 24.163 61.1883 24.163H62.3682C62.3682 24.163 62.4992 24.0346 62.4992 23.521C62.4992 22.7506 61.7127 22.6222 60.795 22.6222C59.0908 22.6222 57.911 23.1358 57.911 23.1358L58.3043 20.9531ZM60.2707 28.6568C61.8438 28.6568 62.106 26.6025 62.106 26.2173C62.0738 26.2173 62.0495 26.2173 62.0254 26.2154C61.9512 26.2096 61.8784 26.1858 61.5816 26.0889C59.6152 26.0889 59.2219 26.9877 59.2219 27.6296C59.2219 28.0148 59.4841 28.6568 60.2707 28.6568Z" fill="white"/>
<path fill-rule="evenodd" clip-rule="evenodd" d="M67.2185 30.7111C68.0051 26.4741 68.1362 23.0074 69.9714 23.6494C70.2336 21.9802 70.6269 21.3383 70.8891 20.6963C70.8891 20.6963 70.758 20.6963 70.3647 20.6963C69.1849 20.6963 68.2672 22.237 68.2672 22.237L68.5294 20.8247H66.0387L64.3345 30.8395H67.2185V30.7111Z" fill="white"/>
<path fill-rule="evenodd" clip-rule="evenodd" d="M29.2017 28.7852C29.2017 30.3259 30.1193 30.9679 31.2991 30.9679C32.2168 30.9679 33.0033 30.7111 33.2655 30.5827L33.6588 28.4C33.5277 28.4 33.2655 28.5284 33.0033 28.5284C32.0857 28.5284 31.9546 28.0148 32.0857 27.758L32.8722 23.2642H34.3143L34.7075 20.8247H33.3966L33.6588 19.2839" fill="#DCE5E5"/>
<path fill-rule="evenodd" clip-rule="evenodd" d="M38.7715 30.9679C36.674 30.9679 35.4941 30.0691 35.4941 26.4741C35.4941 23.2642 36.1496 20.4395 38.9025 20.6963C41.7866 20.6963 42.7042 22.7506 42.7042 24.4198C42.7042 25.0617 42.3109 26.7309 42.3109 26.7309H36.9362C36.9362 26.7309 36.4118 28.7852 39.2958 28.7852C40.6067 28.7852 42.0488 28.1432 42.0488 28.1432L41.5244 30.5827C41.5244 30.5827 40.7378 30.9679 38.7715 30.9679ZM40.4757 24.5482C40.4757 24.4198 40.2135 22.7506 38.7715 22.7506C37.3294 22.7506 37.0672 24.4198 37.0672 24.5482H40.4757Z" fill="#DCE5E5"/>
<path fill-rule="evenodd" clip-rule="evenodd" d="M55.4202 30.5827L55.9445 27.758C55.9445 27.758 54.6336 28.4 53.716 28.4C51.8807 28.4 51.0941 26.9877 51.0941 25.4469C51.0941 22.3655 52.6672 20.6963 54.5025 20.6963C55.8134 20.6963 56.8622 21.4667 56.8622 21.4667L57.2554 18.7704C57.2554 18.7704 55.6823 18.1284 54.2403 18.1284C51.2252 18.1284 49.521 20.6963 49.521 25.5753C49.521 28.7852 49.7832 30.9679 52.9294 30.9679C53.9781 30.9679 55.4202 30.5827 55.4202 30.5827Z" fill="#DCE5E5"/>
<path fill-rule="evenodd" clip-rule="evenodd" d="M18.1898 22.7506C16.4856 22.7506 15.3058 23.2642 15.3058 23.2642L18.7142 20.6963C19.7629 20.6963 22.3848 20.8247 22.3848 23.7778L21.336 30.8395H18.9764L19.1075 29.8123C19.0798 29.8123 19.023 29.8637 18.9334 29.9448C18.598 30.2483 17.8028 30.9679 16.3545 30.9679C15.4369 30.9679 13.8638 30.4543 13.8638 28.1432C13.8638 25.1901 16.3545 24.2914 18.5831 24.2914H19.7629C19.7629 24.2914 19.894 24.163 19.894 23.6494C19.894 22.879 19.1075 22.7506 18.1898 22.7506ZM17.5344 28.6568C19.1075 28.6568 20.6806 26.6025 20.6806 26.2173C20.6806 26.2173 19.2386 26.2173 18.8453 26.0889C16.8789 26.0889 16.4856 26.9876 16.4856 27.6296C16.4856 28.0148 16.7478 28.6568 17.5344 28.6568Z" fill="#DCE5E5"/>
<path fill-rule="evenodd" clip-rule="evenodd" d="M21.9917 30.5827C21.9917 30.5827 22.7783 30.8395 25.0068 30.8395C25.6623 30.8395 28.9396 30.9679 28.9396 27.5012C28.9396 24.2913 25.7934 24.9333 25.7934 23.6494C25.7934 23.0074 26.3177 22.7506 27.2354 22.7506C27.6287 22.7506 29.0707 22.879 29.0707 22.879L29.464 20.5679C29.464 20.5679 28.5463 20.3111 26.9732 20.3111C25.0068 20.3111 24.3514 21.0815 24.3514 23.6494C24.3514 26.6025 26.3177 26.3457 26.3177 27.5012C26.3177 28.2716 25.4001 28.4 24.7446 28.4" fill="#DCE5E5"/>
<path fill-rule="evenodd" clip-rule="evenodd" d="M74.1665 20.5679C75.6085 20.5679 76.6572 21.8518 76.6572 21.8518L79.9345 18.5135L77.9682 30.8395H75.3463L75.4774 29.9407C75.4774 29.9407 74.5598 30.9679 72.9866 30.9679C70.9712 30.9679 70.9929 29.1827 71.0155 27.3218C71.0179 27.125 71.0203 26.9273 71.0203 26.7308C71.0203 23.3926 71.8068 20.5679 74.1665 20.5679ZM73.9043 28.4C75.3463 28.4 76.5261 26.6024 76.5261 25.1901C76.5261 23.6494 75.4774 23.0074 74.5598 23.0074C73.3799 23.0074 72.4623 24.2913 72.4623 26.3456C72.4623 27.6296 72.9866 28.4 73.9043 28.4Z" fill="#DCE5E5"/>
<path fill-rule="evenodd" clip-rule="evenodd" d="M4.55619 30.7111L6.1293 21.4667L6.39148 30.7111H8.22677L11.6352 21.4667L10.1932 30.7111H12.9461L15.0436 18.3852H11.7663L8.09568 25.9605L7.96459 18.3852H6.52257L2.06543 30.7111H4.55619Z" fill="#DCE5E5"/>
<path fill-rule="evenodd" clip-rule="evenodd" d="M42.4419 30.7111H45.1948C45.9814 26.4741 46.1125 23.0074 47.9478 23.6494C48.21 21.9802 48.6032 21.3383 48.8654 20.6963C48.8654 20.6963 48.7343 20.6963 48.3411 20.6963C47.1612 20.6963 46.2436 22.237 46.2436 22.237L46.5058 20.8247" fill="#DCE5E5"/>
<path fill-rule="evenodd" clip-rule="evenodd" d="M60.795 22.7506C59.0908 22.7506 57.911 23.2642 57.911 23.2642L61.3194 20.6963C62.3682 20.6963 64.99 20.8247 64.99 23.7778L63.9413 30.8395H61.5816L61.7127 29.8123C61.685 29.8123 61.6282 29.8637 61.5386 29.9448C61.2032 30.2483 60.408 30.9679 58.9598 30.9679C58.0421 30.9679 56.469 30.4543 56.469 28.1432C56.469 25.1901 58.9598 24.2914 61.1883 24.2914H62.3682C62.3682 24.2914 62.4992 24.163 62.4992 23.6494C62.4992 22.879 61.7127 22.7506 60.795 22.7506ZM60.1396 28.6568C61.7127 28.6568 63.2858 26.6025 63.2858 26.2173C63.2858 26.2173 61.9749 26.2173 61.4505 26.0889C59.4841 26.0889 59.0908 26.9876 59.0908 27.6296C59.0908 28.0148 59.353 28.6568 60.1396 28.6568Z" fill="#DCE5E5"/>
<path fill-rule="evenodd" clip-rule="evenodd" d="M64.4656 30.7111H67.2185C68.0051 26.4741 68.1362 23.0074 69.9715 23.6494C70.2336 21.9802 70.6269 21.3383 70.8891 20.6963C70.8891 20.6963 70.758 20.6963 70.3647 20.6963C69.1849 20.6963 68.2673 22.237 68.2673 22.237L68.5294 20.8247" fill="#DCE5E5"/>
</svg>
