<svg width="101" height="31" viewBox="0 0 101 31" fill="none" xmlns="http://www.w3.org/2000/svg">
<path fill-rule="evenodd" clip-rule="evenodd" d="M37 30L42.0732 1H50L45.0854 30H37Z" fill="#3C58BF"/>
<path fill-rule="evenodd" clip-rule="evenodd" d="M37 30L43.5 1H50L45.0854 30H37Z" fill="#293688"/>
<path fill-rule="evenodd" clip-rule="evenodd" d="M75 1.26316C73.366 0.631579 70.7516 0 67.4837 0C59.3137 0 53.4314 3.94737 53.4314 9.63158C53.4314 13.8947 57.5163 16.1053 60.7843 17.5263C64.0523 18.9474 65.0327 19.8947 65.0327 21.1579C65.0327 23.0526 62.4183 24 60.1307 24C56.8627 24 55.0654 23.5263 52.2876 22.4211L51.1438 21.9474L50 28.4211C51.9608 29.2105 55.5556 30 59.3137 30C67.9739 30 73.6928 26.0526 73.6928 20.0526C73.6928 16.7368 71.5686 14.2105 66.6667 12.1579C63.7255 10.7368 61.9281 9.94737 61.9281 8.52632C61.9281 7.26316 63.3987 6 66.6667 6C69.4444 6 71.4052 6.47368 72.8758 7.10526L73.6928 7.42105L75 1.26316Z" fill="#3C58BF"/>
<path fill-rule="evenodd" clip-rule="evenodd" d="M75 1.26316C73.366 0.631579 70.7516 0 67.4837 0C59.3137 0 54.902 3.94737 54.902 9.63158C54.902 13.8947 57.5163 16.1053 60.7843 17.5263C64.0523 18.9474 65.0327 19.8947 65.0327 21.1579C65.0327 23.0526 62.4183 24 60.1307 24C56.8627 24 55.0654 23.5263 52.2876 22.4211L51.1438 21.9474L50 28.4211C51.9608 29.2105 55.5556 30 59.3137 30C67.9739 30 73.6928 26.0526 73.6928 20.0526C73.6928 16.7368 71.5686 14.2105 66.6667 12.1579C63.7255 10.7368 61.9281 9.94737 61.9281 8.52632C61.9281 7.26316 63.3987 6 66.6667 6C69.4444 6 71.4052 6.47368 72.8758 7.10526L73.6928 7.42105L75 1.26316Z" fill="#293688"/>
<path fill-rule="evenodd" clip-rule="evenodd" d="M83.9505 3.09444C84.7473 1.16111 86.1813 1 88.0934 1H94.3077L101 30H93.3516L92.3956 25.1667H82.1978L80.6044 30H72L83.9505 3.09444ZM87.6154 11.7944C87.6154 11.7944 84.9066 18.8833 84.4286 20.3333V20.4944H91.1209C90.8022 18.8833 89.2088 11.6333 89.2088 11.6333L88.7308 8.89444C88.2527 10.0222 87.6154 11.7944 87.6154 11.7944Z" fill="#3C58BF"/>
<path fill-rule="evenodd" clip-rule="evenodd" d="M85.8626 3.09444C86.6593 1.16111 88.0934 1 90.0055 1H94.3077L101 30H93.3516L92.3956 25.1667H82.1978L80.6044 30H72L85.8626 3.09444ZM87.6154 11.7944C87.6154 11.7944 85.0659 18.7222 84.4286 20.3333V20.4944H91.1209C90.8022 18.8833 89.2088 11.6333 89.2088 11.6333L88.7308 8.89444C88.2527 10.0222 87.6154 11.7944 87.6154 11.7944Z" fill="#293688"/>
<path fill-rule="evenodd" clip-rule="evenodd" d="M22.0833 21.1389L21.2778 16.95C19.8278 12.1167 15.1556 6.8 10 4.22222L17.25 30H25.95L39 1H30.3L22.0833 21.1389Z" fill="#3C58BF"/>
<path fill-rule="evenodd" clip-rule="evenodd" d="M22.0833 21.1389L21.2778 16.95C19.8278 12.1167 15.1556 6.8 10 4.22222L17.25 30H25.95L39 1H31.9111L22.0833 21.1389Z" fill="#293688"/>
<path fill-rule="evenodd" clip-rule="evenodd" d="M0 1L1.47761 1.32C11.9851 3.72 19.209 9.8 22 17L19.0448 3.4C18.5522 1.48 17.0746 1 15.2687 1H0V1Z" fill="#FFBC00"/>
<path fill-rule="evenodd" clip-rule="evenodd" d="M0 1C10.5075 3.42424 19.209 9.72727 22 17L19.209 5.52525C18.7164 3.58586 17.0746 2.45455 15.2687 2.45455L0 1Z" fill="#F7981D"/>
<path fill-rule="evenodd" clip-rule="evenodd" d="M0 1C10.5075 3.42424 19.209 9.72727 22 17L20.0299 10.697C19.5373 8.75758 18.8806 6.81818 16.5821 6.0101L0 1Z" fill="#ED7C00"/>
<path fill-rule="evenodd" clip-rule="evenodd" d="M29.9717 20.3218L24.4956 14.8L21.9186 20.9714L21.2743 16.9113C19.8248 12.0391 15.154 6.67967 10 4.08118L17.2478 30.0661H25.9451L29.9717 20.3218Z" fill="#051244"/>
<path fill-rule="evenodd" clip-rule="evenodd" d="M44.9505 30.0662L38.0248 22.9203L36.7363 30.0662H44.9505Z" fill="#051244"/>
<path fill-rule="evenodd" clip-rule="evenodd" d="M63.4726 19.997C64.1168 20.6466 64.439 21.1339 64.2779 21.7835C64.2779 23.7323 61.7009 24.7068 59.446 24.7068C56.2248 24.7068 54.4531 24.2196 51.7151 23.0827L50.5876 22.5955L49.4602 29.2542C51.3929 30.0662 54.9363 30.8782 58.6407 30.8782C63.7947 30.8782 67.9823 29.4166 70.3983 26.8181L63.4726 19.997Z" fill="#051244"/>
<path fill-rule="evenodd" clip-rule="evenodd" d="M72.8142 30.0661H80.3841L81.9947 25.194H92.3027L93.2691 30.0661H101L98.262 18.2105L88.5983 8.79095L89.0815 11.3895C89.0815 11.3895 90.6921 18.6977 91.0142 20.3218H84.2496C84.8939 18.6977 87.4708 11.7143 87.4708 11.7143C87.4708 11.7143 88.1151 9.9278 88.5983 8.79095" fill="#051244"/>
</svg>
